<?xml version="1.0" encoding="utf-8"?>
<!-- Generator: Adobe Illustrator 16.0.0, SVG Export Plug-In . SVG Version: 6.00 Build 0)  -->
<!DOCTYPE svg PUBLIC "-//W3C//DTD SVG 1.1//EN" "http://www.w3.org/Graphics/SVG/1.1/DTD/svg11.dtd">
<svg version="1.1"
	 id="svg8" xmlns:dc="http://purl.org/dc/elements/1.1/" xmlns:cc="http://creativecommons.org/ns#" xmlns:rdf="http://www.w3.org/1999/02/22-rdf-syntax-ns#" xmlns:svg="http://www.w3.org/2000/svg" xmlns:sodipodi="http://sodipodi.sourceforge.net/DTD/sodipodi-0.dtd" xmlns:inkscape="http://www.inkscape.org/namespaces/inkscape" sodipodi:docname="istanbul-ilceler.svg" inkscape:version="0.92.3 (2405546, 2018-03-11)"
	 xmlns="http://www.w3.org/2000/svg" xmlns:xlink="http://www.w3.org/1999/xlink" x="0px" y="0px" width="54.8px"
	 height="133.801px" viewBox="-275.36 900 54.8 133.801" enable-background="new -275.36 900 54.8 133.801" xml:space="preserve">
<path id="path4521" inkscape:connector-curvature="0" fill="#3F98D7" fill-opacity="0.3" stroke="#2473AC" stroke-width="0.8" stroke-linecap="round" stroke-linejoin="round" d="
	M-236.96,942.4l-15-19l-6-5v-4l-5-8l-6-6v14l2,10l4,5v11l2,6h-6l-8,3v2l6,7v2l4,2v2l-4,4v4h4l2,3h2v9l-4,7h2l2,3l-2,3v7l-6-1l-2-2
	h-3v2l3,10l9,9l-1,5l11,2v2l2,1l-2-2h2l6,3l1-3h7l2,2l5-6l7-4l1-3l-13-1l-5-15l-3-1l-1-4l-5-5v-5l4-3h2v2l3,2h6v-8l-4-11v-4l-1-3
	l-4-3l1-4l3-3l3-2l1,4l1-1l1-6l3-3l-2-4l-5,2L-236.96,942.4z"/>
</svg>
