<?xml version="1.0" encoding="utf-8"?>
<!-- Generator: Adobe Illustrator 16.0.0, SVG Export Plug-In . SVG Version: 6.00 Build 0)  -->
<!DOCTYPE svg PUBLIC "-//W3C//DTD SVG 1.1//EN" "http://www.w3.org/Graphics/SVG/1.1/DTD/svg11.dtd">
<svg version="1.1"
	 id="svg8" xmlns:dc="http://purl.org/dc/elements/1.1/" xmlns:cc="http://creativecommons.org/ns#" xmlns:rdf="http://www.w3.org/1999/02/22-rdf-syntax-ns#" xmlns:svg="http://www.w3.org/2000/svg" xmlns:sodipodi="http://sodipodi.sourceforge.net/DTD/sodipodi-0.dtd" xmlns:inkscape="http://www.inkscape.org/namespaces/inkscape" sodipodi:docname="istanbul-ilceler.svg" inkscape:version="0.92.3 (2405546, 2018-03-11)"
	 xmlns="http://www.w3.org/2000/svg" xmlns:xlink="http://www.w3.org/1999/xlink" x="0px" y="0px" width="58.8px" height="84.801px"
	 viewBox="-601.299 502.5 58.8 84.801" enable-background="new -601.299 502.5 58.8 84.801" xml:space="preserve">
<path id="path4565" inkscape:connector-curvature="0" fill="#3F98D7" fill-opacity="0.3" stroke="#2473AC" stroke-width="0.8" stroke-linecap="round" stroke-linejoin="round" d="
	M-556.899,503.9l-11-1l-6,2h-24l1,1l-4,8h5l-1,6l4,3l2,6l-2,5l2,18l4,2l9,1l1,3l-5,6h-2l-1,3l10,14l-2,2l1,3l1-5l-2-3l7,1l4-1l3-3
	l3,1l1-9l3-3l6,1l5,6l2-1l-6-6l-2-14h-2v-5l2-4l-1-2l3-1l-1-12l-2-4l3-17l-2,1l-5-2H-556.899z M-577.899,575.9h-4l-1,3l-5,1l-1,4h4
	l4-4l1,2h4l1-1l-3-4V575.9z M-575.899,586.9l-5-6v2L-575.899,586.9z"/>
</svg>
