<?xml version="1.0" encoding="utf-8"?>
<!-- Generator: Adobe Illustrator 16.0.0, SVG Export Plug-In . SVG Version: 6.00 Build 0)  -->
<!DOCTYPE svg PUBLIC "-//W3C//DTD SVG 1.1//EN" "http://www.w3.org/Graphics/SVG/1.1/DTD/svg11.dtd">
<svg version="1.1"
	 id="svg8" xmlns:dc="http://purl.org/dc/elements/1.1/" xmlns:cc="http://creativecommons.org/ns#" xmlns:rdf="http://www.w3.org/1999/02/22-rdf-syntax-ns#" xmlns:svg="http://www.w3.org/2000/svg" xmlns:sodipodi="http://sodipodi.sourceforge.net/DTD/sodipodi-0.dtd" xmlns:inkscape="http://www.inkscape.org/namespaces/inkscape" sodipodi:docname="istanbul-ilceler.svg" inkscape:version="0.92.3 (2405546, 2018-03-11)"
	 xmlns="http://www.w3.org/2000/svg" xmlns:xlink="http://www.w3.org/1999/xlink" x="0px" y="0px" width="89.8px" height="49.801px"
	 viewBox="-437.1 611 89.8 49.801" enable-background="new -437.1 611 89.8 49.801" xml:space="preserve">
<path id="path4527" inkscape:connector-curvature="0" fill="#3F98D7" fill-opacity="0.3" stroke="#2473AC" stroke-width="0.8" stroke-linecap="round" stroke-linejoin="round" d="
	M-350.7,624.4l1-4l-2-2l1-4l3-3l-34,14l-23-2l-6-6l-6-1l-3,3l-1,9l-3-1l-6,4l-7-1v9l11,6l15,14l1-1l2,2h7l-1-1l3-1l1,2l6-3l1,1l2-2
	l4-8l-1-2l2-2l3,2l-3-3l3,3l-2-3l2-2l12,1v2l5,3l4-4l-3,3h-2l2-3h2l-1-1l2-2l4-1l3-3l1,1l-1,1l2-10l-1-2L-350.7,624.4z"/>
</svg>
