<?xml version="1.0" encoding="utf-8"?>
<!-- Generator: Adobe Illustrator 16.0.0, SVG Export Plug-In . SVG Version: 6.00 Build 0)  -->
<!DOCTYPE svg PUBLIC "-//W3C//DTD SVG 1.1//EN" "http://www.w3.org/Graphics/SVG/1.1/DTD/svg11.dtd">
<svg version="1.1"
	 id="svg8" xmlns:dc="http://purl.org/dc/elements/1.1/" xmlns:cc="http://creativecommons.org/ns#" xmlns:rdf="http://www.w3.org/1999/02/22-rdf-syntax-ns#" xmlns:svg="http://www.w3.org/2000/svg" xmlns:sodipodi="http://sodipodi.sourceforge.net/DTD/sodipodi-0.dtd" xmlns:inkscape="http://www.inkscape.org/namespaces/inkscape" sodipodi:docname="istanbul-ilceler.svg" inkscape:version="0.92.3 (2405546, 2018-03-11)"
	 xmlns="http://www.w3.org/2000/svg" xmlns:xlink="http://www.w3.org/1999/xlink" x="0px" y="0px" width="85.8px" height="72.801px"
	 viewBox="465.333 631 85.8 72.801" enable-background="new 465.333 631 85.8 72.801" xml:space="preserve">
<path id="path4563" inkscape:connector-curvature="0" fill="#3F98D7" fill-opacity="0.3" stroke="#2473AC" stroke-width="0.8" stroke-linecap="round" stroke-linejoin="round" d="
	M532.733,635.4l-2-4l-5,1l-9,15l-2,12l-2,2l-2,1l-1-3l-4,3l-7-1l-7,3l-1-1l-11,5l1,1l-6,4l-3-5l-6,4v4l3,4l4,2v-2l5,1l9,6l9,9h4l2-2
	l6,4h5l9,5l3-6l-1-5h4l1-7l5,4l4-3l1-3l3,1l3-3l-2-12l1-1l-2-5l5-3l2-7l2-1l-4-11l1-1l-4-7L532.733,635.4z"/>
</svg>
