<?xml version="1.0" encoding="utf-8"?>
<!-- Generator: Adobe Illustrator 16.0.0, SVG Export Plug-In . SVG Version: 6.00 Build 0)  -->
<!DOCTYPE svg PUBLIC "-//W3C//DTD SVG 1.1//EN" "http://www.w3.org/Graphics/SVG/1.1/DTD/svg11.dtd">
<svg version="1.1"
	 id="svg8" xmlns:dc="http://purl.org/dc/elements/1.1/" xmlns:cc="http://creativecommons.org/ns#" xmlns:rdf="http://www.w3.org/1999/02/22-rdf-syntax-ns#" xmlns:svg="http://www.w3.org/2000/svg" xmlns:sodipodi="http://sodipodi.sourceforge.net/DTD/sodipodi-0.dtd" xmlns:inkscape="http://www.inkscape.org/namespaces/inkscape" sodipodi:docname="istanbul-ilceler.svg" inkscape:version="0.92.3 (2405546, 2018-03-11)"
	 xmlns="http://www.w3.org/2000/svg" xmlns:xlink="http://www.w3.org/1999/xlink" x="0px" y="0px" width="219.8px" height="186.8px"
	 viewBox="211.029 153 219.8 186.8" enable-background="new 211.029 153 219.8 186.8" xml:space="preserve">
<path id="path4535" inkscape:connector-curvature="0" fill="#3F98D7" fill-opacity="0.3" stroke="#2473AC" stroke-width="0.8" stroke-linecap="round" stroke-linejoin="round" d="
	M351.429,155.4v-2l-8,2l-2,4h-11l-2-2h-7l1,5l-2,2l-6,2l-4-3l-2,4l-12-2l-1,1l-7-4l-3,1l-2,2l-1,5l-6-3l1,1l-3,1l1,4l-3,2h-6l-3,3
	l-2-1l-6,5l4-3l1,1v2l-3,3l-3-1l-4,2l1,11l-6,6l1-1l-4,1v2l-4-1l-11,3l2,5l-1,3l-9,4l-2,3l4,9l-5,11l7,5h4l4,4l4,6v8l-6,3l-5,6v2h-6
	l-5,4l-2,5l2,4v10l-2,6h2l9,12l4,1l5-2l3,1l2,4l6-1l4,2l9,9h3l3-3l2,1l-1,3l3,3v4l3-2v-3h4v-2h4l11-6h17l4,2l3-1v-2h5l1-2l-5-11
	l4-19l10-7v-7l7-6h2l1,6l3,2l2-2l2,2l3-2v-6l3-1v-4h2l3-3l2,2l10-5l3,1l2-5v-6l5,1l2,2h4l3,3h6l6-4l5,4l9-1l2-2h6l2,4l6-1l3-11l-2-4
	l-4-2l-2,1l1-7l-3-3l-5,1l1-3h-2v-3l-2-2l-7,1l-2,2l1-3l-3-4l1-3l-2-2l-1,2l1-11l-3-4l2-10l-1-1l8-9l-2-7l2-4l-3-2h-6l-7-4l-3,1
	l-11-2l-6-2l-4-4l-3,1l-2-2l-1,1l-2-3l-6,1L351.429,155.4z M247.429,306.4l-6,3l-3-3H247.429z M247.429,306.4h1H247.429z
	 M248.429,306.4l3-3l3,2l3-6l3,1l3-3l-1,2l3,3l-3-3l-5,3l1,1l-3,3h-2l1,6l1,1l2-2v2h-4l3,3l5-2l2,3l-1,3l2,4h-2l1-1l-2-2l-1-6l-4,2
	l-4-4v-6l-3-1H248.429z M262.429,325.4l-1,1L262.429,325.4z M261.429,326.4v2V326.4z"/>
</svg>
