<?xml version="1.0" encoding="utf-8"?>
<!-- Generator: Adobe Illustrator 16.0.0, SVG Export Plug-In . SVG Version: 6.00 Build 0)  -->
<!DOCTYPE svg PUBLIC "-//W3C//DTD SVG 1.1//EN" "http://www.w3.org/Graphics/SVG/1.1/DTD/svg11.dtd">
<svg version="1.1"
	 id="svg8" xmlns:dc="http://purl.org/dc/elements/1.1/" xmlns:cc="http://creativecommons.org/ns#" xmlns:rdf="http://www.w3.org/1999/02/22-rdf-syntax-ns#" xmlns:svg="http://www.w3.org/2000/svg" xmlns:sodipodi="http://sodipodi.sourceforge.net/DTD/sodipodi-0.dtd" xmlns:inkscape="http://www.inkscape.org/namespaces/inkscape" sodipodi:docname="istanbul-ilceler.svg" inkscape:version="0.92.3 (2405546, 2018-03-11)"
	 xmlns="http://www.w3.org/2000/svg" xmlns:xlink="http://www.w3.org/1999/xlink" x="0px" y="0px" width="76.8px" height="59.801px"
	 viewBox="-405 998.5 76.8 59.801" enable-background="new -405 998.5 76.8 59.801" xml:space="preserve">
<path id="path4537" inkscape:connector-curvature="0" fill="#3F98D7" fill-opacity="0.3" stroke="#2473AC" stroke-width="0.8" stroke-linecap="round" stroke-linejoin="round" d="
	M-376.6,998.9l-6,1v7l-10,18l-6-6h-5l-1,10l2,6l-2,8l2,4l15,7h11l9-2h12v2l-4-1l6,1v-2v4l4,2l-2-2v-4l2-1l2,3v-3l1,3v-4l1-1l1,3v-4
	l3,4l1-5l1,5l-1-4l6-5l5-1l1-5l-9-11l-3-9v-2h3l-4-4h-10l-18-8L-376.6,998.9z"/>
</svg>
