<?xml version="1.0" encoding="utf-8"?>
<!-- Generator: Adobe Illustrator 16.0.0, SVG Export Plug-In . SVG Version: 6.00 Build 0)  -->
<!DOCTYPE svg PUBLIC "-//W3C//DTD SVG 1.1//EN" "http://www.w3.org/Graphics/SVG/1.1/DTD/svg11.dtd">
<svg version="1.1"
	 id="svg8" xmlns:dc="http://purl.org/dc/elements/1.1/" xmlns:cc="http://creativecommons.org/ns#" xmlns:rdf="http://www.w3.org/1999/02/22-rdf-syntax-ns#" xmlns:svg="http://www.w3.org/2000/svg" xmlns:sodipodi="http://sodipodi.sourceforge.net/DTD/sodipodi-0.dtd" xmlns:inkscape="http://www.inkscape.org/namespaces/inkscape" sodipodi:docname="istanbul-ilceler.svg" inkscape:version="0.92.3 (2405546, 2018-03-11)"
	 xmlns="http://www.w3.org/2000/svg" xmlns:xlink="http://www.w3.org/1999/xlink" x="0px" y="0px" width="49.8px" height="87.801px"
	 viewBox="-329 516.5 49.8 87.801" enable-background="new -329 516.5 49.8 87.801" xml:space="preserve">
<path id="path4547" inkscape:connector-curvature="0" fill="#3F98D7" fill-opacity="0.3" stroke="#2473AC" stroke-width="0.8" stroke-linecap="round" stroke-linejoin="round" d="
	M-295.6,549.9v-4l-14-16l-6-13l-6,23l-4,11l-3,3l7,4l4-1l4-6l5,1l-5,10v6l4,5l1,9l8,1l2,2l1,5l5-2l4,2l1,2l-3,7l1,4l2,1l2-2l6-1
	l-1-8l-3-7l-4-1l-4-6l1-17l-5-11V549.9z"/>
</svg>
