<?xml version="1.0" encoding="utf-8"?>
<!-- Generator: Adobe Illustrator 16.0.0, SVG Export Plug-In . SVG Version: 6.00 Build 0)  -->
<!DOCTYPE svg PUBLIC "-//W3C//DTD SVG 1.1//EN" "http://www.w3.org/Graphics/SVG/1.1/DTD/svg11.dtd">
<svg version="1.1"
	 id="svg8" xmlns:dc="http://purl.org/dc/elements/1.1/" xmlns:cc="http://creativecommons.org/ns#" xmlns:rdf="http://www.w3.org/1999/02/22-rdf-syntax-ns#" xmlns:svg="http://www.w3.org/2000/svg" xmlns:sodipodi="http://sodipodi.sourceforge.net/DTD/sodipodi-0.dtd" xmlns:inkscape="http://www.inkscape.org/namespaces/inkscape" sodipodi:docname="istanbul-ilceler.svg" inkscape:version="0.92.3 (2405546, 2018-03-11)"
	 xmlns="http://www.w3.org/2000/svg" xmlns:xlink="http://www.w3.org/1999/xlink" x="0px" y="0px" width="191.8px" height="115.8px"
	 viewBox="430.429 346.666 191.8 115.8" enable-background="new 430.429 346.666 191.8 115.8" xml:space="preserve">
<path id="path4545" inkscape:connector-curvature="0" fill="#3F98D7" fill-opacity="0.3" stroke="#2473AC" stroke-width="0.8" stroke-linecap="round" stroke-linejoin="round" d="
	M542.829,350.066l-1-2l-5-1l1,4l-2,2l-1,5l-3-1l-9,5l-4-2l-1,3l-3-1v5l-3,1v6l-3,2l-2-2l-2,2l-4-3l-1-5l-8,6l1,7l-7,4v2h-4l-3,10
	l-1,10l2,2v4l3,3l-1,3l-5,1l1,1l-3,2l-5-2l-15,1l-2-2l-2,3l-8,4l-9,2v3l-3,3l1,6l4-2l10,1l9,6l7,9l2,5l15,2l7-3l17-1l1-5l5,1l1-3
	l-1,1h3v-5h10l7-8l1-5l7-4l1-5l4-1l6,4h10l4-2h6l2,2h12l2,7l1-3l2,3l2-1l2,2l2-4l-3-4l-1,1l1-3l-2-2l4-6l-2-4l3-2v2h2v-6l2,6l3,1v-9
	l-2-1h2l-4-4v-2l2,2l2-1l-2-2h2v-2l2,1v9l2,4v-5l1-1l1,3l2-1l-1-7h3v6l7-6v-4h4v-3l-4-1l-3-3l4-4l1,1l3-2v-4l-7-4l-1-3l-6-3l-1-11
	l-5-5l-5,4l-3-3l-9-1v-3h-6l-2,2l-5,1h-4l-5-4l-5,4h-8l-2-3H542.829z"/>
</svg>
