<?xml version="1.0" encoding="utf-8"?>
<!-- Generator: Adobe Illustrator 16.0.0, SVG Export Plug-In . SVG Version: 6.00 Build 0)  -->
<!DOCTYPE svg PUBLIC "-//W3C//DTD SVG 1.1//EN" "http://www.w3.org/Graphics/SVG/1.1/DTD/svg11.dtd">
<svg version="1.1"
	 id="svg8" xmlns:dc="http://purl.org/dc/elements/1.1/" xmlns:cc="http://creativecommons.org/ns#" xmlns:rdf="http://www.w3.org/1999/02/22-rdf-syntax-ns#" xmlns:svg="http://www.w3.org/2000/svg" xmlns:sodipodi="http://sodipodi.sourceforge.net/DTD/sodipodi-0.dtd" xmlns:inkscape="http://www.inkscape.org/namespaces/inkscape" sodipodi:docname="istanbul-ilceler.svg" inkscape:version="0.92.3 (2405546, 2018-03-11)"
	 xmlns="http://www.w3.org/2000/svg" xmlns:xlink="http://www.w3.org/1999/xlink" x="0px" y="0px" width="153.8px"
	 height="89.801px" viewBox="-666.899 711.099 153.8 89.801" enable-background="new -666.899 711.099 153.8 89.801"
	 xml:space="preserve">
<path id="path4529" inkscape:connector-curvature="0" fill="#3F98D7" fill-opacity="0.3" stroke="#2473AC" stroke-width="0.8" stroke-linecap="round" stroke-linejoin="round" d="
	M-558.5,712.5l-4-1l-8,10l-5,2l-7,6l-5-1l-1-2l-6,1l-1-3l-2,4l1,9h-2l-1,9l-5,2l-3,4l-4,2l-3-5h-3v-2l-5-4l-6-2l-4-5h-2l-7,10v2l3,1
	l-7,3l-8,9l-2-2l-9-2l-2,4l4,3l4,7l3,11l14,12l9,2v2l4,2l7-1l-2-5v-12l-4-5l-2-9l1-11l-2-4l7,6l5,11l22,26l4-2l2,2l6,1l9-2l9,1l6-2
	h8l9,3l4-4l-1-3l2-4l12,3l4-3l4-10l2-11l3-5v-8l-4-7l1-4l-16-15l-3-2l-9-1L-558.5,712.5z"/>
</svg>
