<svg xmlns="http://www.w3.org/2000/svg" xmlns:xlink="http://www.w3.org/1999/xlink"  pointer-events="none" class="leaflet-zoom-animated" width="2304" height="1104" viewBox="-192 -92 2304 1104" style="transform: translate3d(-192px, -92px, 0px);"><g><path class="leaflet-interactive" stroke="#2473AC" stroke-opacity="1" stroke-width="0.8" stroke-linecap="round" stroke-linejoin="round" fill="#3F98D7" fill-opacity="0.3" fill-rule="evenodd" d="M1079 740L1076 738L1076 740L1067 743L1066 752L1061 753L1066 754L1063 759L1067 767L1063 771L1065 771L1067 775L1074 775L1074 760L1084 744L1084 742L1081 739L1079 740zM1052 730L1048 731L1049 733L1045 737L1039 739L1037 745L1038 746L1043 747L1043 744L1045 742L1048 744L1046 746L1051 744L1052 745L1057 741L1057 739L1059 740L1056 732L1052 730zM1025 728L1023 728L1025 732L1022 735L1022 737L1028 740L1033 739L1035 735L1033 732L1034 731L1032 729L1025 728zM1020 701L1012 703L1013 707L1017 710L1017 713L1020 713L1025 709L1023 703L1021 702zM1088 760L1088 758L1085 762L1089 766L1091 766L1090 761L1088 760zM977 748L976 747L977 750L979 750L980 749L978 748zM963 737L961 739L962 740L964 738L965 739L963 737zM1039 733L1039 729L1039 733zM1066 791L1066 794L1066 792z"></path><path class="leaflet-interactive" stroke="#2473AC" stroke-opacity="1" stroke-width="0.8" stroke-linecap="round" stroke-linejoin="round" fill="#3F98D7" fill-opacity="0.3" fill-rule="evenodd" d="M614 224L612 229L612 238L618 239L620 241L629 240L636 243L639 246L641 246L641 248L644 251L642 255L643 254L650 256L652 254L652 256L655 257L657 254L660 253L663 259L668 259L672 257L669 261L671 262L673 268L679 273L680 276L686 276L686 283L687 285L691 285L691 292L692 293L694 291L697 295L703 295L705 293L715 313L719 317L729 313L736 305L736 307L738 307L735 308L736 311L737 310L740 312L741 309L744 312L751 311L750 314L747 313L743 315L739 315L732 312L731 314L733 316L741 319L746 325L744 326L744 329L741 324L736 322L734 323L735 326L731 326L728 329L730 324L729 323L717 321L706 312L706 310L703 307L707 304L703 301L703 299L695 303L691 300L689 300L686 303L683 300L678 299L672 302L668 307L668 309L670 309L674 315L678 315L677 321L679 321L682 326L680 328L676 327L672 334L672 332L670 332L671 320L665 316L662 317L659 326L660 332L656 340L656 349L651 351L652 362L655 367L663 365L674 370L673 377L675 379L675 390L673 392L678 397L680 404L679 412L682 417L682 422L688 433L687 456L685 459L682 460L677 472L669 483L671 486L673 496L665 503L664 507L667 508L678 495L683 495L685 497L686 494L688 496L688 500L694 504L695 510L698 511L698 506L701 503L702 504L702 507L708 515L717 533L718 527L721 526L720 523L721 524L723 520L733 522L734 524L742 515L748 512L746 510L753 499L753 497L751 496L751 489L750 490L748 485L737 477L739 476L735 466L731 464L734 462L733 455L729 444L726 446L725 445L727 442L722 433L720 425L722 423L726 435L729 439L731 438L733 446L736 446L736 452L739 456L737 456L737 460L740 469L748 479L750 480L752 475L753 476L752 483L755 490L759 487L756 491L764 498L766 498L766 500L769 503L770 502L782 508L781 504L786 504L789 489L791 486L790 484L794 486L797 481L794 477L794 472L796 472L796 477L798 479L803 478L803 480L799 480L797 487L792 488L793 490L798 489L804 492L807 491L812 486L819 482L819 480L825 474L830 475L843 486L851 487L849 484L851 481L850 472L848 469L849 463L847 460L848 450L852 449L853 442L850 438L852 433L849 424L852 423L853 418L842 404L838 404L835 401L836 397L829 388L829 378L825 373L824 369L819 367L816 358L816 356L821 355L821 352L824 347L827 327L830 320L828 317L816 312L811 308L805 308L796 305L795 303L790 301L788 303L779 301L753 287L753 285L755 285L753 283L754 282L750 282L750 284L747 287L745 287L736 284L733 281L724 281L715 278L680 259L665 248L646 241L615 225z"></path><path class="leaflet-interactive" stroke="#2473AC" stroke-opacity="1" stroke-width="0.8" stroke-linecap="round" stroke-linejoin="round" fill="#3F98D7" fill-opacity="0.3" fill-rule="evenodd" d="M1069 623L1063 621L1058 615L1049 609L1036 614L1037 626L1047 631L1052 636L1060 653L1064 658L1069 655L1069 653L1075 645L1091 645L1094 643L1095 644L1098 639L1102 637L1104 639L1108 639L1109 642L1112 640L1115 643L1120 639L1124 639L1131 635L1124 629L1113 628L1104 624L1092 624L1082 621L1071 623z"></path><path class="leaflet-interactive" stroke="#2473AC" stroke-opacity="1" stroke-width="0.8" stroke-linecap="round" stroke-linejoin="round" fill="#3F98D7" fill-opacity="0.3" fill-rule="evenodd" d="M790 558L775 539L769 534L769 530L764 522L758 516L758 530L760 540L764 545L764 556L766 562L760 562L752 565L752 567L758 574L758 576L762 578L762 580L758 584L758 588L762 588L764 591L766 591L766 600L762 607L764 607L766 610L764 613L764 620L758 619L756 617L753 617L753 619L756 629L765 638L764 643L775 645L775 647L777 648L775 646L777 646L783 649L784 646L791 646L793 648L798 642L805 638L806 635L793 634L788 619L785 618L784 614L779 609L779 604L783 601L785 601L785 603L788 605L794 605L794 597L790 586L790 582L789 579L785 576L786 572L789 569L792 567L793 571L794 570L795 564L798 561L796 557L791 559z"></path><path class="leaflet-interactive" stroke="#2473AC" stroke-opacity="1" stroke-width="0.8" stroke-linecap="round" stroke-linejoin="round" fill="#3F98D7" fill-opacity="0.3" fill-rule="evenodd" d="M862 552L850 549L847 552L848 556L846 559L843 572L846 592L848 596L854 600L858 597L863 596L870 598L872 595L873 597L879 600L880 599L881 602L883 598L880 592L884 590L887 590L889 592L890 591L889 581L882 580L879 566L877 566L878 556L882 550L877 549L870 556L867 554z"></path><path class="leaflet-interactive" stroke="#2473AC" stroke-opacity="1" stroke-width="0.8" stroke-linecap="round" stroke-linejoin="round" fill="#3F98D7" fill-opacity="0.3" fill-rule="evenodd" d="M854 600L846 592L843 593L844 594L842 603L844 606L846 618L849 621L849 623L852 624L851 625L873 627L899 617L897 613L897 602L894 605L892 611L889 613L881 602L881 600L873 598L872 595L870 598L863 596L858 597L854 600z"></path><path class="leaflet-interactive" stroke="#2473AC" stroke-opacity="1" stroke-width="0.8" stroke-linecap="round" stroke-linejoin="round" fill="#3F98D7" fill-opacity="0.3" fill-rule="evenodd" d="M905 626L906 622L904 620L905 616L908 613L874 627L851 625L845 619L839 618L836 621L835 630L832 629L826 633L819 632L819 641L830 647L845 661L846 660L848 662L855 662L854 661L857 660L858 662L864 659L865 660L867 658L871 650L870 648L872 646L875 648L872 645L875 648L873 645L875 643L887 644L887 646L892 649L896 645L893 648L891 648L893 645L895 645L894 644L896 642L900 641L903 638L904 639L903 640L905 630L904 628z"></path><path class="leaflet-interactive" stroke="#2473AC" stroke-opacity="1" stroke-width="0.8" stroke-linecap="round" stroke-linejoin="round" fill="#3F98D7" fill-opacity="0.3" fill-rule="evenodd" d="M829 475L825 474L817 484L812 486L805 492L800 491L799 489L793 490L792 487L790 491L791 500L789 500L788 509L783 511L780 515L776 517L773 512L770 512L770 510L765 506L759 504L755 499L753 499L746 509L746 511L749 512L742 515L734 524L732 522L723 520L721 524L725 527L729 534L732 545L746 557L755 559L755 561L759 563L766 562L764 557L764 545L760 540L758 531L759 520L757 516L764 522L769 533L791 559L795 557L797 559L803 560L812 558L821 559L827 557L835 557L844 560L848 556L847 553L849 549L861 552L865 549L869 539L871 528L874 523L874 515L870 508L871 504L855 489L852 487L843 486L829 475z"></path><path class="leaflet-interactive" stroke="#2473AC" stroke-opacity="1" stroke-width="0.8" stroke-linecap="round" stroke-linejoin="round" fill="#3F98D7" fill-opacity="0.3" fill-rule="evenodd" d="M923 577L919 571L918 566L912 560L911 556L895 544L895 550L900 559L899 576L901 581L908 586L911 592L917 588L921 588L925 595L928 591L925 588L925 585L922 581L922 578L924 578L923 577z"></path><path class="leaflet-interactive" stroke="#2473AC" stroke-opacity="1" stroke-width="0.8" stroke-linecap="round" stroke-linejoin="round" fill="#3F98D7" fill-opacity="0.3" fill-rule="evenodd" d="M1001 523L998 522L994 516L987 526L988 535L995 548L992 557L986 554L985 555L984 563L982 565L984 570L982 570L978 578L978 580L981 583L1008 570L1010 561L1017 552L1015 545L1017 542L1023 540L1022 537L1015 537L1013 531L1001 528L1003 526L1004 527L1005 524L1007 524L1006 522L1002 523zM1012 561L1012 561z"></path><path class="leaflet-interactive" stroke="#2473AC" stroke-opacity="1" stroke-width="0.8" stroke-linecap="round" stroke-linejoin="round" fill="#3F98D7" fill-opacity="0.3" fill-rule="evenodd" d="M1170 394L1170 392L1162 394L1160 398L1149 398L1147 396L1140 396L1141 401L1139 403L1133 405L1129 402L1127 406L1115 404L1114 405L1107 401L1104 402L1102 404L1101 409L1095 406L1096 407L1093 408L1094 412L1091 414L1085 414L1082 417L1080 416L1074 421L1078 418L1079 419L1079 421L1076 424L1073 423L1069 425L1070 436L1064 442L1065 441L1061 442L1061 444L1057 443L1046 446L1048 451L1047 454L1038 458L1036 461L1040 470L1035 481L1042 486L1046 486L1050 490L1054 496L1054 504L1048 507L1043 513L1043 515L1037 515L1032 519L1030 524L1032 528L1032 538L1030 544L1032 544L1041 556L1045 557L1050 555L1053 556L1055 560L1061 559L1065 561L1074 570L1077 570L1080 567L1082 568L1081 571L1084 574L1084 578L1087 576L1087 573L1091 573L1091 571L1095 571L1106 565L1123 565L1127 567L1130 566L1130 564L1135 564L1136 562L1131 551L1135 532L1145 525L1145 518L1152 512L1154 512L1155 518L1158 520L1160 518L1162 520L1165 518L1165 512L1168 511L1168 507L1170 507L1173 504L1175 506L1185 501L1188 502L1190 497L1190 491L1195 492L1197 494L1201 494L1204 497L1210 497L1216 493L1221 497L1230 496L1232 494L1238 494L1240 498L1246 497L1249 486L1247 482L1243 480L1241 481L1242 474L1239 471L1234 472L1235 469L1233 469L1233 466L1231 464L1224 465L1222 467L1223 464L1220 460L1221 457L1219 455L1218 457L1219 446L1216 442L1218 432L1217 431L1225 422L1223 415L1225 411L1222 409L1216 409L1209 405L1206 406L1195 404L1189 402L1185 398L1182 399L1180 397L1179 398L1177 395L1171 396L1170 394zM1066 545L1060 548L1057 545L1066 545zM1066 545L1067 545zM1067 545L1070 542L1073 544L1076 538L1079 539L1082 536L1081 538L1084 541L1081 538L1076 541L1077 542L1074 545L1072 545L1073 551L1074 552L1076 550L1076 552L1072 552L1075 555L1080 553L1082 556L1081 559L1083 563L1081 563L1082 562L1080 560L1079 554L1075 556L1071 552L1071 546L1068 545zM1081 564L1080 565zM1080 565L1080 567L1080 565z"></path><path class="leaflet-interactive" stroke="#2473AC" stroke-opacity="1" stroke-width="0.8" stroke-linecap="round" stroke-linejoin="round" fill="#3F98D7" fill-opacity="0.3" fill-rule="evenodd" d="M717 601L711 602L711 609L701 627L695 621L690 621L689 631L691 637L689 645L691 649L706 656L717 656L726 654L738 654L738 656L734 655L740 656L740 654L740 658L744 660L742 658L742 654L744 653L746 656L746 653L747 656L747 652L748 651L749 654L749 650L752 654L753 649L754 654L753 650L759 645L764 644L765 639L756 628L753 619L753 617L756 617L752 613L742 613L724 605z"></path><path class="leaflet-interactive" stroke="#2473AC" stroke-opacity="1" stroke-width="0.8" stroke-linecap="round" stroke-linejoin="round" fill="#3F98D7" fill-opacity="0.3" fill-rule="evenodd" d="M954 568L951 566L950 561L946 558L946 556L946 563L940 567L939 571L941 575L946 579L948 584L950 586L956 587L959 590L958 592L961 597L965 598L975 591L980 582L971 578L970 579L964 574L961 575L960 572L956 569L956 567L954 568z"></path><path class="leaflet-interactive" stroke="#2473AC" stroke-opacity="1" stroke-width="0.8" stroke-linecap="round" stroke-linejoin="round" fill="#3F98D7" fill-opacity="0.3" fill-rule="evenodd" d="M674 602L673 601L683 602L689 605L692 610L690 614L690 621L693 620L701 627L711 609L711 602L715 603L716 601L711 597L710 594L711 590L709 587L709 583L712 578L712 567L707 552L713 535L715 536L717 533L710 522L708 515L702 507L702 504L701 503L698 506L698 511L695 510L694 503L690 503L686 493L685 496L679 495L670 505L664 507L660 518L665 518L664 528L658 535L663 545L667 541L669 541L667 549L671 553L673 561L678 563L683 570L684 582L681 585L682 590L681 589L679 593L676 595L666 594L662 592L663 591L659 587L663 583L663 573L651 570L652 565L647 560L652 557L649 551L642 548L635 541L634 524L641 518L636 514L626 519L626 522L632 539L638 549L634 552L631 550L631 552L624 556L623 559L618 563L608 565L605 564L598 552L587 552L574 543L570 542L563 546L559 544L555 539L548 536L545 538L544 537L542 541L542 547L540 550L542 556L540 572L558 577L594 594L605 603L606 606L624 615L626 618L624 619L627 622L625 618L626 621L630 621L640 626L649 633L651 632L652 623L658 610L666 606L666 602L667 603L671 600L674 602zM674 603L676 603L674 603zM674 602L674 603z"></path><path class="leaflet-interactive" stroke="#2473AC" stroke-opacity="1" stroke-width="0.8" stroke-linecap="round" stroke-linejoin="round" fill="#3F98D7" fill-opacity="0.3" fill-rule="evenodd" d="M368 57L360 53L356 55L350 63L348 63L347 68L345 68L344 72L341 73L341 75L345 76L346 79L346 83L342 85L344 89L343 92L342 94L339 93L339 95L343 99L341 108L330 120L330 118L327 119L325 123L322 125L310 127L311 132L307 138L308 142L312 141L320 148L325 156L331 158L333 162L332 163L337 169L336 178L338 185L338 193L336 206L344 222L339 224L335 228L330 227L328 231L327 245L320 261L320 286L313 302L311 329L312 331L314 329L319 332L323 331L323 329L328 331L333 330L336 332L337 330L340 330L350 318L352 313L356 311L356 309L353 309L350 306L348 296L345 295L352 286L354 281L351 268L352 267L354 270L360 272L369 271L404 285L409 294L414 284L416 284L419 287L425 287L431 284L435 286L437 284L446 283L449 277L453 274L460 283L459 288L457 288L456 290L456 295L448 304L449 311L458 318L460 317L463 319L466 324L480 318L490 321L487 323L485 327L483 336L480 339L481 341L471 351L472 353L475 352L475 358L478 360L479 368L482 369L487 376L485 380L486 382L495 387L505 385L506 388L508 388L507 391L511 403L518 412L523 414L522 417L523 418L525 416L531 424L528 426L528 429L526 431L522 432L523 436L527 437L528 439L521 450L525 454L525 462L529 462L530 460L535 464L533 469L536 474L533 479L538 492L532 494L537 498L537 510L540 518L540 524L543 527L540 534L540 542L542 542L544 537L545 538L549 536L555 539L559 544L563 546L570 542L576 545L577 544L585 551L592 553L597 552L599 553L605 564L608 565L618 563L623 559L625 555L630 553L631 550L634 552L638 549L631 536L625 519L636 514L641 518L649 516L651 517L650 518L653 523L655 525L656 524L659 520L658 519L664 508L664 505L673 495L671 486L668 483L676 474L682 461L687 456L688 450L688 434L682 422L678 396L677 397L676 394L673 392L675 390L675 378L673 378L674 369L663 365L655 367L652 362L651 351L656 349L656 341L660 332L659 326L661 321L659 321L657 308L655 305L648 304L649 305L647 308L642 313L640 312L640 306L644 301L644 296L640 292L647 296L655 297L657 293L661 291L655 279L657 279L661 273L665 273L657 265L642 266L642 264L636 261L636 259L634 258L635 255L632 254L628 249L618 247L615 250L616 251L614 251L616 253L614 253L611 245L604 242L602 242L602 244L599 244L598 248L593 254L590 253L588 249L592 250L599 240L598 237L600 235L596 233L600 230L602 233L606 233L606 237L610 239L612 235L613 224L584 207L575 204L544 188L539 184L533 182L472 147L462 143L458 139L454 138L450 134L445 132L446 129L444 127L437 123L436 124L435 120L427 117L423 113L423 111L419 110L418 112L414 108L416 106L407 97L404 96L400 88L395 87L396 83L391 82L390 78L392 78L387 73L387 71L390 69L386 64L383 65L380 62L376 62L376 58L369 56L368 57z"></path><path class="leaflet-interactive" stroke="#2473AC" stroke-opacity="1" stroke-width="0.8" stroke-linecap="round" stroke-linejoin="round" fill="#3F98D7" fill-opacity="0.3" fill-rule="evenodd" d="M1196 494L1195 492L1190 491L1191 495L1189 497L1188 502L1185 501L1176 506L1172 504L1171 507L1168 506L1168 511L1165 512L1165 518L1162 520L1160 518L1158 520L1154 517L1153 512L1145 518L1146 525L1139 529L1139 531L1135 531L1132 541L1131 551L1133 553L1133 557L1136 560L1135 563L1130 564L1131 565L1128 567L1123 565L1108 566L1106 564L1104 567L1096 571L1087 573L1087 576L1084 579L1085 585L1089 583L1099 584L1108 590L1115 599L1117 604L1132 606L1139 603L1156 602L1157 597L1162 598L1163 595L1162 596L1165 596L1165 591L1175 591L1182 583L1183 578L1190 574L1191 569L1195 568L1201 572L1211 572L1215 570L1221 570L1223 572L1235 572L1237 579L1238 576L1240 579L1242 578L1244 580L1246 576L1243 572L1242 573L1243 570L1241 568L1245 562L1243 558L1246 556L1246 558L1248 558L1248 552L1250 558L1253 559L1253 550L1251 549L1253 549L1249 545L1249 543L1251 545L1253 544L1251 542L1253 542L1253 540L1255 541L1255 550L1257 554L1257 549L1258 548L1259 551L1261 550L1260 543L1263 543L1263 549L1270 543L1270 539L1274 539L1274 536L1270 535L1267 532L1271 528L1272 529L1275 527L1275 523L1268 519L1267 516L1261 513L1260 502L1255 497L1250 501L1247 498L1238 497L1238 494L1232 494L1230 496L1225 497L1221 497L1216 493L1211 497L1203 497L1201 494L1196 494z"></path><path class="leaflet-interactive" stroke="#2473AC" stroke-opacity="1" stroke-width="0.8" stroke-linecap="round" stroke-linejoin="round" fill="#3F98D7" fill-opacity="0.3" fill-rule="evenodd" d="M895 548L895 544L881 528L875 515L869 538L865 549L862 552L869 556L873 555L877 549L882 550L877 560L877 566L881 571L882 580L890 581L892 583L893 588L898 586L902 588L903 590L900 597L901 601L903 602L905 600L911 599L910 591L907 584L903 583L899 577L900 560L895 549z"></path><path class="leaflet-interactive" stroke="#2473AC" stroke-opacity="1" stroke-width="0.8" stroke-linecap="round" stroke-linejoin="round" fill="#3F98D7" fill-opacity="0.3" fill-rule="evenodd" d="M722 525L720 523L721 525L718 527L715 535L713 535L707 551L712 566L712 578L709 583L711 597L714 600L738 612L751 613L758 619L764 619L764 614L766 610L763 607L763 605L765 604L766 600L766 592L759 588L758 583L762 580L762 578L758 576L757 572L752 567L752 565L758 563L754 559L746 557L732 545L730 537L725 530L724 526z"></path><path class="leaflet-interactive" stroke="#2473AC" stroke-opacity="1" stroke-width="0.8" stroke-linecap="round" stroke-linejoin="round" fill="#3F98D7" fill-opacity="0.3" fill-rule="evenodd" d="M836 328L830 323L830 321L827 327L826 339L821 352L821 356L816 357L820 368L824 369L829 378L829 390L836 397L836 402L844 406L848 414L851 415L852 418L852 423L849 424L852 433L850 438L853 442L852 449L848 449L847 460L849 463L851 481L849 483L852 487L859 488L862 490L862 481L871 471L873 471L882 464L887 468L885 471L887 473L891 471L893 474L891 481L893 482L897 477L900 478L903 486L908 488L914 496L916 497L921 495L917 498L917 502L921 506L923 504L926 505L927 508L929 506L927 509L928 514L926 516L927 521L925 523L928 529L926 529L922 539L922 551L925 554L928 554L930 551L934 552L937 555L936 558L938 561L937 564L934 563L926 567L922 565L922 567L918 569L924 577L922 577L922 580L925 587L931 595L940 586L939 583L943 579L939 578L936 569L939 565L944 563L944 559L942 557L947 556L951 553L951 549L957 541L956 538L960 535L960 531L950 521L950 518L952 516L955 516L954 515L956 511L954 511L953 509L956 504L954 496L958 492L957 489L966 477L965 470L962 466L952 467L953 464L948 464L950 432L947 431L945 421L950 407L948 405L947 406L945 404L941 404L934 395L940 378L941 371L945 369L946 365L942 365L929 357L923 355L914 357L893 351L890 348L885 348L885 346L879 343L872 344L869 341L865 341L856 335L843 334L840 332L838 327L836 328zM938 415L939 414L938 416z"></path><path class="leaflet-interactive" stroke="#2473AC" stroke-opacity="1" stroke-width="0.8" stroke-linecap="round" stroke-linejoin="round" fill="#3F98D7" fill-opacity="0.3" fill-rule="evenodd" d="M943 580L939 582L939 587L936 589L927 602L927 611L925 618L927 625L925 630L927 631L938 617L938 619L941 622L947 622L949 620L954 620L949 619L949 617L951 616L955 618L958 618L955 617L957 616L967 618L974 611L974 602L972 601L970 603L966 603L964 601L959 600L947 588L944 581z"></path><path class="leaflet-interactive" stroke="#2473AC" stroke-opacity="1" stroke-width="0.8" stroke-linecap="round" stroke-linejoin="round" fill="#3F98D7" fill-opacity="0.3" fill-rule="evenodd" d="M926 531L926 527L918 531L903 531L895 535L892 539L897 546L906 551L911 556L912 560L918 566L919 569L922 566L926 567L931 564L936 564L939 561L937 561L936 559L937 555L935 555L931 551L926 554L922 551L922 540L925 532z"></path><path class="leaflet-interactive" stroke="#2473AC" stroke-opacity="1" stroke-width="0.8" stroke-linecap="round" stroke-linejoin="round" fill="#3F98D7" fill-opacity="0.3" fill-rule="evenodd" d="M893 587L890 581L890 591L889 592L885 590L880 592L883 598L881 602L889 613L897 602L897 613L899 617L906 614L909 611L908 610L910 607L911 599L901 602L900 598L904 590L900 586L893 588z"></path><path class="leaflet-interactive" stroke="#2473AC" stroke-opacity="1" stroke-width="0.8" stroke-linecap="round" stroke-linejoin="round" fill="#3F98D7" fill-opacity="0.3" fill-rule="evenodd" d="M1010 643L1011 646L1010 648L1008 644L1006 648L1007 651L1012 649L1013 652L1016 650L1016 648L1021 649L1024 653L1026 653L1025 654L1032 654L1035 656L1036 660L1040 661L1043 664L1047 662L1052 667L1049 665L1064 658L1059 652L1052 636L1046 630L1019 618L1017 612L1018 610L1009 607L1007 611L1003 614L1004 616L1002 618L1000 618L999 620L995 619L997 623L998 622L1001 624L998 627L995 626L995 628L998 633L999 639L1003 639L1008 636L1011 639L1011 643zM1009 643L1009 641L1009 643zM1009 643L1010 643z"></path><path class="leaflet-interactive" stroke="#2473AC" stroke-opacity="1" stroke-width="0.8" stroke-linecap="round" stroke-linejoin="round" fill="#3F98D7" fill-opacity="0.3" fill-rule="evenodd" d="M959 517L960 516L958 514L954 517L950 517L951 522L960 531L960 535L957 536L957 541L951 548L951 553L948 556L946 556L946 558L950 561L951 566L954 568L959 559L965 555L965 553L968 552L968 550L970 552L975 548L975 543L984 547L988 546L989 543L987 538L988 533L986 524L984 521L980 523L973 523L971 519L972 518L970 519L970 517L962 520L958 518L959 517z"></path><path class="leaflet-interactive" stroke="#2473AC" stroke-opacity="1" stroke-width="0.8" stroke-linecap="round" stroke-linejoin="round" fill="#3F98D7" fill-opacity="0.3" fill-rule="evenodd" d="M1151 668L1149 664L1144 665L1135 680L1133 692L1131 694L1129 695L1128 692L1124 695L1117 694L1110 697L1109 696L1098 701L1099 702L1093 706L1090 701L1084 705L1084 709L1087 713L1091 715L1091 713L1096 714L1105 720L1114 729L1118 729L1120 727L1126 731L1131 731L1140 736L1143 730L1142 725L1146 725L1147 718L1152 722L1156 719L1157 716L1160 717L1163 714L1161 702L1162 701L1160 696L1165 693L1167 686L1169 685L1165 674L1166 673L1162 666L1151 668z"></path><path class="leaflet-interactive" stroke="#2473AC" stroke-opacity="1" stroke-width="0.8" stroke-linecap="round" stroke-linejoin="round" fill="#3F98D7" fill-opacity="0.3" fill-rule="evenodd" d="M838 558L827 557L821 559L797 559L798 560L794 568L799 568L798 574L802 577L804 583L802 588L804 606L808 608L817 609L818 612L813 618L811 618L810 621L820 635L818 637L819 640L820 635L818 632L825 633L829 632L832 629L835 630L836 621L839 618L845 619L850 625L852 624L846 618L844 604L842 604L842 599L844 595L843 593L846 592L845 580L843 576L846 559L844 560L839 558zM817 630L813 630L812 633L807 634L806 638L810 638L814 634L815 636L819 636L820 635L817 631zM819 641L814 635L814 637L819 641z"></path><path class="leaflet-interactive" stroke="#2473AC" stroke-opacity="1" stroke-width="0.8" stroke-linecap="round" stroke-linejoin="round" fill="#3F98D7" fill-opacity="0.3" fill-rule="evenodd" d="M1128 639L1128 637L1120 639L1117 642L1110 642L1107 639L1101 637L1097 640L1095 644L1094 643L1092 645L1076 645L1072 648L1073 649L1067 657L1057 661L1052 665L1061 674L1061 677L1066 685L1065 686L1067 683L1066 686L1070 693L1073 692L1070 693L1072 696L1076 696L1078 701L1084 708L1084 705L1090 701L1093 705L1095 705L1099 702L1098 701L1108 696L1110 697L1116 694L1131 694L1133 692L1135 681L1141 671L1140 665L1134 657L1136 649L1139 646L1139 644L1138 642L1134 644L1132 642L1129 643L1128 639z"></path><path class="leaflet-interactive" stroke="#2473AC" stroke-opacity="1" stroke-width="0.8" stroke-linecap="round" stroke-linejoin="round" fill="#3F98D7" fill-opacity="0.3" fill-rule="evenodd" d="M1249 568L1247 564L1246 569L1251 575L1251 580L1248 579L1246 585L1247 584L1250 590L1252 590L1250 592L1253 594L1251 594L1252 597L1248 601L1250 598L1249 595L1243 595L1241 596L1242 599L1237 599L1236 602L1240 602L1239 604L1241 606L1236 605L1235 609L1238 610L1234 612L1241 618L1243 623L1246 622L1247 619L1250 619L1245 624L1246 625L1250 623L1248 625L1251 627L1244 627L1245 629L1243 630L1243 633L1239 638L1250 648L1248 648L1243 643L1239 643L1237 657L1235 660L1235 656L1233 654L1235 652L1235 643L1232 642L1226 645L1228 641L1232 638L1235 639L1236 635L1238 635L1240 630L1239 626L1241 626L1240 621L1236 616L1233 617L1232 622L1230 619L1232 618L1230 616L1232 616L1233 612L1232 609L1228 613L1229 611L1226 609L1230 606L1228 604L1224 604L1224 608L1223 603L1219 605L1220 607L1216 604L1214 608L1216 610L1213 608L1209 612L1213 604L1199 604L1192 615L1194 643L1205 659L1209 657L1210 658L1209 667L1197 679L1191 680L1182 685L1169 684L1167 686L1165 693L1160 696L1162 700L1160 702L1162 703L1163 713L1160 717L1157 716L1156 719L1153 720L1153 722L1147 718L1146 725L1142 725L1143 730L1140 736L1143 737L1149 743L1154 745L1157 746L1158 743L1158 746L1158 743L1157 746L1153 743L1155 741L1154 740L1157 739L1171 747L1169 753L1170 754L1170 749L1172 749L1176 753L1172 756L1167 755L1172 758L1177 759L1178 756L1177 759L1180 756L1182 756L1184 758L1185 757L1191 759L1197 756L1200 750L1205 750L1205 754L1213 750L1210 744L1210 740L1206 737L1212 736L1222 725L1222 706L1228 701L1227 699L1230 689L1228 685L1236 682L1241 682L1244 679L1255 674L1257 668L1261 669L1263 665L1271 662L1274 656L1274 652L1279 657L1285 646L1294 643L1305 643L1313 639L1313 637L1315 651L1314 658L1316 663L1318 663L1321 666L1324 665L1330 658L1332 659L1332 656L1335 655L1336 652L1334 647L1337 642L1342 640L1348 631L1352 630L1351 620L1342 611L1348 597L1348 588L1346 584L1335 589L1334 599L1330 601L1330 603L1326 605L1323 610L1306 622L1304 622L1304 620L1300 616L1302 610L1301 609L1299 611L1298 605L1297 606L1294 604L1296 600L1289 597L1288 598L1284 594L1284 602L1282 605L1287 609L1286 613L1288 617L1286 617L1287 614L1284 608L1280 607L1279 610L1279 606L1282 602L1281 596L1279 597L1274 608L1269 613L1267 618L1270 612L1269 611L1271 610L1273 604L1276 602L1277 597L1272 596L1271 599L1271 596L1269 596L1269 594L1266 593L1267 594L1265 598L1265 593L1263 592L1263 594L1261 594L1258 597L1258 595L1261 593L1257 593L1260 589L1254 586L1254 582L1256 580L1253 579L1255 575L1252 571L1251 574L1249 570L1251 570L1249 568z"></path><path class="leaflet-interactive" stroke="#2473AC" stroke-opacity="1" stroke-width="0.8" stroke-linecap="round" stroke-linejoin="round" fill="#3F98D7" fill-opacity="0.3" fill-rule="evenodd" d="M1201 572L1195 568L1192 569L1190 573L1182 579L1180 586L1175 591L1165 591L1166 593L1164 596L1162 596L1163 595L1162 598L1157 597L1156 601L1152 603L1139 603L1134 606L1122 605L1125 608L1119 610L1124 622L1122 626L1124 626L1123 629L1131 635L1127 637L1128 642L1132 642L1134 644L1138 642L1139 643L1135 651L1134 657L1138 661L1141 671L1147 664L1149 664L1150 667L1153 668L1160 667L1165 663L1165 659L1161 650L1167 641L1169 630L1168 629L1171 625L1173 614L1181 616L1191 616L1198 607L1198 605L1197 606L1193 604L1196 606L1198 603L1211 602L1209 596L1213 601L1216 598L1216 601L1223 601L1225 600L1224 597L1226 600L1228 600L1230 596L1231 601L1234 600L1233 599L1235 596L1237 596L1234 593L1239 595L1237 593L1238 594L1241 591L1242 592L1242 590L1243 592L1246 591L1243 586L1241 586L1242 583L1244 583L1243 581L1239 579L1233 579L1237 579L1235 572L1223 572L1221 570L1202 572z"></path><path class="leaflet-interactive" stroke="#2473AC" stroke-opacity="1" stroke-width="0.8" stroke-linecap="round" stroke-linejoin="round" fill="#3F98D7" fill-opacity="0.3" fill-rule="evenodd" d="M951 365L946 365L945 369L941 371L937 388L934 394L937 400L942 404L946 404L948 406L949 405L950 407L948 415L945 420L947 430L950 432L948 464L953 464L952 466L954 467L962 466L965 470L966 475L966 477L957 489L958 492L954 496L956 504L953 509L955 511L954 515L955 516L958 514L960 516L958 518L961 520L966 518L967 519L969 517L970 519L972 518L971 519L973 523L981 523L983 521L986 523L987 528L991 519L994 516L998 522L1007 523L1000 528L1013 531L1015 537L1022 537L1023 540L1025 538L1025 532L1022 527L1026 514L1026 510L1023 509L1028 509L1035 502L1036 499L1030 493L1029 489L1023 485L1025 483L1023 479L1010 469L1010 467L1021 459L1025 459L1028 453L1036 450L1039 440L1044 435L1050 425L1057 419L1060 419L1064 413L1060 406L1066 397L1066 393L1067 397L1067 393L1065 391L1064 392L1063 391L1065 389L1061 389L1061 387L1058 386L1058 384L1054 387L1055 384L1051 381L1050 383L1049 379L1045 381L1045 377L1041 378L1042 375L1040 373L1036 379L1035 374L1031 374L1031 376L1027 372L1019 370L1016 373L1014 373L1011 370L1012 373L1008 380L1000 382L979 379L968 374L965 375L959 373L957 369L951 365zM951 450L956 440L955 439L956 442L953 449L951 450zM975 432L976 427L974 434L974 432zM970 432L972 435L970 432zM978 442L980 439L979 442zM955 424L956 422L955 424zM958 458L956 455L957 454L958 458z"></path><path class="leaflet-interactive" stroke="#2473AC" stroke-opacity="1" stroke-width="0.8" stroke-linecap="round" stroke-linejoin="round" fill="#3F98D7" fill-opacity="0.3" fill-rule="evenodd" d="M354 270L351 267L354 280L352 286L345 295L348 296L350 306L356 311L354 311L343 326L335 332L333 330L328 331L323 329L323 331L319 333L315 329L312 333L310 333L311 341L308 342L308 345L298 354L296 361L292 360L288 362L282 368L264 377L255 386L253 397L254 404L268 427L270 440L273 446L269 451L269 454L266 455L267 458L264 458L265 462L244 462L239 471L241 482L239 485L236 499L237 506L235 510L238 512L235 513L237 517L234 522L238 523L239 525L237 535L240 538L236 542L236 544L238 546L241 545L243 551L237 555L239 571L236 577L241 577L242 580L245 576L252 581L259 580L259 585L261 588L265 584L265 586L278 578L284 579L298 571L305 565L339 559L343 561L351 554L368 551L376 548L395 548L409 551L415 544L420 543L428 544L431 547L430 548L432 548L432 550L430 550L429 549L436 552L443 558L466 558L479 561L482 563L495 564L500 564L504 562L510 564L513 567L522 569L521 568L525 567L540 572L542 564L542 555L540 550L542 548L542 545L539 541L543 527L540 524L540 518L537 510L537 498L533 494L538 493L533 480L536 474L533 470L534 464L530 460L529 462L525 462L525 454L523 451L521 451L526 440L528 440L525 436L523 436L522 432L526 431L531 423L529 423L529 420L527 420L525 416L523 418L523 414L520 413L511 404L507 391L508 389L505 385L495 387L486 382L487 376L482 369L479 368L478 360L475 359L475 353L471 352L478 345L480 339L483 337L485 328L490 321L480 318L466 324L461 317L457 318L454 316L450 311L448 304L456 295L456 291L460 284L452 274L449 277L447 283L437 284L435 286L431 284L426 287L419 287L416 284L414 284L410 289L409 293L404 285L382 275L369 271L359 272L354 270z"></path><path class="leaflet-interactive" stroke="#2473AC" stroke-opacity="1" stroke-width="0.8" stroke-linecap="round" stroke-linejoin="round" fill="#3F98D7" fill-opacity="0.3" fill-rule="evenodd" d="M1182 616L1176 614L1172 616L1172 621L1168 628L1169 629L1166 639L1167 640L1161 649L1165 659L1163 667L1169 684L1185 684L1188 681L1197 679L1209 668L1210 658L1209 657L1205 659L1194 642L1192 616L1184 616z"></path><path class="leaflet-interactive" stroke="#2473AC" stroke-opacity="1" stroke-width="0.8" stroke-linecap="round" stroke-linejoin="round" fill="#3F98D7" fill-opacity="0.3" fill-rule="evenodd" d="M884 466L882 464L876 469L869 472L864 480L862 480L861 482L862 490L860 488L855 489L871 504L870 510L873 512L881 528L892 540L900 532L917 531L926 527L923 526L925 520L923 518L926 514L923 508L918 508L915 500L910 501L915 499L911 495L910 489L902 485L900 478L897 477L893 482L891 480L893 475L890 471L885 472L887 467L885 466z"></path><path class="leaflet-interactive" stroke="#2473AC" stroke-opacity="1" stroke-width="0.8" stroke-linecap="round" stroke-linejoin="round" fill="#3F98D7" fill-opacity="0.3" fill-rule="evenodd" d="M1228 411L1225 409L1222 415L1224 416L1225 422L1217 431L1218 432L1216 442L1219 445L1218 457L1220 455L1220 460L1223 463L1222 467L1224 465L1230 465L1231 463L1233 466L1232 467L1235 470L1234 472L1239 471L1242 474L1242 478L1240 481L1242 480L1248 482L1249 486L1249 491L1245 498L1250 500L1254 497L1258 500L1260 502L1262 514L1267 516L1269 520L1275 522L1276 524L1273 529L1272 528L1267 532L1270 535L1274 536L1275 539L1275 537L1278 538L1277 537L1273 540L1272 539L1270 541L1271 544L1269 544L1269 546L1272 545L1269 548L1266 548L1268 551L1266 551L1267 556L1265 556L1267 558L1264 561L1264 563L1268 561L1268 565L1266 565L1267 566L1263 568L1264 571L1266 569L1266 571L1268 571L1268 569L1270 571L1274 568L1274 573L1271 572L1269 576L1266 575L1267 578L1263 575L1259 576L1258 579L1260 583L1263 582L1260 585L1259 584L1262 586L1264 590L1268 591L1270 589L1271 592L1273 591L1272 586L1274 589L1273 592L1275 592L1275 588L1276 594L1278 594L1279 592L1279 594L1282 591L1283 584L1283 590L1285 590L1285 592L1288 594L1290 591L1290 595L1291 592L1296 593L1298 587L1301 584L1299 583L1303 583L1309 578L1311 578L1311 575L1316 569L1324 569L1317 569L1312 574L1311 578L1304 584L1302 584L1301 586L1304 592L1303 593L1303 589L1300 587L1296 595L1292 594L1293 597L1298 599L1298 601L1296 601L1295 603L1299 605L1300 610L1300 608L1302 609L1299 616L1302 617L1305 622L1323 610L1326 605L1335 597L1335 589L1343 586L1344 584L1346 584L1348 588L1354 581L1353 578L1355 578L1355 580L1356 577L1361 577L1366 583L1365 585L1368 589L1369 586L1374 587L1375 583L1379 585L1381 583L1385 585L1385 583L1390 580L1399 587L1403 585L1405 588L1411 588L1420 592L1418 599L1422 607L1420 609L1420 615L1427 610L1428 616L1428 626L1424 630L1425 637L1429 637L1435 640L1435 642L1444 647L1454 647L1455 649L1460 649L1460 653L1464 655L1469 654L1472 651L1473 653L1475 653L1481 647L1482 639L1486 637L1484 634L1486 634L1488 629L1495 627L1495 625L1501 618L1506 615L1507 610L1503 608L1502 604L1499 603L1497 600L1499 589L1498 588L1506 592L1506 588L1509 589L1512 586L1514 580L1517 578L1520 579L1520 585L1522 584L1528 587L1532 590L1533 593L1537 592L1542 595L1550 592L1555 596L1555 598L1559 600L1560 599L1562 601L1561 604L1563 608L1565 601L1567 599L1572 600L1576 605L1580 604L1582 606L1583 605L1591 607L1591 603L1596 598L1599 599L1604 592L1611 589L1612 584L1616 581L1616 579L1622 580L1625 577L1624 574L1630 572L1634 567L1636 561L1645 550L1646 544L1650 541L1653 536L1660 534L1678 541L1678 539L1681 536L1681 528L1677 522L1659 525L1658 523L1652 523L1649 520L1649 518L1651 518L1649 516L1648 517L1648 514L1650 514L1647 504L1649 504L1649 502L1646 503L1649 499L1650 487L1648 484L1651 481L1635 480L1619 484L1618 481L1613 482L1611 480L1606 480L1604 482L1605 483L1601 485L1580 480L1563 470L1558 472L1558 468L1553 466L1549 466L1549 468L1548 465L1542 464L1535 465L1533 467L1531 465L1532 463L1530 463L1530 465L1524 464L1516 469L1513 467L1499 465L1495 462L1495 460L1489 460L1487 462L1476 462L1473 461L1471 458L1462 459L1454 456L1452 452L1451 455L1446 454L1444 450L1442 451L1442 449L1438 449L1438 445L1434 445L1434 447L1431 446L1431 444L1428 445L1425 443L1426 444L1425 443L1421 446L1424 444L1427 447L1422 448L1423 449L1419 453L1403 453L1381 448L1361 441L1355 441L1339 437L1315 427L1307 427L1299 423L1285 419L1281 416L1276 416L1268 413L1267 411L1263 413L1262 412L1260 414L1255 413L1251 415L1242 415L1240 413L1237 414L1233 411L1228 411zM1393 511L1394 508L1397 507L1404 512L1402 514L1403 520L1405 522L1403 523L1403 525L1406 524L1406 526L1410 528L1410 526L1411 530L1413 530L1415 526L1416 529L1418 525L1420 529L1423 527L1425 528L1421 529L1422 533L1431 538L1429 538L1425 534L1420 533L1417 530L1414 536L1416 538L1418 536L1423 537L1426 543L1430 545L1430 547L1433 550L1427 545L1424 548L1425 545L1423 541L1420 544L1418 544L1417 550L1415 552L1412 552L1410 556L1415 555L1416 562L1418 560L1420 564L1422 564L1425 567L1431 563L1433 571L1431 569L1430 564L1427 568L1423 568L1423 566L1420 565L1419 562L1415 562L1413 564L1415 562L1414 557L1410 557L1407 559L1408 556L1402 556L1407 555L1409 557L1407 554L1412 548L1416 548L1415 543L1417 541L1420 541L1420 539L1415 540L1413 542L1413 538L1406 544L1411 538L1410 537L1412 533L1410 533L1406 529L1404 529L1401 533L1401 535L1403 535L1402 536L1401 535L1396 538L1402 529L1399 526L1399 522L1394 524L1394 526L1392 527L1393 530L1391 532L1391 527L1393 523L1399 518L1399 512L1397 510L1394 513L1395 516L1393 516L1391 520L1387 522L1380 522L1382 522L1382 520L1386 521L1390 519L1393 515L1391 511L1393 511zM1427 444L1427 442L1427 444zM1424 441L1424 441zM1428 444L1428 444z"></path><path class="leaflet-interactive" stroke="#2473AC" stroke-opacity="1" stroke-width="0.8" stroke-linecap="round" stroke-linejoin="round" fill="#3F98D7" fill-opacity="0.3" fill-rule="evenodd" d="M994 546L988 535L986 528L988 533L988 545L984 547L976 543L975 549L970 552L968 550L968 552L966 552L965 555L959 559L955 567L960 573L960 575L964 574L970 579L971 578L976 581L978 580L980 574L982 571L984 571L982 565L984 563L985 555L989 555L992 558L995 549L994 547z"></path><path class="leaflet-interactive" stroke="#2473AC" stroke-opacity="1" stroke-width="0.8" stroke-linecap="round" stroke-linejoin="round" fill="#3F98D7" fill-opacity="0.3" fill-rule="evenodd" d="M1186 781L1188 781L1195 773L1193 775L1198 779L1195 781L1194 787L1190 787L1187 785L1186 782L1187 787L1184 789L1183 792L1180 792L1179 795L1176 797L1174 796L1176 793L1171 798L1169 798L1172 804L1170 806L1171 809L1176 805L1176 803L1174 803L1176 801L1184 798L1193 798L1199 800L1197 798L1197 796L1199 795L1209 800L1211 799L1214 793L1218 793L1231 801L1238 788L1247 795L1248 794L1248 786L1253 776L1247 763L1251 758L1249 756L1250 752L1255 748L1259 742L1263 740L1272 738L1278 734L1285 735L1284 728L1286 726L1286 717L1303 716L1315 703L1312 698L1312 700L1306 698L1304 688L1305 683L1302 682L1303 680L1301 678L1306 672L1312 668L1314 663L1316 663L1314 658L1314 637L1313 639L1305 643L1294 643L1287 645L1281 652L1279 657L1274 652L1272 662L1264 665L1261 669L1257 668L1253 675L1244 679L1241 682L1236 682L1228 685L1230 689L1227 698L1228 701L1222 707L1222 724L1211 737L1206 737L1211 741L1210 743L1213 750L1209 751L1206 754L1205 750L1201 750L1197 755L1198 756L1195 758L1193 756L1192 758L1195 765L1195 769L1190 769L1190 773L1188 776L1187 775L1188 776L1185 779L1181 776L1178 770L1180 768L1181 763L1176 773L1179 776L1177 778L1177 776L1178 779L1181 781L1186 781zM1186 781L1186 782z"></path><path class="leaflet-interactive" stroke="#2473AC" stroke-opacity="1" stroke-width="0.8" stroke-linecap="round" stroke-linejoin="round" fill="#3F98D7" fill-opacity="0.3" fill-rule="evenodd" d="M1054 556L1044 556L1046 560L1044 565L1047 566L1047 572L1050 580L1047 587L1043 589L1042 592L1045 595L1044 600L1049 610L1054 611L1060 618L1068 623L1081 621L1092 624L1104 624L1113 628L1124 629L1124 626L1122 626L1124 623L1123 619L1118 610L1124 608L1124 606L1117 604L1112 594L1101 585L1096 583L1089 583L1085 585L1085 577L1084 573L1081 571L1081 567L1077 570L1073 570L1065 561L1061 559L1055 560L1053 558L1054 557z"></path><path class="leaflet-interactive" stroke="#2473AC" stroke-opacity="1" stroke-width="0.8" stroke-linecap="round" stroke-linejoin="round" fill="#3F98D7" fill-opacity="0.3" fill-rule="evenodd" d="M1032 545L1030 543L1030 545L1023 548L1025 554L1021 559L1021 572L994 591L993 594L992 593L988 596L989 601L991 603L990 610L988 608L991 611L988 611L990 614L992 614L992 618L997 618L999 620L1004 616L1003 615L1005 612L1010 607L1012 607L1018 610L1017 613L1019 618L1024 619L1037 626L1036 614L1043 610L1048 609L1044 600L1045 595L1042 592L1042 590L1047 587L1050 580L1047 573L1047 566L1044 565L1046 561L1044 557L1041 556L1032 545zM986 599L987 598L986 599z"></path><path class="leaflet-interactive" stroke="#2473AC" stroke-opacity="1" stroke-width="0.8" stroke-linecap="round" stroke-linejoin="round" fill="#3F98D7" fill-opacity="0.3" fill-rule="evenodd" d="M920 588L919 587L910 592L911 603L908 610L909 611L904 619L906 622L904 628L904 638L905 637L910 639L916 636L919 632L925 630L927 626L925 619L927 611L926 606L931 595L928 591L926 595L921 588z"></path></g></svg>