<?xml version="1.0" encoding="utf-8"?>
<!-- Generator: Adobe Illustrator 16.0.0, SVG Export Plug-In . SVG Version: 6.00 Build 0)  -->
<!DOCTYPE svg PUBLIC "-//W3C//DTD SVG 1.1//EN" "http://www.w3.org/Graphics/SVG/1.1/DTD/svg11.dtd">
<svg version="1.1"
	 id="svg8" xmlns:dc="http://purl.org/dc/elements/1.1/" xmlns:cc="http://creativecommons.org/ns#" xmlns:rdf="http://www.w3.org/1999/02/22-rdf-syntax-ns#" xmlns:svg="http://www.w3.org/2000/svg" xmlns:sodipodi="http://sodipodi.sourceforge.net/DTD/sodipodi-0.dtd" xmlns:inkscape="http://www.inkscape.org/namespaces/inkscape" sodipodi:docname="istanbul-ilceler.svg" inkscape:version="0.92.3 (2405546, 2018-03-11)"
	 xmlns="http://www.w3.org/2000/svg" xmlns:xlink="http://www.w3.org/1999/xlink" x="0px" y="0px" width="465.801px"
	 height="246.8px" viewBox="682 105.6 465.801 246.8" enable-background="new 682 105.6 465.801 246.8" xml:space="preserve">
<path id="path4581" inkscape:connector-curvature="0" fill="#3F98D7" fill-opacity="0.3" stroke="#2473AC" stroke-width="0.8" stroke-linecap="round" stroke-linejoin="round" d="
	M694.4,108l-3-2l-3,6l2,1l1,6l-8,9l1,1l-2,10l3,3l-1,12l2-2v5l3,3l-1,4l2-2h6l1-2l2,3l-1,1l3,3l-1,2l5-1l3,3v4l-2,3l2-1l6,2l1,4v5
	l-4,7l5,2l4-3l4,3l2,2l2,12l5,2l2,4l6,2l1,2l-3,5l-1-1l-5,4l3,3l4,1l1,3v-2l3,1l-1-1l-4,3l-1-1l-2,2l1,3h-2v2l3-1l-3,3h-3l2,3h-2
	l1,5h-2l2,2l-3,3v2l4-2v4h-2l1,1l-4,2l1,3l2-2v2h2v-2l2,2l4-3v5l-3-1l-2,4l-3-1l1,3l-4-3l-4,1l-1,3l2,4l3-1l-3,3l-1-1l3,2l2,4l4,1
	l2-2l1,3l2-1l-1-5l2,3l-1,3h2v-4l1,6h2l1-2v2l3-3l1-7v6h2v2l3,2l2-3v4l1-3l5,1l2-6l3-3l-2-1h4l6-5h2v-3l5-6h8h-7l-5,5l-1,4l-7,6h-2
	l-1,2l3,6l-1,1v-4l-3-2l-4,8l-4-1l1,3l5,2.001v2h-2l-1,1.999l4,2l1,5v-2l2,1l-3,7l3,1l3,5l18-12l3-5l9-8v-8l8-3l1-2h2l2,4l6-7l-1-3
	h2v2l1-3h5l5,6l-1,2l3,4l1-3l5,1l1-4l4,2l2-2l4,2v-2l5-3l9,7l4-2l2,3h6l9,4l-2,7.001l4,7.999l-2,2v6l7-5l1,6v10l-4,4l1,7h4l6,3v2
	l9,5h10l1,2h5v4l4,2l5-1l3-3l1,2h2l6-6l1-8l4-2l-2-3h2l2-5l7-2v-2l6-7l5-3l1-5l-4-2l-1-4l-3-1l-2-2.999l2-11.001l-1-1l8,4v-4l3,1
	l3-3l2-6l3-2l3,1v6l2-1l6,3l4,3l1,3l4-1l5,3l8-3l5,4V295l4,2l1-1l2,2l-1,2.999l2,4l2-6.999l2-2l5,1l4,4.999l4-1l2,2l1-1l8,2v-4
	l5-4.999l3,1l5-7.001l7-3l1-5l4-3v-2l6,1l3-3l-1-3l6-2l4-5l2-6l9-11l1-6l4-3l3-5l7-2l18,7v-2l3-3v-8l-4-6l-18,3l-1-2h-6l-3-3v-2h2
	l-2-2l-1,1v-3h2l-3-10h2v-2l-3,1l3-4l1-12l-2-3l3-3l-16-1l-16,4l-1-3l-5,1l-2-2h-5l-2,2l1,1l-4,2l-21-5l-17-10l-5,2v-4l-5-2h-4v2
	l-1-3l-6-1l-7,1l-2,2l-2-2l1-2h-2v2l-6-1l-8,5l-3-2l-14-2l-4-3v-2h-6l-2,2h-11l-3-1l-2-3l-9,1l-8-3l-2-4l-1,3l-5-1l-2-4l-2,1v-2h-4
	v-4h-4v2l-3-1v-2l-3,1l-3-2l1,1l-1-1l-4,3l3-2l3,3l-5,1l1,1l-4,4h-16l-22-5l-20-7h-6l-16-4l-24-10h-8l-8-4l-14-4l-4-3h-5l-8-3l-1-2
	l-4,2l-1-1l-2,2l-5-1l-4,2h-9l-2-2l-3,1l-4-3H694.4z M859.4,208l1-3l3-1l7,5l-2,2l1,6l2,2l-2,1v2l3-1v2l4,2v-2l1,4h2l2-4l1,3l2-4
	l2,4l3-2l2,1l-4,1l1,4l9,5h-2l-4-4l-5-1l-3-3l-3,6l2,2l2-2l5,1l3,6l4,2v2l3,3l-6-5l-3,3l1-3l-2-4l-3,3h-2l-1,6l-2,2h-3l-2,4l5-1l1,7
	l2-2l2,4h2l3,3l6-4l2,8l-2-2l-1-5l-3,4h-4v-2l-3-1l-1-3h-4l-2,2l2-2l-1-5h-4l-3,2l1-3h-6l5-1l2,2l-2-3l5-6h4l-1-5l2-2h3v-2l-5,1
	l-2,2v-4l-7,6l5-6l-1-1l2-4h-2l-4-4h-2l-3,4v2h2l-1,1l-1-1l-5,3l6-9l-3-3v-4l-5,2v2l-2,1l1,3l-2,2v-5l2-4l6-5v-6l-2-2l-3,3l1,3h-2
	l-2,4l-4,2h-7h2v-2l4,1l4-2l3-4l-2-4H859.4z M893.4,141v-2V141z"/>
</svg>
