<?xml version="1.0" encoding="utf-8"?>
<!-- Generator: Adobe Illustrator 16.0.0, SVG Export Plug-In . SVG Version: 6.00 Build 0)  -->
<!DOCTYPE svg PUBLIC "-//W3C//DTD SVG 1.1//EN" "http://www.w3.org/Graphics/SVG/1.1/DTD/svg11.dtd">
<svg version="1.1"
	 id="svg8" xmlns:dc="http://purl.org/dc/elements/1.1/" xmlns:cc="http://creativecommons.org/ns#" xmlns:rdf="http://www.w3.org/1999/02/22-rdf-syntax-ns#" xmlns:svg="http://www.w3.org/2000/svg" xmlns:sodipodi="http://sodipodi.sourceforge.net/DTD/sodipodi-0.dtd" xmlns:inkscape="http://www.inkscape.org/namespaces/inkscape" sodipodi:docname="istanbul-ilceler.svg" inkscape:version="0.92.3 (2405546, 2018-03-11)"
	 xmlns="http://www.w3.org/2000/svg" xmlns:xlink="http://www.w3.org/1999/xlink" x="0px" y="0px" width="89.8px" height="71.801px"
	 viewBox="50.721 806.5 89.8 71.801" enable-background="new 50.721 806.5 89.8 71.801" xml:space="preserve">
<path id="path4567" inkscape:connector-curvature="0" fill="#3F98D7" fill-opacity="0.3" stroke="#2473AC" stroke-width="0.8" stroke-linecap="round" stroke-linejoin="round" d="
	M127.121,808.9v-2l-8,2l-3,3h-7l-3-3l-6-2l-4,3l-2,4l-1-1l-2,2h-16l-4,3l1,1l-6,8l-10,4l-5,4l9,9v3l5,8l-1,1l2-3l-1,3l4,7l3-1l-3,1
	l2,3h4l2,5l6,7v-3l6-4l3,4h2l4-3l-1-1l10-5l2,1l6-3h15l2-2l2-11l6-10l-1-6l-6-8l2-8l3-3v-2l-1-2l-4,2l-2-2l-3,1L127.121,808.9z"/>
</svg>
