<?xml version="1.0" encoding="utf-8"?>
<!-- Generator: Adobe Illustrator 16.0.0, SVG Export Plug-In . SVG Version: 6.00 Build 0)  -->
<!DOCTYPE svg PUBLIC "-//W3C//DTD SVG 1.1//EN" "http://www.w3.org/Graphics/SVG/1.1/DTD/svg11.dtd">
<svg version="1.1"
	 id="svg8" xmlns:dc="http://purl.org/dc/elements/1.1/" xmlns:cc="http://creativecommons.org/ns#" xmlns:rdf="http://www.w3.org/1999/02/22-rdf-syntax-ns#" xmlns:svg="http://www.w3.org/2000/svg" xmlns:sodipodi="http://sodipodi.sourceforge.net/DTD/sodipodi-0.dtd" xmlns:inkscape="http://www.inkscape.org/namespaces/inkscape" sodipodi:docname="istanbul-ilceler.svg" inkscape:version="0.92.3 (2405546, 2018-03-11)"
	 xmlns="http://www.w3.org/2000/svg" xmlns:xlink="http://www.w3.org/1999/xlink" x="0px" y="0px" width="71.8px" height="76.801px"
	 viewBox="-183.766 486 71.8 76.801" enable-background="new -183.766 486 71.8 76.801" xml:space="preserve">
<path id="path4579" inkscape:connector-curvature="0" fill="#3F98D7" fill-opacity="0.3" stroke="#2473AC" stroke-width="0.8" stroke-linecap="round" stroke-linejoin="round" d="
	M-154.366,488.4l-2-2l-6,5l-7,3l-5,8h-2l-1,2l1,8l-2-2l-5,1l16,15l-1,6l3,2l8,16l11,12l8-8l17-1l9-4l-3-1l2-6l-2-2l3-4l-3-6h-5l-3-8
	l-5,1l5-2l-4-4l-1-6l-8-4l-2-7l-3-1l-4,5l-2-2l2-5l-3-4l-5,1l2-5l-2-1H-154.366z"/>
</svg>
