<?xml version="1.0" encoding="utf-8"?>
<!-- Generator: Adobe Illustrator 16.0.0, SVG Export Plug-In . SVG Version: 6.00 Build 0)  -->
<!DOCTYPE svg PUBLIC "-//W3C//DTD SVG 1.1//EN" "http://www.w3.org/Graphics/SVG/1.1/DTD/svg11.dtd">
<svg version="1.1"
	 id="svg8" xmlns:dc="http://purl.org/dc/elements/1.1/" xmlns:cc="http://creativecommons.org/ns#" xmlns:rdf="http://www.w3.org/1999/02/22-rdf-syntax-ns#" xmlns:svg="http://www.w3.org/2000/svg" xmlns:sodipodi="http://sodipodi.sourceforge.net/DTD/sodipodi-0.dtd" xmlns:inkscape="http://www.inkscape.org/namespaces/inkscape" sodipodi:docname="istanbul-ilceler.svg" inkscape:version="0.92.3 (2405546, 2018-03-11)"
	 xmlns="http://www.w3.org/2000/svg" xmlns:xlink="http://www.w3.org/1999/xlink" x="0px" y="0px" width="130.8px"
	 height="93.801px" viewBox="-111.667 920 130.8 93.801" enable-background="new -111.667 920 130.8 93.801" xml:space="preserve">
<path id="path4515" inkscape:connector-curvature="0" fill="#3F98D7" fill-opacity="0.3" stroke="#2473AC" stroke-width="0.8" stroke-linecap="round" stroke-linejoin="round" d="
	M6.733,959.4l-3-2v2l-9,3l-1,9l-5,1l5,1l-3,5l4,8l-4,4h2l2,4h7v-15l10-16v-2l-3-3L6.733,959.4z M-20.267,949.4l-4,1l1,2l-4,4l-6,2
	l-2,6l1,1l5,1v-3l2-2l3,2l-2,2l5-2l1,1l5-4v-2l2,1l-3-8L-20.267,949.4z M-47.267,947.4h-2l2,4l-3,3v2l6,3l5-1l2-4l-2-3l1-1l-2-2
	L-47.267,947.4z M-52.267,920.4l-8,2l1,4l4,3v3h3l5-4l-2-6l-2-1L-52.267,920.4z M15.733,979.4v-2l-3,4l4,4h2l-1-5L15.733,979.4z
	 M-95.267,967.4l-1-1l1,3h2l1-1l-2-1H-95.267z M-109.267,956.4l-2,2l1,1l2-2l1,1L-109.267,956.4z M-33.267,952.4v-4V952.4z
	 M-6.267,1010.4v3v-2V1010.4z"/>
</svg>
