<?xml version="1.0" encoding="utf-8"?>
<!-- Generator: Adobe Illustrator 16.0.0, SVG Export Plug-In . SVG Version: 6.00 Build 0)  -->
<!DOCTYPE svg PUBLIC "-//W3C//DTD SVG 1.1//EN" "http://www.w3.org/Graphics/SVG/1.1/DTD/svg11.dtd">
<svg version="1.1"
	 id="svg8" xmlns:dc="http://purl.org/dc/elements/1.1/" xmlns:cc="http://creativecommons.org/ns#" xmlns:rdf="http://www.w3.org/1999/02/22-rdf-syntax-ns#" xmlns:svg="http://www.w3.org/2000/svg" xmlns:sodipodi="http://sodipodi.sourceforge.net/DTD/sodipodi-0.dtd" xmlns:inkscape="http://www.inkscape.org/namespaces/inkscape" sodipodi:docname="istanbul-ilceler.svg" inkscape:version="0.92.3 (2405546, 2018-03-11)"
	 xmlns="http://www.w3.org/2000/svg" xmlns:xlink="http://www.w3.org/1999/xlink" x="0px" y="0px" width="133.799px"
	 height="175.8px" viewBox="-112.766 102.514 133.799 175.8" enable-background="new -112.766 102.514 133.799 175.8"
	 xml:space="preserve">
<path id="path4573" inkscape:connector-curvature="0" fill="#3F98D7" fill-opacity="0.3" stroke="#2473AC" stroke-width="0.8" stroke-linecap="round" stroke-linejoin="round" d="
	M-95.366,102.914h-5l-1,4l-4,2l-4,17l-3,6l3,6l5,4h4l2,2l1-1l1,2l-2,8l-3,5l2,10l3,2l-2,32h5l-1,2l2,1l8-1l3,4l1,5v2l-9,12l1,3l-4,4
	l2,8l-3,5l2,2l-1,4l1,1l3-2l2,2l-2,2l3,2l5-2l1,1l2-2l1,2l2-1l-1,1l2,4h8l2-2l3,2l1,5l4-9l3-3l4,6l9,1l-7,5l13,3l2,6h7l1,3l2-2v-6
	l-3-5l4-13v-4l-3-1h5l7-7l1-3l-6-6l-1-4l-6-4l2-2l-2-4l-13-10v-2l11-8h4l3-6l8-3l3-10l5-5l6-10l7-6h3l4-6l-4-7l6-9v-4l1,4v-4l-2-2
	l-1,1l-1-1l2-2h-4v-2l-3-1v-2l-4,3l1-3l-4-3l-1,2l-1-4l-4,2v-4l-4,1l1-3l-2-2l-4,6l-1-5h-4v2l-4-4l-8-2l-3,3h-2l-3-3l1,3l-4,7l-8,2
	l-21-3l-11-5l-3,1l-6-2l-2-4L-95.366,102.914z M-95.366,187.914l5-10l-1-1l1,3l-3,7L-95.366,187.914z M-71.367,169.914l1-5l-2,7v-2
	H-71.367z M-76.367,169.914l2,3L-76.367,169.914z M-68.367,179.914l2-3l-1,3H-68.367z M-91.366,161.914l1-2L-91.366,161.914z
	 M-88.367,195.914l-2-3l1-1L-88.367,195.914z"/>
</svg>
