<?xml version="1.0" encoding="utf-8"?>
<!-- Generator: Adobe Illustrator 16.0.0, SVG Export Plug-In . SVG Version: 6.00 Build 0)  -->
<!DOCTYPE svg PUBLIC "-//W3C//DTD SVG 1.1//EN" "http://www.w3.org/Graphics/SVG/1.1/DTD/svg11.dtd">
<svg version="1.1"
	 id="svg8" xmlns:dc="http://purl.org/dc/elements/1.1/" xmlns:cc="http://creativecommons.org/ns#" xmlns:rdf="http://www.w3.org/1999/02/22-rdf-syntax-ns#" xmlns:svg="http://www.w3.org/2000/svg" xmlns:sodipodi="http://sodipodi.sourceforge.net/DTD/sodipodi-0.dtd" xmlns:inkscape="http://www.inkscape.org/namespaces/inkscape" sodipodi:docname="istanbul-ilceler.svg" inkscape:version="0.92.3 (2405546, 2018-03-11)"
	 xmlns="http://www.w3.org/2000/svg" xmlns:xlink="http://www.w3.org/1999/xlink" x="0px" y="0px" width="177.8px"
	 height="140.801px" viewBox="-642.5 917.5 177.8 140.801" enable-background="new -642.5 917.5 177.8 140.801"
	 xml:space="preserve">
<path id="path4541" inkscape:connector-curvature="0" fill="#3F98D7" fill-opacity="0.3" stroke="#2473AC" stroke-width="0.8" stroke-linecap="round" stroke-linejoin="round" d="
	M-508.1,1026.9l-1-1l10,1l6,3l3,5l-2,4v7l3-1l8,7l10-18v-7l4,1l1-2l-5-4l-1-3l1-4l-2-3v-4l3-5v-11l-5-15l6-17l2,1l2-3l-7-11l-2-7
	l-6-8v-3l-1-1l-3,3v5l-3-1l-1-7h-4l-4-10l-1,3l-6-1l-9,10l-6,2l-4,11h5l-1,10l-6,7l5,10l4-4h2l-2,8l4,4l2,8l5,2l5,7l1,12l-3,3l1,5
	l-1-1l-2,4l-3,2l-10-1l-4-2l1-1l-4-4l4-4v-10l-12-3l1-5l-5-5l5-3l-3-6l-7-3l-7-7l-1-17l7-6l-5-4l-10,5v3l6,17l6,10l-4,3l-3-2v2l-7,4
	l-1,3l-5,4l-10,2l-3-1l-7-12h-11l-13-9l-4-1l-7,4l-4-2l-4-5l-7-3l-3,2l-1-1l-2,4v6l-2,3l2,6l-2,16l18,5l36,17l11,9l1,3l18,9l2,3
	l-2,1l3,3l-2-4l1,3h4l10,5l9,7l2-1l1-9l6-13l8-4v-4l1,1l4-3L-508.1,1026.9z M-508.1,1027.9h2H-508.1z M-508.1,1026.9v1V1026.9z"/>
</svg>
