<?xml version="1.0" encoding="UTF-8" standalone="no"?>
<svg
   xmlns:dc="http://purl.org/dc/elements/1.1/"
   xmlns:cc="http://creativecommons.org/ns#"
   xmlns:rdf="http://www.w3.org/1999/02/22-rdf-syntax-ns#"
   xmlns:svg="http://www.w3.org/2000/svg"
   xmlns="http://www.w3.org/2000/svg"
   xmlns:sodipodi="http://sodipodi.sourceforge.net/DTD/sodipodi-0.dtd"
   xmlns:inkscape="http://www.inkscape.org/namespaces/inkscape"
   pointer-events="none"
   class="leaflet-zoom-animated"
   width="1447.7999"
   height="756.79999"
   viewBox="-192 -92 1447.7999 756.79999"
   version="1.1"
   id="svg82"
   sodipodi:docname="istanbul.svg"
   inkscape:version="0.92.3 (2405546, 2018-03-11)">
  <metadata
     id="metadata88">
    <rdf:RDF>
      <cc:Work
         rdf:about="">
        <dc:format>image/svg+xml</dc:format>
        <dc:type
           rdf:resource="http://purl.org/dc/dcmitype/StillImage" />
        <dc:title></dc:title>
      </cc:Work>
    </rdf:RDF>
  </metadata>
  <defs
     id="defs86" />
  <sodipodi:namedview
     pagecolor="#ffffff"
     bordercolor="#666666"
     borderopacity="1"
     objecttolerance="10"
     gridtolerance="10"
     guidetolerance="10"
     inkscape:pageopacity="0"
     inkscape:pageshadow="2"
     inkscape:window-width="1920"
     inkscape:window-height="1017"
     id="namedview84"
     showgrid="false"
     fit-margin-top="0"
     fit-margin-left="0"
     fit-margin-right="0"
     fit-margin-bottom="0"
     inkscape:zoom="0.14930556"
     inkscape:cx="-472.48374"
     inkscape:cy="349.39997"
     inkscape:window-x="-8"
     inkscape:window-y="-8"
     inkscape:window-maximized="1"
     inkscape:current-layer="svg82" />
  <g
     id="g80"
     transform="translate(-425.60002,-144.6)">
    <path
       class="leaflet-interactive"
       d="m 1079,740 -3,-2 v 2 l -9,3 -1,9 -5,1 5,1 -3,5 4,8 -4,4 h 2 l 2,4 h 7 v -15 l 10,-16 v -2 l -3,-3 z m -27,-10 -4,1 1,2 -4,4 -6,2 -2,6 1,1 5,1 v -3 l 2,-2 3,2 -2,2 5,-2 1,1 5,-4 v -2 l 2,1 -3,-8 z m -27,-2 h -2 l 2,4 -3,3 v 2 l 6,3 5,-1 2,-4 -2,-3 1,-1 -2,-2 z m -5,-27 -8,2 1,4 4,3 v 3 h 3 l 5,-4 -2,-6 -2,-1 z m 68,59 v -2 l -3,4 4,4 h 2 l -1,-5 z m -111,-12 -1,-1 1,3 h 2 l 1,-1 -2,-1 z m -14,-11 -2,2 1,1 2,-2 1,1 z m 76,-4 v -4 z m 27,58 v 3 -2 z"
       id="path2"
       inkscape:connector-curvature="0"
       style="fill:#3f98d7;fill-opacity:0.3;fill-rule:evenodd;stroke:#2473ac;stroke-width:0.80000001;stroke-linecap:round;stroke-linejoin:round;stroke-opacity:1" />
    <path
       class="leaflet-interactive"
       d="m 614,224 -2,5 v 9 l 6,1 2,2 9,-1 7,3 3,3 h 2 v 2 l 3,3 -2,4 1,-1 7,2 2,-2 v 2 l 3,1 2,-3 3,-1 3,6 h 5 l 4,-2 -3,4 2,1 2,6 6,5 1,3 h 6 v 7 l 1,2 h 4 v 7 l 1,1 2,-2 3,4 h 6 l 2,-2 10,20 4,4 10,-4 7,-8 v 2 h 2 l -3,1 1,3 1,-1 3,2 1,-3 3,3 7,-1 -1,3 -3,-1 -4,2 h -4 l -7,-3 -1,2 2,2 8,3 5,6 -2,1 v 3 l -3,-5 -5,-2 -2,1 1,3 h -4 l -3,3 2,-5 -1,-1 -12,-2 -11,-9 v -2 l -3,-3 4,-3 -4,-3 v -2 l -8,4 -4,-3 h -2 l -3,3 -3,-3 -5,-1 -6,3 -4,5 v 2 h 2 l 4,6 h 4 l -1,6 h 2 l 3,5 -2,2 -4,-1 -4,7 v -2 h -2 l 1,-12 -6,-4 -3,1 -3,9 1,6 -4,8 v 9 l -5,2 1,11 3,5 8,-2 11,5 -1,7 2,2 v 11 l -2,2 5,5 2,7 -1,8 3,5 v 5 l 6,11 -1,23 -2,3 -3,1 -5,12 -8,11 2,3 2,10 -8,7 -1,4 3,1 11,-13 h 5 l 2,2 1,-3 2,2 v 4 l 6,4 1,6 3,1 v -5 l 3,-3 1,1 v 3 l 6,8 9,18 1,-6 3,-1 -1,-3 1,1 2,-4 10,2 1,2 8,-9 6,-3 -2,-2 7,-11 v -2 l -2,-1 v -7 l -1,1 -2,-5 -11,-8 2,-1 -4,-10 -4,-2 3,-2 -1,-7 -4,-11 -3,2 -1,-1 2,-3 -5,-9 -2,-8 2,-2 4,12 3,4 2,-1 2,8 h 3 v 6 l 3,4 h -2 v 4 l 3,9 8,10 2,1 2,-5 1,1 -1,7 3,7 4,-3 -3,4 8,7 h 2 v 2 l 3,3 1,-1 12,6 -1,-4 h 5 l 3,-15 2,-3 -1,-2 4,2 3,-5 -3,-4 v -5 h 2 v 5 l 2,2 5,-1 v 2 h -4 l -2,7 -5,1 1,2 5,-1 6,3 3,-1 5,-5 7,-4 v -2 l 6,-6 5,1 13,11 8,1 -2,-3 2,-3 -1,-9 -2,-3 1,-6 -2,-3 1,-10 4,-1 1,-7 -3,-4 2,-5 -3,-9 3,-1 1,-5 -11,-14 h -4 l -3,-3 1,-4 -7,-9 v -10 l -4,-5 -1,-4 -5,-2 -3,-9 v -2 l 5,-1 v -3 l 3,-5 3,-20 3,-7 -2,-3 -12,-5 -5,-4 h -6 l -9,-3 -1,-2 -5,-2 -2,2 -9,-2 -26,-14 v -2 h 2 l -2,-2 1,-1 h -4 v 2 l -3,3 h -2 l -9,-3 -3,-3 h -9 l -9,-3 -35,-19 -15,-11 -19,-7 -31,-16 z"
       id="path4"
       inkscape:connector-curvature="0"
       style="fill:#3f98d7;fill-opacity:0.3;fill-rule:evenodd;stroke:#2473ac;stroke-width:0.80000001;stroke-linecap:round;stroke-linejoin:round;stroke-opacity:1" />
    <path
       class="leaflet-interactive"
       d="m 1069,623 -6,-2 -5,-6 -9,-6 -13,5 1,12 10,5 5,5 8,17 4,5 5,-3 v -2 l 6,-8 h 16 l 3,-2 1,1 3,-5 4,-2 2,2 h 4 l 1,3 3,-2 3,3 5,-4 h 4 l 7,-4 -7,-6 -11,-1 -9,-4 h -12 l -10,-3 -11,2 z"
       id="path6"
       inkscape:connector-curvature="0"
       style="fill:#3f98d7;fill-opacity:0.3;fill-rule:evenodd;stroke:#2473ac;stroke-width:0.80000001;stroke-linecap:round;stroke-linejoin:round;stroke-opacity:1" />
    <path
       class="leaflet-interactive"
       d="m 790,558 -15,-19 -6,-5 v -4 l -5,-8 -6,-6 v 14 l 2,10 4,5 v 11 l 2,6 h -6 l -8,3 v 2 l 6,7 v 2 l 4,2 v 2 l -4,4 v 4 h 4 l 2,3 h 2 v 9 l -4,7 h 2 l 2,3 -2,3 v 7 l -6,-1 -2,-2 h -3 v 2 l 3,10 9,9 -1,5 11,2 v 2 l 2,1 -2,-2 h 2 l 6,3 1,-3 h 7 l 2,2 5,-6 7,-4 1,-3 -13,-1 -5,-15 -3,-1 -1,-4 -5,-5 v -5 l 4,-3 h 2 v 2 l 3,2 h 6 v -8 l -4,-11 v -4 l -1,-3 -4,-3 1,-4 3,-3 3,-2 1,4 1,-1 1,-6 3,-3 -2,-4 -5,2 z"
       id="path8"
       inkscape:connector-curvature="0"
       style="fill:#3f98d7;fill-opacity:0.3;fill-rule:evenodd;stroke:#2473ac;stroke-width:0.80000001;stroke-linecap:round;stroke-linejoin:round;stroke-opacity:1" />
    <path
       class="leaflet-interactive"
       d="m 862,552 -12,-3 -3,3 1,4 -2,3 -3,13 3,20 2,4 6,4 4,-3 5,-1 7,2 2,-3 1,2 6,3 1,-1 1,3 2,-4 -3,-6 4,-2 h 3 l 2,2 1,-1 -1,-10 -7,-1 -3,-14 h -2 l 1,-10 4,-6 -5,-1 -7,7 -3,-2 z"
       id="path10"
       inkscape:connector-curvature="0"
       style="fill:#3f98d7;fill-opacity:0.3;fill-rule:evenodd;stroke:#2473ac;stroke-width:0.80000001;stroke-linecap:round;stroke-linejoin:round;stroke-opacity:1" />
    <path
       class="leaflet-interactive"
       d="m 854,600 -8,-8 -3,1 1,1 -2,9 2,3 2,12 3,3 v 2 l 3,1 -1,1 22,2 26,-10 -2,-4 v -11 l -3,3 -2,6 -3,2 -8,-11 v -2 l -8,-2 -1,-3 -2,3 -7,-2 -5,1 z"
       id="path12"
       inkscape:connector-curvature="0"
       style="fill:#3f98d7;fill-opacity:0.3;fill-rule:evenodd;stroke:#2473ac;stroke-width:0.80000001;stroke-linecap:round;stroke-linejoin:round;stroke-opacity:1" />
    <path
       class="leaflet-interactive"
       d="m 905,626 1,-4 -2,-2 1,-4 3,-3 -34,14 -23,-2 -6,-6 -6,-1 -3,3 -1,9 -3,-1 -6,4 -7,-1 v 9 l 11,6 15,14 1,-1 2,2 h 7 l -1,-1 3,-1 1,2 6,-3 1,1 2,-2 4,-8 -1,-2 2,-2 3,2 -3,-3 3,3 -2,-3 2,-2 12,1 v 2 l 5,3 4,-4 -3,3 h -2 l 2,-3 h 2 l -1,-1 2,-2 4,-1 3,-3 1,1 -1,1 2,-10 -1,-2 z"
       id="path14"
       inkscape:connector-curvature="0"
       style="fill:#3f98d7;fill-opacity:0.3;fill-rule:evenodd;stroke:#2473ac;stroke-width:0.80000001;stroke-linecap:round;stroke-linejoin:round;stroke-opacity:1" />
    <path
       class="leaflet-interactive"
       d="m 829,475 -4,-1 -8,10 -5,2 -7,6 -5,-1 -1,-2 -6,1 -1,-3 -2,4 1,9 h -2 l -1,9 -5,2 -3,4 -4,2 -3,-5 h -3 v -2 l -5,-4 -6,-2 -4,-5 h -2 l -7,10 v 2 l 3,1 -7,3 -8,9 -2,-2 -9,-2 -2,4 4,3 4,7 3,11 14,12 9,2 v 2 l 4,2 7,-1 -2,-5 v -12 l -4,-5 -2,-9 1,-11 -2,-4 7,6 5,11 22,26 4,-2 2,2 6,1 9,-2 9,1 6,-2 h 8 l 9,3 4,-4 -1,-3 2,-4 12,3 4,-3 4,-10 2,-11 3,-5 v -8 l -4,-7 1,-4 -16,-15 -3,-2 -9,-1 z"
       id="path16"
       inkscape:connector-curvature="0"
       style="fill:#3f98d7;fill-opacity:0.3;fill-rule:evenodd;stroke:#2473ac;stroke-width:0.80000001;stroke-linecap:round;stroke-linejoin:round;stroke-opacity:1" />
    <path
       class="leaflet-interactive"
       d="m 923,577 -4,-6 -1,-5 -6,-6 -1,-4 -16,-12 v 6 l 5,9 -1,17 2,5 7,5 3,6 6,-4 h 4 l 4,7 3,-4 -3,-3 v -3 l -3,-4 v -3 h 2 z"
       id="path18"
       inkscape:connector-curvature="0"
       style="fill:#3f98d7;fill-opacity:0.3;fill-rule:evenodd;stroke:#2473ac;stroke-width:0.80000001;stroke-linecap:round;stroke-linejoin:round;stroke-opacity:1" />
    <path
       class="leaflet-interactive"
       d="m 1001,523 -3,-1 -4,-6 -7,10 1,9 7,13 -3,9 -6,-3 -1,1 -1,8 -2,2 2,5 h -2 l -4,8 v 2 l 3,3 27,-13 2,-9 7,-9 -2,-7 2,-3 6,-2 -1,-3 h -7 l -2,-6 -12,-3 2,-2 1,1 1,-3 h 2 l -1,-2 -4,1 z m 11,38 z"
       id="path20"
       inkscape:connector-curvature="0"
       style="fill:#3f98d7;fill-opacity:0.3;fill-rule:evenodd;stroke:#2473ac;stroke-width:0.80000001;stroke-linecap:round;stroke-linejoin:round;stroke-opacity:1" />
    <path
       class="leaflet-interactive"
       d="m 1170,394 v -2 l -8,2 -2,4 h -11 l -2,-2 h -7 l 1,5 -2,2 -6,2 -4,-3 -2,4 -12,-2 -1,1 -7,-4 -3,1 -2,2 -1,5 -6,-3 1,1 -3,1 1,4 -3,2 h -6 l -3,3 -2,-1 -6,5 4,-3 1,1 v 2 l -3,3 -3,-1 -4,2 1,11 -6,6 1,-1 -4,1 v 2 l -4,-1 -11,3 2,5 -1,3 -9,4 -2,3 4,9 -5,11 7,5 h 4 l 4,4 4,6 v 8 l -6,3 -5,6 v 2 h -6 l -5,4 -2,5 2,4 v 10 l -2,6 h 2 l 9,12 4,1 5,-2 3,1 2,4 6,-1 4,2 9,9 h 3 l 3,-3 2,1 -1,3 3,3 v 4 l 3,-2 v -3 h 4 v -2 h 4 l 11,-6 h 17 l 4,2 3,-1 v -2 h 5 l 1,-2 -5,-11 4,-19 10,-7 v -7 l 7,-6 h 2 l 1,6 3,2 2,-2 2,2 3,-2 v -6 l 3,-1 v -4 h 2 l 3,-3 2,2 10,-5 3,1 2,-5 v -6 l 5,1 2,2 h 4 l 3,3 h 6 l 6,-4 5,4 9,-1 2,-2 h 6 l 2,4 6,-1 3,-11 -2,-4 -4,-2 -2,1 1,-7 -3,-3 -5,1 1,-3 h -2 v -3 l -2,-2 -7,1 -2,2 1,-3 -3,-4 1,-3 -2,-2 -1,2 1,-11 -3,-4 2,-10 -1,-1 8,-9 -2,-7 2,-4 -3,-2 h -6 l -7,-4 -3,1 -11,-2 -6,-2 -4,-4 -3,1 -2,-2 -1,1 -2,-3 -6,1 z m -104,151 -6,3 -3,-3 z m 0,0 h 1 z m 1,0 3,-3 3,2 3,-6 3,1 3,-3 -1,2 3,3 -3,-3 -5,3 1,1 -3,3 h -2 l 1,6 1,1 2,-2 v 2 h -4 l 3,3 5,-2 2,3 -1,3 2,4 h -2 l 1,-1 -2,-2 -1,-6 -4,2 -4,-4 v -6 l -3,-1 z m 14,19 -1,1 z m -1,1 v 2 z"
       id="path22"
       inkscape:connector-curvature="0"
       style="fill:#3f98d7;fill-opacity:0.3;fill-rule:evenodd;stroke:#2473ac;stroke-width:0.80000001;stroke-linecap:round;stroke-linejoin:round;stroke-opacity:1" />
    <path
       class="leaflet-interactive"
       d="m 717,601 -6,1 v 7 l -10,18 -6,-6 h -5 l -1,10 2,6 -2,8 2,4 15,7 h 11 l 9,-2 h 12 v 2 l -4,-1 6,1 v -2 4 l 4,2 -2,-2 v -4 l 2,-1 2,3 v -3 l 1,3 v -4 l 1,-1 1,3 v -4 l 3,4 1,-5 1,5 -1,-4 6,-5 5,-1 1,-5 -9,-11 -3,-9 v -2 h 3 l -4,-4 h -10 l -18,-8 z"
       id="path24"
       inkscape:connector-curvature="0"
       style="fill:#3f98d7;fill-opacity:0.3;fill-rule:evenodd;stroke:#2473ac;stroke-width:0.80000001;stroke-linecap:round;stroke-linejoin:round;stroke-opacity:1" />
    <path
       class="leaflet-interactive"
       d="m 954,568 -3,-2 -1,-5 -4,-3 v -2 7 l -6,4 -1,4 2,4 5,4 2,5 2,2 6,1 3,3 -1,2 3,5 4,1 10,-7 5,-9 -9,-4 -1,1 -6,-5 -3,1 -1,-3 -4,-3 v -2 z"
       id="path26"
       inkscape:connector-curvature="0"
       style="fill:#3f98d7;fill-opacity:0.3;fill-rule:evenodd;stroke:#2473ac;stroke-width:0.80000001;stroke-linecap:round;stroke-linejoin:round;stroke-opacity:1" />
    <path
       class="leaflet-interactive"
       d="m 674,602 -1,-1 10,1 6,3 3,5 -2,4 v 7 l 3,-1 8,7 10,-18 v -7 l 4,1 1,-2 -5,-4 -1,-3 1,-4 -2,-3 v -4 l 3,-5 v -11 l -5,-15 6,-17 2,1 2,-3 -7,-11 -2,-7 -6,-8 v -3 l -1,-1 -3,3 v 5 l -3,-1 -1,-7 h -4 l -4,-10 -1,3 -6,-1 -9,10 -6,2 -4,11 h 5 l -1,10 -6,7 5,10 4,-4 h 2 l -2,8 4,4 2,8 5,2 5,7 1,12 -3,3 1,5 -1,-1 -2,4 -3,2 -10,-1 -4,-2 1,-1 -4,-4 4,-4 v -10 l -12,-3 1,-5 -5,-5 5,-3 -3,-6 -7,-3 -7,-7 -1,-17 7,-6 -5,-4 -10,5 v 3 l 6,17 6,10 -4,3 -3,-2 v 2 l -7,4 -1,3 -5,4 -10,2 -3,-1 -7,-12 h -11 l -13,-9 -4,-1 -7,4 -4,-2 -4,-5 -7,-3 -3,2 -1,-1 -2,4 v 6 l -2,3 2,6 -2,16 18,5 36,17 11,9 1,3 18,9 2,3 -2,1 3,3 -2,-4 1,3 h 4 l 10,5 9,7 2,-1 1,-9 6,-13 8,-4 v -4 l 1,1 4,-3 z m 0,1 h 2 z m 0,-1 v 1 z"
       id="path28"
       inkscape:connector-curvature="0"
       style="fill:#3f98d7;fill-opacity:0.3;fill-rule:evenodd;stroke:#2473ac;stroke-width:0.80000001;stroke-linecap:round;stroke-linejoin:round;stroke-opacity:1" />
    <path
       class="leaflet-interactive"
       d="m 368,57 -8,-4 -4,2 -6,8 h -2 l -1,5 h -2 l -1,4 -3,1 v 2 l 4,1 1,3 v 4 l -4,2 2,4 -1,3 -1,2 -3,-1 v 2 l 4,4 -2,9 -11,12 v -2 l -3,1 -2,4 -3,2 -12,2 1,5 -4,6 1,4 4,-1 8,7 5,8 6,2 2,4 -1,1 5,6 -1,9 2,7 v 8 l -2,13 8,16 -5,2 -4,4 -5,-1 -2,4 -1,14 -7,16 v 25 l -7,16 -2,27 1,2 2,-2 5,3 4,-1 v -2 l 5,2 5,-1 3,2 1,-2 h 3 l 10,-12 2,-5 4,-2 v -2 h -3 l -3,-3 -2,-10 -3,-1 7,-9 2,-5 -3,-13 1,-1 2,3 6,2 9,-1 35,14 5,9 5,-10 h 2 l 3,3 h 6 l 6,-3 4,2 2,-2 9,-1 3,-6 4,-3 7,9 -1,5 h -2 l -1,2 v 5 l -8,9 1,7 9,7 2,-1 3,2 3,5 14,-6 10,3 -3,2 -2,4 -2,9 -3,3 1,2 -10,10 1,2 3,-1 v 6 l 3,2 1,8 3,1 5,7 -2,4 1,2 9,5 10,-2 1,3 h 2 l -1,3 4,12 7,9 5,2 -1,3 1,1 2,-2 6,8 -3,2 v 3 l -2,2 -4,1 1,4 4,1 1,2 -7,11 4,4 v 8 h 4 l 1,-2 5,4 -2,5 3,5 -3,5 5,13 -6,2 5,4 v 12 l 3,8 v 6 l 3,3 -3,7 v 8 h 2 l 2,-5 1,1 4,-2 6,3 4,5 4,2 7,-4 6,3 1,-1 8,7 7,2 5,-1 2,1 6,11 3,1 10,-2 5,-4 2,-4 5,-2 1,-3 3,2 4,-3 -7,-13 -6,-17 11,-5 5,4 8,-2 2,1 -1,1 3,5 2,2 1,-1 3,-4 -1,-1 6,-11 v -3 l 9,-10 -2,-9 -3,-3 8,-9 6,-13 5,-5 1,-6 v -16 l -6,-12 -4,-26 -1,1 -1,-3 -3,-2 2,-2 v -12 h -2 l 1,-9 -11,-4 -8,2 -3,-5 -1,-11 5,-2 v -8 l 4,-9 -1,-6 2,-5 h -2 l -2,-13 -2,-3 -7,-1 1,1 -2,3 -5,5 -2,-1 v -6 l 4,-5 v -5 l -4,-4 7,4 8,1 2,-4 4,-2 -6,-12 h 2 l 4,-6 h 4 l -8,-8 -15,1 v -2 l -6,-3 v -2 l -2,-1 1,-3 -3,-1 -4,-5 -10,-2 -3,3 1,1 h -2 l 2,2 h -2 l -3,-8 -7,-3 h -2 v 2 h -3 l -1,4 -5,6 -3,-1 -2,-4 4,1 7,-10 -1,-3 2,-2 -4,-2 4,-3 2,3 h 4 v 4 l 4,2 2,-4 1,-11 -29,-17 -9,-3 -31,-16 -5,-4 -6,-2 -61,-35 -10,-4 -4,-4 -4,-1 -4,-4 -5,-2 1,-3 -2,-2 -7,-4 -1,1 -1,-4 -8,-3 -4,-4 v -2 l -4,-1 -1,2 -4,-4 2,-2 -9,-9 -3,-1 -4,-8 -5,-1 1,-4 -5,-1 -1,-4 h 2 l -5,-5 v -2 l 3,-2 -4,-5 -3,1 -3,-3 h -4 v -4 l -7,-2 z"
       id="path30"
       inkscape:connector-curvature="0"
       style="fill:#3f98d7;fill-opacity:0.3;fill-rule:evenodd;stroke:#2473ac;stroke-width:0.80000001;stroke-linecap:round;stroke-linejoin:round;stroke-opacity:1" />
    <path
       class="leaflet-interactive"
       d="m 1196,494 -1,-2 -5,-1 1,4 -2,2 -1,5 -3,-1 -9,5 -4,-2 -1,3 -3,-1 v 5 l -3,1 v 6 l -3,2 -2,-2 -2,2 -4,-3 -1,-5 -8,6 1,7 -7,4 v 2 h -4 l -3,10 -1,10 2,2 v 4 l 3,3 -1,3 -5,1 1,1 -3,2 -5,-2 -15,1 -2,-2 -2,3 -8,4 -9,2 v 3 l -3,3 1,6 4,-2 10,1 9,6 7,9 2,5 15,2 7,-3 17,-1 1,-5 5,1 1,-3 -1,1 h 3 v -5 h 10 l 7,-8 1,-5 7,-4 1,-5 4,-1 6,4 h 10 l 4,-2 h 6 l 2,2 h 12 l 2,7 1,-3 2,3 2,-1 2,2 2,-4 -3,-4 -1,1 1,-3 -2,-2 4,-6 -2,-4 3,-2 v 2 h 2 v -6 l 2,6 3,1 v -9 l -2,-1 h 2 l -4,-4 v -2 l 2,2 2,-1 -2,-2 h 2 v -2 l 2,1 v 9 l 2,4 v -5 l 1,-1 1,3 2,-1 -1,-7 h 3 v 6 l 7,-6 v -4 h 4 v -3 l -4,-1 -3,-3 4,-4 1,1 3,-2 v -4 l -7,-4 -1,-3 -6,-3 -1,-11 -5,-5 -5,4 -3,-3 -9,-1 v -3 h -6 l -2,2 -5,1 h -4 l -5,-4 -5,4 h -8 l -2,-3 z"
       id="path32"
       inkscape:connector-curvature="0"
       style="fill:#3f98d7;fill-opacity:0.3;fill-rule:evenodd;stroke:#2473ac;stroke-width:0.80000001;stroke-linecap:round;stroke-linejoin:round;stroke-opacity:1" />
    <path
       class="leaflet-interactive"
       d="m 895,548 v -4 l -14,-16 -6,-13 -6,23 -4,11 -3,3 7,4 4,-1 4,-6 5,1 -5,10 v 6 l 4,5 1,9 8,1 2,2 1,5 5,-2 4,2 1,2 -3,7 1,4 2,1 2,-2 6,-1 -1,-8 -3,-7 -4,-1 -4,-6 1,-17 -5,-11 z"
       id="path34"
       inkscape:connector-curvature="0"
       style="fill:#3f98d7;fill-opacity:0.3;fill-rule:evenodd;stroke:#2473ac;stroke-width:0.80000001;stroke-linecap:round;stroke-linejoin:round;stroke-opacity:1" />
    <path
       class="leaflet-interactive"
       d="m 722,525 -2,-2 1,2 -3,2 -3,8 h -2 l -6,16 5,15 v 12 l -3,5 2,14 3,3 24,12 13,1 7,6 h 6 v -5 l 2,-4 -3,-3 v -2 l 2,-1 1,-4 v -8 l -7,-4 -1,-5 4,-3 v -2 l -4,-2 -1,-4 -5,-5 v -2 l 6,-2 -4,-4 -8,-2 -14,-12 -2,-8 -5,-7 -1,-4 z"
       id="path36"
       inkscape:connector-curvature="0"
       style="fill:#3f98d7;fill-opacity:0.3;fill-rule:evenodd;stroke:#2473ac;stroke-width:0.80000001;stroke-linecap:round;stroke-linejoin:round;stroke-opacity:1" />
    <path
       class="leaflet-interactive"
       d="m 836,328 -6,-5 v -2 l -3,6 -1,12 -5,13 v 4 l -5,1 4,11 4,1 5,9 v 12 l 7,7 v 5 l 8,4 4,8 3,1 1,3 v 5 l -3,1 3,9 -2,5 3,4 -1,7 h -4 l -1,11 2,3 2,18 -2,2 3,4 7,1 3,2 v -9 l 9,-10 h 2 l 9,-7 5,4 -2,3 2,2 4,-2 2,3 -2,7 2,1 4,-5 3,1 3,8 5,2 6,8 2,1 5,-2 -4,3 v 4 l 4,4 2,-2 3,1 1,3 2,-2 -2,3 1,5 -2,2 1,5 -2,2 3,6 h -2 l -4,10 v 12 l 3,3 h 3 l 2,-3 4,1 3,3 -1,3 2,3 -1,3 -3,-1 -8,4 -4,-2 v 2 l -4,2 6,8 h -2 v 3 l 3,7 6,8 9,-9 -1,-3 4,-4 -4,-1 -3,-9 3,-4 5,-2 v -4 l -2,-2 5,-1 4,-3 v -4 l 6,-8 -1,-3 4,-3 v -4 l -10,-10 v -3 l 2,-2 h 3 l -1,-1 2,-4 h -2 l -1,-2 3,-5 -2,-8 4,-4 -1,-3 9,-12 -1,-7 -3,-4 -10,1 1,-3 h -5 l 2,-32 -3,-1 -2,-10 5,-14 -2,-2 -1,1 -2,-2 h -4 l -7,-9 6,-17 1,-7 4,-2 1,-4 h -4 l -13,-8 -6,-2 -9,2 -21,-6 -3,-3 h -5 v -2 l -6,-3 -7,1 -3,-3 h -4 l -9,-6 -13,-1 -3,-2 -2,-5 z m 102,87 1,-1 -1,2 z"
       id="path38"
       inkscape:connector-curvature="0"
       style="fill:#3f98d7;fill-opacity:0.3;fill-rule:evenodd;stroke:#2473ac;stroke-width:0.80000001;stroke-linecap:round;stroke-linejoin:round;stroke-opacity:1" />
    <path
       class="leaflet-interactive"
       d="m 943,580 -4,2 v 5 l -3,2 -9,13 v 9 l -2,7 2,7 -2,5 2,1 11,-14 v 2 l 3,3 h 6 l 2,-2 h 5 l -5,-1 v -2 l 2,-1 4,2 h 3 l -3,-1 2,-1 10,2 7,-7 v -9 l -2,-1 -2,2 h -4 l -2,-2 -5,-1 -12,-12 -3,-7 z"
       id="path40"
       inkscape:connector-curvature="0"
       style="fill:#3f98d7;fill-opacity:0.3;fill-rule:evenodd;stroke:#2473ac;stroke-width:0.80000001;stroke-linecap:round;stroke-linejoin:round;stroke-opacity:1" />
    <path
       class="leaflet-interactive"
       d="m 926,531 v -4 l -8,4 h -15 l -8,4 -3,4 5,7 9,5 5,5 1,4 6,6 1,3 3,-3 4,1 5,-3 h 5 l 3,-3 h -2 l -1,-2 1,-4 h -2 l -4,-4 -5,3 -4,-3 v -11 l 3,-8 z"
       id="path42"
       inkscape:connector-curvature="0"
       style="fill:#3f98d7;fill-opacity:0.3;fill-rule:evenodd;stroke:#2473ac;stroke-width:0.80000001;stroke-linecap:round;stroke-linejoin:round;stroke-opacity:1" />
    <path
       class="leaflet-interactive"
       d="m 893,587 -3,-6 v 10 l -1,1 -4,-2 -5,2 3,6 -2,4 8,11 8,-11 v 11 l 2,4 7,-3 3,-3 -1,-1 2,-3 1,-8 -10,3 -1,-4 4,-8 -4,-4 -7,2 z"
       id="path44"
       inkscape:connector-curvature="0"
       style="fill:#3f98d7;fill-opacity:0.3;fill-rule:evenodd;stroke:#2473ac;stroke-width:0.80000001;stroke-linecap:round;stroke-linejoin:round;stroke-opacity:1" />
    <path
       class="leaflet-interactive"
       d="m 1010,643 1,3 -1,2 -2,-4 -2,4 1,3 5,-2 1,3 3,-2 v -2 l 5,1 3,4 h 2 l -1,1 h 7 l 3,2 1,4 4,1 3,3 4,-2 5,5 -3,-2 15,-7 -5,-6 -7,-16 -6,-6 -27,-12 -2,-6 1,-2 -9,-3 -2,4 -4,3 1,2 -2,2 h -2 l -1,2 -4,-1 2,4 1,-1 3,2 -3,3 -3,-1 v 2 l 3,5 1,6 h 4 l 5,-3 3,3 v 4 z m -1,0 v -2 z m 0,0 h 1 z"
       id="path46"
       inkscape:connector-curvature="0"
       style="fill:#3f98d7;fill-opacity:0.3;fill-rule:evenodd;stroke:#2473ac;stroke-width:0.80000001;stroke-linecap:round;stroke-linejoin:round;stroke-opacity:1" />
    <path
       class="leaflet-interactive"
       d="m 959,517 1,-1 -2,-2 -4,3 h -4 l 1,5 9,9 v 4 l -3,1 v 5 l -6,7 v 5 l -3,3 h -2 v 2 l 4,3 1,5 3,2 5,-9 6,-4 v -2 l 3,-1 v -2 l 2,2 5,-4 v -5 l 9,4 4,-1 1,-3 -2,-5 1,-5 -2,-9 -2,-3 -4,2 h -7 l -2,-4 1,-1 -2,1 v -2 l -8,3 -4,-2 z"
       id="path48"
       inkscape:connector-curvature="0"
       style="fill:#3f98d7;fill-opacity:0.3;fill-rule:evenodd;stroke:#2473ac;stroke-width:0.80000001;stroke-linecap:round;stroke-linejoin:round;stroke-opacity:1" />
    <path
       class="leaflet-interactive"
       d="m 1151,668 -2,-4 -5,1 -9,15 -2,12 -2,2 -2,1 -1,-3 -4,3 -7,-1 -7,3 -1,-1 -11,5 1,1 -6,4 -3,-5 -6,4 v 4 l 3,4 4,2 v -2 l 5,1 9,6 9,9 h 4 l 2,-2 6,4 h 5 l 9,5 3,-6 -1,-5 h 4 l 1,-7 5,4 4,-3 1,-3 3,1 3,-3 -2,-12 1,-1 -2,-5 5,-3 2,-7 2,-1 -4,-11 1,-1 -4,-7 z"
       id="path50"
       inkscape:connector-curvature="0"
       style="fill:#3f98d7;fill-opacity:0.3;fill-rule:evenodd;stroke:#2473ac;stroke-width:0.80000001;stroke-linecap:round;stroke-linejoin:round;stroke-opacity:1" />
    <path
       class="leaflet-interactive"
       d="m 838,558 -11,-1 -6,2 h -24 l 1,1 -4,8 h 5 l -1,6 4,3 2,6 -2,5 2,18 4,2 9,1 1,3 -5,6 h -2 l -1,3 10,14 -2,2 1,3 1,-5 -2,-3 7,1 4,-1 3,-3 3,1 1,-9 3,-3 6,1 5,6 2,-1 -6,-6 -2,-14 h -2 v -5 l 2,-4 -1,-2 3,-1 -1,-12 -2,-4 3,-17 -2,1 -5,-2 z m -21,72 h -4 l -1,3 -5,1 -1,4 h 4 l 4,-4 1,2 h 4 l 1,-1 -3,-4 z m 2,11 -5,-6 v 2 z"
       id="path52"
       inkscape:connector-curvature="0"
       style="fill:#3f98d7;fill-opacity:0.3;fill-rule:evenodd;stroke:#2473ac;stroke-width:0.80000001;stroke-linecap:round;stroke-linejoin:round;stroke-opacity:1" />
    <path
       class="leaflet-interactive"
       d="m 1128,639 v -2 l -8,2 -3,3 h -7 l -3,-3 -6,-2 -4,3 -2,4 -1,-1 -2,2 h -16 l -4,3 1,1 -6,8 -10,4 -5,4 9,9 v 3 l 5,8 -1,1 2,-3 -1,3 4,7 3,-1 -3,1 2,3 h 4 l 2,5 6,7 v -3 l 6,-4 3,4 h 2 l 4,-3 -1,-1 10,-5 2,1 6,-3 h 15 l 2,-2 2,-11 6,-10 -1,-6 -6,-8 2,-8 3,-3 v -2 l -1,-2 -4,2 -2,-2 -3,1 z"
       id="path54"
       inkscape:connector-curvature="0"
       style="fill:#3f98d7;fill-opacity:0.3;fill-rule:evenodd;stroke:#2473ac;stroke-width:0.80000001;stroke-linecap:round;stroke-linejoin:round;stroke-opacity:1" />
    <path
       class="leaflet-interactive"
       d="m 1249,568 -2,-4 -1,5 5,6 v 5 l -3,-1 -2,6 1,-1 3,6 h 2 l -2,2 3,2 h -2 l 1,3 -4,4 2,-3 -1,-3 h -6 l -2,1 1,3 h -5 l -1,3 h 4 l -1,2 2,2 -5,-1 -1,4 3,1 -4,2 7,6 2,5 3,-1 1,-3 h 3 l -5,5 1,1 4,-2 -2,2 3,2 h -7 l 1,2 -2,1 v 3 l -4,5 11,10 h -2 l -5,-5 h -4 l -2,14 -2,3 v -4 l -2,-2 2,-2 v -9 l -3,-1 -6,3 2,-4 4,-3 3,1 1,-4 h 2 l 2,-5 -1,-4 h 2 l -1,-5 -4,-5 -3,1 -1,5 -2,-3 2,-1 -2,-2 h 2 l 1,-4 -1,-3 -4,4 1,-2 -3,-2 4,-3 -2,-2 h -4 v 4 l -1,-5 -4,2 1,2 -4,-3 -2,4 2,2 -3,-2 -4,4 4,-8 h -14 l -7,11 2,28 11,16 4,-2 1,1 -1,9 -12,12 -6,1 -9,5 -13,-1 -2,2 -2,7 -5,3 2,4 -2,2 2,1 1,10 -3,4 -3,-1 -1,3 -3,1 v 2 l -6,-4 -1,7 h -4 l 1,5 -3,6 3,1 6,6 5,2 3,1 1,-3 v 3 -3 l -1,3 -4,-3 2,-2 -1,-1 3,-1 14,8 -2,6 1,1 v -5 h 2 l 4,4 -4,3 -5,-1 5,3 5,1 1,-3 -1,3 3,-3 h 2 l 2,2 1,-1 6,2 6,-3 3,-6 h 5 v 4 l 8,-4 -3,-6 v -4 l -4,-3 6,-1 10,-11 v -19 l 6,-5 -1,-2 3,-10 -2,-4 8,-3 h 5 l 3,-3 11,-5 2,-6 4,1 2,-4 8,-3 3,-6 v -4 l 5,5 6,-11 9,-3 h 11 l 8,-4 v -2 l 2,14 -1,7 2,5 h 2 l 3,3 3,-1 6,-7 2,1 v -3 l 3,-1 1,-3 -2,-5 3,-5 5,-2 6,-9 4,-1 -1,-10 -9,-9 6,-14 v -9 l -2,-4 -11,5 -1,10 -4,2 v 2 l -4,2 -3,5 -17,12 h -2 v -2 l -4,-4 2,-6 -1,-1 -2,2 -1,-6 -1,1 -3,-2 2,-4 -7,-3 -1,1 -4,-4 v 8 l -2,3 5,4 -1,4 2,4 h -2 l 1,-3 -3,-6 -4,-1 -1,3 v -4 l 3,-4 -1,-6 -2,1 -5,11 -5,5 -2,5 3,-6 -1,-1 2,-1 2,-6 3,-2 1,-5 -5,-1 -1,3 v -3 h -2 v -2 l -3,-1 1,1 -2,4 v -5 l -2,-1 v 2 h -2 l -3,3 v -2 l 3,-2 h -4 l 3,-4 -6,-3 v -4 l 2,-2 -3,-1 2,-4 -3,-4 -1,3 -2,-4 h 2 z"
       id="path56"
       inkscape:connector-curvature="0"
       style="fill:#3f98d7;fill-opacity:0.3;fill-rule:evenodd;stroke:#2473ac;stroke-width:0.80000001;stroke-linecap:round;stroke-linejoin:round;stroke-opacity:1" />
    <path
       class="leaflet-interactive"
       d="m 1201,572 -6,-4 -3,1 -2,4 -8,6 -2,7 -5,5 h -10 l 1,2 -2,3 h -2 l 1,-1 -1,3 -5,-1 -1,4 -4,2 h -13 l -5,3 -12,-1 3,3 -6,2 5,12 -2,4 h 2 l -1,3 8,6 -4,2 1,5 h 4 l 2,2 4,-2 1,1 -4,8 -1,6 4,4 3,10 6,-7 h 2 l 1,3 3,1 7,-1 5,-4 v -4 l -4,-9 6,-9 2,-11 -1,-1 3,-4 2,-11 8,2 h 10 l 7,-9 v -2 l -1,1 -4,-2 3,2 2,-3 13,-1 -2,-6 4,5 3,-3 v 3 h 7 l 2,-1 -1,-3 2,3 h 2 l 2,-4 1,5 3,-1 -1,-1 2,-3 h 2 l -3,-3 5,2 -2,-2 1,1 3,-3 1,1 v -2 l 1,2 3,-1 -3,-5 h -2 l 1,-3 h 2 l -1,-2 -4,-2 h -6 4 l -2,-7 h -12 l -2,-2 -19,2 z"
       id="path58"
       inkscape:connector-curvature="0"
       style="fill:#3f98d7;fill-opacity:0.3;fill-rule:evenodd;stroke:#2473ac;stroke-width:0.80000001;stroke-linecap:round;stroke-linejoin:round;stroke-opacity:1" />
    <path
       class="leaflet-interactive"
       d="m 951,365 h -5 l -1,4 -4,2 -4,17 -3,6 3,6 5,4 h 4 l 2,2 1,-1 1,2 -2,8 -3,5 2,10 3,2 -2,32 h 5 l -1,2 2,1 8,-1 3,4 1,5 v 2 l -9,12 1,3 -4,4 2,8 -3,5 2,2 -1,4 1,1 3,-2 2,2 -2,2 3,2 5,-2 1,1 2,-2 1,2 2,-1 -1,1 2,4 h 8 l 2,-2 3,2 1,5 4,-9 3,-3 4,6 9,1 -7,5 13,3 2,6 h 7 l 1,3 2,-2 v -6 l -3,-5 4,-13 v -4 l -3,-1 h 5 l 7,-7 1,-3 -6,-6 -1,-4 -6,-4 2,-2 -2,-4 -13,-10 v -2 l 11,-8 h 4 l 3,-6 8,-3 3,-10 5,-5 6,-10 7,-6 h 3 l 4,-6 -4,-7 6,-9 v -4 l 1,4 v -4 l -2,-2 -1,1 -1,-1 2,-2 h -4 v -2 l -3,-1 v -2 l -4,3 1,-3 -4,-3 -1,2 -1,-4 -4,2 v -4 l -4,1 1,-3 -2,-2 -4,6 -1,-5 h -4 v 2 l -4,-4 -8,-2 -3,3 h -2 l -3,-3 1,3 -4,7 -8,2 -21,-3 -11,-5 -3,1 -6,-2 -2,-4 z m 0,85 5,-10 -1,-1 1,3 -3,7 z m 24,-18 1,-5 -2,7 v -2 z m -5,0 2,3 z m 8,10 2,-3 -1,3 z m -23,-18 1,-2 z m 3,34 -2,-3 1,-1 z"
       id="path60"
       inkscape:connector-curvature="0"
       style="fill:#3f98d7;fill-opacity:0.3;fill-rule:evenodd;stroke:#2473ac;stroke-width:0.80000001;stroke-linecap:round;stroke-linejoin:round;stroke-opacity:1" />
    <path
       class="leaflet-interactive"
       d="m 354,270 -3,-3 3,13 -2,6 -7,9 3,1 2,10 6,5 h -2 l -11,15 -8,6 -2,-2 -5,1 -5,-2 v 2 l -4,2 -4,-4 -3,4 h -2 l 1,8 -3,1 v 3 l -10,9 -2,7 -4,-1 -4,2 -6,6 -18,9 -9,9 -2,11 1,7 14,23 2,13 3,6 -4,5 v 3 l -3,1 1,3 h -3 l 1,4 h -21 l -5,9 2,11 -2,3 -3,14 1,7 -2,4 3,2 -3,1 2,4 -3,5 4,1 1,2 -2,10 3,3 -4,4 v 2 l 2,2 3,-1 2,6 -6,4 2,16 -3,6 h 5 l 1,3 3,-4 7,5 7,-1 v 5 l 2,3 4,-4 v 2 l 13,-8 6,1 14,-8 7,-6 34,-6 4,2 8,-7 17,-3 8,-3 h 19 l 14,3 6,-7 5,-1 8,1 3,3 -1,1 h 2 v 2 h -2 l -1,-1 7,3 7,6 h 23 l 13,3 3,2 13,1 h 5 l 4,-2 6,2 3,3 9,2 -1,-1 4,-1 15,5 2,-8 v -9 l -2,-5 2,-2 v -3 l -3,-4 4,-14 -3,-3 v -6 l -3,-8 v -12 l -4,-4 5,-1 -5,-13 3,-6 -3,-4 1,-6 -4,-4 -1,2 h -4 v -8 l -2,-3 h -2 l 5,-11 h 2 l -3,-4 h -2 l -1,-4 4,-1 5,-8 h -2 v -3 h -2 l -2,-4 -2,2 v -4 l -3,-1 -9,-9 -4,-13 1,-2 -3,-4 -10,2 -9,-5 1,-6 -5,-7 -3,-1 -1,-8 -3,-1 v -6 l -4,-1 7,-7 2,-6 3,-2 2,-9 5,-7 -10,-3 -14,6 -5,-7 -4,1 -3,-2 -4,-5 -2,-7 8,-9 v -4 l 4,-7 -8,-10 -3,3 -2,6 -10,1 -2,2 -4,-2 -5,3 h -7 l -3,-3 h -2 l -4,5 -1,4 -5,-8 -22,-10 -13,-4 -10,1 z"
       id="path62"
       inkscape:connector-curvature="0"
       style="fill:#3f98d7;fill-opacity:0.3;fill-rule:evenodd;stroke:#2473ac;stroke-width:0.80000001;stroke-linecap:round;stroke-linejoin:round;stroke-opacity:1" />
    <path
       class="leaflet-interactive"
       d="m 1182,616 -6,-2 -4,2 v 5 l -4,7 1,1 -3,10 1,1 -6,9 4,10 -2,8 6,17 h 16 l 3,-3 9,-2 12,-11 1,-10 -1,-1 -4,2 -11,-17 -2,-26 h -8 z"
       id="path64"
       inkscape:connector-curvature="0"
       style="fill:#3f98d7;fill-opacity:0.3;fill-rule:evenodd;stroke:#2473ac;stroke-width:0.80000001;stroke-linecap:round;stroke-linejoin:round;stroke-opacity:1" />
    <path
       class="leaflet-interactive"
       d="m 884,466 -2,-2 -6,5 -7,3 -5,8 h -2 l -1,2 1,8 -2,-2 -5,1 16,15 -1,6 3,2 8,16 11,12 8,-8 17,-1 9,-4 -3,-1 2,-6 -2,-2 3,-4 -3,-6 h -5 l -3,-8 -5,1 5,-2 -4,-4 -1,-6 -8,-4 -2,-7 -3,-1 -4,5 -2,-2 2,-5 -3,-4 -5,1 2,-5 -2,-1 z"
       id="path66"
       inkscape:connector-curvature="0"
       style="fill:#3f98d7;fill-opacity:0.3;fill-rule:evenodd;stroke:#2473ac;stroke-width:0.80000001;stroke-linecap:round;stroke-linejoin:round;stroke-opacity:1" />
    <path
       class="leaflet-interactive"
       d="m 1228,411 -3,-2 -3,6 2,1 1,6 -8,9 1,1 -2,10 3,3 -1,12 2,-2 v 5 l 3,3 -1,4 2,-2 h 6 l 1,-2 2,3 -1,1 3,3 -1,2 5,-1 3,3 v 4 l -2,3 2,-1 6,2 1,4 v 5 l -4,7 5,2 4,-3 4,3 2,2 2,12 5,2 2,4 6,2 1,2 -3,5 -1,-1 -5,4 3,3 4,1 1,3 v -2 l 3,1 -1,-1 -4,3 -1,-1 -2,2 1,3 h -2 v 2 l 3,-1 -3,3 h -3 l 2,3 h -2 l 1,5 h -2 l 2,2 -3,3 v 2 l 4,-2 v 4 h -2 l 1,1 -4,2 1,3 2,-2 v 2 h 2 v -2 l 2,2 4,-3 v 5 l -3,-1 -2,4 -3,-1 1,3 -4,-3 -4,1 -1,3 2,4 3,-1 -3,3 -1,-1 3,2 2,4 4,1 2,-2 1,3 2,-1 -1,-5 2,3 -1,3 h 2 v -4 l 1,6 h 2 l 1,-2 v 2 l 3,-3 1,-7 v 6 h 2 v 2 l 3,2 2,-3 v 4 l 1,-3 5,1 2,-6 3,-3 -2,-1 h 4 l 6,-5 h 2 v -3 l 5,-6 h 8 -7 l -5,5 -1,4 -7,6 h -2 l -1,2 3,6 -1,1 v -4 l -3,-2 -4,8 -4,-1 1,3 5,2 v 2 h -2 l -1,2 4,2 1,5 v -2 l 2,1 -3,7 3,1 3,5 18,-12 3,-5 9,-8 v -8 l 8,-3 1,-2 h 2 l 2,4 6,-7 -1,-3 h 2 v 2 l 1,-3 h 5 l 5,6 -1,2 3,4 1,-3 5,1 1,-4 4,2 2,-2 4,2 v -2 l 5,-3 9,7 4,-2 2,3 h 6 l 9,4 -2,7 4,8 -2,2 v 6 l 7,-5 1,6 v 10 l -4,4 1,7 h 4 l 6,3 v 2 l 9,5 h 10 l 1,2 h 5 v 4 l 4,2 5,-1 3,-3 1,2 h 2 l 6,-6 1,-8 4,-2 -2,-3 h 2 l 2,-5 7,-2 v -2 l 6,-7 5,-3 1,-5 -4,-2 -1,-4 -3,-1 -2,-3 2,-11 -1,-1 8,4 v -4 l 3,1 3,-3 2,-6 3,-2 3,1 v 6 l 2,-1 6,3 4,3 1,3 4,-1 5,3 8,-3 5,4 v 2 l 4,2 1,-1 2,2 -1,3 2,4 2,-7 2,-2 5,1 4,5 4,-1 2,2 1,-1 8,2 v -4 l 5,-5 3,1 5,-7 7,-3 1,-5 4,-3 v -2 l 6,1 3,-3 -1,-3 6,-2 4,-5 2,-6 9,-11 1,-6 4,-3 3,-5 7,-2 18,7 v -2 l 3,-3 v -8 l -4,-6 -18,3 -1,-2 h -6 l -3,-3 v -2 h 2 l -2,-2 -1,1 v -3 h 2 l -3,-10 h 2 v -2 l -3,1 3,-4 1,-12 -2,-3 3,-3 -16,-1 -16,4 -1,-3 -5,1 -2,-2 h -5 l -2,2 1,1 -4,2 -21,-5 -17,-10 -5,2 v -4 l -5,-2 h -4 v 2 l -1,-3 -6,-1 -7,1 -2,2 -2,-2 1,-2 h -2 v 2 l -6,-1 -8,5 -3,-2 -14,-2 -4,-3 v -2 h -6 l -2,2 h -11 l -3,-1 -2,-3 -9,1 -8,-3 -2,-4 -1,3 -5,-1 -2,-4 -2,1 v -2 h -4 v -4 h -4 v 2 l -3,-1 v -2 l -3,1 -3,-2 1,1 -1,-1 -4,3 3,-2 3,3 -5,1 1,1 -4,4 h -16 l -22,-5 -20,-7 h -6 l -16,-4 -24,-10 h -8 l -8,-4 -14,-4 -4,-3 h -5 l -8,-3 -1,-2 -4,2 -1,-1 -2,2 -5,-1 -4,2 h -9 l -2,-2 -3,1 -4,-3 z m 165,100 1,-3 3,-1 7,5 -2,2 1,6 2,2 -2,1 v 2 l 3,-1 v 2 l 4,2 v -2 l 1,4 h 2 l 2,-4 1,3 2,-4 2,4 3,-2 2,1 -4,1 1,4 9,5 h -2 l -4,-4 -5,-1 -3,-3 -3,6 2,2 2,-2 5,1 3,6 4,2 v 2 l 3,3 -6,-5 -3,3 1,-3 -2,-4 -3,3 h -2 l -1,6 -2,2 h -3 l -2,4 5,-1 1,7 2,-2 2,4 h 2 l 3,3 6,-4 2,8 -2,-2 -1,-5 -3,4 h -4 v -2 l -3,-1 -1,-3 h -4 l -2,2 2,-2 -1,-5 h -4 l -3,2 1,-3 h -6 l 5,-1 2,2 -2,-3 5,-6 h 4 l -1,-5 2,-2 h 3 v -2 l -5,1 -2,2 v -4 l -7,6 5,-6 -1,-1 2,-4 h -2 l -4,-4 h -2 l -3,4 v 2 h 2 l -1,1 -1,-1 -5,3 6,-9 -3,-3 v -4 l -5,2 v 2 l -2,1 1,3 -2,2 v -5 l 2,-4 6,-5 v -6 l -2,-2 -3,3 1,3 h -2 l -2,4 -4,2 h -7 2 v -2 l 4,1 4,-2 3,-4 -2,-4 z m 34,-67 v -2 z m -3,-3 z m 4,3 z"
       id="path68"
       inkscape:connector-curvature="0"
       style="fill:#3f98d7;fill-opacity:0.3;fill-rule:evenodd;stroke:#2473ac;stroke-width:0.80000001;stroke-linecap:round;stroke-linejoin:round;stroke-opacity:1" />
    <path
       class="leaflet-interactive"
       d="m 994,546 -6,-11 -2,-7 2,5 v 12 l -4,2 -8,-4 -1,6 -5,3 -2,-2 v 2 h -2 l -1,3 -6,4 -4,8 5,6 v 2 l 4,-1 6,5 1,-1 5,3 2,-1 2,-6 2,-3 h 2 l -2,-6 2,-2 1,-8 h 4 l 3,3 3,-9 -1,-2 z"
       id="path70"
       inkscape:connector-curvature="0"
       style="fill:#3f98d7;fill-opacity:0.3;fill-rule:evenodd;stroke:#2473ac;stroke-width:0.80000001;stroke-linecap:round;stroke-linejoin:round;stroke-opacity:1" />
    <path
       class="leaflet-interactive"
       d="m 1186,781 h 2 l 7,-8 -2,2 5,4 -3,2 -1,6 h -4 l -3,-2 -1,-3 1,5 -3,2 -1,3 h -3 l -1,3 -3,2 -2,-1 2,-3 -5,5 h -2 l 3,6 -2,2 1,3 5,-4 v -2 h -2 l 2,-2 8,-3 h 9 l 6,2 -2,-2 v -2 l 2,-1 10,5 2,-1 3,-6 h 4 l 13,8 7,-13 9,7 1,-1 v -8 l 5,-10 -6,-13 4,-5 -2,-2 1,-4 5,-4 4,-6 4,-2 9,-2 6,-4 7,1 -1,-7 2,-2 v -9 l 17,-1 12,-13 -3,-5 v 2 l -6,-2 -2,-10 1,-5 -3,-1 1,-2 -2,-2 5,-6 6,-4 2,-5 h 2 l -2,-5 v -21 l -1,2 -8,4 h -11 l -7,2 -6,7 -2,5 -5,-5 -2,10 -8,3 -3,4 -4,-1 -4,7 -9,4 -3,3 h -5 l -8,3 2,4 -3,9 1,3 -6,6 v 17 l -11,13 h -5 l 5,4 -1,2 3,7 -4,1 -3,3 -1,-4 h -4 l -4,5 1,1 -3,2 -2,-2 -1,2 3,7 v 4 h -5 v 4 l -2,3 -1,-1 1,1 -3,3 -4,-3 -3,-6 2,-2 1,-5 -5,10 3,3 -2,2 v -2 l 1,3 3,2 z m 0,0 v 1 z"
       id="path72"
       inkscape:connector-curvature="0"
       style="fill:#3f98d7;fill-opacity:0.3;fill-rule:evenodd;stroke:#2473ac;stroke-width:0.80000001;stroke-linecap:round;stroke-linejoin:round;stroke-opacity:1" />
    <path
       class="leaflet-interactive"
       d="m 1054,556 h -10 l 2,4 -2,5 3,1 v 6 l 3,8 -3,7 -4,2 -1,3 3,3 -1,5 5,10 5,1 6,7 8,5 13,-2 11,3 h 12 l 9,4 11,1 v -3 h -2 l 2,-3 -1,-4 -5,-9 6,-2 v -2 l -7,-2 -5,-10 -11,-9 -5,-2 h -7 l -4,2 v -8 l -1,-4 -3,-2 v -4 l -4,3 h -4 l -8,-9 -4,-2 -6,1 -2,-2 1,-1 z"
       id="path74"
       inkscape:connector-curvature="0"
       style="fill:#3f98d7;fill-opacity:0.3;fill-rule:evenodd;stroke:#2473ac;stroke-width:0.80000001;stroke-linecap:round;stroke-linejoin:round;stroke-opacity:1" />
    <path
       class="leaflet-interactive"
       d="m 1032,545 -2,-2 v 2 l -7,3 2,6 -4,5 v 13 l -27,19 -1,3 -1,-1 -4,3 1,5 2,2 -1,7 -2,-2 3,3 h -3 l 2,3 h 2 v 4 h 5 l 2,2 5,-4 -1,-1 2,-3 5,-5 h 2 l 6,3 -1,3 2,5 5,1 13,7 -1,-12 7,-4 5,-1 -4,-9 1,-5 -3,-3 v -2 l 5,-3 3,-7 -3,-7 v -7 l -3,-1 2,-4 -2,-4 -3,-1 z m -46,54 1,-1 z"
       id="path76"
       inkscape:connector-curvature="0"
       style="fill:#3f98d7;fill-opacity:0.3;fill-rule:evenodd;stroke:#2473ac;stroke-width:0.80000001;stroke-linecap:round;stroke-linejoin:round;stroke-opacity:1" />
    <path
       class="leaflet-interactive"
       d="m 920,588 -1,-1 -9,5 1,11 -3,7 1,1 -5,8 2,3 -2,6 v 10 l 1,-1 5,2 6,-3 3,-4 6,-2 2,-4 -2,-7 2,-8 -1,-5 5,-11 -3,-4 -2,4 -5,-7 z"
       id="path78"
       inkscape:connector-curvature="0"
       style="fill:#3f98d7;fill-opacity:0.3;fill-rule:evenodd;stroke:#2473ac;stroke-width:0.80000001;stroke-linecap:round;stroke-linejoin:round;stroke-opacity:1" />
  </g>
</svg>
