<?xml version="1.0" encoding="utf-8"?>
<!-- Generator: Adobe Illustrator 16.0.0, SVG Export Plug-In . SVG Version: 6.00 Build 0)  -->
<!DOCTYPE svg PUBLIC "-//W3C//DTD SVG 1.1//EN" "http://www.w3.org/Graphics/SVG/1.1/DTD/svg11.dtd">
<svg version="1.1"
	 id="svg8" xmlns:dc="http://purl.org/dc/elements/1.1/" xmlns:cc="http://creativecommons.org/ns#" xmlns:rdf="http://www.w3.org/1999/02/22-rdf-syntax-ns#" xmlns:svg="http://www.w3.org/2000/svg" xmlns:sodipodi="http://sodipodi.sourceforge.net/DTD/sodipodi-0.dtd" xmlns:inkscape="http://www.inkscape.org/namespaces/inkscape" sodipodi:docname="istanbul-ilceler.svg" inkscape:version="0.92.3 (2405546, 2018-03-11)"
	 xmlns="http://www.w3.org/2000/svg" xmlns:xlink="http://www.w3.org/1999/xlink" x="0px" y="0px" width="147.801px"
	 height="172.801px" viewBox="739 505.4 147.801 172.801" enable-background="new 739 505.4 147.801 172.801" xml:space="preserve">
<path id="path4585" inkscape:connector-curvature="0" fill="#3F98D7" fill-opacity="0.3" stroke="#2473AC" stroke-width="0.8" stroke-linecap="round" stroke-linejoin="round" d="
	M756.4,649.8h2l7-8l-2,2l5,4l-3,2l-1,6h-4l-3-2l-1-3l1,5l-3,2l-1,3h-3l-1,3l-3,2l-2-1l2-3l-5,5h-2l3,6l-2,2l1,3l5-4v-2h-2l2-2l8-3h9
	l6,2l-2-2v-2l2-1l10,5l2-1l3-6h4l13,8l7-13l9,7l1-1v-8l5-10l-6-13l4-5l-2-2l1-4l5-4l4-6l4-2l9-2l6-4l7,1l-1-7l2-2v-9l17-1l12-13
	l-3-5v2l-6-2l-2-10l1-5l-3-1l1-2l-2-2l5-6l6-4l2-5h2l-2-5v-21l-1,2l-8,4h-11l-7,2l-6,7l-2,5l-5-5l-2,10l-8,3l-3,4l-4-1l-4,7l-9,4
	l-3,3h-5l-8,3l2,4l-3,9l1,3l-6,6v17l-11,13h-5l5,4l-1,2l3,7l-4,1l-3,3l-1-4h-4l-4,5l1,1l-3,2l-2-2l-1,2l3,7v4h-5v4l-2,3l-1-1l1,1
	l-3,3l-4-3l-3-6l2-2l1-5l-5,10l3,3l-2,2v-2l1,3l3,2H756.4z M756.4,649.8v1V649.8z"/>
</svg>
