<?xml version="1.0" encoding="utf-8"?>
<!-- Generator: Adobe Illustrator 16.0.0, SVG Export Plug-In . SVG Version: 6.00 Build 0)  -->
<!DOCTYPE svg PUBLIC "-//W3C//DTD SVG 1.1//EN" "http://www.w3.org/Graphics/SVG/1.1/DTD/svg11.dtd">
<svg version="1.1"
	 id="svg8" xmlns:dc="http://purl.org/dc/elements/1.1/" xmlns:cc="http://creativecommons.org/ns#" xmlns:rdf="http://www.w3.org/1999/02/22-rdf-syntax-ns#" xmlns:svg="http://www.w3.org/2000/svg" xmlns:sodipodi="http://sodipodi.sourceforge.net/DTD/sodipodi-0.dtd" xmlns:inkscape="http://www.inkscape.org/namespaces/inkscape" sodipodi:docname="istanbul-ilceler.svg" inkscape:version="0.92.3 (2405546, 2018-03-11)"
	 xmlns="http://www.w3.org/2000/svg" xmlns:xlink="http://www.w3.org/1999/xlink" x="0px" y="0px" width="127.8px"
	 height="103.801px" viewBox="545.667 501.5 127.8 103.801" enable-background="new 545.667 501.5 127.8 103.801"
	 xml:space="preserve">
<path id="path4571" inkscape:connector-curvature="0" fill="#3F98D7" fill-opacity="0.3" stroke="#2473AC" stroke-width="0.8" stroke-linecap="round" stroke-linejoin="round" d="
	M628.066,505.9l-6-4l-3,1l-2,4l-8,6l-2,7l-5,5h-10l1,2l-2,3h-2l1-1l-1,3l-5-1l-1,4l-4,2h-13l-5,3l-12-1l3,3l-6,2l5,12l-2,4h2l-1,3
	l8,6l-4,2l1,5h4l2,2l4-2l1,1l-4,8l-1,6l4,4l3,10l6-7h2l1,3l3,1l7-1l5-4v-4l-4-9l6-9l2-11l-1-1l3-4l2-11l8,2h10l7-9v-2l-1,1l-4-2l3,2
	l2-3l13-1l-2-6l4,5l3-3v3h7l2-1l-1-3l2,3h2l2-4l1,5l3-1l-1-1l2-3h2l-3-3l5,2l-2-2l1,1l3-3l1,1v-2l1,2l3-1l-3-5h-2l1-3h2l-1-2l-4-2
	h-6h4l-2-7h-12l-2-2l-19,2H628.066z"/>
</svg>
