<?xml version="1.0" encoding="utf-8"?>
<!-- Generator: Adobe Illustrator 16.0.0, SVG Export Plug-In . SVG Version: 6.00 Build 0)  -->
<!DOCTYPE svg PUBLIC "-//W3C//DTD SVG 1.1//EN" "http://www.w3.org/Graphics/SVG/1.1/DTD/svg11.dtd">
<svg version="1.1"
	 id="svg8" xmlns:dc="http://purl.org/dc/elements/1.1/" xmlns:cc="http://creativecommons.org/ns#" xmlns:rdf="http://www.w3.org/1999/02/22-rdf-syntax-ns#" xmlns:svg="http://www.w3.org/2000/svg" xmlns:sodipodi="http://sodipodi.sourceforge.net/DTD/sodipodi-0.dtd" xmlns:inkscape="http://www.inkscape.org/namespaces/inkscape" sodipodi:docname="istanbul-ilceler.svg" inkscape:version="0.92.3 (2405546, 2018-03-11)"
	 xmlns="http://www.w3.org/2000/svg" xmlns:xlink="http://www.w3.org/1999/xlink" x="0px" y="0px" width="381.8px" height="512.8px"
	 viewBox="-1063.506 74.5 381.8 512.8" enable-background="new -1063.506 74.5 381.8 512.8" xml:space="preserve">
<path id="path4543" inkscape:connector-curvature="0" fill="#3F98D7" fill-opacity="0.3" stroke="#2473AC" stroke-width="0.8" stroke-linecap="round" stroke-linejoin="round" d="
	M-1002.105,78.9l-8-4l-4,2l-6,8h-2l-1,5h-2l-1,4l-3,1v2l4,1l1,3v4l-4,2l2,4l-1,3l-1,2l-3-1v2l4,4l-2,9l-11,12v-2l-3,1l-2,4l-3,2
	l-12,2l1,5l-4,6l1,4l4-1l8,7l5,8l6,2l2,4l-1,1l5,6l-1,9l2,7v8l-2,13l8,16l-5,2l-4,4l-5-1l-2,4l-1,14l-7,16v25l-7,16l-2,27l1,2l2-2
	l5,3l4-1v-2l5,2l5-1l3,2l1-2h3l10-12l2-5l4-2v-2h-3l-3-3l-2-10l-3-1l7-9l2-5l-3-13l1-1l2,3l6,2l9-1l35,14l5,9l5-10h2l3,3h6l6-3l4,2
	l2-2l9-1l3-6l4-3l7,9l-1,5h-2l-1,2v5l-8,9l1,7l9,7l2-1l3,2l3,5l14-6l10,3l-3,2l-2,4l-2,9l-3,3l1,2l-10,10l1,2l3-1v6l3,2l1,8l3,1l5,7
	l-2,4l1,2l9,5l10-2l1,3h2l-1,3l4,12l7,9l5,2l-1,3l1,1l2-2l6,8l-3,2v3l-2,2l-4,1l1,4l4,1l1,2l-7,11l4,4v8h4l1-2l5,4l-2,5l3,5l-3,5
	l5,13l-6,2l5,4v12l3,8v6l3,3l-3,7v8h2l2-5l1,1l4-2l6,3l4,5l4,2l7-4l6,3l1-1l8,7l7,2l5-1l2,1l6,11l3,1l10-2l5-4l2-4l5-2l1-3l3,2l4-3
	l-7-13l-6-17l11-5l5,4l8-2l2,1l-1,1l3,5l2,2l1-1l3-4l-1-1l6-11v-3l9-10l-2-9l-3-3l8-9l6-13l5-5l1-6v-16l-6-12l-4-26l-1,1l-1-3l-3-2
	l2-2v-12h-2l1-9l-11-4l-8,2l-3-5l-1-11l5-2v-8l4-9l-1-6l2-5h-2l-2-13l-2-3l-7-1l1,1l-2,3l-5,5l-2-1v-6l4-5v-5l-4-4l7,4l8,1l2-4l4-2
	l-6-12h2l4-6h4l-8-8l-15,1v-2l-6-3v-2l-2-1l1-3l-3-1l-4-5l-10-2l-3,3l1,1h-2l2,2h-2l-3-8l-7-3h-2v2h-3l-1,4l-5,6l-3-1l-2-4l4,1l7-10
	l-1-3l2-2l-4-2l4-3l2,3h4v4l4,2l2-4l1-11l-29-17l-9-3l-31-16l-5-4l-6-2l-61-35l-10-4l-4-4l-4-1l-4-4l-5-2l1-3l-2-2l-7-4l-1,1l-1-4
	l-8-3l-4-4v-2l-4-1l-1,2l-4-4l2-2l-9-9l-3-1l-4-8l-5-1l1-4l-5-1l-1-4h2l-5-5v-2l3-2l-4-5l-3,1l-3-3h-4v-4l-7-2L-1002.105,78.9z"/>
</svg>
