<?xml version="1.0" encoding="utf-8"?>
<!-- Generator: Adobe Illustrator 16.0.0, SVG Export Plug-In . SVG Version: 6.00 Build 0)  -->
<!DOCTYPE svg PUBLIC "-//W3C//DTD SVG 1.1//EN" "http://www.w3.org/Graphics/SVG/1.1/DTD/svg11.dtd">
<svg version="1.1"
	 id="svg8" xmlns:dc="http://purl.org/dc/elements/1.1/" xmlns:cc="http://creativecommons.org/ns#" xmlns:rdf="http://www.w3.org/1999/02/22-rdf-syntax-ns#" xmlns:svg="http://www.w3.org/2000/svg" xmlns:sodipodi="http://sodipodi.sourceforge.net/DTD/sodipodi-0.dtd" xmlns:inkscape="http://www.inkscape.org/namespaces/inkscape" sodipodi:docname="istanbul-ilceler.svg" inkscape:version="0.92.3 (2405546, 2018-03-11)"
	 xmlns="http://www.w3.org/2000/svg" xmlns:xlink="http://www.w3.org/1999/xlink" x="0px" y="0px" width="64.8px" height="83.801px"
	 viewBox="250.667 392 64.8 83.801" enable-background="new 250.667 392 64.8 83.801" xml:space="preserve">
<path id="path4589" inkscape:connector-curvature="0" fill="#3F98D7" fill-opacity="0.3" stroke="#2473AC" stroke-width="0.8" stroke-linecap="round" stroke-linejoin="round" d="
	M297.066,394.4l-2-2v2l-7,3l2,6l-4,5v13l-27,19l-1,3l-1-1l-4,3l1,5l2,2l-1,7l-2-2l3,3h-3l2,3h2v4h5l2,2l5-4l-1-1l2-3l5-5h2l6,3l-1,3
	l2,5l5,1l13,7l-1-12l7-4l5-1l-4-9l1-5l-3-3v-2l5-3l3-7l-3-7v-7l-3-1l2-4l-2-4l-3-1L297.066,394.4z M251.066,448.4l1-1L251.066,448.4
	z"/>
</svg>
