<?xml version="1.0" encoding="utf-8"?>
<!-- Generator: Adobe Illustrator 16.0.0, SVG Export Plug-In . SVG Version: 6.00 Build 0)  -->
<!DOCTYPE svg PUBLIC "-//W3C//DTD SVG 1.1//EN" "http://www.w3.org/Graphics/SVG/1.1/DTD/svg11.dtd">
<svg version="1.1"
	 id="svg8" xmlns:dc="http://purl.org/dc/elements/1.1/" xmlns:cc="http://creativecommons.org/ns#" xmlns:rdf="http://www.w3.org/1999/02/22-rdf-syntax-ns#" xmlns:svg="http://www.w3.org/2000/svg" xmlns:sodipodi="http://sodipodi.sourceforge.net/DTD/sodipodi-0.dtd" xmlns:inkscape="http://www.inkscape.org/namespaces/inkscape" sodipodi:docname="istanbul-ilceler.svg" inkscape:version="0.92.3 (2405546, 2018-03-11)"
	 xmlns="http://www.w3.org/2000/svg" xmlns:xlink="http://www.w3.org/1999/xlink" x="0px" y="0px" width="309.8px"
	 height="321.801px" viewBox="-1037.506 766.5 309.8 321.801" enable-background="new -1037.506 766.5 309.8 321.801"
	 xml:space="preserve">
<path id="path4575" inkscape:connector-curvature="0" fill="#3F98D7" fill-opacity="0.3" stroke="#2473AC" stroke-width="0.8" stroke-linecap="round" stroke-linejoin="round" d="
	M-917.106,769.9l-3-3l3,13l-2,6l-7,9l3,1l2,10l6,5h-2l-11,15l-8,6l-2-2l-5,1l-5-2v2l-4,2l-4-4l-3,4h-2l1,8l-3,1v3l-10,9l-2,7l-4-1
	l-4,2l-6,6l-18,9l-9,9l-2,11l1,7l14,23l2,13l3,6l-4,5v3l-3,1l1,3h-3l1,4h-21l-5,9l2,11l-2,3l-3,14l1,7l-2,4l3,2l-3,1l2,4l-3,5l4,1
	l1,2l-2,10l3,3l-4,4v2l2,2l3-1l2,6l-6,4l2,16l-3,6h5l1,3l3-4l7,5l7-1v5l2,3l4-4v2l13-8l6,1l14-8l7-6l34-6l4,2l8-7l17-3l8-3h19l14,3
	l6-7l5-1l8,1l3,3l-1,1h2v2h-2l-1-1l7,3l7,6h23l13,3l3,2l13,1h5l4-2l6,2l3,3l9,2l-1-1l4-1l15.001,5l2-8v-9l-2-5l2-2v-3l-3-4l4-14
	l-3-3v-6l-3-8v-12l-4-4l5-1l-5-13l3-6l-3-4l1-6l-4.001-4l-1,2h-4v-8l-2-3h-2l5-11h2l-3-4h-2l-1-4l4-1l5-8h-2v-3h-2l-2-4l-2,2v-4
	l-3-1l-9-9l-4-13l1-2l-3-4l-10,2l-9-5l1-6l-5-7l-3-1l-1-8l-3-1v-6l-4-1l7-7l2-6l3-2l2-9l5-7l-10-3l-14,6l-5-7l-4,1l-3-2l-4-5l-2-7
	l8-9v-4l4-7l-8-10l-3,3l-2,6l-10,1l-2,2l-4-2l-5,3h-7l-3-3h-2l-4,5l-1,4l-5-8l-22-10l-13-4l-10,1L-917.106,769.9z"/>
</svg>
