<?xml version="1.0" encoding="utf-8"?>
<!-- Generator: Adobe Illustrator 16.0.0, SVG Export Plug-In . SVG Version: 6.00 Build 0)  -->
<!DOCTYPE svg PUBLIC "-//W3C//DTD SVG 1.1//EN" "http://www.w3.org/Graphics/SVG/1.1/DTD/svg11.dtd">
<svg version="1.1"
	 id="svg8" xmlns:dc="http://purl.org/dc/elements/1.1/" xmlns:cc="http://creativecommons.org/ns#" xmlns:rdf="http://www.w3.org/1999/02/22-rdf-syntax-ns#" xmlns:svg="http://www.w3.org/2000/svg" xmlns:sodipodi="http://sodipodi.sourceforge.net/DTD/sodipodi-0.dtd" xmlns:inkscape="http://www.inkscape.org/namespaces/inkscape" sodipodi:docname="istanbul-ilceler.svg" inkscape:version="0.92.3 (2405546, 2018-03-11)"
	 xmlns="http://www.w3.org/2000/svg" xmlns:xlink="http://www.w3.org/1999/xlink" x="0px" y="0px" width="59.8px" height="96.801px"
	 viewBox="-396.5 852 59.8 96.801" enable-background="new -396.5 852 59.8 96.801" xml:space="preserve">
<path id="path4549" inkscape:connector-curvature="0" fill="#3F98D7" fill-opacity="0.3" stroke="#2473AC" stroke-width="0.8" stroke-linecap="round" stroke-linejoin="round" d="
	M-381.1,854.4l-2-2l1,2l-3,2l-3,8h-2l-6,16l5,15v12l-3,5l2,14l3,3l24,12l13,1l7,6h6v-5l2-4l-3-3v-2l2-1l1-4v-8l-7-4l-1-5l4-3v-2
	l-4-2l-1-4l-5-5v-2l6-2l-4-4l-8-2l-14-12l-2-8l-5-7l-1-4L-381.1,854.4z"/>
</svg>
