<?xml version="1.0" encoding="utf-8"?>
<!-- Generator: Adobe Illustrator 16.0.0, SVG Export Plug-In . SVG Version: 6.00 Build 0)  -->
<!DOCTYPE svg PUBLIC "-//W3C//DTD SVG 1.1//EN" "http://www.w3.org/Graphics/SVG/1.1/DTD/svg11.dtd">
<svg version="1.1"
	 id="svg8" xmlns:dc="http://purl.org/dc/elements/1.1/" xmlns:cc="http://creativecommons.org/ns#" xmlns:rdf="http://www.w3.org/1999/02/22-rdf-syntax-ns#" xmlns:svg="http://www.w3.org/2000/svg" xmlns:sodipodi="http://sodipodi.sourceforge.net/DTD/sodipodi-0.dtd" xmlns:inkscape="http://www.inkscape.org/namespaces/inkscape" sodipodi:docname="istanbul-ilceler.svg" inkscape:version="0.92.3 (2405546, 2018-03-11)"
	 xmlns="http://www.w3.org/2000/svg" xmlns:xlink="http://www.w3.org/1999/xlink" x="0px" y="0px" width="241.8px" height="309.8px"
	 viewBox="-634 74.5 241.8 309.8" enable-background="new -634 74.5 241.8 309.8" xml:space="preserve">
<path id="path4517" inkscape:connector-curvature="0" fill="#3F98D7" fill-opacity="0.3" stroke="#2473AC" stroke-width="0.8" stroke-linecap="round" stroke-linejoin="round" d="
	M-631.6,74.9l-2,5v9l6,1l2,2l9-1l7,3l3,3h2v2l3,3l-2,4l1-1l7,2l2-2v2l3,1l2-3l3-1l3,6h5l4-2l-3,4l2,1l2,6l6,5l1,3h6v7l1,2h4v7l1,1
	l2-2l3,4h6l2-2l10,20l4,4l10-4l7-8v2h2l-3,1l1,3l1-1l3,2l1-3l3,3l7-1l-1,3l-3-1l-4,2h-4l-7-3l-1,2l2,2l8,3l5,6l-2,1v3l-3-5l-5-2
	l-2,1l1,3h-4l-3,3l2-5l-1-1l-12-2l-11-9v-2l-3-3l4-3l-4-3v-2l-8,4l-4-3h-2l-3,3l-3-3l-5-1l-6,3l-4,5v2h2l4,6h4l-1,6h2l3,5l-2,2l-4-1
	l-4,7v-2h-2l1-12l-6-4l-3,1l-3,9l1,6l-4,8v9l-5,2l1,11l3,5l8-2l11,5l-1,7l2,2v11l-2,2l5,5l2,7l-1,8l3,5v5l6,11l-1,23l-2,3l-3,1
	l-5,12l-8,11l2,3l2,10l-8,7l-1,4l3,1l11-13h5l2,2l1-3l2,2v4l6,4l1,6l3,1v-5l3-3l1,1v3l6,8l9,18l1-6l3-1l-1-3l1,1l2-4l10,2l1,2l8-9
	l6-3l-2-2l7-11v-2l-2-1v-7l-1,1l-2-5l-11-8l2-1l-4-10l-4-2l3-2l-1-7l-4-11l-3,2l-1-1l2-3l-5-9l-2-8l2-2l4,12l3,4l2-1l2,8h3v6l3,4h-2
	v4l3,9l8,10l2,1l2-5l1,1l-1,7l3,7l4-3l-3,4l8,7h2v2l3,3l1-1l12,6l-1-4h5l3-15l2-3l-1-2l4,2l3-5l-3-4v-5h2v5l2,2l5-1v2h-4l-2,7l-5,1
	l1,2l5-1l6,3l3-1l5-5l7-4v-2l6-6l5,1l13,11l8,1l-2-3l2-3l-1-9l-2-3l1-6l-2-3l1-10l4-1l1-7l-3-4l2-5l-3-9l3-1l1-5l-11-14h-4l-3-3l1-4
	l-7-9v-10l-4-5l-1-4l-5-2l-3-9v-2l5-1v-3l3-5l3-20l3-7l-2-3l-12-5l-5-4h-6l-9-3l-1-2l-5-2l-2,2l-9-2l-26-14v-2h2l-2-2l1-1h-4v2l-3,3
	h-2l-9-3l-3-3h-9l-9-3l-35-19l-15-11l-19-7l-31-16L-631.6,74.9z"/>
</svg>
