<?xml version="1.0" encoding="utf-8"?>
<!-- Generator: Adobe Illustrator 16.0.0, SVG Export Plug-In . SVG Version: 6.00 Build 0)  -->
<!DOCTYPE svg PUBLIC "-//W3C//DTD SVG 1.1//EN" "http://www.w3.org/Graphics/SVG/1.1/DTD/svg11.dtd">
<svg version="1.1"
	 id="svg8" xmlns:dc="http://purl.org/dc/elements/1.1/" xmlns:cc="http://creativecommons.org/ns#" xmlns:rdf="http://www.w3.org/1999/02/22-rdf-syntax-ns#" xmlns:svg="http://www.w3.org/2000/svg" xmlns:sodipodi="http://sodipodi.sourceforge.net/DTD/sodipodi-0.dtd" xmlns:inkscape="http://www.inkscape.org/namespaces/inkscape" sodipodi:docname="istanbul-ilceler.svg" inkscape:version="0.92.3 (2405546, 2018-03-11)"
	 xmlns="http://www.w3.org/2000/svg" xmlns:xlink="http://www.w3.org/1999/xlink" x="0px" y="0px" width="82.8px" height="73.801px"
	 viewBox="270 553 82.8 73.801" enable-background="new 270 553 82.8 73.801" xml:space="preserve">
<path id="path4587" inkscape:connector-curvature="0" fill="#3F98D7" fill-opacity="0.3" stroke="#2473AC" stroke-width="0.8" stroke-linecap="round" stroke-linejoin="round" d="
	M282.399,553.4h-10l2,4l-2,5l3,1v6l3,8l-3,7l-4,2l-1,3l3,3l-1,5l5,10l5,1l6,7l8,5l13-2l11,3h12l9,4l11,1v-3h-2l2-3l-1-4l-5-9l6-2v-2
	l-7-2l-5-10l-11-9l-5-2h-7l-4,2v-8l-1-4l-3-2v-4l-4,3h-4l-8-9l-4-2l-6,1l-2-2l1-1V553.4z"/>
</svg>
