<?xml version="1.0" encoding="utf-8"?>
<!-- Generator: Adobe Illustrator 16.0.0, SVG Export Plug-In . SVG Version: 6.00 Build 0)  -->
<!DOCTYPE svg PUBLIC "-//W3C//DTD SVG 1.1//EN" "http://www.w3.org/Graphics/SVG/1.1/DTD/svg11.dtd">
<svg version="1.1"
	 id="svg8" xmlns:dc="http://purl.org/dc/elements/1.1/" xmlns:cc="http://creativecommons.org/ns#" xmlns:rdf="http://www.w3.org/1999/02/22-rdf-syntax-ns#" xmlns:svg="http://www.w3.org/2000/svg" xmlns:sodipodi="http://sodipodi.sourceforge.net/DTD/sodipodi-0.dtd" xmlns:inkscape="http://www.inkscape.org/namespaces/inkscape" sodipodi:docname="istanbul-ilceler.svg" inkscape:version="0.92.3 (2405546, 2018-03-11)"
	 xmlns="http://www.w3.org/2000/svg" xmlns:xlink="http://www.w3.org/1999/xlink" x="0px" y="0px" width="43.799px"
	 height="54.801px" viewBox="20.633 448 43.799 54.801" enable-background="new 20.633 448 43.799 54.801" xml:space="preserve">
<path id="path4561" inkscape:connector-curvature="0" fill="#3F98D7" fill-opacity="0.3" stroke="#2473AC" stroke-width="0.8" stroke-linecap="round" stroke-linejoin="round" d="
	M34.033,451.4l1-1l-2-2l-4,3h-4l1,5l9,9v4l-3,1v5l-6,7v5l-3,3h-2v2l4,3l1,5l3,2l5-9l6-4v-2l3-1v-2l2,2l5-4v-5l9,4l4-1l1-3l-2-5l1-5
	l-2-9l-2-3l-4,2h-7l-2-4l1-1l-2,1v-2l-8,3l-4-2L34.033,451.4z"/>
</svg>
