<?xml version="1.0" encoding="utf-8"?>
<!-- Generator: Adobe Illustrator 16.0.0, SVG Export Plug-In . SVG Version: 6.00 Build 0)  -->
<!DOCTYPE svg PUBLIC "-//W3C//DTD SVG 1.1//EN" "http://www.w3.org/Graphics/SVG/1.1/DTD/svg11.dtd">
<svg version="1.1"
	 id="svg8" xmlns:dc="http://purl.org/dc/elements/1.1/" xmlns:cc="http://creativecommons.org/ns#" xmlns:rdf="http://www.w3.org/1999/02/22-rdf-syntax-ns#" xmlns:svg="http://www.w3.org/2000/svg" xmlns:sodipodi="http://sodipodi.sourceforge.net/DTD/sodipodi-0.dtd" xmlns:inkscape="http://www.inkscape.org/namespaces/inkscape" sodipodi:docname="istanbul-ilceler.svg" inkscape:version="0.92.3 (2405546, 2018-03-11)"
	 xmlns="http://www.w3.org/2000/svg" xmlns:xlink="http://www.w3.org/1999/xlink" x="0px" y="0px" width="150.8px"
	 height="274.801px" viewBox="-323.36 74.5 150.8 274.801" enable-background="new -323.36 74.5 150.8 274.801"
	 xml:space="preserve">
<path id="path4551" inkscape:connector-curvature="0" fill="#3F98D7" fill-opacity="0.3" stroke="#2473AC" stroke-width="0.8" stroke-linecap="round" stroke-linejoin="round" d="
	M-302.959,81.9l-6-5v-2l-3,6l-1,12l-5,13v4l-5,1l4,11l4,1l5,9v12l7,7v5l8,4l4,8l3,1l1,3v5l-3,1l3,9l-2,5l3,4l-1,7h-4l-1,11l2,3l2,18
	l-2,2l3,4l7,0.999l3,2V234.9l9-10h2l9-7l5,4l-2,3l2,2l4-2l2,3l-2,7l2,1l4-5l3,1l3,8l5,1.999l6,8l2,1l5-2l-4,3v3.999l4,4l2-2l3,1l1,3
	l2-2l-2,3l1,5l-2,2l1,5l-2,2l3,5.999h-2l-4,10v11.999l3,3h3l2-3l4,1l3,3l-1,3l2,2.999l-1,3l-3-1l-8,4l-4-2v2l-4,2l6,8h-2v3l3,6.999
	l6,8l9-9l-1-3l4-3.999l-4-1l-3-9l3-4l5-2v-4l-2-1.999l5-1l4-3v-4l6-8l-1-2.999l3.999-3v-4l-9.999-9.999v-3l2-2h3l-1-1l2-4h-2l-1-2
	l3-5l-2-7.999l3.999-4l-0.999-3l8.999-11.999l-1-7l-3-4l-9.999,1l1-3h-5l2-32l-3-1l-2-10l5-14l-2-2l-1,1l-2-2h-4l-7-9l6-17l1-7l4-2
	l1-4h-4l-13-8l-6-2l-9,2l-21-6l-3-3h-5v-2l-6-3l-7,1l-3-3h-4l-9-6l-13-1l-3-2l-2-5L-302.959,81.9z M-200.959,168.9l1-1l-1,2V168.9z"
	/>
</svg>
