<?xml version="1.0" encoding="utf-8"?>
<!-- Generator: Adobe Illustrator 16.0.0, SVG Export Plug-In . SVG Version: 6.00 Build 0)  -->
<!DOCTYPE svg PUBLIC "-//W3C//DTD SVG 1.1//EN" "http://www.w3.org/Graphics/SVG/1.1/DTD/svg11.dtd">
<svg version="1.1"
	 id="svg8" xmlns:dc="http://purl.org/dc/elements/1.1/" xmlns:cc="http://creativecommons.org/ns#" xmlns:rdf="http://www.w3.org/1999/02/22-rdf-syntax-ns#" xmlns:svg="http://www.w3.org/2000/svg" xmlns:sodipodi="http://sodipodi.sourceforge.net/DTD/sodipodi-0.dtd" xmlns:inkscape="http://www.inkscape.org/namespaces/inkscape" sodipodi:docname="istanbul-ilceler.svg" inkscape:version="0.92.3 (2405546, 2018-03-11)"
	 xmlns="http://www.w3.org/2000/svg" xmlns:xlink="http://www.w3.org/1999/xlink" x="0px" y="0px" width="212.8px"
	 height="195.801px" viewBox="554 722.333 212.8 195.801" enable-background="new 554 722.333 212.8 195.801" xml:space="preserve">
<path id="path4569" inkscape:connector-curvature="0" fill="#3F98D7" fill-opacity="0.3" stroke="#2473AC" stroke-width="0.8" stroke-linecap="round" stroke-linejoin="round" d="
	M663.399,726.733l-2-4l-1,5l5,6v5l-3-1l-2,6l1-1l3,6h2l-2,2l3,2h-2l1,3l-4,4l2-3l-1-3h-6l-2,1l1,3h-5l-1,3h4l-1,2l2,2l-5-1l-1,4l3,1
	l-4,2l7,6l2,5l3-1l1-3h3l-5,5l1,1l4-2l-2,2l3,2h-7l1,2l-2,1v3l-4,5l11,10h-2l-5-5h-4l-2,14l-2,3v-4l-2-2l2-2v-9l-3-1l-6,3l2-4l4-3
	l3,1l1-4h2l2-5l-1-4h2l-1-5l-4-5l-3,1l-1,5l-2-3l2-1l-2-2h2l1-4l-1-3l-4,4l1-2l-3-2l4-3l-2-2h-4v4l-1-5l-4,2l1,2l-4-3l-2,4l2,2l-3-2
	l-4,4l4-8h-14l-7,11l2,28l11,16l4-2l1,1l-1,9l-12,12l-6,1l-9,5l-13-1l-2,2l-2,7l-5,3l2,4l-2,2l2,1l1,10l-3,4l-3-1l-1,3l-3,1v2l-6-4
	l-1,7h-4l1,5l-3,6l3,1l6,6l5,2l3,1l1-3v3v-3l-1,3l-4-3l2-2l-1-1l3-1l14,8l-2,6l1,1v-5h2l4,4l-4,3l-5-1l5,3l5,1l1-3l-1,3l3-3h2l2,2
	l1-1l6,2l6-3l3-6h5v4l8-4l-3-6v-4l-4-3l6-1l10-11v-19l6-5l-1-2l3-10l-2-4l8-3h5l3-3l11-5l2-6l4,1l2-4l8-3l3-6v-4l5,5l6-11l9-3h11
	l8-4v-2l2,14l-1,7l2,5h2l3,3l3-1l6-7l2,1v-3l3-1l1-3l-2-5l3-5l5-2l6-9l4-1l-1-10l-9-9l6-14v-9l-2-4l-11,5l-1,10l-4,2v2l-4,2l-3,5
	l-17,12h-2v-2l-4-4l2-6l-1-1l-2,2l-1-6l-1,1l-3-2l2-4l-7-3l-1,1l-4-4v8l-2,3l5,4l-1,4l2,4h-2l1-3l-3-6l-4-1l-1,3v-4l3-4l-1-6l-2,1
	l-5,11l-5,5l-2,5l3-6l-1-1l2-1l2-6l3-2l1-5l-5-1l-1,3v-3h-2v-2l-3-1l1,1l-2,4v-5l-2-1v2h-2l-3,3v-2l3-2h-4l3-4l-6-3v-4l2-2l-3-1l2-4
	l-3-4l-1,3l-2-4h2L663.399,726.733z"/>
</svg>
