<?xml version="1.0" encoding="utf-8"?>
<!-- Generator: Adobe Illustrator 16.0.0, SVG Export Plug-In . SVG Version: 6.00 Build 0)  -->
<!DOCTYPE svg PUBLIC "-//W3C//DTD SVG 1.1//EN" "http://www.w3.org/Graphics/SVG/1.1/DTD/svg11.dtd">
<svg version="1.1"
	 id="svg8" xmlns:dc="http://purl.org/dc/elements/1.1/" xmlns:cc="http://creativecommons.org/ns#" xmlns:rdf="http://www.w3.org/1999/02/22-rdf-syntax-ns#" xmlns:svg="http://www.w3.org/2000/svg" xmlns:sodipodi="http://sodipodi.sourceforge.net/DTD/sodipodi-0.dtd" xmlns:inkscape="http://www.inkscape.org/namespaces/inkscape" sodipodi:docname="istanbul-ilceler.svg" inkscape:version="0.92.3 (2405546, 2018-03-11)"
	 xmlns="http://www.w3.org/2000/svg" xmlns:xlink="http://www.w3.org/1999/xlink" x="0px" y="0px" width="69.8px" height="60.801px"
	 viewBox="105.221 663.4 69.8 60.801" enable-background="new 105.221 663.4 69.8 60.801" xml:space="preserve">
<path id="path4559" inkscape:connector-curvature="0" fill="#3F98D7" fill-opacity="0.3" stroke="#2473AC" stroke-width="0.8" stroke-linecap="round" stroke-linejoin="round" d="
	M120.621,699.8l1,3l-1,2l-2-4l-2,4l1,3l5-2l1,3l3-2v-2l5,1l3,4h2l-1,1h7l3,2l1,4l4,1l3,3l4-2l5,5l-3-2l15-7l-5-6l-7-16l-6-6l-27-12
	l-2-6l1-2l-9-3l-2,4l-4,3l1,2l-2,2h-2l-1,2l-4-1l2,4l1-1l3,2l-3,3l-3-1v2l3,5l1,6h4l5-3l3,3v4H120.621z M119.621,699.8v-2V699.8z
	 M119.621,699.8h1H119.621z"/>
</svg>
