<?xml version="1.0" encoding="utf-8"?>
<!-- Generator: Adobe Illustrator 16.0.0, SVG Export Plug-In . SVG Version: 6.00 Build 0)  -->
<!DOCTYPE svg PUBLIC "-//W3C//DTD SVG 1.1//EN" "http://www.w3.org/Graphics/SVG/1.1/DTD/svg11.dtd">
<svg version="1.1" id="Layer_1" xmlns="http://www.w3.org/2000/svg" xmlns:xlink="http://www.w3.org/1999/xlink" x="0px" y="0px"
	 width="708.653px" height="899.624px" viewBox="0 0 708.653 899.624" enable-background="new 0 0 708.653 899.624"
	 xml:space="preserve">
<g>
	<defs>
		<rect id="SVGID_1_" x="-354.335" y="-258.85" width="1417.323" height="1417.323"/>
	</defs>
	<clipPath id="SVGID_2_">
		<use xlink:href="#SVGID_1_"  overflow="visible"/>
	</clipPath>
	<path clip-path="url(#SVGID_2_)" fill-rule="evenodd" clip-rule="evenodd" fill="#FFFFFF" d="M355.917,651.601
		c134.911,0,233.575-104.401,233.575-233.407V1.509H526.93v33.806H485V1.509h-63.587v33.806h-35.722V1.509h-63.62v33.806h-35.453
		V1.509h-64.27v33.806h-39.373V1.509h-63.796v416.685C119.179,547.199,221.599,651.601,355.917,651.601"/>
	<path clip-path="url(#SVGID_2_)" fill="#FDC600" d="M355.917,653.121c-133.569,0-238.216-103.178-238.216-234.927V0h66.681v33.917
		h36.508V0h67.126v33.917h32.597V0h66.473v33.917h32.835V0h66.541v33.917h39.068V0h65.417v418.194
		c0,63.394-23.692,122.432-66.632,166.138C480.743,628.708,420.85,653.121,355.917,653.121 M120.578,2.955v415.239
		c0,130.071,103.388,231.948,235.338,231.948c130.188,0,232.174-101.877,232.174-231.948V2.955h-59.704v33.879h-44.733V2.955
		h-60.857v33.879h-38.591V2.955h-60.82v33.879h-38.231V2.955h-61.347v33.879h-42.218V2.955H120.578z"/>
	<path clip-path="url(#SVGID_2_)" fill-rule="evenodd" clip-rule="evenodd" fill="#0D93D2" d="M577.89,13.856v401.176
		c0,122.827-97.559,222.599-217.596,222.599h-10.061c-120.086,0-217.358-99.772-217.358-222.599V13.856h37.7v33.516h65.39V13.856
		h38.199v33.516h61.174V13.856h38.236v33.516h61.215V13.856H473v33.516h66.994V13.856H577.89z"/>
	<path clip-path="url(#SVGID_2_)" fill="#0D93D2" d="M277.438,464.896c0-44.102,34.892-79.734,77.978-79.734
		c42.987,0,77.918,35.632,77.918,79.734c0,44.026-34.931,79.738-77.918,79.738C312.33,544.634,277.438,508.922,277.438,464.896"/>
	<path clip-path="url(#SVGID_2_)" fill="#FFCC00" d="M306.97,464.896c0-27.311,21.675-49.46,48.446-49.46
		c26.651,0,48.295,22.149,48.295,49.46c0,27.318-21.644,49.495-48.295,49.495C328.645,514.391,306.97,492.214,306.97,464.896"/>
	<path clip-path="url(#SVGID_2_)" fill-rule="evenodd" clip-rule="evenodd" d="M383.933,514.436
		c0.35-8.995,5.176-11.153,11.052-11.153c5.924,0,10.792,2.158,11.1,11.153h10.146c-0.604-23.318-27.727-38.433-60.912-38.433
		c-33.248,0-60.107,15.114-60.817,38.433h10.248c0.36-8.995,5.17-11.153,11.082-11.153c5.844,0,10.756,2.158,11.212,11.153
		c0,0,9.841,0.367,9.841,0c0-13.952,8.252-28.658,18.434-28.658c10.14,0,18.438,13.892,18.438,27.884v0.774H383.933z"/>
	<path clip-path="url(#SVGID_2_)" fill="#FFFFFF" d="M355.416,545.44c-43.421,0-78.736-36.153-78.736-80.545
		c0-44.407,35.315-80.501,78.736-80.501c43.38,0,78.728,36.095,78.728,80.501C434.143,509.287,398.795,545.44,355.416,545.44
		 M355.416,385.923c-42.633,0-77.165,35.393-77.165,78.973c0,43.544,34.532,78.932,77.165,78.932
		c42.527,0,77.17-35.388,77.17-78.932C432.585,421.316,397.943,385.923,355.416,385.923"/>
	<polygon clip-path="url(#SVGID_2_)" fill-rule="evenodd" clip-rule="evenodd" fill="#FDC600" points="256.998,96.648 
		265.577,96.648 265.577,166.987 256.998,174.588 	"/>
	<path clip-path="url(#SVGID_2_)" fill="#0D93D2" d="M256.699,175.19V96.343h9.141v70.741l-0.103,0.098L256.699,175.19z
		 M257.251,96.896v77.049l8.032-7.117V96.896H257.251z"/>
	<polygon clip-path="url(#SVGID_2_)" fill-rule="evenodd" clip-rule="evenodd" fill="#FDC600" points="249.563,96.648 
		240.734,96.648 240.734,129.604 249.563,144.05 	"/>
	<path clip-path="url(#SVGID_2_)" fill="#0D93D2" d="M249.814,145.063l-9.421-15.353V96.344h9.421V145.063z M240.988,129.563
		l8.228,13.461V96.896h-8.228V129.563z"/>
	<polygon clip-path="url(#SVGID_2_)" fill-rule="evenodd" clip-rule="evenodd" fill="#FFCC00" points="223.607,96.648 
		232.491,96.648 232.491,129.604 223.607,144.05 	"/>
	<path clip-path="url(#SVGID_2_)" fill="#FFCC00" d="M223.353,145.063v-48.72h9.394v33.367l-0.099,0.07L223.353,145.063z
		 M223.9,96.896v46.129l8.235-13.461V96.896H223.9z"/>
	<polygon clip-path="url(#SVGID_2_)" fill-rule="evenodd" clip-rule="evenodd" fill="#FFCC00" points="217.093,96.648 
		208.502,96.648 208.502,166.987 217.093,174.588 	"/>
	<path clip-path="url(#SVGID_2_)" fill="#FFCC00" d="M217.323,175.19l-9.125-8.106V96.344h9.125V175.19z M208.729,166.828
		l8.047,7.117V96.896h-8.047V166.828z"/>
	<path clip-path="url(#SVGID_2_)" fill-rule="evenodd" clip-rule="evenodd" fill="#FFCC00" d="M237.002,195.861
		c8.292-4.68,11.149-30.974,11.149-30.974c0-17.163-11.149-30.282-11.149-30.282s-10.834,13.119-10.834,30.282
		C226.168,164.887,228.728,191.181,237.002,195.861"/>
	<path clip-path="url(#SVGID_2_)" fill-rule="evenodd" clip-rule="evenodd" fill="#FFCC00" d="M264.737,181.818v15.491
		c0,0,0.84,9.581-8.856,19.218c-9.724,9.607-16.497,14.905-16.497,14.905v-17.816c0,0,0-7.595,5.91-14.586
		c5.99-7.019,17.39-17.212,17.39-17.212H264.737z"/>
	<path clip-path="url(#SVGID_2_)" fill-rule="evenodd" clip-rule="evenodd" fill="#FFCC00" d="M208.502,181.818v15.491
		c0,0-0.87,9.581,8.82,19.218c9.642,9.607,16.524,14.905,16.524,14.905v-17.816c0,0-0.233-7.595-6.281-14.586
		c-5.967-7.019-17.052-17.212-17.052-17.212H208.502z"/>
	<path clip-path="url(#SVGID_2_)" fill-rule="evenodd" clip-rule="evenodd" fill="#FFCC00" d="M264.737,222.47v15.166
		c0,0,0.84,9.927-8.856,19.294c-9.724,9.631-16.497,15.133-16.497,15.133v-17.792c0,0,0-7.596,5.91-14.556
		c5.99-7.318,17.39-17.245,17.39-17.245H264.737z"/>
	<path clip-path="url(#SVGID_2_)" fill-rule="evenodd" clip-rule="evenodd" fill="#FFCC00" d="M208.502,222.47v15.166
		c0,0-0.87,9.927,8.82,19.294c9.642,9.631,16.524,15.133,16.524,15.133v-17.792c0,0-0.233-7.596-6.281-14.556
		c-5.967-7.318-17.052-17.245-17.052-17.245H208.502z"/>
	<rect x="233.614" y="280.969" clip-path="url(#SVGID_2_)" fill="#FFCC00" width="6.957" height="39.157"/>
	<rect x="170.428" y="351.563" clip-path="url(#SVGID_2_)" fill="#FFCC00" width="7.09" height="122.795"/>
	<polygon clip-path="url(#SVGID_2_)" fill-rule="evenodd" clip-rule="evenodd" fill="#FFCC00" points="193.725,96.648 
		202.479,96.648 202.479,195.269 193.725,202.844 	"/>
	<path clip-path="url(#SVGID_2_)" fill="#FFCC00" d="M193.344,203.468V96.343h9.424v99.025l-0.157,0.119L193.344,203.468z
		 M193.984,96.896v105.308l8.174-7.093V96.896H193.984z"/>
	<polygon clip-path="url(#SVGID_2_)" fill-rule="evenodd" clip-rule="evenodd" fill="#FFCC00" points="186.547,96.648 
		177.715,96.648 177.715,157.886 186.547,172.382 	"/>
	<path clip-path="url(#SVGID_2_)" fill="#FFCC00" d="M186.803,173.329l-9.382-15.305V96.343h9.382V173.329z M177.977,157.856
		l8.229,13.465V96.896h-8.229V157.856z"/>
	<polygon clip-path="url(#SVGID_2_)" fill-rule="evenodd" clip-rule="evenodd" fill="#FFCC00" points="160.596,96.648 
		169.389,96.648 169.389,157.886 160.596,172.382 	"/>
	<path clip-path="url(#SVGID_2_)" fill="#FFCC00" d="M160.306,173.377V96.343h9.373v61.681l-0.037,0.089L160.306,173.377z
		 M160.787,96.896v74.425l8.295-13.465v-60.96H160.787z"/>
	<polygon clip-path="url(#SVGID_2_)" fill-rule="evenodd" clip-rule="evenodd" fill="#FFCC00" points="153.962,96.648 
		145.133,96.648 145.133,195.269 153.962,202.844 	"/>
	<path clip-path="url(#SVGID_2_)" fill="#FFCC00" d="M154.258,203.468l-9.433-8.1V96.344h9.433V203.468z M145.441,195.111
		l8.316,7.093V96.896h-8.316V195.111z"/>
	<path clip-path="url(#SVGID_2_)" fill-rule="evenodd" clip-rule="evenodd" fill="#FFCC00" d="M173.701,223.572
		c8.247-4.697,11.351-31.217,11.351-31.217c0-16.94-11.122-30.008-11.122-30.008s-11.063,13.068-11.063,30.008
		C162.867,192.355,165.406,218.875,173.701,223.572"/>
	<path clip-path="url(#SVGID_2_)" fill-rule="evenodd" clip-rule="evenodd" fill="#FFCC00" d="M201.371,209.214v15.524
		c0,0,0.788,9.608-8.899,19.221c-9.684,9.654-16.466,14.872-16.466,14.872v-17.767c0,0,0.214-7.587,6.238-14.614
		c6.01-6.974,17.415-17.236,17.415-17.236H201.371z"/>
	<path clip-path="url(#SVGID_2_)" fill-rule="evenodd" clip-rule="evenodd" fill="#FFCC00" d="M145.441,209.214v15.524
		c0,0-1.108,9.608,8.521,19.221c9.69,9.654,16.829,14.872,16.829,14.872v-17.767c0,0-0.215-7.587-6.233-14.614
		c-6.024-6.974-17.366-17.236-17.366-17.236H145.441z"/>
	<path clip-path="url(#SVGID_2_)" fill-rule="evenodd" clip-rule="evenodd" fill="#FFCC00" d="M201.371,249.612v15.477
		c0,0,0.788,9.574-8.899,19.256c-9.684,9.317-16.466,14.549-16.466,14.549v-17.453c0,0,0.214-7.621,6.238-14.625
		c6.01-7.029,17.415-17.204,17.415-17.204H201.371z"/>
	<path clip-path="url(#SVGID_2_)" fill-rule="evenodd" clip-rule="evenodd" fill="#FFCC00" d="M145.441,249.612v15.477
		c0,0-1.108,9.574,8.521,19.256c9.69,9.317,16.829,14.549,16.829,14.549v-17.453c0,0-0.215-7.621-6.233-14.625
		c-6.024-7.029-17.366-17.204-17.366-17.204H145.441z"/>
	<path clip-path="url(#SVGID_2_)" fill-rule="evenodd" clip-rule="evenodd" fill="#FFCC00" d="M201.371,290.629v15.179
		c0,0,0.788,9.58-8.899,19.211c-9.684,9.632-16.466,15.216-16.466,15.216v-18.069c0,0,0.214-7.339,6.238-14.648
		c6.01-6.971,17.415-16.889,17.415-16.889H201.371z"/>
	<path clip-path="url(#SVGID_2_)" fill-rule="evenodd" clip-rule="evenodd" fill="#FFCC00" d="M145.441,290.629v15.179
		c0,0-1.108,9.58,8.521,19.211c9.69,9.632,16.829,15.216,16.829,15.216v-18.069c0,0-0.215-7.339-6.233-14.648
		c-6.024-6.971-17.366-16.889-17.366-16.889H145.441z"/>
	<polygon clip-path="url(#SVGID_2_)" fill-rule="evenodd" clip-rule="evenodd" fill="#0D93D2" points="428.218,241.153 
		411.702,241.153 411.702,171.458 	"/>
	<polygon clip-path="url(#SVGID_2_)" fill-rule="evenodd" clip-rule="evenodd" fill="#0D93D2" points="390.866,241.153 
		407.698,241.153 407.698,171.458 	"/>
	<path clip-path="url(#SVGID_2_)" fill-rule="evenodd" clip-rule="evenodd" fill="#FFCC00" d="M356.26,317.723
		c0.411,2.557-6.709,13.306-17.923,27.239c-11.037,15.185-3.955,32.52,15.163,32.52c24.447,0,25.359-17.334,18.602-30.934
		C366.762,335.132,359.432,325.687,356.26,317.723"/>
	<path clip-path="url(#SVGID_2_)" fill-rule="evenodd" clip-rule="evenodd" fill="#FFCC00" d="M411.598,329.756
		c-0.556,2.591-11.1,9.189-26.91,17.383c-16.372,9.188-16.929,27.871,0.688,36.022c22.242,10.133,29.942-5.34,29.332-21.15
		C414.365,349.986,411.291,338.307,411.598,329.756"/>
	<path clip-path="url(#SVGID_2_)" fill-rule="evenodd" clip-rule="evenodd" fill="#FFCC00" d="M457.062,357.902
		c-1.588,2.245-13.643,5.38-31.301,8.242c-18.143,3.822-24.659,21.491-10.134,34.792c17.912,16.675,30.256,4.395,34.326-10.772
		C453.318,378.171,453.976,366.144,457.062,357.902"/>
	<path clip-path="url(#SVGID_2_)" fill-rule="evenodd" clip-rule="evenodd" fill="#FFCC00" d="M489.179,407.883
		c-2.211,1.25-14.525-0.672-31.537-5.36c-18.541-4.453-31.229,9.162-23.408,27.133c9.856,22.747,25.908,16.724,35.813,4.449
		C477.663,424.606,483.297,414.126,489.179,407.883"/>
	<path clip-path="url(#SVGID_2_)" fill-rule="evenodd" clip-rule="evenodd" fill="#FFCC00" d="M499.355,459.033
		c-2.446,0.957-13.896-4.795-29.066-13.599c-16.662-8.813-32.443,0.947-29.611,20.239c3.962,24.68,21.041,23.063,33.349,13.57
		C484.148,472.316,491.927,463.534,499.355,459.033"/>
	<path clip-path="url(#SVGID_2_)" fill-rule="evenodd" clip-rule="evenodd" fill="#FFCC00" d="M488.817,520.032
		c-2.404-0.583-9.53-11.364-18.228-27.199c-9.529-16.447-28.082-16.447-35.245,1.933c-9.239,23.052,6.222,30.681,21.718,29.327
		C469.092,523.185,480.181,520.032,488.817,520.032"/>
	<path clip-path="url(#SVGID_2_)" fill-rule="evenodd" clip-rule="evenodd" fill="#FFCC00" d="M464.159,563.995
		c-2.187-1.24-7.097-13.335-12.091-30.343c-6.185-18.041-24.356-22.158-34.895-5.722c-13.915,20.591-0.296,31.256,15.11,33.21
		C444.404,563.011,456.138,562.064,464.159,563.995"/>
	<path clip-path="url(#SVGID_2_)" fill-rule="evenodd" clip-rule="evenodd" fill="#FFCC00" d="M414.111,598.751
		c-1.552-2.248-0.35-14.885,3.063-32.592c2.748-18.923-11.089-30.92-28.113-21.782c-21.603,11.69-14.482,27.525-1.914,36.647
		C396.778,588.324,407.619,593.049,414.111,598.751"/>
	<path clip-path="url(#SVGID_2_)" fill-rule="evenodd" clip-rule="evenodd" fill="#FFCC00" d="M352.601,612.045
		c-0.302-2.865,6.479-13.294,17.629-27.545c11.401-15.186,4.348-32.854-14.815-32.854c-24.396,0-25.36,17.668-18.581,31.581
		C342.061,594.349,349.551,603.815,352.601,612.045"/>
	<path clip-path="url(#SVGID_2_)" fill-rule="evenodd" clip-rule="evenodd" fill="#FFCC00" d="M298.47,329.756
		c1.006,2.591,11.541,9.189,27.222,17.383c16.37,9.188,16.973,27.871-0.604,36.022c-22.261,10.133-30.239-5.34-29.372-21.15
		C296.115,349.986,298.865,338.307,298.47,329.756"/>
	<path clip-path="url(#SVGID_2_)" fill-rule="evenodd" clip-rule="evenodd" fill="#FFCC00" d="M253.719,357.902
		c1.519,2.245,13.625,5.38,31.196,8.242c17.912,3.822,24.169,21.491,9.935,34.792c-17.961,16.675-30.076,4.395-33.983-10.772
		C257.448,378.171,256.795,366.144,253.719,357.902"/>
	<path clip-path="url(#SVGID_2_)" fill-rule="evenodd" clip-rule="evenodd" fill="#FFCC00" d="M221.599,407.883
		c2.168,1.25,14.558-0.672,31.486-5.36c18.275-4.453,31.232,9.162,23.248,27.133c-9.938,22.747-26.017,16.724-35.571,4.449
		C233.038,424.606,227.475,414.126,221.599,407.883"/>
	<path clip-path="url(#SVGID_2_)" fill-rule="evenodd" clip-rule="evenodd" fill="#FFCC00" d="M211.407,459.033
		c2.467,0.957,13.912-4.795,29.079-13.599c16.657-8.813,32.374,0.947,29.267,20.239c-3.615,24.68-20.64,23.063-32.999,13.57
		C226.582,472.316,218.549,463.534,211.407,459.033"/>
	<path clip-path="url(#SVGID_2_)" fill-rule="evenodd" clip-rule="evenodd" fill="#FFCC00" d="M221.943,520.032
		c2.473-0.583,9.542-11.364,17.876-27.199c9.85-16.447,28.439-16.447,35.505,1.933c9.285,23.052-6.127,30.681-21.606,29.327
		C241.685,523.185,230.277,520.032,221.943,520.032"/>
	<path clip-path="url(#SVGID_2_)" fill-rule="evenodd" clip-rule="evenodd" fill="#FFCC00" d="M246.354,563.995
		c2.452-1.24,7.018-13.335,12.35-30.343c6.07-18.041,24.043-22.158,34.59-5.722c13.555,20.591,0,31.256-14.862,33.21
		C266.395,563.011,254.69,562.064,246.354,563.995"/>
	<path clip-path="url(#SVGID_2_)" fill-rule="evenodd" clip-rule="evenodd" fill="#FFCC00" d="M296.425,598.751
		c1.434-2.248,0-14.885-3.473-32.592c-2.455-18.923,11.451-30.92,28.418-21.782c21.636,11.69,14.507,27.525,1.908,36.647
		C313.386,588.324,302.828,593.049,296.425,598.751"/>
	<path clip-path="url(#SVGID_2_)" fill-rule="evenodd" clip-rule="evenodd" fill="#FFFFFF" d="M299.777,120.698v13.388h33.642
		v143.553l-9.627,12.805l29.612-11.612v-82.045h4.216v82.045l29.931,11.334l-9.603-12.527V135.847c0,0,3.321,0.296,3.321,3.506
		v53.14h12.81V137.59c0,0,1.184-16.892-19.894-16.892H299.777z"/>
	<path clip-path="url(#SVGID_2_)" fill-rule="evenodd" clip-rule="evenodd" fill="#FFFFFF" d="M412.982,120.698h-23.42
		c0,0,7.409,6.245,7.409,13.388h16.011V120.698z"/>
	<path clip-path="url(#SVGID_2_)" fill="#FFFFFF" d="M324.031,245.121h-43.975l0.091-0.609l21.388-104.316h0.833L324.031,245.121z
		 M281.098,244.186h41.816l-20.935-101.674L281.098,244.186z"/>
	<rect x="275.014" y="241.774" clip-path="url(#SVGID_2_)" fill="#FFFFFF" width="53.949" height="12.82"/>
	<rect x="301.535" y="147.054" clip-path="url(#SVGID_2_)" fill="#FFFFFF" width="0.833" height="97.751"/>
	<path clip-path="url(#SVGID_2_)" fill="#FFFFFF" d="M433.081,245.121h-43.972l0.091-0.609l21.409-104.316h0.898L433.081,245.121z
		 M390.202,244.186h41.779l-20.884-101.674L390.202,244.186z"/>
	<rect x="384.083" y="241.774" clip-path="url(#SVGID_2_)" fill="#FFFFFF" width="53.967" height="12.82"/>
	<rect x="410.608" y="147.054" clip-path="url(#SVGID_2_)" fill="#FFFFFF" width="0.899" height="97.751"/>
	<path clip-path="url(#SVGID_2_)" fill-rule="evenodd" clip-rule="evenodd" fill="#FFFFFF" d="M340.346,101.753
		c0-8.105,6.542-14.774,14.459-14.774c7.918,0,14.513,6.669,14.513,14.774c0,8.172-6.595,14.887-14.513,14.887
		C346.888,116.64,340.346,109.925,340.346,101.753"/>
	<path clip-path="url(#SVGID_2_)" fill-rule="evenodd" clip-rule="evenodd" fill="#FFFFFF" d="M283.35,134.33
		c0-7.387,5.689-13.314,12.764-13.314v13.314H283.35z"/>
	<path clip-path="url(#SVGID_2_)" fill-rule="evenodd" clip-rule="evenodd" fill="#FFFFFF" d="M394.018,196.276
		c0,7.285-5.61,13.273-12.797,13.273v-13.273H394.018z"/>
	<polygon clip-path="url(#SVGID_2_)" fill-rule="evenodd" clip-rule="evenodd" fill="#FFFFFF" points="355.706,467.335 
		346.078,454.681 320.217,447.857 280.647,454.681 321.563,435.22 355.706,444.686 389.138,435.22 430.024,454.681 390.564,447.774 
		364.595,454.681 	"/>
	<polygon clip-path="url(#SVGID_2_)" fill-rule="evenodd" clip-rule="evenodd" fill="#FFFFFF" points="355.579,425.048 
		349.901,417.562 334.627,413.565 311.288,417.562 335.426,406.058 355.579,411.685 375.351,406.058 399.497,417.562 
		376.161,413.565 360.87,417.562 	"/>
	<polygon clip-path="url(#SVGID_2_)" fill-rule="evenodd" clip-rule="evenodd" fill="#FFCC00" points="454.175,96.648 
		445.328,96.648 445.328,166.987 454.175,174.588 	"/>
	<path clip-path="url(#SVGID_2_)" fill="#FFCC00" d="M454.489,175.19l-9.457-8.106V96.344h9.457V175.19z M445.642,166.828
		l8.292,7.159V96.896h-8.292V166.828z"/>
	<polygon clip-path="url(#SVGID_2_)" fill-rule="evenodd" clip-rule="evenodd" fill="#FFCC00" points="461.561,96.648 
		470.131,96.648 470.131,129.604 461.561,144.05 	"/>
	<path clip-path="url(#SVGID_2_)" fill="#FFCC00" d="M461.314,145.085V96.343h9.131v33.367l-0.06,0.07L461.314,145.085z
		 M461.918,96.896v46.129l7.924-13.461V96.896H461.918z"/>
	<polygon clip-path="url(#SVGID_2_)" fill-rule="evenodd" clip-rule="evenodd" fill="#FFCC00" points="487.222,96.648 
		478.731,96.648 478.731,129.604 487.222,144.05 	"/>
	<path clip-path="url(#SVGID_2_)" fill="#FFCC00" d="M487.561,145.084l-9.132-15.374V96.344h9.132V145.084z M478.997,129.563
		l7.973,13.461V96.896h-7.973V129.563z"/>
	<polygon clip-path="url(#SVGID_2_)" fill-rule="evenodd" clip-rule="evenodd" fill="#FFCC00" points="493.787,96.648 
		502.677,96.648 502.677,166.987 493.787,174.588 	"/>
	<path clip-path="url(#SVGID_2_)" fill="#FFCC00" d="M493.587,175.19V96.343h9.403v70.741l-0.114,0.098L493.587,175.19z
		 M494.143,96.896v77.091l8.232-7.159V96.896H494.143z"/>
	<path clip-path="url(#SVGID_2_)" fill-rule="evenodd" clip-rule="evenodd" fill="#FFCC00" d="M474.153,195.861
		c-8.279-4.68-11.075-30.974-11.075-30.974c0-17.163,10.786-30.282,10.786-30.282S485,147.724,485,164.887
		C485,164.887,482.397,191.181,474.153,195.861"/>
	<path clip-path="url(#SVGID_2_)" fill-rule="evenodd" clip-rule="evenodd" fill="#FFCC00" d="M446.488,181.818v15.491
		c0,0-0.846,9.581,8.848,19.218c9.675,9.607,16.511,14.905,16.511,14.905v-17.816c0,0-0.242-7.595-6.263-14.586
		c-5.985-7.019-17.14-17.212-17.14-17.212H446.488z"/>
	<path clip-path="url(#SVGID_2_)" fill-rule="evenodd" clip-rule="evenodd" fill="#FFCC00" d="M502.676,181.818v15.491
		c0,0,0.81,9.581-8.89,19.218c-9.692,9.607-16.505,14.905-16.505,14.905v-17.816c0,0,0-7.595,6.015-14.586
		c5.979-7.019,17.369-17.212,17.369-17.212H502.676z"/>
	<path clip-path="url(#SVGID_2_)" fill-rule="evenodd" clip-rule="evenodd" fill="#FFCC00" d="M446.488,222.47v15.166
		c0,0-0.846,9.927,8.848,19.294c9.675,9.631,16.511,15.133,16.511,15.133v-17.792c0,0-0.242-7.596-6.263-14.556
		c-5.985-7.318-17.14-17.245-17.14-17.245H446.488z"/>
	<path clip-path="url(#SVGID_2_)" fill-rule="evenodd" clip-rule="evenodd" fill="#FFCC00" d="M502.676,222.47v15.166
		c0,0,0.81,9.927-8.89,19.294c-9.692,9.631-16.505,15.133-16.505,15.133v-17.792c0,0,0-7.596,6.015-14.556
		c5.979-7.318,17.369-17.245,17.369-17.245H502.676z"/>
	<polygon clip-path="url(#SVGID_2_)" fill-rule="evenodd" clip-rule="evenodd" fill="#FFCC00" points="517.485,96.648 
		508.656,96.648 508.656,195.269 517.485,202.844 	"/>
	<path clip-path="url(#SVGID_2_)" fill="#FFCC00" d="M517.787,203.468l-9.385-8.1V96.344h9.385V203.468z M508.958,195.111
		l8.286,7.093V96.896h-8.286V195.111z"/>
	<polygon clip-path="url(#SVGID_2_)" fill-rule="evenodd" clip-rule="evenodd" fill="#FFCC00" points="524.666,96.648 
		533.453,96.648 533.453,157.886 524.666,172.382 	"/>
	<path clip-path="url(#SVGID_2_)" fill="#FFCC00" d="M524.406,173.377V96.343h9.343v61.681v0.089L524.406,173.377z M524.883,96.896
		v74.425l8.315-13.465v-60.96H524.883z"/>
	<polygon clip-path="url(#SVGID_2_)" fill-rule="evenodd" clip-rule="evenodd" fill="#FFCC00" points="550.568,96.648 
		541.781,96.648 541.781,157.886 550.568,172.382 	"/>
	<path clip-path="url(#SVGID_2_)" fill="#FFCC00" d="M550.895,173.329l-9.41-15.305V96.343h9.41V173.329z M542.041,157.856
		l8.292,13.465V96.896h-8.292V157.856z"/>
	<polygon clip-path="url(#SVGID_2_)" fill-rule="evenodd" clip-rule="evenodd" fill="#FFCC00" points="557.157,96.648 
		565.993,96.648 565.993,195.269 557.157,202.844 	"/>
	<path clip-path="url(#SVGID_2_)" fill="#FFCC00" d="M556.91,203.468V96.343h9.392v99.025l-0.146,0.119L556.91,203.468z
		 M557.458,96.896v105.308l8.238-7.093V96.896H557.458z"/>
	<path clip-path="url(#SVGID_2_)" fill-rule="evenodd" clip-rule="evenodd" fill="#FFCC00" d="M537.475,223.572
		c-8.534-4.697-11.402-31.217-11.402-31.217c0-16.94,11.101-30.008,11.101-30.008s10.895,13.068,10.895,30.008
		C548.068,192.355,545.761,218.875,537.475,223.572"/>
	<path clip-path="url(#SVGID_2_)" fill-rule="evenodd" clip-rule="evenodd" fill="#FFCC00" d="M509.821,209.214v15.524
		c0,0-1.165,9.608,8.521,19.221c9.7,9.654,16.923,14.872,16.923,14.872v-17.767c0,0-0.339-7.587-6.324-14.614
		c-6.033-6.974-17.417-17.236-17.417-17.236H509.821z"/>
	<path clip-path="url(#SVGID_2_)" fill-rule="evenodd" clip-rule="evenodd" fill="#FFCC00" d="M565.636,209.214v15.524
		c0,0,0.96,9.608-8.728,19.221c-9.687,9.654-16.564,14.872-16.564,14.872v-17.767c0,0,0.247-7.587,6.273-14.614
		c6.017-6.974,17.357-17.236,17.357-17.236H565.636z"/>
	<path clip-path="url(#SVGID_2_)" fill-rule="evenodd" clip-rule="evenodd" fill="#FFCC00" d="M509.821,249.612v15.477
		c0,0-1.165,9.574,8.521,19.256c9.7,9.317,16.923,14.549,16.923,14.549v-17.453c0,0-0.339-7.621-6.324-14.625
		c-6.033-7.029-17.417-17.204-17.417-17.204H509.821z"/>
	<path clip-path="url(#SVGID_2_)" fill-rule="evenodd" clip-rule="evenodd" fill="#FFCC00" d="M565.636,249.612v15.477
		c0,0,0.96,9.574-8.728,19.256c-9.687,9.317-16.564,14.549-16.564,14.549v-17.453c0,0,0.247-7.621,6.273-14.625
		c6.017-7.029,17.357-17.204,17.357-17.204H565.636z"/>
	<path clip-path="url(#SVGID_2_)" fill-rule="evenodd" clip-rule="evenodd" fill="#FFCC00" d="M509.821,290.629v15.179
		c0,0-1.165,9.58,8.521,19.211c9.7,9.632,16.923,15.216,16.923,15.216v-18.069c0,0-0.339-7.339-6.324-14.648
		c-6.033-6.971-17.417-16.889-17.417-16.889H509.821z"/>
	<path clip-path="url(#SVGID_2_)" fill-rule="evenodd" clip-rule="evenodd" fill="#FFCC00" d="M565.636,290.629v15.179
		c0,0,0.96,9.58-8.728,19.211c-9.687,9.632-16.564,15.216-16.564,15.216v-18.069c0,0,0.247-7.339,6.273-14.648
		c6.017-6.971,17.357-16.889,17.357-16.889H565.636z"/>
	<rect x="534.45" y="351.563" clip-path="url(#SVGID_2_)" fill="#FFCC00" width="7.036" height="122.795"/>
	
		<rect x="471.207" y="280.969" clip-path="url(#SVGID_2_)" fill-rule="evenodd" clip-rule="evenodd" fill="#FFCC00" width="7.036" height="39.157"/>
	
		<rect x="685.106" y="819.766" clip-path="url(#SVGID_2_)" fill-rule="evenodd" clip-rule="evenodd" fill="#0D93D2" width="22.182" height="14.45"/>
	<polygon clip-path="url(#SVGID_2_)" fill-rule="evenodd" clip-rule="evenodd" fill="#0D93D2" points="154.46,884.128 
		154.46,898.562 89.592,898.562 89.592,819.766 153.561,819.766 153.561,834.414 111.777,834.414 111.777,850.398 151.627,850.398 
		151.627,865.134 111.777,865.134 111.777,884.128 	"/>
	<polygon clip-path="url(#SVGID_2_)" fill-rule="evenodd" clip-rule="evenodd" fill="#0D93D2" points="232.663,883.88 
		232.663,898.562 165.542,898.562 165.542,819.766 187.743,819.766 187.743,883.88 	"/>
	<polygon clip-path="url(#SVGID_2_)" fill-rule="evenodd" clip-rule="evenodd" fill="#0D93D2" points="304.333,884.128 
		304.333,898.562 239.436,898.562 239.436,819.766 303.413,819.766 303.413,834.414 261.636,834.414 261.636,850.398 
		301.478,850.398 301.478,865.134 261.636,865.134 261.636,884.128 	"/>
	
		<rect x="413.822" y="838.525" clip-path="url(#SVGID_2_)" fill-rule="evenodd" clip-rule="evenodd" fill="#0D93D2" width="22.188" height="60.036"/>
	<polygon clip-path="url(#SVGID_2_)" fill-rule="evenodd" clip-rule="evenodd" fill="#0D93D2" points="532.003,819.766 
		497.38,861.686 497.38,898.562 475.313,898.562 475.313,861.686 440.629,819.766 467.124,819.766 486.413,844.488 505.726,819.766 
			"/>
	<polygon clip-path="url(#SVGID_2_)" fill-rule="evenodd" clip-rule="evenodd" fill="#0D93D2" points="601.171,884.128 
		601.171,898.562 536.315,898.562 536.315,819.766 600.29,819.766 600.29,834.414 558.51,834.414 558.51,850.398 598.357,850.398 
		598.357,865.134 558.51,865.134 558.51,884.128 	"/>
	<path clip-path="url(#SVGID_2_)" fill-rule="evenodd" clip-rule="evenodd" fill="#0D93D2" d="M671.347,824.84v16.175l-1.588-0.684
		c-10.249-4.593-19.253-6.945-26.821-6.945c-3.925,0-7.138,0.559-9.457,1.767c-2.439,1.141-3.672,2.668-3.672,4.59
		c0,3.11,4.795,6.189,14.337,9.344l6.934,2.337c8.527,2.841,14.639,6.217,18.432,10.137c3.883,3.877,5.846,8.763,5.846,14.717
		c0,6.945-3.2,12.653-9.523,16.94c-6.323,4.27-14.585,6.407-24.906,6.407c-7.253,0-15.013-1.455-23.245-4.269
		c-3.557-1.257-6.153-2.344-7.875-3.376v-17.014c5.858,3.262,10.575,5.509,14.168,6.843c5.617,2.005,11.028,3.014,16.288,3.014
		c8.829,0,13.263-2.416,13.263-7.205c0-1.902-0.827-3.497-2.53-4.855c-1.733-1.274-4.862-2.651-9.337-4.034l-4.753-1.485
		c-4.929-1.521-9.79-3.497-14.543-5.792c-3.389-1.603-6.111-3.515-8.273-5.632c-3.883-3.97-5.822-8.825-5.822-14.731
		c0-6.762,3.014-12.205,9.054-16.247c6.104-4.095,14.21-6.152,24.205-6.152C651.038,818.688,660.929,820.745,671.347,824.84"/>
	
		<rect x="685.106" y="838.525" clip-path="url(#SVGID_2_)" fill-rule="evenodd" clip-rule="evenodd" fill="#0D93D2" width="22.182" height="60.036"/>
	
		<rect x="413.822" y="819.766" clip-path="url(#SVGID_2_)" fill-rule="evenodd" clip-rule="evenodd" fill="#0D93D2" width="22.188" height="14.45"/>
	<path clip-path="url(#SVGID_2_)" fill-rule="evenodd" clip-rule="evenodd" fill="#0D93D2" d="M27.295,833.834v17.245h8.313
		c5.242,0,9.129-0.619,11.334-1.992c2.307-1.258,3.454-3.53,3.454-6.659c0-5.701-4.778-8.594-14.459-8.594H27.295z M27.295,865.288
		v18.961h10.832c6.897,0,11.738-0.684,14.295-2.078c2.821-1.401,4.145-3.865,4.145-7.398c0-3.653-1.38-6.074-4.267-7.416
		c-2.728-1.383-7.769-2.068-15.246-2.068H27.295z M4.981,819.766h33.556c7.568,0,13.305,0.481,17.151,1.485
		c5.01,1.288,9.063,3.647,12.115,7.038c3.057,3.316,4.614,7.01,4.614,11.111c0,7.096-3.906,12.365-11.858,15.829
		c12.407,3.473,18.608,10.279,18.608,20.432c0,5.03-1.538,9.396-4.504,13.074c-3.027,3.732-7.287,6.39-12.774,8.104
		c-4.04,1.245-9.589,1.849-16.534,1.849l-40.374-0.127V819.766z"/>
	<path clip-path="url(#SVGID_2_)" fill-rule="evenodd" clip-rule="evenodd" fill="#0D93D2" d="M319.568,697.435v21.148l-1.709-0.919
		c-11.363-6.029-21.201-9.066-29.574-9.066c-4.355,0-7.882,0.751-10.524,2.28c-2.654,1.532-3.973,3.512-3.973,6.026
		c0,4.032,5.242,8.09,15.753,12.232l7.697,3.012c9.391,3.729,16.179,8.178,20.322,13.296c4.303,5.036,6.429,11.431,6.429,19.171
		c0,9.173-3.503,16.564-10.572,22.189c-6.891,5.528-16.04,8.285-27.427,8.285c-7.936,0-16.493-1.818-25.595-5.554
		c-3.886-1.619-6.767-3.067-8.666-4.377v-22.196c6.459,4.222,11.641,7.173,15.639,8.912c6.151,2.618,12.175,3.9,17.918,3.9
		c9.766,0,14.655-3.11,14.655-9.376c0-2.486-0.946-4.602-2.857-6.338c-1.866-1.689-5.284-3.445-10.237-5.23l-5.236-1.986
		c-5.393-2.015-10.795-4.52-16.082-7.553c-3.693-2.142-6.749-4.574-9.131-7.431c-4.252-5.106-6.384-11.472-6.384-19.166
		c0-8.831,3.333-15.935,9.956-21.261c6.742-5.325,15.647-7.983,26.744-7.983C297.149,689.451,308.126,692.109,319.568,697.435"/>
	<polygon clip-path="url(#SVGID_2_)" fill-rule="evenodd" clip-rule="evenodd" fill="#0D93D2" points="449.115,774.569 
		449.115,793.743 375.164,793.743 375.164,690.807 399.617,690.807 399.617,774.569 	"/>
	
		<rect x="457.111" y="716.017" clip-path="url(#SVGID_2_)" fill-rule="evenodd" clip-rule="evenodd" fill="#0D93D2" width="24.44" height="77.727"/>
	<polygon clip-path="url(#SVGID_2_)" fill-rule="evenodd" clip-rule="evenodd" fill="#0D93D2" points="588.929,690.807 
		544.125,795.089 533.622,795.089 486.661,690.807 512.967,690.807 538.598,749.503 562.918,690.807 	"/>
	
		<rect x="684.2" y="716.017" clip-path="url(#SVGID_2_)" fill-rule="evenodd" clip-rule="evenodd" fill="#0D93D2" width="24.453" height="77.727"/>
	
		<rect x="334.778" y="690.806" clip-path="url(#SVGID_2_)" fill-rule="evenodd" clip-rule="evenodd" fill="#0D93D2" width="24.46" height="19.827"/>
	
		<rect x="457.111" y="690.806" clip-path="url(#SVGID_2_)" fill-rule="evenodd" clip-rule="evenodd" fill="#0D93D2" width="24.44" height="19.827"/>
	
		<rect x="684.2" y="690.806" clip-path="url(#SVGID_2_)" fill-rule="evenodd" clip-rule="evenodd" fill="#0D93D2" width="24.453" height="19.827"/>
	<rect x="334.777" y="716.017" clip-path="url(#SVGID_2_)" fill="#0D93D2" width="24.46" height="77.727"/>
	<path clip-path="url(#SVGID_2_)" fill-rule="evenodd" clip-rule="evenodd" fill="#0D93D2" d="M617.913,709.522v23.544h10.098
		l1.829-0.133l3.038-0.179c3.201-0.216,5.821-1.297,7.785-3.313c2.005-2.09,3.013-4.818,3.013-8.146
		c0-7.839-4.511-11.772-13.485-11.772H617.913z M593.459,690.807h37.273c7.103,0,12.338,0.34,15.63,1.039
		c3.4,0.631,6.691,1.97,9.82,4.103c3.78,2.597,6.866,6.114,9.119,10.534c2.343,4.462,3.569,9.087,3.569,13.923
		c0,8.041-2.755,14.633-8.249,19.754c-2.012,1.813-4.832,3.643-8.401,5.429c4.723,2.512,9.391,8.97,13.932,19.329l12.653,28.827
		h-26.585l-0.58-1.04l-1.878-4.225l-1.818-4.687l-6.546-15.403c-3.859-9.262-8.208-14.571-12.967-15.999
		c-1.286-0.392-3.635-0.622-6.927-0.622h-3.593v41.976h-24.453V690.807z"/>
	<path clip-path="url(#SVGID_2_)" fill-rule="evenodd" clip-rule="evenodd" fill="#0D93D2" d="M337.489,834.773v48.792h8.873
		c8.807,0,15.213-0.778,19.309-2.343c9.874-3.672,14.706-11.161,14.706-22.327c0-11.066-4.881-18.396-14.785-22.031
		c-3.811-1.379-9.47-2.091-17.03-2.091H337.489z M315.328,819.766h35.793c4.071,0,7.398,0.058,9.958,0.364
		c6.56,0.591,12.604,2.032,18.01,4.384c9.603,4.084,16.421,10.26,20.503,18.558c2.368,4.673,3.569,9.962,3.569,15.981
		c0,9.469-2.978,17.526-8.933,24.29c-5.96,6.667-14.137,11.186-24.513,13.497c-5.616,1.245-12.447,1.849-20.249,1.849l-34.139-0.127
		V819.766z"/>
	<polygon clip-path="url(#SVGID_2_)" fill="#0D93D2" points="0,713.624 26.392,713.624 26.392,791.62 51.628,791.62 51.628,713.624 
		78.07,713.624 78.07,689.876 0,689.876 	"/>
	<rect x="81.151" y="765.487" clip-path="url(#SVGID_2_)" fill="#0D93D2" width="24.969" height="26.133"/>
	<path clip-path="url(#SVGID_2_)" fill="#0D93D2" d="M189.28,762.983l-4.816,3.313c-0.221,0.091-0.432,0.219-0.688,0.235
		l-0.495,0.165c-1.875,0.829-4.149,1.56-6.867,2.176c-3.173,0.723-6.909,1.055-11.175,0.857c-0.77-0.056-1.531-0.119-2.35-0.158
		c-5.903-0.741-11.45-3.32-16.393-7.661c-4.717-4.156-7.057-11.165-7.057-20.903c0-9.612,2.718-16.695,8.265-21.735
		c5.634-5.107,12.519-7.567,21.107-7.567c3.007,0,5.882,0.266,8.69,0.772c2.703,0.521,5.493,1.32,8.153,2.465l4.391,1.894
		l1.114-23.777l-2.355-0.876c-0.867-0.271-1.727-0.536-2.582-0.842c-0.861-0.146-1.537-0.391-2.241-0.629l-0.341-0.101
		c-2.403-0.567-4.985-1.001-7.603-1.343c-2.63-0.336-5.511-0.501-8.515-0.501c-16.596,0-29.919,4.745-39.642,14.245
		c-9.754,9.482-14.709,22.34-14.709,38.318c0,16.842,5.127,29.815,15.313,38.512c9.979,8.43,21.973,12.764,35.595,12.764
		c0.991,0,2.026-0.065,3.107-0.097c1.063-0.048,2.099-0.099,3.186-0.193c3.21-0.303,6.353-0.751,9.376-1.318
		c3.11-0.678,6.163-1.456,9.056-2.531l2.485-0.848l-1.416-18.788L189.28,762.983z"/>
	<rect x="197.445" y="765.487" clip-path="url(#SVGID_2_)" fill="#0D93D2" width="24.976" height="26.133"/>
</g>
</svg>
