<?xml version="1.0" encoding="utf-8"?>
<!-- Generator: Adobe Illustrator 16.0.0, SVG Export Plug-In . SVG Version: 6.00 Build 0)  -->
<!DOCTYPE svg PUBLIC "-//W3C//DTD SVG 1.1//EN" "http://www.w3.org/Graphics/SVG/1.1/DTD/svg11.dtd">
<svg version="1.1" id="Layer_1" xmlns="http://www.w3.org/2000/svg" xmlns:xlink="http://www.w3.org/1999/xlink" x="0px" y="0px"
	 width="748.872px" height="447.784px" viewBox="0 0 748.872 447.784" enable-background="new 0 0 748.872 447.784"
	 xml:space="preserve">
<path d="M679.018,393.441h-7.509v-7.515h7.509V393.441z M679.018,428.313h-7.509v-31.824h7.509V428.313z M528.035,393.441h-7.518
	v-7.515h7.518V393.441z M528.035,428.313h-7.518v-31.824h7.518V428.313z M653.455,415.637c0,3.719-1.467,6.926-4.411,9.642
	c-2.897,2.67-6.238,4.015-9.979,4.015c-4.021,0-7.388-1.163-10.104-3.499c-1.833-1.686-3.511-3.288-5.041-4.817l4.813-4.817
	c2.903,3.517,6.45,5.567,10.619,6.141c1.937,0,3.534-0.664,4.755-1.96c1.226-1.335,1.832-2.979,1.832-4.926
	c0-2.336-1.655-4.296-4.982-5.854c-3.105-1.455-6.198-2.888-9.291-4.309c-3.334-2.176-4.996-5.2-4.996-9.062
	c0-3.401,1.456-6.174,4.365-8.305c2.635-1.925,5.694-2.881,9.177-2.881c5.189,0,9.097,1.517,11.701,4.529l-4.357,5.059
	c-2.417-1.839-4.938-2.755-7.573-2.755c-1.421,0-2.691,0.378-3.85,1.146c-1.293,0.841-1.947,1.945-1.947,3.327
	c0,1.678,1.014,3.053,3.036,4.13c0.234,0.114,1.93,0.738,5.104,1.89c2.028,0.722,3.923,1.725,5.683,2.983
	c2.143,1.53,3.557,3.1,4.244,4.704c0.274,0.573,0.555,1.522,0.859,2.869C653.345,413.845,653.455,414.762,653.455,415.637
	 M608.918,428.313h-20.247v-42.386l20.247-0.059l0.172,7.573h-12.849v8.725h11.934v7.337h-11.934v11.016h12.849L608.918,428.313z
	 M576.699,385.927l-14.526,24.033v18.353h-7.516V409.96l-14.508-24.033h8.602l9.642,16.118l9.749-16.118H576.699z M493.86,407.034
	c0-9.56-6.508-14.338-19.509-14.338v28.858h2.062c5.052,0,9.131-1.134,12.217-3.392C492.119,415.637,493.86,411.927,493.86,407.034
	 M501.421,406.575c0,6.926-2.326,12.355-6.995,16.298c-4.393,3.631-10.132,5.439-17.212,5.439h-10.379v-42.386h9.863
	c6.886,0,12.602,1.683,17.161,5.052C498.907,394.714,501.421,399.926,501.421,406.575 M446.947,428.313h-20.254v-42.386
	l20.254-0.059l0.172,7.573h-12.854v8.725h11.938v7.337h-11.938v11.016h12.854L446.947,428.313z M411.044,428.313h-20.254v-42.386
	h7.503v35.628h12.751V428.313z M370.452,428.313h-20.254v-42.386l20.254-0.059l0.169,7.573h-12.85v8.725h11.938v7.337h-11.938
	v11.016h12.85L370.452,428.313z M324.327,416.159c0-2.257-0.95-3.919-2.863-4.994c-1.535-0.871-3.526-1.318-5.972-1.318h-2.81
	v11.766h3.099c2.329-0.127,4.188-0.562,5.565-1.318C323.182,419.521,324.173,418.153,324.327,416.159 M323.412,397.8
	c0-1.839-0.651-3.167-1.948-4.015c-1.304-0.848-3.333-1.272-6.089-1.272l-2.693,0.069v11.135l2.927-0.183
	C320.355,403.694,322.952,401.781,323.412,397.8 M331.845,416.503c0,4.016-1.707,7.113-5.103,9.291
	c-2.873,1.832-6.445,2.755-10.735,2.755h-10.831v-42.393l10.662-0.058c3.979,0,7.426,0.682,10.325,2.062
	c3.671,2.6,5.278,5.665,4.819,9.177c-0.458,2.904-1.148,4.937-2.065,6.083c-0.907,1.145-2.445,2.257-4.591,3.327
	c2.292,0.762,4.117,2.011,5.454,3.729C331.153,412.195,331.845,414.211,331.845,416.503"/>
<path d="M391.856,329.883v36.373h-14.975v-72.54l37.863,37.863v-34.93h15.323v71.451L391.856,329.883z M451.987,330.061
	c0.186,6.628,2.224,12.012,6.348,16.767c4.29,4.972,9.365,7.399,15.271,7.399c4.622,0,8.78-1.266,12.532-3.826
	c3.626-2.503,5.888-5.578,6.874-9.232h-16.623v-12.832h31.584v5.608c0,6.88-1.844,13.055-5.539,18.536
	c-3.643,5.481-8.7,9.479-15.133,12.006c-4.376,1.701-8.472,2.572-12.258,2.572c-4.681,0-8.328-0.391-10.866-1.215
	c-7.526-2.451-13.753-6.896-18.64-13.312c-4.834-6.434-7.263-13.61-7.263-21.531c0-9.365,3.678-17.512,10.946-24.426
	c7.263-6.958,15.586-10.464,24.923-10.464c6.782,0,12.567,1.11,17.327,3.401l4.617,2.12l-9.314,10.161l-0.722-0.406
	c-3.144-1.748-6.958-2.63-11.455-2.63c-5.844,0-11.063,2.138-15.708,6.496C454.343,319.516,452.073,324.436,451.987,330.061
	 M611.869,338.853l0.098,26.683h-13.811v-68.084h14.537c8.289,0,14.854,1.792,19.516,5.51c5.505,4.754,8.347,11.536,8.593,20.095
	c-0.246,6.42-2.354,11.72-6.382,15.746l-3.654,3.654l16.383,23.079H630.44L611.869,338.853z M611.869,310.889v26.2
	c7.458-0.996,11.72-4.045,13.68-9.073c1.345-3.116,1.43-6.088,0.348-8.901C624.252,313.788,619.786,310.9,611.869,310.889
	 M653.524,365.535v-68.079l33.61-0.096l0.311,13.896h-20.025v11.462h18.577v13.535h-18.577v15.036h20.025l-0.311,14.246H653.524z
	 M710.655,329.883v36.373h-14.974v-72.54l37.863,37.863v-34.93h15.327v71.451L710.655,329.883z M342.893,277.781h13.806v13.805
	h-13.806V277.781z M325.025,277.781h13.808v13.805h-13.808V277.781z M359.778,359.418c-5.037,5.097-11.508,7.641-19.326,7.641
	c-7.63,0-14.037-2.51-19.132-7.538c-5.032-5.099-7.543-11.514-7.543-19.145v-42.925h13.806v41.047c0,4.801,1.038,8.479,3.012,11.169
	c2.138,2.888,5.366,4.388,9.857,4.388c8.641,0,13.056-5.063,13.056-16.182v-40.422h13.808v42.479
	C367.316,347.731,364.813,354.262,359.778,359.418 M550.55,291.586h-13.81v-13.805h13.81V291.586z M569.584,291.586h-13.804v-13.805
	h13.804V291.586z M569.527,315.334c-4.502-4.395-9.943-6.576-16.404-6.576c-6.457,0-11.938,2.182-16.503,6.582
	c-4.485,4.313-6.73,9.662-6.73,16.113c0,6.312,2.269,11.639,6.816,16.016c4.622,4.399,10.081,6.586,16.417,6.586
	c6.328,0,11.754-2.187,16.325-6.586c4.616-4.446,6.907-9.772,6.907-16.016C576.355,325.06,574.086,319.716,569.527,315.334
	 M579.104,356.771c-7.332,6.839-16.01,10.287-25.981,10.287c-10.025,0-18.708-3.403-25.994-10.201
	c-7.299-6.858-10.953-15.357-10.953-25.404c0-9.945,3.725-18.41,11.137-25.33c7.228-6.673,15.844-10.012,25.811-10.012
	c9.961,0,18.604,3.339,25.902,10.012c7.399,6.92,11.13,15.385,11.13,25.33C590.155,341.386,586.465,349.851,579.104,356.771
	 M249.038,330.061c0.183,6.628,2.222,12.012,6.347,16.767c4.287,4.972,9.367,7.399,15.28,7.399c4.616,0,8.774-1.266,12.529-3.826
	c3.623-2.503,5.888-5.578,6.868-9.232H273.45v-12.832h31.574v5.608c0,6.88-1.842,13.055-5.536,18.536
	c-3.643,5.481-8.698,9.479-15.134,12.006c-4.381,1.701-8.469,2.572-12.263,2.572c-4.674,0-8.318-0.391-10.864-1.215
	c-7.526-2.451-13.75-6.896-18.635-13.312c-4.839-6.434-7.268-13.61-7.268-21.531c0-9.365,3.672-17.512,10.947-24.426
	c7.266-6.958,15.583-10.464,24.929-10.464c6.773,0,12.556,1.11,17.323,3.401l4.613,2.12l-9.31,10.161l-0.727-0.406
	c-3.146-1.748-6.952-2.63-11.457-2.63c-5.842,0-11.061,2.138-15.706,6.496C251.389,319.516,249.121,324.436,249.038,330.061"/>
<path fill="#E40520" d="M85.537,173.977c6.433,99.347,18.178,207.859,163.923,272.208l-1.619,0.207
	c0.299,0.183-2.48,0.48-7.196,0.733c-12.313,1.035-24.442,0.836-36.256-0.492c-63.011-4.95-170.621-35.119-163.728-185.532
	c0.052-2.921,0.187-5.866,0.387-8.821C49.063,134.19,37.404,72.82,24.493,41.159C12.974,13.544,0.662,8.512,0.662,8.512L0,8.136
	C0,8.136,75.318,15.99,85.537,173.977 M213.879,20.349c28.167-10.164,56.271,5.296,71.848,23.362
	c18.011,20.904,6.055,40.213-10.3,46.924c-25.967,10.651-69.36-14.171-76.838-29.321C188.026,39.916,199.551,25.521,213.879,20.349
	 M197.844,0c0,0-124.66,9.443-123.119,60.82c1.151,38.384,94.406,48.732,159.66,69.73c13.125,4.222,25.896,12.046,30.877,22.5
	c1.272,2.658,2.526,9.476,1.395,14.54c31.622-58.801-79.267-73.267-109.749-93.981C92.456,29.82,197.844,0,197.844,0 M353.325,6.582
	c51.86,5.267,93.141,50.137,76.862,96.6c-19.692,56.237-100.403,69.264-169.535,120.981c-55.302,41.36-57.771,81.497-52.426,118.871
	c-24.531-51.174-17.551-102.807,16.007-134.075c56.474-52.624,94.471-50.524,147.769-98.54
	C424.424,63.201,359.778,7.626,353.325,6.582 M261.988,0.755c102.021-1.652,162.568,81.977,32.355,125.061
	C366.751,59.394,321.137,23.287,261.988,0.755"/>
</svg>
