<?xml version="1.0" encoding="utf-8"?>
<!-- Generator: Adobe Illustrator 16.0.0, SVG Export Plug-In . SVG Version: 6.00 Build 0)  -->
<!DOCTYPE svg PUBLIC "-//W3C//DTD SVG 1.1//EN" "http://www.w3.org/Graphics/SVG/1.1/DTD/svg11.dtd">
<svg version="1.1"
	 id="svg8" xmlns:cc="http://creativecommons.org/ns#" xmlns:dc="http://purl.org/dc/elements/1.1/" xmlns:svg="http://www.w3.org/2000/svg" xmlns:sodipodi="http://sodipodi.sourceforge.net/DTD/sodipodi-0.dtd" xmlns:inkscape="http://www.inkscape.org/namespaces/inkscape" xmlns:rdf="http://www.w3.org/1999/02/22-rdf-syntax-ns#" inkscape:version="0.92.3 (2405546, 2018-03-11)" sodipodi:docname="belediye_beylikduzu.svg"
	 xmlns="http://www.w3.org/2000/svg" xmlns:xlink="http://www.w3.org/1999/xlink" x="0px" y="0px" width="417px" height="544.16px"
	 viewBox="0 0 417 544.16" enable-background="new 0 0 417 544.16" xml:space="preserve">
<sodipodi:namedview  units="px" inkscape:cx="-53.729159" showgrid="false" bordercolor="#666666" borderopacity="1.0" showborder="false" fit-margin-left="0" inkscape:cy="474.56652" fit-margin-top="0" inkscape:zoom="0.98994949" pagecolor="#ffffff" id="base" inkscape:document-units="px" inkscape:pageshadow="2" inkscape:window-width="1920" inkscape:window-x="-8" inkscape:current-layer="layer1" inkscape:pageopacity="0.0" inkscape:window-height="1017" inkscape:window-y="-8" inkscape:window-maximized="1" fit-margin-right="0" fit-margin-bottom="0">
	</sodipodi:namedview>
<g id="layer1" transform="translate(279.68355,-20.90513)" inkscape:label="Layer 1" inkscape:groupmode="layer">
	<g id="g4679" transform="matrix(0.26458333,0,0,0.26458333,-303.1014,-18.182653)">
		<path id="path4515" inkscape:connector-curvature="0" fill="#E3001B" d="M93.681,344.897c0,0,304.16-95.241,389.506-100.189
			c0,0,336.434-55.661,474.966-22.264l-65.555-73.673C659.285,135.821,304.22,246.592,93.681,344.897L93.681,344.897z"/>
		<path id="path4517" inkscape:connector-curvature="0" fill="#EC7404" d="M93.681,344.897
			c190.538-44.978,491.169-113.133,681.412-81.947c150.901,24.737,195.428,79.16,195.428,79.16
			c45.949,50.699-5.189,243.959-22.264,248.615l146.575-25.357l26.59-48.239c-39.622-42.02-79.953-149.851-73.594-210.27
			c0,0-82.253-70.497-89.675-84.416c-138.532-33.397-474.966,22.264-474.966,22.264C397.841,249.656,93.681,344.897,93.681,344.897z
			"/>
		<path id="path4519" inkscape:connector-curvature="0" fill="#E9607C" d="M1075.647,172.345
			c-31.063-16.035-183.215-23.76-183.049-23.574l65.555,73.673l97.087,16.074C1060.805,207.595,1075.647,172.345,1075.647,172.345z"
			/>
		<path id="path4521" inkscape:connector-curvature="0" fill="#ED8480" d="M1047.828,306.86
			c-1.779-43.608,7.411-68.342,7.411-68.342l-97.087-16.074C965.575,236.363,1047.828,306.86,1047.828,306.86z"/>
		<path id="path4523" inkscape:connector-curvature="0" fill="#F4B3BB" d="M1055.239,238.518c0,0,105.126,24.74,144.707,48.242
			c0,0,14.273-71.04-68.799-97.253c0,0-45.447-17.012-55.501-17.163C1075.647,172.345,1060.805,207.595,1055.239,238.518z"/>
		<path id="path4525" inkscape:connector-curvature="0" fill="#FAC174" d="M1047.828,306.86c0,0,95.983,80.926,130.615,81.544
			c0,0,24.408-63.933,21.504-101.643c-39.582-23.502-144.707-48.242-144.707-48.242S1046.049,263.251,1047.828,306.86z"/>
		<path id="path4527" inkscape:connector-curvature="0" fill="#D4D700" d="M1094.832,565.368c0,0,43.409-5.649,57.634-6.887
			c0,0-31.166-31.99-31.045-41.352L1094.832,565.368z"/>
		<path id="path4529" inkscape:connector-curvature="0" fill="#0087CB" d="M1094.832,565.368c0,0-77.359,111.677-81.068,114.77
			c-3.709,3.093,209.956-2.314,310.147,55.818c0,0,79.47,35.562,89.365,109.156c0,0,3.709,115.03-35.872,204.086
			c0,0-81.633,185.537-176.874,294.383c0,0-122.451,165.742-148.428,184.296c0,0-103.527,120.783-149.86,165.462
			c36.559-29.059,112.382-90.93,154.496-136.705c0,0,173.161-168.211,206.56-223.875c0,0,162.033-204.091,202.851-325.307
			c0,0,56.896-148.428,51.946-186.771c0,0-112.866-107.3-117.815-122.761c0,0-148.062-24.082-247.814-139.438
			C1138.241,559.719,1094.832,565.368,1094.832,565.368L1094.832,565.368z"/>
		<path id="path4531" inkscape:connector-curvature="0" fill="#821980" d="M902.242,1693.339c0,0,98.91-61.868,121.916-86.361
			c0,0,161.789-134.328,172.179-152.137c0,0,151.768-147.317,159.191-163.638c0,0,163.265-196.674,201.858-278.309
			c0,0,43.786-74.583,57.143-113.174l-96.433-79.04c4.949,38.344-51.946,186.771-51.946,186.771
			c-40.818,121.216-202.851,325.307-202.851,325.307c-33.399,55.663-206.56,223.875-206.56,223.875
			C1014.624,1602.409,938.801,1664.28,902.242,1693.339L902.242,1693.339z"/>
		<path id="path4533" inkscape:connector-curvature="0" fill="#F7A901" d="M1121.422,517.129c0,0,41.741-78.781,57.021-128.726
			c-34.632-0.618-130.615-81.544-130.615-81.544C1041.469,367.277,1081.799,475.11,1121.422,517.129z"/>
		<path id="path4535" inkscape:connector-curvature="0" fill="#27A22D" d="M948.257,590.725c0,0-37.098,81.52-48.972,97.103
			c0,0,94.658-8.886,114.431-7.609c0-0.026,0.018-0.053,0.048-0.081c3.709-3.093,81.068-114.77,81.068-114.77L948.257,590.725z"/>
		<path id="path4537" inkscape:connector-curvature="0" fill="#9AC00B" d="M948.257,590.725c0,0-270.879,57.765-413.368,119.362
			c0,0-189.984,74.216-188.5,80.895c0,0,237.605-66.142,402.978-85.346c165.373-19.206,149.919-17.807,149.919-17.807
			C911.159,672.245,948.257,590.725,948.257,590.725z"/>
		<path id="path4539" inkscape:connector-curvature="0" fill="#01B5D0" d="M899.245,687.889
			c-2.462,3.769-116.619,178.166-162.871,222.948c0,0-151.392,181.453-193.694,211.879
			c155.219-110.075,361.746-288.957,471.035-442.497c-19.772-1.277-114.431,7.609-114.431,7.609S900.175,687.749,899.245,687.889z"
			/>
		<path id="path4541" inkscape:connector-curvature="0" fill="#006BB3" d="M1524.809,710.45
			c-61.845,3.711-124.529-12.531-124.529-12.531c4.95,15.461,117.815,122.761,117.815,122.761
			C1523.137,815.262,1524.809,710.45,1524.809,710.45L1524.809,710.45z"/>
		<path id="path4543" inkscape:connector-curvature="0" fill="#655A9F" d="M1661.478,681.379
			c-27.83,19.174-136.669,29.072-136.669,29.072s-1.672,104.812-6.714,110.23l96.433,79.04
			C1671.676,786.545,1661.478,681.379,1661.478,681.379z"/>
		<path id="path4545" inkscape:connector-curvature="0" fill="#9AC00B" d="M1317.928,555.523
			c-7.422-4.948-165.462,2.958-165.462,2.958c99.748,115.357,247.814,139.438,247.814,139.438
			C1329.263,613.965,1325.35,560.47,1317.928,555.523L1317.928,555.523z"/>
		<path id="path4547" inkscape:connector-curvature="0" fill="#1EA56D" d="M1489.236,574.695
			c-56.28-19.171-171.308-19.173-171.308-19.173c7.422,4.948,11.335,58.442,82.352,142.397c0,0,60.033,15.556,120.561,12.741
			C1524.311,658.618,1489.236,574.695,1489.236,574.695z"/>
		<path id="path4549" inkscape:connector-curvature="0" fill="#009BBA" d="M1661.478,681.379
			c-16.691-85.652-172.242-106.683-172.242-106.683s35.075,83.923,31.606,135.965c1.325-0.061,2.646-0.131,3.968-0.21
			C1524.809,710.45,1633.648,700.553,1661.478,681.379z"/>
		<path id="path4551" inkscape:connector-curvature="0" fill="#FEC400" d="M1252.048,376.174
			c-32.779,30.303-73.605,12.23-73.605,12.23c-15.281,49.944-57.021,128.726-57.021,128.726
			c-0.122,9.362,31.045,41.352,31.045,41.352s158.039-7.906,165.462-2.958c-10.807-47.621,4.621-63.082,4.621-63.082
			c27.213-37.723,95.241-25.355,95.241-25.355c-1.857-64.937-55.66-87.821-55.66-87.821
			C1305.855,347.108,1252.048,376.174,1252.048,376.174z"/>
		<path id="path4553" inkscape:connector-curvature="0" fill="#0066B3" d="M1556.396,1835.588c13.686,0,24.74-8.873,24.74-22.869
			c0-13.996-11.054-23.142-24.74-23.142c-13.69,0-24.744,9.146-24.744,23.142
			C1531.652,1826.715,1542.707,1835.588,1556.396,1835.588z"/>
		<path id="path4555" inkscape:connector-curvature="0" fill="#0066B3" d="M1627.99,1835.588c13.686,0,24.478-8.873,24.478-22.869
			c0-13.996-10.792-23.142-24.478-23.142c-13.952,0-24.744,9.146-24.744,23.142
			C1603.246,1826.715,1614.038,1835.588,1627.99,1835.588z"/>
		<path id="path4557" inkscape:connector-curvature="0" fill="#0066B3" d="M1590.084,2044.142c38.692,0,74.491-22.338,74.491-64.584
			v-126.208h-47.643v125.131c0,15.613-13.686,22.338-26.582,22.338c-13.686,0-27.11-6.725-27.11-22.338v-125.131h-48.167v126.208
			C1515.073,2021.804,1551.13,2044.142,1590.084,2044.142z"/>
		<path id="path4559" inkscape:connector-curvature="0" fill="#0066B3" d="M1501.243,1853.349h-138.185v42.785h67.648
			l-74.229,138.588v6.998h145.556v-43.863h-74.749l73.959-137.237V1853.349z"/>
		<path id="path4561" inkscape:connector-curvature="0" fill="#0066B3" d="M1232.254,1835.588c13.69,0,24.744-8.873,24.744-22.869
			c0-13.996-11.054-23.142-24.744-23.142c-13.686,0-24.74,9.146-24.74,23.142
			C1207.513,1826.715,1218.568,1835.588,1232.254,1835.588z"/>
		<path id="path4563" inkscape:connector-curvature="0" fill="#0066B3" d="M1303.847,1835.588c13.69,0,24.478-8.873,24.478-22.869
			c0-13.996-10.789-23.142-24.478-23.142c-13.948,0-24.74,9.146-24.74,23.142
			C1279.107,1826.715,1289.899,1835.588,1303.847,1835.588z"/>
		<path id="path4565" inkscape:connector-curvature="0" fill="#0066B3" d="M1265.945,2044.142c38.692,0,74.491-22.338,74.491-64.584
			v-126.208h-47.643v125.131c0,15.613-13.686,22.338-26.586,22.338c-13.686,0-27.106-6.725-27.106-22.338v-125.131h-48.167v126.208
			C1190.933,2021.804,1226.99,2044.142,1265.945,2044.142z"/>
		<path id="path4567" inkscape:connector-curvature="0" fill="#0066B3" d="M1012,1853.622v188.098h70.276
			c61.063,0,91.595-47.628,90.805-94.99c0-46.285-30.794-93.108-90.805-93.108H1012z"/>
		<path id="path4569" inkscape:connector-curvature="0" fill="#0066B3" d="M932.637,2041.72h54.482v-7.264
			c-17.897-27.992-35.009-56.243-52.64-84.227c10.265-11.575,16.58-27.453,22.637-50.057c2.894-11.567,10.789-14.262,22.371-13.45
			v-33.1c-43.166-9.154-61.067,9.419-66.592,32.288c-5.263,22.603-8.161,33.905-16.583,38.216c-6.577,3.492-19.215,2.96-26.844,2.96
			v-73.738h-48.171v188.371h48.171v-71.848c6.577,0,17.37,0,22.899-0.812L932.637,2041.72z"/>
		<path id="path4571" inkscape:connector-curvature="0" fill="#0066B3" d="M745.428,1839.087c15.794,0,28.166-9.419,28.166-24.751
			c0-15.074-12.372-25.032-28.166-25.032c-15.79,0-28.424,9.958-28.424,25.032C717.004,1829.668,729.639,1839.087,745.428,1839.087z
			"/>
		<path id="path4573" inkscape:connector-curvature="0" fill="#0066B3" d="M769.645,2001.895v-108.72h21.319v-39.825h-90.805v39.825
			h21.319v108.72h-23.427v39.825h95.02v-39.825H769.645z"/>
		<path id="path4575" inkscape:connector-curvature="0" fill="#0066B3" d="M614.215,1853.349h-48.167v188.371h114.759v-44.129
			h-66.592V1853.349z"/>
		<path id="path4577" inkscape:connector-curvature="0" fill="#0066B3" d="M470.534,1915.785l-33.429-62.436h-51.588v7.271
			l61.853,106.558v74.542h48.167v-74.542l61.591-106.558v-7.271h-51.061l-33.429,62.436H470.534z"/>
		<path id="path4579" inkscape:connector-curvature="0" fill="#0066B3" d="M376.522,1853.349H261.501v188.371h117.391v-44.941
			h-69.224V1966.1h61.591v-43.051h-61.591v-26.915h66.854V1853.349z"/>
		<path id="path4581" inkscape:connector-curvature="0" fill="#0066B3" d="M228.009,1910.396c0-34.975-23.951-57.852-58.169-57.852
			H88.51v188.098h88.701c37.902,0,58.431-25.025,58.431-57.32c0-17.222-7.895-32.554-22.899-40.364
			C221.956,1935.428,228.009,1921.971,228.009,1910.396z"/>
		<path id="path4583" inkscape:connector-curvature="0" fill="#0066B3" d="M1348.592,2093.637c8.205,0,14.635-4.894,14.635-12.859
			c0-7.832-6.43-13.007-14.635-13.007c-8.209,0-14.775,5.175-14.775,13.007C1333.818,2088.743,1340.384,2093.637,1348.592,2093.637z
			"/>
		<path id="path4585" inkscape:connector-curvature="0" fill="#0066B3" d="M1361.175,2181.467v-56.501h11.08v-20.699h-47.192v20.699
			h11.08v56.501h-12.173v20.691h49.381v-20.691H1361.175z"/>
		<path id="path4587" inkscape:connector-curvature="0" fill="#0066B3" d="M1213.356,2172.092
			c-0.41,21.961,19.012,32.311,39.257,32.311c19.562,0,39.124-10.77,39.124-31.329c0-23.777-17.783-28.671-38.164-30.487
			c-9.165-0.982-14.638-2.517-14.638-9.094c0-7.411,7.389-8.947,12.996-8.947c6.703,0,12.859,2.798,12.996,9.508h23.39
			c0.41-21.252-18.329-32.023-36.795-32.023c-19.562,0-37.208,10.77-37.208,32.023c0,20.418,17.51,27.549,35.02,28.671
			c6.976,0.421,17.646,0.842,17.646,10.209c0,5.876-7.526,9.228-14.638,9.228c-7.659,0-15.185-3.352-15.185-10.069H1213.356z"/>
		<path id="path4589" inkscape:connector-curvature="0" fill="#0066B3" d="M1176.79,2104.267h-59.775v97.891h61.008v-23.349h-35.976
			v-15.945h32.008v-22.375h-32.008v-13.989h34.743V2104.267z"/>
		<path id="path4591" inkscape:connector-curvature="0" fill="#0066B3" d="M1037.408,2136.711l-17.373-32.443h-26.811v3.78
			l32.145,55.379v38.733h25.032v-38.733l32.008-55.379v-3.78h-26.534l-17.373,32.443H1037.408z"/>
		<path id="path4593" inkscape:connector-curvature="0" fill="#0066B3" d="M941.975,2093.637c8.209,0,14.638-4.894,14.638-12.859
			c0-7.832-6.43-13.007-14.638-13.007c-8.205,0-14.771,5.175-14.771,13.007C927.204,2088.743,933.77,2093.637,941.975,2093.637z"/>
		<path id="path4595" inkscape:connector-curvature="0" fill="#0066B3" d="M954.561,2181.467v-56.501h11.08v-20.699h-47.193v20.699
			h11.08v56.501h-12.176v20.691h49.381v-20.691H954.561z"/>
		<path id="path4597" inkscape:connector-curvature="0" fill="#0066B3" d="M798.349,2104.407v97.751h36.526
			c31.735,0,47.602-24.751,47.193-49.363c0-24.058-16.008-48.388-47.193-48.388H798.349z"/>
		<path id="path4599" inkscape:connector-curvature="0" fill="#0066B3" d="M756.863,2104.267h-59.779v97.891h61.008v-23.349h-35.976
			v-15.945h32.008v-22.375h-32.008v-13.989h34.747V2104.267z"/>
		<path id="path4601" inkscape:connector-curvature="0" fill="#0066B3" d="M627.004,2104.267h-25.032v97.891h59.642v-22.936h-34.61
			V2104.267z"/>
		<path id="path4603" inkscape:connector-curvature="0" fill="#0066B3" d="M558.478,2104.267H498.7v97.891h61.011v-23.349h-35.976
			v-15.945h32.008v-22.375h-32.008v-13.989h34.743V2104.267z"/>
		<path id="path4605" inkscape:connector-curvature="0" fill="#0066B3" d="M454.113,2133.913c0-18.182-12.45-30.067-30.233-30.067
			h-42.269v97.759h46.1c19.699,0,30.369-13.007,30.369-29.793c0-8.947-4.108-16.919-11.903-20.972
			C450.964,2146.92,454.113,2139.929,454.113,2133.913L454.113,2133.913z"/>
		<path id="path4607" inkscape:connector-curvature="0" fill="#FFFFFF" d="M422.101,2126.081c5.06,0,7.526,4.341,7.389,8.674
			c-0.14,3.913-2.602,7.692-7.389,7.692h-15.454v-16.366H422.101z"/>
		<path id="path4609" inkscape:connector-curvature="0" fill="#FFFFFF" d="M425.796,2163.145c1.642,0,2.872,0.421,4.104,0.974
			c2.325,1.683,3.554,4.761,3.418,7.692c-0.41,3.92-2.598,7.559-7.386,7.559h-19.285v-16.225H425.796z"/>
		<path id="path4611" inkscape:connector-curvature="0" fill="#FFFFFF" d="M173.527,1966.639c3.156,0,5.525,0.812,7.895,1.882
			c4.473,3.233,6.843,9.154,6.581,14.801c-0.79,7.537-5.001,14.535-14.214,14.535h-37.113v-31.218H173.527z"/>
		<path id="path4613" inkscape:connector-curvature="0" fill="#FFFFFF" d="M166.418,1895.33c9.737,0,14.476,8.342,14.214,16.683
			c-0.262,7.537-5.001,14.801-14.214,14.801h-29.742v-31.484H166.418z"/>
		<path id="path4615" inkscape:connector-curvature="0" fill="#FFFFFF" d="M823.385,2179.09v-51.747h11.213
			c14.775,0,22.434,12.867,22.434,25.733c0,13.007-7.249,26.014-22.434,26.014H823.385z"/>
		<path id="path4617" inkscape:connector-curvature="0" fill="#FFFFFF" d="M1060.167,1997.318v-99.567h21.581
			c28.428,0,43.166,24.759,43.166,49.518c0,25.025-13.948,50.049-43.166,50.049H1060.167z"/>
	</g>
</g>
</svg>
