<?xml version="1.0" encoding="utf-8"?>
<!-- Generator: Adobe Illustrator 16.0.0, SVG Export Plug-In . SVG Version: 6.00 Build 0)  -->
<!DOCTYPE svg PUBLIC "-//W3C//DTD SVG 1.1//EN" "http://www.w3.org/Graphics/SVG/1.1/DTD/svg11.dtd">
<svg version="1.1" id="Layer_1" xmlns="http://www.w3.org/2000/svg" xmlns:xlink="http://www.w3.org/1999/xlink" x="0px" y="0px"
	 width="612px" height="792px" viewBox="0 0 612 792" enable-background="new 0 0 612 792" xml:space="preserve">
<g>
	<g>
		<path fill-rule="evenodd" clip-rule="evenodd" fill="#FEFDFD" d="M51.48,13.48c170.24,0,340.48,0,510.72,0
			c0,255.2,0,510.4,0,765.6c-170.24,0-340.48,0-510.72,0C51.48,523.88,51.48,268.68,51.48,13.48z"/>
		<path fill-rule="evenodd" clip-rule="evenodd" fill="#658CA0" d="M252.079,420.888c3.918-2.951,8.199-5.353,12.257-8.091
			c1.767-1.191,3.608-2.273,5.415-3.405c5.354-0.251,10.703-0.092,16.043,0.3c0.904,0.065,2.088-0.026,2.439,1.113
			c0.297,0.964-0.43,1.784-1.132,2.219c-4.496,2.782-5,7.043-4.59,11.73c0.132,1.508-0.024,3.04,0.039,4.557
			c0.035,0.827-0.396,1.956,0.602,2.369c0.896,0.371,1.583-0.54,2.311-0.997c0.27-0.17-0.06,0.054,0.193-0.142
			c3.996-3.069,8.02-6.102,12.004-9.184c5.451-3.942,11.099-7.598,16.675-11.36c6.656-4.185,13.477-8.07,20.652-11.314
			c3.027-1.446,6.139-2.681,9.385-3.512c2.067-0.529,2.938-1.621,3.095-3.838c0.526-7.477,0.412-14.956,0.423-22.437
			c0.003-2.163,0.493-4.269,0.598-6.415c0.28-1.636,1.619-2.524,2.596-3.668c3.671-4.23,7.024-8.702,10.169-13.336
			c0.487-0.718,0.913-2.159,2.196-0.729c0.452,1.815,0.428,3.686,0.187,5.482c-0.641,4.781-0.476,9.575-0.365,14.355
			c0.192,8.391-0.474,16.754-0.569,25.135c-0.034,2.973,0.723,5.113,3.627,6.282c1.423,0.573,2.535,1.655,3.459,2.889
			c0.482,0.645,0.924,1.316,1.8,1.468c0.826,8.515-0.962,16.306-6.185,23.239c-2.706,3.591-5.735,6.842-9.063,9.851
			c-11.904,10.763-23.779,21.559-35.667,32.339c-0.473,0.429-0.968,0.833-1.452,1.248c-1.419,0.447-1.519-0.772-1.444-1.462
			c0.416-3.856-0.594-8.135,3.174-11.065c1.138-0.885,1.536-2.227,1.461-3.658c-0.502-9.504-0.45-19.018-0.52-28.53
			c-0.016-2.209-0.738-2.465-2.714-1.464c-3.135,1.59-4.672,3.775-4.485,7.589c0.573,11.727,0.876,23.467,1.419,35.198
			c0.248,5.345,0.435,10.703,0.5,16.049c0.07,5.672,0.704,11.321,0.514,16.995c-0.024,0.729,0.07,1.438,0.468,2.074
			c0.904,3.622-2.533,9.882-6.063,11.053c-0.487,0.161-0.93,0.171-1.289-0.266c-0.515-0.66-0.737-1.442-0.708-2.243
			c0.125-3.439-0.494-6.833-0.562-10.264c-0.256-12.906-0.746-25.805-1.346-38.7c-0.237-5.093-0.23-10.195-0.473-15.294
			c-0.171-3.58-0.587-7.147-0.61-10.738c-0.013-1.902-0.556-2.127-2.177-1.166c-0.686,0.406-1.296,0.93-1.967,1.354
			c-2.485,1.249-4.451,3.233-6.707,4.809c-4.928,3.661-9.934,7.218-14.732,11.06c-2.214,1.773-4.25,3.6-5.25,6.335
			c-15.071,11.75-29.64,24.123-44.639,35.963c-2.35-0.371-3.999,0.909-5.642,2.312c-2.428,2.071-5.077,3.869-7.489,5.961
			c-0.693,0.601-1.526,0.838-2.324,1.188c-0.327,0.222-0.693,0.533-1.031,0.103c-1.577-2.011-3.123-4.045-4.69-6.063
			c-0.376-0.485-0.258-0.866,0.171-1.223c0.676-0.562,1.345-1.131,2.027-1.686c6.63-5.395,13.268-10.781,19.888-16.19
			c0.703-0.574,1.734-0.994,1.457-2.233c4.838-3.127,8.999-7.108,13.481-10.689c4.811-3.95,9.637-7.879,14.436-11.839
			c2.099-1.731,3.083-3.936,3.098-6.697c0.023-4.381-0.193-8.76,0.343-13.147c0.262-2.139,0.955-3.791,2.511-5.202
			c0.626-0.568,1.721-1.21,1.392-2.058c-0.408-1.048-1.7-0.604-2.584-0.557c-4.083,0.22-8.11-0.601-12.182-0.566
			C253.176,422.083,252.098,422.204,252.079,420.888z"/>
		<path fill-rule="evenodd" clip-rule="evenodd" fill="#799AAD" d="M347.109,474.772c0.768,1.255,1.4,2.506,1.675,4.03
			c0.242,1.342,0.437,2.724,0.811,4.052c0.261,0.419,0.213,0.841,0.015,1.265c-4.296,8.193-3.136,16.919-2.496,25.594
			c0.587,7.958,1.17,15.915,1.742,23.874c0.749,10.425,1.384,20.857,2.196,31.279c0.44,5.646,0.827,11.301,1.167,16.956
			c0.507,8.443,1.214,16.872,1.739,25.313c0.347,5.575,0.98,11.133,1.128,16.719c0.121,4.578,0.691,5.189,5.356,5.206
			c3.036,0.01,6.073-0.057,9.107,0.038c0.95,0.029,2.16-0.255,2.565,1.129c-0.715,0.034-1.43,0.099-2.144,0.099
			c-20.886,0.003-41.771,0-62.656-0.007c-0.636,0-1.271-0.061-1.906-0.093c0.411-1.38,1.611-1.054,2.554-1.091
			c2.465-0.098,4.934-0.027,7.4-0.044c1.671-0.011,2.381-0.687,2.376-2.465c-0.009-3.588-0.676-7.127-0.631-10.713
			c0.016-1.274-0.662-2.263-1.551-3.116c-0.482-1.012,0.413-1.251,0.971-1.552c1.528-0.827,2.326-2.18,2.697-3.76
			c0.645-2.74,0.68-5.51-0.141-8.235c-0.683-2.27-2.111-3.665-4.588-3.855c-0.735-0.057-1.653,0.085-1.976-0.933
			c3.072-1.221,2.864-3.798,2.656-6.385c-0.903-11.219-1.631-22.448-2.396-33.676c-0.457-6.688-0.938-13.376-1.417-20.063
			c-0.157-2.202-0.98-2.621-2.99-1.626c-5.313,2.631-6.11,2.13-6.089-3.837c0.004-1.038-0.046-2.08,0.175-3.104
			c0.198-0.814,0.735-1.391,1.393-1.854c2.269-1.595,4.443-3.302,6.48-5.188c0.634-0.586,1.345-1.146,2.331-0.84
			c0.964,1.548,0.363,3.269,0.53,4.905c0.119,1.164-0.253,2.377,0.462,3.812c7.508-6.473,14.459-13.299,20.736-20.814
			c3.093-3.669,5.826-7.585,8.341-11.671c1.606-2.609,2.303-5.402,2.33-8.412c0.026-2.872-0.099-5.748,0.064-8.614
			C345.193,475.976,344.964,474.267,347.109,474.772z"/>
		<path fill-rule="evenodd" clip-rule="evenodd" fill="#61899D" d="M372.115,630.228c-0.665-0.656-1.509-0.405-2.281-0.41
			c-3.839-0.027-7.678-0.004-11.517-0.027c-2.613-0.015-3.997-1.139-3.901-3.712c0.141-3.768-0.394-7.486-0.644-11.21
			c-0.194-2.911-0.013-5.894-0.785-8.769c-0.101-0.377-0.094-0.799-0.06-1.192c0.307-3.602-0.396-7.156-0.572-10.732
			c-0.234-4.758-0.654-9.511-0.942-14.273c-0.288-4.758-0.646-9.515-0.973-14.271c-0.3-4.358-0.687-8.709-0.952-13.074
			c-0.29-4.758-0.709-9.507-0.969-14.273c-0.237-4.357-0.655-8.711-0.942-13.073c-0.304-4.598-0.686-9.19-0.972-13.793
			c-0.305-4.918-0.807-9.819-0.925-14.756c-0.08-3.368,0.787-6.466,2.026-9.498c0.466-1.138,0.489-2.575,1.814-3.25
			c0.396,0.192,0.196,0.682,0.466,0.938c1.605,8.549,3.149,17.111,4.829,25.646c3.273,16.63,7.256,33.07,13.46,48.897
			c2.308,5.884,4.976,11.599,7.922,17.187c0.407,0.771,0.751,1.576,1.125,2.365c-0.621,2.611-0.26,5.269-0.078,7.86
			c0.559,7.961,1.08,15.927,1.691,23.886c0.379,4.934,0.624,9.878,1.085,14.808c0.315,3.365,0.45,3.55,3.941,3.563
			c4.556,0.017,9.112-0.045,13.667,0.04c1.009,0.019,2.33-0.375,2.805,1.127c-4.282,0.03-8.565,0.085-12.848,0.083
			C382.43,630.309,377.272,630.258,372.115,630.228z"/>
		<path fill-rule="evenodd" clip-rule="evenodd" fill="#366F85" d="M262.203,630.23c-11.039,0.122-22.079,0.188-33.118,0.002
			c0.66-1.604,2.116-1.133,3.279-1.143c7.351-0.059,14.702-0.026,22.053-0.029c0.719,0,1.439,0.017,2.157-0.011
			c2.526-0.095,3.128-0.655,2.881-3.229c-0.237-2.468-0.261-4.945-0.483-7.406c-1.053-11.685-1.654-23.403-2.625-35.097
			c-0.653-7.864-1.008-15.768-1.613-23.646c-0.232-3.025-0.497-6.044-0.553-9.083c-0.029-1.552-0.017-3.257-1.579-4.31
			c1.27-4.109,2.581-8.206,3.801-12.33c2.536-8.576,4.567-17.275,6.291-26.049c0.075-0.381,0.249-0.742,0.377-1.111
			c1.065,0.943,0.761,2.227,0.722,3.372c-0.178,5.238,0.433,10.378,1.854,15.41c1.413,5.001,3.922,9.255,8.594,11.934
			c0.625,0.358,1.246,0.725,1.936,0.941c1.894,0.599,2.485,0.192,2.633-1.765c0.133-1.75-0.236-3.507,0.068-5.255
			c0.803-0.674,1.642-0.252,2.417,0.004c0.94,0.312,1.824,0.227,2.731-0.044c2.341-0.212,4.69-0.332,6.965-1.028
			c0.557-0.17,1.246-0.378,1.682,0.342c0.23,2.15,0.027,4.3-0.066,6.443c-0.091,2.075-1.473,3.066-3.355,3.504
			c-2.987,0.693-6.012,0.745-9.047,0.477c-3.171-0.28-3.482-0.126-3.319,3.143c0.282,5.652,0.724,11.297,1.122,16.942
			c0.42,5.963,0.874,11.923,1.263,17.889c0.441,6.761,0.937,13.508,1.037,20.295c0.041,2.802,1.113,5.602,0.278,8.47
			c-0.219,1.313-0.658,2.625-0.022,3.945c0.832,0.858,0.995,1.955,1.157,3.07c0.552,3.786,0.597,7.612,0.834,11.419
			c0.197,3.171-0.542,3.69-3.668,3.744C273.327,630.137,267.76,629.776,262.203,630.23z"/>
		<path fill-rule="evenodd" clip-rule="evenodd" fill="#176077" d="M252.604,546.28c1.297-0.684,1.654-0.646,1.796,0.427
			c0.208,1.57,0.688,3.089,0.627,4.721c-0.141,3.822,0.309,7.613,0.88,11.39c0.036,0.236,0.064,0.48,0.044,0.716
			c-0.294,3.519,0.319,7.01,0.601,10.482c0.374,4.597,0.153,9.228,0.86,13.794c0.67,4.331,0.535,8.721,0.962,13.066
			c0.482,4.906,0.542,9.853,1.075,14.733c0.345,3.16,0.152,6.334,0.734,9.498c0.755,4.104,0.031,4.683-4.12,4.686
			c-8.154,0.005-16.308,0.001-24.461,0.028c-0.846,0.002-1.774-0.294-2.518,0.411c-8.267,0.034-16.533,0.082-24.799,0.096
			c-3.574,0.006-7.148-0.062-10.723-0.096c0.661-1.6,2.117-1.144,3.283-1.151c8.797-0.056,17.595-0.024,26.393-0.031
			c4.166-0.003,4.361-0.021,4.089-4.086c-0.508-7.57-1.024-15.142-1.61-22.707c-0.124-1.606-0.66-3.12-1.057-4.665
			c5.377-7.157,10.317-14.604,14.725-22.396c5.083-8.984,9.361-18.338,12.757-28.09C252.245,546.813,252.448,546.555,252.604,546.28
			z"/>
		<path fill-rule="evenodd" clip-rule="evenodd" fill="#528095" d="M262.203,630.23c0.741-0.698,1.663-0.404,2.505-0.41
			c4.849-0.032,9.699-0.013,14.548-0.032c2.132-0.009,2.674-0.392,2.586-2.426c-0.164-3.783-0.297-7.574-0.803-11.336
			c-0.053-0.393-0.156-0.799-0.104-1.181c0.179-1.298-0.264-2.265-1.397-2.919c1.559-0.938,3.277-0.403,4.922-0.514
			c2.1-0.141,4.237,0.213,6.408-0.27c-0.398-1.051-1.127-0.815-1.701-0.847c-1.115-0.063-2.237,0.022-3.354-0.046
			c-0.781-0.049-1.724,0.042-2.087-0.84c-0.382-0.927,0.422-1.452,1.005-1.97c1.497-1.326,2.928-2.722,4.266-4.202
			c2.068-2.288,2.343-4.734,0.818-6.461c-1.449-1.641-5.76-1.991-7.575-0.551c-0.712,0.565-1.792,1.329-0.949,2.302
			c0.703,0.813,1.615,0.095,2.237-0.581c1.155-1.254,2.528-1.958,3.96-0.69c1.372,1.215,1.011,2.813,0.056,4.138
			c-1.783,2.474-4.068,4.488-6.328,6.513c-0.333,0.299-0.788,0.586-1.286,0.2c0.049-0.792,0.007-1.579,0.268-2.364
			c0.385-1.16,0.395-2.353-0.088-3.509c-0.599-1.432-0.738-2.925-0.637-4.456c0.319-4.786-0.23-9.55-0.547-14.307
			c-0.3-4.51-0.612-9.022-0.944-13.531c-0.35-4.748-0.652-9.5-1-14.247c-0.318-4.352-0.778-8.693-0.853-13.059
			c-0.041-2.382,0.604-2.982,2.807-2.483c3.505,0.794,6.963,0.325,10.421-0.179c1.781-0.259,2.538-1.293,2.6-3.135
			c0.071-2.14-0.27-4.311,0.479-6.398c1.937-2.017,4.49-2.839,6.164-1.981c0.487,3.74,0.955,7.47-1.498,10.812
			c-0.489,0.666-0.551,1.491-0.478,2.301c0.893,9.842,1.349,19.715,2.165,29.563c0.559,6.749,0.821,13.522,1.451,20.269
			c0.125,1.338-0.275,2.525-1.321,3.436c-4.274,3.152-5.632,9.903-2.988,14.472c1.004,1.734,2.882,2.159,4.322,3.24
			c2.061,2.119,1.628,4.923,1.956,7.477c0.263,2.047,0.179,4.138,0.39,6.209c0.285,2.791-0.711,3.748-3.49,3.804
			c-4.622,0.094-9.25-0.249-13.867,0.189C277.565,630.351,269.884,630.417,262.203,630.23z"/>
		<path fill-rule="evenodd" clip-rule="evenodd" fill="#28677D" d="M332.79,211.653c1.559,7.415,5.256,14,8.123,20.907
			c0.624,1.502,0.91,3.161,2.013,4.447c0.146,1.246-0.756,1.643-1.66,2.002c-0.679,0.27-1.404,0.271-2.128,0.242
			c-4.571-0.187-4.492-0.114-4.69,4.435c-0.512,11.718-0.641,23.449-1.35,35.16c-0.284,4.698-0.251,9.414-0.397,14.116
			c-0.2,6.459-0.49,12.921-0.689,19.381c-0.359,11.641-0.608,23.288-1.285,34.92c-0.301,5.175,0.062,10.38-0.548,15.548
			c-0.197,1.574-1.396,2.392-2.512,3.244c-0.538,0.41-1.151,0.566-1.56-0.24c-0.638-3.41-0.414-6.85-0.172-10.265
			c0.141-1.992,0.273-3.979,0.327-5.976c0.34-12.61,0.684-25.22,1.36-37.818c0.257-4.783,0.33-9.584,0.421-14.365
			c0.141-7.428,0.408-14.859,0.719-22.271c0.447-10.688,0.389-21.4,1.299-32.065c0.648-7.585-0.476-14.798-3.961-21.581
			c-1.133,0.084-0.997,1.115-1.246,1.771c-2.195,5.771-4.617,11.442-7.345,16.982c-2.292,4.442-4.483,8.948-7.89,12.701
			c-1.872,2.295-4.081,4.21-6.557,5.833c-0.682,0.431-1.394,0.799-2.114,1.142c-1.383,0.658-1.971,1.716-1.991,3.246
			c-0.107,8.234,0.505,16.444,0.778,24.666c0.026,0.795,0.168,1.59,0.165,2.391c-0.057,12.147,0.809,24.268,1.072,36.409
			c0.208,9.656,0.585,19.318,1,28.971c0.437,10.13,0.753,20.261,1.007,30.396c-0.894,1.293-1.604,2.931-3.706,2.031
			c-0.291-0.588-0.378-1.228-0.356-1.866c0.195-5.756-0.383-11.492-0.599-17.231c-0.417-11.083-0.523-22.181-1.263-33.253
			c-0.33-4.936-0.312-9.898-0.431-14.839c-0.173-7.183-0.413-14.373-0.707-21.545c-0.49-11.962-0.601-23.94-1.36-35.892
			c-0.103-1.622-0.65-2.754-2.36-3.123c-1.526-0.329-2.684-1.376-3.978-2.14c-1.395-0.328-1.203-2.233-2.57-2.599
			c-0.838-4.505-0.34-8.863,1.302-13.139c2.144-5.578,5.832-10.213,9.235-15.07c-0.639,1.671-1.278,3.342-1.917,5.013
			c0.133,0.104,0.265,0.207,0.398,0.31c0.959-0.955,1.919-1.909,2.877-2.865c1.357-1.355,2.663-2.767,4.086-4.049
			c0.905-0.815,0.903-1.472,0.24-2.435c-1.021-1.484-1.9-3.065-2.992-4.854c2.69-0.134,4.978-0.021,7.24,0.323
			c1.485,0.227,2.554-0.136,3.57-1.304c2.245-2.583,4.636-5.039,7.288-7.891c-0.094,3.554-1.296,6.515-1.587,9.74
			c3.037,0,5.968,0.027,8.898-0.015c1.055-0.015,1.32-0.704,1.107-1.657c-0.294-1.317-0.777-2.601-0.736-3.981
			c1.51,0.322,2.732,1.415,4.446,1.321c1.69-0.092,3.001-0.267,3.117-2.315C332.246,212.259,332.448,211.9,332.79,211.653z"/>
		<path fill-rule="evenodd" clip-rule="evenodd" fill="#00374C" d="M206.49,686.988c0-3.771-0.004-7.417,0.001-11.063
			c0.011-8.399,0.023-16.798,0.043-25.197c0.006-2.759-0.275-2.525,2.624-2.531c2.08-0.005,4.162,0.056,6.239-0.021
			c1.285-0.048,1.747,0.468,1.597,1.688c-0.039,0.315-0.005,0.64-0.005,0.959c0,16.079,0,32.157,0,48.235
			c0,0.48-0.029,0.962,0.003,1.439c0.063,0.923-0.34,1.27-1.262,1.262c-3.6-0.029-7.2-0.06-10.798,0.017
			c-1.139,0.024-1.477-0.621-1.891-1.439c-2.849-5.631-5.725-11.249-8.599-16.867c-3.491-6.825-6.989-13.646-10.547-20.593
			c-0.58,0.488-0.375,1.056-0.377,1.523c-0.053,11.519-0.089,23.037-0.129,34.555c-0.002,0.641,0,1.28-0.01,1.92
			c-0.009,0.587-0.336,0.864-0.904,0.865c-2.88,0.003-5.76,0.002-8.639,0.001c-0.6,0-0.853-0.332-0.857-0.899
			c-0.003-0.48-0.006-0.96-0.006-1.439c0-16.239,0-32.478,0-48.716c0-0.4,0.024-0.802-0.003-1.199
			c-0.063-0.896,0.287-1.306,1.232-1.298c3.68,0.026,7.359,0.043,11.039-0.01c1.191-0.017,1.411,0.854,1.798,1.61
			c2.473,4.835,4.939,9.674,7.399,14.516c3.582,7.051,7.149,14.108,10.749,21.149C205.447,685.971,205.532,686.686,206.49,686.988z"
			/>
		<path fill-rule="evenodd" clip-rule="evenodd" fill="#678DA1" d="M298.192,594.707c1.444-1.019,1.679-2.426,1.3-4.032
			c-0.109-0.463-0.333-0.936-0.303-1.39c0.228-3.441-0.339-6.856-0.639-10.245c-0.28-3.156,0.11-6.385-0.777-9.489
			c-0.064-0.225-0.064-0.479-0.044-0.715c0.291-3.521-0.422-6.992-0.574-10.492c-0.207-4.757-0.809-9.501-0.9-14.274
			c-0.011-0.544-0.298-1.077-0.356-1.625c-0.169-1.591-0.352-3.135,1.112-4.401c1.003-0.867,1.18-2.22,1.187-3.525
			c0.01-2.159,0.003-4.318,0.004-6.478c1.239-1.563,2.669-2.791,4.822-2.753c-0.007,2.16-0.055,4.32-0.008,6.479
			c0.042,1.935,0.839,2.454,2.589,1.654c1.082-0.494,2.078-1.18,3.105-1.792c1.775-1.058,3.462-0.253,3.374,1.785
			c-0.15,3.525,0.459,6.995,0.609,10.497c0.202,4.678,0.623,9.356,0.933,14.036c0.305,4.6,0.673,9.194,0.962,13.798
			c0.289,4.599,0.738,9.188,0.993,13.796c0.105,1.891,0.384,3.793,0.374,5.704c-0.013,2.581-0.071,2.62-2.761,3.077
			c-0.216,0.037-0.403,0.239-0.604,0.364c-0.532,1.469-2.132,2.11-2.702,3.586c-1.431,3.703-1.32,7.345,0.264,10.954
			c0.548,1.248,1.563,1.969,2.863,2.358c0.826,0.249,1.768,0.221,2.428,0.916c1.079-0.028,1.86,0.324,2.05,1.52
			c0.062,0.388,0.333,0.759,0.331,1.137c-0.016,4.29,0.603,8.542,0.739,12.82c0.036,1.137-0.689,1.78-2.039,1.802
			c-2.947,0.048-5.896,0.005-8.843,0.035c-0.77,0.008-1.611-0.247-2.271,0.412c-6.721,0.111-13.442,0.183-20.164,0.002
			c0.661-0.658,1.502-0.407,2.271-0.413c3.824-0.026,7.649-0.006,11.473-0.024c2.306-0.011,3.443-1.162,2.987-3.41
			c-0.699-3.446-0.268-6.957-0.838-10.411c-0.222-1.347-0.792-2.374-1.503-3.422c0.145-0.192,0.308-0.385,0.536-0.461
			c2.291-0.772,4.27-1.901,4.795-4.514c0.703-3.493,0.975-6.972-0.958-10.215c-0.749-1.256-1.93-1.84-3.383-1.949
			C299.775,595.345,298.837,595.511,298.192,594.707z"/>
		<path fill-rule="evenodd" clip-rule="evenodd" fill="#00374C" d="M340.828,677.854c0,6.626,0,13.251,0,19.876
			c0,0.64,0.006,1.279-0.003,1.919c-0.027,2.074-0.03,2.086-2.122,2.097c-2.478,0.013-4.957-0.035-7.435,0.021
			c-1.036,0.023-1.481-0.327-1.382-1.372c0.045-0.476,0.005-0.959,0.005-1.438c0-15.99,0-31.98,0-47.972
			c0-0.319-0.006-0.64,0.002-0.959c0.041-1.79,0.042-1.809,1.887-1.825c2.238-0.021,4.477-0.012,6.716-0.003
			c2.245,0.009,2.262,0.017,2.265,2.199c0.01,5.836,0.004,11.673,0.004,17.51c0,0.792,0,1.585,0,2.407
			c0.918,0.05,1.135-0.659,1.499-1.092c5.396-6.429,10.799-12.853,16.124-19.34c1.002-1.22,2.019-1.783,3.633-1.726
			c3.488,0.126,6.985,0.039,10.653,0.039c-0.135,1.09-0.831,1.552-1.315,2.111c-6.278,7.253-12.573,14.491-18.858,21.738
			c-1.289,1.486-1.431,1.211-0.048,2.918c6.64,8.199,13.278,16.4,19.912,24.604c0.485,0.6,1.067,1.146,1.43,2.181
			c-3.221,0-6.251-0.253-9.22,0.066c-3.399,0.365-5.513-0.831-7.5-3.606c-4.558-6.363-9.493-12.456-14.279-18.656
			c-0.479-0.621-0.988-1.22-1.482-1.828C341.15,677.768,340.989,677.812,340.828,677.854z"/>
		<path fill-rule="evenodd" clip-rule="evenodd" fill="#00374C" d="M269.397,701.749c1.855-4.771,3.558-9.148,5.262-13.526
			c4.92-12.641,9.847-25.278,14.757-37.923c1.01-2.601,0.838-2.069,3.052-2.096c2.638-0.032,5.276-0.015,7.914-0.006
			c1.946,0.008,1.963,0.011,2.702,1.891c4.787,12.179,9.567,24.36,14.348,36.542c1.778,4.531,3.552,9.063,5.322,13.598
			c0.17,0.435,0.478,0.853,0.168,1.52c-3.422,0-6.922-0.043-10.42,0.026c-1.067,0.021-1.349-0.598-1.639-1.363
			c-1.133-2.984-2.264-5.969-3.407-8.948c-0.734-1.913-0.744-1.926-2.667-1.929c-5.915-0.008-11.831,0.049-17.744-0.04
			c-1.386-0.021-1.958,0.475-2.388,1.706c-1.052,3.012-2.266,5.968-3.362,8.965c-0.394,1.075-0.9,1.663-2.203,1.618
			C275.982,701.677,272.866,701.749,269.397,701.749z"/>
		<path fill-rule="evenodd" clip-rule="evenodd" fill="#00374C" d="M166.54,701.743c-3.515,0-7.088-0.015-10.662,0.01
			c-0.98,0.007-1.125-0.7-1.38-1.371c-1.133-2.985-2.27-5.969-3.417-8.948c-0.726-1.887-0.735-1.897-2.695-1.899
			c-5.837-0.008-11.674-0.008-17.511,0c-2.217,0.003-1.885-0.121-2.668,1.933c-1.137,2.983-2.258,5.973-3.409,8.95
			c-0.247,0.639-0.39,1.359-1.393,1.347c-3.327-0.045-6.654-0.018-9.933-0.018c-0.293-1.087,0.236-1.777,0.514-2.492
			c6.327-16.296,12.676-32.584,19.031-48.869c0.924-2.369,0.421-2.179,3.233-2.187c2.479-0.008,4.958-0.021,7.437,0.004
			c2.342,0.024,2.125-0.473,3.108,2.033c4.376,11.146,8.745,22.293,13.113,33.441c2.125,5.426,4.241,10.855,6.361,16.282
			C166.468,700.47,166.819,700.948,166.54,701.743z"/>
		<path fill-rule="evenodd" clip-rule="evenodd" fill="#00374C" d="M523.475,701.749c-4.639,0-9.278,0.007-13.917-0.003
			c-1.994-0.005-2.022-0.021-2.022-1.9c-0.008-16.557-0.008-33.114-0.001-49.671c0.001-1.943,0.025-1.972,1.976-1.974
			c9.278-0.011,18.557-0.012,27.835,0.001c1.806,0.003,1.817,0.037,1.841,1.863c0.019,1.439,0.017,2.88,0.001,4.319
			c-0.028,2.641,0.339,2.356-2.493,2.365c-5.119,0.016-10.238,0.004-15.357,0.005c-0.479,0-0.967,0.056-1.438-0.011
			c-1.248-0.174-1.459,0.474-1.444,1.54c0.045,3.279,0.063,6.56-0.009,9.838c-0.026,1.211,0.278,1.659,1.579,1.64
			c4.878-0.073,9.758-0.043,14.637-0.023c2.919,0.011,2.681-0.433,2.693,2.685c0.006,1.36,0.014,2.72-0.003,4.079
			c-0.021,1.821-0.03,1.844-1.803,1.849c-4.72,0.013-9.438-0.02-14.158,0.012c-3.33,0.022-2.891-0.521-2.916,2.907
			c-0.025,3.438,0.042,6.879-0.029,10.317c-0.025,1.239,0.341,1.631,1.611,1.616c5.518-0.067,11.037-0.029,16.557-0.029
			c0.479,0,0.965,0.046,1.438-0.007c0.982-0.108,1.243,0.382,1.23,1.263c-0.029,1.999-0.051,4,0.009,5.998
			c0.031,1.073-0.413,1.347-1.419,1.339C533.073,701.727,528.273,701.749,523.475,701.749z"/>
		<path fill-rule="evenodd" clip-rule="evenodd" fill="#00374C" d="M423.012,675.017c0-8.238-0.005-16.476,0.004-24.714
			c0.002-2.081,0.021-2.102,2.088-2.104c9.118-0.008,18.235,0.003,27.354-0.007c2.522-0.002,2.166,0.134,2.172,2.271
			c0.004,1.52,0.016,3.039-0.005,4.559c-0.022,1.687-0.036,1.721-1.699,1.727c-5.438,0.017-10.877-0.007-16.316,0.012
			c-2.938,0.01-2.714-0.428-2.722,2.657c-0.009,2.879-0.018,5.758,0.004,8.638c0.012,1.639,0.037,1.667,1.737,1.672
			c4.959,0.016,9.918,0.006,14.876,0.006c2.432,0,2.287-0.187,2.285,2.377c0,1.6-0.071,3.204,0.022,4.798
			c0.071,1.202-0.409,1.479-1.521,1.467c-4.799-0.049-9.598-0.02-14.396-0.02c-0.56,0-1.124,0.046-1.679-0.008
			c-1.094-0.105-1.369,0.447-1.342,1.425c0.045,1.599,0.012,3.199,0.012,4.799c0,1.999-0.014,3.999,0.003,5.998
			c0.023,2.967-0.296,2.591,2.5,2.601c5.278,0.019,10.557,0.005,15.836,0.006c0.56,0,1.119,0.015,1.679,0.009
			c0.608-0.007,0.845,0.325,0.845,0.889c0.001,2.239-0.005,4.479,0.006,6.718c0.003,0.719-0.353,0.991-1.036,0.958
			c-0.398-0.02-0.799,0.001-1.199,0.001c-9.117,0-18.235-0.002-27.354,0.001c-2.295,0.001-2.151,0.153-2.151-2.26
			C423.012,691.333,423.012,683.175,423.012,675.017z"/>
		<path fill-rule="evenodd" clip-rule="evenodd" fill="#00374C" d="M464.33,675.022c0-8.229-0.004-16.457,0.003-24.687
			c0.002-2.109,0.019-2.156,2.052-2.131c5.429,0.066,10.861-0.216,16.287,0.23c2.078,0.171,4.121,0.513,6.117,1.087
			c8.723,2.511,12.214,8.622,11.29,17.227c-0.89,8.29-6.304,13.272-15.099,14.393c-2.54,0.323-5.087,0.451-7.647,0.414
			c-2.259-0.033-2.104-0.194-2.104,2.014c-0.002,5.192-0.001,10.386-0.001,15.579c0,0.479-0.021,0.959,0.001,1.438
			c0.036,0.784-0.259,1.175-1.103,1.168c-2.876-0.023-5.753-0.043-8.628,0.009c-1.242,0.021-1.172-0.742-1.171-1.574
			c0.007-5.992,0.003-11.984,0.003-17.976C464.33,679.816,464.33,677.419,464.33,675.022z"/>
		<path fill-rule="evenodd" clip-rule="evenodd" fill="#00374C" d="M76.478,690.866c2.939,1.429,5.806,2.578,8.907,3.017
			c3.244,0.46,6.379,0.318,9.266-1.444c3.96-2.419,4.265-6.799,0.678-9.733c-1.059-0.866-2.263-1.491-3.504-2.054
			c-3.272-1.481-6.572-2.908-9.803-4.476c-4.736-2.298-7.149-6.204-7.499-11.406c-0.151-2.245,0.013-4.476,0.704-6.638
			c1.59-4.976,5.104-7.997,9.931-9.598c4.825-1.6,9.775-1.297,14.716-0.724c1.663,0.193,3.298,0.572,4.912,1.051
			c0.814,0.242,1.203,0.548,1.085,1.489c-0.314,2.521-0.529,5.056-0.782,7.575c-0.979,0.147-1.643-0.387-2.389-0.61
			c-3.695-1.11-7.414-2.031-11.302-1.136c-3.157,0.729-5.044,2.836-5.506,5.874c-0.292,1.917,0.271,3.459,1.673,4.739
			c1.198,1.092,2.618,1.811,4.088,2.456c3.143,1.379,6.3,2.729,9.405,4.188c4.9,2.303,7.638,6.189,8.012,11.604
			c0.421,6.095-1.365,11.218-6.872,14.529c-4.566,2.746-9.618,3.328-14.792,3.066c-3.593-0.181-7.119-0.911-10.629-1.721
			c-1.114-0.257-1.461-0.705-1.311-1.784C75.838,696.454,75.888,693.731,76.478,690.866z"/>
		<path fill-rule="evenodd" clip-rule="evenodd" fill="#00374C" d="M266.896,692.189c0.171,2.562,0.308,4.952,0.502,7.338
			c0.076,0.929-0.147,1.488-1.154,1.717c-8.334,1.891-16.636,2.27-24.769-0.845c-9.249-3.54-14.226-10.417-15.338-20.193
			c-0.576-5.064-0.312-10.084,1.205-14.945c2.968-9.521,9.711-15.003,19.256-17.045c6.239-1.334,12.536-1.317,18.71,0.657
			c2.002,0.641,1.994,0.646,1.809,2.793c-0.192,2.223-0.369,4.447-0.555,6.69c-0.98,0.073-1.608-0.482-2.319-0.76
			c-4.585-1.794-9.298-2.4-14.091-1.162c-6.475,1.673-10.383,6.087-12.163,12.358c-1.458,5.137-1.299,10.323,0.926,15.242
			c2.867,6.334,7.941,9.64,14.852,10.022c4.177,0.23,8.302-0.162,12.234-1.77C266.21,692.203,266.465,692.232,266.896,692.189z"/>
		<path fill-rule="evenodd" clip-rule="evenodd" fill="#00374C" d="M401.245,679.27c0,6.797,0.006,13.594-0.004,20.391
			c-0.003,2.066-0.024,2.076-2.105,2.086c-2.318,0.012-4.638,0.018-6.957-0.001c-1.769-0.014-1.791-0.032-1.802-1.879
			c-0.018-3.199-0.006-6.397-0.006-9.596c0-10.155,0-20.312,0-30.466c0-0.48-0.046-0.966,0.009-1.438
			c0.142-1.234-0.332-1.664-1.606-1.638c-3.677,0.076-7.356,0.027-11.034,0.026c-0.56-0.001-1.12-0.013-1.68-0.007
			c-0.712,0.007-0.972-0.362-0.967-1.044c0.017-2.159,0.014-4.318,0.004-6.477c-0.004-0.707,0.355-1.01,1.022-1.021
			c0.479-0.008,0.959-0.011,1.438-0.011c12.155,0,24.31,0,36.464,0c0.399,0,0.801,0.024,1.199-0.002
			c0.926-0.062,1.287,0.379,1.275,1.279c-0.023,1.999-0.061,4,0.011,5.996c0.04,1.129-0.486,1.309-1.446,1.3
			c-3.918-0.036-7.836-0.022-11.754-0.012c-2.038,0.006-2.056,0.021-2.059,2.121C401.239,665.676,401.245,672.473,401.245,679.27z"
			/>
		<path fill-rule="evenodd" clip-rule="evenodd" fill="#004E65" d="M224.66,597.592c1.151,0.532,1.461,1.445,1.579,2.688
			c0.449,4.744,0.756,9.489,0.993,14.25c0.204,4.112,0.918,8.2,0.889,12.339c-0.002,0.319,0.008,0.639-0.002,0.958
			c-0.057,1.881-0.068,1.896-1.853,1.96c-0.479,0.018-0.958,0.003-1.437,0.004c-9.583,0.006-19.167,0.005-28.75,0.031
			c-0.846,0.002-1.771-0.292-2.516,0.41c-3.353,0.029-6.706,0.04-10.057,0.1c-0.958,0.018-1.503-0.198-1.443-1.312
			c0.081-1.513-0.371-3.216,0.189-4.494c0.554-1.265,2.495-1.009,3.795-1.509c11.11-4.271,21.445-9.896,30.536-17.629
			C219.427,602.969,221.975,600.2,224.66,597.592z"/>
		<path fill-rule="evenodd" clip-rule="evenodd" fill="#4A7A90" d="M400.435,630.229c-0.744-0.701-1.67-0.403-2.517-0.408
			c-5.271-0.031-10.542-0.015-15.813-0.029c-2.229-0.006-2.63-0.343-2.758-2.594c-0.09-1.588-0.408-3.191-0.402-4.729
			c0.014-3.358-0.433-6.676-0.681-9.994c-0.254-3.393-0.034-6.837-0.801-10.191c-0.053-0.23-0.075-0.479-0.055-0.714
			c0.294-3.437-0.296-6.851-0.616-10.229c-0.315-3.331-0.012-6.683-0.589-9.98c-0.19-1.083,0.249-1.84,1.119-2.414
			c1.893,3.79,4.218,7.325,6.479,10.893c4.419,6.971,9.841,13.028,16.565,17.871c0.368,0.265,0.855,0.452,0.936,1.001
			c-1.408,4.685,0.1,9.354,0.094,14.032c-0.001,0.867,0.212,1.739,0.251,2.619c0.154,3.55,0.293,3.688,3.944,3.697
			c6.229,0.016,12.457-0.031,18.685,0.034c1.091,0.011,2.459-0.38,3.039,1.138c-4.995,0.03-9.99,0.08-14.985,0.083
			C408.365,630.315,404.4,630.26,400.435,630.229z"/>
		<path fill-rule="evenodd" clip-rule="evenodd" fill="#005066" d="M285.65,255.523c0.071-0.38,0.143-0.76,0.275-1.462
			c0.671,1.247,1.212,2.252,1.753,3.257c1.384,0.931,2.594,2.105,4.22,2.697c1.411,0.513,1.726,1.809,1.731,3.146
			c0.014,2.88,0.452,5.756,0.429,8.61c-0.058,6.961,0.41,13.903,0.664,20.844c0.406,11.091,0.547,22.195,1.272,33.276
			c0.318,4.861,0.298,9.745,0.418,14.61c0.182,7.348,0.555,14.692,0.7,22.042c0.176,8.86,0.681,17.719,0.982,26.577
			c-0.607,2.4-2.842,4.142-5.092,3.967c-0.709-13.319-1.411-26.638-2.129-39.957c-0.787-14.594-1.588-29.187-2.383-43.781
			c-0.808-14.833-1.595-29.667-2.442-44.498C285.872,261.743,285.609,258.641,285.65,255.523z"/>
		<path fill-rule="evenodd" clip-rule="evenodd" fill="#40748A" d="M329.861,363.277c-0.562-0.773-0.612-1.696-0.429-2.535
			c0.834-3.796,0.126-7.648,0.484-11.444c0.495-5.251,0.077-10.535,0.553-15.751c0.386-4.233,0.003-8.458,0.42-12.647
			c0.514-5.175,0.064-10.375,0.531-15.514c0.385-4.231-0.029-8.466,0.448-12.643c0.539-4.705-0.011-9.426,0.495-14.079
			c0.504-4.629-0.029-9.266,0.473-13.841c0.5-4.548,0.021-9.1,0.485-13.601c0.353-3.429,0.288-6.835,0.411-10.253
			c0.084-2.334,1.055-3.102,3.388-2.827c0.866,0.102,1.663,0.508,2.574,0.475c1.347-0.049,2.545-0.285,3.23-1.61
			c2.12,3.665,3.705,7.59,5.562,11.384c2.421,4.949,4.729,9.954,7.167,14.895c0.766,1.552,0.953,3.338,2.025,4.75
			c0.325,1.7-1.049,1.721-2.026,1.849c-2.495,0.328-4.949,0.183-7.098-1.386c-1.74-1.922-2.407-4.439-3.639-6.646
			c-1.045-1.873-1.914-3.841-2.955-5.722c-1.137-1.907-1.836-4.056-3.396-6.092c-0.672,1.559-0.733,2.97-0.73,4.366
			c0.023,11.912-0.826,23.798-1.075,35.704c-0.197,9.421-0.612,18.845-0.939,28.268c-0.311,8.943-0.67,17.884-0.968,26.828
			c-0.127,3.828-0.397,7.658-0.426,11.495c-0.008,0.972-0.225,1.902-0.574,2.803C332.754,361.001,332.063,362.939,329.861,363.277z"
			/>
		<path fill-rule="evenodd" clip-rule="evenodd" fill="#00374C" d="M287.908,737.369c0-5.356-0.011-10.713,0.007-16.069
			c0.006-1.724,0.042-1.793,1.669-1.755c4.787,0.111,9.596-0.399,14.358,0.453c1.02,0.182,2.047,0.372,3.036,0.675
			c6.236,1.911,9.996,6,11.038,12.525c0.523,3.28,0.512,6.539-0.233,9.761c-1.206,5.205-4.331,8.779-9.349,10.709
			c-3.574,1.375-7.313,1.61-11.069,1.722c-2.477,0.074-4.957,0.026-7.435,0.011c-1.983-0.014-2.012-0.028-2.018-1.962
			C287.897,748.082,287.907,742.726,287.908,737.369z"/>
		<path fill-rule="evenodd" clip-rule="evenodd" fill="#00374C" d="M200.11,736.606c0.427,0.399,0.978,0.523,1.492,0.738
			c3.106,1.296,5.183,3.442,5.401,6.952c0.24,3.859-0.929,7.091-4.419,9.178c-2.413,1.443-5.108,1.824-7.831,1.895
			c-3.754,0.098-7.514-0.024-11.268,0.063c-1.354,0.031-1.584-0.521-1.58-1.705c0.034-10.869,0.038-21.739-0.002-32.608
			c-0.004-1.243,0.359-1.64,1.621-1.615c4.075,0.078,8.152,0.041,12.228,0.035c1.211-0.001,2.385,0.228,3.545,0.526
			c4.049,1.042,6.423,3.801,6.692,7.742c0.282,4.134-1.444,6.841-5.463,8.577C200.384,736.445,200.252,736.53,200.11,736.606z"/>
		<path fill-rule="evenodd" clip-rule="evenodd" fill="#3E738A" d="M252.079,420.888c0.636,0.905,1.594,0.564,2.428,0.58
			c4.698,0.089,9.373,0.789,14.084,0.499c0.567-0.034,1.237-0.016,1.431,0.606c0.171,0.55-0.206,1.084-0.601,1.494
			c-0.942,0.979-1.899,1.942-2.869,2.895c-0.588,0.577-0.906,1.205-1.02,2.071c-0.566,4.286-0.429,8.589-0.452,12.889
			c-0.004,0.72-0.039,1.441,0.006,2.158c0.165,2.603-0.92,4.707-2.817,6.314c-3.819,3.236-7.716,6.385-11.644,9.489
			c-1.241,0.981-2.173,2.381-3.775,2.891c-0.691-0.755-0.358-1.652-0.368-2.512c-0.06-5.351,0.432-10.681,0.592-16.023
			c0.05-1.685-0.277-3.339-0.269-5.016c0.56-0.709,1.362-1.104,2.122-1.511c1.065-0.57,1.241-1.152,0.63-2.258
			c-1.502-2.723-2.859-5.524-4.28-8.292c-0.253-0.494-0.563-0.963-0.59-1.673C247.144,424.019,249.383,422.097,252.079,420.888z"/>
		<path fill-rule="evenodd" clip-rule="evenodd" fill="#004359" d="M278.951,531.446c1.022,2.299,0.411,4.706,0.432,7.066
			c0.005,0.592-0.545,0.951-1.168,1.002c-0.645,0.054-1.248-0.1-1.864-0.319c-4.992-1.78-8.218-5.401-10.19-10.13
			c-2.068-4.958-2.922-10.21-3.01-15.58c-0.036-2.231-0.052-4.464-0.078-6.695c1.017-11.5,4.015-22.425,9.493-32.626
			c0.335-0.625,0.741-1.212,1.114-1.816c0.806-0.974,1.38-0.435,1.823,0.336c0.406,0.708,0.409,1.532,0.405,2.329
			c-0.04,9.315,0.173,18.632-0.114,27.942c-1.125,4.062-2.743,7.978-3.163,12.259c-0.335,3.424,0.091,6.695,0.979,9.948
			c0.507,1.859,1.905,3.101,3.303,4.315C277.627,530.098,278.577,530.476,278.951,531.446z"/>
		<path fill-rule="evenodd" clip-rule="evenodd" fill="#3E7389" d="M371.586,400.358c-0.248,0.384-0.495,0.768-0.757,1.173
			c-0.864-0.586-0.966-1.647-1.589-2.371c-1.224-1.425-2.698-2.475-4.426-3.174c-2.039-0.825-2.865-2.315-2.798-4.505
			c0.094-3.03-0.211-6.087,0.068-9.095c0.884-9.556,0.064-19.129,0.512-28.676c0.148-3.172,0.417-6.34,0.393-9.521
			c-0.607-0.841,0.025-1.486,0.378-2.142c1.225-2.279,2.587-4.482,3.729-6.81c1.569-3.337,2.337-7.01,3.973-10.305
			c0.982,0.332,0.791,0.882,0.792,1.297c0.011,11.388,0.021,22.776,0.006,34.164c0,0.245-0.072,0.469-0.14,0.698
			c-0.021,12.692-0.041,25.383-0.065,38.075C371.661,399.563,371.612,399.961,371.586,400.358z"/>
		<path fill-rule="evenodd" clip-rule="evenodd" fill="#85A3B5" d="M371.728,361.091c-0.297-4.381-0.103-8.768-0.114-13.151
			c-0.02-6.94,0.02-13.88,0.034-20.82c0.001-0.531,0-1.062-0.123-1.612c-1.395,3.529-2.22,7.256-4.212,10.517
			c-3.17-2.468-7.879-2.354-10.958,0.269c-0.304,0.259-0.588,0.543-0.915,0.773c-1.86,1.303-3.064,0.823-3.168-1.464
			c-0.159-3.507-0.267-7.028,0.129-10.534c0.089-0.794,0.268-1.583,0.238-2.383c-0.266-7.193,0.488-14.36,0.603-21.546
			c0.081-5.099,0.348-10.208,0.434-15.316c0.021-1.198,0.196-2.395,0.946-3.41c1.274-0.42,1.453,0.713,1.72,1.392
			c2.356,6.025,4.631,12.029,3.639,18.768c-0.566,3.85,0.074,7.793-0.417,11.698c-0.488,3.875-0.088,7.794,0.012,11.721
			c1.211-2.999,1.618-6.15,1.746-9.344c0.102-2.549-0.149-5.111,0.136-7.651c0.348-3.099,1.186-3.872,4.294-3.874
			c1.892-0.001,3.669-0.092,4.94-1.744c0.718,1.799,0.713,3.72,0.945,5.601c0.64,5.165,0.481,10.355,0.479,15.539
			c-0.006,11.494-0.051,22.988-0.091,34.482C372.021,359.705,372.185,360.446,371.728,361.091z"/>
		<path fill-rule="evenodd" clip-rule="evenodd" fill="#005066" d="M330.809,166.6c0.125,1.391,0.268,2.781,0.089,4.177
			c0.338,2.885,0.096,3.224-2.658,3.271c-1.624,0.028-3.353,0.288-4.592-1.212c-0.149-1.76-0.168-3.519,0.021-5.277
			c0.48-2.908,0.132-5.835,0.21-8.753c0.139-5.141-0.215-10.288,0.179-15.426c-0.256-2.313-0.043-4.628,0.007-6.939
			c0.551-25.651,1.135-51.301,1.715-76.952c0.113-5.035,0.254-10.069,0.366-15.103c0.022-1.031,0.074-2.047,0.534-3.196
			c0.372,1.335,0.254,2.54,0.292,3.722c0.413,12.622,0.811,25.243,1.213,37.865c0.26,8.148,0.521,16.296,0.781,24.445
			c0.505,15.737,1.011,31.475,1.51,47.213c0.021,0.634-0.03,1.271-0.048,1.906C330.923,159.747,330.232,163.197,330.809,166.6z"/>
		<path fill-rule="evenodd" clip-rule="evenodd" fill="#9AB2C2" d="M293.003,393.087c1.924-0.583,3.262-2.023,4.748-3.247
			c0.354-0.852,0.993-1.321,1.905-1.427c0.962-0.662,1.704-1.622,2.817-2.078c0.263-0.115,0.532-0.134,0.809-0.06
			c3.625,0.574,7.271,0.898,10.942,0.91c0.957,0.003,1.924-0.074,2.868,0.103c1.604,0.299,2.126,1.338,1.385,2.791
			c-0.553,1.083-1.497,1.863-2.346,2.702c-1.562,1.542-2.437,3.391-2.325,5.578c0.206,4.035-0.729,8.143,0.737,12.101
			c-5.445,3.68-10.891,7.359-16.337,11.039c-1.863,0.468-2.12-0.93-1.978-2.069c0.458-3.66,0.166-7.331,0.395-10.987
			c0.122-1.94,1.193-3.429,2.518-4.754c0.507-0.508,1.122-0.902,1.616-1.421c0.472-0.495,1.343-0.923,0.989-1.723
			c-0.279-0.631-1.134-0.468-1.743-0.432c-3.838,0.231-7.624-0.609-11.457-0.547c-0.892,0.015-2.19,0.361-2.377-1.21
			c1.717-1.621,3.849-2.674,5.68-4.141C292.274,393.873,292.793,393.643,293.003,393.087z"/>
		<path fill-rule="evenodd" clip-rule="evenodd" fill="#7A9BAD" d="M286.168,398.354c0.651,0.877,1.604,0.564,2.433,0.549
			c4.37-0.087,8.699,0.832,13.078,0.508c0.644-0.048,1.336,0.013,1.586,0.756c0.222,0.658-0.361,1.007-0.744,1.376
			c-0.798,0.77-1.572,1.554-2.456,2.249c-1.732,1.361-2.956,3.06-2.84,5.454c0.077,1.589,0.036,3.186,0.008,4.777
			c-0.028,1.58,0.077,3.148-0.376,4.729c-0.439,1.532-0.08,1.995,1.348,2.743c-1.212,1.75-3.168,2.607-4.748,3.915
			c-2.503,2.073-5.162,3.958-7.753,5.925c-0.19,0.145-0.338,0.368-0.547,0.459c-0.92,0.399-1.798,1.476-2.797,0.953
			c-0.952-0.498-0.448-1.737-0.46-2.642c-0.049-3.43,0.015-6.861-0.032-10.291c-0.032-2.351,0.892-4.164,2.803-5.482
			c1.317-0.909,2.43-2,3.407-3.421c-1.028-0.793-2.252-0.671-3.229-0.723c-4.184-0.223-8.382-0.191-12.576-0.219
			c-0.898-0.006-1.747-0.096-2.521-0.579c2.317-1.952,4.979-3.402,7.461-5.114C280.159,402.246,283.18,400.324,286.168,398.354z"/>
		<path fill-rule="evenodd" clip-rule="evenodd" fill="#00384D" d="M262.291,737.323c0-5.353-0.011-10.706,0.007-16.059
			c0.005-1.687,0.04-1.724,1.719-1.729c5.992-0.017,11.984,0.015,17.977-0.025c1.085-0.007,1.525,0.238,1.57,1.442
			c0.16,4.356,0.21,4.354-4.17,4.354c-2.796,0-5.593,0.033-8.389-0.016c-1.016-0.019-1.432,0.306-1.401,1.356
			c0.055,1.916,0.084,3.838-0.011,5.751c-0.068,1.357,0.558,1.574,1.724,1.551c3.114-0.062,6.232,0.018,9.347-0.039
			c1.173-0.021,1.81,0.234,1.667,1.575c-0.102,0.948-0.075,1.92-0.004,2.873c0.08,1.074-0.392,1.373-1.396,1.36
			c-3.195-0.04-6.391-0.026-9.587-0.006c-1.678,0.011-1.701,0.036-1.721,1.715c-0.024,2.157-0.029,4.314,0,6.472
			c0.022,1.639,0.051,1.669,1.794,1.68c3.436,0.022,6.871-0.007,10.307,0.013c1.876,0.011,1.93,0.037,1.913,1.816
			c-0.046,4.791,0.634,3.94-3.814,3.984c-5.193,0.052-10.387,0.023-15.58,0.007c-1.921-0.006-1.942-0.035-1.946-2.018
			C262.283,748.029,262.291,742.677,262.291,737.323z"/>
		<path fill-rule="evenodd" clip-rule="evenodd" fill="#00374D" d="M211.332,737.369c0-5.357-0.01-10.714,0.005-16.071
			c0.005-1.716,0.034-1.755,1.667-1.76c5.997-0.017,11.994,0.016,17.99-0.027c1.092-0.008,1.518,0.235,1.554,1.441
			c0.131,4.356,0.182,4.354-4.146,4.354c-2.798,0-5.597,0.027-8.395-0.013c-0.979-0.015-1.463,0.233-1.427,1.33
			c0.067,1.996,0.063,3.999,0,5.995c-0.035,1.106,0.484,1.333,1.449,1.323c3.278-0.034,6.557,0.021,9.834-0.029
			c1.101-0.017,1.519,0.278,1.555,1.474c0.131,4.321,0.182,4.319-4.217,4.319c-2.319,0-4.639,0.047-6.956-0.019
			c-1.179-0.033-1.74,0.239-1.677,1.579c0.106,2.233,0.097,4.479,0.002,6.714c-0.055,1.297,0.448,1.644,1.657,1.626
			c3.598-0.053,7.196,0.013,10.794-0.035c1.077-0.015,1.533,0.214,1.567,1.439c0.126,4.396,0.18,4.394-4.155,4.394
			c-5.117,0-10.234,0.013-15.352-0.007c-1.703-0.007-1.74-0.044-1.745-1.717C211.32,748.243,211.332,742.807,211.332,737.369z"/>
		<path fill-rule="evenodd" clip-rule="evenodd" fill="#045A71" d="M295.301,436.842c2.162-1.34,3.77-3.48,6.263-4.344
			c1.163,0.785,1.102,2.027,1.217,3.215c1.076,11.124,1.136,22.291,1.529,33.447c0.323,9.165,0.679,18.328,0.969,27.495
			c0.124,3.901,0.414,7.804,0.415,11.714c0,1.151,0.45,2.178,0.783,3.239c-1.063,1.481-3.158,2.121-5.22,1.66
			c-1.787-0.398-2.115-1.801-2.258-3.265c-0.563-5.797-1.034-11.598-0.613-17.431c0.145-2.014,0.082-4.002-1.027-5.8
			c-0.679-2.438-0.262-4.931-0.368-7.397c0.107-1.124,0.106-2.241-0.263-3.331c-0.269-1.287-0.157-2.592-0.186-3.893
			c-0.608-7.769-0.726-15.566-1.439-23.327c-0.141-1.525-0.06-3.023,0.624-4.436c-0.016-0.093-0.026-0.187-0.033-0.281
			C294.866,441.724,293.965,439.344,295.301,436.842z"/>
		<path fill-rule="evenodd" clip-rule="evenodd" fill="#00374C" d="M382.095,755.403c-2.959-0.001-5.919-0.054-8.876,0.024
			c-1.269,0.033-1.636-0.404-1.631-1.648c0.04-10.876,0.039-21.752,0.002-32.628c-0.005-1.215,0.31-1.66,1.597-1.646
			c5.997,0.062,11.996,0.057,17.993,0.003c1.232-0.011,1.747,0.336,1.626,1.611c-0.09,0.95-0.075,1.921-0.005,2.875
			c0.082,1.104-0.442,1.338-1.423,1.327c-3.599-0.039-7.197-0.029-10.796-0.009c-1.67,0.01-1.688,0.041-1.707,1.722
			c-0.021,1.84,0.036,3.68-0.02,5.518c-0.032,1.025,0.318,1.412,1.372,1.396c3.198-0.05,6.397-0.031,9.597-0.012
			c1.658,0.011,1.658,0.037,1.707,1.733c0.114,4.036,0.114,4.035-3.983,4.036c-2.479,0-4.959,0.026-7.438-0.01
			c-0.919-0.015-1.271,0.315-1.253,1.249c0.043,2.398,0.07,4.8-0.01,7.196c-0.042,1.227,0.499,1.474,1.57,1.461
			c3.519-0.04,7.037-0.025,10.556-0.008c1.825,0.01,1.825,0.033,1.863,1.807c0.087,4.003,0.087,4.003-4.024,4.003
			C386.573,755.404,384.334,755.404,382.095,755.403z"/>
		<path fill-rule="evenodd" clip-rule="evenodd" fill="#00374C" d="M417.628,726.179c-2.842-1.069-5.468-1.693-8.233-1.434
			c-1.978,0.186-3.51,1.033-4.275,2.957c-0.726,1.823-0.346,3.24,1.169,4.478c0.748,0.611,1.608,1.021,2.492,1.406
			c2.122,0.922,4.249,1.838,6.332,2.844c3.61,1.743,5.295,4.757,5.307,8.676c0.012,3.961-1.516,7.131-5.15,9.073
			c-2.384,1.273-4.952,1.72-7.614,1.813c-2.905,0.101-5.713-0.53-8.534-1.077c-1.034-0.2-1.479-0.645-1.232-1.809
			c0.341-1.612,0.053-3.338,0.77-4.975c1.977,0.887,3.899,1.652,5.975,1.949c2.2,0.314,4.309,0.131,6.21-1.134
			c2.459-1.636,2.625-4.283,0.398-6.225c-0.79-0.688-1.723-1.147-2.673-1.576c-1.964-0.885-3.912-1.805-5.883-2.675
			c-3.495-1.542-5.319-4.278-5.519-8.018c-0.213-4.012,1.092-7.388,4.665-9.608c0.955-0.593,1.974-1.053,3.069-1.313
			c4.051-0.964,8.079-0.699,12.095,0.248c0.901,0.213,1.36,0.641,1.2,1.66C417.961,722.932,417.83,724.44,417.628,726.179z"/>
		<path fill-rule="evenodd" clip-rule="evenodd" fill="#23647B" d="M246.806,439.224c0.919,0.729,1.04,1.742,0.993,2.811
			c-0.129,2.939,0.233,5.883-0.409,8.825c-0.316,1.451-0.071,3.025-0.068,4.545c0.004,2.468,0.102,4.94-0.471,7.37
			c-0.773,1.36-2.237,1.956-3.34,2.95c-2.508,2.26-5.188,4.328-7.806,6.465c-0.655,0.535-1.274,1.27-2.268,0.643
			c-2.71-6.121-5.415-12.244-8.139-18.359c-0.365-0.819-0.422-1.392,0.493-1.965C232.814,448.108,239.805,443.658,246.806,439.224z"
			/>
		<path fill-rule="evenodd" clip-rule="evenodd" fill="#658CA0" d="M370.69,303.38c-0.257,2.046-0.522,2.339-2.428,2.41
			c-1.355,0.05-2.714,0.017-4.071,0.018c-0.918,0.001-1.479,0.381-1.674,1.343c-0.236,1.169-0.502,2.313-0.493,3.53
			c0.029,3.738,0.212,7.489-0.482,11.195c-0.351,1.871-0.727,3.74-1.446,5.515c-0.155,0.383-0.435,0.76-0.854,0.735
			c-0.485-0.028-0.567-0.495-0.55-0.905c0.202-4.77-0.32-9.542,0.332-14.325c0.386-2.824,0.109-5.737,0.14-8.611
			c0.014-1.27,0.031-2.515,0.353-3.787c0.56-2.216-0.054-4.513-0.533-6.601c-0.918-3.995-2.187-7.95-4.143-11.616
			c-1.894-2.025-2.353-4.798-3.703-7.116c-1.154-1.982-1.919-4.177-2.829-6.291c-0.054-0.381,0.01-0.728,0.298-1.006
			c2.052,1.501,4.405,1.587,6.807,1.451c0.967-0.055,1.924-0.127,2.268-1.283c0.072,0.034,0.183,0.05,0.211,0.106
			c4.799,9.87,9.786,19.668,12.024,30.544C370.234,300.238,370.739,301.765,370.69,303.38z"/>
		<path fill-rule="evenodd" clip-rule="evenodd" fill="#00374C" d="M334.559,719.534c2.438,0,4.815,0.044,7.19-0.021
			c1.036-0.028,1.336,0.65,1.728,1.351c2.183,3.9,4.37,7.797,6.573,11.686c0.267,0.472,0.399,1.054,1.146,1.458
			c0.298-0.468,0.634-0.952,0.927-1.462c2.188-3.806,4.426-7.584,6.513-11.444c0.675-1.25,1.471-1.675,2.829-1.596
			c1.809,0.104,3.627,0.025,5.433,0.025c0.123,0.999-0.459,1.518-0.809,2.111c-3.481,5.916-6.958,11.835-10.499,17.715
			c-0.77,1.277-1.178,2.533-1.14,4.042c0.084,3.434,0.043,6.87,0.019,10.306c-0.012,1.656-0.046,1.666-1.767,1.695
			c-1.118,0.02-2.237,0.012-3.355,0.002c-2.111-0.019-2.125-0.022-2.133-2.056c-0.013-3.196-0.07-6.394,0.023-9.587
			c0.051-1.743-0.371-3.223-1.291-4.713c-3.604-5.84-7.112-11.741-10.646-17.626C334.985,720.895,334.523,720.409,334.559,719.534z"
			/>
		<path fill-rule="evenodd" clip-rule="evenodd" fill="#346D84" d="M427.315,630.23c-0.743-0.703-1.668-0.407-2.513-0.41
			c-7.018-0.027-14.036-0.017-21.055-0.03c-2.442-0.005-2.715-0.326-2.837-2.716c-0.198-3.875-0.387-7.749-0.894-11.605
			c-0.216-1.647-0.006-3.347-0.07-5.019c-0.039-1.023,0.638-1.369,1.355-1.74c8.828,5.854,18.291,10.495,28.009,14.652
			c0.861,0.369,2.124,0.241,2.534,1.061c0.389,0.777,0.193,1.869,0.185,2.822c-0.032,3.431,0.473,3.038-3.043,3.064
			C428.43,630.314,427.872,630.259,427.315,630.23z"/>
		<path fill-rule="evenodd" clip-rule="evenodd" fill="#8EA9BA" d="M317.342,499.215c-0.753-0.373-0.948-1.03-0.898-1.8
			c0.339-5.267-0.566-10.489-0.521-15.754c0.053-5.97-0.331-11.944-0.583-17.904c-0.174-4.135,0.041-8.296-0.404-12.398
			c-0.477-4.381-0.027-8.783-0.51-13.114c-0.472-4.231-0.197-8.438-0.404-12.648c-0.075-1.504,0.328-2.582,1.731-3.342
			c1.254-0.678,2.357-1.63,3.57-2.393c2.207-1.39,3.259-0.85,3.344,1.715c0.053,1.596,0.012,3.194,0.012,4.792
			c0.001,4.552-0.08,9.106,0.029,13.657c0.091,3.814,0.59,7.61,0.489,11.442c-0.036,1.39-0.353,2.482-1.436,3.348
			c-0.31,0.248-0.54,0.599-0.856,0.835c-1.681,1.256-2.402,2.891-2.076,4.982c0.265,1.693-0.631,3.281-0.477,4.974
			c0.059,0.642-0.046,1.329,0.867,1.429c-0.388,0.681-0.847,1.298-0.823,2.176c0.056,2.143,0.014,4.289,0.011,6.434
			c1.275,2.2,0.338,4.511,0.343,6.774c-0.111,1.223-0.204,2.448-0.438,3.657c-0.494,3.104-0.167,6.224-0.194,9.338
			C318.055,496.721,318.423,498.117,317.342,499.215z"/>
		<path fill-rule="evenodd" clip-rule="evenodd" fill="#0E5C73" d="M275.154,503.553c0.002-9.64,0.006-19.281,0.001-28.922
			c0-0.633,0.023-1.289-0.125-1.895c-0.19-0.774-0.801-0.588-1.35-0.389c1.914-4.227,4.754-7.872,7.399-11.63
			c1.265-1.796,2.418-3.708,4.096-5.19c0.625-0.325,1.062-0.104,1.372,0.478c0.309,0.58,0.391,1.218,0.392,1.855
			c0.006,9.646,0.172,19.295-0.08,28.936c-0.063,1.002-0.577,1.794-1.189,2.553c-3.363,4.165-6.647,8.384-9.129,13.163
			C276.268,503.037,276.013,503.738,275.154,503.553z"/>
		<path fill-rule="evenodd" clip-rule="evenodd" fill="#1A6178" d="M323.647,172.836c1.688,0.629,3.448,0.497,5.193,0.478
			c1.781-0.02,1.78-0.043,1.971-1.823c0.025-0.238,0.057-0.475,0.085-0.712c0.471,0.813,0.285,1.72,0.314,2.579
			c0.354,10.139,0.657,20.28,1.023,30.418c0.095,2.629,0.366,5.252,0.556,7.878c-0.013,0.399-0.021,0.798-0.038,1.196
			c-0.101,2.442-0.358,2.667-2.834,2.717c-2.013,0.041-4.046,0.208-5.258-1.917c-0.674-2.316-0.848-4.713-0.953-7.094
			c-0.472-10.684-0.471-21.373-0.257-32.063C323.461,173.939,323.579,173.388,323.647,172.836z"/>
		<path fill-rule="evenodd" clip-rule="evenodd" fill="#42768C" d="M286.209,487.727c-0.002-9.967,0.003-19.934-0.024-29.899
			c-0.002-0.866,0.436-2.025-1.01-2.3c2.483-3.392,5.555-6.233,8.548-9.149c0.674-0.656,1.337-1.325,2.004-1.988
			c-0.041,4.37,0.355,8.737,0.707,13.067c0.302,3.706-0.115,7.459,0.727,11.14c0.276,1.207,0.025,2.535,0.016,3.808
			c-0.839,0.81-0.781,1.885-0.757,2.894c0.047,1.952-0.678,3.501-2.041,4.872c-2.173,2.186-4.485,4.241-6.374,6.703
			C287.588,487.418,287.064,487.986,286.209,487.727z"/>
		<path fill-rule="evenodd" clip-rule="evenodd" fill="#00384D" d="M236.852,737.459c0-5.354-0.009-10.707,0.005-16.061
			c0.005-1.827,0.031-1.836,1.827-1.864c1.118-0.019,2.237-0.006,3.356-0.004c2.251,0.005,2.131-0.211,2.133,2.268
			c0.005,5.673,0.002,11.346,0.002,17.019c0,2.876-0.009,5.753,0.003,8.629c0.008,2.113,0.021,2.13,2.062,2.139
			c3.356,0.014,6.711-0.011,10.067,0.012c1.646,0.01,1.646,0.041,1.69,1.738c0.104,4.071,0.104,4.071-3.957,4.071
			c-5.114,0-10.227,0.012-15.341-0.007c-1.808-0.007-1.837-0.042-1.842-1.88C236.841,748.166,236.852,742.813,236.852,737.459z"/>
		<path fill-rule="evenodd" clip-rule="evenodd" fill="#8EA9BA" d="M347.109,474.772c-1.324,0.117-1.396,1.059-1.393,2.079
			c0.01,2.95-0.001,5.901,0.004,8.853c0.006,2.989-0.591,5.786-2.207,8.381c-2.686,4.313-5.408,8.588-8.898,12.313
			c-1.221-0.645-1.032-1.834-1.098-2.905c-0.138-2.268,0.259-4.566-0.401-6.802c-0.243-1.365,0.667-2.241,1.401-3.164
			c1.994-2.507,3.921-5.055,5.343-7.945c0.424-0.862,0.833-1.731,1.085-2.662c0.946-3.488-0.318-5.028-3.928-4.838
			c-1.304,0.069-2.741,0.629-3.718-0.833c-0.317-2.121-0.83-4.254,0.457-6.254c2.654-0.563,5.314-0.806,7.972-0.052
			C343.97,471.578,346.023,472.502,347.109,474.772z"/>
		<path fill-rule="evenodd" clip-rule="evenodd" fill="#00374C" d="M322.651,741.639c0-3.918-0.014-7.836,0.006-11.754
			c0.008-1.669,0.039-1.684,1.717-1.709c1.438-0.021,2.88,0.036,4.317-0.016c0.949-0.033,1.306,0.365,1.219,1.27
			c-0.022,0.237-0.001,0.479-0.001,0.719c0,7.756,0.006,15.512-0.003,23.268c-0.003,1.954-0.025,1.963-1.958,1.984
			c-1.279,0.016-2.563-0.064-3.837,0.021c-1.206,0.081-1.49-0.45-1.479-1.551C322.678,749.795,322.651,745.717,322.651,741.639z"/>
		<path fill-rule="evenodd" clip-rule="evenodd" fill="#003A4F" d="M424.703,741.622c0.002-3.986,0.03-7.974-0.017-11.96
			c-0.014-1.11,0.288-1.596,1.483-1.517c1.429,0.094,2.873,0.095,4.303,0.001c1.313-0.086,1.585,0.493,1.579,1.68
			c-0.039,7.973-0.04,15.947,0.002,23.921c0.006,1.217-0.332,1.763-1.611,1.679c-1.19-0.078-2.392-0.008-3.587-0.019
			c-2.121-0.018-2.142-0.022-2.149-2.063C424.69,749.437,424.701,745.529,424.703,741.622z"/>
		<path fill-rule="evenodd" clip-rule="evenodd" fill="#B5C7D3" d="M333.757,470.995c-0.014,2.213-0.028,4.426-0.042,6.639
			c-0.44,0.777-1.235,0.963-2.002,1.163c-3.55,0.927-6.979,2.204-10.397,3.524c-0.934,0.36-1.915,0.922-2.928,0.137
			c-0.245-0.206-0.505-0.462-0.403-0.784c0.625-1.979,0.25-4.022,0.423-6.029c4.578-1.734,9.162-3.442,13.95-4.531
			C332.828,471.006,333.279,470.904,333.757,470.995z"/>
		<path fill-rule="evenodd" clip-rule="evenodd" fill="#94AEBE" d="M295.301,436.842c0.131,2.422,0.263,4.845,0.394,7.267
			c-0.853-0.581-1.516,0.071-2.204,0.376c-5.408,2.397-10.489,5.374-15.355,8.729c-0.779,0.537-1.478,1.223-2.428,1.486
			c-0.222-2.717,1.678-4.186,3.454-5.634C284.393,444.798,289.858,440.834,295.301,436.842z"/>
		<path fill-rule="evenodd" clip-rule="evenodd" fill="#9CB4C3" d="M215.616,500.124c3.266-2.885,6.804-5.428,10.215-8.13
			c0.249-0.197,0.557-0.341,0.753-0.579c1.286-1.552,2.729-2.062,4.486-0.753c-2.919,2.937-6.329,5.289-9.486,7.941
			c-1.203,1.011-2.353,2.126-3.762,2.845C217.009,501.062,216.689,499.962,215.616,500.124z"/>
		<path fill-rule="evenodd" clip-rule="evenodd" fill="#003A50" d="M326.49,719.526c3.992,0.119,3.317-0.814,3.44,3.585
			c0.034,1.197-0.275,1.755-1.592,1.664c-1.507-0.104-3.026-0.049-4.54-0.018c-0.799,0.016-1.085-0.301-1.167-1.107
			C322.215,719.524,322.192,719.526,326.49,719.526z"/>
		<path fill-rule="evenodd" clip-rule="evenodd" fill="#004056" d="M428.355,719.52c0.16-0.001,0.322-0.016,0.48,0.002
			c1.006,0.111,2.427-0.499,2.932,0.359c0.71,1.208,0.267,2.792,0.207,4.213c-0.026,0.631-0.592,0.658-1.081,0.66
			c-1.68,0.006-3.359,0.007-5.039-0.002c-0.231-0.001-0.492-0.015-0.69-0.116c-0.612-0.314-0.73-4.587-0.122-4.948
			c0.25-0.147,0.605-0.151,0.915-0.159C426.756,719.507,427.557,719.521,428.355,719.52z"/>
		<path fill-rule="evenodd" clip-rule="evenodd" fill="#1A6178" d="M324.058,143.38c0.019,7.707,0.038,15.414,0.057,23.12
			c0.001,0.414-0.126,0.778-0.445,1.059c-0.245-5.434,0.012-10.867,0.05-16.299C323.737,148.632,323.521,145.988,324.058,143.38z"/>
		<path fill-rule="evenodd" clip-rule="evenodd" fill="#1A6178" d="M330.809,166.6c-0.314-0.279-0.447-0.639-0.444-1.048
			c0.019-3.07,0.041-6.14,0.063-9.21C331.024,159.743,330.83,163.175,330.809,166.6z"/>
		<path fill-rule="evenodd" clip-rule="evenodd" fill="#8EA9BA" d="M349.987,484.85c-0.34-0.222-0.423-0.57-0.466-0.938
			c0.024-0.352,0.049-0.704,0.073-1.057C350.073,483.451,350.081,484.14,349.987,484.85z"/>
		<path fill-rule="evenodd" clip-rule="evenodd" fill="#004157" d="M318.388,482.458c0.461-0.085,0.951-0.098,1.379-0.267
			c4.555-1.811,9.178-3.407,13.948-4.558c1.031-0.063,2.078-0.044,3.092-0.215c0.897-0.151,1.752-0.061,2.606,0.118
			c1.813,0.379,2.506,1.295,2.54,3.191c0.029,1.651-0.593,3.12-1.251,4.572c-1.393,3.077-3.376,5.773-5.489,8.384
			c-0.7,0.864-1.372,1.751-2.057,2.628c-0.767,2.283-2.679,3.712-4.132,5.473c-4.217,5.11-8.868,9.818-13.658,14.388
			c-0.791,0.755-1.628,1.545-2.801,1.732c-0.633,0.184-1.115,0.614-1.563,1.05c-2.446,2.382-5.28,4.271-7.979,6.331
			c-1.607,0.919-3.215,1.836-4.822,2.754c-1.92,0.8-3.84,1.6-5.76,2.4c-2.76,1.196-5.654,1.596-8.64,1.438
			c-3.238,0.269-6.563-2.32-7.661-6.19c-1.211-4.271-0.935-8.555,0.645-12.674c2.753-7.182,7.392-13.165,12.442-18.838
			c1.905-2.14,4.019-4.095,6.075-6.095c0.661-0.642,1.23-1.525,2.375-1.353c1.439,0.367,1.406,1.655,1.433,2.674
			c0.048,1.808,0.325,3.646-0.298,5.439c-0.174,0.502-0.218,1.146-0.065,1.647c0.667,2.186,0.468,4.423,0.389,6.627
			c-0.089,2.479,0.533,4.873,0.594,7.334c0.048,1.938,0.582,2.213,2.571,2.231c1.436,0.013,2.813-0.21,4.074-0.944
			c1.184-1.207,2.711-1.653,4.307-1.949c2.657-1.544,4.561-3.755,5.927-6.498c0.655-1.316,1.02-2.621,0.735-4.075
			c0.023-1.267,0.047-2.532,0.07-3.799c0.637-3.187-0.116-6.432,0.396-9.624C317.956,484.674,317.636,483.473,318.388,482.458z"/>
		<path fill-rule="evenodd" clip-rule="evenodd" fill="#B5C6D2" d="M314.543,410.458c-1.095-0.101-1.468-0.768-1.464-1.791
			c0.013-3.82-0.077-7.644,0.047-11.46c0.055-1.674,0.707-3.24,2.019-4.448c0.936-0.862,1.802-1.799,2.694-2.708
			c0.422-0.429,0.604-0.955,0.426-1.53c-0.214-0.689-0.834-0.627-1.387-0.636c-0.717-0.011-1.438-0.056-2.148,0.003
			c-3.506,0.292-6.946-0.726-10.447-0.496c-0.743,0.048-1.222-0.259-1.336-1.032c0.019-1.559,1.39-2.009,2.328-2.797
			c0.73-0.614,1.479-1.207,2.197-1.836c2.382-1.599,4.405-3.65,6.708-5.348c2.566-2.002,4.893-4.296,7.542-6.196
			c1.398-1.542,2.947-2.896,4.818-3.846c1.401-0.701,2.063-2.206,3.321-3.062c1.373-0.826,1.944-2.485,3.374-3.251
			c1.129-1.736,2.256-3.474,4.496-3.953c3.984-0.452,7.909,0.511,11.881,0.503c1.356-0.003,2.484,0.723,1.851,2.481
			c-0.804,0.961-1.607,1.923-2.411,2.885c-2.918,4.313-6.476,8.065-10.449,11.383c-1.951,1.629-2.918,3.39-2.807,5.939
			c0.261,5.97-0.154,11.932-0.461,17.892c-0.042,0.801-0.051,1.604-0.672,2.226C327.75,402.697,321.11,406.511,314.543,410.458z"/>
		<path fill-rule="evenodd" clip-rule="evenodd" fill="#9CB4C3" d="M351.463,359.057c-0.149-1.147-0.578-2.002-1.951-1.896
			c-4.15,0.322-8.247-0.814-12.399-0.463c-0.292-1.342,0.875-1.885,1.49-2.735c6.549-7.033,5.709-4.243,6-14.141
			c0.261-8.86,0.561-17.723,0.913-26.581c0.543-13.647,1.085-27.294,1.43-40.948c0.034-1.355,0.128-2.768,1.655-3.446
			c2.047,3.454,3.566,7.167,5.241,10.801c0.388,0.842,0.932,1.657,0.998,2.633c-0.792,4.341-0.128,8.751-0.548,13.086
			c-0.479,4.932-0.009,9.884-0.512,14.767c-0.443,4.305,0.007,8.604-0.444,12.86c-0.421,3.975-0.37,7.936-0.414,11.907
			c-0.006,0.558-0.031,1.121,0.036,1.671c0.111,0.895,0.707,1.076,1.348,0.595c0.759-0.57,1.431-1.269,2.08-1.968
			c1.045-1.124,2.277-1.652,3.83-1.576c1.511,0.074,3.029-0.015,4.544,0.025c1.859,0.048,2.135,0.332,2.553,2.376
			c-1.441,2.721-2.883,5.442-4.323,8.163c-1.646,1.511-2.453,3.62-3.812,5.348C356.651,352.749,354.392,356.171,351.463,359.057z"/>
		<path fill-rule="evenodd" clip-rule="evenodd" fill="#45778D" d="M310.68,509.789c-1.199,1.171-2.782,1.495-4.307,1.948
			c-0.404-0.068-0.762-0.204-0.989-0.585c-0.338-0.567-0.5-1.172-0.461-1.831c0.349-5.832-0.578-11.626-0.502-17.454
			c0.082-6.301-0.39-12.597-0.602-18.889c-0.145-4.297,0.05-8.627-0.403-12.894c-0.533-5.025-0.325-10.041-0.408-15.062
			c-0.019-1.13-0.302-2.237-0.555-3.281c-0.74-3.059,0.074-6.234-0.888-9.244c1.07-1.314,2.542-2.128,3.916-3.042
			c0.815-0.543,1.541-0.131,1.786,0.829c0.058,0.228,0.047,0.476,0.051,0.714c0.035,2.462,0.339,4.929,0.383,7.361
			c0.112,6.286,0.563,12.558,0.699,18.843c0.109,5.082-0.008,10.202,0.471,15.25c0.394,4.147-0.007,8.289,0.425,12.39
			c0.52,4.931,0.148,9.87,0.514,14.777c0.2,2.697,0.315,5.386,0.418,8.083C310.252,508.403,310.521,509.094,310.68,509.789z"/>
		<path fill-rule="evenodd" clip-rule="evenodd" fill="#8FAABB" d="M334.663,399.382c0.063-7.226,0.822-14.438,0.48-21.669
			c-0.097-2.026,1.047-3.284,2.435-4.391c2.808-2.24,5.273-4.795,7.562-7.56c1.155-1.397,2.397-2.764,3.913-3.82
			c-0.678,7.808-0.254,15.64-0.545,23.451c-0.095,2.528-0.32,5.075-0.405,7.621c-0.033,1.015-0.376,1.835-1.524,2.148
			C342.504,396.273,338.611,397.908,334.663,399.382z"/>
		<path fill-rule="evenodd" clip-rule="evenodd" fill="#346D84" d="M338.079,440.268c-1.829,2.47-4.543,3.991-6.64,6.186
			c-0.834,0.873-1.807,0.384-2.001-0.872c-0.085-0.547-0.036-1.116-0.037-1.676c-0.005-3.997,0.346-8.034-0.102-11.981
			c-0.508-4.476-0.114-8.931-0.413-13.379c-0.148-2.205,0.748-3.478,2.729-4.179c1.644-0.581,3.205-1.433,5-1.511
			c0.982,1.06,0.748,2.392,0.72,3.628C337.158,424.426,337.78,432.342,338.079,440.268z"/>
		<path fill-rule="evenodd" clip-rule="evenodd" fill="#00394E" d="M343.816,410.971c3.028-0.904,5.996-0.687,8.883,0.553
			c5.288,2.271,6.883,8.696,2.637,13.027c-3.241,3.305-6.631,6.434-10.205,9.369c-2.183,0.261-1.911-1.524-2.005-2.675
			c-0.242-3.002-0.081-6.024-0.093-9.038c-0.011-2.776-0.023-5.553,0.01-8.329C343.056,412.852,343.015,411.795,343.816,410.971z"/>
		<path fill-rule="evenodd" clip-rule="evenodd" fill="#004C62" d="M343.816,410.971c-0.006,6.669-0.016,13.339-0.011,20.008
			c0.001,1.165-0.197,2.449,1.326,2.941c-2.164,2.323-4.563,4.385-7.053,6.348c-0.813-0.421-1.052-1.125-1.001-1.988
			c0.329-5.63-0.723-11.218-0.496-16.851c0.115-2.854,0.028-5.715,0.033-8.573C338.939,411.936,341.322,411.24,343.816,410.971z"/>
		<path fill-rule="evenodd" clip-rule="evenodd" fill="#B1C3D0" d="M312.565,517.905c6.438-5.632,12.177-11.939,17.751-18.406
			c0.929-1.076,1.619-2.37,2.84-3.187c0.945,0.123,1.054,0.787,1.048,1.566c-0.015,1.988,0.009,3.977-0.009,5.965
			c-0.008,0.882,0.006,1.749,0.421,2.556c-4.439,5.646-9.674,10.54-14.752,15.581c-1.64,1.628-3.616,2.873-5.168,4.602
			c-0.376,0.419-0.936,0.812-1.474,0.631c-0.738-0.248-0.615-1.024-0.62-1.653C312.585,523.009,312.577,520.457,312.565,517.905z"/>
		<path fill-rule="evenodd" clip-rule="evenodd" fill="#FEFEFE" d="M330.506,605.011c-0.955,0.158-1.81,0.379-2.673,0.43
			c-2.906,0.167-5.119-1.507-5.571-4.147c-0.48-2.804,1.168-5.745,3.844-6.396c4.075-0.991,7.588,0.306,8.241,5.103
			c0.396,2.914,0.246,5.765-0.632,8.523c-1.217,3.819-6.229,5.309-9.5,2.942c-0.193-0.14-0.369-0.306-0.537-0.477
			c-0.961-0.979-1.354-2.487-0.783-2.983c0.661-0.573,3.029-0.167,3.599,0.7c0.466,0.711,0.911,1.331,1.875,1.159
			c1.054-0.188,1.744-0.827,1.96-1.856C330.52,607.092,330.961,606.179,330.506,605.011z"/>
		<path fill-rule="evenodd" clip-rule="evenodd" fill="#FEFEFE" d="M315.442,612.501c-3.991,0.175-6.05-1.616-6.853-5.807
			c-0.491-2.56-0.421-5.096,0.267-7.596c0.556-2.022,1.717-3.595,3.733-4.412c0.634-0.009,1.267-0.022,1.9-0.027
			c2.334-0.02,3.964,1.133,4.819,3.216c1.475,3.589,1.424,7.252,0.178,10.91C318.814,610.759,317.262,611.775,315.442,612.501z"/>
		<path fill-rule="evenodd" clip-rule="evenodd" fill="#658CA0" d="M297.675,486.729c-7.408,6.557-13.868,13.899-18.629,22.63
			c-2.731,5.007-3.851,10.337-2.363,15.922c0.948,3.559,3.361,5.891,7.117,6.598c-0.732,0.744-1.563,0.456-2.391,0.23
			c-0.818-0.224-1.638-0.442-2.458-0.663c-3.344-1.449-5.507-3.831-6.381-7.469c-1.449-6.031-0.56-11.823,1.432-17.545
			c0.339-0.976,0.766-1.92,1.152-2.88c1.642-2.252,2.731-4.831,4.36-7.111c2.134-2.986,4.399-5.859,6.695-8.715
			c1.386-0.657,1.871-2.144,2.891-3.141c1.487-1.454,2.872-3.02,4.425-4.396c1.681-1.49,2.567-3.183,2.301-5.478
			c-0.117-1.007-0.206-2.192,1.351-2.309c0.023,1.264,0.047,2.527,0.07,3.79c0.556,0.908-0.083,1.986,0.415,2.902
			C297.667,481.642,297.671,484.186,297.675,486.729z"/>
		<path fill-rule="evenodd" clip-rule="evenodd" fill="#FEFEFE" d="M279.933,608.108c2.291-1.741,4.331-3.754,6.302-5.839
			c0.603-0.638,1.127-1.353,1.417-2.198c0.417-1.22-0.034-2.413-1.049-2.836c-0.973-0.405-2.193-0.089-2.555,1.074
			c-0.432,1.387-1.287,1.375-2.362,1.348c-1.816-0.045-2.173-0.501-1.451-2.111c1.077-2.404,3.193-2.926,5.555-2.922
			c2.376,0.004,4.501,0.585,5.488,3.014c0.597,1.47,0.364,2.977-0.426,4.377c-1.002,1.775-2.559,3.039-4.01,4.405
			c-0.971,0.914-2.158,1.611-3.052,2.948c1.215,0.391,2.31,0.172,3.37,0.207c1.276,0.043,2.554-0.005,3.831,0.032
			c0.769,0.021,0.818,0.612,0.812,1.2c-0.006,0.571-0.004,1.15-0.777,1.239c-0.158,0.019-0.318,0.025-0.478,0.022
			c-3.669-0.067-7.341,0.149-11.007-0.143C279.694,610.656,279.255,609.325,279.933,608.108z"/>
		<path fill-rule="evenodd" clip-rule="evenodd" fill="#FEFEFE" d="M298.192,594.707c0.238,0,0.479,0.028,0.712-0.005
			c4.651-0.656,6.376,2.435,6.969,5.726c0.339,1.881,0.329,3.769,0.078,5.678c-0.541,4.096-2.257,5.899-6.315,6.442
			c-2.926-0.425-4.468-2.304-5.123-5.013c-0.648-2.679-0.66-5.39,0.003-8.072C295.038,597.355,296.138,595.651,298.192,594.707z"/>
		<path fill-rule="evenodd" clip-rule="evenodd" fill="#9BB3C2" d="M322.164,370.529c-2.573,2.087-5.146,4.174-7.719,6.261
			c-1.207-0.663-1.133-1.858-1.144-2.953c-0.103-11.097-0.757-22.177-1.065-33.268c-0.388-13.959-0.993-27.914-1.446-41.873
			c-0.293-9.013-0.529-18.032-0.979-27.034c-0.282-5.657,0.009-11.343-0.741-16.977c-0.097-0.725-0.057-1.435,0.229-2.119
			c3.156-3.787,5.408-8.132,7.685-12.462c1.497,0.051,1.557,1.241,1.578,2.231c0.068,3.277,0.527,6.523,0.604,9.807
			c0.293,12.614,0.686,25.225,1.31,37.83c0.265,5.343,0.363,10.702,0.469,16.046c0.13,6.552,0.442,13.1,0.7,19.64
			c0.323,8.213,0.811,16.418,0.786,24.642c0.156,6.361-0.005,12.716-0.414,19.066C321.991,369.767,321.976,370.158,322.164,370.529z
			"/>
		<path fill-rule="evenodd" clip-rule="evenodd" fill="#6E93A6" d="M309.299,252.566c0.529,1.836,0.946,3.684,0.908,5.619
			c-0.042,2.157-0.186,4.333,0.028,6.469c0.54,5.41,0.069,10.859,0.555,16.236c0.404,4.475-0.02,8.941,0.426,13.37
			c0.489,4.86,0.046,9.744,0.529,14.56c0.401,3.995,0.034,7.979,0.42,11.933c0.498,5.096,0.066,10.22,0.538,15.278
			c0.417,4.473-0.032,8.946,0.445,13.368c0.498,4.625,0.035,9.263,0.5,13.844c0.389,3.831,0.296,7.638,0.38,11.457
			c0.017,0.734,0.122,1.425,0.417,2.091c-2.276,1.686-4.122,3.918-6.669,5.262c-1.173-2.106-1.205-4.478-1.161-6.734
			c0.142-7.271-0.414-14.52-0.633-21.773c-0.431-14.27-0.994-28.536-1.435-42.806c-0.273-8.847-0.577-17.697-0.959-26.539
			c-0.328-7.57-0.388-15.149-0.866-22.712c-0.081-1.277-0.04-2.568,0.768-3.678C305.617,256.273,307.479,254.444,309.299,252.566z"
			/>
		<path fill-rule="evenodd" clip-rule="evenodd" fill="#1A6178" d="M322.164,370.529c-0.574,0.025-0.888-0.226-0.88-0.825
			c0.015-1.189-0.065-2.387,0.057-3.565c0.54-5.217,0.273-10.451,0.4-15.676c0.481-4.93,0.078-9.871,0.171-14.804
			c0.119-6.377-0.272-12.761,0.212-19.131c0.108-1.433,0.299-2.86,0.259-4.299c-0.264-9.506,0.415-18.996,0.594-28.493
			c0.218-11.565,0.48-23.141,0.968-34.697c0.347-8.212-0.035-16.45,0.862-24.639c0.147-1.347,0.223-2.705,0.731-3.984
			c0.978-0.946,1.255-0.021,1.433,0.627c0.61,2.234,1.416,4.391,2.363,6.499c1.198,2.665,1.533,5.45,1.549,8.374
			c0.037,7.104-0.485,14.191-0.668,21.285c-0.112,4.371,0.079,8.787-0.405,13.128c-0.518,4.629,0.017,9.275-0.499,13.85
			c-0.513,4.556,0.008,9.108-0.452,13.616c-0.487,4.785-0.017,9.592-0.52,14.328c-0.441,4.158,0.004,8.308-0.433,12.417
			c-0.525,4.942-0.032,9.91-0.523,14.808c-0.458,4.556,0.045,9.113-0.455,13.613c-0.497,4.471-0.31,8.92-0.388,13.38
			C325.324,367.99,323.46,368.962,322.164,370.529z"/>
		<path fill-rule="evenodd" clip-rule="evenodd" fill="#538095" d="M303.49,257.811c-0.002,2.479-0.259,4.991,0.045,7.433
			c0.605,4.861,0.021,9.755,0.52,14.575c0.463,4.477-0.015,8.954,0.453,13.381c0.498,4.708-0.003,9.438,0.509,14.095
			c0.483,4.399-0.021,8.794,0.445,13.142c0.522,4.867,0.014,9.755,0.512,14.576c0.462,4.477-0.015,8.954,0.454,13.38
			c0.498,4.709-0.002,9.438,0.509,14.095c0.481,4.399,0.208,8.77,0.385,13.148c0.087,2.144,0.765,4.246,0.455,6.417
			c-1.386,1.687-3.499,2.559-4.829,4.308c0,0-0.238,0.005-0.238,0.005s-0.236-0.03-0.236-0.031
			c-0.738-4.759-0.047-9.58-0.514-14.322c-0.456-4.631,0.014-9.274-0.487-13.852c-0.481-4.395-0.011-8.788-0.453-13.136
			c-0.486-4.785-0.021-9.593-0.519-14.329c-0.461-4.397-0.013-8.785-0.433-13.138c-0.477-4.941-0.063-9.907-0.535-14.808
			c-0.377-3.917-0.045-7.822-0.415-11.7c-0.501-5.257-0.048-10.548-0.553-15.766c-0.425-4.398-0.128-8.769-0.388-13.142
			c-0.081-1.354,0.483-2.043,1.66-2.534C301.086,259.088,302.274,258.416,303.49,257.811z"/>
		<path fill-rule="evenodd" clip-rule="evenodd" fill="#7698AB" d="M325.538,220.416c-0.069,7.979-0.387,15.956-0.632,23.927
			c-0.185,5.981,0.017,11.98-0.437,17.938c-0.436,5.747-0.034,11.503-0.473,17.223c-0.44,5.746-0.044,11.502-0.475,17.224
			c-0.45,5.986-0.047,11.982-0.487,17.943c-0.402,5.429-0.063,10.863-0.455,16.268c-0.434,5.984-0.291,11.967-0.438,17.949
			c-0.014,0.556,0.042,1.129-0.402,1.575c-0.007-3.902,0.181-7.817-0.076-11.703c-0.251-3.798-0.173-7.625-0.81-11.398
			c-0.131-0.78-0.107-1.594-0.088-2.39c0.179-7.021-0.501-14.021-0.625-21.038c-0.065-3.721-0.141-7.478-0.361-11.21
			c-0.33-5.572-0.209-11.168-0.587-16.717c-0.299-4.39,0.047-8.785-0.415-13.129c-0.518-4.863-0.169-9.726-0.493-14.568
			c-0.148-2.216-0.414-4.428-0.406-6.658c0.003-0.694-0.219-1.252-0.896-1.548c2.277-5.182,4.714-10.293,6.777-15.571
			C324.301,223.148,324.387,221.542,325.538,220.416z"/>
		<path fill-rule="evenodd" clip-rule="evenodd" fill="#FEFDFD" d="M310.483,235.165c1.023-2.551,1.536-4.96,2.093-7.34
			c0.41-1.753,1.177-2.933,2.908-3.689c2.834-1.238,5.555-2.738,8.412-4.172c0.268,0.86-0.331,1.28-0.651,1.741
			c-4.646,6.697-9.397,13.317-14.544,19.644c-1.872,2.301-3.888,4.453-6.395,6.095c-1.075,0.704-2.182,1.341-3.42,1.696
			c-2.392,0.685-4.008,0.014-5.196-2.191c-1.307-2.424-1.436-5.057-1.1-7.703c0.685-5.398,0.722-5.393,5.802-7.361
			c2.084-0.807,4.18-1.585,6.246-2.438c0.875-0.361,1.439-0.248,2.005,0.564C307.822,231.701,309.101,233.321,310.483,235.165z"/>
		<path fill-rule="evenodd" clip-rule="evenodd" fill="#23647B" d="M299.656,388.413c-0.469,0.698-1.157,1.101-1.905,1.427
			c-0.607-0.933-0.521-1.983-0.511-3.021c0.065-6.223-0.383-12.438-0.628-18.646c-0.176-4.46,0.056-8.943-0.388-13.374
			c-0.503-5.022-0.036-10.069-0.531-15.048c-0.405-4.078-0.027-8.143-0.417-12.18c-0.5-5.179-0.06-10.387-0.542-15.527
			c-0.404-4.317,0.039-8.633-0.44-12.896c-0.538-4.787-0.001-9.592-0.503-14.331c-0.474-4.474-0.037-8.944-0.463-13.375
			c-0.284-2.947-0.402-5.876-0.398-8.822c0.002-1.184-0.472-1.943-1.582-2.397c-1.49-0.61-2.84-1.439-3.668-2.905
			c0.747,0.061,1.438,0.358,1.941,0.856c0.965,0.957,2.161,1.27,3.414,1.572c2.017,0.486,2.187,0.846,2.299,2.984
			c0.307,5.816,0.247,11.653,0.59,17.452c0.269,4.55-0.05,9.113,0.431,13.617c0.478,4.472-0.009,8.959,0.494,13.376
			c0.519,4.557-0.007,9.112,0.454,13.622c0.506,4.947,0.019,9.915,0.518,14.814c0.431,4.238-0.013,8.474,0.442,12.661
			c0.529,4.867,0.015,9.755,0.513,14.575c0.455,4.398-0.029,8.797,0.46,13.14C299.702,380.139,299.522,384.272,299.656,388.413z"/>
		<path fill-rule="evenodd" clip-rule="evenodd" fill="#FEFEFE" d="M296.408,659.912c2.404,6.877,4.808,13.754,7.294,20.864
			c-5.138,0-10.018,0-15.191,0c2.507-7.038,4.978-13.977,7.45-20.916C296.109,659.878,296.258,659.895,296.408,659.912z"/>
		<path fill-rule="evenodd" clip-rule="evenodd" fill="#FEFEFE" d="M140.066,660.02c2.384,6.815,4.769,13.632,7.195,20.567
			c-1.717,0.683-3.386,0.273-5.005,0.346c-1.592,0.071-3.19,0.016-4.785,0.016c-1.672,0-3.344,0-5.396,0
			c2.535-7.118,4.997-14.031,7.458-20.945C139.711,660.009,139.889,660.014,140.066,660.02z"/>
		<path fill-rule="evenodd" clip-rule="evenodd" fill="#FFFFFF" d="M475.232,664.724c0-2.231,0.002-4.463-0.002-6.694
			c-0.001-0.676,0.018-1.276,0.967-1.276c2.629-0.001,5.262-0.086,7.795,0.816c3.379,1.204,4.965,3.657,4.917,7.601
			c-0.045,3.688-1.589,5.881-4.958,7.035c-2.541,0.87-5.178,0.759-7.805,0.765c-0.987,0.002-0.91-0.676-0.911-1.313
			C475.229,669.345,475.232,667.034,475.232,664.724z"/>
		<path fill-rule="evenodd" clip-rule="evenodd" fill="#7094A7" d="M348.601,268.846c-0.796,1.258-1.058,2.626-0.976,4.109
			c0.075,1.353,0.042,2.714,0.011,4.071c-0.145,6.047-0.348,12.101-0.612,18.136c-0.188,4.294,0.046,8.613-0.41,12.872
			c-0.504,4.699-0.005,9.418-0.506,14.067c-0.499,4.628-0.014,9.25-0.455,13.834c-0.345,3.581-0.386,7.146-0.408,10.724
			c-0.007,1.019-0.348,1.904-1.045,2.595c-1.867,1.85-3.552,3.888-5.628,5.525c-1.533-0.305-1.122-1.527-1.095-2.477
			c0.232-7.817,0.474-15.638,0.826-23.446c0.494-10.92,0.585-21.853,1.274-32.766c0.326-5.174,0.357-10.374,0.465-15.553
			c0.144-6.865,0.854-13.713,0.608-20.586c-0.028-0.797-0.017-1.624,0.318-2.359c0.348-0.764,0.629-1.765,1.868-1.227
			c1.923,3.834,3.846,7.668,5.769,11.503C348.604,268.194,348.603,268.52,348.601,268.846z"/>
		<path fill-rule="evenodd" clip-rule="evenodd" fill="#568297" d="M342.837,256.365c-0.413,0.048-0.758,0.197-0.983,0.581
			c-0.334,0.569-0.487,1.174-0.452,1.832c0.329,6.066-0.508,12.101-0.482,18.159c0.026,6.377-0.405,12.746-0.62,19.113
			c-0.153,4.534,0.071,9.101-0.413,13.6c-0.498,4.627,0.006,9.268-0.494,13.842c-0.472,4.312-0.001,8.625-0.458,12.887
			c-0.504,4.703-0.32,9.394-0.413,14.09c-0.011,0.568-0.191,1.092-0.305,1.635c-0.189,0.91-0.515,1.887,0.354,2.676
			c-0.485,0.64-0.972,1.279-1.458,1.919c-1.486,0.883-2.269,2.586-3.876,3.329c0.63-2.265,0.426-4.586,0.492-6.893
			c0.171-5.898,0.313-11.806,0.61-17.688c0.206-4.065-0.024-8.145,0.39-12.178c0.531-5.181,0.049-10.389,0.534-15.53
			c0.415-4.397-0.016-8.791,0.438-13.139c0.516-4.945,0.011-9.914,0.521-14.811c0.434-4.16-0.002-8.31,0.432-12.42
			c0.505-4.784,0.352-9.56,0.438-14.341c0.024-1.351,0.583-2.634,0.531-4.017c-0.023-0.635,0.47-0.753,0.995-0.4
			c0.558,0.373,0.827,0.961,1.113,1.534C340.769,252.217,341.803,254.291,342.837,256.365z"/>
		<path fill-rule="evenodd" clip-rule="evenodd" fill="#FFFFFF" d="M295.23,737.297c0-3.438-0.014-6.875,0.007-10.313
			c0.009-1.64,0.039-1.671,1.734-1.667c1.515,0.004,3.047-0.173,4.541,0.19c4.688,1.141,7.724,4.02,8.906,8.722
			c1.652,6.565-1.691,12.887-7.769,14.795c-2.098,0.658-4.263,0.542-6.417,0.561c-1.129,0.01-0.998-0.783-0.999-1.495
			C295.229,744.492,295.23,740.895,295.23,737.297z"/>
		<path fill-rule="evenodd" clip-rule="evenodd" fill="#FEFEFF" d="M192.072,739.357c1.145-0.104,2.414,0.118,3.656,0.402
			c2.618,0.6,4.047,2.4,4.025,4.932c-0.021,2.385-1.453,4.031-4.1,4.557c-1.728,0.343-3.494,0.341-5.256,0.351
			c-1.007,0.006-1.188-0.479-1.177-1.332c0.031-2.399-0.007-4.798,0.016-7.196c0.016-1.669,0.042-1.67,1.729-1.712
			C191.285,739.351,191.604,739.357,192.072,739.357z"/>
		<path fill-rule="evenodd" clip-rule="evenodd" fill="#FEFEFE" d="M189.233,729.52c-0.001-1.039,0.012-2.079-0.006-3.118
			c-0.011-0.634,0.11-1.11,0.891-1.089c1.911,0.05,3.84-0.196,5.711,0.428c1.838,0.612,2.798,1.818,2.884,3.679
			c0.083,1.788-0.851,3.203-2.619,3.889c-1.913,0.741-3.924,0.626-5.921,0.624c-0.745-0.001-0.953-0.394-0.944-1.053
			C189.246,731.759,189.235,730.64,189.233,729.52z"/>
		<path fill-rule="evenodd" clip-rule="evenodd" fill="#42768C" d="M297.662,479.097c-0.737-0.882-0.323-1.928-0.415-2.901
			C298.052,477.066,297.62,478.116,297.662,479.097z"/>
		<path fill-rule="evenodd" clip-rule="evenodd" fill="#658CA0" d="M317.809,485.793c0.207,2.847,0.017,5.691-0.017,8.537
			c-0.004,0.404-0.087,0.782-0.38,1.087c-0.005-2.77-0.01-5.539-0.016-8.309C317.395,486.625,317.435,486.157,317.809,485.793z"/>
		<path fill-rule="evenodd" clip-rule="evenodd" fill="#81A0B2" d="M330.668,600.227c-0.001,1.756-0.797,2.727-2.252,2.744
			c-1.548,0.02-2.372-0.991-2.357-2.889c0.015-1.865,0.914-2.997,2.345-2.952C329.762,597.172,330.67,598.413,330.668,600.227z"/>
		<path fill-rule="evenodd" clip-rule="evenodd" fill="#6F93A7" d="M316.485,603.075c0.006,2.028,0.028,3.698-0.571,5.297
			c-0.293,0.782-0.721,1.512-1.646,1.475c-0.918-0.036-1.366-0.793-1.567-1.584c-0.794-3.131-0.823-6.282-0.033-9.417
			c0.218-0.863,0.639-1.698,1.726-1.676c0.962,0.021,1.286,0.8,1.57,1.559C316.535,600.252,316.466,601.849,316.485,603.075z"/>
		<path fill-rule="evenodd" clip-rule="evenodd" fill="#60889D" d="M297.85,603.846c0.044-1.967,0.163-3.478,0.548-4.942
			c0.225-0.854,0.627-1.732,1.694-1.747c1.083-0.014,1.47,0.86,1.681,1.729c0.744,3.064,0.712,6.143,0.029,9.216
			c-0.051,0.229-0.163,0.45-0.271,0.662c-0.298,0.59-0.691,1.108-1.416,1.117c-0.729,0.008-1.124-0.503-1.425-1.097
			c-0.329-0.648-0.499-1.336-0.561-2.06C298.035,605.616,297.915,604.509,297.85,603.846z"/>
	</g>
</g>
</svg>
