<?xml version="1.0" encoding="utf-8"?>
<!-- Generator: Adobe Illustrator 16.0.0, SVG Export Plug-In . SVG Version: 6.00 Build 0)  -->
<!DOCTYPE svg PUBLIC "-//W3C//DTD SVG 1.1//EN" "http://www.w3.org/Graphics/SVG/1.1/DTD/svg11.dtd">
<svg version="1.1" id="Layer_1" xmlns="http://www.w3.org/2000/svg" xmlns:xlink="http://www.w3.org/1999/xlink" x="0px" y="0px"
	 width="512px" height="512px" viewBox="48 154 512 512" enable-background="new 48 154 512 512" xml:space="preserve">
<g>
	<g>
		<path fill="#FEFEFE" d="M48,396c0-80.667,0-161.333,0-242c170.667,0,341.332,0,512,0c0,80.667,0,161.333,0,242
			c-0.511,0.336-0.973,0.279-1.387-0.168c-1.606-6.975-1.777-14.141-2.769-21.203c-4.841-34.528-16.882-66.395-35.039-96.037
			c-11.201-18.287-24.637-34.813-40.194-49.539c-16.277-15.408-34.234-28.548-53.948-39.349
			c-30.856-16.906-63.859-26.735-98.745-30.127c-38.211-3.714-75.445,1.319-111.54,14.322
			c-28.168,10.147-53.73,24.919-76.665,44.207c-25.422,21.38-45.928,46.661-61.426,76.104
			c-15.347,29.154-24.278,60.134-27.811,92.788c-0.317,2.945,0.475,6.039-1.086,8.834C48.975,396.282,48.511,396.337,48,396z"/>
		<path fill="#FEFEFE" d="M560,425c0,80.333,0,160.667,0,241c-170.668,0-341.333,0-512,0c0-80.333,0-160.667,0-241
			c0.51-0.336,0.972-0.279,1.386,0.168c1.607,6.975,1.759,14.142,2.771,21.202c4.945,34.486,16.815,66.407,35.021,96.041
			c11.761,19.143,25.838,36.461,42.353,51.621c37.132,34.086,80.485,55.887,130.265,64.602c15.448,2.705,31.032,4.307,46.694,3.98
			c40.752-0.849,79.446-10.072,115.747-28.991c25.677-13.382,48.576-30.442,68.238-51.598c29.835-32.1,50.374-69.372,60.741-112.123
			c3.348-13.803,5.631-27.731,6.555-41.895c0.065-1.005,0.245-1.985,0.837-2.842C559.024,424.718,559.489,424.663,560,425z"/>
		<path fill="#5984BD" d="M560,425c-0.284,0.067-0.571,0.121-0.86,0.163c-2.528-4.593-2.532-24.713-0.006-29.32
			c0.288,0.053,0.577,0.105,0.866,0.157C560,405.667,560,415.333,560,425z"/>
		<path fill="#688EC3" d="M48.83,425.167c-0.294,0.034-0.571-0.021-0.83-0.167c0-9.667,0-19.333,0-29
			c0.267-0.12,0.546-0.174,0.838-0.16c0.342,0.353,0.861,0.609,0.938,1.123c1.379,9.027,1.388,18.059-0.005,27.085
			C49.694,424.563,49.173,424.816,48.83,425.167z"/>
		<path fill="#0C4DA0" d="M48.83,425.167c0.003-9.774,0.006-19.552,0.009-29.327c0.968-24.612,5.887-48.497,14.61-71.442
			c27.177-71.488,76.631-121.284,147.487-149.841c22.344-9.005,45.668-14.432,69.625-16.324
			c69.75-5.51,132.372,13.094,186.741,57.436c42.079,34.319,69.983,78.1,84.106,130.55c4.372,16.237,7.298,32.749,7.725,49.625
			c0.002,9.773,0.004,19.547,0.006,29.32c-0.746,22.428-4.933,44.305-12.455,65.336c-29.076,81.292-85.101,135.133-167.028,161.954
			c-19.651,6.434-39.985,9.646-60.686,10.831c-43.548,2.496-85.042-5.396-124.499-23.896c-34.733-16.286-64.318-39.247-88.737-68.88
			C79.266,538.388,61.9,501.903,53.344,461.246C50.847,449.379,48.966,437.364,48.83,425.167z"/>
		<path fill="#FDFDFE" d="M492.544,410.523c-0.353,90.026-62.721,160.87-140.823,180.506
			c-53.383,13.42-103.795,5.587-150.287-24.021c-34.279-21.828-58.899-51.923-73.65-89.979
			c-5.562-14.348-9.085-29.098-11.048-44.341c-0.892-6.933-1.249-13.91-1.464-20.808c-0.251-8.041,0.576-16.179,1.553-24.257
			c1.546-12.795,4.204-25.33,8.531-37.415c14.412-40.25,39.442-72.311,75.216-95.802c24.165-15.867,50.721-25.615,79.378-29.131
			c97.685-11.983,183.307,50.149,206.453,137.837C490.507,378.654,492.488,394.461,492.544,410.523z"/>
		<path fill="#FEFEFE" d="M507.278,550.626c-2.707,3.197-5.257,6.21-7.955,9.397c-11.957-0.287-23.884-0.574-37.102-0.893
			c8.093,6.405,15.303,12.111,22.75,18.006c-2.646,3.125-5.157,6.091-7.827,9.243c-12.525-9.755-24.811-19.322-37.256-29.014
			c2.639-3.114,5.1-6.021,7.746-9.144c11.892-0.424,23.912,0.445,36.262-0.214c-7.104-5.608-14.211-11.22-21.668-17.106
			c2.568-3.067,5.048-6.028,7.794-9.31C482.471,531.295,494.755,540.867,507.278,550.626z"/>
		<path fill="#FDFEFD" d="M495.875,466.384c-2.201,1.705-1.293,4.958-4.081,5.855c-0.551-4.063,4.451-16.611,8.423-21.157
			c1.814,2.618-2.102,4.387-0.788,6.913c3.544-5.247,8.354-8.427,14.843-9.563c1.257,3.867,1.504,7.753,2.055,11.293
			c-1.246,1.464-2.728,1.313-3.91,1.891c-6.352,3.1-8.174,10.337-3.928,15.93c4.537,5.977,14.555,8.415,21.283,5.135
			c4.122-2.01,6.13-5.445,6.442-9.946c0.291-4.181-1.661-6.918-5.492-8.659c-1.93,2.743-1.435,6.211-3.331,9.038
			c-3.079-0.195-5.977-1.224-9.097-2.146c2.021-7.734,3.939-15.084,5.851-22.396c14.669,1.553,23.337,12.335,22.561,23.853
			c-1.175,17.391-15.94,27.728-32.729,22.963c-10.179-2.889-16.768-9.123-18.604-19.864
			C494.856,472.495,495.98,469.596,495.875,466.384z"/>
		<path fill="#FDFEFD" d="M147.882,530.052c4.275,4.418,8.344,8.574,12.36,12.781c7.016,7.352,8.691,17.876,4.227,26.249
			c-4.751,8.909-14.875,14.118-24.618,12.628c-5.408-0.827-10.188-3.011-14.123-6.864c-4.156-4.069-8.267-8.188-12.573-12.46
			C124.607,551.723,135.928,541.182,147.882,530.052z"/>
		<path fill="#FDFEFE" d="M268.808,649.507c1.936-15.225,3.836-30.186,5.811-45.707c7.146,0.909,14.063,1.544,20.88,2.744
			c4.432,0.779,8.14,3.139,9.327,7.947c1.295,5.242-0.537,9.825-5.506,13.774c4.193,1.866,7.317,4.646,7.488,9.39
			c0.32,8.885-3.897,13.536-12.923,14.351c-5.857,0.529-11.591-0.933-17.387-1.422C274.049,650.377,271.624,649.91,268.808,649.507z
			"/>
		<path fill="#FEFEFE" d="M89.333,460.239c-1.62,6.688-4.676,9.445-11.288,10.418c-5.469,0.805-9.784-1.427-12.794-6.622
			c-1.957-3.375-2.597-7.138-3.194-10.912c-0.773-4.89-1.554-9.779-2.438-15.346c15.799-2.414,31.269-4.777,46.999-7.183
			c1.726,6.584,2.587,12.965,3.313,19.343c0.515,4.524-0.528,8.787-4.949,11.094c-4.769,2.485-9.714,3.472-14.481-0.238
			C90.247,460.598,89.912,460.509,89.333,460.239z"/>
		<path fill="#FEFEFD" d="M436.885,616.867c0.441,1.274-0.315,1.69-1.339,2.149c-3.942,1.77-7.844,3.632-12.141,5.638
			c-7.372-3.479-14.979-7.065-23.52-11.094c3.147,6.331,5.89,11.844,8.894,17.885c-3.51,1.704-7.017,3.406-11.12,5.398
			c-6.961-13.708-13.9-27.375-20.92-41.197c3.422-2.424,7.225-3.599,11.015-5.566c2.769,5.375,5.471,10.62,8.694,16.88
			c1.778-8.275,3.321-15.453,4.92-22.894c3.972-2.759,8.814-4.172,13.955-7.144c-2.464,9.644-4.738,18.545-7.061,27.63
			c5.083,2.964,10.56,4.942,15.858,7.252c4.229,1.842,8.232,4.306,12.859,5.174L436.885,616.867z"/>
		<path fill="#FEFEFD" d="M411.212,247.542c-4.853-2.572-8.93-4.732-12.994-6.887c-0.835-6.549-1.339-12.938-2.405-19.623
			c-2.597,4.649-5.194,9.299-7.959,14.248c-3.517-2.051-7.061-3.373-10.328-5.909c7.071-13.196,14.104-26.318,21.475-40.073
			c6.882,3.93,14.229,6.611,20.323,11.477c5.12,4.086,6.229,9.484,3.792,15.196c-2.829,6.633-7.717,9.439-15.683,8.564
			C408.65,231.949,409.844,239.212,411.212,247.542z"/>
		<path fill="#FEFEFD" d="M436.982,616.979c-1.977-8.934-5.647-17.322-8.362-26.021c-2.117-6.79-4.527-13.488-6.879-20.435
			c3.528-2.771,6.911-5.424,10.576-8.3c14.542,8.214,29.09,16.431,44.162,24.941c-3.695,2.872-6.917,5.375-10.291,7.996
			c-2.486-1.392-4.927-2.756-7.673-4.292c-4.363,3.407-8.783,6.859-13.269,10.364c0.868,2.708,1.668,5.201,2.647,8.255
			c-3.755,2.173-6.255,6.312-11.011,7.378L436.982,616.979z"/>
		<path fill="#FEFEFE" d="M354.448,649.866c-4.868,0.381-8.924,1.341-13.244,0.954c-1.216-2.337-2.431-4.67-3.769-7.239
			c-5.578,0.219-11.158,0.522-16.946,1.456c-0.907,2.568-1.828,5.173-2.806,7.938c-4.206,0.206-8.236,1.259-12.927,0.8
			c4.671-15.7,9.278-31.187,13.894-46.699c4.619-1.315,9.087-1.063,13.813-1.316C339.704,620.288,346.93,634.783,354.448,649.866z"
			/>
		<path fill="#FEFEFE" d="M360.622,176.067c4.131,1.168,8.089,2.287,12.622,3.57c1.313,15.949,2.627,31.939,3.98,48.395
			c-4.438-0.773-8.145-1.97-12.032-3.231c-0.385-2.745-0.77-5.498-1.18-8.431c-5.175-1.496-10.236-2.96-15.199-4.395
			c-2.545,1.78-3.594,4.608-5.935,6.579c-3.751-1.058-7.532-2.123-12.02-3.387C340.956,201.904,350.753,189.034,360.622,176.067z"/>
		<path fill="#FEFEFE" d="M230.939,226.935c-0.067,0.961-0.023,1.783-1.2,2.404c-3.071,1.622-6.004,3.51-9.037,5.318
			c-2.216-1.683-4.316-3.277-6.783-5.149c-4.577,2.7-9.238,5.45-13.742,8.106c-0.59,3.021,0.985,5.512,0.713,8.512
			c-2.988,2.536-6.768,4.185-10.651,6.655c-2.878-16.176-5.687-31.964-8.521-47.896c3.424-2.792,7.33-4.584,11.168-7.023
			c6.914,5.407,13.837,10.804,20.742,16.226c5.096,4.002,10.167,8.038,15.25,12.057c0.635,0.502,1.201,1.181,2.164,0.907
			L230.939,226.935z"/>
		<path fill="#FDFEFD" d="M372.356,650.701c-1.991-0.616-3.408-1.055-4.639-1.437c-1.167-1.05,0.351-1.969-0.258-3.017
			c-4.337-0.117-8.881,0.341-13.198-2.15c0.81-3.288,1.622-6.587,2.479-10.065c3.349,0.979,6.229,2.28,9.461,2.03
			c1.711-0.132,3.316-0.503,4.736-1.373c1.639-1.007,2.742-2.443,2.353-4.555c-0.441-2.396-2.137-3.179-4.332-3.312
			c-2.821-0.171-5.647-0.314-8.466-0.555c-7.298-0.618-9.814-2.504-11.738-8.688c-2.013-6.463-0.404-12.202,4.521-16.149
			c5.397-4.323,15.219-5.686,22.473-2.987c-0.67,2.98-1.348,5.999-2.085,9.28c-3.457-0.32-6.854-1.669-10.175,0.049
			c-1.398,0.723-2.454,1.68-2.979,3.473c0.146,2.785,2.21,3.515,4.701,3.783c3.138,0.338,6.291,0.066,9.443,0.639
			c5.395,0.977,9.21,3.496,10.685,9.039c1.563,5.878,1.337,11.496-3.8,15.423C377.769,643.014,374.77,646.357,372.356,650.701z"/>
		<path fill="#FEFEFE" d="M88.956,482.228c-2.643,0.92-4.952,1.724-7.569,2.634c1.571,4.407,3.052,8.563,4.632,12.995
			c-2.676,2.01-6.096,2.125-9.719,3.776c-2.984-8.182-5.899-16.176-9.049-24.812c15.029-5.004,30.034-9.998,45.347-15.097
			c2.947,8.205,5.789,16.114,8.732,24.311c-3.14,1.791-6.389,2.68-9.669,3.68c-2.201-4.267-2.81-8.997-5.375-13.173
			c-2.278,0.756-4.449,1.477-7.024,2.331c1.489,4.221,2.897,8.213,4.383,12.425c-2.858,1.789-6.175,2.229-9.423,3.563
			C91.745,491.107,91.229,486.537,88.956,482.228z"/>
		<path fill="#FDFEFD" d="M239.672,625.771c-4.351-1.591-8.374-3.063-12.526-4.58c-1.691,2.058-2.019,4.576-3.29,6.959
			c4.192,2.646,9.149,3.131,13.361,5.634c-0.338,3.256-2.314,5.831-3.229,9.371c-8.603-3.191-16.899-6.271-25.586-9.492
			c5.785-14.503,11.412-28.609,17.156-43.011c8.561,3.148,16.782,6.176,25.484,9.378c-1.259,3.114-2.457,6.075-3.791,9.375
			c-4.557-1.621-8.89-3.163-13.446-4.784c-1.587,2.036-2.136,4.395-3.091,6.857c4.34,1.689,8.471,3.299,12.749,4.965
			C242.429,619.743,241.382,622.671,239.672,625.771z"/>
		<path fill="#FEFEFE" d="M146.483,529.289c-2.907,2.035-5.486,3.841-8.501,5.95c-2.828-3.816-5.648-7.623-8.588-11.589
			c-2.167,1.418-4.09,2.678-6.466,4.231c2.626,3.649,5.187,7.207,7.971,11.074c-2.716,1.879-5.416,3.746-8.49,5.873
			c-2.679-3.597-5.315-7.139-8.11-10.894c-2.362,1.282-4.522,2.708-6.684,4.672c2.695,3.693,5.327,7.305,8.104,11.109
			c-2.237,2.607-5.564,3.823-8.344,6.232c-5.25-7.189-10.337-14.154-15.731-21.539c13.05-8.812,25.953-17.521,39.234-26.486
			C135.979,514.911,141.049,521.851,146.483,529.289z"/>
		<path fill="#FDFEFD" d="M231.042,227.051c-0.488-2.239-2.39-3.458-3.748-5.032c-8.797-10.191-17.668-20.318-26.757-30.744
			c3.753-2.316,7.909-2.71,11.913-4.489c6.286,7.44,12.544,14.847,19.354,22.906c0.731-10.375,1.393-19.759,2.084-29.566
			c3.892-1.293,7.774-2.582,12.357-4.104c-1.496,16.604-2.951,32.756-4.425,49.106c-2.417,1.702-5.461,1.955-8.173,3.074
			c-0.959-0.448-1.834-0.858-2.71-1.268L231.042,227.051z"/>
		<path fill="#FDFEFE" d="M280.963,183.491c-8.559-4.231-15.413-3.438-19.571,2.429c-3.572,5.04-2.776,12.57,1.783,16.887
			c5.073,4.804,12.041,4.026,19.592-2.218c1.187,4.183,1.152,8.509,1.862,12.673c-7.885,6.175-22.04,5.401-30.453-2.367
			c-7.624-7.04-9.711-19.069-4.851-28.416c5.665-10.894,19.278-15.84,29.62-11.975C280.678,174.51,279.554,179.152,280.963,183.491z
			"/>
		<path fill="#FDFEFE" d="M185.205,621.396c-3.681-2.116-6.962-4.005-10.642-6.119c3.901-6.313,7.711-12.479,11.754-19.021
			c-0.716-9.252-1.457-18.831-2.23-28.826c4.708,1.769,8.47,4.66,12.661,6.915c0.39,4.841,0.774,9.611,1.19,14.774
			c5.209-1.428,9.571-4.107,14.327-5.846c3.943,2.476,8.181,4.337,12.312,7.528c-7.595,3.208-14.697,6.377-21.936,9.198
			c-3.883,1.514-6.752,3.688-8.766,7.463C191.388,612.129,188.306,616.477,185.205,621.396z"/>
		<path fill="#FDFEFD" d="M121.459,487.594c2.525,3.304,3.814,6.854,5.756,10.531c-11.229,5.307-22.236,10.51-33.512,15.838
			c2.186,4.347,4.175,8.304,6.281,12.492c-2.676,2.228-5.963,3.207-9.273,4.826c-3.999-7.868-7.879-15.503-12.019-23.646
			C93.031,500.916,107.194,494.279,121.459,487.594z"/>
		<path fill="#FDFEFD" d="M510.325,526.091c2.447-4.364,4.624-8.247,7.044-12.564c3.106,1.558,5.996,3.007,9.32,4.675
			c-4.314,7.804-8.505,15.382-12.859,23.256c-14.201-7.277-28.014-14.354-42.161-21.604c1.835-3.8,3.634-7.224,5.918-10.516
			C488.48,514.912,499.231,520.413,510.325,526.091z"/>
		<path fill="#FDFDFD" d="M308.51,167.028c4.025,0.425,7.615,0.804,11.69,1.233c-0.518,11.861-2.586,23.431-3.348,35.368
			c4.718,0.565,9.121,1.094,13.848,1.66c0.568,3.198-0.766,6.173-0.673,9.891c-8.806-0.883-17.294-1.733-26.311-2.638
			C305.327,197.252,306.902,182.293,308.51,167.028z"/>
		<path fill="#FDFEFD" d="M154.815,604.515c-3.509-2.565-6.587-4.816-9.928-7.262c9.595-12.253,19.1-24.39,28.813-36.792
			c3.387,2.463,6.542,4.757,9.933,7.223C173.966,580.037,164.555,592.065,154.815,604.515z"/>
		<path fill="#FDFDFD" d="M483.656,498.682c1.518-3.92,2.762-7.477,4.849-11.019c14.769,5.753,29.384,11.446,44.194,17.217
			c-1.682,3.896-3.165,7.334-4.764,11.04C513.043,510.121,498.432,504.434,483.656,498.682z"/>
		<path fill="#FDFDFD" d="M549.722,435.254c-0.343,3.988-0.65,7.578-1.022,11.913c-15.879-1.331-31.628-2.652-47.436-3.979
			c-0.493-4.313,0.729-7.942,0.834-11.971C518.222,432.584,533.875,433.911,549.722,435.254z"/>
		<path fill="#FDFDFD" d="M299.14,212.772c-4.49,0-8.09,0-12.268,0c0.229-15.247,0.094-30.269,0.854-45.387
			c4.062-0.573,7.792-0.18,11.414-0.062C299.14,182.637,299.14,197.508,299.14,212.772z"/>
		<path fill="#DFDAD6" d="M178.533,561.291c2.065-2.031,2.065-2.031,4.324-0.479C181.844,563.09,180.69,563.928,178.533,561.291z"/>
		<path fill="#CE8235" d="M469.495,490.909c-6.021,13.471-14.346,25.49-23.812,36.681c-22.676,26.809-50.839,45.587-84.181,56.584
			c-23.03,7.596-46.723,10.263-70.826,8.619c-20.683-1.41-40.672-6.161-59.74-14.468c-0.742-0.323-1.415-0.808-2.12-1.216
			c2.12-3.317,5.408-2.075,8.33-2.045c1.477,0.016,2.938,0.541,4.441,0.585c2.305,0.067,4.608,0.081,7.802,0.397
			c-3.243-2.992-6.558-3.243-9.714-3.765c-3.912-0.647-6.44-2.983-5.795-6.765c2.623-15.369,8.239-29.898,12.233-44.399
			c3.665-1.154,6.082,0.621,8.617,0.762c3.02-2.646,4.193-6.473,6.349-9.042c2.31-0.536,2.861,1.552,4.644,1.854
			c1.668-4.692,5.511-6.098,10.134-6.173c3.162,1.271,1.925,4.354,2.333,6.512c1.585,8.354,5.42,11.375,14.169,10.388
			c0.849-0.096,1.656-0.073,2.632,0.712c-0.532,3.623-2.503,6.452-5.349,8.861c-5.521,4.673-4.142,12.893,2.646,16.077
			c1.788,0.2,3.014-1.343,4.687-1.512c1.651-0.167,3.295-0.456,4.954-0.202c1.699,0.351,1.678,2.494,4.009,3.298
			c3.226-2.178,6.192-7.982,12.258-3.318c0.746,3.634,1.896,7.672,1.853,12.094c-0.043,4.094-0.154,8.274,0.399,12.271
			c1.844,1.409,3.559,1.191,5.771,0.228c1.723-7.799-1.111-15.953,0.52-24.063c2.242-1.805,4.813-2.615,7.577-2.43
			c1.733,1.307,1.516,2.631,0.49,4.086c1.577,0.299,3.104,0.746,4.021,0.85c2.46-0.194,2.552-2.326,4-2.856
			c2.423-0.759,3.938,1.519,6.55,1.872c2.153,0.105,4.229-1.337,6.608-2.445c0.84-4.243,4.585-7.213,5.214-11.231
			c-1.664-2.242-3.563-0.604-3.948-0.809c-5.047-2.203-5.6-5.886-6.634-9.65c3.62-1.639,6.711-0.391,9.542,1.195
			c2.844,1.592,5.492,2.575,8.242,0.165c2.773-2.432,2.747-5.455,1.762-8.247c-1.409-2.245-3.918-1.9-5.741-3.997
			c1.855-5.229-0.348-10.48-1.934-16.068c-4.032-2.602-6.92,1.586-10.525,2.054c-1.719-0.545-1.738-2.16-2.099-3.472
			c-0.059-1.724,1.511-2.666,1.671-4.174c0.34-3.18-1.453-5.684-2.786-8.193c1.054-1.704,2.356-2.621,4.111-2.88
			c2.245,2.116,3.358-0.916,4.984-1.154c3.833,0.447,3.39,4.798,6.242,6.435c3.14-0.039,6.798-0.963,9.212,2.472
			c2.563-2.426,2.563-2.426,5.44-1.449c0.726-1.138,0.164-3.364,2.56-3.244c1.335,0.344,1.688,1.52,1.791,2.661
			c0.217,2.394,0.991,4.841,2.332,6.498c3.894,4.819,3.009,10.419,3.493,15.842c0.527,5.895,0.815,11.672-5.312,15.646
			c5.572,0.694,10.642,0.276,16.771,0.58c-11.105-3.55-11.406-4.301-8.328-14.507c1.868-6.195,4.179-12.277,5.109-18.743
			c0.258-1.791,0.837-3.594,2.601-4.55c1.647-0.631,2.733,1.443,3.937,0.838c3.947-0.583,3.965-7.027,9.283-5.484
			c0.836-1.85,2.648-3.138,5.086-3.482c0.641-1.473,0.853-2.907,0.497-5.007c0.254-1.365-4.498-1.604-1.706-4.479
			c2.974-0.202,5.938-0.539,8.734-0.695c1.479-0.494,1.956-2.06,3.729-2.457c3.563-0.089,3.612,3.32,4.587,4.99
			c0.781,3.917-3.549,6.714-0.736,10.356c1.033-1.519-0.059-3.241,1.093-4.502c1.76-2.116,4.202-2.159,6.958-2.387
			c0.371,4.588,3.261,7.574,5.403,11.069c2.856,4.658,6.176,9.452,5.655,15.515c-0.118,1.374-0.4,3.048,2.282,4.51
			c-2.909-11.761,0.313-20.173,12.013-24.435C467.037,486.897,467.829,489.131,469.495,490.909z"/>
		<path fill="#9DBAE1" d="M169.017,286.016c4.141-5.955,10.125-10.054,15.46-14.702c11.139-9.704,23.546-17.729,36.782-24.335
			c16.208-8.088,33.342-13.573,51.133-16.825c15.608-2.854,31.477-3.118,47.187-1.911c20.847,1.602,40.87,6.978,60.132,15.47
			c14.369,6.336,27.115,15.044,39.674,24.199c6.471,4.717,11.515,10.98,17.513,16.211c-1.103,2.693-3.099,1.234-4.493,0.68
			c-4.917-1.955-9.996-2.281-15.193-2.26c-33.777,0.139-67.556-0.183-101.331,0.178c-2.869,0.03-5.644-0.348-8.202-1.724
			c-3.088-3.019-1.977-7.317-3.306-10.844c-2.602-0.697-2.186,1.843-3.067,2.908c-1.271,1.534-1.379,4.211-4.236,4.12
			c-1.336-0.644-2.522-1.675-4.094-1.719c-8.921-0.249-17.835-0.027-26.403-0.173c-1.498,2.251,0.975,4.497-1.171,6.053
			c-2.258,0.354-3.149-1.471-4.354-2.762c-14.67-15.713-39.679-14.199-52.499,3.104c-1.38,1.862-2.002,4.791-5.219,4.721
			c-9.872-3.296-19.73-2.879-29.633-0.085C172.219,286.736,170.34,289.338,169.017,286.016z"/>
		<path fill="#0E5D40" d="M276.101,509.165c-1.153,1.386-2.795,0.67-4.198,0.979c-3.7,0.821-5.087,2.771-4.647,6.5
			c-3.398,1.452-3.879-1.651-5.133-4.021c-1.604,2.371-1.644,4.807-3.421,6.515c-1.458,1.4-2.915,3.146-3.208,5.364
			c-1.696,0.211-1.527-1.658-2.561-2.028c-1.283-1.049-2.107,0.626-3.172,0.499c-0.887-0.294-0.63-1.581-1.626-1.708
			c-0.273,0.152-0.663,0.237-0.805,0.473c-1.93,3.192-1.777,7.012-2.955,10.344c-1.827,5.169-3.172,10.439-4.681,15.682
			c-0.961,3.342-1.987,6.669-3.144,9.946c-1.177,3.34-1.872,6.711-1.467,10.396c0.9,1.88,2.458,2.711,4.694,2.844
			c2.814,0.167,5.551,0.968,8.161,2.039c1.855,0.761,3.244,2.08,4.433,4.503c-8.289-0.214-15.921-2.193-23.555-0.381
			c-2.521-0.58-4.785-1.724-6.923-3.148c-0.423-1.771,0.712-2.967,1.85-3.817c4.273-3.199,4.841-7.516,4.6-12.443
			c-0.178-3.637-0.44-7.284-0.288-10.749c-1.29-2.034-3.817-0.329-5.069-2.194c0.043-3.354,3.724-3.222,5.641-5.638
			c-4.882-6.153-7.697-13.405-8.964-22.431c-1.835,3.253,0.67,4.917,0.285,7.128c-3.273,2.887-4.447-0.923-6.155-2.509
			c-1.533,1.158-0.689,3.207-2.237,4.063c-3.359,0.245-3.359,0.245-7.249-2.454c-1.855,1.617-2.668,5.144-6.254,4.32
			c-1.252-2.546,0.858-3.856,1.661-5.708c-1.444,0.3-2.058,1.883-3.921,1.545c-2.166-1.124-4.571-2.519-5.468-5.478
			c-0.548-2.42,4.48-1.627,2.428-4.666c-1.055,0.681-1.701,2.554-3.98,2.038c-2.451-3.143-4.831-6.651-6.935-10.16
			c0.042-2.55,1.91-4.041,2.454-5.415c0.865-2.332-0.353-3.854-0.292-5.511c0.25-4.898,2.408-8.188,7.914-8.858
			c-0.572-1.523-2.377-2.091-2.201-4.62c0.711-1.925,0.952-4.858,0.493-7.142c0.959-2.979,3.51-3.364,4.88-5.151
			c1.114-1.725-0.734-3.878,0.869-6.008c2.134-1.098,4.992-1.229,7.596-2.146c4.924-1.73,6.988-6.327,10.814-9.024
			c4.755-5.861,11.532-5.317,17.089-3.289c4.654,1.697,8.125,1.332,12.092-0.481c3.43-0.636,5.183,1.41,6.459,4.122
			c2.777,5.9,2.762,5.903,8.977,5.034c0.49-0.068,0.986,0.008,1.438,0.297c1.539,1.087,0.263,2.794,0.886,4.094
			c0.532,1.589,0.231,3.251,0.417,4.737c0.506,1.974,2.502,2.746,3.114,4.492c0.342,3.924,4.552,3.203,6.268,5.003
			c1.108,2.587-1.673,4.189-0.924,6.422c1.599,4.046,9.146,5.585,5.095,12.056c-1.019,0.8-2.479,0.818-3.411,1.963
			c0.576,1.946,2.857,1.131,4.295,2.894c0.545,1.639,1.902,3.651,2.738,5.928C279.179,506.542,278.163,508.149,276.101,509.165z"/>
		<path fill="#416E5A" d="M214.981,452.063c-0.443,1.181-1.721,0.771-2.687,1.46c-0.116,0.79-0.258,1.754-0.393,2.663
			c-0.532,1.104-1.919,0.527-2.613,1.493c-0.186,0.835-0.395,1.78-0.582,2.631c-1.455,0.965-1.616-0.771-2.53-0.982
			c-2.795,2.426-5.69,4.76-9.685,3.171c-1.263,2.227,0.332,3.223,1.307,4.37c-0.921,3.373-4.313,3.739-6.631,5.421
			c-0.474,3.104,3.243,6.548-1.139,8.694c1.357,2.369,4.18,2.481,4.85,5.216c-1.454,0.581-3.037-0.728-4.446,0.074
			c-1.289,0.731-2.632,1.368-4.014,2.08c-0.483,1.895-0.967,3.786-1.45,5.679c-6.264,0.528-7.68-0.075-7.841-3.352
			c-2.675,2.097-2.783,3.094-2.087,11.808c0.354,4.452,0.655,8.94-0.443,13.329c-3.729,2.1-7.096,1.822-10.581-0.005
			c-1.034-8.264,0.199-16.482-2.045-23.941c-1.209-1.664-2.558-1.5-3.68-1.488c-1.767,0.765-1.49,2.79-2.475,3.358
			c-3,2.296-6.21,1.667-9.923-1.543c-2.587-1.035-4.015,1.349-6.054,1.813c-3.502-5.411-5.76-11.399-8.07-17.364
			c-0.026-3.86,4.953-4.144,5.309-7.811c-3.085-0.797-7.207,0.271-9.076-3.834c-2.809-6.04-4.209-12.464-5.168-19.007
			c-0.426-3.509,4.284-4.537,3.617-7.854c2.062-2.063,4.36-2.912,6.775-3.417c2.437,0.438,3.747,3.787,6.773,2.402
			c0.699-1.54-1.26-2.211-1.129-3.984c0.799-1.864,1.021-4.424,2.618-6.448c2.306-2.082,4.951-3.5,8.019-4.076
			c0.521-0.656,0.926-1.35,0.877-2.348c-0.626-1.668-3.717-1.703-3.18-4.33c-0.307-0.379-0.612-0.758-1.142-1.412
			c1.028-1.852,2.847-2.088,4.767-1.596c0.371-2.224-2.144-3.063-1.208-5.386c0.763-1.312,3.592,0.269,4.146-2.422
			c-0.308-1.022-1.781-1.438-2.614-2.579c1.361-1.98,2.779-3.678,5.508-1.775c0.216-0.778,0.426-1.533,0.64-2.302
			c1.423-0.944,2.363,1.168,3.648,0.536c1.654-0.068,2.235-2.072,4.264-2.05c1.556,0.122,1.455,2.114,2.742,3.353
			c1.473-1.826,4.931,0.067,5.576-3.958c2.11,3.034,4.504-0.508,6.834,1.468c1.191,1.722,0.687,4.97,3.292,5.918
			c1.049,1.384-1.105,2.279,0.103,3.472c1.165,1.545,3.162,0.213,4.855,1.323c0.597,2.1,1.568,4.342,3.283,6.121
			c0,1.594,0,3.068,0,4.418c0.922,1.36,1.995,1.213,3.139,0.668c2.508-0.726,2.871,1.26,3.574,2.816
			c-0.659,4.063,1.068,7.729,1.969,11.536c0.579,2.29-1.938,3.336-2.199,5.419c2.428-1.19,4.859-2.117,7.282-3.077
			c2.322,0.158,4.07,1.341,5.83,2.732C211.693,443.792,213.806,447.792,214.981,452.063z"/>
		<path fill="#FDB813" d="M297.795,276.939c1.796-3.301,3.593-6.602,5.315-9.768c0.856-0.335,1.449-0.252,1.923,0.333
			c0.584,7.381,1.999,14.64,3.165,21.937c0.262,1.632,0.254,3.299-0.385,4.877c-1.33,2.172-3.36,1.698-5.321,1.329
			c-2.603-0.489-5.213-0.898-7.853-1.116c4.117,0.534,8.239,1.037,12.079,2.04c1.783,1.862,1.68,4.169,2.421,6.171
			c2.896,25.082,5.561,50.182,8.479,75.25c1.361,11.7,3.504,23.314,4.888,35.023c0.887,7.5-0.588,8.858-8.135,7.879
			c-3.887-3.34-8.779-2.887-13.271-2.928c-10.259-0.094-20.564-0.428-30.71,1.977c-4.343,1.029-5.527-0.049-5.641-3.902
			c2.389-6.441,2.429-13.536,5.513-19.791c0.819-1.662,0.981-3.458,0.735-5.315c-0.471-3.549,0.459-6.809,2.224-9.867
			c-0.31-3.444,1.752-6.415,1.934-9.765c1.015-5.4,1.271-10.888,1.968-16.324c3.049-11.678,4.732-23.581,5.908-35.567
			c2.443-7.496,2.068-15.427,3.531-23.096C288.072,288.394,291.985,282.199,297.795,276.939z"/>
		<path fill="#DDE5F5" d="M284.155,319.34c0.213,10.513-2.993,20.589-3.972,30.95c-0.173,1.837-0.967,3.48-2.002,5
			c-2.921,1.816-6.137,2.314-9.523,2.315c-43.734,0.002-87.47,0.019-131.203-0.028c-6.771-0.008-7.874-0.915-8.566-6.204
			c0.802-3.673,2.054-7.179,4.095-10.372c2.684-5.343,5.366-10.685,8.05-16.027c1.584-0.99,3.295-1.54,5.178-1.534
			c20.742,0.066,41.485-0.373,62.216,0.223c2.946,0.315,5.121,2.16,7.392,3.81c15.375,11.165,35.054,8.519,46.856-6.323
			c1.145-1.439,2.245-2.887,4.188-3.306c4.772-0.693,9.585-0.182,14.371-0.534C282.513,317.215,284.431,316.889,284.155,319.34z"/>
		<path fill="#BACDEA" d="M307.176,279.994c4.62,1.379,9.348,1.05,14.085,1.04c32.793-0.064,65.587,0.011,98.38-0.08
			c5.236-0.015,10.187,0.672,14.803,3.225c0.805,0.445,1.67,1.348,2.454-0.057c3.558,1.971,5.434,5.609,8.011,8.483
			c5.332,5.948,10.31,12.261,14.122,19.366c-0.612,2.928-2.827,1.79-4.341,1.44c-3.455-0.796-6.922-0.829-10.414-0.829
			c-40.58-0.002-81.161,0.019-121.741-0.014c-8.75-0.007-9.868-0.893-12.282-9.022c-0.143-0.475-0.456-0.885-0.718-1.308
			C308.046,294.904,306.735,287.542,307.176,279.994z"/>
		<path fill="#00894E" d="M469.495,490.909c-1.022-1.636-3.23-0.445-4.212-1.563c-1.068-1.917,1.19-2.626,1.229-4.481
			c-4.487,2.021-6.414,6.769-11.32,8.004c-0.021,5.839-0.321,11.52,0.91,17.269c-1.917,0.958-3.271-0.302-4.858-0.557
			c-0.916-3.527,0.007-7.026-0.341-10.302c-0.667-1.786-2.271-2.614-3.294-4.233c0.694-2.889-0.674-5.19-2.964-7.059
			c-2.136-1.742-3.073-4.289-4.691-6.85c-0.403-0.822,1.414-1.575,0.615-3.5c-1.142,3.422-4.22,0.736-5.994,3.041
			c0.728,1.782,0.963,3.882-0.675,6.093c-0.506,0.251-1.421-0.104-2.122-0.111c-1.055-1.217,0.317-2.104-0.131-3.051
			c-0.638-0.828-2.01-0.22-2.56-1.362c0.113-1.979,1.81-1.988,3.185-2.413c0.263-0.841-0.852-0.758-0.982-2.151
			c0.696-0.407,1.846-1.081,3.643-2.134c-4.008-0.63-1.811-6.195-6.254-5.271c-1.214,0.663-0.3,2.211-1.463,3.355
			c-2.436-0.659-5.191-1.365-7.235,0.489c-1.592,0.083-2.154-0.9-2.991-1.392c-2.646-1.907-2.43-4.495-1.721-7.198
			c2.013-2.243,4.487-3.812,7.404-4.874c0.063-1.968-2.459-2.135-2.651-3.813c-1.004-1.753,0.791-3.138,0.576-4.761
			c-3.953-1.256-4.376-4.794-5.304-8.007c1.19-1.671,1.012-3.784,1.437-4.943c1.475-2.429,3.824-1.651,4.907-2.682
			c1.743-2.059,0.722-3.717,0.015-5.39c0.364-3.135,2.757-3.763,5.221-3.857c2.321-0.09,3.978-1.041,5.326-2.778
			c1.606-1.545,2.419-3.621,3.622-5.436c2.026-2.641,4.65-1.59,6.75-1.074c3.246-0.777,4.187-4.861,7.5-4.393
			c1.839,1.494-0.38,2.58,0.285,4.147c2.284-0.133,4.874-1.235,6.825,0.325c1.743-0.027,1.952-1.701,3.169-1.919
			c1.977-0.397,3.365,1.267,4.955,1.203c1.391,1.794-0.759,2.403-0.979,3.838c2.329,0.851,4.179,2.106,4.321,4.678
			c4.363-0.731,8.44-2.041,12.452,0.175c-0.193,3.127,0.629,6.137,1.786,8.911c0.926,2.218,0.691,4.063-0.238,6.22
			c1.297,1.406,2.333,3.001,2.255,5.046c0.025,2.434-0.979,4.566-1.958,6.708c-0.865,1.063-0.009,2.673-1.14,3.575
			c-0.957,1.7-2.726,0.694-4.034,1.292c0.449,1.849,3.744,0.71,3.399,3.296C478.506,471.464,474.638,481.435,469.495,490.909z"/>
		<path fill="#CE8235" d="M139.841,494.01c0.674-1.134,1.347-2.268,2.208-3.717c2.123,1.243,4.258,0.082,5.954-0.361
			c1.677,1.509-0.562,2.55,0.889,3.866c1.975,0.12,4.417,0.969,5.832-0.244c1.791-1.833-0.041-2.893,0.704-3.976
			c2.537-2.407,5.329,1.029,7.646-0.608c1.512,1.428-0.038,2.361,0.031,3.9c1.496,2.177,2.449,4.848,1.14,7.956
			c-0.522,1.236,0.413,2.581,0.535,3.852c0.332,3.42,0.604,6.879-0.243,10.478c2.977,1.216,5.855,1.021,9.25,0.67
			c0.432-8.779-0.185-17.442-0.519-26.664c2.422,1.391,4.253,0.081,5.836-1.132c1.092,0.566,1.684,1.095,1.605,2.027
			c-0.481,1.765-3.143,0.046-3.417,2.615c2.798-0.653,5.3,0.086,7.676,1.359c-0.301,1.767,1.55,2.434,2.06,4.063
			c-1.563,2.105-3.21,4.321-4.784,6.44c0.633,1.736,2.485,1.076,3.267,1.971c0.799,1.18-0.771,1.877-0.332,2.881
			c0.737,1.305,2.22,0.237,3.347,1.159c0.953,1.102-1.711,3.189,0.999,4.19c2.601-0.648,1.958-4.072,4.206-5.897
			c0.449,3.068,0.833,5.701,1.248,8.532c-1.598,0.819-1.873-1.688-3.439-1.187c-0.523,0.182-0.521,0.848-0.539,1.691
			c1.798,1.61,3.685,3.3,5.511,4.938c2.125-1.037,1.576-4.056,4.043-4.436c0.858,0.535,1.533,1.218,1.368,2.563
			c-0.391,2.148-3.703,2.678-3.524,5.767c4.613,0.116,3.128-6.064,6.855-6.501c1.688,0.707,0.204,1.588,0.252,2.525
			c2.081,0.231,3.394,3.603,6.394,1.668c-0.266-1.903-1.416-4.181,1.396-5.384c3.176,0.168,2.393,3.015,3.098,4.725
			c1.085,0.602,2.013,0.143,3.039,0.034c-3.116-4.466-3.155-5.319-0.468-8.523c0.735-0.091,1.287,0.313,1.741,0.779
			c0.452,0.466,0.785,1.047,0.954,1.278c0.593,1.9-0.939,3.188-0.248,5.184c0.646,0.987,1.551,2.37,2.669,4.079
			c-1.993,6.413,6.377,8.489,6.417,14.705c-2.414,0.348-5.214,0.563-6.895,3.213c1.805,1.033,3.788-1.403,5.896,0.729
			c-0.72,6.491,0.915,13.386-0.255,20.874c-2.092,2.367-5.172,4.703-7.348,7.868c-14-6.413-26.454-15.179-38.306-24.915
			c-8.519-6.998-16.196-14.906-23.13-23.338C152.458,515.979,144.954,505.716,139.841,494.01z"/>
		<path fill="#CBD9F0" d="M310.193,302.014c0.447-0.167,0.895-0.334,1.685-0.63c0,2.072,0,3.989,0,5.454
			c1.18,1.894,2.352,3.041,4.073,4.162c1.523,0,3.343,0,5.161,0c42.271,0,84.54,0.005,126.812-0.01
			c2.825-0.001,5.636-0.188,8.159,1.521c1.033,0.698,2.191,0.866,2.947-0.54c4.641,5.772,7.682,12.466,10.951,19.026
			c-1.021,2.102-2.94,1.801-4.761,1.784c-44.207-0.419-88.414-0.07-132.621-0.191c-3.01-0.008-5.969,0.311-8.883,0.978
			c-2.479,0.433-3.781-1.008-4.289-3.111c-0.894-3.692-2.896-6.928-3.613-9.456c-0.701-1.657-1.17-0.634-0.67-1.074
			c0.15-0.133,0.274-0.034,0.41,0.279c2.902,6.687,4.828,13.685,6.616,20.726c0.441,1.743,1.242,3.486-0.005,5.232
			c-4.335-0.176-6.098-2.098-7.044-7.678c0.409,1.025,0.523,1.851-1.049,1.532c-1.688-2.292-1.49-5.064-1.715-7.635
			c-0.798-9.098-1.836-18.162-3.074-27.207C309.12,303.978,309.113,302.846,310.193,302.014z"/>
		<path fill="#E4EBF7" d="M475.01,342.986c2.122,1.853,2.199,4.602,3.077,7.002c0.613,1.679,1.272,3.342,1.911,5.012
			c0.656,2.219,1.256,4.439,0.554,6.622c-2.832,2.555-6.118,1.967-9.2,1.97c-40.039,0.046-80.079,0.032-120.118,0.023
			c-4.982-0.002-9.966-0.002-14.937,0.357c-1.812-0.067-3.036-1.07-3.947-2.54c-2.453-3.961-3.396-8.499-4.838-12.841
			c-0.322-0.975,0.17-1.924,1.033-2.585c2.989-2.006,6.398-1.591,9.698-1.593c42.152-0.03,84.307-0.026,126.459-0.005
			C468.218,344.411,471.696,344.351,475.01,342.986z"/>
		<path fill="#D8E2F3" d="M475.01,342.986c-0.073,0.819-0.147,1.639-0.219,2.425c-1.813,1.055-3.683,0.563-5.462,0.564
			c-44.393,0.031-88.784,0.035-133.178,0.002c-2.83-0.003-5.602,0.125-8.29,1.062c-4.376-3.668-6.409-8.314-5.87-14.038
			c2.623-1.601,5.442-2.053,8.527-2.048c43.78,0.068,87.561,0.086,131.341-0.049c2.709-0.008,5.414,1.741,8.121,0.094
			C471.887,334.897,474.221,338.618,475.01,342.986z"/>
		<path fill="#F4F6FB" d="M334.607,363.124c2.992-1.243,6.144-1.133,9.294-1.132C387.191,362.004,430.48,362,473.77,362
			c1.816,0,3.632,0,5.501,0c1.31-2.387,0.461-4.759,0.728-7c3.553,6.55,4.483,13.538,3.829,20.481
			c-1.909,2.206-4.049,1.486-5.951,1.489c-27.616,0.044-55.232,0.03-82.85,0.03c-15.139,0-30.278,0-45.417,0
			c-2.792,0-5.607-0.085-7.722,2.245C336.459,375.228,335.618,369.137,334.607,363.124z"/>
		<path fill="#BCCEEA" d="M210.298,324.883c-23.089,0.03-46.178,0.061-69.268,0.091c6.97-12.874,14.961-25.027,25.104-35.67
			c1.005-1.054,1.924-2.189,2.883-3.288c0.479,0.967,1.168,1.086,1.97,0.427c3.534-2.905,7.66-3.568,12.094-3.474
			c5.985,0.127,11.977,0.031,16.843,0.031c2.862,0.36,2.746,2.604,4.291,3.059c1.058,1.407,0.564,2.864,0.068,4.274
			c-3.789,10.74-1.509,20.614,4.212,30.019C209.346,321.753,210.491,323.058,210.298,324.883z"/>
		<path fill="#FEDD00" d="M334.607,363.124c2.578,5.306,4.065,11.104,7.281,16.121c0.096,3.004,1.638,5.657,2.833,8.161
			c2.677,5.603,4.589,11.461,6.827,17.208c0.418,1.073,0.653,2.055,1.731,2.807c0.886,0.618,1.729,1.783,1.612,2.925
			c-0.372,3.686,1.888,6.131,3.791,8.771c1.266,1.01,1.134,2.106,0.206,3.257c-7.919,0.464-15.834,0.13-23.729-0.446
			c-1.964-0.144-3.941-0.451-5.931-0.568c-5.006-0.297-5.786-1.115-6.188-6.327c0.882-3.941,0.576-7.945,0.521-11.923
			c-0.123-9.144-0.16-18.286-0.108-27.429c0.041-7.155,0.055-14.282-1.579-21.328c-0.635-2.737-0.811-5.605,0.199-8.373
			c-2.244-7.596-3.511-15.462-6.354-22.896c-0.689-1.801-1.15-3.69-1.363-5.655c3.864,4.589,4.846,10.521,7.633,15.573
			c1.045,5.061,3.463,9.547,5.87,14.038C330.751,352.132,330.97,358.345,334.607,363.124z"/>
		<path fill="#F9FAFD" d="M132.982,341.001c-0.514,3.159-2.689,5.767-2.979,9c-0.237,6.376-3.369,12.399-2.715,18.692
			c2.814,2.318,5.75,1.699,8.496,1.702c43.891,0.04,87.781,0.012,131.673,0.062c2.912,0.003,6.043-0.711,8.581,1.559
			c-0.086,3.282-0.709,6.398-2.815,9.052c-47.878-0.022-95.757-0.04-143.635-0.087c-1.798-0.002-3.654,0.396-5.612-0.521
			c-1.934-3.289-1.967-6.645-1.229-10.66c1.611-8.784,4.039-17.234,7.584-25.39C130.901,343.091,131.297,341.51,132.982,341.001z"/>
		<path fill="#F9FAFD" d="M264.749,416.041c0.159,0.805,0.316,1.609,0.504,2.563c4.84,1.932,8.972-1.879,13.606-1.518
			c4.573,0.357,9.177-0.166,13.915-1.287c1.226,0.332,2.656,0.721,4.15,1.124c4.925-1.833,9.767,0.685,14.439,0.254
			c1.455,0.777,2.484,1.593,3.095,2.847c-1.115,1.233-2.63,1.384-4.114,1.323c-9.926-0.402-19.785,1.277-29.692,1.012
			c-7.631-0.206-15.159,0.351-22.64,1.812c-18.214-1.259-36.448-0.354-54.672-0.505c-1.792-0.015-3.657,0.556-5.288-0.688
			c-0.847-0.268-1.195-0.909-1.192-1.73c0.006-1.279-0.881-1.413-1.823-1.511c0.707-1.151,1.631-2.063,3.083-2.735
			c20.165,0,40.529,0.007,60.895-0.011C260.967,416.988,263.015,417.416,264.749,416.041z"/>
		<path fill="#C4D9F0" d="M142.278,427.212c-1.282,1.895,0.003,5.007-2.992,5.797c0.521,2.287,3.233,2.082,3.72,4.231
			c-1.74,3.762-5.067,0.338-7.333,1.613c-0.763-1.143-0.578-2.729-2.187-3.385c-2.338,0.129-3.489,3.411-5.899,2.313
			c-1.476,2.058-0.202,3.782-0.732,5.188c-0.925,1.751-4.104,0.139-4.019,3.022c-1.986-6.508-2.833-13.176-2.815-19.965
			c6.641-2.964,13.473-1.665,20.264-0.838C141.246,425.309,141.949,426.201,142.278,427.212z"/>
		<path fill="#F4F6FB" d="M359.054,421.489c-0.123-0.791-0.246-1.581-0.369-2.372c5.324-1.525,10.785-1.104,16.211-1.11
			c17.888-0.019,35.776,0.017,53.664-0.032c2.493-0.008,4.921,0.104,7.262,1.02c0.079,1.097,0.157,2.194,0.238,3.321
			c-1.41,0.536-2.035,1.761-2.855,2.794c-3.562-2.368-7.5-2.697-11.687-2.652c-14.486,0.153-28.977,0.074-43.464,0.046
			c-3.02-0.006-5.995,0.106-8.827,1.302C365.594,424.104,361.94,424.469,359.054,421.489z"/>
		<path fill="#EFF2FA" d="M142.278,427.212c-1.553-1.042-3.26-1.271-5.111-1.242c-5.714,0.088-11.432,0.049-17.146,0.061
			c-0.012-0.343-0.023-0.687-0.037-1.028c-1.546-5.37-0.613-6.854,4.619-6.97c6.813-0.15,13.63,0.122,20.441-0.14
			c1.98-0.074,3.479,0.85,4.951,1.869c1.026,1.468,0.654,2.872,0.02,4.277c-1.008,1.08-2.209-0.494-3.273,0.271
			C145.042,424.899,144.302,427.04,142.278,427.212z"/>
		<path fill="#C0D5EE" d="M484.902,446.15c-1.084-0.6-1.021-1.591-0.863-2.602c-1.096-1.074-3.075-0.297-3.888-1.981
			c0.824-1.475,2.939-2.182,2.848-4.314c-0.186-1.415-1.771-1.372-2.546-2.522c-0.44-0.798,0.978-1.087,0.872-1.517
			c0.262-2.107-2.094-1.857-2.178-3.631c0.563-1.039,1.257-2.323,1.952-3.608c1.757,0.125,2.953-1.432,4.694-1.552
			c0.661,0.36,1.369,0.747,2.302,1.255C486.441,432.522,487.275,439.561,484.902,446.15z"/>
		<path fill="#F9FAFD" d="M150.014,424.039c-0.054-1.146-0.108-2.289-0.157-3.313c-3.674-1.969-23.132-2.545-29.036-0.947
			c-1.396,1.536-0.604,3.467-0.839,5.222c-2.978-3.256-2.851-4.543,0.985-8.001c5.703,0,11.623-0.077,17.539,0.032
			c2.976,0.056,5.868-0.187,8.7-1.095c0.461,0.627,0.921,1.254,1.422,1.936c0.928,0.045,1.898,0.091,3,0.145
			C152.65,420.491,152.012,422.435,150.014,424.039z"/>
		<path fill="#2894D3" d="M128.003,465.001c2.083,2.743,5.555,1.495,8.128,2.831c1.298-0.137,1.841-1.96,3.179-1.653
			c0.745,0.468,0.703,0.947,0.477,1.407c-1.851,3.744-4.98,6.36-8.016,9.061C130.149,472.882,128.666,469.074,128.003,465.001z"/>
		<path fill="#6BA8DB" d="M481.17,461.021c-1.18-2.436-4.358,0.136-5.585-2.286c-0.633-1.382,0.274-2.386,0.96-3.437
			c1.744-0.834,1.83,1.745,3.071,1.52c2.654-0.186,1.73-3.078,3.327-3.96C483.181,455.76,482.261,458.409,481.17,461.021z"/>
		<path fill="#0C4CA0" d="M148.521,546.135c7.524,5.675,8.748,13.729,2.447,19.884c-6.543,6.392-13.942,5.808-21.346-2.227
			C135.879,557.946,142.143,552.095,148.521,546.135z"/>
		<path fill="#0E4B9F" d="M293.687,634.979c0.953,2.758,0.938,4.927-1.324,6.875c-3.061,0.963-6.292,0.395-9.908,0.121
			c0.331-3.173,0.631-6.051,0.969-9.287C287.345,632.021,290.749,632.875,293.687,634.979z"/>
		<path fill="#0B459D" d="M285.092,622.949c-0.258-2.767,0.165-5.305,1.058-8.101c2.492-0.297,4.719,0.217,6.525,1.964
			c0.917,1.697,0.72,3.271,0.006,4.959C290.514,624.077,287.928,623.985,285.092,622.949z"/>
		<path fill="#104B9F" d="M74.032,457.705c-2.094-2.791-2.423-5.894-3.045-9.134c3.224-1.114,6.382-1.584,9.969-1.616
			c0.832,3.409,2.144,6.794-0.257,9.876C79.117,458.862,76.659,458.707,74.032,457.705z"/>
		<path fill="#124B9E" d="M93.095,451.842c-2.032-1.784-2.293-3.933-2.789-6.29c2.826-1.01,5.728-1.166,8.523-1.639
			C101.123,450.239,99.444,452.507,93.095,451.842z"/>
		<path fill="#0E4A9E" d="M411.883,209.29c-0.253,2.441-1.31,4.228-3.353,5.635c-2.973,0.767-5.699-0.061-8.518-2.128
			c1.743-3.21,3.45-6.354,5.347-9.845C408.302,204.563,410.91,206.096,411.883,209.29z"/>
		<path fill="#10499E" d="M449.872,585.767c-2.965,2.321-5.263,4.12-7.952,6.228c-1.778-4.67-3.438-9.031-5.533-14.534
			C441.383,580.537,445.352,582.981,449.872,585.767z"/>
		<path fill="#0E4A9F" d="M333.254,634.512c-3.759,0.358-6.839,0.802-10.158,0.364c1.185-4.645,2.31-9.053,3.717-14.563
			C329.149,625.464,331.064,629.684,333.254,634.512z"/>
		<path fill="#0B449D" d="M363.19,192.691c0,4.387,0,8.773,0,13.579c-2.969-0.19-5.81-1.198-8.898-2.478
			c2.807-3.966,5.431-7.674,8.056-11.382C362.628,192.505,362.908,192.599,363.19,192.691z"/>
		<path fill="#10489E" d="M197.923,228.349c-1.115-5.07-2.063-9.383-3.012-13.696c0.212-0.18,0.424-0.36,0.636-0.54
			c3.497,2.952,6.994,5.905,10.854,9.164C203.457,225.038,200.952,226.536,197.923,228.349z"/>
		<path fill="#416E5A" d="M276.101,509.165c0.422-1.826,2.649-2.978,1.95-5.222c1.375-1.647,1.615-3.804,2.39-5.44
			c1.011-1.521,2.585-1.643,3.786-2.396c1.011-0.577,2-1.21,3.198-1.346c2.231,0.329,3.768,2.926,6.415,2.008
			c0.52-1.48-1.392-2.282-0.722-4.394c0.411-6.238,5.934-8.583,11.249-10.724c-0.353-3.845-6.915-5.208-2.938-9.742
			c1.791-1.782,0.608-5.555,4.261-5.922c-0.354-2.824-0.448-5.331,2.464-6.605c3.799-0.981,7.38-2.664,11.222-3.523
			c1.794,0.047,2.567,2.151,4.9,2.13c3.654-0.524,8.019-4.411,11.893,0.725c0.646,2.573,2.974,4.464,2.771,7.17
			c1.603,1.281,3.845,0.941,4.861,2.768c1.563,2.916,3.203,5.803,3.815,8.773c1.223,1.656,3.275,1.629,4.154,3.188
			c0.51,0.751,1.051,1.482,1.486,2.285c0.096,0.473-0.038,0.879-0.365,1.227c-0.933,1.117-1.973,2.072-3.496,2.257
			c0.271,1.851,2.588,1.473,3.196,3.53c-1.278,1.757,0.359,3.416,1.289,4.814c-0.371,2.265-2.46,2.029-3.435,3.376
			c0.404,1.106,1.856,1.992,1.33,3.781c1.872-3.314,6.201-1.923,8.123-5.153c1.671,1.278,3.028,2.513,4.685,2.502
			c1.298,1.994-1.179,3.332-0.447,4.582c0.521,1.648,1.8,1.979,2.839,2.963c-1.586,1.793-1.043,3.634,0.018,5.18
			c-0.761,1.597-1.389,2.914-1.965,4.122c1.502,1.745,3.471,0.438,4.921,1.456c4.679,5.549,2.646,11.287-5.67,14.466
			c-3.756-2.006-7.805-4.548-13.146-4.659c2.181,2.647,1.77,6.601,5.353,8.229c1.578,0.739,2.193-1.183,3.46-1.307
			c1.526,0.188,2.264,1.27,2.883,2.264c0.304,2.276-0.812,4.364-4.524,8.727c-0.852,1.485,0.146,3.355-1.236,5.13
			c-3.057-0.105-5.321,3.314-8.92,2.621c-1.977-0.438-2.694-3.01-4.65-3.034c-2.131,0.667,0.644,2.964-0.68,3.093
			c-4.635,2.104-7.78-1.684-11.541-0.355c0.438-2.402,2.424-1.224,3-1.848c0.868-1.146,0.643-1.865,0.085-2.507
			c-2.701-1.613-3.691,4.309-6.818,0.139c0,9.788,0,18.296,0,27.117c-2.886,0.852-5.845,0.749-8.885-0.384
			c0.366-4.623,0.536-9.003-0.111-13.456c-0.433-2.966,1.45-6.269-1.634-8.692c0.38-1.292,0.692-2.357,1.208-4.113
			c-3.062,1.292-5.886-1.525-8.353,0.736c-0.875,1.135,0.727,2.091-0.262,3.05c-2.017,2.152-4.532,0.994-6.637,1.134
			c-1.425-1.33,0.824-2.344-0.877-3.915c-1.354-0.632-3.414,2.345-5.202,0.405c-1.557,0.275-1.545,1.87-2.498,2.388
			c-2.95,1.057-4.423-2.022-6.773-2.071c-1.547-3.204-1.684-6.7-3.554-9.925c0.641-1.413,3.356-2.605,0.608-5.273
			c6.255-0.341,7.191-5.487,9.91-8.863c-2.14-0.118-2.14-0.118-4.338,1.333c-1.539-1.198-3.529-1.007-5.619-0.92
			c-1.765-1.707-3.213-3.837-5.602-4.571c-1.204-1.984-2.562-3.735-1.657-6.105c0.06-0.154,0.251-0.398,0.223-0.425
			C275.375,514.014,276.958,511.336,276.101,509.165z"/>
		<path fill="#0E5D40" d="M352.893,484.124c0.098-0.295,0.146-0.599,0.142-0.909c0.117-1.32,2.905-1.604,1.371-3.566
			c-1.229-4.521,3.974-5.981,4.561-9.638c0.601-1.465,2.146-2.032,3.309-3.494c-2.007-2.01-1.745-4.552-1.186-7.134
			c-0.186-3.117,2.071-4.041,4.681-4.65c-1.714-2.313-4.125-4.26-1.113-6.89c6.774,2.163,10.104-2.679,13.786-6.798
			c3.048-1.474,6.382-1.657,9.546-1.146c3.083,0.498,5.952,1.29,9.142,0.293c2.36-0.739,4.003,0.894,5.069,2.968
			c1.012,1.963,2.094,3.823,4.826,3.156c1.051,0,2.085,0.28,2.431,1.318c1.974,5.923,7.054,10.688,6.551,17.53
			c-0.014,2.566-0.159,5.15,0.983,7.566c-0.471,0.26-0.758,0.672-0.502,1.167c0.533,1.033,1.661,0.959,2.729,1.277
			c0.543,1.244,1.121,2.564,1.663,3.808c-0.094,1.099-1.275,1.032-2.079,2.796c-0.154,0.375,2.383,0.268,1.755,1.697
			c-3.669-0.273-3.669-0.273-6.739,1.975c-1.156,0.728,0.918,2.142-0.358,2.975c-1.328-0.459-1.164-1.899-1.979-2.926
			c-3.945,0.85-2.924,5.956-6.345,7.326c-1.001-0.33-2.1-1.549-3.472-0.308c-0.434-0.693-0.848-1.357-1.265-2.025
			c-0.917,0.635-7.706,24.532-9.115,32.024c2.309,4.616,9.416,1.377,12.025,7.083c-7.588-1.104-14.694-0.364-22.126-0.879
			c1.806-2.86,4.397-4.681,6.257-6.873c1.227-4.809-0.415-9.488,0.4-14.004c-0.893-1.276-2.311-0.553-3.294-1.136
			c0.452-2.313,2.731-1.295,3.949-2.097c-0.609-2.875-2.376-4.861-4.203-6.739c-0.315-3.884-2.967-6.938-2.981-10.889
			c-2.419,1.833-0.322,4.05-1.273,6.131c-1.801-0.739-1.364-3.313-3.392-3.578c-2.662,0.306-0.3,2.877-1.803,4.114
			c-1.789-0.116-3.626-0.229-3.403-3.097c-1.322,0.004-2.776,0.324-3.572-1.187c-0.326,0.072-0.667,0.063-0.907,0.215
			c-2.887,1.811-4.818,1.326-5.951-1.859c-0.554-1.554-0.859-3.134-1.874-4.075c-1.479-0.756-2.138,0.153-2.861,0.393
			c-0.192,1.34,1.378,1.027,1.244,2.416C355.619,486.378,353.908,486.092,352.893,484.124z"/>
		<path fill="#185A41" d="M381.536,512.729c-1.085,0.516-2.004,0.162-2.908-0.066c-1.646-1.88,0.207-3.625,0.008-5.369
			c1.096-0.651,2.002-0.277,2.916,0.03c0.284,1.311-1.449,1.706-1.249,3.06C380.672,511.085,381.101,511.899,381.536,512.729z"/>
		<path fill="#FDE346" d="M210.298,324.883c-8.897-11.107-12.033-23.224-6.482-36.877c0.245-0.604,0.271-1.296,0.398-1.947
			c4.247-7.573,10.012-13.388,18.14-16.942c14.666-6.413,32.445-1.254,41.088,10.602c0.378,0.52,0.959,0.89,1.445,1.33
			c6.717,5.825,7.595,13.834,7.251,21.801c-0.25,5.796-0.665,12.076-6.126,16.142c-4.328,6.757-10.203,11.639-17.741,14.411
			c-11.553,4.25-22.4,2.667-32.506-4.235C213.858,327.863,212.116,326.316,210.298,324.883z"/>
		<path fill="#B3C8E8" d="M266.012,318.99c2.83-5.462,4.882-11.146,4.883-17.399c0-6.739-1.405-13.08-5.294-18.729
			c-0.358-0.521-0.48-1.206-0.714-1.814c1.295-2.49-0.904-4.001-1.671-5.957c0.202-1.226,1.413-1.648,2.191-1.56
			c10.202,1.165,20.447-0.011,30.587,0.595c1.374,0.507,0.575,2.292,1.801,2.813c-1.769,3.581-4.25,6.702-6.455,10.002
			c-2.071,3.101-2.97,6.471-3.442,10.203c-0.768,6.067-2.006,12.058-1.865,18.231c0.031,1.403-0.862,2.822-1.878,3.964
			c-0.304-0.372-0.704-1.113-0.896-1.063C277.556,319.783,271.753,318.66,266.012,318.99z"/>
		<path fill="#901746" d="M359.054,421.489c3.364,0.076,6.531,1.191,9.781,1.866c1.501,2.184,0.396,3.023-1.724,3.351
			c-2.008-0.24-4.026-0.409-6.01-0.855c-17.803-2.311-35.715-3.344-53.587-2.214c-10.128,0.642-20.215,0.538-30.319,0.728
			c-5.478,0.103-10.952-0.054-16.32,1.306c-0.917,0.211-1.807,0.159-2.649-0.289c-0.728-0.756-0.903-1.505,0.042-2.231
			c4.983-1.391,10.021-2.093,15.233-2.154c13.653-0.162,27.305-0.626,40.956-0.97c2.14,0.063,4.294,0.466,6.253-0.176
			c1.555-1.274,1.172-2.775,0.952-4.261c-2.458-16.729-4.993-33.446-6.795-50.269c-1.746-16.318-3.813-32.602-5.68-48.907
			c-0.547-4.781-0.886-9.587-1.32-14.382c-0.43-2.324-0.578-4.684-0.855-7.026c-0.67-7.686-1.361-15.369-1.991-23.058
			c-0.121-1.47,0.001-2.96,0.012-4.441c1.178,4.084,1.979,8.232,2.143,12.489c1.006,7.34,2.012,14.68,3.018,22.02
			c-0.731,2.388,0.689,4.503,0.893,6.796c0.868,9.896,2.021,19.767,3.103,29.644c0.068,0.625,0.426,1.219,0.648,1.828
			c2.196,2.444,1.971,5.621,2.247,8.504c1.945,20.318,5.792,40.406,7.304,60.771c0.133,1.799,0.422,3.639-0.289,5.405
			c-0.076,1.479-0.357,2.979,0.666,4.644c3.075,1.415,6.617,0.535,10.001,0.772C342.848,420.946,350.954,421.143,359.054,421.489z"
			/>
		<path fill="#80B1DF" d="M365.228,448.177c-0.866,1.266-1.466,2.563-0.545,3.972c0.64,1.351,2.095,0.732,2.73,1.042
			c0.867,1.261,0.79,2.175,0.217,3.324c-1.398,0.911-2.958-1.206-4.136-0.325c-1.742,1.029-1.369,2.425-1.401,3.692
			c0.278,1.303-0.708,1.347-1.45,1.23c-7.223-1.117-14.469-0.692-21.713-0.406c-1.533,0.06-3.017,0.051-3.688-1.716
			c-0.271-0.77-0.386-1.65-1.425-1.891c-1.535-0.543-2.243,1.055-3.486,1.451c-0.646-0.474-1.301-0.955-1.92-1.409
			c-1.505,0.06-1.135,1.431-1.836,2.563c-1.478-0.343-3.207-0.819-4.561,0.298c-1.292-1.098-0.857-2.895-2.412-3.491
			c-1.665-0.084-1.951,2.129-3.578,2.295c-1.176,0.448-2.15-0.566-3.238-0.593c-0.971,0.465-0.676,1.483-1.16,2.3
			c-1.182,0.054-2.313-1.015-3.604-0.494c-1.316,0.78-2.71,1.19-4.271,1.099c-13.947-0.833-27.893-1.146-41.829,0.232
			c-0.659,0.065-1.316-0.154-1.957-0.338c-0.129-1.26,0.113-2.747,0.608-3.763c-2.005-1.226-2.941,0.727-4.385,1.501
			c-1.512-0.352-3.097-0.72-4.516-1.05c-2.644-2.786-2.271-6.851-4.877-9.595c-0.758-0.568-1.816-0.156-2.765-0.395
			c1.021-2.604,3.348-2.551,5.386-2.208c4.919,0.829,9.523-0.394,14.166-1.625c3.24-0.389,6.407-1.495,9.745-0.986
			c4.896,1.015,9.833,1.634,14.829,1.535c14.104-0.273,28.208-0.054,42.318-0.401c9.396-0.231,18.907,0.14,28.357,0.508
			C361.524,444.641,364.235,444.969,365.228,448.177z"/>
		<path fill="#A5C5E8" d="M264.012,445.007c-2.704,1.695-5.892,1.286-8.832,1.948c-1.413,0.316-2.933,0.229-4.178,1.018
			c-0.741-0.683-1.322-1.218-2.118-1.95c-1.305,1.378-3.429,0.326-4.854,1.691c-2.823,1.246-5.152,3.788-8.5,3.345
			c-1.849-0.478-2.709-2.104-4.156-2.901c-1.424-0.945-3.395,0.508-4.625-1.059c-1.419-0.049-1.534,1.765-2.568,1.783
			c-1.862,0.573-2.875-1.389-3.847-1.086c-3.114,0.461-3.55,3.141-5.354,4.267c-3.136-0.632-3.316-2.575-2.239-5.106
			c-0.254-1.415-2.303-1.364-2.418-2.873c-0.433-1.579,1.081-2.813,0.64-4.66c-1.774-0.301-3.407-1.299-5.129-2.838
			c-1.669,3.582-6.39,1.681-7.796,6.575c-0.546-2.542-0.691-3.917-1.777-4.939c1.158-1.503,4.05-1.466,3.682-4.193
			c1.802-2.617,4.606-2.361,7.222-2.391c8.637-0.09,17.276,0.009,25.89-0.816c2.413-0.231,4.549,0.796,6.772,1.454
			c3.593,1.063,7.268,0.811,10.885,0.303c2.104-0.295,3.947-0.063,5.731,0.988c8.071,1.215,16.187,0.361,24.279,0.509
			c4.973,0.09,9.943-0.031,14.914-0.126c1.482-0.028,3.013-0.193,4.404,1.317c-1.432,3.516-5.017,3.813-7.722,3.735
			c-10.414-0.294-19.793,4.583-30.618,5.235C262.934,444.611,263.593,444.473,264.012,445.007z"/>
		<path fill="#0584CA" d="M302.151,472.081c-0.416,0.872-1.313,1.542-1.08,2.819c0.544,2.316,2.603,2.967,4.647,3.438
			c0.449,1.828,0.614,3.419-0.246,4.67c-1.506,1.7-3.386,0.668-4.854,1.281c-1.715,1.322-3.401,2.623-5.401,4.165
			c1.54,2.3-0.938,3.435-1.838,4.969c0.771,1.796,3.169,1.651,3.456,3.564c-0.359,1.494-2.087,0.855-2.465,2.009
			c-2.396-1.404-5.615-0.534-6.611-3.837c-1.11,0.714-1.929,1.24-2.747,1.767c-3.718-0.412-7.701-0.129-10.16-3.856
			c2.337-3.312-1.201-4.991-2.101-7.536c-1.351-0.745-2.783-1.536-4.184-2.311c-0.281-1.35,0.696-2.69-0.341-3.771
			c0.524-1.479,2.512-1.775,2.679-3.859c-1.854-1.241-4.368-0.719-6.744-2.149c-0.735-0.793-0.045-2.098,0.133-3.365
			c10.266,0.635,20.545,0.253,30.816,0.399C297.541,470.512,300.154,470.027,302.151,472.081z"/>
		<path fill="#3C98D3" d="M302.151,472.081c-11.919,0-23.838,0-35.756,0c-1.251-0.127-1.236-1.549-2.1-2.005
			c-1.069-1.639-3.453-1.78-4.357-4.074c-0.15-1.432,1.847-3.24,0.027-4.988c3.145-1.62,6.479-2.112,10.008-2.046
			c6.617,0.126,13.239,0.109,19.857,0.016c6.095-0.087,12.163,0.064,18.191,1.038c-0.648,0.919-1.297,1.837-2.014,2.852
			c0.657,0.958,1.291,1.877,1.895,2.753c-0.199,3.137-3.315,1.078-4.175,2.184c-1.326,2.266,1.62,2.939,1.144,4.583
			C303.718,473.505,303.034,472.113,302.151,472.081z"/>
		<path fill="#D18432" d="M274.852,493.069c3.175,1.843,7.175,1.515,10.16,3.856c-0.709,1.776-2.825,0.356-3.63,1.437
			c-0.942,1.725,0.01,3.433-0.452,4.741c-0.914,1.186-1.923,0.895-2.879,0.84c-0.447-1.946-3.817-2.615-1.965-5.426
			c-2.427-1.012-5.461,0.058-6.616-3.003C270.649,493.438,272.675,493.095,274.852,493.069z"/>
		<path fill="#D68533" d="M226.732,514.991c1.768,1.862,2.492,3.803,4.506,5.116c2.634,1.716-0.016,4.531,0.082,6.869
			c0.04,0.95-0.964,2.873-1.768,4.323c-2.47-0.952-0.042-2.917-1.299-3.841c-0.562-1.53-2.302-1.788-3.042-2.673
			c-0.849-1.679,0.125-2.773,0.582-3.729c-0.477-1.17-1.575-0.845-2.352-1.631C224.329,517.945,226.524,517.295,226.732,514.991z"/>
		<path fill="#D28433" d="M237.235,514.854c2.916,0.772,2.916,0.772,4.771,3.106c-1.755,1.975-1.332,5.25-4.203,7.269
			C235.308,521.645,236.389,518.308,237.235,514.854z"/>
		<path fill="#D9E5F5" d="M256.005,434.979c-0.956-0.621-1.911-1.243-2.76-1.798c-1.3-0.031-1.754,1.109-3.096,1.649
			c-1.461-0.288-3.204-0.845-5.284-0.481c-2.378,0.415-5.235,0.229-7.43-1.399c-1.203-0.894-2.461-1.06-3.753-0.874
			c-9.452,1.353-18.958,0.953-28.446,0.862c-1.92-0.02-3.475,1.027-5.293,1.088c-2.094-1.012-1.832-2.771-1.313-4.238
			c-0.738-1.645-2.396-1.637-3.192-2.786c-0.236-1.947,2.308-0.061,2.174-1.371c0.616-1.017,0.504-1.838,0.443-2.652
			c2.509-0.972,5.123-1.002,7.771-0.995c15.41,0.033,30.822,0.019,46.233,0.016c2.144,0,4.324-0.223,6.211,1.15
			c0.067,0.565,0.135,1.133,0.203,1.698c0.325,0.725,0.515,1.474,0.45,2.273C258.165,429.817,257.876,432.693,256.005,434.979z"/>
		<path fill="#84B6E2" d="M163.641,451.525c-2.966,0.667-4.884,0.767-6.829-0.148c-0.994-1.743-1.111-3.385,0.431-5.343
			C159.217,447.729,161.097,449.343,163.641,451.525z"/>
		<path fill="#C2D9E6" d="M167.954,435.58c-1.745-2.071-0.147-3.592,0.439-5.438C170.259,432.285,170.259,432.285,167.954,435.58z"
			/>
		<path fill="#6DABE7" d="M168.322,460.235c0-1.954,0-3.319,0-4.805c0.556-0.604,1.33-0.463,2.351-0.116
			C171.105,457.15,171.6,459.008,168.322,460.235z"/>
		<path fill="#EFF2FA" d="M276.037,372.016c-49.754,0-99.51,0-149.064,0c-2.014-2.116-2.251-4.234-1.664-6.679
			c1.253-5.212,2.48-10.422,4.693-15.336c0.146,1.627-0.379,3.327,0.927,5.626c7.396,0.872,15.306,0.231,23.172,0.347
			c7.979,0.118,15.959,0.026,23.939,0.026c7.979,0,15.959,0,23.938,0c7.98,0,15.959,0,23.939,0c7.979,0,15.959,0,23.938,0
			s15.959,0,23.518,0c1.79-0.209,2.396-1.849,3.935-1.859c0.287,0.379,0.579,0.765,0.871,1.149
			C278.547,361.004,277.636,366.554,276.037,372.016z"/>
		<path fill="#CD8133" d="M310.193,360.229c-5.638-0.115-10.892,0.813-15.823-2.115c-4.373,1.78-8.343,0.509-12.133-1.789
			c0.24-0.942,0.696-1.367,1.141-1.231c5.521,1.689,11.437,0.274,16.896,2.12c1.972,0.667,3.729,0.987,5.771,0.344
			C307.951,356.956,309.519,357.568,310.193,360.229z"/>
		<path fill="#CD8132" d="M285.584,390.422c-0.277,0.292-0.723,0.761-1.411,1.486c-2.736-1.811-7.229,0.227-8.973-4.396
			c7.198,1.611,15.104-0.516,22.645,4.729C292.949,393.268,289.772,390.896,285.584,390.422z"/>
		<path fill="#CD8033" d="M296.178,325.972c-3.195,2.463-6.397,0.019-9.87-0.184c-0.588-3.365,1.817-3.18,3.237-2.634
			c2.374,0.913,4.473,0.445,6.67-0.298c2.189,0.902,4.312,1.777,6.44,2.655C301.445,327.668,301.445,327.668,296.178,325.972z"/>
		<path fill="#CF8432" d="M307.013,295.004c1.266,2.223,1.028,4.629,0.855,7.026c-1.653-1.155-0.252-3.21-1.564-4.817
			c-5.192-0.361-10.53-1.608-16.698-1.278c1.938-3.861,4.551-3.063,6.797-2.64C299.928,293.96,303.429,294.721,307.013,295.004z"/>
		<path fill="#BCD3ED" d="M406.891,446.827c-0.779,1.789-2.119,0.999-3.319,0.765c-1.889-1.927-2.208-4.756-3.811-6.624
			c-2.773-0.776-4.425,1.581-7.104,1.827c-4.183-3.03-9-2.316-13.859-0.861c-1.454,0.172-2.034-0.549-1.978-1.915
			c-0.647-2.407-3.142-2.568-4.75-3.79c-2.039-1.55-4.895-2.126-5.719-5.063c0.062-1.856,0.742-3.319,2.547-4.086
			c4.25-1.173,8.592-0.593,12.888-0.62c10.793-0.068,21.59-0.128,32.382,0.037c3.358,0.051,6.819,0.25,7.863,4.498
			c1.106,0.688,2.36,1.195,2.964,2.423c0.299,1.494-1.267,1.289-1.751,2.039c-0.449,0.926,0.875,1.876-0.56,3.198
			c-1.43,0.249-3.951-2.271-5.463,0.67c-0.483,1.417,1.538,1.643,1.366,2.915c-0.736,0.853-2.418,0.197-2.721,1.716
			c-2.217,1.989-4.933,0.526-7.386,1.001C407.138,445.215,406.656,445.538,406.891,446.827z"/>
		<path fill="#E4EBF7" d="M422.031,430.994c-1.883-2.369-4.313-3.069-7.329-3.047c-15.574,0.117-31.15,0.055-46.727,0.055
			c-0.82,0.332-1.167-0.152-1.409-0.816c-0.007-0.455,0.159-0.842,0.476-1.167c0.605-0.054,1.278,0.214,1.718-0.27
			c0.541-0.86,0.121-1.628,0.076-2.394c0.894-2.815,3.232-2.354,5.357-2.354c17.262-0.004,34.524-0.021,51.786,0.023
			c2.095,0.005,4.306-0.543,7.212,1.223c0.657,0.282-1.842,2.214,0.013,2.859c-1.267,1.278-2.533,2.56-3.556,3.591
			c-1.488,0.857-1.973-0.681-3.354-0.633C425.517,429.626,422.6,428.448,422.031,430.994z"/>
		<path fill="#75ACDF" d="M406.891,446.827c-0.604-1.463-3.139-0.249-3.301-2.651c4.092-0.33,8.168-0.683,12.277-0.221
			c-0.036,2.117,1.667,2.999,2.771,3.568c0.416,1.411-0.709,2.019-0.081,2.944c1.375,1.209,1.656-1.498,2.948-0.769
			c0.807,0.446,1.174,1.327,1.313,2.331c-0.087,1.679-1.888,2.228-2.334,3.509c-0.379,3.504,6.648,2.165,4.232,6.938
			c-1.288,1.377-2.235-0.956-4.122-0.136c-1.021,0.868-2.021,3.164-4.59,2.824c-1.722-0.821-2.26-2.226-2.193-4.063
			c0.059-1.629,0.35-3.332-0.574-4.659c-0.997-1.737-2.888-1.834-4.147-2.8C409.615,450.902,409.709,448.385,406.891,446.827z"/>
		<path fill="#C98435" d="M447.11,471.29c2.861,3.478,3.115,7.556,3.057,11.707c0.701,0.184,0.633-0.338,0.709-0.683
			c0.106-0.485,0.24-0.94,1.183-1.285c1.422,4.501-0.901,8.953,0.391,13.392c-2.184,0.129-2.708-1.048-2.318-2.103
			c1.031-2.796-0.414-5.031-1.185-7.47C447.551,480.435,447.487,475.842,447.11,471.29z"/>
		<path fill="#DB8333" d="M439.875,468.803c0.946,2.273,3.164,3.308,5.041,5.07c-0.238,3.239,1.803,6.302,1.534,9.922
			c-2.152-0.38-3.122-2.076-3.224-3.492c-0.312-4.34-2.8-6.885-6.215-8.93c-0.571-0.342-0.979-0.88-1.021-1.604
			C436.953,468.107,438.303,468.004,439.875,468.803z"/>
		<path fill="#59A0DF" d="M437.345,454.749c2.836,4.31,5.513,8.511,6.873,13.688C438.279,465.563,434.83,458.773,437.345,454.749z"
			/>
		<path fill="#C28438" d="M456.959,479.029c1.38-0.396,1.086-2.44,2.644-2.651c1.119,2.147,1.119,2.147-1.448,5.451
			c-0.513,1.62,0.59,2.949,0.612,4.424c-0.683,1.161-1.291,2.364-2.764,2.46c-0.646-0.208-0.78-0.663-0.901-1.153
			c-0.787-3.187,2.188-5.525,1.924-8.593L456.959,479.029z"/>
		<path fill="#429BD8" d="M439.875,468.803c-1.295,0.322-2.589,0.646-3.883,0.967c-1.039-3.176-2.078-6.351-3.116-9.524
			C436.794,462.162,438.199,465.58,439.875,468.803z"/>
		<path fill="#DD8331" d="M460.98,485.803c0.48-3.209-0.393-7.236,4.931-8.061C465.649,481.656,463.896,484.086,460.98,485.803z"/>
		<path fill="#B98438" d="M457.025,478.967c-0.483-0.096-0.967-0.19-1.797-0.354c0.354-2.699,0.707-5.4,1.025-7.831
			c0.71-0.841,1.331-0.832,2.279-0.515c1.124,3.113-1.979,5.685-1.575,8.764L457.025,478.967z"/>
		<path fill="#C28438" d="M461.299,476.15c-1.498-2.764-1.663-4.628,1.009-6.349C463.777,472.283,463.573,474.089,461.299,476.15z"
			/>
		<path fill="#0E5D40" d="M221.79,544.675c-3.769,3.781-3.876,4.612-1.023,8.391c-0.815,1.459-1.663,0.063-2.481,0.001
			c-0.794-0.063-1.577-0.274-2.323-0.413c-2.026-3.103,0.571-5.646,0.368-8.545C218.32,544.44,219.914,545.615,221.79,544.675z"/>
		<path fill="#175C41" d="M214.598,558.829c-1.415-0.086-2.071-0.97-2.547-2.099c0.427-1.414,1.675-1.946,3.085-2.88
			C216.512,555.773,216.269,557.336,214.598,558.829z"/>
		<path fill="#EFF2F8" d="M324.098,414.963c-1.198-9.055-2.42-18.107-3.59-27.166c-2.045-15.82-4.479-31.594-5.672-47.516
			c0.112-0.788,0.226-1.575,0.364-2.546c1.879,3.229,2.37,7.449,6.877,8.243c1.834,2.997,0.554,6.452,1.474,9.65
			c1.471,5.113,1.602,10.425,1.524,15.762c-0.172,12.115-0.053,24.235-0.182,36.353
			C324.868,410.146,325.646,412.704,324.098,414.963z"/>
		<path fill="#4099D4" d="M335.24,458.99c0.584,0.287,1.262,0.933,1.738,0.809c6.628-1.725,13.4-0.095,20.011-0.955
			c2.096-0.272,3.109,2.463,5.104,1.038c2.217,1.917-1.704,1.9-1.048,3.326c0.438,1.974,2.744,1.427,3.903,2.688
			c-0.71,2.775-3.958,2.167-5.119,4.087c-5.684,2.033-11.321,3.259-16.655-0.936c-1.32-2.063-3.95-0.205-5.658-2.083
			c-0.641-0.741,0.719-1.546,0.363-2.959C336.983,462.692,334.773,461.517,335.24,458.99z"/>
		<path fill="#118DCF" d="M343.174,469.048c1.911,1.413,4.123,0.907,6.233,0.937c3.475,0.047,6.947,0.004,10.422-0.001
			c0.315,1.54-0.944,2.718-0.936,4.511c-2.966,0.502-3.952,2.646-3.928,5.468c-0.546,2.007-1.85,2.728-3.849,2.267
			c-0.168-0.609-0.337-1.221-0.459-1.662c-1.403-1.085-3.128,0.083-4.604-1.293C347.329,475.366,343.609,472.712,343.174,469.048z"
			/>
		<path fill="#D68532" d="M310.889,511.7c-1.019-2.174-1.26-3.827,0.424-5.567c2.063,1.385,3.422,3.521,6.064,4.649
			C315.165,512.868,313.116,511.864,310.889,511.7z"/>
		<path fill="#D98532" d="M322.343,520.24c0-1.954,0-3.438,0-4.832c0.745-0.531,1.396-0.349,2.251-0.185
			C325.225,517.278,325.494,519.145,322.343,520.24z"/>
		<path fill="#CE8235" d="M351.118,482.228c1.282-0.756,2.564-1.512,3.849-2.267c0.886,0.219,1.928-0.135,2.811,0.928
			c-1.05,1.805-3.238,1.446-4.743,2.326C352.259,483.15,351.547,482.966,351.118,482.228z"/>
		<path fill="#0D81BC" d="M334.531,480.239c1.461,0.188,2.502,0.534,3.222,1.694c-0.621,1.298-1.698,1.791-3.089,1.8
			C333.797,482.688,333.777,481.63,334.531,480.239z"/>
		<path fill="#A0C2E7" d="M376.963,440.082c0.378,0.848,0.951,1.502,1.834,1.852c-2.595,3.478-5.256,6.874-9.723,8.237
			c-1.596,0.021-2.292-1.835-3.848-1.994c-1.096-0.726-2.191-1.451-3.288-2.177c-7.664,0-15.293,0.031-22.922-0.019
			c-2.285-0.016-4.62,0.408-6.823-0.794c-0.652-0.355-1.645-0.26-2.45-0.148c-15.664,2.141-31.401,0.533-47.101,0.852
			c-3.513,0.071-7.054-1.201-10.582-1.855c-0.288-1.037,0.354-1.691,1.163-1.793c5.856-0.739,11.337-3.323,17.441-3.05
			c4.422,0.197,8.511-2.434,13.014-2.436c3.335,0.801,6.713,0.757,10.102,0.456c1.306,0.229,2.681,0.364,3.854,0.941
			c9.645,4.739,19.412,2.702,29.082,0.36c3.466-0.84,6.433-3.206,9.785-4.625c4.313-1.822,8.271-1.688,11.673,1.041
			C370.911,437.128,374.98,436.81,376.963,440.082z"/>
		<path fill="#D38534" d="M388.95,490.927c0.402,2.742-0.702,4.709-1.739,6.902c-0.392-2.278-1.33-4.094-3.229-5.164
			c0.921-1.88-0.454-4.115,1.767-5.64C387.257,488.061,387.438,490.268,388.95,490.927z"/>
		<path fill="#D68733" d="M393.636,493.83c-2.583-2.473,0.108-4.529-0.675-6.365c1.354-0.918,2.12-0.481,2.993,0.52
			C395.883,489.938,395.179,491.794,393.636,493.83z"/>
		<path fill="#FDCD0B" d="M264.01,300.514c0.426,18.763-13.463,29.69-27.864,29.937c-16.876,0.289-29.725-11.484-30.118-29.998
			c-0.314-14.817,13.906-28.729,28.931-28.64C250.234,271.904,264.975,284.815,264.01,300.514z"/>
		<path fill="#FAB713" d="M367.04,426.019c-0.086,0.238-0.141,0.484-0.162,0.737c-1.22,3.074-3.908,2.802-6.333,2.509
			c-29.46-3.561-59.031-0.826-88.537-1.623c-2.332-0.063-4.614,0.556-6.929,0.712c-2.454,0.164-5.01,0.622-7.076-1.347
			c0.156-0.72,0.313-1.438,0.469-2.16c0.332,0.045,0.663,0.089,0.995,0.134c6.216-1.228,12.563-1.355,18.822-1.357
			c18.629-0.004,37.244-1.02,55.873-0.609c9.44,0.208,18.828,1.231,28.232,1.984C363.982,425.159,365.729,424.6,367.04,426.019z"/>
		<path fill="#E6CDA4" d="M362.395,424.997c-10.611,0.306-21.143-1.306-31.777-1.073c-16.766,0.366-33.546-0.003-50.315,0.265
			c-6.94,0.109-13.866,1.103-20.835,0.792c2.895-1.331,6.025-1.747,9.122-1.808c21.085-0.407,42.172-0.74,63.259-0.997
			c9.468-0.116,18.837,1.464,28.272,1.94C360.969,424.158,361.742,424.428,362.395,424.997z"/>
		<path fill="#FDFCD8" d="M258.002,427.007c12.571-1.118,25.178-0.951,37.775-1.07c16.935-0.159,33.869-0.24,50.801,0.184
			c4.457,0.112,8.843,0.511,13.204,1.701c2.269,0.618,4.965,0.815,7.095-1.064c0.157,0.6,0.47,1.063,1.098,1.246
			c-0.315,1.324-0.63,2.648-0.945,3.973c-2.228,1.859-4.541,0.125-6.81,0.168c-10.281,4.875-20.848,4.692-31.906,2.978
			c-6.587-1.021-13.532,0.736-20.332,0.418c-2.067-0.098-2.699,1.629-4.041,2.431c-2.995-0.202-5.827,0.818-8.643,1.49
			c-2.687,0.642-5.177,1.897-7.646,0.195c-4.286,2.597-8.76,2.662-13.1,3.295c-0.954,0.139-2.027-0.125-2.492,1.086
			c-2.683,0.324-5.366,0.647-8.049,0.973c-1.459-0.135-2.98,0.34-4.593-0.496c7.54-2.177,15.122-3.453,22.34-6.168
			c2.349-0.883,5.26-0.308,7.914-0.334c3.476-0.035,6.732-0.808,9.725-2.737c-4.162,0.613-8.399-0.829-12.563,0.93
			c-3.438-2.499-7.478-0.951-10.893-0.699c-4.527,0.334-8.902-0.744-13.34-0.233c-2.201,0.255-4.477,1.517-6.598-0.287
			C255.703,432.079,256.94,429.565,258.002,427.007z"/>
		<path fill="#F5F8FA" d="M359.935,431.039c2.486-0.606,4.65,1.228,7.096,0.936c4.451,2.558,8.902,5.114,13.688,7.864
			c-1.479,0.096-2.617,0.169-3.756,0.243c-1.537-1.261-3.402-1.076-5.079-1.029c-2.274-1.669-4.571-2.986-6.03-4.582
			c-2.016-1.07-4.161,1.644-5.237-1.487c-3.657,3.48-9.228,2.596-11.854,6.671c-6.851,1.457-13.479,2.465-21.339,2.961
			c-3.684-1.354-8.803-2.309-13.473-4.604c0.804-3.121,3.441-2.548,5.201-1.922C333.639,441.238,346.849,436.782,359.935,431.039z"
			/>
		<path fill="#AECAEA" d="M359.935,431.039c-6.699,4.204-13.904,6.798-21.771,8.116c-6.549,1.098-12.624,0.796-18.729-1.791
			c-1.668-0.706-3.841-1.085-5.484,0.646c-3.342,1.254-6.679,1.399-10.009-0.042c0.229-0.747,1.036-1.359,0.382-2.412
			c1.184-0.935,2.456-1.771,3.932-1.471c4.229,0.864,8.482,0.148,12.597-0.276c5.99-0.617,11.824,0.807,17.734,0.37
			c0.943-0.068,1.471,0.563,2.147,1.012c1.816,1.201,3.543,0.627,5.555,0.133c4.066-0.997,7.708-3.011,11.672-4.179
			C358.574,430.964,359.274,431.067,359.935,431.039z"/>
		<path fill="#F59627" d="M235.345,282.001c9.675-0.19,19.104,8.739,18.813,19.39c-0.271,9.935-8.885,18.769-19.571,18.798
			c-10.307,0.028-18.826-10.847-18.579-19.002C216.364,289.407,226.523,281.294,235.345,282.001z"/>
		<path fill="#E76042" d="M246.004,301.239c-0.058,6.343-4.65,10.791-11.115,10.764c-5.975-0.026-11.061-5.156-10.864-11.155
			c0.197-6.024,5.375-11.072,11.842-10.859C241.625,290.177,246.059,295.048,246.004,301.239z"/>
	</g>
</g>
</svg>
