<?xml version="1.0" encoding="utf-8"?>
<!-- Generator: Adobe Illustrator 16.0.0, SVG Export Plug-In . SVG Version: 6.00 Build 0)  -->
<!DOCTYPE svg PUBLIC "-//W3C//DTD SVG 1.1//EN" "http://www.w3.org/Graphics/SVG/1.1/DTD/svg11.dtd">
<svg version="1.1" id="Layer_1" xmlns="http://www.w3.org/2000/svg" xmlns:xlink="http://www.w3.org/1999/xlink" x="0px" y="0px"
	 width="275.915px" height="271.965px" viewBox="0 0 275.915 271.965" enable-background="new 0 0 275.915 271.965"
	 xml:space="preserve">
<g>
	<path fill="#04539F" d="M255.159,152.334l9.155,7.853l6.779,1.317l-0.371,1.902l-6.758-1.312l-11.45,3.848l0.42-2.172l5.431-1.775
		c1.518-0.5,2.862-0.904,4.04-1.219c-0.979-0.728-2.069-1.607-3.289-2.636l-4.37-3.686L255.159,152.334"/>
	<path fill="#DFF1FC" d="M27.798,136.521c0-59.894,48.554-108.446,108.448-108.446c59.896,0,108.444,48.552,108.444,108.446
		c0,59.897-48.548,108.455-108.444,108.455C76.353,244.976,27.798,196.418,27.798,136.521"/>
	<path fill="none" stroke="#134391" stroke-width="1.074" stroke-miterlimit="3.864" d="M27.798,136.521
		c0-59.894,48.554-108.446,108.448-108.446c59.896,0,108.444,48.552,108.444,108.446c0,59.897-48.548,108.455-108.444,108.455
		C76.353,244.976,27.798,196.418,27.798,136.521z"/>
	<path fill-rule="evenodd" clip-rule="evenodd" fill="#134391" d="M70.455,222.743c1.591-1.375,3.2-3.117,4.843-5.183
		c9.094,11.688,15.753,11.531,24.938,0c9.1,11.688,15.754,11.531,24.936,0c9.097,11.688,15.757,11.531,24.939,0
		c9.1,11.688,15.756,11.531,24.944,0c9.097,11.688,15.754,11.531,24.93,0c1.217,1.554,2.385,2.9,3.519,4.042
		c-0.695,0.554-1.397,1.096-2.111,1.629c-0.476-0.493-0.95-1.026-1.429-1.584c-8.263,9.565-16.826,9.58-24.933,0
		c-8.269,9.565-16.832,9.58-24.941,0c-8.267,9.565-16.826,9.58-24.936,0c-8.27,9.565-16.833,9.58-24.942,0
		c-8.269,9.565-16.829,9.58-24.938,0c-0.877,1.013-1.757,1.917-2.636,2.723C71.898,223.833,71.176,223.294,70.455,222.743
		 M91.343,235.267c1.67-1.346,3.401-3.069,5.229-5.172c9.899,11.688,17.145,11.522,27.136,0c9.896,11.688,17.142,11.522,27.134,0
		c9.896,11.688,17.145,11.522,27.136,0c1.542,1.812,3.007,3.339,4.438,4.59c-0.907,0.423-1.82,0.839-2.74,1.234
		c-0.579-0.53-1.146-1.121-1.726-1.734c-1.78,1.885-3.573,3.405-5.369,4.548c-2.768,0.984-5.597,1.864-8.469,2.624
		c-4.483-0.07-8.952-2.461-13.298-7.172c-8.996,9.554-18.31,9.575-27.134,0c-5.385,5.726-10.88,8.023-16.32,6.896
		c-0.678-0.138-1.357-0.33-2.035-0.582c-2.954-1.085-5.891-3.19-8.784-6.313c-0.787,0.84-1.594,1.612-2.394,2.317
		C93.206,236.097,92.268,235.684,91.343,235.267 M77.52,206.105c8.006,10.79,13.776,10.655,21.858-0.01l1.132,0.01
		c8.005,10.79,13.776,10.655,21.858-0.01l1.131,0.01c8.009,10.79,13.773,10.655,21.858-0.01l1.134,0.01
		c8.006,10.79,13.777,10.655,21.859-0.01l1.131,0.01c8.008,10.79,13.771,10.655,21.858-0.01l1.134,0.01
		c8.006,10.79,13.771,10.655,21.855-0.01l1.116,0.01c0.646,0.844,1.277,1.656,1.921,2.398c-0.594,0.668-1.191,1.323-1.799,1.971
		l-0.692-0.848c-7.595,9.437-15.539,9.456-22.993,0c-7.595,9.437-15.532,9.456-22.989,0c-7.595,9.437-15.532,9.456-22.989,0
		c-7.598,9.437-15.533,9.456-22.993,0c-7.595,9.437-15.529,9.456-22.983,0c-7.598,9.437-15.542,9.456-22.995,0
		c-4.622,5.743-9.376,7.996-14.062,6.747c-3.086-2.827-5.992-5.834-8.732-8.997l0.858-0.612c8.008,11.163,14.337,8.627,21.384-0.669
		L77.52,206.105z"/>
	<path fill-rule="evenodd" clip-rule="evenodd" fill="#134391" d="M33.821,172.25c7.693,6.669,14.476,3.845,21.926-4.948
		c9.596,11.602,16.848,11.426,26.521,0c9.602,11.602,16.851,11.426,26.526,0c5.511,6.666,10.252,9.439,15.115,8.433v2.165h1.886
		c-5.731,1.786-11.466-0.431-17.02-6.65c-8.817,9.651-17.884,9.67-26.526,0c-8.809,9.651-17.881,9.67-26.521,0
		c-6.73,7.369-13.608,9.127-20.326,5.241C34.845,175.091,34.32,173.678,33.821,172.25 M147.684,175.897
		c4.512,0.402,8.989-2.491,14.15-8.595c9.603,11.602,16.854,11.426,26.53,0c9.599,11.602,16.844,11.426,26.52,0
		c8.318,10.045,15.763,12.078,24.743,2.079c-0.562,1.771-1.168,3.524-1.82,5.252c-7.672,6.101-15.466,4.983-22.941-3.384
		c-8.812,9.651-17.883,9.67-26.522,0c-8.812,9.651-17.878,9.67-26.523,0c-5.67,6.217-11.451,8.439-17.148,6.65h3.013V175.897z
		 M37.958,182.411c8.205,9.475,15.045,6.737,22.667-2.832c9.103,11.69,15.76,11.528,24.939,0c9.1,11.69,15.759,11.528,24.941,0
		c9.097,11.69,15.757,11.528,24.938,0c9.097,11.69,15.757,11.528,24.939,0c9.097,11.69,15.753,11.528,24.938,0
		c9.1,11.69,15.757,11.528,24.939,0c7.972,10.247,15.048,12.416,23.927,1.271l0.778,0.621c-0.75,1.644-1.535,3.255-2.362,4.855
		c-7.457,6.808-15.095,5.931-22.364-2.655c-8.267,9.56-16.833,9.579-24.939,0c-8.266,9.56-16.832,9.579-24.941,0
		c-8.27,9.56-16.829,9.579-24.939,0c-8.263,9.56-16.829,9.579-24.938,0c-8.266,9.56-16.826,9.579-24.936,0
		c-8.267,9.56-16.829,9.579-24.939,0c-6.439,7.444-13.053,9.099-19.499,4.95C39.997,186.587,38.945,184.516,37.958,182.411
		 M48.578,194.141c8.781,11.286,15.922,8.771,23.937-1.287c9.103,11.693,15.76,11.534,24.942,0c9.1,11.693,15.75,11.534,24.938,0
		c9.097,11.693,15.757,11.534,24.938,0c9.097,11.693,15.757,11.534,24.939,0c9.097,11.693,15.753,11.534,24.936,0
		c9.097,11.693,15.76,11.534,24.942,0c1.333,1.721,2.636,3.201,3.929,4.435c-0.503,0.751-1.015,1.485-1.535,2.213
		c-0.813-0.759-1.615-1.603-2.425-2.555c-8.257,9.563-16.823,9.578-24.93,0c-8.271,9.563-16.832,9.578-24.941,0
		c-8.264,9.563-16.829,9.578-24.939,0c-8.263,9.563-16.826,9.578-24.938,0c-8.263,9.563-16.829,9.578-24.938,0
		c-8.267,9.563-16.826,9.578-24.939,0c-8.606,9.955-17.534,9.568-25.938-1.236L48.578,194.141z M214.329,206.105
		c0.188-0.258,0.377-0.509,0.57-0.778c0.184,0.254,0.368,0.512,0.546,0.754L214.329,206.105z M191.34,206.105
		c0.187-0.258,0.38-0.509,0.573-0.778c0.184,0.27,0.374,0.523,0.561,0.771L191.34,206.105z M168.351,206.105
		c0.192-0.258,0.373-0.509,0.566-0.778c0.188,0.27,0.377,0.523,0.564,0.771L168.351,206.105z M145.357,206.105
		c0.193-0.258,0.38-0.509,0.57-0.778c0.187,0.27,0.377,0.523,0.563,0.771L145.357,206.105z M122.368,206.105
		c0.187-0.258,0.38-0.509,0.566-0.778c0.188,0.27,0.381,0.523,0.564,0.771L122.368,206.105z M99.378,206.105
		c0.19-0.258,0.377-0.509,0.57-0.778c0.184,0.27,0.377,0.523,0.562,0.771L99.378,206.105z M76.38,206.105
		c0.196-0.255,0.386-0.509,0.579-0.778c0.187,0.27,0.371,0.523,0.561,0.771L76.38,206.105z"/>
	<path fill="#134391" d="M230.19,154.354c0-1.985-2.103-3.599-4.702-3.599c-2.596,0-4.701,1.614-4.701,3.599
		c0,1.989,2.105,3.604,4.701,3.604C228.088,157.958,230.19,156.343,230.19,154.354 M235.608,154.354c0,4.78-4.532,8.652-10.12,8.652
		c-5.59,0-10.114-3.872-10.114-8.652c0-1.398,0.387-2.718,1.073-3.884c-2.479,1.217-9.474,4.867-14.861,9.616
		c-6.924,6.101-18.398,17.13-29.175,26.552c-9.768,8.535-17.372,16.024-30.431,17.36c-1.806,0.258-3.65,0.398-5.529,0.398
		c-1.82,0-3.613-0.124-5.363-0.378c-13.207-1.27-20.842-8.795-30.661-17.381c-10.779-9.422-22.254-20.451-29.172-26.552
		c-5.396-4.749-12.388-8.399-14.867-9.616c0.687,1.166,1.079,2.486,1.079,3.884c0,4.78-4.527,8.652-10.12,8.652
		c-5.584,0-10.114-3.872-10.114-8.652c0-2.045,0.825-3.929,2.216-5.411c0,0,3.559-4.118,12.925-6.308
		c11.889-2.784,26.474-1.698,32.962,0.693c6.494,2.401,12.888,9.033,12.888,9.033s2.832,2.786,6.988,7.068
		c8.468,7.064,19.357,11.323,31.24,11.323c11.717,0,22.459-4.13,30.869-11.014c4.321-4.46,7.294-7.378,7.294-7.378
		s6.394-6.632,12.885-9.033c6.488-2.391,20.532-4.412,33.72-0.693c9.26,2.602,12.168,6.308,12.168,6.308
		C234.778,150.425,235.608,152.309,235.608,154.354 M42.645,154.354c0,1.989,2.103,3.604,4.702,3.604s4.702-1.614,4.702-3.604
		c0-1.985-2.103-3.599-4.702-3.599S42.645,152.369,42.645,154.354"/>
	<path fill-rule="evenodd" clip-rule="evenodd" fill="#E30B18" d="M128.409,116.771c0-4.636,3.629-74.723,8.109-74.723
		c4.478,0,8.106,70.087,8.106,74.723v5.325c0,4.636-3.629,8.39-8.106,8.39c-4.48,0-8.109-3.754-8.109-8.39V116.771"/>
	<path fill="#E30B18" d="M93.142,112.094c5.29-29.404,0.821-46.546-11.076-59.972c22.281,10.303,36.287,24.119,40.061,42.142
		c3.398,16.21-2.154,39.853,14.393,39.853s10.99-23.643,14.39-39.853c3.772-18.023,17.779-31.839,40.058-42.142
		c-12.566,14.18-16.832,32.492-10.099,65.006c0.254,2.201,0.407,4.343,0.407,6.534c0,24.75-20.065,44.821-44.823,44.821
		c-24.749,0-44.814-20.071-44.814-44.821C91.637,119.668,92.157,115.783,93.142,112.094"/>
	<path fill="#E30B18" d="M74.203,223.635c12.27-11.75,49.59-47.534,51.04-48.972c1.726-1.739,3.539-0.267,1.74,1.418
		c-0.897,0.847-14.616,14.148-28.071,27.21c-0.027,0.208-0.046,0.415-0.039,0.628c0.052,1.758,0.757,1.532-2.057,4.34L78.51,226.563
		C77.054,225.622,75.619,224.646,74.203,223.635 M92.525,198.446c-0.019,0.179-0.03,0.374-0.024,0.563
		c0.052,1.758,0.751,1.521-2.06,4.327l-18.57,18.573c-1.352-1.02-2.679-2.07-3.972-3.163c14.019-13.442,47.416-45.453,48.783-46.822
		c1.729-1.724,3.537-0.26,1.738,1.424C117.571,174.149,105.251,186.103,92.525,198.446 M86.236,193.516
		c-0.016,0.146-0.024,0.32-0.019,0.482c0.049,1.758,0.754,1.521-2.06,4.335l-18.496,18.495c-1.242-1.099-2.455-2.229-3.647-3.381
		c15.181-14.553,44.817-42.971,46.104-44.252c1.729-1.732,3.54-0.264,1.747,1.422C109.058,171.368,98.119,181.989,86.236,193.516"/>
	<path fill="#134391" d="M19.891,104.292l-1.165,5.46l-7.813,1.961l1.698,2.15l5.011,1.071l-0.996,4.695L0,116.099l1.002-4.702
		l1.949,0.414c1.52,0.32,2.881,0.641,4.094,0.944c-0.879-0.847-2.114-2.228-3.699-4.136l-1.395-1.683l1.187-5.61l4.806,6.26
		L19.891,104.292"/>
	<path fill-rule="evenodd" clip-rule="evenodd" fill="#134391" d="M18.166,89.531l-1.159-0.108
		c-2.105-0.188-3.561-0.356-4.352-0.503c0.687,0.423,1.879,1.264,3.567,2.542l0.938,0.691L18.166,89.531 M27.014,85.254
		l-1.823,4.761l-3.124-0.207l-1.827,4.754l2.458,1.937l-1.811,4.71L7.227,89.362l1.71-4.438L27.014,85.254z"/>
	<path fill-rule="evenodd" clip-rule="evenodd" fill="#134391" d="M16.743,59.878c1.949,1.792,2.247,3.807,0.907,6.038
		c-1.324,2.207-3.233,2.866-5.731,1.994l1.315-2.188c1.011,0.236,1.808-0.129,2.378-1.091c0.564-0.927,0.503-1.787-0.181-2.571
		L16.743,59.878 M30.587,64.987c2.081,1.252,3.334,2.771,3.773,4.567c0.438,1.77,0.027,3.719-1.238,5.825
		c-1.217,2.03-2.847,3.243-4.889,3.656c-2.099,0.443-4.315-0.042-6.663-1.446c-2.222-1.335-3.659-2.995-4.321-4.975
		c-0.702-2.069-0.411-4.177,0.886-6.327c1.048-1.746,2.188-2.881,3.436-3.402c1.091-0.47,2.529-0.556,4.307-0.242l-0.764,4.519
		c-0.839-0.141-1.508-0.147-2.007-0.009c-0.588,0.198-1.079,0.616-1.474,1.272c-1.008,1.69-0.187,3.336,2.474,4.942
		c2.74,1.635,4.665,1.522,5.789-0.348c0.861-1.435,0.748-2.599-0.325-3.516l-1.591,2.642l-3.013-1.81l3.853-6.405L30.587,64.987z"/>
	
		<rect x="31.865" y="49.469" transform="matrix(0.6016 -0.7988 0.7988 0.6016 -32.6503 50.4717)" fill="#134391" width="4.809" height="16.993"/>
	<polygon fill="#134391" points="46.175,38.495 42.872,41.926 52.14,50.875 48.873,54.265 39.601,45.314 36.291,48.733 
		33.34,45.883 43.23,35.652 	"/>
	<polygon fill="#134391" points="71.145,35.649 67.259,38.477 63.32,33.053 59.039,36.167 62.974,41.581 59.084,44.412 
		49.096,30.66 52.985,27.841 56.626,32.843 60.911,29.737 57.273,24.728 61.16,21.906 	"/>
	<path fill-rule="evenodd" clip-rule="evenodd" fill="#134391" d="M80.962,22.786l-0.775-0.867
		c-1.416-1.575-2.363-2.692-2.845-3.336c0.221,0.775,0.515,2.204,0.883,4.297l0.202,1.142L80.962,22.786 M90.35,25.688l-4.585,2.234
		l-2.137-2.275l-4.588,2.236l0.484,3.088l-4.542,2.212l-1.907-17.986l4.279-2.078L90.35,25.688z"/>
	<path fill-rule="evenodd" clip-rule="evenodd" fill="#134391" d="M108.732,19.764l-3.669,1.117l-5.514-4.171
		c-1.545-1.174-2.776-2.181-3.696-3.034c0.27,0.54,0.745,1.926,1.423,4.151l1.52,4.978l-4.315,1.316L89.513,7.872l3.966-1.217
		l5.051,3.708c1.698,1.249,2.93,2.267,3.696,3.063c-0.267-0.549-0.741-1.933-1.422-4.159l-1.357-4.437l4.321-1.319L108.732,19.764"
		/>
	<polygon fill="#134391" points="127.29,16.949 114.203,18.559 112.135,1.693 125.05,0.098 125.524,4.029 117.24,5.048 
		117.52,7.292 122.509,6.68 122.984,10.559 117.988,11.171 118.347,14.065 126.809,13.02 	"/>
	<path fill-rule="evenodd" clip-rule="evenodd" fill="#134391" d="M152.521,12.727c0.132-1.076-0.355-1.689-1.466-1.821
		l-3.711-0.452l-0.404,3.273l3.689,0.458C151.751,14.317,152.379,13.838,152.521,12.727 M152.934,6.171
		c0.11-0.879-0.331-1.385-1.309-1.5l-3.519-0.44l-0.324,2.659l3.515,0.426C152.281,7.432,152.826,7.055,152.934,6.171
		 M157.108,13.194c-0.215,1.746-0.901,3.025-2.06,3.835c-1.211,0.809-2.856,1.085-4.94,0.834l-8.104-0.995L144.076,0l8.146,1.002
		c3.936,0.482,5.726,2.187,5.367,5.109c-0.178,1.425-0.987,2.447-2.434,3.049C156.676,10.046,157.329,11.394,157.108,13.194"/>
	<polygon fill="#134391" points="173.76,22.836 161.022,19.425 165.42,3.005 177.992,6.372 176.972,10.195 168.901,8.036 
		168.313,10.217 173.174,11.525 172.16,15.292 167.302,13.999 166.551,16.814 174.78,19.013 	"/>
	<polygon fill="#134391" points="189.752,29.653 178.528,24.654 185.446,9.124 189.789,11.061 184.548,22.842 191.423,25.903 	"/>
	<polygon fill="#134391" points="205.033,38.581 193.856,31.591 202.86,17.183 213.897,24.078 211.798,27.429 204.721,23.008 
		203.52,24.922 207.783,27.587 205.714,30.905 201.447,28.24 199.903,30.713 207.133,35.22 	"/>
	<path fill-rule="evenodd" clip-rule="evenodd" fill="#134391" d="M221.854,41.481c1.018-1.21,1.518-2.271,1.499-3.178
		c0.006-0.904-0.552-1.824-1.655-2.749l-0.892-0.751l-5.747,6.845l0.788,0.659c1.14,0.958,2.157,1.38,3.053,1.267
		C219.797,43.463,220.781,42.766,221.854,41.481 M225.602,44.539c-2.001,2.375-4.03,3.587-6.09,3.629
		c-1.915,0.046-4.069-0.937-6.46-2.947l-4.224-3.544l10.923-13.018l4.555,3.83c2.182,1.83,3.427,3.656,3.739,5.472
		C228.376,40.017,227.561,42.203,225.602,44.539"/>
	<path fill-rule="evenodd" clip-rule="evenodd" fill="#134391" d="M241.343,45.061c-0.429,0.386-0.975,0.56-1.621,0.512
		c-0.628-0.04-1.144-0.292-1.545-0.734c-0.398-0.443-0.598-0.985-0.582-1.629c0.03-0.637,0.267-1.159,0.695-1.543
		c0.457-0.416,1.003-0.598,1.631-0.553c0.649,0.044,1.171,0.292,1.578,0.737c0.411,0.456,0.607,1.002,0.586,1.629
		C242.063,44.111,241.815,44.638,241.343,45.061 M226.638,58.435l-3.221-3.575l12.633-11.371l3.215,3.575L226.638,58.435z"/>
	<path fill="#134391" d="M253.195,65.769l-12.34,0.967l-5.191,3.63l-2.731-3.897l5.137-3.593l5.184-11.311l3.116,4.459l-1.352,2.548
		c-1.011,1.893-1.842,3.267-2.491,4.114c1.021-0.32,2.593-0.631,4.714-0.932l2.862-0.395L253.195,65.769"/>
	<polygon fill="#134391" points="246.856,91.034 241.076,79.187 256.349,71.736 262.053,83.437 258.5,85.162 254.838,77.666 
		252.806,78.657 255.013,83.176 251.497,84.883 249.293,80.364 246.676,81.644 250.415,89.306 	"/>
	<path fill="#134391" d="M257.605,107.106c-1.778,0.54-3.311,0.323-4.588-0.656c-1.178-0.914-2.081-2.388-2.707-4.45
		c-0.784-2.57-0.827-5.056-0.122-7.451l4.195,1.102c-0.235,0.766-0.383,1.632-0.426,2.591c-0.049,1.059,0.037,1.946,0.255,2.659
		c0.245,0.791,0.487,1.317,0.738,1.581c0.248,0.258,0.563,0.33,0.95,0.215c0.315-0.095,0.518-0.368,0.616-0.823
		c0.101-0.455,0.106-1.249,0.027-2.387c-0.156-2.248-0.021-3.88,0.41-4.907c0.481-1.195,1.493-2.028,3.041-2.504
		c1.548-0.467,2.967-0.27,4.248,0.616c1.296,0.866,2.249,2.28,2.844,4.229c0.772,2.536,0.806,4.89,0.102,7.049l-4.199-1.099
		c0.561-1.821,0.61-3.48,0.144-4.999c-0.337-1.111-0.839-1.566-1.504-1.365c-0.301,0.087-0.481,0.335-0.562,0.749
		c-0.07,0.434-0.07,1.212,0,2.335c0.163,2.276-0.003,3.958-0.481,5.053C260.072,105.836,259.079,106.654,257.605,107.106"/>
	<path fill-rule="evenodd" clip-rule="evenodd" fill="#134391" d="M274.012,115.098c-0.576,0.09-1.125-0.057-1.649-0.452
		c-0.496-0.377-0.8-0.86-0.892-1.453c-0.092-0.59,0.037-1.152,0.398-1.686c0.374-0.518,0.853-0.826,1.429-0.913
		c0.606-0.098,1.164,0.051,1.664,0.423c0.523,0.389,0.827,0.886,0.922,1.479c0.099,0.605-0.036,1.167-0.398,1.679
		C275.124,114.693,274.634,115.003,274.012,115.098 M254.384,118.312l-0.747-4.752l16.786-2.657l0.751,4.75L254.384,118.312z"/>
	<path fill="#134391" d="M4.662,167.865l-0.414-2.121l7.935-6.663l-4.72-2.374l-4.79,0.934l-0.359-1.862l16.685-3.241l0.362,1.857
		l-9.51,1.852c0.901,0.398,2.146,1.002,3.736,1.793l7.187,3.627l0.396,2.024l-7.221-3.672L4.662,167.865"/>
	<path fill-rule="evenodd" clip-rule="evenodd" fill="#134391" d="M14.858,181.264l4.668-3.578c1.407-1.093,2.354-1.782,2.829-2.088
		c-0.619,0.063-1.802,0.094-3.558,0.097l-5.845,0.038L14.858,181.264 M10.451,187.044l-0.646-1.884l3.613-2.785l-2.29-6.636
		l-4.566,0.009l-0.628-1.842l17.991,0.054l0.677,1.977L10.451,187.044z"/>
	<path fill="#134391" d="M25.518,201.901c-1.998,1.063-3.831,1.362-5.492,0.889c-1.569-0.437-2.792-1.481-3.672-3.132
		c-0.971-1.817-1.018-3.665-0.15-5.562c0.867-1.886,2.409-3.428,4.64-4.613c2.244-1.189,4.395-1.608,6.467-1.24
		c2.078,0.365,3.595,1.446,4.558,3.246c1.076,2.033,1.122,4.052,0.135,6.059l-1.713-0.791c0.405-0.862,0.622-1.611,0.635-2.271
		c0.015-0.697-0.187-1.446-0.607-2.229c-0.684-1.287-1.827-2.044-3.42-2.254c-1.597-0.216-3.31,0.161-5.122,1.126
		c-1.817,0.968-3.083,2.186-3.807,3.65c-0.72,1.47-0.754,2.834-0.07,4.111c1.373,2.583,3.552,3.079,6.541,1.491l0.128-0.065
		l-1.434-2.703l1.542-0.821l2.302,4.34L25.518,201.901"/>
	<polygon fill="#134391" points="24.185,212.324 23.155,210.739 37.407,201.477 38.443,203.064 	"/>
	<polygon fill="#134391" points="47.398,217.358 44.25,213.466 32.383,223.08 31.194,221.613 43.059,211.997 39.911,208.112 
		41.25,207.023 48.734,216.271 	"/>
	<polygon fill="#134391" points="49.958,240.824 48.557,239.558 53.917,233.612 47.64,227.95 42.277,233.906 40.864,232.634 
		52.234,220.007 53.647,221.274 48.79,226.673 55.069,232.325 59.927,226.934 61.334,228.198 	"/>
	<path fill-rule="evenodd" clip-rule="evenodd" fill="#134391" d="M67.679,245.951l1.468-5.703c0.444-1.72,0.763-2.851,0.95-3.381
		c-0.447,0.423-1.364,1.18-2.743,2.262l-4.585,3.629L67.679,245.951 M67.765,253.211l-1.668-1.088l1.128-4.413l-5.887-3.822
		l-3.595,2.817l-1.627-1.055l14.2-11.043l1.756,1.134L67.765,253.211z"/>
	<path fill="#134391" d="M85.265,262.119l-1.603-0.751l-1.817-13.682c-0.123-0.818-0.185-1.637-0.203-2.449l-5.816,12.48
		l-1.649-0.772l7.181-15.404l1.674,0.775l1.661,13.856c0.113,0.947,0.178,1.76,0.193,2.442l5.912-12.67l1.651,0.772L85.265,262.119"
		/>
	<polygon fill="#134391" points="103.286,267.942 93.11,264.836 98.082,248.586 107.901,251.582 107.399,253.237 99.388,250.788 
		97.827,255.893 102.474,257.316 101.965,258.967 97.322,257.545 95.431,263.743 103.789,266.295 	"/>
	<path fill="#134391" d="M134.499,271.965l-1.821-0.125l0.933-13.296c-0.203,0.619-0.616,1.529-1.214,2.737l-5.29,10.604
		l-3.696-11.229c-0.404-1.214-0.668-2.177-0.794-2.878l-0.932,13.295l-1.817-0.129l1.186-16.951l2.109,0.144l3.285,10.433
		c0.561,1.753,0.889,2.888,0.978,3.372c0.261-0.678,0.739-1.75,1.44-3.206l4.757-9.863l2.057,0.142L134.499,271.965"/>
	<path fill="#134391" d="M155.205,263.132c0.585,4.775-1.138,7.408-5.171,7.898c-4.061,0.503-6.384-1.621-6.969-6.359l-1.232-10.025
		l1.882-0.235l1.226,9.979c0.444,3.635,2.105,5.271,4.983,4.919c1.426-0.175,2.412-0.735,2.945-1.686
		c0.537-0.959,0.693-2.366,0.46-4.211l-1.232-10.022l1.883-0.235L155.205,263.132"/>
	<path fill="#134391" d="M176.062,265.701l-1.713,0.463l-10.186-9.313c-0.618-0.555-1.195-1.135-1.729-1.75l3.564,13.301
		l-1.759,0.463l-4.396-16.409l1.778-0.478l10.175,9.534c0.693,0.656,1.272,1.241,1.723,1.753l-3.613-13.507l1.753-0.466
		L176.062,265.701"/>
	<polygon fill="#134391" points="185.186,262.195 183.423,262.873 177.327,247.002 179.096,246.332 	"/>
	<path fill="#134391" d="M201.853,251.428c-0.347,2.313-1.542,4.009-3.589,5.097c-1.814,0.962-3.672,1.021-5.554,0.156
		c-1.895-0.867-3.427-2.409-4.613-4.64c-1.195-2.247-1.608-4.401-1.237-6.474c0.358-2.075,1.44-3.592,3.242-4.552
		c2.029-1.078,4.049-1.124,6.05-0.141l-0.787,1.714c-0.858-0.405-1.609-0.622-2.266-0.635c-0.701-0.006-1.446,0.193-2.23,0.606
		c-1.291,0.681-2.032,1.827-2.25,3.427s0.159,3.308,1.125,5.118c0.965,1.814,2.186,3.084,3.646,3.81
		c1.469,0.727,2.839,0.745,4.11,0.064c1.459-0.772,2.345-2.084,2.657-3.938L201.853,251.428"/>
	
		<rect x="203.946" y="234.018" transform="matrix(0.8391 -0.544 0.544 0.8391 -98.9559 150.479)" fill="#134391" width="1.899" height="16.999"/>
	<path fill-rule="evenodd" clip-rule="evenodd" fill="#134391" d="M216.797,229.255c-1.438-1.773-3.087-1.911-4.947-0.396
		l-3.414,2.765l4.327,5.334l3.222-2.611C217.974,232.739,218.246,231.043,216.797,229.255 M218.222,228.009
		c1.042,1.284,1.44,2.611,1.208,3.989c-0.239,1.384-1.03,2.615-2.376,3.71l-3.209,2.593l4.202,5.191l-1.474,1.189l-10.693-13.208
		l4.943-3.998c1.257-1.021,2.513-1.513,3.779-1.473C215.976,226.06,217.186,226.725,218.222,228.009"/>
	<path fill-rule="evenodd" clip-rule="evenodd" fill="#134391" d="M232.596,221.745l-5.357-2.438
		c-1.621-0.729-2.672-1.243-3.166-1.525c0.344,0.517,0.923,1.547,1.757,3.104l2.773,5.145L232.596,221.745 M239.768,222.921
		l-1.36,1.453l-4.156-1.876l-4.784,5.131l2.151,4.027l-1.327,1.422l-8.4-15.906l1.419-1.525L239.768,222.921z"/>
	<polygon fill="#134391" points="250.146,208.461 244.245,216.891 230.318,207.15 231.403,205.596 243.914,214.355 248.732,207.473 
			"/>
	<polygon fill="#134391" points="254.479,200.581 253.56,202.231 238.695,193.996 239.611,192.335 	"/>
	<polygon fill="#134391" points="248.156,177.43 246.28,182.069 260.44,187.79 259.732,189.541 245.569,183.827 243.694,188.456 
		242.097,187.812 246.554,176.783 	"/>
	<path fill-rule="evenodd" clip-rule="evenodd" fill="#134391" d="M251.132,159.41l8.622,7.4l6.396,1.239l-0.35,1.792l-6.369-1.235
		l-10.791,3.624l0.398-2.036l5.118-1.686c1.425-0.468,2.691-0.851,3.801-1.142c-0.917-0.686-1.949-1.518-3.093-2.486l-4.122-3.474
		L251.132,159.41z"/>
</g>
</svg>
