<?xml version="1.0" encoding="utf-8"?>
<!-- Generator: Adobe Illustrator 16.0.0, SVG Export Plug-In . SVG Version: 6.00 Build 0)  -->
<!DOCTYPE svg PUBLIC "-//W3C//DTD SVG 1.1//EN" "http://www.w3.org/Graphics/SVG/1.1/DTD/svg11.dtd">
<svg version="1.1" id="Layer_1" xmlns="http://www.w3.org/2000/svg" xmlns:xlink="http://www.w3.org/1999/xlink" x="0px" y="0px"
	 width="533.403px" height="607.149px" viewBox="4.953 7.297 533.403 607.149" enable-background="new 4.953 7.297 533.403 607.149"
	 xml:space="preserve">
<g id="Background">
</g>
<g id="Guides">
</g>
<g id="Foreground">
	<path fill="#29166F" d="M516.991,303.28c12.058,12.942,20.825,26.047,19.817,52.92c-0.888,23.325-7.782,41.751-17.74,55.278
		c-10.423,14.151-26.39,21.854-47.014,25.725c-10.462,1.975-23.345,0.887-35.764,0.887c-79.105,0-156.603,0-236.798,0
		c-5.482,0-14.596,0.746-16.551-1.472c-1.472-1.674-1.593-5.727,0-7.701c2.479-3.063,14.816-1.774,20.686-1.774
		c67.475,0,134.867-0.361,201.919,0c14.799,0.08,30.239,1.009,42.86-1.472c10.966-2.157,21.753-9.636,28.387-16.552
		c5.764-6.027,9.757-11.994,13.606-20.1c1.108-2.357,2.68-4.898,3.528-7.397c5.12-14.798,5.12-35.421,0-50.541
		c-2.904-8.628-7.44-13.567-12.118-21.894c-6.633-7.076-16.793-16.772-28.666-20.987c-5.706-2.016-14.051-5.564-18.629-0.585
		c-3.789,4.113-3.244,14.354-3.244,23.951c0,27.115,0,55.822,0,81.283c0,5.666-3.63,14.213-5.928,17.741
		c-3.166,4.898-8.83,9.354-15.947,10.646c-8.364,1.512-18.283,0.584-27.8,0.584c-65.378,0-133.056,0.504-197.768-0.584
		c-2.661-2.641-3.509-10.928-0.303-13.307c3.326-2.438,19.313-0.888,24.836-0.888c51.146,0,101.465,0,153.135,0
		c13.508,0,24.857,1.049,30.743-6.491c3.024-3.89,6.109-12.257,6.794-18.93c1.331-12.943,0-25.986,0-38.425
		c0-30.685,0-63.484,0-95.498c0-10.06,2.179-20.785-5.02-23.93c-1.028-2.156-4.558-3.305-4.133-5.927
		c11.793-1.572,27.639-0.887,41.389-0.887c4.455,0,9.354-1.008,12.417,1.492c0.849,7.056-6.511,5.887-9.757,8.87
		c-2.883,8.749-1.774,23.769-1.774,35.763c0,3.891-0.886,8.407,2.059,10.342c5.684,0.565,9.495-3.205,13.022-5.604
		c10.806-7.439,21.287-17.519,24.534-32.82c2.64-12.479,0-26.954-3.851-37.255c-7.922-21.148-21.854-34.131-42.578-42.86
		c-4.335-1.835-9.838-3.709-16.551-4.738c-5.787-0.887-16.067-2.177-18.91,1.492c-3.447,4.415-1.773,18.91-1.773,27.195
		c0,58.081-0.304,114.246-0.304,175.009c0,22.801,1.351,43.465-18.021,47.295c-6.653,1.311-15.343,0.303-23.366,0.303
		c-51.771,0-101.2,0-153.133,0c-3.628,0-9.213,0.465-10.646-0.888c-1.954-1.874-1.41-7.681,0-9.173
		c1.979-2.076,13.166-1.188,19.213-1.188c41.087,0,79.854,0,121.223,0c7.86,0,17.982,1.328,22.457-1.775
		c4.175-2.882,5.888-11.432,6.794-18.325c1.433-10.745,0.604-22.778,0.604-34.573c0-75.882,0-152.126,0-228.229
		c0-6.048,0.646-12.237-0.303-17.156c-1.028-5.383-6.936-6.753-6.21-13.89c3.407-2.439,8.226-1.472,12.419-1.472
		c9.375,0,17.378,0.12,26.61,0c4.073-0.061,11.049-0.605,12.115,1.472c1.573,3.064-2.922,6.592-3.547,7.398
		c-2.158,2.741-3.771,4.092-4.737,6.794c-2.237,6.33-0.888,16.107-0.888,24.251c0,6.773-0.886,21.692,2.077,23.043
		c2.882,1.33,8.265-2.218,10.645-3.831c8.669-5.906,15.2-16.632,18.042-27.195c3.812-14.252,1.393-31.833-3.548-43.163
		c-5.926-13.587-19.717-23.184-34.312-28.97c-12.499-4.979-27.981-8.345-46.993-7.096c-1.553,0.102-5.262,0.444-5.906-1.189
		c-0.866-2.197,4.274-4.073,6.491-5.02c3.467-1.492,6.128-2.298,8.871-2.964c7.82-1.895,15.301-2.641,21.872-2.943
		c18.748-0.887,34.533,5.666,48.483,11.511c9.999,4.193,19.395,10.886,26.611,18.346c4.717,4.859,7.843,8.851,11.229,15.059
		c5.222,9.597,7.177,25.261,3.549,37.559c-2.218,7.479-5.786,15.502-10.039,21.57c-4.455,6.35-10.241,11.592-13.308,18.326
		c5.867,3.206,12.479,4.012,18.325,6.209c11.976,4.516,22.68,9.516,31.632,17.439c4.313,3.83,8.749,8.104,11.814,12.721
		c9.07,13.627,16.752,37.154,10.058,58.523c-2.52,8.104-8.306,16.632-13.586,23.063c-2.541,3.085-5.585,5.967-9.174,9.172
		c-2.721,2.44-8.97,6.432-8.568,9.758c0.364,3.186,8.105,5.221,11.533,6.794C496.609,287.173,508.524,294.188,516.991,303.28z"/>
	<path fill="#29166F" d="M328.094,319.248c-0.161,3.286-2.306,5.725-5.209,8.568c-1.955,1.936-5.617,6.631-8.398,7.397
		c-3.387,0.927-9.334,0.081-14.171,0c-29.069-0.442-58.362,0-87.816,0c-5.079,0-10.745,0.867-13.891,0
		c-2.843-0.786-5.938-5.362-7.794-7.397c-2.641-2.863-4.646-4.818-5.512-7.682c-0.04-0.242,0.121-0.283,0.303-0.304
		c0.161-0.423,0.463-0.705,0.888-0.888C233.585,319.146,281.484,318.563,328.094,319.248z"/>
	<path fill="#EE1818" d="M320.111,239.717c0.041,20.079-10.886,36.509-20.1,48.787c-3.186,4.232-6.512,8.688-10.945,11.833
		c5.201-11.652,11.592-26.631,9.172-44.05c-4.233-30.582-18.186-56.608-24.253-86.324c-3.81-18.729-3.386-43.605,2.662-61.487
		c0.543-1.572,1.472-3.125,2.077-4.738c1.732-4.536,3.647-9.395,5.906-13.608c0.181-0.423,0.462-0.705,0.886-0.887
		c0.202,0,0.403,0,0.606,0c-0.908,14.576-2.098,32.135,0.28,47.014c0.988,6.148,2.459,12.417,4.152,18.042
		c4.959,16.451,11.813,30.965,18.326,46.408c2.521,5.967,5.422,10.907,7.377,18.022
		C317.853,224.516,320.092,232.499,320.111,239.717z"/>
	<path fill="#29166F" d="M308.277,341.12c-0.363,2.562-3.567,6.323-6.491,9.286c-2.035,2.057-4.413,5.572-7.681,6.379
		c-4.696,1.189-12.58,0-19.231,0c-13.125,0-24.516,0-37.821,0c-6.41,0-14.111,0.967-18.626-0.282
		c-3.308-0.929-6.463-4.88-8.701-7.097c-2.682-2.661-4.383-5.322-5.21-8.286c7.137-1.472,18.647-0.888,28.386-0.888
		c16.712,0,34.533-0.08,51.448,0C292.675,340.273,301,339.568,308.277,341.12z"/>
	<path fill="#EE1818" d="M280.195,247.7c1.531,7.883,1.027,17.7,0.304,25.14c-0.304,3.246-1.715,7.458-2.662,10.927
		c-1.351,5-3.267,8.366-5.321,12.417c-1.11,2.218-1.331,5.021-3.55,6.209c-0.927-3.286,0.908-7.015,1.191-10.341
		c0.725-8.709-1.978-18.668-3.852-25.724c-1.331-5.061-3.831-10.383-5.908-15.362c-1.009-2.399-1.146-4.899-2.075-7.097
		c-4.839-11.531-10.986-23.547-15.664-36.368c-2.299-6.33-4.698-12.942-6.211-19.797c-2.419-11.048-5.099-20.946-4.132-35.179
		c1.289-19.354,9.071-35.078,17.137-47.901c3.225-5.1,6.773-9.777,10.36-14.191c3.831-4.718,8.367-8.81,13.004-13.003
		c0.101,0,0.202,0,0.283,0c0.744,1.088-0.424,2.701-0.888,3.547c-6.434,11.955-13.386,25.382-15.947,41.691
		c-0.644,3.992-1.772,7.843-2.077,11.813c-1.27,16.431,1.877,35.26,6.21,49.674c4.112,13.688,9.133,26.188,13.308,39.896
		c1.39,4.596,3.386,9.657,4.436,15.08C278.702,242.115,279.651,244.877,280.195,247.7z"/>
	<path fill="#29166F" d="M287.896,363.6c-2.138,3.971-5.463,6.752-8.588,9.758c-15.665,0.181-32.177,0.322-46.689,0
		c-3.065-2.965-6.493-5.545-7.983-10.061c9.173-1.027,22.154-0.586,33.688-0.586C268.645,362.711,279.025,362.025,287.896,363.6z"/>
	<path fill="#EE1818" d="M247.98,265.44c3.146,11.028,6.168,25.765,3.548,39.333c-2.035-2.701-2.318-6.149-3.548-9.173
		c-2.399-5.866-5.786-11.067-8.871-16.551c-10.945-19.434-26.488-36.207-36.953-56.77c-2.781-5.483-6.329-11.37-8.266-18.326
		c-4.435-15.765-2.398-36.509,2.358-50.258c1.915-5.564,4.88-11.29,7.681-16.249c7.237-12.861,15.504-24.212,24.535-35.481
		c1.977-2.459,4.272-4.536,6.512-6.794c0.102,0,0.201,0,0.302,0c0.868,1.573-0.746,3.487-1.489,4.718
		c-4.375,7.398-8.893,15.503-12.118,24.534c-1.271,3.568-2.901,7.116-3.85,10.645c-5.604,21.107-2.723,48.182,4.152,66.527
		c6.813,18.185,16.167,36.228,22.761,54.976C245.803,259.614,247.112,262.376,247.98,265.44z"/>
	<path fill="#EE1818" d="M292.332,56.141c-0.021,2.5-3.617,4.253-5.209,5.625c-2.439,2.076-5.416,5.14-7.514,5.323
		c-1.653,0.121-3.99-1.976-5.625-2.964c-1.915-1.17-3.485-2.822-4.717-3.548c-2.763-1.613-5.887-2.803-8.871-4.436
		c-7.056-3.83-14.735-6.431-23.062-9.455c-22.176-8.064-55.037-12.317-83.946-6.209c-2.54,0.524-5.141,1.452-7.7,2.077
		c-8.729,2.117-17.701,5.785-25.423,9.455c-28.203,13.426-49.734,34.715-65.035,61.79c-13.789,24.394-21.974,56.105-18.628,95.175
		c0.242,2.682,0.786,5.322,1.19,7.983c1.472,9.737,2.82,18.769,5.32,27.498c2.823,9.838,5.646,20.765,9.456,30.744
		c12.397,32.356,27.315,62.878,46.71,88.984c7.781,10.463,14.998,21.107,23.364,30.744c16.854,19.454,33.97,38.688,53.505,54.976
		c4.898,4.112,9.477,8.729,14.476,12.722c5.06,4.032,10.402,7.742,15.382,11.834c9.958,8.186,20.945,14.858,31.045,23.043
		c-21.43-8.629-39.532-20.583-57.958-32.216c-26.107-17.479-50.563-38.384-73.021-61.79c-18.809-19.616-36.268-42.84-50.843-67.092
		c-8.245-13.749-15.886-29.453-23.345-44.654c-0.908-1.834-1.855-3.851-2.661-5.907c-0.786-1.976-1.896-3.709-2.662-5.625
		c-1.026-2.56-2.229-5.402-3.378-7.983c-2.924-6.633-4.482-14.435-7.266-22.155c-1.875-5.202-2.862-10.544-4.437-15.968
		c-1.611-5.544-2.196-9.167-3.246-15.155c-0.302-1.693-1.188-5.347-1.491-7.021c-1.392-7.741-1.633-17.982-1.773-26.308
		c-0.202-14.132,1.351-27.296,3.852-38.727c3.146-14.354,7.539-28.728,13.306-41.086c6.955-14.958,15.039-27.276,24.837-39.917
		c3.549-4.617,8.205-8.426,12.397-12.721c12.358-12.58,28.123-21.711,44.937-30.139c9.798-4.899,21.108-8.722,33.123-11.645
		c1.553-0.383,2.923-0.451,4.435-0.774c14.691-3.148,27.961-2.889,31.632-3.245c3.123-0.304,13.185,0.363,19.516,0.887
		c16.208,1.331,28.728,5.484,41.67,10.04c19.756,6.975,34.715,17.176,49.675,30.159C286.443,50.294,292.332,53.963,292.332,56.141z"
		/>
	<g>
		<path fill="#29166F" d="M11.336,613.74c1.139,0.111,2.597,0.212,4.373,0.298c1.775,0.086,3.843,0.131,6.198,0.136
			c4.307,0.003,7.965-0.273,10.977-0.834c3.012-0.559,5.415-1.419,7.21-2.58c1.387-0.869,2.486-1.914,3.297-3.137
			c0.811-1.222,1.225-2.62,1.242-4.195c-0.042-1.808-0.611-3.34-1.708-4.598s-2.472-2.26-4.126-3.004
			c-1.654-0.745-3.338-1.251-5.052-1.521v-0.162c2.771-0.703,4.942-1.764,6.52-3.182c1.575-1.418,2.378-3.035,2.407-4.854
			c-0.016-1.439-0.416-2.7-1.204-3.781c-0.787-1.08-1.873-1.974-3.257-2.681c-1.579-0.916-3.531-1.59-5.857-2.019
			c-2.325-0.429-5.181-0.641-8.564-0.636c-2.393,0.003-4.685,0.077-6.876,0.223c-2.193,0.146-4.054,0.342-5.578,0.59L11.336,613.74
			L11.336,613.74z M18.144,580.948c0.536-0.085,1.288-0.159,2.255-0.225c0.968-0.064,2.229-0.1,3.783-0.103
			c3.499-0.016,6.283,0.45,8.353,1.398c2.066,0.947,3.126,2.474,3.175,4.576c-0.027,1.803-1.03,3.275-3.009,4.42
			c-1.979,1.146-4.767,1.734-8.36,1.772h-6.195L18.144,580.948L18.144,580.948z M18.144,596.313h5.646
			c3.827-0.016,7.03,0.545,9.613,1.678c2.582,1.133,3.926,2.927,4.028,5.384c-0.124,2.625-1.503,4.477-4.136,5.554
			c-2.634,1.077-5.776,1.599-9.43,1.563c-1.214,0.002-2.296-0.016-3.243-0.047c-0.949-0.033-1.776-0.091-2.48-0.17L18.144,596.313
			L18.144,596.313z"/>
		<polygon fill="#29166F" points="97.967,592.79 77.513,592.79 77.513,581.219 99.221,581.219 99.221,577.263 70.626,577.263 
			70.626,613.848 100.396,613.848 100.396,609.892 77.513,609.892 77.513,596.691 97.967,596.691 		"/>
		<polygon fill="#29166F" points="127.282,613.848 156.739,613.848 156.739,609.892 134.169,609.892 134.169,577.263 
			127.282,577.263 		"/>
		<polygon fill="#29166F" points="210.813,592.79 190.359,592.79 190.359,581.219 212.067,581.219 212.067,577.263 183.473,577.263 
			183.473,613.848 213.243,613.848 213.243,609.892 190.359,609.892 190.359,596.691 210.813,596.691 		"/>
		<path fill="#29166F" d="M242.587,613.74c1.714,0.137,3.589,0.242,5.626,0.317c2.038,0.075,4.287,0.113,6.748,0.115
			c5.156-0.006,9.72-0.455,13.689-1.349c3.971-0.895,7.221-2.197,9.75-3.911c2.439-1.693,4.313-3.738,5.616-6.137
			c1.304-2.399,1.963-5.097,1.977-8.092c-0.016-2.949-0.671-5.507-1.967-7.671c-1.297-2.162-3.146-3.985-5.548-5.471
			c-2.303-1.471-5.223-2.596-8.761-3.375c-3.537-0.779-7.751-1.172-12.641-1.178c-2.711,0.003-5.284,0.077-7.72,0.223
			c-2.435,0.146-4.691,0.342-6.771,0.59L242.587,613.74L242.587,613.74z M249.396,581.22c0.901-0.14,2.02-0.255,3.353-0.347
			c1.332-0.092,2.881-0.139,4.645-0.143c7.207,0.049,12.587,1.321,16.141,3.821c3.552,2.498,5.307,5.933,5.262,10.297
			c-0.021,4.972-1.938,8.795-5.752,11.472c-3.813,2.678-9.396,4.029-16.747,4.06c-1.346,0.001-2.613-0.015-3.802-0.048
			c-1.189-0.032-2.223-0.089-3.098-0.17L249.396,581.22L249.396,581.22z"/>
		<path fill="#29166F" d="M369.515,613.848V595.89l16.442-19.815h-7.681l-6.411,8.905c-1.024,1.377-1.99,2.682-2.897,3.916
			c-0.907,1.232-1.716,2.442-2.428,3.629h-0.155c-0.815-1.257-1.65-2.487-2.505-3.69c-0.855-1.203-1.77-2.487-2.741-3.854
			l-6.255-8.905h-7.837l15.581,19.87v17.903L369.515,613.848L369.515,613.848z"/>
		<polygon fill="#29166F" points="438.002,592.79 417.547,592.79 417.547,581.219 439.256,581.219 439.256,577.263 410.659,577.263 
			410.659,613.848 440.431,613.848 440.431,609.892 417.547,609.892 417.547,596.691 438.002,596.691 		"/>
		<path fill="#29166F" d="M467.11,612.061c1.477,0.668,3.438,1.229,5.882,1.681c2.445,0.451,4.978,0.687,7.591,0.705
			c6.223-0.088,10.85-1.146,13.883-3.175c3.032-2.027,4.544-4.495,4.531-7.407c0-2.65-1.115-4.815-3.348-6.496
			c-2.23-1.681-5.581-3.099-10.048-4.256c-3.628-0.937-6.291-1.93-7.988-2.979s-2.537-2.411-2.52-4.079
			c-0.035-1.321,0.723-2.548,2.273-3.68c1.553-1.131,4.114-1.732,7.686-1.805c2.403,0.026,4.456,0.229,6.153,0.604
			s2.965,0.752,3.8,1.134l1.878-3.849c-1.144-0.479-2.692-0.893-4.649-1.242c-1.957-0.349-4.271-0.532-6.946-0.549
			c-5.206,0.057-9.337,1-12.393,2.826c-3.056,1.827-4.618,4.194-4.688,7.104c0.042,2.531,1.288,4.637,3.738,6.313
			s5.854,3.048,10.205,4.113c3.537,0.897,6.089,1.911,7.655,3.041c1.565,1.129,2.334,2.521,2.304,4.182
			c-0.024,1.875-0.995,3.378-2.911,4.507s-4.632,1.708-8.146,1.737c-2.374-0.016-4.604-0.243-6.69-0.687
			c-2.086-0.442-3.904-1.01-5.451-1.703L467.11,612.061z"/>
		<path fill="#29166F" stroke="#29166F" stroke-width="2.3796" d="M11.163,559.349c1.117,0.157,2.55,0.294,4.294,0.413
			s3.771,0.183,6.086,0.188c4.228,0.006,7.819-0.38,10.776-1.154s5.316-1.968,7.078-3.578c1.363-1.205,2.441-2.653,3.237-4.349
			s1.202-3.634,1.22-5.817c-0.041-2.506-0.6-4.631-1.676-6.375c-1.077-1.744-2.428-3.132-4.053-4.164
			c-1.623-1.032-3.277-1.733-4.959-2.105v-0.227c2.721-0.975,4.854-2.444,6.399-4.409c1.547-1.967,2.335-4.211,2.363-6.731
			c-0.014-1.997-0.408-3.745-1.181-5.243c-0.773-1.498-1.84-2.736-3.198-3.716c-1.551-1.271-3.468-2.204-5.751-2.799
			c-2.284-0.596-5.087-0.89-8.411-0.883c-2.348,0.005-4.599,0.107-6.751,0.31c-2.153,0.203-3.979,0.475-5.477,0.817v49.822H11.163z
			 M17.848,513.883c0.526-0.117,1.264-0.221,2.213-0.311c0.95-0.089,2.188-0.137,3.715-0.142c3.438-0.021,6.169,0.625,8.2,1.939
			c2.03,1.313,3.069,3.43,3.118,6.345c-0.027,2.5-1.013,4.543-2.955,6.129c-1.942,1.587-4.679,2.405-8.209,2.457h-6.082V513.883z
			 M17.848,535.186h5.543c3.758-0.021,6.904,0.755,9.44,2.325s3.854,4.06,3.955,7.465c-0.122,3.641-1.477,6.206-4.062,7.7
			c-2.586,1.494-5.672,2.215-9.258,2.165c-1.192,0.001-2.254-0.021-3.187-0.064c-0.932-0.046-1.742-0.125-2.435-0.236v-19.354
			H17.848z"/>
		<path fill="#29166F" stroke="#29166F" stroke-width="2.3796" d="M89.662,543.541l5.538,15.957h7.154l-17.693-50.724H76.66
			l-17.693,50.724h6.924l5.385-15.957H89.662z M72.66,538.432l5.076-14.678c0.532-1.553,1.008-3.104,1.425-4.656
			c0.416-1.55,0.813-3.063,1.191-4.537h0.153c0.377,1.465,0.777,2.962,1.202,4.49c0.425,1.529,0.922,3.12,1.49,4.771l5.153,14.608
			L72.66,538.432L72.66,538.432z"/>
		<path fill="#29166F" stroke="#29166F" stroke-width="2.3796" d="M133.264,559.498v-21.6l17.313-29.124h-7.541l-7.465,13.997
			c-1.007,1.907-1.954,3.718-2.846,5.429c-0.891,1.71-1.685,3.388-2.383,5.032h-0.153c-0.801-1.743-1.62-3.449-2.46-5.117
			c-0.839-1.668-1.734-3.449-2.689-5.344l-7.312-13.997h-7.693l16.467,29.199v21.523L133.264,559.498L133.264,559.498z"/>
		<path fill="#29166F" stroke="#29166F" stroke-width="2.3796" d="M166.046,559.498h6.685v-21.979h6.313
			c3.002,0.072,5.313,0.869,6.938,2.391c1.624,1.521,2.803,4.012,3.531,7.471c0.694,3.178,1.326,5.8,1.896,7.866
			c0.568,2.067,1.064,3.485,1.489,4.253h6.918c-0.532-0.994-1.122-2.675-1.77-5.043c-0.648-2.368-1.392-5.328-2.229-8.883
			c-0.605-2.646-1.524-4.842-2.757-6.584c-1.23-1.744-2.824-2.959-4.777-3.648v-0.226c2.759-0.911,5.047-2.453,6.861-4.626
			c1.816-2.174,2.758-4.922,2.824-8.246c-0.011-2.01-0.372-3.845-1.085-5.506c-0.712-1.662-1.708-3.063-2.987-4.206
			c-1.557-1.39-3.557-2.425-6-3.108c-2.443-0.685-5.445-1.024-9.007-1.023c-2.312,0.007-4.597,0.105-6.856,0.301
			c-2.261,0.195-4.257,0.444-5.986,0.751L166.046,559.498L166.046,559.498z M172.73,514.034c0.579-0.153,1.423-0.279,2.531-0.377
			s2.472-0.147,4.09-0.15c3.596-0.017,6.47,0.733,8.622,2.25c2.153,1.518,3.256,3.905,3.312,7.164
			c-0.04,2.938-1.096,5.271-3.166,6.994s-4.916,2.606-8.536,2.646h-6.853V514.034z"/>
		<path fill="#29166F" stroke="#29166F" stroke-width="2.3796" d="M244.49,543.541l5.538,15.957h7.155l-17.693-50.724h-8.002
			l-17.692,50.724h6.924l5.385-15.957H244.49z M227.489,538.432l5.077-14.678c0.532-1.553,1.007-3.104,1.423-4.656
			c0.417-1.55,0.814-3.063,1.192-4.537h0.154c0.377,1.465,0.776,2.962,1.202,4.49c0.425,1.529,0.921,3.12,1.489,4.771l5.154,14.608
			L227.489,538.432L227.489,538.432z"/>
		<path fill="#29166F" stroke="#29166F" stroke-width="2.3796" d="M319.488,559.498h6.616l-3.231-50.724h-8.54l-9.23,24.528
			c-1.154,3.19-2.193,6.198-3.116,9.022c-0.923,2.823-1.729,5.513-2.423,8.063h-0.154c-0.688-2.627-1.465-5.353-2.326-8.177
			c-0.862-2.824-1.83-5.794-2.904-8.91l-8.848-24.528h-8.539l-3.616,50.724h6.386l1.385-21.754
			c0.234-3.898,0.439-7.807,0.615-11.724c0.177-3.918,0.306-7.486,0.385-10.708h0.154c0.732,3.006,1.595,6.142,2.587,9.409
			c0.992,3.269,2.104,6.705,3.337,10.313l8.462,24.162h5.078l9.155-24.614c1.301-3.499,2.486-6.853,3.558-10.059
			s2.064-6.276,2.981-9.212h0.152c0.013,3.204,0.104,6.751,0.279,10.643c0.175,3.891,0.364,7.645,0.567,11.263L319.488,559.498z"/>
		<path fill="#29166F" stroke="#29166F" stroke-width="2.3796" d="M346.518,559.498h6.685v-20.322
			c0.773,0.184,1.614,0.305,2.521,0.366s1.864,0.089,2.868,0.085c3.297-0.002,6.306-0.469,9.024-1.4
			c2.72-0.931,4.996-2.317,6.828-4.16c1.311-1.317,2.302-2.881,2.979-4.688c0.676-1.808,1.015-3.86,1.019-6.157
			c-0.017-2.268-0.426-4.301-1.229-6.1c-0.805-1.797-1.905-3.303-3.306-4.516c-1.537-1.359-3.519-2.398-5.942-3.118
			c-2.424-0.721-5.292-1.083-8.604-1.09c-2.69,0.008-5.102,0.104-7.231,0.292c-2.132,0.186-4.001,0.414-5.611,0.686L346.518,559.498
			L346.518,559.498z M353.201,514.109c0.585-0.154,1.416-0.279,2.493-0.377c1.076-0.098,2.351-0.147,3.82-0.15
			c3.709-0.006,6.664,0.816,8.863,2.467c2.197,1.65,3.323,4.166,3.377,7.549c-0.037,3.447-1.194,6.1-3.475,7.955
			c-2.278,1.855-5.458,2.793-9.537,2.814c-1.115,0.001-2.136-0.039-3.06-0.123c-0.924-0.083-1.752-0.218-2.483-0.404
			L353.201,514.109L353.201,514.109z"/>
		<path fill="#29166F" stroke="#29166F" stroke-width="2.3796" d="M418.906,543.541l5.539,15.957h7.155l-17.694-50.724h-8.001
			l-17.692,50.724h6.923l5.386-15.957H418.906z M401.906,538.432l5.077-14.678c0.532-1.553,1.007-3.104,1.423-4.656
			c0.417-1.55,0.814-3.063,1.192-4.537h0.154c0.376,1.465,0.776,2.962,1.201,4.49c0.425,1.529,0.921,3.12,1.49,4.771l5.154,14.608
			L401.906,538.432L401.906,538.432z"/>
		<path fill="#29166F" stroke="#29166F" stroke-width="2.3796" d="M446.666,557.02c1.541,0.961,3.516,1.746,5.922,2.357
			c2.405,0.613,4.766,0.929,7.08,0.949c0.079,0,0.17,0,0.27,0s0.189,0,0.27,0l4.387-0.376c4.529-0.866,7.896-2.608,10.097-5.227
			c2.2-2.616,3.296-5.641,3.286-9.068c0-3.675-1.096-6.677-3.286-9.007c-2.191-2.328-5.48-4.297-9.866-5.9
			c-3.562-1.297-6.176-2.674-7.843-4.131c-1.667-1.458-2.492-3.344-2.475-5.656c-0.035-1.832,0.71-3.533,2.233-5.102
			s4.039-2.402,7.546-2.503c2.358,0.038,4.371,0.317,6.038,0.837c1.668,0.52,2.912,1.043,3.732,1.571l1.844-5.336
			c-1.122-0.664-2.645-1.237-4.566-1.723c-1.922-0.483-4.193-0.737-6.817-0.761c-5.111,0.079-9.167,1.386-12.168,3.919
			c-3,2.533-4.535,5.815-4.604,9.848c0.042,3.511,1.267,6.428,3.672,8.753c2.406,2.324,5.747,4.227,10.023,5.703
			c3.468,1.245,5.972,2.651,7.511,4.216c1.539,1.566,2.293,3.498,2.264,5.798c-0.023,2.602-0.979,4.685-2.859,6.249
			c-1.883,1.565-4.547,2.368-7.992,2.409c-2.332-0.021-4.521-0.337-6.572-0.95c-2.05-0.612-3.834-1.4-5.354-2.362L446.666,557.02z"
			/>
		<path fill="#29166F" stroke="#29166F" stroke-width="2.3796" d="M523.988,543.541l5.539,15.957h7.155l-17.694-50.724h-8
			l-17.693,50.724h6.924l5.385-15.957H523.988z M506.987,538.432l5.077-14.678c0.532-1.553,1.007-3.104,1.424-4.656
			c0.416-1.55,0.813-3.063,1.191-4.537h0.153c0.378,1.465,0.777,2.962,1.202,4.49c0.426,1.529,0.923,3.12,1.49,4.771l5.154,14.608
			L506.987,538.432L506.987,538.432z"/>
		<polygon fill="#29166F" stroke="#29166F" stroke-width="2.3796" points="456.178,565.631 462.633,565.712 459.517,574.136 
			454.618,574.136 		"/>
		<g>
			<rect x="312.683" y="569.678" fill="#29166F" width="6.887" height="5.646"/>
			<polygon fill="#29166F" points="312.586,576.965 312.646,613.85 319.531,613.85 319.473,576.965 			"/>
		</g>
		<g>
			<rect x="531.245" y="569.678" fill="#29166F" width="6.888" height="5.646"/>
			<polygon fill="#29166F" points="531.15,576.965 531.209,613.85 538.096,613.85 538.036,576.965 			"/>
		</g>
	</g>
</g>
</svg>
