<?xml version="1.0" encoding="utf-8"?>
<!-- Generator: Adobe Illustrator 16.0.0, SVG Export Plug-In . SVG Version: 6.00 Build 0)  -->
<!DOCTYPE svg PUBLIC "-//W3C//DTD SVG 1.1//EN" "http://www.w3.org/Graphics/SVG/1.1/DTD/svg11.dtd">
<svg version="1.1" id="Layer_1" xmlns="http://www.w3.org/2000/svg" xmlns:xlink="http://www.w3.org/1999/xlink" x="0px" y="0px"
	 width="67.303px" height="73.844px" viewBox="0 0 67.303 73.844" enable-background="new 0 0 67.303 73.844" xml:space="preserve">
<g>
	<path fill-rule="evenodd" clip-rule="evenodd" fill="#3EA635" d="M67.303,15.387v22.805H0.383V15.387h16.599l16.865-11.43
		l16.164,10.96l0.692,0.47H67.303L67.303,15.387z M33.656,10.408c2.06,0,3.73,1.671,3.73,3.731s-1.671,3.731-3.73,3.731
		c-2.061,0-3.731-1.671-3.731-3.731S31.596,10.408,33.656,10.408L33.656,10.408z"/>
	<path fill-rule="evenodd" clip-rule="evenodd" fill="#FFFFFF" d="M33.161,22.45c0.502-1.058,1.214-2.014,2.078-2.833
		c1.785-1.692,4.129-2.728,6.55-3.086l1.541-0.228l-0.129,1.557c-0.202,2.436-1.292,4.703-3.065,6.384
		c-0.736,0.697-1.571,1.275-2.476,1.715c0.95,0.478,1.819,1.111,2.574,1.872c1.805,1.817,2.852,4.243,2.988,6.796l0.08,1.516
		l-1.463-0.2c-2.505-0.342-4.895-1.452-6.683-3.253c-0.839-0.845-1.521-1.821-2.003-2.889c-0.468,1.011-1.117,1.935-1.908,2.744
		c-1.744,1.783-4.076,2.912-6.524,3.328l-1.536,0.262l0.098-1.582c0.152-2.476,1.181-4.808,2.916-6.581
		c0.82-0.838,1.774-1.527,2.821-2.034c-0.95-0.466-1.822-1.084-2.583-1.83c-1.676-1.647-2.714-3.825-2.928-6.166l-0.149-1.626
		l1.604,0.295c2.327,0.427,4.564,1.485,6.26,3.151C32.024,20.548,32.687,21.454,33.161,22.45L33.161,22.45z"/>
	<path fill="#3EA635" d="M33.163,24.793c0.299-1.773,1.218-3.377,2.567-4.656c1.57-1.488,3.726-2.537,6.163-2.897l0.649-0.096
		l-0.055,0.658c-0.193,2.329-1.249,4.411-2.846,5.924c-1.112,1.054-2.489,1.832-4.019,2.222c1.568,0.416,2.976,1.252,4.103,2.388
		c1.608,1.62,2.649,3.849,2.781,6.331l0.035,0.651l-0.606-0.083c-2.486-0.339-4.686-1.451-6.271-3.048
		c-1.316-1.326-2.212-2.986-2.504-4.821c-0.29,1.771-1.155,3.378-2.427,4.679c-1.544,1.579-3.691,2.708-6.132,3.123l-0.646,0.11
		l0.042-0.68c0.147-2.385,1.156-4.533,2.713-6.125c1.185-1.211,2.687-2.102,4.369-2.531c-1.586-0.409-3.007-1.23-4.141-2.344
		c-1.511-1.484-2.513-3.487-2.717-5.72l-0.063-0.687l0.676,0.124c2.34,0.429,4.395,1.492,5.888,2.958
		C32.003,21.53,32.873,23.083,33.163,24.793L33.163,24.793z M30.003,31.271c1.205-1.232,1.994-2.766,2.181-4.443
		c-1.844,0.267-3.493,1.143-4.742,2.42c-1.224,1.251-2.064,2.886-2.33,4.71C27.056,33.502,28.753,32.549,30.003,31.271
		L30.003,31.271z M36.362,31.396c1.3,1.31,3.063,2.259,5.068,2.657c-0.252-1.921-1.124-3.637-2.4-4.923
		c-1.3-1.309-3.016-2.172-4.921-2.352C34.288,28.531,35.107,30.131,36.362,31.396L36.362,31.396z M29.996,21.024
		c-1.197-1.176-2.802-2.066-4.638-2.525c0.307,1.687,1.134,3.194,2.309,4.347c1.196,1.175,2.752,1.984,4.488,2.245
		C31.923,23.558,31.15,22.158,29.996,21.024L29.996,21.024z M36.442,20.901c-1.232,1.168-2.056,2.635-2.283,4.245
		c1.84-0.179,3.499-0.977,4.772-2.183c1.255-1.19,2.133-2.778,2.434-4.563C39.421,18.807,37.715,19.695,36.442,20.901L36.442,20.901
		z"/>
	<path fill-rule="evenodd" clip-rule="evenodd" fill="#2C3978" d="M33.656,11.188c1.629,0,2.95,1.321,2.95,2.951
		s-1.321,2.951-2.95,2.951c-1.629,0-2.951-1.321-2.951-2.951S32.027,11.188,33.656,11.188L33.656,11.188z M35.454,14.139
		c0,0.993-0.806,1.798-1.798,1.798c-0.993,0-1.798-0.805-1.798-1.798C31.858,11.792,35.454,11.792,35.454,14.139L35.454,14.139z"/>
	<polygon fill-rule="evenodd" clip-rule="evenodd" fill="#2C3978" points="37.748,0.048 67.303,0.048 67.303,9.958 52.361,9.958 
		37.748,0.048 	"/>
	<polygon fill-rule="evenodd" clip-rule="evenodd" fill="#2C3978" points="0.383,0.048 29.944,0.048 15.324,9.958 0.383,9.958 
		0.383,0.048 	"/>
	<polygon fill-rule="evenodd" clip-rule="evenodd" fill="#2C3978" points="0.383,43.621 67.303,43.621 67.303,40.906 0.383,40.906 
		0.383,43.621 	"/>
	<polygon fill="#E40F1B" points="0.383,12.104 15.983,12.104 33.526,0.213 33.842,0 34.157,0.209 34.43,0.39 34.434,0.395 
		51.702,12.104 67.303,12.104 67.303,13.24 51.532,13.24 51.362,13.24 51.215,13.14 33.847,1.363 16.47,13.14 16.323,13.24 
		16.153,13.24 0.383,13.24 0.383,12.104 	"/>
	<polygon fill-rule="evenodd" clip-rule="evenodd" fill="#E40F1B" points="24.826,52.205 42.407,52.205 42.407,52.826 
		24.826,52.826 24.826,52.205 	"/>
	<polygon fill-rule="evenodd" clip-rule="evenodd" fill="#2C3978" points="65.799,64.166 64.607,64.166 64.607,68.973 
		65.799,68.973 65.799,64.166 	"/>
	<path fill-rule="evenodd" clip-rule="evenodd" fill="#2C3978" d="M60.433,65.33c-0.045-0.912-0.619-1.248-1.532-1.248
		c-0.443,0-0.881,0.096-1.228,0.387c-0.312,0.258-0.45,0.592-0.45,0.994c0,0.881,0.651,1.354,1.41,1.631
		c0.433,0.16,1.134,0.475,1.134,1.027c0,0.613-0.458,0.824-1.013,0.824c-0.729,0-1.228-0.316-1.228-1.09
		c0-0.125,0.014-0.252,0.036-0.377l-0.392,0.086c-0.005,0.061-0.009,0.119-0.009,0.18c0,1.063,0.814,1.322,1.749,1.322
		c0.461,0,0.918-0.1,1.276-0.404c0.324-0.277,0.465-0.633,0.465-1.055c0-0.963-0.945-1.455-1.739-1.729
		c-0.4-0.139-1.047-0.412-1.047-0.924c0-0.584,0.485-0.754,0.993-0.754c0.689,0,1.221,0.271,1.221,1.031
		c0,0.055-0.005,0.109-0.011,0.166L60.433,65.33L60.433,65.33z"/>
	<polygon fill-rule="evenodd" clip-rule="evenodd" fill="#2C3978" points="53.32,64.166 50.305,64.166 50.305,68.973 53.63,68.973 
		53.63,68.748 51.495,68.748 51.495,66.443 53.028,66.443 53.028,66.219 51.495,66.219 51.495,64.391 53.32,64.391 53.32,64.166 	
		"/>
	<polygon fill-rule="evenodd" clip-rule="evenodd" fill="#2C3978" points="46.604,64.166 46.322,64.166 45.297,66.863 
		44.158,64.166 42.937,64.166 44.236,67.205 44.236,68.973 45.427,68.973 45.427,67.209 46.604,64.166 	"/>
	<polygon fill-rule="evenodd" clip-rule="evenodd" fill="#2C3978" points="39.211,64.166 38.02,64.166 38.02,68.973 39.211,68.973 
		39.211,64.166 	"/>
	<path fill-rule="evenodd" clip-rule="evenodd" fill="#2C3978" d="M29.985,68.973h1.887c1.57,0,2.188-0.891,2.188-2.396
		c0-1.463-0.554-2.41-2.107-2.41h-1.968V68.973L29.985,68.973z M31.176,68.838v-4.537h0.532c0.399,0,0.707,0.174,0.871,0.545
		c0.201,0.451,0.216,1.234,0.216,1.723s-0.017,1.271-0.218,1.725c-0.165,0.367-0.469,0.545-0.869,0.545H31.176L31.176,68.838z"/>
	<polygon fill-rule="evenodd" clip-rule="evenodd" fill="#2C3978" points="25.912,64.166 22.896,64.166 22.896,68.973 
		26.221,68.973 26.221,68.748 24.086,68.748 24.086,66.443 25.62,66.443 25.62,66.219 24.086,66.219 24.086,64.391 25.912,64.391 
		25.912,64.166 	"/>
	<polygon fill-rule="evenodd" clip-rule="evenodd" fill="#2C3978" points="17.19,64.166 15.999,64.166 15.999,68.973 19.283,68.973 
		19.283,68.748 17.19,68.748 17.19,64.166 	"/>
	<polygon fill-rule="evenodd" clip-rule="evenodd" fill="#2C3978" points="11.926,64.166 8.909,64.166 8.909,68.973 12.235,68.973 
		12.235,68.748 10.101,68.748 10.101,66.443 11.634,66.443 11.634,66.219 10.101,66.219 10.101,64.391 11.926,64.391 11.926,64.166 
			"/>
	<path fill-rule="evenodd" clip-rule="evenodd" fill="#2C3978" d="M1.095,68.973H3.47c0.856,0,1.569-0.246,1.569-1.211
		c0-0.742-0.478-1.074-1.157-1.211l-0.643-0.127l0.638-0.152c0.543-0.129,0.946-0.402,0.946-0.998c0-0.934-0.826-1.107-1.607-1.107
		H1.095V68.973L1.095,68.973z M2.286,68.838v-2.32h0.539c0.749,0,0.997,0.557,0.997,1.23c0,0.646-0.286,1.09-0.971,1.09H2.286
		L2.286,68.838z M2.286,66.383v-2.082h0.561c0.607,0,0.81,0.461,0.81,1.006c0,0.523-0.154,1.076-0.773,1.076H2.286L2.286,66.383z"/>
	<path fill-rule="evenodd" clip-rule="evenodd" fill="#2C3978" d="M62.141,55.701v4.807h1.191v-2.447h0.396
		c0.627,0,0.853,0.449,0.853,1.021l0.008,0.379l0.008,0.305c0,0.246,0.024,0.508,0.107,0.742h1.265
		c-0.122-0.303-0.166-0.709-0.188-0.98c-0.02-0.234-0.067-0.701-0.202-0.9c-0.124-0.188-0.459-0.33-0.66-0.406l-0.43-0.16
		l0.444-0.111c0.567-0.145,0.988-0.441,0.988-1.066c0-0.363-0.154-0.639-0.45-0.848c-0.368-0.26-0.841-0.334-1.282-0.334H62.141
		L62.141,55.701z M63.332,57.926v-2.041h0.441c0.656,0,0.981,0.375,0.981,1.02s-0.325,1.021-0.981,1.021H63.332L63.332,57.926z"/>
	<polygon fill-rule="evenodd" clip-rule="evenodd" fill="#2C3978" points="59.619,55.701 56.604,55.701 56.604,60.508 
		59.929,60.508 59.929,60.283 57.795,60.283 57.795,57.979 59.328,57.979 59.328,57.754 57.795,57.754 57.795,55.926 59.619,55.926 
		59.619,55.701 	"/>
	<polygon fill-rule="evenodd" clip-rule="evenodd" fill="#2C3978" points="52.45,55.701 51.26,55.701 51.26,60.508 54.543,60.508 
		54.543,60.283 52.45,60.283 52.45,55.701 	"/>
	<polygon fill-rule="evenodd" clip-rule="evenodd" fill="#2C3978" points="49.074,55.701 48.819,55.701 47.605,59.959 
		46.493,55.701 45.298,55.701 46.571,60.508 47.679,60.508 49.074,55.701 	"/>
	<polygon fill-rule="evenodd" clip-rule="evenodd" fill="#2C3978" points="43.215,55.701 40.198,55.701 40.198,60.508 
		43.524,60.508 43.524,60.283 41.39,60.283 41.39,57.979 42.923,57.979 42.923,57.754 41.39,57.754 41.39,55.926 43.215,55.926 
		43.215,55.701 	"/>
	<polygon fill-rule="evenodd" clip-rule="evenodd" fill="#2C3978" points="37.569,55.701 36.378,55.701 36.378,60.508 
		37.569,60.508 37.569,55.701 	"/>
	<polygon fill-rule="evenodd" clip-rule="evenodd" fill="#2C3978" points="32.217,55.701 31.026,55.701 31.026,60.508 34.31,60.508 
		34.31,60.283 32.217,60.283 32.217,55.701 	"/>
	<polygon fill-rule="evenodd" clip-rule="evenodd" fill="#2C3978" points="28.505,55.701 25.489,55.701 25.489,60.508 
		28.814,60.508 28.814,60.283 26.68,60.283 26.68,57.979 28.213,57.979 28.213,57.754 26.68,57.754 26.68,55.926 28.505,55.926 
		28.505,55.701 	"/>
	<path fill-rule="evenodd" clip-rule="evenodd" fill="#2C3978" d="M23.173,58.883l-0.323-0.084c0.013,0.1,0.022,0.201,0.022,0.297
		c0,0.354-0.097,0.68-0.327,0.953c-0.219,0.258-0.501,0.395-0.841,0.395c-1.093,0-1.21-1.377-1.21-2.188
		c0-0.715,0.033-2.516,1.098-2.516c0.778,0,1.042,0.566,1.042,1.27c0,0.041,0,0.08-0.001,0.119l0.341-0.154
		c-0.031-0.943-0.549-1.355-1.509-1.355c-0.643,0-1.188,0.217-1.614,0.703c-0.46,0.525-0.623,1.184-0.623,1.871
		c0,1.318,0.479,2.256,1.874,2.391l0.161,0.016l-0.129,0.584c0.219,0.041,0.386,0.17,0.386,0.438c0,0.299-0.184,0.463-0.479,0.463
		c-0.019,0-0.039,0-0.058-0.002v0.014c0.106,0.02,0.218,0.035,0.319,0.035c0.199,0,0.375-0.059,0.533-0.18
		c0.122-0.094,0.213-0.213,0.213-0.371c0-0.393-0.343-0.453-0.67-0.453h-0.179l0.121-0.533h0.114c0.467,0,0.914-0.111,1.273-0.42
		c0.328-0.283,0.479-0.641,0.479-1.07C23.183,59.029,23.179,58.957,23.173,58.883L23.173,58.883z"/>
	<polygon fill-rule="evenodd" clip-rule="evenodd" fill="#2C3978" points="15.633,60.508 16.824,60.508 16.824,55.701 
		15.633,55.701 15.633,57.75 14.142,57.75 14.142,55.701 12.951,55.701 12.951,60.508 14.142,60.508 14.142,57.975 15.633,57.975 
		15.633,60.508 	"/>
	<path fill-rule="evenodd" clip-rule="evenodd" fill="#2C3978" d="M9.422,55.701H8.34l-1.423,4.807h0.28l0.325-1.104h1.75
		l0.302,1.104h1.188L9.422,55.701L9.422,55.701z M7.583,59.18l0.845-2.938L9.21,59.18H7.583L7.583,59.18z"/>
	<path fill-rule="evenodd" clip-rule="evenodd" fill="#2C3978" d="M1.095,60.508H3.47c0.856,0,1.569-0.246,1.569-1.211
		c0-0.742-0.478-1.074-1.157-1.211l-0.643-0.127l0.638-0.152c0.543-0.129,0.946-0.402,0.946-0.998c0-0.934-0.826-1.107-1.607-1.107
		H1.095V60.508L1.095,60.508z M2.286,60.373v-2.32h0.539c0.749,0,0.997,0.555,0.997,1.229c0,0.648-0.286,1.092-0.971,1.092H2.286
		L2.286,60.373z M2.286,57.918v-2.082h0.561c0.607,0,0.81,0.461,0.81,1.006c0,0.523-0.154,1.076-0.773,1.076H2.286L2.286,57.918z"/>
	<path fill-rule="evenodd" clip-rule="evenodd" fill="#2C3978" d="M40.812,50.492c-0.357,0-0.514,0.154-0.514,0.512
		c0,0.359,0.156,0.514,0.514,0.514c0.358,0,0.514-0.156,0.514-0.514S41.169,50.492,40.812,50.492L40.812,50.492z"/>
	<path fill-rule="evenodd" clip-rule="evenodd" fill="#2C3978" d="M37.663,49.738c0.013,0.102,0.021,0.205,0.021,0.303
		c0,0.359-0.096,0.691-0.326,0.969c-0.218,0.262-0.501,0.402-0.842,0.402c-1.096,0-1.211-1.389-1.211-2.199
		c0-0.713,0.031-2.533,1.099-2.533c0.778,0,1.046,0.563,1.046,1.27c0,0.039-0.001,0.078-0.002,0.119l0.337-0.154
		c-0.03-0.945-0.548-1.355-1.509-1.355c-0.643,0-1.186,0.219-1.611,0.703c-0.46,0.523-0.625,1.18-0.625,1.865
		c0,1.469,0.565,2.404,2.121,2.404c0.48,0,0.97-0.096,1.349-0.41c0.338-0.279,0.485-0.641,0.485-1.076
		c0-0.074-0.002-0.148-0.007-0.223L37.663,49.738L37.663,49.738z"/>
	<path fill-rule="evenodd" clip-rule="evenodd" fill="#2C3978" d="M31.207,50.492c-0.357,0-0.514,0.154-0.514,0.512
		c0,0.359,0.155,0.514,0.514,0.514c0.358,0,0.513-0.156,0.513-0.514S31.564,50.492,31.207,50.492L31.207,50.492z"/>
	<polygon fill-rule="evenodd" clip-rule="evenodd" fill="#2C3978" points="28.566,46.641 24.779,46.641 24.779,46.865 
		26.036,46.865 26.036,51.447 27.315,51.447 27.315,46.865 28.566,46.865 28.566,46.641 	"/>
	<path fill-rule="evenodd" clip-rule="evenodd" fill="#2C3978" d="M36.975,54.504c-0.358,0-0.515,0.156-0.515,0.514
		c0,0.359,0.155,0.514,0.515,0.514c0.357,0,0.513-0.156,0.513-0.514S37.331,54.504,36.975,54.504L36.975,54.504z"/>
	<path fill-rule="evenodd" clip-rule="evenodd" fill="#2C3978" d="M38.616,63.041c-0.357,0-0.514,0.154-0.514,0.512
		c0,0.359,0.155,0.516,0.514,0.516c0.357,0,0.513-0.158,0.513-0.516C39.129,63.197,38.974,63.041,38.616,63.041L38.616,63.041z"/>
	<path fill-rule="evenodd" clip-rule="evenodd" fill="#2C3978" d="M65.204,63.041c-0.358,0-0.515,0.154-0.515,0.512
		c0,0.359,0.155,0.516,0.515,0.516c0.357,0,0.513-0.158,0.513-0.516C65.717,63.197,65.562,63.041,65.204,63.041L65.204,63.041z"/>
	<polygon fill-rule="evenodd" clip-rule="evenodd" fill="#E40F1B" points="0,60.916 67.232,60.916 67.232,61.537 0,61.537 0,60.916 
			"/>
	<polygon fill-rule="evenodd" clip-rule="evenodd" fill="#2C3978" points="0,71.211 67.232,71.211 67.232,73.844 0,73.844 0,71.211 
			"/>
</g>
</svg>
