<?xml version="1.0" encoding="utf-8"?>
<!-- Generator: Adobe Illustrator 16.0.0, SVG Export Plug-In . SVG Version: 6.00 Build 0)  -->
<!DOCTYPE svg PUBLIC "-//W3C//DTD SVG 1.1//EN" "http://www.w3.org/Graphics/SVG/1.1/DTD/svg11.dtd">
<svg version="1.1" id="Foreground" xmlns="http://www.w3.org/2000/svg" xmlns:xlink="http://www.w3.org/1999/xlink" x="0px" y="0px"
	 width="506.652px" height="380.398px" viewBox="0 0 506.652 380.398" enable-background="new 0 0 506.652 380.398"
	 xml:space="preserve">
<g>
	<g>
		<path fill-rule="evenodd" clip-rule="evenodd" fill="#2C4295" d="M345.478,58.126c15.13,13.452,21.75,33.713,16.707,53.806
			c-0.868,4.817-3.074,9.052-5.358,13.287c8.982,19.596,6.146,45.918-8.512,61.779c-14.973,13.783-32.625,20.593-48.542,31.886
			c-8.827,3.821-16.628,15.03-26.794,10.296c-2.994-2.324-3.704-6.061-2.836-9.632c1.812-4.733,6.619-6.144,10.086-8.635
			l52.325-31.222c12.372-8.636,18.047-23.334,15.446-38.86c-1.261-5.979-3.941-11.46-7.881-16.275
			c6.776-9.799,10.717-22.004,7.565-34.875c-2.522-12.206-13.003-22.336-23.326-27.9l-69.347-43.51h-1.576l-57.054,34.209
			c-15.682,9.966-41.45,21.591-38.771,46.501c0.946,8.885,3.625,17.271,9.141,23.915c-8.117,10.379-11.111,26.322-5.989,39.194
			c3.862,12.122,15.209,19.596,25.218,25.242l46.651,27.901c2.601,2.408,3.389,6.061,2.521,9.632
			c-1.103,3.404-4.492,5.149-7.565,5.647l-4.728-1.33c-21.829-14.697-44.918-26.239-65.565-44.176
			c-14.105-14.697-18.203-38.361-11.032-57.792c1.568-5.583,2.303-4.735,2.303-5.37c0.002-1.201-2.61-1.836-3.879-11.237
			c-5.043-21.506,1.97-42.763,18.913-55.801L254.382,0l3.467,1.661L345.478,58.126z"/>
		<path fill-rule="evenodd" clip-rule="evenodd" fill="none" stroke="#2C4295" stroke-width="0" stroke-miterlimit="3.8637" d="
			M345.478,58.126c15.13,13.452,21.75,33.713,16.707,53.806c-0.868,4.817-3.074,9.052-5.358,13.287
			c8.982,19.596,6.146,45.918-8.512,61.779c-14.973,13.783-32.625,20.593-48.542,31.886c-8.827,3.821-16.628,15.03-26.794,10.296
			c-2.994-2.324-3.704-6.061-2.836-9.632c1.812-4.733,6.619-6.144,10.086-8.635l52.325-31.222
			c12.372-8.636,18.047-23.334,15.446-38.86c-1.261-5.979-3.941-11.46-7.881-16.275c6.776-9.799,10.717-22.004,7.565-34.875
			c-2.522-12.206-13.003-22.336-23.326-27.9l-69.347-43.51h-1.576l-57.054,34.209c-15.682,9.966-41.45,21.591-38.771,46.501
			c0.946,8.885,3.625,17.271,9.141,23.915c-8.117,10.379-11.111,26.322-5.989,39.194c3.862,12.122,15.209,19.596,25.218,25.242
			l46.651,27.901c2.601,2.408,3.389,6.061,2.521,9.632c-1.103,3.404-4.492,5.149-7.565,5.647l-4.728-1.33
			c-21.829-14.697-44.918-26.239-65.565-44.176c-14.105-14.697-18.203-38.361-11.032-57.792c1.568-5.583,2.303-4.735,2.303-5.37
			c0.002-1.201-2.61-1.836-3.879-11.237c-5.043-21.506,1.97-42.763,18.913-55.801L254.382,0l3.467,1.661L345.478,58.126z"/>
	</g>
	<g>
		<path fill-rule="evenodd" clip-rule="evenodd" fill="#2C4295" d="M330.348,74.733c8.668,8.221,12.136,19.181,10.402,31.553
			c-1.892,6.809-4.65,13.535-10.718,18.269c9.142,8.47,13.396,22.752,9.142,35.208c-1.892,6.061-6.463,11.542-11.663,15.61
			c-15.209,9.716-30.892,18.435-45.706,29.229c-2.995,0.83-6.305,0.166-8.51-1.992c-2.601-2.161-2.917-5.813-2.207-8.969
			l2.207-3.986c15.129-8.885,30.102-18.102,45.39-26.571c5.595-3.239,7.723-9.217,7.565-15.612
			c-2.443-11.292-14.657-16.108-22.696-22.252v-0.996c8.196-7.64,23.09-10.298,24.271-23.914c0.315-6.395-3.546-11.625-8.195-15.279
			l-57.684-36.868l-6.935-3.986l-58.944,35.54c-6.383,4.401-17.258,9.05-16.076,18.932c0.867,14.946,14.547,18.13,25.217,25.243
			c-9.141,7.556-27.66,8.967-25.217,25.906c0.709,4.234,3.546,8.138,6.935,10.629l46.337,28.896
			c1.813,2.408,2.994,5.481,2.206,8.636c-0.709,3.321-3.23,4.815-5.988,5.978c-4.571,1.33-7.881-2.49-11.664-4.318l-39.087-25.242
			c-8.273-6.145-13.79-15.86-13.554-26.905c0-9.797,3.704-17.934,10.087-24.91c-9.219-8.718-13.632-22.586-8.826-35.208
			c1.892-5.48,5.832-10.628,10.718-14.282c25.611-15.86,51.537-30.806,77.228-46.5l4.097,1.993L330.348,74.733z"/>
		<path fill-rule="evenodd" clip-rule="evenodd" fill="none" stroke="#2C4295" stroke-width="0" stroke-miterlimit="3.8637" d="
			M330.348,74.733c8.668,8.221,12.136,19.181,10.402,31.553c-1.892,6.809-4.65,13.535-10.718,18.269
			c9.142,8.47,13.396,22.752,9.142,35.208c-1.892,6.061-6.463,11.542-11.663,15.61c-15.209,9.716-30.892,18.435-45.706,29.229
			c-2.995,0.83-6.305,0.166-8.51-1.992c-2.601-2.161-2.917-5.813-2.207-8.969l2.207-3.986c15.129-8.885,30.102-18.102,45.39-26.571
			c5.595-3.239,7.723-9.217,7.565-15.612c-2.443-11.292-14.657-16.108-22.696-22.252v-0.996c8.196-7.64,23.09-10.298,24.271-23.914
			c0.315-6.395-3.546-11.625-8.195-15.279l-57.684-36.868l-6.935-3.986l-58.944,35.54c-6.383,4.401-17.258,9.05-16.076,18.932
			c0.867,14.946,14.547,18.13,25.217,25.243c-9.141,7.556-27.66,8.967-25.217,25.906c0.709,4.234,3.546,8.138,6.935,10.629
			l46.337,28.896c1.813,2.408,2.994,5.481,2.206,8.636c-0.709,3.321-3.23,4.815-5.988,5.978c-4.571,1.33-7.881-2.49-11.664-4.318
			l-39.087-25.242c-8.273-6.145-13.79-15.86-13.554-26.905c0-9.797,3.704-17.934,10.087-24.91
			c-9.219-8.718-13.632-22.586-8.826-35.208c1.892-5.48,5.832-10.628,10.718-14.282c25.611-15.86,51.537-30.806,77.228-46.5
			l4.097,1.993L330.348,74.733z"/>
	</g>
	<g>
		<ellipse fill-rule="evenodd" clip-rule="evenodd" fill="#86BC25" cx="254.221" cy="62.149" rx="8.229" ry="8.671"/>
		
			<ellipse fill-rule="evenodd" clip-rule="evenodd" fill="none" stroke="#86BC25" stroke-width="0.1429" stroke-miterlimit="3.8637" cx="254.221" cy="62.149" rx="8.229" ry="8.671"/>
	</g>
	<g>
		<path fill-rule="evenodd" clip-rule="evenodd" fill="#86BC25" d="M240.133,67.228c0.021,0.01-0.492-0.3-0.471-0.29
			c0.891,0.409,12.529,9.224,13.774,9.789c1.079-0.44,13.578-8.669,15.051-9.305c0.068-0.045,0.145-0.115,0.216-0.157l0,0
			c1.206-0.732,2.604-1.149,4.095-1.149c4.545,0,8.229,3.881,8.229,8.671c0,3.087-1.522,5.857-3.829,7.394l-22.815,13.811
			c-3.941-2.137-19.462-11.625-23.588-14.496l-0.066-0.038c-2.148-1.565-3.557-4.178-3.557-7.137c0-4.79,3.685-8.671,8.229-8.671
			C237.15,65.648,238.799,66.245,240.133,67.228z"/>
		<path fill-rule="evenodd" clip-rule="evenodd" fill="none" stroke="#86BC25" stroke-width="0" stroke-miterlimit="3.8637" d="
			M240.133,67.228c0.021,0.01-0.492-0.3-0.471-0.29c0.891,0.409,12.529,9.224,13.774,9.789c1.079-0.44,13.578-8.669,15.051-9.305
			c0.068-0.045,0.145-0.115,0.216-0.157l0,0c1.206-0.732,2.604-1.149,4.095-1.149c4.545,0,8.229,3.881,8.229,8.671
			c0,3.087-1.522,5.857-3.829,7.394l-22.815,13.811c-3.941-2.137-19.462-11.625-23.588-14.496l-0.066-0.038
			c-2.148-1.565-3.557-4.178-3.557-7.137c0-4.79,3.685-8.671,8.229-8.671C237.15,65.648,238.799,66.245,240.133,67.228z"/>
	</g>
	<g>
		<ellipse fill-rule="evenodd" clip-rule="evenodd" fill="#86BC25" cx="254.221" cy="110.939" rx="8.229" ry="8.67"/>
		
			<ellipse fill-rule="evenodd" clip-rule="evenodd" fill="none" stroke="#86BC25" stroke-width="0.1429" stroke-miterlimit="3.8637" cx="254.221" cy="110.939" rx="8.229" ry="8.67"/>
	</g>
	<g>
		<path fill-rule="evenodd" clip-rule="evenodd" fill="#86BC25" d="M240.133,116.019c0.021,0.01-0.492-0.3-0.471-0.291
			c0.891,0.409,12.529,9.224,13.774,9.788c1.079-0.439,13.578-8.668,15.051-9.304c0.068-0.045,0.145-0.115,0.216-0.159l0,0
			c1.206-0.73,2.604-1.147,4.095-1.147c4.545,0,8.229,3.881,8.229,8.67c0,3.089-1.522,5.859-3.829,7.396l-22.815,13.81
			c-3.941-2.136-19.462-11.625-23.588-14.496l-0.066-0.039c-2.148-1.564-3.557-4.178-3.557-7.138c0-4.789,3.685-8.67,8.229-8.67
			C237.15,114.439,238.799,115.036,240.133,116.019z"/>
		<path fill-rule="evenodd" clip-rule="evenodd" fill="none" stroke="#86BC25" stroke-width="0" stroke-miterlimit="3.8637" d="
			M240.133,116.019c0.021,0.01-0.492-0.3-0.471-0.291c0.891,0.409,12.529,9.224,13.774,9.788c1.079-0.439,13.578-8.668,15.051-9.304
			c0.068-0.045,0.145-0.115,0.216-0.159l0,0c1.206-0.73,2.604-1.147,4.095-1.147c4.545,0,8.229,3.881,8.229,8.67
			c0,3.089-1.522,5.859-3.829,7.396l-22.815,13.81c-3.941-2.136-19.462-11.625-23.588-14.496l-0.066-0.039
			c-2.148-1.564-3.557-4.178-3.557-7.138c0-4.789,3.685-8.67,8.229-8.67C237.15,114.439,238.799,115.036,240.133,116.019z"/>
	</g>
	<g>
		<ellipse fill-rule="evenodd" clip-rule="evenodd" fill="#86BC25" cx="214.943" cy="86.376" rx="8.229" ry="8.671"/>
		
			<ellipse fill-rule="evenodd" clip-rule="evenodd" fill="none" stroke="#86BC25" stroke-width="0.1429" stroke-miterlimit="3.8637" cx="214.943" cy="86.376" rx="8.229" ry="8.671"/>
	</g>
	<g>
		<path fill-rule="evenodd" clip-rule="evenodd" fill="#86BC25" d="M200.854,91.454c0.021,0.01-0.492-0.298-0.471-0.289
			c0.89,0.409,12.529,9.223,13.773,9.788c1.079-0.44,13.577-8.668,15.05-9.304c0.07-0.044,0.145-0.114,0.216-0.158l0,0
			c1.206-0.731,2.604-1.149,4.096-1.149c4.544,0,8.229,3.883,8.229,8.671c0,3.087-1.522,5.859-3.828,7.395l-22.816,13.809
			c-3.941-2.135-19.461-11.625-23.588-14.494l-0.066-0.039c-2.148-1.564-3.556-4.178-3.556-7.138c0-4.789,3.684-8.671,8.229-8.671
			C197.873,89.875,199.521,90.473,200.854,91.454z"/>
		<path fill-rule="evenodd" clip-rule="evenodd" fill="none" stroke="#86BC25" stroke-width="0" stroke-miterlimit="3.8637" d="
			M200.854,91.454c0.021,0.01-0.492-0.298-0.471-0.289c0.89,0.409,12.529,9.223,13.773,9.788c1.079-0.44,13.577-8.668,15.05-9.304
			c0.07-0.044,0.145-0.114,0.216-0.158l0,0c1.206-0.731,2.604-1.149,4.096-1.149c4.544,0,8.229,3.883,8.229,8.671
			c0,3.087-1.522,5.859-3.828,7.395l-22.816,13.809c-3.941-2.135-19.461-11.625-23.588-14.494l-0.066-0.039
			c-2.148-1.564-3.556-4.178-3.556-7.138c0-4.789,3.684-8.671,8.229-8.671C197.873,89.875,199.521,90.473,200.854,91.454z"/>
	</g>
	<g>
		<ellipse fill-rule="evenodd" clip-rule="evenodd" fill="#86BC25" cx="293.818" cy="86.376" rx="8.229" ry="8.671"/>
		
			<ellipse fill-rule="evenodd" clip-rule="evenodd" fill="none" stroke="#86BC25" stroke-width="0.1429" stroke-miterlimit="3.8637" cx="293.818" cy="86.376" rx="8.229" ry="8.671"/>
	</g>
	<g>
		<path fill-rule="evenodd" clip-rule="evenodd" fill="#86BC25" d="M279.729,91.454c0.022,0.01-0.492-0.298-0.47-0.289
			c0.89,0.409,12.528,9.223,13.773,9.788c1.079-0.44,13.577-8.668,15.051-9.304c0.068-0.044,0.145-0.114,0.215-0.158l0,0
			c1.206-0.731,2.604-1.149,4.096-1.149c4.545,0,8.229,3.883,8.229,8.671c0,3.087-1.521,5.859-3.828,7.395l-22.816,13.809
			c-3.941-2.135-19.462-11.625-23.587-14.494l-0.066-0.039c-2.149-1.564-3.557-4.178-3.557-7.138c0-4.789,3.685-8.671,8.229-8.671
			C276.749,89.875,278.396,90.473,279.729,91.454z"/>
		<path fill-rule="evenodd" clip-rule="evenodd" fill="none" stroke="#86BC25" stroke-width="0" stroke-miterlimit="3.8637" d="
			M279.729,91.454c0.022,0.01-0.492-0.298-0.47-0.289c0.89,0.409,12.528,9.223,13.773,9.788c1.079-0.44,13.577-8.668,15.051-9.304
			c0.068-0.044,0.145-0.114,0.215-0.158l0,0c1.206-0.731,2.604-1.149,4.096-1.149c4.545,0,8.229,3.883,8.229,8.671
			c0,3.087-1.521,5.859-3.828,7.395l-22.816,13.809c-3.941-2.135-19.462-11.625-23.587-14.494l-0.066-0.039
			c-2.149-1.564-3.557-4.178-3.557-7.138c0-4.789,3.685-8.671,8.229-8.671C276.749,89.875,278.396,90.473,279.729,91.454z"/>
	</g>
	<g>
		<ellipse fill-rule="evenodd" clip-rule="evenodd" fill="#86BC25" cx="214.943" cy="136.176" rx="8.229" ry="8.67"/>
		
			<ellipse fill-rule="evenodd" clip-rule="evenodd" fill="none" stroke="#86BC25" stroke-width="0.1429" stroke-miterlimit="3.8637" cx="214.943" cy="136.176" rx="8.229" ry="8.67"/>
	</g>
	<g>
		<path fill-rule="evenodd" clip-rule="evenodd" fill="#86BC25" d="M200.854,141.253c0.021,0.01-0.492-0.298-0.471-0.289
			c0.89,0.409,12.529,9.224,13.773,9.787c1.079-0.44,13.577-8.668,15.05-9.303c0.07-0.045,0.145-0.115,0.216-0.158l0,0
			c1.206-0.73,2.604-1.149,4.096-1.149c4.544,0,8.229,3.883,8.229,8.671c0,3.087-1.522,5.859-3.828,7.396l-22.816,13.809
			c-3.941-2.135-19.461-11.625-23.588-14.494l-0.066-0.038c-2.148-1.565-3.556-4.178-3.556-7.139c0-4.789,3.684-8.672,8.229-8.672
			C197.873,139.674,199.521,140.273,200.854,141.253z"/>
		<path fill-rule="evenodd" clip-rule="evenodd" fill="none" stroke="#86BC25" stroke-width="0" stroke-miterlimit="3.8637" d="
			M200.854,141.253c0.021,0.01-0.492-0.298-0.471-0.289c0.89,0.409,12.529,9.224,13.773,9.787c1.079-0.44,13.577-8.668,15.05-9.303
			c0.07-0.045,0.145-0.115,0.216-0.158l0,0c1.206-0.73,2.604-1.149,4.096-1.149c4.544,0,8.229,3.883,8.229,8.671
			c0,3.087-1.522,5.859-3.828,7.396l-22.816,13.809c-3.941-2.135-19.461-11.625-23.588-14.494l-0.066-0.038
			c-2.148-1.565-3.556-4.178-3.556-7.139c0-4.789,3.684-8.672,8.229-8.672C197.873,139.674,199.521,140.273,200.854,141.253z"/>
	</g>
	<g>
		<ellipse fill-rule="evenodd" clip-rule="evenodd" fill="#86BC25" cx="293.818" cy="136.176" rx="8.229" ry="8.67"/>
		
			<ellipse fill-rule="evenodd" clip-rule="evenodd" fill="none" stroke="#86BC25" stroke-width="0.1429" stroke-miterlimit="3.8637" cx="293.818" cy="136.176" rx="8.229" ry="8.67"/>
	</g>
	<g>
		<path fill-rule="evenodd" clip-rule="evenodd" fill="#86BC25" d="M279.729,141.253c0.022,0.01-0.492-0.298-0.47-0.289
			c0.89,0.409,12.528,9.224,13.773,9.787c1.079-0.44,13.577-8.668,15.051-9.303c0.068-0.045,0.145-0.115,0.215-0.158l0,0
			c1.206-0.73,2.604-1.149,4.096-1.149c4.545,0,8.229,3.883,8.229,8.671c0,3.087-1.521,5.859-3.828,7.396l-22.816,13.809
			c-3.941-2.135-19.462-11.625-23.587-14.494l-0.066-0.038c-2.149-1.565-3.557-4.178-3.557-7.139c0-4.789,3.685-8.672,8.229-8.672
			C276.749,139.674,278.396,140.273,279.729,141.253z"/>
		<path fill-rule="evenodd" clip-rule="evenodd" fill="none" stroke="#86BC25" stroke-width="0" stroke-miterlimit="3.8637" d="
			M279.729,141.253c0.022,0.01-0.492-0.298-0.47-0.289c0.89,0.409,12.528,9.224,13.773,9.787c1.079-0.44,13.577-8.668,15.051-9.303
			c0.068-0.045,0.145-0.115,0.215-0.158l0,0c1.206-0.73,2.604-1.149,4.096-1.149c4.545,0,8.229,3.883,8.229,8.671
			c0,3.087-1.521,5.859-3.828,7.396l-22.816,13.809c-3.941-2.135-19.462-11.625-23.587-14.494l-0.066-0.038
			c-2.149-1.565-3.557-4.178-3.557-7.139c0-4.789,3.685-8.672,8.229-8.672C276.749,139.674,278.396,140.273,279.729,141.253z"/>
	</g>
	<g>
		<ellipse fill-rule="evenodd" clip-rule="evenodd" fill="#86BC25" cx="253.326" cy="161.413" rx="8.229" ry="8.67"/>
		
			<ellipse fill-rule="evenodd" clip-rule="evenodd" fill="none" stroke="#86BC25" stroke-width="0.1429" stroke-miterlimit="3.8637" cx="253.326" cy="161.413" rx="8.229" ry="8.67"/>
	</g>
	<g>
		<path fill-rule="evenodd" clip-rule="evenodd" fill="#86BC25" d="M264.156,187.778l-0.032,41.472
			c0,7.039-5.446,12.745-12.126,12.745s-12.073-5.713-12.073-12.751c-0.116-2.853-0.075-41.404-0.075-41.404
			c-4.214-2.602-8.035-5.833-9.83-7.082l-0.065-0.038c-2.149-1.565-3.556-4.177-3.556-7.137c0-4.789,3.684-8.671,8.228-8.671
			c1.75,0,3.398,0.599,4.733,1.58c0.021,0.01-0.493-0.301-0.471-0.291c0.89,0.409,12.528,9.226,13.773,9.789
			c1.08-0.44,13.578-8.668,15.05-9.303c0.069-0.045,0.146-0.115,0.215-0.159l0,0c1.206-0.73,2.605-1.149,4.097-1.149
			c4.544,0,8.229,3.883,8.229,8.671c0,3.087-1.522,5.858-3.829,7.394L264.156,187.778z"/>
		<path fill-rule="evenodd" clip-rule="evenodd" fill="none" stroke="#86BC25" stroke-width="0" stroke-miterlimit="3.8637" d="
			M264.156,187.778l-0.032,41.472c0,7.039-5.446,12.745-12.126,12.745s-12.073-5.713-12.073-12.751
			c-0.116-2.853-0.075-41.404-0.075-41.404c-4.214-2.602-8.035-5.833-9.83-7.082l-0.065-0.038c-2.149-1.565-3.556-4.177-3.556-7.137
			c0-4.789,3.684-8.671,8.228-8.671c1.75,0,3.398,0.599,4.733,1.58c0.021,0.01-0.493-0.301-0.471-0.291
			c0.89,0.409,12.528,9.226,13.773,9.789c1.08-0.44,13.578-8.668,15.05-9.303c0.069-0.045,0.146-0.115,0.215-0.159l0,0
			c1.206-0.73,2.605-1.149,4.097-1.149c4.544,0,8.229,3.883,8.229,8.671c0,3.087-1.522,5.858-3.829,7.394L264.156,187.778z"/>
	</g>
</g>
<g>
	<g>
		<path fill-rule="evenodd" clip-rule="evenodd" fill="#2C4295" d="M303.577,331.174v3.388h-6.323v-3.388H303.577z M297.254,335.75
			h6.323v44.219h-6.323V335.75z M0,332.255h44.022c9.678,0,14.517,3.982,14.517,11.946c0,3.673-0.624,6.2-1.874,7.583
			c-1.248,1.336-3.875,2.313-7.883,2.933c4.476,0.191,7.52,1.097,9.132,2.719c1.612,1.621,2.42,4.506,2.42,8.656
			c0,5.15-1.405,8.798-4.215,10.945c-2.602,1.955-6.868,2.932-12.801,2.932H0V332.255z M6.323,375.177H42.07
			c4.059,0,6.92-0.501,8.585-1.503c2.082-1.24,3.123-3.481,3.123-6.724c0-4.388-1.067-7.13-3.2-8.227
			c-1.614-0.81-4.215-1.216-7.806-1.216H6.323V375.177z M6.323,352.714h35.202c3.695,0,6.296-0.524,7.805-1.574
			c1.77-1.144,2.653-3.29,2.653-6.438c0-3.004-0.806-5.055-2.418-6.152c-1.353-0.954-3.721-1.431-7.103-1.431H6.323V352.714z
			 M71.808,337.119v15.738h43.63v4.793h-43.63v17.527h45.816v4.792H65.485v-47.714h51.593v4.864H71.808z M236.339,375.177h35.125
			c7.233,0,11.916-1.765,14.049-5.294c1.405-2.337,2.107-7.13,2.107-14.379c0-6.724-0.754-11.231-2.263-13.52
			c-2.082-3.243-6.504-4.865-13.269-4.865h-35.749V375.177z M230.018,332.327h43.475c8.43,0,14.127,1.979,17.094,5.937
			c2.394,3.195,3.589,8.918,3.589,17.169c0,10.253-1.821,17.073-5.463,20.459c-1.926,1.765-4.605,2.957-8.039,3.577
			c-2.082,0.334-5.177,0.5-9.289,0.5h-41.368V332.327z M129.41,375.177h41.133v4.792h-47.456v-47.714h6.323V375.177z
			 M178.66,337.119v15.738h43.63v4.793h-43.63v17.527h45.816v4.792h-52.139v-47.714h51.593v4.864H178.66z M338.198,354.646
			l24.275-22.391h8.975l-30.05,27.398v20.316h-6.321v-20.316l-29.971-27.398h8.974L338.198,354.646z M500.57,331.174v3.388h-6.323
			v-3.388H500.57z M494.247,335.75h6.323v44.219h-6.323V335.75z M379.355,337.119v15.738h43.63v4.793h-43.63v17.527h45.816v4.792
			h-52.139v-47.714h51.593v4.864H379.355z M487.613,345.489h-6.323c0-3.767-1.066-6.104-3.2-7.01
			c-2.498-1.097-8.169-1.646-17.016-1.646h-2.186c-9.313,0-15.688,0.692-19.123,2.075c-2.289,0.906-3.435,3.124-3.435,6.653
			c0,2.861,0.963,4.864,2.888,6.009c1.458,0.858,3.903,1.359,7.337,1.502c2.081,0.095,3.98,0.143,5.698,0.143l6.166-0.072h6.088
			c4.318,0,7.936,0.144,10.849,0.43c4.944,0.477,8.43,1.645,10.459,3.505c2.082,1.86,3.123,4.984,3.123,9.371
			c0,5.962-2.315,9.896-6.947,11.804c-3.486,1.43-9.86,2.145-19.123,2.145h-4.138c-6.556,0-11.837-0.239-15.844-0.715
			c-5.308-0.62-8.846-1.979-10.615-4.077c-1.665-1.956-2.499-5.461-2.499-10.516h6.323v1.002c0,2.384,0.208,4.053,0.624,5.007
			c0.624,1.478,1.952,2.48,3.98,3.005c3.279,0.858,9.394,1.287,18.343,1.287c5.205,0,10.121-0.262,14.752-0.787
			c3.07-0.334,5.256-1.097,6.557-2.289c1.353-1.192,2.029-3.147,2.029-5.866c0-3.386-1.015-5.627-3.044-6.724
			c-1.405-0.763-4.215-1.169-8.43-1.216l-11.942-0.143c-3.123-0.048-7.78-0.167-13.971-0.358c-5.048-0.286-8.716-1.145-11.006-2.575
			c-2.862-1.765-4.292-4.674-4.292-8.728c0-6.82,2.653-11.136,7.961-12.948c3.902-1.335,11.11-2.003,21.62-2.003
			c5.776,0,10.901,0.215,15.377,0.644c4.527,0.429,7.804,1.693,9.834,3.791C486.572,338.24,487.613,341.34,487.613,345.489z"/>
	</g>
	<g>
		<path fill-rule="evenodd" clip-rule="evenodd" fill="#2C4295" d="M319.251,264.158v21.382h7.712l20.391-21.382h20.762
			l-28.326,28.111l31.44,28.706h-22.097l-22.171-21.637h-7.712v21.637h-15.052v-56.817H319.251z M117.182,298.914l-11.451-22.489
			L94.28,298.914H117.182z M122.106,310.669H88.817l-5.097,10.306H66.265l28.731-56.817h21.163l28.114,56.817h-17.301
			L122.106,310.669z M0,320.975v-56.817h50.687c5.338,0,9.315,0.995,11.931,2.982c3.043,2.328,4.565,6.218,4.565,11.67
			c0,4.998-1.068,8.461-3.204,10.393c-1.175,1.079-3.229,2.016-6.166,2.81c4.324,0.738,7.233,1.846,8.729,3.322
			c1.814,1.761,2.723,4.856,2.723,9.286c0,6.247-1.548,10.619-4.645,13.118c-2.669,2.158-7.046,3.236-13.132,3.236H0z
			 M16.255,308.114h29.548c2.349,0,4.029-0.285,5.044-0.853c1.388-0.794,2.082-2.356,2.082-4.685c0-2.044-0.72-3.408-2.162-4.089
			c-1.014-0.511-2.589-0.767-4.725-0.767H16.255V308.114z M16.255,286.476h28.026c2.135,0,3.656-0.255,4.564-0.766
			c1.282-0.795,1.922-2.243,1.922-4.345c0-3.179-2.055-4.77-6.166-4.77H16.255V286.476z M252.459,292.609h25.35
			c3.502,0,5.711-0.54,6.624-1.618c0.863-0.909,1.268-3.011,1.218-6.304c0-1.817-0.152-3.124-0.458-3.917
			c-0.406-1.136-1.269-1.903-2.588-2.301c-1.065-0.34-2.537-0.511-4.416-0.511h-25.731V292.609z M237.005,320.975v-56.817h47.276
			c6.09,0,10.405,1.278,12.942,3.833c2.69,2.726,4.035,7.44,4.035,14.141c0,5.281-0.711,9.171-2.131,11.671
			c-0.863,1.475-2.183,2.64-3.959,3.491c-0.152,0.114-1.777,0.738-4.873,1.874c3.554,0.511,6.09,1.477,7.614,2.897
			c1.827,1.647,2.74,4.315,2.74,8.007v10.903h-15.682v-5.451c0-3.521-0.305-5.821-0.915-6.899c-0.862-1.477-2.791-2.215-5.785-2.215
			h-25.808v14.565H237.005z M161.548,264.158v21.382h7.712l20.391-21.382h20.762l-28.325,28.111l31.44,28.706H191.43l-22.17-21.637
			h-7.712v21.637h-15.053v-56.817H161.548z M384.025,291.843v2.3c0,5.111,0.493,8.462,1.478,10.052
			c1.245,1.987,4.071,3.066,8.479,3.236c3.267,0.114,6.093,0.17,8.479,0.17l4.045-0.084h4.045c4.356,0,7.312-0.426,8.868-1.278
			c2.281-1.306,3.5-4.003,3.656-8.093c0.103-2.555,0.155-5.111,0.155-7.666c0-5.793-0.777-9.456-2.333-10.99
			c-1.296-1.305-4.408-1.959-9.334-1.959c-8.142,0-13.379,0.029-15.712,0.086c-3.786,0.113-6.275,0.425-7.468,0.937
			c-2.334,0.964-3.708,3.179-4.123,6.644C384.104,286.562,384.025,288.776,384.025,291.843z M368.079,291.758
			c0-8.008,0.467-13.687,1.4-17.038c1.088-4.032,3.241-6.813,6.456-8.347c2.847-1.358,7.195-2.181,13.048-2.47l0,3.506h12.231
			v-3.817l1.324-0.031l3.501,0.024v3.824h12.23v-3.677c7.533,0.379,12.764,1.998,15.693,4.855
			c3.474,3.464,5.212,10.193,5.212,20.189v2.726c0,8.177-0.389,13.913-1.167,17.207c-1.038,4.373-3.267,7.524-6.69,9.456
			c-3.423,1.875-8.972,2.895-16.646,3.065l-11.901,0.256l-4.978,0.084c-3.579,0-7.156-0.142-10.735-0.425
			c-6.12-0.511-10.605-2.072-13.457-4.685c-3.319-2.953-5.107-7.695-5.367-14.225C368.131,299.679,368.079,296.188,368.079,291.758z
			 M234.459,264.158v56.817h-16.255v-56.817H234.459z M470.952,287.583l16.73-23.425h18.97l-28.008,37.055v19.762h-15.236v-19.762
			l-28.456-37.055h19.12L470.952,287.583z M417.17,266.308v-7.503h-10.029v7.503H417.17z M400.114,266.308v-7.503h-10.029v7.503
			H400.114z"/>
	</g>
</g>
</svg>
