<?xml version="1.0" encoding="utf-8"?>
<!-- Generator: Adobe Illustrator 16.0.0, SVG Export Plug-In . SVG Version: 6.00 Build 0)  -->
<!DOCTYPE svg PUBLIC "-//W3C//DTD SVG 1.1//EN" "http://www.w3.org/Graphics/SVG/1.1/DTD/svg11.dtd">
<svg version="1.1" id="Layer_1" xmlns="http://www.w3.org/2000/svg" xmlns:xlink="http://www.w3.org/1999/xlink" x="0px" y="0px"
	 width="760px" height="260.938px" viewBox="0 0 760 260.938" enable-background="new 0 0 760 260.938" xml:space="preserve">
<rect x="255.261" y="15.952" fill-rule="evenodd" clip-rule="evenodd" fill="#FFFFFF" width="493.006" height="233.767"/>
<rect x="19.815" y="19.814" fill="#2BA5DE" width="221.007" height="221.313"/>
<g>
	<path fill-rule="evenodd" clip-rule="evenodd" d="M320.504,198.144v13.007h11.146c5.132,0,7.698-2.081,7.698-6.237
		c0-4.516-2.5-6.77-7.498-6.77H320.504z M310.086,219.246v-47.38h22.295c10.087,0,15.128,3.917,15.128,11.747
		c0,4.51-2.143,7.806-6.437,9.886c5.793,1.682,8.695,5.688,8.695,12.012c0,4.51-1.727,8.006-5.177,10.483
		c-3.009,2.166-6.858,3.252-11.549,3.252H310.086z M320.504,179.96v11.083h10.55c4.248,0,6.37-1.882,6.37-5.641
		c0-3.628-2.389-5.442-7.166-5.442H320.504z"/>
	<polygon fill-rule="evenodd" clip-rule="evenodd" points="356.801,219.246 356.801,171.866 392.235,171.866 392.235,180.625 
		367.219,180.625 367.219,190.779 390.178,190.779 390.178,198.873 367.219,198.873 367.219,210.485 392.767,210.485 
		392.767,219.246 	"/>
	<polygon fill-rule="evenodd" clip-rule="evenodd" points="399.801,219.246 399.801,171.866 410.218,171.866 410.218,210.485 
		433.311,210.485 433.311,219.246 	"/>
	<polygon fill-rule="evenodd" clip-rule="evenodd" points="439.147,219.246 439.147,171.866 474.584,171.866 474.584,180.625 
		449.566,180.625 449.566,190.779 472.526,190.779 472.526,198.873 449.566,198.873 449.566,210.485 475.115,210.485 
		475.115,219.246 	"/>
	<path fill-rule="evenodd" clip-rule="evenodd" d="M482.147,219.246v-47.38h20.439c6.413,0,11.522,1.947,15.328,5.84
		c4.113,4.115,6.17,9.977,6.17,17.586c0,7.165-1.768,12.872-5.309,17.12c-3.804,4.556-9.2,6.834-16.189,6.834H482.147z
		 M492.563,180.625v29.859h9.293c3.362,0,6.082-1.062,8.162-3.186c2.433-2.478,3.648-6.147,3.648-11.012
		c0-5.089-0.975-8.895-2.92-11.414c-2.211-2.833-5.795-4.248-10.75-4.248H492.563z"/>
	<path fill-rule="evenodd" clip-rule="evenodd" d="M541.736,219.246h-10.418v-47.38h10.418V219.246z M541.007,166.294h-8.96v-7.767
		h8.96V166.294z"/>
	<polygon fill-rule="evenodd" clip-rule="evenodd" points="563.172,219.246 563.172,200.797 545.72,171.866 557.463,171.866 
		568.546,190.58 579.557,171.866 591.173,171.866 573.587,201.065 573.587,219.246 	"/>
	<polygon fill-rule="evenodd" clip-rule="evenodd" points="595.151,219.246 595.151,171.866 630.589,171.866 630.589,180.625 
		605.573,180.625 605.573,190.779 628.529,190.779 628.529,198.873 605.573,198.873 605.573,210.485 631.117,210.485 
		631.117,219.246 	"/>
	<path fill-rule="evenodd" clip-rule="evenodd" d="M635.167,203.518h10.085c0,2.965,1.062,5.22,3.186,6.771
		c1.813,1.324,4.248,1.99,7.298,1.99c2.391,0,4.38-0.378,5.973-1.128c2.17-1.019,3.25-2.611,3.25-4.778
		c0-2.698-2.433-4.732-7.296-6.106c-8.405-2.386-12.938-3.762-13.604-4.111c-4.865-2.348-7.299-6.042-7.299-11.083
		c0-4.558,1.879-8.163,5.638-10.817c3.363-2.344,7.39-3.517,12.08-3.517c5.438,0,9.841,1.173,13.204,3.517
		c3.848,2.697,5.771,6.614,5.771,11.746h-10.085c-0.265-4.779-3.385-7.168-9.356-7.168c-1.901,0-3.518,0.4-4.843,1.196
		c-1.552,0.973-2.324,2.367-2.324,4.179c0,1.726,0.861,2.989,2.589,3.782c1.327,0.622,5.175,1.749,11.546,3.386
		c3.717,0.928,6.482,1.988,8.295,3.186c3.848,2.478,5.771,6.016,5.771,10.616c0,4.511-1.682,8.141-5.041,10.883
		c-3.54,2.875-8.429,4.313-14.666,4.313c-5.706,0-10.395-1.349-14.068-4.048C637.156,213.272,635.123,209.004,635.167,203.518z"/>
	<path fill-rule="evenodd" clip-rule="evenodd" d="M691.635,219.246h-10.416v-47.38h10.416V219.246z M690.906,166.294h-8.959v-7.767
		h8.959V166.294z"/>
</g>
<g>
	<polygon fill-rule="evenodd" clip-rule="evenodd" points="311.115,98.123 311.115,50.745 321.533,50.745 321.533,70.386 
		340.048,50.745 353.052,50.745 334.542,69.458 354.844,98.123 341.771,98.123 327.505,76.823 321.533,82.862 321.533,98.123 	"/>
	<path fill-rule="evenodd" clip-rule="evenodd" d="M353.983,98.123l17.979-47.378h10.684l17.717,47.378h-10.816l-3.581-10.55
		h-17.717l-3.716,10.55H353.983z M377.14,62.423l-6.17,17.388h12.272l-5.97-17.388H377.14z"/>
	<path fill-rule="evenodd" clip-rule="evenodd" d="M404.48,98.123V50.745h20.436c6.413,0,11.523,1.947,15.328,5.84
		c4.114,4.113,6.173,9.976,6.173,17.584c0,7.167-1.771,12.874-5.31,17.119c-3.806,4.558-9.2,6.835-16.191,6.835H404.48z
		 M414.898,59.504v29.861h9.287c3.362,0,6.083-1.062,8.164-3.186c2.432-2.478,3.648-6.148,3.648-11.015
		c0-5.087-0.974-8.892-2.92-11.412c-2.213-2.832-5.794-4.248-10.75-4.248H414.898z"/>
	<rect x="453.649" y="50.745" fill-rule="evenodd" clip-rule="evenodd" width="10.419" height="47.378"/>
	<polygon fill-rule="evenodd" clip-rule="evenodd" points="473.226,98.123 473.226,50.745 483.643,50.745 483.643,70.386 
		502.156,50.745 515.162,50.745 496.648,69.458 516.954,98.123 503.881,98.123 489.614,76.823 483.643,82.862 483.643,98.123 	"/>
	<path fill-rule="evenodd" clip-rule="evenodd" d="M519.075,74.634c0-7.257,2.057-13.183,6.174-17.784
		c4.244-4.821,9.95-7.233,17.117-7.233c7.168,0,12.873,2.412,17.121,7.233c4.113,4.602,6.172,10.527,6.172,17.784
		c0,7.078-2.059,12.895-6.172,17.452c-4.29,4.776-10,7.166-17.121,7.166s-12.826-2.389-17.117-7.166
		C521.132,87.529,519.075,81.712,519.075,74.634z M529.493,74.634c0,4.423,0.973,8.051,2.92,10.882
		c2.3,3.317,5.618,4.977,9.953,4.977c4.337,0,7.653-1.66,9.955-4.977c1.945-2.832,2.918-6.459,2.918-10.882
		c0-4.602-0.973-8.34-2.918-11.215c-2.257-3.36-5.576-5.043-9.955-5.043s-7.697,1.683-9.953,5.043
		C530.466,66.294,529.493,70.033,529.493,74.634z M544.756,45.437v-7.764h8.959v7.764H544.756z M531.086,45.437v-7.764h8.957v7.764
		H531.086z"/>
	<polygon fill-rule="evenodd" clip-rule="evenodd" points="585.033,98.123 585.033,79.676 567.585,50.745 579.328,50.745 
		590.41,69.458 601.424,50.745 613.038,50.745 595.453,79.942 595.453,98.123 	"/>
</g>
<path fill-rule="evenodd" clip-rule="evenodd" d="M77.494,213.183c-6.676-1.115-13.696-13.281-15.642-21.903
	c-1.948-8.623-1.366-54.734-1.366-63.083c0-8.346,0.975-57.806,11.457-82.755C76.88,33.69,84.631,55.945,88.987,91.888
	c4.174,34.418,9.661,97.005,2.717,109.669C84.76,214.222,77.494,213.183,77.494,213.183z M99.714,139.124
	c-16.387-14.387,27.652-66.969,33.665-72.558c6.01-5.589,14.459-14.592,22.644-20.215c3.869-2.658,7.439-4.768,11.66-3.39
	c3.221,1.05-1.048,14.757-3.008,19.296c-5.461,12.642-21.235,36.202-29.336,46.479C127.235,119.013,109.298,147.537,99.714,139.124z
	 M102.861,148.474c-4.788,5.436-3.688,13.588-0.597,18.564c2.251,3.622,8.651,8.32,12.618,10.526
	c3.967,2.203,27.333,15.281,49.08,22.778c21.75,7.491,44.086,12.341,58.192,14.399s-30.426-31.039-57.464-43.968
	C137.655,157.84,111.437,138.736,102.861,148.474z"/>
<path d="M240.823,241.127V19.814H19.815v221.313H240.823z M260.635,141.977v99.15h479.551v-99.15H260.635z M260.635,19.814v102.348
	h479.551V19.814H260.635z M240.823,0h19.812h479.551H760v19.814v221.31v19.707L0,260.938v-19.814V19.814V0h19.815H240.823z"/>
</svg>
