<?xml version="1.0" encoding="utf-8"?>
<!-- Generator: Adobe Illustrator 16.0.0, SVG Export Plug-In . SVG Version: 6.00 Build 0)  -->
<!DOCTYPE svg PUBLIC "-//W3C//DTD SVG 1.1//EN" "http://www.w3.org/Graphics/SVG/1.1/DTD/svg11.dtd">
<svg version="1.1" id="Layer_1" xmlns="http://www.w3.org/2000/svg" xmlns:xlink="http://www.w3.org/1999/xlink" x="0px" y="0px"
	 width="110.401px" height="131.178px" viewBox="0 0 110.401 131.178" enable-background="new 0 0 110.401 131.178"
	 xml:space="preserve">
<path fill-rule="evenodd" clip-rule="evenodd" fill="#00427D" d="M9.954,116.015c0.297,0,0.603-0.009,0.916-0.025
	c0.314-0.033,0.62-0.091,0.917-0.174c0.297-0.082,0.578-0.198,0.843-0.346c0.28-0.149,0.52-0.356,0.718-0.62
	c0.347-0.396,0.52-0.875,0.52-1.438c0-0.132-0.024-0.313-0.074-0.545c-0.033-0.248-0.157-0.504-0.372-0.768
	c-0.181-0.248-0.396-0.431-0.644-0.545c-0.231-0.132-0.479-0.224-0.743-0.273c-0.248-0.065-0.512-0.099-0.793-0.099
	c-0.281,0-0.553,0-0.818,0H8.616v6.714L9.954,116.015 M9.954,123.894c0.347,0,0.693,0,1.04,0c0.347-0.018,0.678-0.059,0.991-0.124
	c0.331-0.066,0.645-0.174,0.942-0.323c0.314-0.147,0.594-0.371,0.842-0.668c0.298-0.347,0.479-0.694,0.545-1.041
	c0.066-0.347,0.1-0.603,0.1-0.768c0-0.413-0.066-0.752-0.199-1.017c-0.132-0.264-0.247-0.454-0.347-0.569
	c-0.248-0.298-0.545-0.529-0.891-0.694c-0.331-0.165-0.686-0.28-1.066-0.346c-0.363-0.067-0.735-0.108-1.115-0.124
	c-0.38-0.018-0.743-0.025-1.09-0.025h-1.09v5.699H9.954z M5.469,126.271v-17.492h6.615c0.149,0.016,0.389,0.041,0.719,0.074
	c0.331,0.016,0.694,0.083,1.09,0.198c0.397,0.115,0.793,0.297,1.189,0.545c0.413,0.23,0.785,0.569,1.115,1.016
	c0.38,0.512,0.612,0.999,0.694,1.462c0.083,0.446,0.124,0.785,0.124,1.017c0,0.182-0.016,0.404-0.049,0.669
	c-0.034,0.264-0.116,0.545-0.248,0.842c-0.116,0.297-0.289,0.603-0.521,0.917c-0.231,0.297-0.545,0.578-0.941,0.842
	c-0.281,0.182-0.562,0.331-0.842,0.446c-0.265,0.1-0.438,0.166-0.521,0.199c0.314,0.065,0.62,0.147,0.917,0.246
	c0.297,0.083,0.586,0.199,0.867,0.348c0.628,0.38,1.115,0.892,1.462,1.536c0.363,0.645,0.545,1.338,0.545,2.082
	c0,0.23-0.041,0.594-0.124,1.09c-0.082,0.479-0.297,0.982-0.644,1.511c-0.413,0.644-0.9,1.132-1.462,1.462
	c-0.545,0.331-1.09,0.57-1.635,0.719s-1.041,0.231-1.487,0.247c-0.429,0.018-0.743,0.025-0.941,0.025H5.469z"/>
<path fill-rule="evenodd" clip-rule="evenodd" fill="#00427D" d="M27.272,118.491c-0.016-0.082-0.033-0.239-0.049-0.47
	c-0.017-0.232-0.066-0.471-0.149-0.719c-0.198-0.529-0.504-0.926-0.917-1.189c-0.413-0.281-0.883-0.421-1.412-0.421
	c-0.429,0-0.801,0.091-1.115,0.272c-0.297,0.164-0.545,0.363-0.743,0.595c-0.198,0.214-0.356,0.437-0.471,0.669
	c-0.099,0.215-0.165,0.372-0.198,0.471c-0.083,0.165-0.132,0.297-0.149,0.396c-0.017,0.083-0.041,0.215-0.074,0.396H27.272
	 M21.945,120.325c0.017,0.132,0.042,0.38,0.075,0.743c0.032,0.364,0.132,0.735,0.297,1.115c0.099,0.264,0.248,0.528,0.446,0.793
	c0.198,0.264,0.454,0.512,0.768,0.743c0.314,0.215,0.702,0.396,1.164,0.545c0.463,0.133,1.008,0.198,1.636,0.198
	c0.826,0,1.544-0.1,2.155-0.298c0.628-0.197,1.074-0.354,1.338-0.47l-1.437,2.478c-0.264,0.065-0.644,0.148-1.14,0.247
	c-0.479,0.1-1.065,0.148-1.759,0.148c-0.148,0-0.413-0.008-0.793-0.025c-0.379-0.016-0.809-0.082-1.288-0.197
	c-0.462-0.115-0.95-0.288-1.462-0.521c-0.512-0.248-0.983-0.586-1.412-1.015c-0.182-0.183-0.372-0.405-0.57-0.67
	c-0.198-0.28-0.388-0.611-0.57-0.99c-0.165-0.397-0.305-0.835-0.421-1.313c-0.099-0.495-0.149-1.05-0.149-1.66
	c0-0.215,0.017-0.562,0.05-1.04c0.049-0.496,0.173-1.025,0.372-1.586c0.099-0.299,0.272-0.661,0.52-1.091s0.586-0.843,1.016-1.238
	c0.429-0.413,0.966-0.761,1.61-1.041c0.644-0.297,1.421-0.446,2.329-0.446c0.199,0,0.471,0.017,0.818,0.05
	c0.363,0.033,0.751,0.115,1.164,0.248c0.43,0.132,0.859,0.346,1.289,0.645c0.429,0.279,0.817,0.677,1.164,1.188
	c0.463,0.694,0.752,1.412,0.867,2.156c0.116,0.743,0.182,1.511,0.199,2.304H21.945z"/>
<rect x="31.733" y="108.779" fill="#00427D" width="2.898" height="17.492"/>
<path fill-rule="evenodd" clip-rule="evenodd" fill="#00427D" d="M44.839,118.491c-0.016-0.082-0.033-0.239-0.049-0.47
	c-0.017-0.232-0.066-0.471-0.149-0.719c-0.198-0.529-0.504-0.926-0.917-1.189c-0.413-0.281-0.884-0.421-1.412-0.421
	c-0.43,0-0.801,0.091-1.115,0.272c-0.298,0.164-0.545,0.363-0.743,0.595c-0.198,0.214-0.356,0.437-0.471,0.669
	c-0.099,0.215-0.165,0.372-0.198,0.471c-0.083,0.165-0.132,0.297-0.149,0.396c-0.017,0.083-0.041,0.215-0.074,0.396H44.839
	 M39.512,120.325c0.017,0.132,0.042,0.38,0.074,0.743c0.033,0.364,0.133,0.735,0.298,1.115c0.099,0.264,0.248,0.528,0.446,0.793
	c0.198,0.264,0.454,0.512,0.768,0.743c0.314,0.215,0.702,0.396,1.164,0.545c0.463,0.133,1.008,0.198,1.636,0.198
	c0.826,0,1.544-0.1,2.155-0.298c0.628-0.197,1.074-0.354,1.338-0.47l-1.437,2.478c-0.264,0.065-0.644,0.148-1.14,0.247
	c-0.479,0.1-1.065,0.148-1.759,0.148c-0.148,0-0.413-0.008-0.793-0.025c-0.38-0.016-0.809-0.082-1.288-0.197
	c-0.462-0.115-0.95-0.288-1.462-0.521c-0.512-0.248-0.983-0.586-1.412-1.015c-0.182-0.183-0.372-0.405-0.57-0.67
	c-0.198-0.28-0.388-0.611-0.57-0.99c-0.165-0.397-0.305-0.835-0.421-1.313c-0.099-0.495-0.149-1.05-0.149-1.66
	c0-0.215,0.017-0.562,0.05-1.04c0.049-0.496,0.173-1.025,0.371-1.586c0.099-0.299,0.273-0.661,0.521-1.091
	c0.248-0.43,0.586-0.843,1.016-1.238c0.429-0.413,0.966-0.761,1.61-1.041c0.644-0.297,1.42-0.446,2.329-0.446
	c0.198,0,0.471,0.017,0.818,0.05c0.363,0.033,0.751,0.115,1.164,0.248c0.43,0.132,0.859,0.346,1.289,0.645
	c0.429,0.279,0.817,0.677,1.164,1.188c0.463,0.694,0.752,1.412,0.867,2.156c0.116,0.743,0.182,1.511,0.198,2.304H39.512z"/>
<path fill-rule="evenodd" clip-rule="evenodd" fill="#00427D" d="M58.021,116.658c-0.198-0.132-0.504-0.281-0.916-0.446
	c-0.397-0.182-0.894-0.272-1.487-0.272c-0.413,0-0.785,0.058-1.115,0.174c-0.313,0.115-0.587,0.264-0.817,0.445
	c-0.231,0.166-0.421,0.339-0.57,0.521c-0.147,0.183-0.264,0.33-0.346,0.446c-0.166,0.281-0.298,0.57-0.397,0.867
	c-0.082,0.297-0.148,0.587-0.198,0.867c-0.032,0.265-0.058,0.504-0.074,0.719c0,0.198,0,0.33,0,0.396
	c0,0.166,0.009,0.413,0.024,0.744c0.033,0.313,0.116,0.668,0.248,1.065c0.281,0.727,0.702,1.279,1.265,1.66
	c0.561,0.362,1.222,0.545,1.981,0.545c0.578,0,1.073-0.074,1.487-0.224c0.429-0.165,0.734-0.289,0.916-0.371V116.658
	 M58.021,126.271v-2.056l-1.412,2.056c-0.446,0.148-0.811,0.23-1.09,0.248c-0.266,0.033-0.513,0.049-0.744,0.049
	s-0.562-0.025-0.991-0.074c-0.429-0.033-0.908-0.157-1.437-0.372c-0.792-0.33-1.412-0.775-1.858-1.338
	c-0.446-0.561-0.776-1.131-0.991-1.709c-0.215-0.595-0.347-1.14-0.396-1.635c-0.05-0.512-0.075-0.876-0.075-1.091
	c0-0.231,0.025-0.619,0.075-1.164c0.049-0.545,0.206-1.132,0.47-1.759c0.099-0.265,0.273-0.604,0.521-1.017
	c0.247-0.43,0.586-0.842,1.015-1.238c0.43-0.396,0.95-0.735,1.561-1.017c0.628-0.28,1.38-0.421,2.255-0.421
	c0.43,0,0.859,0.042,1.288,0.124c0.431,0.066,0.835,0.19,1.216,0.372c0.114,0.033,0.222,0.082,0.321,0.147
	c0.1,0.051,0.19,0.1,0.272,0.149v-5.748h2.949v17.492H58.021z"/>
<path fill-rule="evenodd" clip-rule="evenodd" fill="#00427D" d="M65.975,109.919c0,0.445-0.157,0.81-0.472,1.09
	c-0.297,0.265-0.66,0.396-1.09,0.396c-0.429,0-0.793-0.14-1.09-0.421s-0.446-0.636-0.446-1.065c0-0.083,0.009-0.182,0.025-0.298
	c0.032-0.132,0.09-0.28,0.173-0.445c0.082-0.133,0.231-0.289,0.446-0.472c0.215-0.181,0.52-0.271,0.917-0.271
	c0.429,0,0.792,0.14,1.09,0.421C65.825,109.135,65.975,109.489,65.975,109.919 M65.875,126.271h-2.898v-12.24h2.898V126.271z"/>
<path fill="#00427D" d="M74.869,126.494c-0.099,0.265-0.198,0.521-0.297,0.769c-0.1,0.248-0.215,0.487-0.347,0.719
	c-0.38,0.759-0.826,1.371-1.338,1.833c-0.513,0.479-1.182,0.842-2.008,1.091c-0.182,0.049-0.438,0.107-0.768,0.173
	c-0.331,0.066-0.735,0.1-1.214,0.1c-0.116,0-0.298-0.009-0.545-0.025c-0.248-0.017-0.529-0.049-0.843-0.099l0.768-2.131
	c0.133,0.017,0.265,0.024,0.396,0.024c0.148,0.018,0.289,0.025,0.422,0.025c0.182,0,0.438-0.041,0.768-0.124
	c0.331-0.083,0.661-0.289,0.991-0.619c0.165-0.166,0.347-0.422,0.545-0.77c0.215-0.329,0.413-0.742,0.595-1.237l-4.731-12.19h3.097
	l3.245,9.291l3.073-9.291h2.973L74.869,126.494"/>
<path fill-rule="evenodd" clip-rule="evenodd" fill="#00427D" d="M87.977,118.491c-0.017-0.082-0.033-0.239-0.049-0.47
	c-0.018-0.232-0.066-0.471-0.149-0.719c-0.198-0.529-0.504-0.926-0.917-1.189c-0.413-0.281-0.884-0.421-1.412-0.421
	c-0.429,0-0.801,0.091-1.115,0.272c-0.297,0.164-0.545,0.363-0.743,0.595c-0.197,0.214-0.355,0.437-0.471,0.669
	c-0.099,0.215-0.165,0.372-0.198,0.471c-0.083,0.165-0.132,0.297-0.148,0.396c-0.018,0.083-0.041,0.215-0.074,0.396H87.977
	 M82.649,120.325c0.017,0.132,0.042,0.38,0.075,0.743c0.031,0.364,0.132,0.735,0.297,1.115c0.099,0.264,0.248,0.528,0.446,0.793
	c0.197,0.264,0.453,0.512,0.768,0.743c0.313,0.215,0.702,0.396,1.164,0.545c0.463,0.133,1.008,0.198,1.636,0.198
	c0.826,0,1.544-0.1,2.155-0.298c0.628-0.197,1.074-0.354,1.338-0.47l-1.438,2.478c-0.264,0.065-0.644,0.148-1.14,0.247
	c-0.479,0.1-1.064,0.148-1.759,0.148c-0.148,0-0.413-0.008-0.793-0.025c-0.379-0.016-0.81-0.082-1.288-0.197
	c-0.462-0.115-0.95-0.288-1.462-0.521c-0.512-0.248-0.983-0.586-1.412-1.015c-0.182-0.183-0.372-0.405-0.57-0.67
	c-0.197-0.28-0.388-0.611-0.569-0.99c-0.165-0.397-0.306-0.835-0.421-1.313c-0.1-0.495-0.149-1.05-0.149-1.66
	c0-0.215,0.017-0.562,0.05-1.04c0.049-0.496,0.173-1.025,0.371-1.586c0.099-0.299,0.273-0.661,0.521-1.091s0.586-0.843,1.016-1.238
	c0.429-0.413,0.966-0.761,1.61-1.041c0.644-0.297,1.42-0.446,2.328-0.446c0.199,0,0.472,0.017,0.818,0.05
	c0.363,0.033,0.751,0.115,1.164,0.248c0.43,0.132,0.859,0.346,1.289,0.645c0.429,0.279,0.817,0.677,1.164,1.188
	c0.463,0.694,0.752,1.412,0.867,2.156c0.116,0.743,0.182,1.511,0.197,2.304H82.649z"/>
<path fill="#00427D" d="M92.188,123.274c0.065,0.05,0.206,0.14,0.421,0.273c0.215,0.132,0.471,0.271,0.768,0.421
	c0.298,0.132,0.62,0.247,0.967,0.346c0.363,0.099,0.735,0.148,1.115,0.148c0.379,0,0.693-0.058,0.941-0.173
	c0.264-0.115,0.471-0.256,0.619-0.421c0.165-0.182,0.28-0.372,0.347-0.569c0.067-0.199,0.099-0.372,0.099-0.521
	c0-0.264-0.057-0.487-0.173-0.669c-0.099-0.198-0.23-0.363-0.396-0.495c-0.166-0.132-0.356-0.24-0.571-0.322
	c-0.198-0.099-0.396-0.189-0.594-0.272l-0.942-0.347c-0.147-0.05-0.371-0.141-0.668-0.272c-0.281-0.132-0.569-0.314-0.868-0.545
	c-0.28-0.248-0.527-0.563-0.742-0.942c-0.216-0.38-0.322-0.858-0.322-1.437c0-0.165,0.024-0.396,0.074-0.694
	c0.05-0.313,0.174-0.651,0.371-1.016c0.281-0.495,0.619-0.875,1.017-1.14c0.396-0.28,0.793-0.486,1.188-0.619
	c0.397-0.133,0.761-0.206,1.091-0.224c0.347-0.033,0.595-0.049,0.743-0.049c0.347,0,0.784,0.041,1.313,0.124
	c0.528,0.082,1.164,0.297,1.907,0.644v2.354c-0.182-0.149-0.313-0.248-0.396-0.298c-0.065-0.066-0.157-0.141-0.272-0.224
	c-0.28-0.181-0.611-0.321-0.99-0.421c-0.364-0.114-0.719-0.173-1.066-0.173c-0.38,0-0.702,0.059-0.966,0.173
	c-0.248,0.1-0.446,0.231-0.595,0.397c-0.148,0.165-0.256,0.338-0.322,0.52c-0.065,0.183-0.099,0.355-0.099,0.521
	c0,0.23,0.05,0.429,0.148,0.595c0.1,0.149,0.214,0.289,0.347,0.421c0.148,0.116,0.306,0.215,0.471,0.297
	c0.182,0.083,0.364,0.166,0.545,0.248l1.239,0.496c0.38,0.182,0.669,0.33,0.867,0.446c0.197,0.099,0.389,0.215,0.569,0.346
	c0.1,0.083,0.215,0.199,0.348,0.348c0.132,0.132,0.256,0.306,0.372,0.521c0.132,0.198,0.238,0.438,0.321,0.718
	c0.082,0.281,0.123,0.596,0.123,0.942c0,0.694-0.198,1.354-0.594,1.981c-0.297,0.446-0.652,0.802-1.065,1.065
	c-0.413,0.248-0.817,0.43-1.215,0.545c-0.396,0.115-0.759,0.182-1.09,0.198c-0.313,0.033-0.536,0.05-0.669,0.05
	c-0.115,0-0.272-0.009-0.47-0.025c-0.198,0-0.431-0.024-0.694-0.073c-0.264-0.034-0.554-0.083-0.867-0.149
	c-0.298-0.065-0.603-0.156-0.917-0.271c-0.132-0.051-0.264-0.1-0.396-0.149c-0.116-0.05-0.24-0.107-0.372-0.173V123.274"/>
<path fill-rule="evenodd" clip-rule="evenodd" fill="#00427D" d="M105.245,109.919c0,0.445-0.157,0.81-0.471,1.09
	c-0.297,0.265-0.66,0.396-1.09,0.396s-0.793-0.14-1.09-0.421c-0.298-0.281-0.446-0.636-0.446-1.065c0-0.083,0.008-0.182,0.024-0.298
	c0.032-0.132,0.091-0.28,0.174-0.445c0.083-0.133,0.23-0.289,0.445-0.472c0.215-0.181,0.521-0.271,0.917-0.271
	c0.43,0,0.792,0.14,1.09,0.421S105.245,109.489,105.245,109.919 M105.146,126.271h-2.899v-12.24h2.899V126.271z"/>
<path fill="#00427D" d="M4.292,96.956c-0.38-0.148-0.752-0.321-1.115-0.52c-0.181-0.1-0.446-0.248-0.793-0.446
	c-0.33-0.215-0.661-0.496-0.991-0.843c-0.33-0.363-0.619-0.793-0.867-1.288c-0.231-0.512-0.347-1.115-0.347-1.809
	c0-0.513,0.058-0.95,0.174-1.313c0.132-0.38,0.239-0.652,0.322-0.818c0.165-0.313,0.396-0.644,0.693-0.989
	c0.298-0.349,0.678-0.661,1.14-0.942c0.463-0.297,1.008-0.537,1.635-0.719c0.645-0.198,1.388-0.297,2.23-0.297
	c1.041,0,1.925,0.115,2.652,0.347c0.743,0.215,1.296,0.404,1.66,0.57v2.947c-0.165-0.114-0.372-0.256-0.62-0.421
	c-0.248-0.182-0.545-0.347-0.892-0.496c-0.33-0.165-0.718-0.297-1.164-0.396c-0.43-0.115-0.909-0.173-1.437-0.173
	c-0.1,0-0.257,0.008-0.471,0.023c-0.198,0-0.421,0.042-0.669,0.124c-0.248,0.066-0.504,0.175-0.768,0.322
	c-0.265,0.149-0.496,0.364-0.694,0.646c-0.083,0.099-0.182,0.264-0.297,0.494c-0.099,0.216-0.149,0.488-0.149,0.818
	c0,0.413,0.091,0.769,0.273,1.065c0.181,0.298,0.413,0.553,0.693,0.768c0.298,0.215,0.611,0.405,0.942,0.57
	c0.347,0.148,0.669,0.28,0.966,0.396l1.264,0.521c0.495,0.23,0.974,0.479,1.437,0.743c0.463,0.264,0.884,0.595,1.264,0.99
	c0.396,0.431,0.693,0.926,0.891,1.487c0.215,0.545,0.323,1.106,0.323,1.685s-0.075,1.065-0.223,1.463
	c-0.132,0.396-0.248,0.685-0.347,0.866c-0.265,0.479-0.579,0.893-0.942,1.239c-0.363,0.346-0.752,0.636-1.164,0.867
	c-0.397,0.214-0.802,0.38-1.214,0.495c-0.414,0.132-0.801,0.223-1.165,0.272c-0.363,0.066-0.686,0.107-0.966,0.124
	c-0.264,0.017-0.455,0.024-0.57,0.024c-0.413,0-0.818-0.024-1.214-0.074c-0.38-0.05-0.735-0.106-1.066-0.173
	c-0.33-0.05-0.619-0.108-0.867-0.174c-0.248-0.066-0.429-0.115-0.545-0.148c-0.215-0.065-0.421-0.133-0.619-0.198
	c-0.198-0.082-0.405-0.165-0.62-0.247l0.025-3.023c0.132,0.099,0.273,0.198,0.421,0.297c0.149,0.099,0.306,0.19,0.471,0.273
	c0.116,0.065,0.297,0.156,0.545,0.271c0.248,0.116,0.537,0.232,0.867,0.348c0.331,0.115,0.694,0.215,1.091,0.298
	c0.412,0.082,0.842,0.124,1.288,0.124c0.644,0,1.181-0.093,1.61-0.273c0.43-0.182,0.768-0.405,1.016-0.669
	c0.264-0.265,0.455-0.553,0.57-0.868c0.116-0.313,0.173-0.609,0.173-0.891c0-0.364-0.065-0.694-0.198-0.991
	c-0.231-0.513-0.594-0.9-1.09-1.165c-0.479-0.264-0.958-0.487-1.437-0.669L4.292,96.956"/>
<path fill="#00427D" d="M21.537,104.909v-2.329l-1.561,2.23c-0.083,0.033-0.174,0.065-0.273,0.099
	c-0.082,0.017-0.165,0.033-0.247,0.049c-0.133,0.033-0.389,0.083-0.768,0.149c-0.364,0.066-0.752,0.099-1.165,0.099
	c-0.132,0-0.339-0.016-0.62-0.049c-0.28-0.017-0.586-0.075-0.916-0.174c-0.132-0.033-0.306-0.09-0.521-0.173
	c-0.214-0.1-0.445-0.231-0.693-0.396c-0.231-0.165-0.463-0.372-0.694-0.62c-0.215-0.264-0.396-0.586-0.545-0.966
	c-0.099-0.265-0.165-0.528-0.198-0.793c-0.033-0.281-0.058-0.693-0.074-1.238V92.67h2.923v6.417
	c-0.017,1.058,0.025,1.809,0.124,2.255c0.099,0.396,0.256,0.701,0.471,0.917c0.215,0.215,0.437,0.372,0.669,0.471
	c0.231,0.099,0.454,0.165,0.669,0.198c0.231,0.016,0.413,0.024,0.545,0.024c0.545-0.017,1.04-0.107,1.486-0.272
	c0.446-0.165,0.752-0.289,0.917-0.371c0.083-0.033,0.157-0.075,0.223-0.124c0.083-0.066,0.165-0.124,0.248-0.174V92.67h2.899v12.239
	H21.537"/>
<rect x="26.691" y="87.417" fill="#00427D" width="2.898" height="17.492"/>
<path fill="#00427D" d="M32.34,94.751h-1.586l1.288-2.081h0.323v-2.305l2.874-0.916v3.221h2.75v2.081h-2.8l-0.049,5.353
	c0,0.71,0.016,1.263,0.049,1.66c0.05,0.38,0.231,0.692,0.545,0.94c0.116,0.083,0.265,0.166,0.446,0.248
	c0.198,0.083,0.463,0.124,0.793,0.124c0.182-0.017,0.397-0.041,0.644-0.074c0.265-0.032,0.587-0.115,0.967-0.248l-1.685,2.279
	c-0.265,0.049-0.504,0.091-0.719,0.124c-0.214,0.033-0.462,0.049-0.743,0.049c-0.165,0-0.322-0.008-0.471-0.024
	s-0.239-0.024-0.272-0.024c-0.678-0.099-1.247-0.405-1.71-0.917c-0.182-0.214-0.314-0.412-0.396-0.594
	c-0.083-0.198-0.141-0.347-0.174-0.446c-0.066-0.23-0.107-0.463-0.124-0.693c-0.016-0.248-0.025-0.595-0.025-1.041L32.34,94.751"/>
<path fill-rule="evenodd" clip-rule="evenodd" fill="#00427D" d="M46.413,99.385c-0.165-0.033-0.397-0.051-0.694-0.051
	c-0.297-0.016-0.644-0.008-1.041,0.025c-0.396,0.033-0.776,0.107-1.14,0.223c-0.346,0.1-0.66,0.307-0.941,0.62
	c-0.082,0.1-0.173,0.247-0.272,0.445c-0.1,0.199-0.149,0.455-0.149,0.769c0,0.183,0.025,0.381,0.074,0.595
	c0.066,0.198,0.174,0.389,0.323,0.569c0.148,0.165,0.354,0.314,0.619,0.446c0.281,0.116,0.636,0.174,1.065,0.174
	c0.232,0,0.529-0.034,0.892-0.1c0.364-0.082,0.785-0.247,1.264-0.495V99.385 M46.611,104.909c-0.033-0.099-0.066-0.214-0.099-0.347
	c-0.017-0.115-0.041-0.305-0.074-0.569c-0.017-0.265-0.025-0.562-0.025-0.893l-1.388,1.933c-0.38,0.082-0.677,0.132-0.892,0.148
	s-0.421,0.024-0.619,0.024c-0.132,0-0.347-0.008-0.644-0.024c-0.297-0.017-0.636-0.082-1.016-0.198
	c-0.364-0.099-0.735-0.264-1.115-0.495c-0.38-0.23-0.702-0.562-0.966-0.991c-0.248-0.396-0.397-0.785-0.447-1.164
	c-0.049-0.396-0.074-0.67-0.074-0.817c0-0.232,0.033-0.563,0.099-0.991c0.083-0.446,0.314-0.901,0.694-1.363
	c0.38-0.479,0.942-0.892,1.685-1.238c0.76-0.363,1.808-0.546,3.146-0.546c0.248,0,0.496,0.009,0.744,0.025
	c0.264,0.016,0.529,0.033,0.793,0.049c0-0.099-0.008-0.281-0.025-0.545c0-0.264-0.041-0.553-0.124-0.867
	c-0.05-0.215-0.124-0.413-0.223-0.594c-0.099-0.199-0.239-0.372-0.421-0.521c-0.182-0.149-0.421-0.265-0.719-0.348
	c-0.28-0.082-0.644-0.124-1.09-0.124c-0.248,0-0.495,0.018-0.743,0.05c-0.231,0.017-0.488,0.059-0.768,0.124
	c-0.264,0.066-0.57,0.157-0.917,0.272c-0.347,0.116-0.743,0.256-1.189,0.422l1.536-2.552c0.743-0.183,1.322-0.29,1.734-0.323
	c0.413-0.049,0.818-0.074,1.214-0.074c0.099,0,0.322,0.009,0.669,0.025c0.347,0.017,0.702,0.065,1.066,0.149
	c0.628,0.147,1.164,0.421,1.61,0.816c0.463,0.38,0.793,0.884,0.991,1.511c0.099,0.299,0.157,0.612,0.174,0.942
	c0.016,0.314,0.033,0.636,0.049,0.966v4.361c-0.016,0.313-0.024,0.628-0.024,0.94c0.016,0.299,0.033,0.604,0.049,0.917
	c0,0.281,0,0.514,0,0.694c0.017,0.165,0.025,0.314,0.025,0.446c0.017,0.132,0.033,0.256,0.049,0.372
	c0.017,0.115,0.05,0.247,0.1,0.396H46.611z"/>
<path fill="#00427D" d="M59.52,104.909v-6.293c-0.018-0.198-0.025-0.396-0.025-0.595c0-0.214,0-0.429,0-0.645
	c0-0.197-0.024-0.453-0.074-0.768c-0.032-0.314-0.132-0.619-0.298-0.917c-0.165-0.297-0.421-0.545-0.768-0.743
	c-0.348-0.215-0.834-0.322-1.461-0.322c-0.331,0-0.646,0.041-0.942,0.124c-0.297,0.066-0.57,0.148-0.818,0.247
	c-0.23,0.1-0.437,0.198-0.618,0.299c-0.165,0.099-0.297,0.181-0.396,0.247v9.365h-2.875V92.67h2.875v2.305l1.61-2.205
	c0.215-0.083,0.537-0.166,0.966-0.248c0.43-0.1,0.934-0.149,1.512-0.149c0.645,0,1.189,0.083,1.635,0.248
	c0.463,0.149,0.852,0.348,1.164,0.596c0.314,0.246,0.563,0.52,0.744,0.816c0.198,0.281,0.338,0.545,0.421,0.793
	c0.116,0.33,0.182,0.652,0.198,0.966c0.018,0.299,0.033,0.62,0.05,0.968v8.15H59.52"/>
<path fill-rule="evenodd" clip-rule="evenodd" fill="#00427D" d="M67.722,102.557c0.429,0.214,0.834,0.346,1.214,0.396
	c0.396,0.049,0.669,0.074,0.816,0.074c0.628,0,1.165-0.116,1.611-0.347c0.446-0.248,0.809-0.57,1.09-0.967
	c0.297-0.396,0.512-0.851,0.645-1.362c0.132-0.528,0.197-1.065,0.197-1.61c0-0.578-0.082-1.14-0.247-1.685
	c-0.148-0.563-0.422-1.058-0.817-1.487c-0.215-0.231-0.504-0.446-0.867-0.644c-0.364-0.215-0.901-0.322-1.611-0.322
	c-0.594,0-1.09,0.065-1.485,0.198c-0.397,0.115-0.702,0.23-0.917,0.347v7.185L67.722,102.557 M68.762,92.596
	c0.363-0.082,0.693-0.141,0.99-0.175c0.297-0.031,0.637-0.049,1.017-0.049c0.28,0,0.693,0.041,1.238,0.124
	c0.546,0.066,1.132,0.289,1.76,0.669c0.61,0.38,1.09,0.834,1.437,1.363c0.347,0.528,0.604,1.048,0.769,1.562
	c0.182,0.512,0.289,0.981,0.321,1.411c0.033,0.43,0.05,0.743,0.05,0.942c0,0.181-0.017,0.438-0.05,0.767
	c-0.016,0.314-0.073,0.671-0.173,1.066c-0.083,0.396-0.223,0.818-0.421,1.264c-0.182,0.445-0.438,0.884-0.768,1.313
	c-0.183,0.23-0.423,0.487-0.72,0.768c-0.28,0.28-0.636,0.537-1.064,0.769c-0.43,0.23-0.935,0.421-1.512,0.568
	c-0.578,0.165-1.239,0.248-1.982,0.248c-0.859,0-1.759-0.124-2.701-0.371c-0.94-0.248-1.783-0.562-2.527-0.94V87.417h2.925v7.21
	L68.762,92.596z"/>
<path fill-rule="evenodd" clip-rule="evenodd" fill="#00427D" d="M86.03,97.129c-0.016-0.081-0.033-0.238-0.049-0.47
	c-0.018-0.231-0.066-0.471-0.149-0.719c-0.198-0.529-0.504-0.925-0.917-1.189c-0.413-0.28-0.884-0.421-1.412-0.421
	c-0.43,0-0.801,0.092-1.114,0.272c-0.299,0.165-0.546,0.364-0.743,0.595c-0.198,0.214-0.356,0.438-0.472,0.669
	c-0.099,0.215-0.165,0.372-0.197,0.471c-0.083,0.165-0.132,0.298-0.149,0.396c-0.017,0.083-0.041,0.215-0.074,0.396H86.03
	 M80.703,98.963c0.018,0.133,0.042,0.381,0.074,0.743c0.033,0.364,0.133,0.735,0.298,1.115c0.099,0.264,0.248,0.529,0.446,0.793
	s0.454,0.512,0.768,0.743c0.314,0.215,0.702,0.396,1.164,0.545c0.463,0.133,1.008,0.199,1.636,0.199c0.826,0,1.544-0.1,2.155-0.298
	c0.628-0.198,1.074-0.355,1.338-0.471l-1.437,2.478c-0.265,0.065-0.645,0.148-1.141,0.248c-0.479,0.099-1.064,0.147-1.759,0.147
	c-0.147,0-0.413-0.008-0.793-0.024s-0.809-0.082-1.288-0.198c-0.462-0.115-0.95-0.288-1.462-0.521
	c-0.512-0.247-0.982-0.586-1.412-1.015c-0.182-0.182-0.372-0.405-0.569-0.67c-0.198-0.28-0.389-0.611-0.57-0.99
	c-0.165-0.396-0.305-0.834-0.421-1.313c-0.1-0.495-0.149-1.049-0.149-1.66c0-0.214,0.018-0.562,0.05-1.04
	c0.05-0.496,0.174-1.025,0.371-1.586c0.101-0.298,0.273-0.661,0.521-1.09c0.248-0.431,0.586-0.843,1.016-1.239
	c0.429-0.413,0.966-0.76,1.61-1.041c0.644-0.297,1.42-0.446,2.329-0.446c0.198,0,0.471,0.018,0.817,0.051
	c0.363,0.032,0.751,0.114,1.164,0.247c0.431,0.133,0.859,0.347,1.289,0.645c0.43,0.28,0.817,0.677,1.164,1.188
	c0.463,0.694,0.752,1.412,0.867,2.156c0.116,0.743,0.182,1.511,0.198,2.304H80.703z"/>
<path fill="#00427D" d="M96.462,105.133c-0.099,0.264-0.197,0.521-0.297,0.768c-0.1,0.248-0.215,0.488-0.347,0.719
	c-0.38,0.759-0.826,1.371-1.338,1.833c-0.513,0.479-1.182,0.843-2.007,1.091c-0.183,0.05-0.438,0.107-0.769,0.174
	c-0.331,0.065-0.734,0.099-1.214,0.099c-0.116,0-0.298-0.008-0.545-0.025c-0.248-0.016-0.529-0.049-0.843-0.099l0.768-2.131
	c0.132,0.017,0.266,0.024,0.397,0.024c0.147,0.018,0.289,0.025,0.421,0.025c0.182,0,0.438-0.041,0.768-0.124
	c0.331-0.083,0.661-0.289,0.991-0.619c0.165-0.166,0.347-0.422,0.545-0.769c0.215-0.33,0.413-0.743,0.595-1.238l-4.731-12.19h3.097
	l3.245,9.291l3.073-9.291h2.973L96.462,105.133"/>
<rect x="102.137" y="87.417" fill="#00427D" width="2.898" height="17.492"/>
<path fill-rule="evenodd" clip-rule="evenodd" fill="#00427D" d="M110.313,88.558c0,0.444-0.157,0.809-0.472,1.089
	c-0.297,0.265-0.659,0.396-1.09,0.396c-0.429,0-0.793-0.14-1.09-0.421c-0.297-0.28-0.446-0.636-0.446-1.064
	c0-0.083,0.009-0.183,0.025-0.298c0.032-0.133,0.09-0.281,0.173-0.446c0.083-0.132,0.231-0.289,0.446-0.471
	c0.214-0.182,0.52-0.272,0.917-0.272c0.429,0,0.792,0.14,1.09,0.421C110.163,87.772,110.313,88.127,110.313,88.558 M110.213,104.909
	h-2.898V92.67h2.898V104.909z"/>
<g>
	<defs>
		<path id="SVGID_1_" d="M15.039,21.508c4.309-3.772,13.498-1.677,22.501,5.777c-0.11,1.56-0.166,3.142-0.166,4.737
			c0,14.958,4.954,28.688,12.545,33.114c-6.063,2.609-17.431-2.013-27.058-13.162C12.18,39.605,9.686,26.191,15.039,21.508
			 M0.003,57.509c0.157-4.973,6.064-9.618,15.212-11.736c1.603,2.697,3.518,5.362,5.697,7.885
			c9.065,10.499,21.206,16.821,29.091,14.228c-5.091,3.076-13.01,5.039-22.382,4.681C11.29,71.941-0.221,64.618,0.003,57.509z
			 M110.398,57.509c0.225,7.109-11.287,14.433-27.617,15.057c-9.373,0.358-17.291-1.604-22.382-4.681
			c7.885,2.594,20.025-3.729,29.091-14.228c2.178-2.522,4.094-5.188,5.697-7.885C104.335,47.891,110.241,52.536,110.398,57.509z
			 M95.363,21.508c5.353,4.684,2.858,18.098-7.822,30.467C77.923,63.113,66.567,67.737,60.5,65.144
			c7.599-4.417,12.559-18.154,12.559-33.121c0-1.604-0.058-3.194-0.168-4.76C81.884,19.826,91.059,17.739,95.363,21.508z M55.216,0
			c7.785,0,15.267,13.437,15.267,32.022c0,16.925-6.204,29.58-13.192,31.707c0.902-2.617,2.074-6.163,3.596-9.564
			c2.988-6.681,6.192-10.266,5.296-10.627c-0.897-0.36-5.555,2.639-8.543,9.32c-0.315,0.706-0.601,1.425-0.855,2.146
			c0.123-2.942,0.192-6.057,0.192-8.961c0-9.781-0.787-13.477-1.76-13.477c-0.972,0-1.76,3.695-1.76,13.477
			c0,2.904,0.07,6.019,0.193,8.961c-0.256-0.721-0.54-1.439-0.856-2.146c-2.988-6.682-7.646-9.681-8.542-9.32
			c-0.897,0.361,2.307,3.946,5.295,10.627c1.521,3.401,2.693,6.947,3.596,9.564c-6.988-2.126-13.193-14.782-13.193-31.707
			C39.949,13.437,47.431,0,55.216,0z M70.492,74.221c-3.209,5.048-8.852,8.396-15.276,8.396c-6.44,0-12.095-3.365-15.301-8.434
			c6.433-1.283,11.891-3.754,15.195-7.118C58.447,70.462,63.979,72.948,70.492,74.221z"/>
	</defs>
	<clipPath id="SVGID_2_">
		<use xlink:href="#SVGID_1_"  overflow="visible"/>
	</clipPath>
	<g clip-path="url(#SVGID_2_)">
		<defs>
			<path id="SVGID_3_" d="M15.039,21.508c4.309-3.772,13.498-1.677,22.501,5.777c-0.11,1.56-0.166,3.142-0.166,4.737
				c0,14.958,4.954,28.688,12.545,33.114c-6.063,2.609-17.431-2.013-27.058-13.162C12.18,39.605,9.686,26.191,15.039,21.508
				 M0.003,57.509c0.157-4.973,6.064-9.618,15.212-11.736c1.603,2.697,3.518,5.362,5.697,7.885
				c9.065,10.499,21.206,16.821,29.091,14.228c-5.091,3.076-13.01,5.039-22.382,4.681C11.29,71.941-0.221,64.618,0.003,57.509z
				 M110.398,57.509c0.225,7.109-11.287,14.433-27.617,15.057c-9.373,0.358-17.291-1.604-22.382-4.681
				c7.885,2.594,20.025-3.729,29.091-14.228c2.178-2.522,4.094-5.188,5.697-7.885C104.335,47.891,110.241,52.536,110.398,57.509z
				 M95.363,21.508c5.353,4.684,2.858,18.098-7.822,30.467C77.923,63.113,66.567,67.737,60.5,65.144
				c7.599-4.417,12.559-18.154,12.559-33.121c0-1.604-0.058-3.194-0.168-4.76C81.884,19.826,91.059,17.739,95.363,21.508z M55.216,0
				c7.785,0,15.267,13.437,15.267,32.022c0,16.925-6.204,29.58-13.192,31.707c0.902-2.617,2.074-6.163,3.596-9.564
				c2.988-6.681,6.192-10.266,5.296-10.627c-0.897-0.36-5.555,2.639-8.543,9.32c-0.315,0.706-0.601,1.425-0.855,2.146
				c0.123-2.942,0.192-6.057,0.192-8.961c0-9.781-0.787-13.477-1.76-13.477c-0.972,0-1.76,3.695-1.76,13.477
				c0,2.904,0.07,6.019,0.193,8.961c-0.256-0.721-0.54-1.439-0.856-2.146c-2.988-6.682-7.646-9.681-8.542-9.32
				c-0.897,0.361,2.307,3.946,5.295,10.627c1.521,3.401,2.693,6.947,3.596,9.564c-6.988-2.126-13.193-14.782-13.193-31.707
				C39.949,13.437,47.431,0,55.216,0z M70.492,74.221c-3.209,5.048-8.852,8.396-15.276,8.396c-6.44,0-12.095-3.365-15.301-8.434
				c6.433-1.283,11.891-3.754,15.195-7.118C58.447,70.462,63.979,72.948,70.492,74.221z"/>
		</defs>
		<clipPath id="SVGID_4_">
			<use xlink:href="#SVGID_3_"  overflow="visible"/>
		</clipPath>
		<g clip-path="url(#SVGID_4_)">
			<defs>
				<rect id="SVGID_5_" x="-255.429" y="-513.641" width="612" height="791.97"/>
			</defs>
			<clipPath id="SVGID_6_">
				<use xlink:href="#SVGID_5_"  overflow="visible"/>
			</clipPath>
			<rect x="0" y="-0.001" clip-path="url(#SVGID_6_)" fill="#FAB600" width="110.401" height="82.618"/>
			<path clip-path="url(#SVGID_6_)" fill="#FAB600" d="M0,62.234c0-28.531,24.714-51.659,55.201-51.659
				c30.487,0,55.2,23.128,55.2,51.659s-24.713,51.659-55.2,51.659C24.714,113.894,0,90.766,0,62.234"/>
			<path clip-path="url(#SVGID_6_)" fill="#FAB600" d="M10.079,62.25c0-23.32,20.201-42.226,45.122-42.226
				c24.92,0,45.122,18.905,45.122,42.226c0,23.321-20.202,42.227-45.122,42.227C30.28,104.477,10.079,85.571,10.079,62.25"/>
			<path clip-path="url(#SVGID_6_)" fill="#FAB600" d="M20.161,62.249c0-18.109,15.687-32.791,35.039-32.791
				c19.354,0,35.04,14.682,35.04,32.791c0,18.11-15.687,32.791-35.04,32.791C35.848,95.04,20.161,80.359,20.161,62.249"/>
			<path clip-path="url(#SVGID_6_)" fill="#FBB800" d="M21.165,62.237c0-17.591,15.238-31.851,34.035-31.851
				c18.798,0,34.036,14.26,34.036,31.851S73.998,94.089,55.2,94.089C36.403,94.089,21.165,79.828,21.165,62.237"/>
			<path clip-path="url(#SVGID_6_)" fill="#FBB900" d="M22.169,62.243c0-17.071,14.788-30.912,33.031-30.912
				s33.032,13.841,33.032,30.912c0,17.072-14.789,30.912-33.032,30.912S22.169,79.315,22.169,62.243"/>
			<path clip-path="url(#SVGID_6_)" fill="#FBBB00" d="M23.173,62.25c0-16.553,14.339-29.972,32.027-29.972
				c17.689,0,32.028,13.419,32.028,29.972c0,16.554-14.339,29.973-32.028,29.973C37.512,92.223,23.173,78.804,23.173,62.25"/>
			<path clip-path="url(#SVGID_6_)" fill="#FCBD00" d="M24.177,62.238c0-16.035,13.889-29.033,31.023-29.033
				s31.024,12.998,31.024,29.033S72.334,91.271,55.2,91.271S24.177,78.273,24.177,62.238"/>
			<path clip-path="url(#SVGID_6_)" fill="#FCBE00" d="M25.181,62.244c0-15.515,13.44-28.093,30.019-28.093
				c16.58,0,30.021,12.578,30.021,28.093c0,15.517-13.44,28.093-30.021,28.093C38.621,90.337,25.181,77.761,25.181,62.244"/>
			<path clip-path="url(#SVGID_6_)" fill="#FDC000" d="M26.186,62.25c0-14.996,12.99-27.152,29.015-27.152
				c16.025,0,29.016,12.156,29.016,27.152S71.226,89.403,55.2,89.403C39.175,89.403,26.186,77.246,26.186,62.25"/>
			<path clip-path="url(#SVGID_6_)" fill="#FDC200" d="M27.189,62.239c0-14.478,12.541-26.214,28.011-26.214
				c15.471,0,28.012,11.736,28.012,26.214c0,14.479-12.541,26.214-28.012,26.214C39.73,88.453,27.189,76.718,27.189,62.239"/>
			<path clip-path="url(#SVGID_6_)" fill="#FDC300" d="M28.193,62.245c0-13.959,12.091-25.273,27.007-25.273
				s27.008,11.314,27.008,25.273S70.116,87.52,55.2,87.52S28.193,76.204,28.193,62.245"/>
			<path clip-path="url(#SVGID_6_)" fill="#FEC500" d="M29.197,62.251c0-13.439,11.642-24.334,26.003-24.334
				c14.362,0,26.004,10.895,26.004,24.334c0,13.44-11.642,24.334-26.004,24.334C40.839,86.585,29.197,75.691,29.197,62.251"/>
			<path clip-path="url(#SVGID_6_)" fill="#FEC700" d="M30.201,62.239c0-12.921,11.192-23.395,24.999-23.395
				c13.807,0,25,10.474,25,23.395s-11.193,23.396-25,23.396C41.393,85.635,30.201,75.16,30.201,62.239"/>
			<path clip-path="url(#SVGID_6_)" fill="#FEC800" d="M31.205,62.245c0-12.401,10.743-22.455,23.995-22.455
				c13.253,0,23.996,10.054,23.996,22.455C79.196,74.647,68.453,84.7,55.2,84.7C41.948,84.7,31.205,74.647,31.205,62.245"/>
			<path clip-path="url(#SVGID_6_)" fill="#FFCA00" d="M32.209,62.252c0-11.883,10.293-21.515,22.991-21.515
				c12.698,0,22.992,9.632,22.992,21.515c0,11.884-10.294,21.516-22.992,21.516C42.502,83.768,32.209,74.136,32.209,62.252"/>
			<path clip-path="url(#SVGID_6_)" fill="#FFCC00" d="M33.213,62.24c0-11.364,9.844-20.576,21.987-20.576
				c12.145,0,21.988,9.212,21.988,20.576S67.345,82.816,55.2,82.816C43.057,82.816,33.213,73.604,33.213,62.24"/>
			<path clip-path="url(#SVGID_6_)" fill="#FFCD00" d="M34.217,62.246c0-10.845,9.394-19.636,20.983-19.636
				s20.983,8.791,20.983,19.636c0,10.846-9.395,19.638-20.983,19.638S34.217,73.092,34.217,62.246"/>
			<path clip-path="url(#SVGID_6_)" fill="#FFCF00" d="M35.221,62.234c0-10.326,8.945-18.697,19.979-18.697
				c11.035,0,19.98,8.371,19.98,18.697S66.235,80.932,55.2,80.932C44.166,80.932,35.221,72.561,35.221,62.234"/>
			<path clip-path="url(#SVGID_6_)" fill="#FFD000" d="M36.225,62.241c0-9.807,8.495-17.757,18.975-17.757
				c10.48,0,18.977,7.95,18.977,17.757c0,9.808-8.496,17.757-18.977,17.757C44.72,79.998,36.225,72.049,36.225,62.241"/>
			<path clip-path="url(#SVGID_6_)" fill="#FFD200" d="M37.23,62.247c0-9.288,8.046-16.817,17.971-16.817
				s17.971,7.529,17.971,16.817s-8.046,16.818-17.971,16.818S37.23,71.535,37.23,62.247"/>
			<path clip-path="url(#SVGID_6_)" fill="#FFD400" d="M38.233,62.235c0-8.77,7.596-15.879,16.967-15.879
				s16.967,7.109,16.967,15.879c0,8.769-7.596,15.878-16.967,15.878S38.233,71.004,38.233,62.235"/>
			<path clip-path="url(#SVGID_6_)" fill="#FFD500" d="M39.238,62.241c0-8.25,7.147-14.938,15.963-14.938
				c8.817,0,15.963,6.688,15.963,14.938S64.019,77.18,55.201,77.18C46.385,77.18,39.238,70.491,39.238,62.241"/>
			<path clip-path="url(#SVGID_6_)" fill="#FFD700" d="M40.241,62.247c0-7.73,6.697-13.999,14.959-13.999
				s14.959,6.269,14.959,13.999c0,7.731-6.697,13.999-14.959,13.999S40.241,69.979,40.241,62.247"/>
			<path clip-path="url(#SVGID_6_)" fill="#FFD800" d="M41.245,62.236c0-7.213,6.248-13.06,13.955-13.06s13.955,5.847,13.955,13.06
				S62.907,75.297,55.2,75.297S41.245,69.449,41.245,62.236"/>
			<path clip-path="url(#SVGID_6_)" fill="#FFD800" d="M48.223,62.244c0-3.605,3.125-6.529,6.978-6.529s6.978,2.924,6.978,6.529
				c0,3.606-3.124,6.529-6.978,6.529S48.223,65.851,48.223,62.244"/>
		</g>
	</g>
</g>
</svg>
