<?xml version="1.0" encoding="utf-8"?>
<!-- Generator: Adobe Illustrator 16.0.0, SVG Export Plug-In . SVG Version: 6.00 Build 0)  -->
<!DOCTYPE svg PUBLIC "-//W3C//DTD SVG 1.1//EN" "http://www.w3.org/Graphics/SVG/1.1/DTD/svg11.dtd">
<svg version="1.1" id="Layer_1" xmlns="http://www.w3.org/2000/svg" xmlns:xlink="http://www.w3.org/1999/xlink" x="0px" y="0px"
	 width="499.479px" height="517.168px" viewBox="0 0 499.479 517.168" enable-background="new 0 0 499.479 517.168"
	 xml:space="preserve">
<path fill-rule="evenodd" clip-rule="evenodd" fill="#E3090F" d="M399.926,127.515l1.458,1.707l1.457,1.707l1.457,1.754l1.41,1.754
	l1.411,1.753l1.41,1.754l1.363,1.801l1.363,1.849l1.316,1.801l1.316,1.849l1.27,1.849l1.269,1.896l1.27,1.848l1.223,1.944
	l1.222,1.896l1.223,1.943l2.633,5.072l-141.788-15.69l0.141-0.663l0.094-0.616l0.048-0.664l0.094-0.664l0.047-0.663v-0.664
	l0.047-0.663v-0.664v-0.189v-0.143v-0.142v-0.143v-0.189v-0.142v-0.143l-0.047-0.189L399.926,127.515z M360.859,92.958l3.009,2.133
	l3.009,2.133l2.961,2.228l2.915,2.275l2.868,2.275l2.82,2.37l2.773,2.417l2.727,2.465l-101.64,24.65l-0.188-0.996l-0.188-0.996
	l-0.235-0.996l-0.281-0.948l-0.282-0.948l-0.329-0.948l-0.376-0.948l-0.377-0.901L360.859,92.958z M326.916,74.328l2.774,1.232
	l2.773,1.28l2.773,1.28l2.727,1.375l2.68,1.375l2.68,1.422l2.68,1.47l2.633,1.517l-69.672,40.719l-0.423-0.711l-0.424-0.711
	l-0.423-0.664l-0.423-0.711l-0.47-0.664l-0.518-0.617l-0.47-0.664l-0.518-0.616L326.916,74.328z M302.423,65.558l1.834,0.521
	l1.833,0.569l1.786,0.569l1.834,0.569l1.833,0.616l1.787,0.616l1.786,0.616l1.786,0.664l-43.298,48.541l-0.518-0.474l-0.517-0.521
	l-0.517-0.426l-0.518-0.475l-0.564-0.474l-0.563-0.427l-0.564-0.427l-0.611-0.379L302.423,65.558z M277.271,60.059l1.975,0.285
	l2.021,0.332l1.975,0.379l1.975,0.379l1.975,0.379l1.927,0.426l1.975,0.427l1.928,0.427l-25.669,50.912l-0.799-0.427l-0.799-0.427
	l-0.8-0.379l-0.846-0.38l-0.847-0.379l-0.846-0.285l-0.847-0.332l-0.846-0.237L277.271,60.059z M253.437,57.831l2.021,0.095
	l1.975,0.095l1.975,0.095l2.021,0.143l1.975,0.142l1.974,0.19l1.929,0.189l1.975,0.237l-12.036,51.338l-0.563-0.095l-0.611-0.095
	l-0.564-0.095l-0.611-0.047l-0.61-0.048l-0.611-0.047h-0.564l-0.611-0.047L253.437,57.831z M228.755,58.495h0.047h0.047h0.047h0.047
	l0.047-0.047h0.047h0.047h0.047l1.598,0.094h2.445h2.915l3.15-0.047l3.055-0.047l2.539-0.048l1.787-0.047l0.658-0.048l2.915,51.623
	l-0.846,0.095l-0.847,0.095l-0.799,0.095l-0.847,0.142l-0.799,0.142l-0.799,0.19l-0.799,0.189l-0.799,0.189L228.755,58.495z
	 M202.429,62.524l2.256-0.474l2.257-0.474l2.256-0.427l2.304-0.426l2.256-0.379l2.304-0.332l2.304-0.379l2.303-0.285l21.156,52.333
	l-0.846,0.332l-0.847,0.332l-0.752,0.332l-0.799,0.379l-0.752,0.379l-0.752,0.426l-0.752,0.427l-0.752,0.521L202.429,62.524z
	 M172.482,71.673l2.915-1.138l2.962-1.091l3.009-1.042l3.008-0.948l3.009-0.948l3.056-0.901l3.056-0.853l3.103-0.854l37.375,52.144
	l-0.706,0.569l-0.658,0.521l-0.658,0.521l-0.611,0.521l-0.611,0.569l-0.611,0.569l-0.564,0.616l-0.611,0.664L172.482,71.673z
	 M139.761,88.028l1.787-1.09l1.787-1.091l1.833-1.043l1.786-1.042l1.833-0.996l1.88-0.995l1.833-0.996l1.881-0.948l11.33-3.792
	l61.586,46.645l-0.47,0.711l-0.47,0.758l-0.47,0.711l-0.423,0.758l-0.423,0.806l-0.423,0.758l-0.376,0.806l-0.33,0.806
	L139.761,88.028z M96.887,123.249l1.833-1.944l1.88-1.896l1.881-1.943l1.927-1.849l1.928-1.849l1.928-1.849l2.021-1.801l1.975-1.802
	l2.022-1.753l2.068-1.707l2.068-1.707l2.116-1.659l2.116-1.659l2.115-1.612l2.163-1.612l2.209-1.564l93.789,36.406l-0.235,0.806
	l-0.235,0.854l-0.188,0.9l-0.188,0.854l-0.141,0.901l-0.141,0.9l-0.141,0.901l-0.047,0.901L96.887,123.249z M58.43,182.029
	l1.27-2.892l1.363-2.939l1.363-2.844l1.458-2.844l1.457-2.844l1.504-2.797l1.552-2.797l1.598-2.749l1.598-2.702l1.693-2.702
	l1.692-2.654l1.787-2.655l1.787-2.607l1.833-2.56l1.834-2.56l1.928-2.512l137.416,3.745l0.047,0.9l0.094,0.901l0.094,0.9
	l0.141,0.901l0.141,0.853l0.188,0.901l0.188,0.854l0.235,0.853L58.43,182.029z M41.413,259.391l185.133-101.728l-0.47-0.758
	l-0.47-0.759l-0.423-0.758l-0.376-0.806l-0.423-0.806l-0.329-0.806l-0.376-0.806l-0.282-0.853L49.828,205.636l-0.894,3.224
	l-0.893,3.271l-0.799,3.223l-0.799,3.271l-0.706,3.318l-0.658,3.318l-0.611,3.318l-0.564,3.366l-0.517,3.365l-0.47,3.413
	l-0.376,3.366l-0.329,3.46l-0.282,3.413l-0.235,3.46l-0.188,3.46L41.413,259.391z"/>
<path fill-rule="evenodd" clip-rule="evenodd" fill="#006E26" d="M43.057,291.341l1.787-2.513l2.021-2.606l2.162-2.702l2.304-2.796
	l2.445-2.845l2.585-2.845l2.68-2.892l2.726-2.939l2.868-2.891l2.915-2.845l2.961-2.844l2.962-2.797l3.009-2.702l3.009-2.607
	l3.008-2.465l2.962-2.417l2.915-2.229l2.915-2.086l2.774-1.896l2.727-1.707l2.633-1.517l2.538-1.28l2.351-1.043l2.256-0.806
	l2.068-0.521l1.928-0.237l1.692,0.048l1.552,0.379l1.316,0.758l1.034,1.043l0.846,1.469l0.564,1.849l0.094,0.237l0.094,0.237
	l0.142,0.332l0.187,0.332l0.189,0.332l0.282,0.379l0.329,0.38l0.329,0.378l0.423,0.38l0.47,0.379l0.471,0.332l0.564,0.379
	l0.61,0.332l0.658,0.284l0.706,0.237l0.799,0.237l0.8,0.189l0.893,0.142l0.94,0.047l0.987,0.047l1.082-0.094l1.128-0.095l1.222-0.19
	l1.223-0.284l1.363-0.379l1.364-0.475l1.504-0.521l1.504-0.664l1.599-0.806l1.693-0.853l1.739-1.043l1.834-1.09l4.372-2.796
	l4.091-2.56l3.855-2.37l3.714-2.134l1.739-0.996l1.74-0.9l1.692-0.854l1.645-0.805l1.599-0.711l1.551-0.616l1.552-0.616l1.503-0.474
	l1.458-0.427l1.458-0.332l1.41-0.237l1.364-0.189l1.364-0.095l1.316,0.047l1.316,0.096l1.317,0.189l1.27,0.284l1.269,0.38
	l1.222,0.474l1.27,0.616l1.223,0.711l1.222,0.806l1.223,0.9l1.175,0.996v91.347l-2.539,0.189l-2.539,0.189l-2.492,0.143
	l-2.444,0.095l-2.398,0.048h-2.351l-2.256-0.048l-2.209-0.095l-2.163-0.095l-2.021-0.19l-1.975-0.236l-1.833-0.285l-1.786-0.331
	l-1.646-0.426l-1.505-0.428l-1.41-0.475l-2.915-1.042l-2.915-0.901l-2.867-0.663l-2.868-0.521l-2.868-0.332l-2.82-0.142h-2.821
	l-2.774,0.236l-2.774,0.38l-2.773,0.568l-2.727,0.759l-2.774,0.947l-2.727,1.091l-2.727,1.327l-2.727,1.47l-2.726,1.706l-2.728,1.85
	l-2.679,2.038l-2.727,2.228l-2.727,2.418l-2.68,2.607l-2.727,2.797l-2.727,2.986l-2.727,3.129l-2.727,3.365l-2.727,3.556
	l-2.773,3.745l-2.773,3.934l-2.774,4.124l-2.774,4.267l-2.821,4.504l-2.821,4.692l-1.41-2.275l-1.364-2.37l-1.363-2.323l-1.316-2.37
	l-1.316-2.417l-1.27-2.418l-1.223-2.418l-1.222-2.417l-1.175-2.466l-1.128-2.512l-1.129-2.512l-1.082-2.513l-1.034-2.513
	l-0.988-2.56l-0.987-2.56l-0.94-2.607l-0.94-2.56l-0.846-2.655l-0.847-2.606l-0.846-2.655l-0.752-2.654l-0.752-2.654l-0.705-2.702
	l-0.659-2.702l-0.658-2.702l-0.611-2.749l-0.564-2.75l-0.517-2.749l-0.47-2.75l-0.47-2.797l-0.423-2.797L43.057,291.341z
	 M302.752,219.714l1.27-0.758l1.223-0.758l1.269-0.806l1.316-0.854l2.586-1.801l2.633-1.848l5.453-4.077l5.688-4.313l2.915-2.229
	l2.962-2.276l3.009-2.228l3.056-2.228l3.149-2.228l3.197-2.181l3.243-2.085l3.338-2.039l2.445-1.422l2.444-1.327l1.175-0.569
	l1.223-0.568l1.129-0.522l1.175-0.474l1.128-0.427l1.129-0.379l1.128-0.379l1.128-0.285l1.082-0.237l1.081-0.19l1.034-0.142
	l1.081-0.047l0.987-0.047l1.034,0.047l0.987,0.095l0.987,0.19l0.94,0.236l0.987,0.285l0.893,0.379l0.94,0.427l0.847,0.521
	l0.893,0.569l0.847,0.664l0.847,0.71l0.799,0.854l0.799,0.901l0.752,0.948l0.753,1.09l1.363,1.849l1.362,1.565l1.411,1.28
	l1.41,0.995l1.458,0.759l1.457,0.474l1.504,0.284l1.458,0.047l1.504-0.142l1.505-0.332l1.505-0.521l1.503-0.664l1.506-0.806
	l1.551-0.948l1.504-1.09l1.505-1.138l1.457-1.233l1.505-1.328l1.457-1.375l1.41-1.422l2.867-2.939l2.728-2.939l2.633-2.797
	l2.492-2.607l1.175-1.185l1.128-1.042l1.129-0.996l1.033-0.806l2.492,4.456l2.304,4.362l1.128,2.181l1.081,2.181l1.035,2.18
	l0.986,2.133l0.988,2.18l0.939,2.134l0.94,2.181l0.894,2.133l0.847,2.181l0.799,2.181l0.799,2.181l0.752,2.181l0.753,2.228
	l0.705,2.228l0.657,2.229l0.611,2.275l0.611,2.275l0.611,2.322l0.518,2.323l0.563,2.37l0.471,2.37l0.47,2.465l0.424,2.417
	l0.422,2.513l0.377,2.559l0.376,2.561l0.329,2.607l0.282,2.655l-0.94-0.332l-0.94-0.332l-0.987-0.284l-0.987-0.237l-1.034-0.19
	l-1.034-0.189l-1.081-0.142l-1.081-0.095l-1.082-0.095l-1.081-0.048l-1.128-0.047h-1.128h-2.304l-2.352,0.095l-2.304,0.142
	l-2.35,0.189l-2.304,0.237l-2.304,0.189l-2.257,0.237l-2.209,0.189l-2.116,0.189l-2.068,0.095l-1.222,0.142l-1.223,0.237
	l-1.27,0.285l-1.223,0.426l-1.222,0.521l-1.223,0.569l-1.223,0.617l-1.223,0.664l-1.222,0.758l-1.176,0.758l-1.222,0.759
	l-1.176,0.805l-2.351,1.612l-2.304,1.564l-1.128,0.711l-1.081,0.711l-1.129,0.616l-1.034,0.569l-1.081,0.521l-1.033,0.427
	l-0.987,0.332l-0.987,0.237l-0.94,0.142h-0.941l-0.893-0.142l-0.846-0.237l-0.847-0.427l-0.799-0.569l-0.799-0.711l-0.706-0.9
	l-1.458-1.896l-1.504-1.612l-1.551-1.422l-1.552-1.185l-1.599-0.947l-1.599-0.759l-1.645-0.569l-1.646-0.332l-1.691-0.189h-1.693
	l-1.692,0.142l-1.739,0.285l-1.739,0.474l-1.739,0.617l-1.786,0.711l-1.74,0.853l-1.786,0.996l-1.786,1.043l-1.787,1.185
	l-1.786,1.232l-1.786,1.375l-1.787,1.374l-1.786,1.47l-1.786,1.517l-1.739,1.564l-1.786,1.612l-1.74,1.611l-1.739,1.659
	l-3.432,3.318l-3.385,3.271l-1.034,0.995l-1.176,0.995l-1.176,0.996l-1.269,0.995l-1.316,0.995l-1.364,0.996l-1.457,0.995
	l-1.457,0.996l-1.551,0.995l-1.599,0.995l-1.599,0.948l-1.646,0.996l-3.432,1.942l-3.526,1.896V219.714z"/>
<path fill-rule="evenodd" clip-rule="evenodd" fill="#113981" d="M450.887,279.529l-0.894,8.059l-1.128,7.964l-1.457,7.822
	l-1.74,7.773l-2.021,7.632l-2.303,7.537l-2.586,7.396l-2.868,7.253l-3.103,7.157l-3.385,6.969l-3.62,6.874l-3.854,6.684l-4.09,6.494
	l-4.373,6.399l-4.56,6.163l-4.748,6.02l-4.984,5.831l-5.217,5.641l-5.407,5.404l-5.594,5.263l-5.783,5.023l-5.97,4.788l-6.159,4.599
	l-6.3,4.361l-6.487,4.123l-6.629,3.888l-6.816,3.603l-6.958,3.413l-7.052,3.129l-7.24,2.844l-7.334,2.607l-7.475,2.275V324.231
	l0.658-0.712l0.705-0.711l0.752-0.663l0.753-0.664l0.799-0.616l0.799-0.568l0.847-0.569l0.894-0.568l0.894-0.521l0.939-0.475
	l0.94-0.426l0.987-0.379l1.034-0.38l1.034-0.332l1.081-0.237l1.129-0.236l1.128-0.19l1.176-0.143l1.176-0.094h1.222h1.223
	l1.269,0.094l1.316,0.143l1.316,0.19l1.363,0.284l1.411,0.331l1.409,0.38l1.41,0.474l1.458,0.521l1.504,0.616l1.505,0.664
	l1.552,0.759l-0.282-0.048l-0.376-0.047l-0.424,0.047l-0.47,0.096l-0.563,0.142l-0.564,0.189l-0.611,0.284l-0.658,0.284
	l-0.658,0.332l-0.658,0.379l-0.705,0.428l-0.658,0.474l-0.658,0.474l-0.658,0.569l-0.611,0.568l-0.563,0.617l-0.564,0.663
	l-0.518,0.663l-0.423,0.712l-0.376,0.711l-0.282,0.759l-0.235,0.806l-0.141,0.806l-0.047,0.853l0.094,0.854l0.142,0.9l0.281,0.901
	l0.424,0.9l0.563,0.948l0.706,0.948l0.799,0.948l1.034,0.995l0.752,0.616l0.799,0.474l0.847,0.332l0.799,0.143l0.847,0.047
	l0.846-0.047l0.846-0.237l0.847-0.284l0.847-0.427l0.847-0.569l0.846-0.615l0.847-0.664l0.846-0.806l0.799-0.854l0.847-0.9
	l0.799-0.948l0.752-1.043l0.8-1.043l0.752-1.09l0.705-1.138l0.705-1.138l0.705-1.138l0.658-1.139l0.658-1.137l1.176-2.276
	l1.034-2.18l0.894-1.991l0.705-1.754l0.987-2.275l1.128-2.181l1.223-1.99l1.316-1.896l1.363-1.755l1.504-1.611l1.505-1.469
	l1.598-1.375l1.646-1.232l1.646-1.043l1.692-0.948l1.693-0.806l1.692-0.711l1.691-0.522l1.646-0.379l1.599-0.283l1.599-0.096h1.504
	l1.411,0.143l1.363,0.284l1.27,0.474l1.175,0.569l1.034,0.711l0.894,0.854l0.799,0.995l0.658,1.186l0.47,1.279l0.282,1.422
	l0.141,1.612l-0.094,1.706l-0.234,1.85l-0.518,2.037l-0.093,0.19l-0.143,0.095l-0.188,0.095h-0.282l-0.658-0.047l-0.799-0.096
	l-0.987-0.189l-1.034-0.188l-0.564-0.049l-0.563-0.047h-0.612h-0.563l-0.611,0.047l-0.563,0.096l-0.612,0.142l-0.563,0.189
	l-0.564,0.237l-0.563,0.332l-0.518,0.426l-0.517,0.475l-0.471,0.569l-0.424,0.663l-0.423,0.759l-0.376,0.854l-0.329,0.948
	l-0.234,1.09l-0.235,1.185l-0.188,1.376l-0.047,1.137v1.09l0.142,0.996l0.188,0.9l0.282,0.806l0.376,0.759l0.423,0.617l0.518,0.568
	l0.564,0.474l0.611,0.427l0.658,0.284l0.752,0.237l0.753,0.189l0.846,0.095h0.846l0.894-0.047l0.894-0.143l0.939-0.189l0.94-0.236
	l0.987-0.333l0.987-0.427l0.94-0.426l0.986-0.522l0.988-0.568l0.94-0.663l0.939-0.712l0.94-0.71l0.894-0.806l0.893-0.901l0.847-0.9
	l0.799-0.948l0.8-0.995l2.961-4.125l3.01-4.077l1.551-1.942l1.504-1.991l1.552-1.896l1.505-1.896l1.552-1.85l1.598-1.754
	l1.552-1.754l1.551-1.706l1.599-1.611l1.599-1.612l1.646-1.518l1.599-1.421l1.646-1.375l1.645-1.28l1.646-1.233l1.692-1.137
	l1.693-0.995l1.691-0.996l1.74-0.853l1.739-0.759l1.739-0.616l1.787-0.569l1.786-0.426l1.786-0.332l1.833-0.189l1.834-0.095
	l1.881,0.047L450.887,279.529z M194.718,349.26v112.536l-3.996-1.091l-3.949-1.185l-3.949-1.28l-3.901-1.327l-3.855-1.374
	l-3.808-1.518l-3.808-1.564l-3.761-1.611l-3.713-1.707l-3.667-1.801l-3.62-1.85l-3.62-1.896l-3.526-1.991l-3.526-2.086l-3.432-2.085
	l-3.432-2.229l-3.385-2.228l-3.338-2.323l-3.243-2.37l-3.244-2.465l-3.196-2.513l-3.103-2.56l-3.103-2.654l-3.009-2.702l-2.962-2.75
	l-2.962-2.796l-2.82-2.845l-2.821-2.939l-2.773-2.986l-2.68-2.986l-2.633-3.081l-2.586-3.176l3.008-4.551l3.197-4.693l1.646-2.37
	l1.692-2.371l1.692-2.369l1.786-2.323l1.739-2.322l1.833-2.228l1.833-2.182l1.881-2.086l1.88-2.038l1.881-1.896l1.927-1.802
	l1.927-1.706l1.975-1.518l1.974-1.422l1.976-1.233l1.974-1.041l1.975-0.901l1.975-0.664l2.021-0.474l1.975-0.237l1.975-0.047
	l2.021,0.236l1.975,0.475l1.975,0.758l1.928,1.043l1.974,1.327l1.928,1.659l1.927,1.943l-0.375-0.142l-0.376-0.095l-0.47-0.095
	l-0.517-0.048h-0.517l-0.611,0.048l-0.612,0.047l-0.611,0.095l-0.658,0.143l-0.658,0.143l-0.658,0.189l-0.658,0.236l-0.658,0.285
	l-0.659,0.331l-0.611,0.38l-0.611,0.38l-0.564,0.474l-0.564,0.474l-0.47,0.521l-0.423,0.569l-0.375,0.616l-0.33,0.663l-0.281,0.711
	l-0.188,0.759l-0.094,0.806v0.854l0.094,0.948l0.141,0.947l0.282,0.996l0.423,1.043l0.518,1.138l0.611,1.138l0.705,1.09l0.752,0.901
	l0.799,0.758l0.846,0.521l0.846,0.38l0.893,0.237l0.894,0.047l0.893-0.095l0.94-0.189l0.988-0.332l0.94-0.427l0.987-0.568
	l0.941-0.616l0.987-0.76l0.988-0.805l0.94-0.9l0.987-0.949l0.94-0.948l0.94-1.042l0.894-1.09l0.939-1.091l0.846-1.139l0.846-1.09
	l0.847-1.138l1.551-2.181l1.364-2.086l1.222-1.896l0.987-1.612l0.752-1.138l0.752-0.995l0.846-0.948l0.894-0.853l0.893-0.759
	l0.987-0.663l0.988-0.617l1.033-0.568l1.034-0.475l1.082-0.379l1.129-0.331l1.081-0.285l1.128-0.237l1.176-0.143l1.127-0.141
	l1.176-0.048l1.128-0.048l1.128,0.048l1.175,0.048l1.081,0.141l1.128,0.143l1.081,0.143l1.082,0.236l1.034,0.237l0.987,0.237
	l0.987,0.284l0.894,0.332l0.893,0.285l0.846,0.379l0.799,0.331l0.752,0.332L194.718,349.26z"/>
<path fill-rule="evenodd" clip-rule="evenodd" fill="#FFFFFF" d="M121.865,375.351l-0.718-2.538l-0.01-0.069l-0.352,0.338
	l-1.594,1.646l-1.61,1.744l-1.583,1.843l-1.698,2.063l-1.695,2.104l-1.64,2.131l-1.557,2.081l-1.605,2.292l-1.64,2.298l-1.519,2.23
	l-3.1,4.665l-13.167,19.913l-13.896-16.94l-2.097-2.784l-2.059-2.736l-1.959-2.785l-1.914-2.722l-1.894-2.815l-1.908-2.885
	l-6.118-9.768l7.069-12.002l2.973-4.718l2.89-4.593l2.997-4.433l2.885-4.143l2.94-4.089l2.984-3.824l2.894-3.623l3.015-3.563
	l2.97-3.254l2.995-3.18l3.076-2.939l3.068-2.823l3.218-2.629l3.098-2.356l3.262-2.269l3.256-2.016l3.413-1.899l3.419-1.604
	l3.48-1.452l3.557-1.175l3.52-0.963l3.604-0.751l3.71-0.507l3.631-0.245l3.736-0.063l3.734,0.251l3.583,0.422l3.689,0.67l3.61,0.881
	l3.657,1.07l3.152,1.16l1.15,0.374l0.932,0.294l1.044,0.24l1.257,0.274l1.209,0.188l1.36,0.168l1.645,0.115l1.936,0.13l1.705,0.075
	h4.125l2.002-0.04l2.198-0.128l2.311-0.129l2.356-0.217l17.443-1.569v74.682l-21.352-14.373l-0.076-0.044l-0.374-0.201l-0.443-0.224
	l-0.403-0.19l-0.239-0.102l-0.25-0.088l-0.844-0.257l-0.538-0.18l-0.317-0.073l-0.961-0.211l-0.559-0.117l-0.529-0.069l-0.784-0.1
	l-0.601-0.048l-0.35-0.015l-0.611,0.025l-0.588,0.024l-0.373,0.045l-0.642,0.104l-0.337,0.068l-0.305,0.09l-0.304,0.103
	l-0.305,0.134l-0.321,0.154l-0.009,0.005l-0.177,0.128l-0.395,0.322l-0.155,0.141l-0.241,0.328l-0.484,0.72l-0.916,1.494
	l-1.33,2.063l-1.532,2.344l-1.788,2.514l-1.016,1.365L167,375.422l-1.053,1.416l-1.148,1.332l-0.989,1.208l-1.369,1.518
	l-1.281,1.292l-1.112,1.068l-1.338,1.282l-1.557,1.27L155.604,387l-1.696,1.11l-1.894,1.091l-2.169,0.984l-2.457,0.826l-2.404,0.483
	l-2.602,0.277l-3.391-0.179l-3.334-0.886l-2.665-1.196l-2.801-1.725l-2.392-2.269l-1.781-2.135l-1.45-2.24l-1.082-2.016
	l-0.815-1.793L121.865,375.351z M434.284,300.678l-1.286,0.999l-1.175,1.011l-1.354,1.245l-1.444,1.37l-1.31,1.282l-1.283,1.371
	l-1.365,1.502l-1.433,1.664l-1.373,1.595l-1.398,1.763l-1.501,1.834l-1.405,1.815l-1.455,1.868l-1.407,1.907l-2.991,4.037
	l-3.163,4.434l-1.14,1.419l-1.137,1.35l-1.221,1.299l-1.286,1.298l-1.612,1.454l-1.407,1.063l-1.116,0.845l-1.637,1.154l-1.74,1.002
	l-1.569,0.83l-1.429,0.647l-1.616,0.698l-2.031,0.685l-1.771,0.445l-1.533,0.31l-1.878,0.299l-1.969,0.104h-1.972l-2.524-0.283
	l-2.036-0.514l-1.796-0.566l-2.563-1.106l-2.235-1.562L368,339.802l-1.753-1.926l-1.486-2.166l-1.17-2.36l-0.599-1.713l-1.301,2.52
	l-0.818,1.414l-0.76,1.314l-0.814,1.313l-0.705,1.138l-0.881,1.42l-1.13,1.638l-0.886,1.156l-0.937,1.298l-1.364,1.619l-1.087,1.156
	l-1.054,1.126l-1.6,1.522l-1.548,1.215l-1.248,0.908l-1.764,1.187l-2.479,1.249l-2.099,0.704l-2.609,0.73l-3.097,0.174l-2.43-0.137
	l-2.935-0.521l-3.13-1.227l-2.636-1.563l-1.965-1.611l-1.93-1.856l-1.52-1.804l-1.365-1.834l-1.255-2.11l-1.092-2.323l-0.854-2.727
	l-0.343-2.188l-0.016-0.144l-24.169,27.854v-86.317l8.958-4.633l1.534-0.854l1.725-0.987l1.548-0.867l1.253-0.759l1.451-0.946
	l1.594-1.021l1.387-0.891l1.085-0.741l1.238-0.916l1.184-0.864l1.035-0.82l1.029-0.838l1.021-0.871l0.82-0.724l0.858-0.827
	l3.378-3.265l3.464-3.35l1.844-1.758l1.878-1.74l1.86-1.678l1.892-1.702l2.014-1.708l2.038-1.677l1.963-1.51l2.063-1.588
	l2.179-1.504l2.215-1.469l2.239-1.307l2.217-1.236l2.532-1.241l2.517-1.002l2.465-0.874l2.914-0.793l2.965-0.485l2.796-0.236h3.031
	l3.042,0.342l3.124,0.63l3.221,1.113l2.842,1.35l2.823,1.672l2.67,2.04l2.387,2.188l0.726,0.778l0.412-0.26l2.088-1.417l2.326-1.594
	l1.431-0.981l1.384-0.858l1.175-0.758l1.658-1.029l1.75-0.951l1.599-0.806l1.618-0.752l1.849-0.789l2.398-0.836l2.227-0.499
	l1.924-0.374l2.22-0.257l2.32-0.104l1.803-0.155l2.28-0.239l2.318-0.191l2.179-0.224l2.488-0.251l2.576-0.212l2.771-0.168
	l2.716-0.056h2.682l1.43,0.06l1.368,0.061l1.718,0.145l1.438,0.189l1.326,0.182l1.678,0.295l1.445,0.331l1.643,0.395l1.558,0.523
	l1.373,0.461l1.583,0.639l8.409,3.815l0.918,10.55l0.246,2.826l0.195,2.866l0.204,2.93l0.103,2.986l0.099,2.865l0.048,2.864
	l0.049,2.862v2.53l-0.053,2.552l-0.094,2.275l-0.05,2.414l-0.158,2.562l-0.142,2.228l-0.149,2.416l-1.413,16.711l-15.743-2.32
	l-0.758-0.057l-1.025,0.026l-0.956,0.05l-0.771,0.119l-1.081,0.229l-0.921,0.244l-0.912,0.323l-0.942,0.386l-1.077,0.543
	l-1.181,0.628l-1.137,0.7l-1.131,0.75L434.284,300.678z"/>
<path fill-rule="evenodd" clip-rule="evenodd" fill="#F59E00" d="M195.189,350.248l-0.563-0.379l-0.659-0.379l-0.705-0.38
	l-0.752-0.379l-0.799-0.379l-0.893-0.38l-0.941-0.331l-0.94-0.285l-0.987-0.331l-1.035-0.237l-1.081-0.237l-1.128-0.237
	l-1.082-0.142l-1.128-0.143l-1.175-0.095l-1.175-0.048l-1.175,0.048l-1.128,0.048l-1.175,0.142l-1.175,0.189l-1.176,0.237
	l-1.128,0.331l-1.128,0.38l-1.082,0.474l-1.082,0.521l-1.034,0.616l-0.987,0.712l-0.988,0.806l-0.94,0.854l-0.893,0.995l-0.799,1.09
	l-0.799,1.186l-0.987,1.611l-1.223,1.896l-1.364,2.086l-1.551,2.181l-0.846,1.138l-0.847,1.09l-0.846,1.139l-0.94,1.09l-0.893,1.09
	l-0.94,1.043l-0.94,0.948l-0.987,0.948l-0.94,0.9l-0.987,0.806l-0.987,0.759l-0.941,0.616l-0.987,0.568l-0.94,0.427l-0.988,0.332
	l-0.94,0.189l-0.893,0.095l-0.894-0.047l-0.893-0.237l-0.846-0.38l-0.846-0.521l-0.799-0.759l-0.753-0.901l-0.705-1.09l-0.611-1.137
	l-0.517-1.139l-0.423-1.043l-0.282-0.995l-0.14-0.948l-0.094-0.948v-0.854l0.094-0.806l0.188-0.759l0.282-0.71l0.329-0.664
	l0.376-0.616l0.424-0.568l0.47-0.521l0.564-0.475l0.564-0.474l0.611-0.38l0.611-0.379l0.659-0.332l0.658-0.285l0.659-0.236
	l0.658-0.189l0.659-0.142l0.657-0.143l0.611-0.095l0.612-0.048l0.611-0.047h0.517l0.517,0.047l0.47,0.095l0.376,0.095l0.375,0.143
	l-1.974-1.991l-1.927-1.659l-1.975-1.327l-2.021-1.043l-1.975-0.806l-1.974-0.474l-2.021-0.237l-1.975,0.048l-2.022,0.284
	l-1.974,0.474l-2.021,0.711l-1.975,0.901l-1.975,1.09l-1.974,1.232l-1.975,1.422l-1.974,1.611l-1.927,1.707l-1.928,1.85l-1.88,1.943
	l-1.881,2.038l-1.833,2.133l-1.833,2.228l-1.834,2.275l-1.787,2.323l-1.739,2.323l-1.693,2.417l-1.692,2.37l-1.646,2.418
	l-3.15,4.741l-3.009,4.55l-2.022-2.465l-1.927-2.56l-1.927-2.561l-1.833-2.606l-1.833-2.607l-1.786-2.655l-1.787-2.701l-1.692-2.702
	l2.821-4.788l2.868-4.551l2.773-4.408l2.821-4.172l2.773-3.981l2.727-3.792l2.774-3.556l2.727-3.413l2.727-3.224l2.726-2.986
	l2.68-2.845l2.727-2.606l2.68-2.466l2.727-2.228l2.679-2.038l2.727-1.896l2.68-1.659l2.727-1.517l2.727-1.28l2.726-1.138l2.727-0.9
	l2.774-0.759l2.727-0.568l2.774-0.38l2.821-0.189l2.82-0.047l2.821,0.189l2.82,0.332l2.868,0.521l2.914,0.712l2.916,0.853
	l2.961,1.091l1.458,0.474l1.504,0.475l1.645,0.379l1.74,0.38l1.833,0.284l1.928,0.237l2.021,0.142l2.115,0.142l2.163,0.096h2.256
	h2.304l2.397-0.048l2.444-0.142l2.539-0.143l2.586-0.237l2.632-0.237V350.248z M450.982,239.939l0.234,2.702l0.235,2.702l0.188,2.75
	l0.188,2.702l0.094,2.75l0.095,2.749l0.047,2.749l0.047,2.749v2.276l-0.047,2.275l-0.094,2.275l-0.048,2.275l-0.141,2.275
	l-0.142,2.228l-0.14,2.275l-0.189,2.229l-1.927-0.284l-1.928-0.143l-1.88,0.048l-1.834,0.095l-1.833,0.284l-1.787,0.379
	l-1.786,0.474l-1.74,0.616l-1.739,0.712l-1.692,0.853l-1.692,0.901l-1.692,1.042l-1.645,1.091l-1.646,1.232l-1.646,1.28
	l-1.598,1.375l-1.599,1.469l-1.599,1.517l-1.599,1.564l-1.551,1.66l-1.551,1.706l-1.552,1.801l-1.552,1.802l-1.504,1.896
	l-1.552,1.896l-1.505,1.942l-1.551,1.991l-1.504,2.039l-3.057,4.124l-3.009,4.219l-0.8,0.995l-0.798,0.948l-0.847,0.9l-0.894,0.901
	l-0.893,0.806l-0.94,0.711l-0.94,0.711l-0.94,0.663l-0.987,0.569l-0.987,0.521l-0.939,0.427l-0.988,0.426l-0.986,0.333l-0.941,0.236
	l-0.939,0.19l-0.894,0.142l-0.894,0.047h-0.846l-0.846-0.094l-0.752-0.19l-0.753-0.237l-0.658-0.283l-0.611-0.428l-0.564-0.474
	l-0.517-0.568l-0.423-0.617l-0.377-0.759l-0.281-0.805l-0.188-0.901l-0.141-0.995v-1.09l0.047-1.138l0.188-1.375l0.235-1.186
	l0.235-1.09l0.329-0.948l0.376-0.853l0.423-0.76l0.424-0.663l0.47-0.568l0.518-0.475l0.517-0.427l0.564-0.332l0.564-0.236
	l0.563-0.19l0.611-0.142l0.564-0.095l0.61-0.048h0.564h0.611l0.564,0.048l0.563,0.048l1.034,0.188l0.987,0.19l0.8,0.095l0.658,0.048
	h0.282l0.188-0.096l0.142-0.095l0.093-0.189l0.518-2.038l0.235-1.849l0.094-1.707l-0.141-1.611l-0.282-1.423l-0.471-1.279
	l-0.657-1.186l-0.8-0.995l-0.894-0.854l-1.033-0.711l-1.176-0.568l-1.27-0.475l-1.363-0.284l-1.41-0.143h-1.505l-1.599,0.096
	l-1.598,0.284l-1.646,0.379l-1.692,0.521l-1.692,0.711l-1.692,0.806l-1.692,0.948l-1.646,1.043l-1.646,1.232l-1.599,1.375
	l-1.505,1.469l-1.504,1.612l-1.362,1.755l-1.317,1.896l-1.223,1.99l-1.128,2.181l-0.987,2.276l-0.704,1.753l-0.895,1.991
	l-1.034,2.181l-1.175,2.275l-0.658,1.138l-0.658,1.138l-0.705,1.138l-0.705,1.138l-0.705,1.138l-0.753,1.09l-0.799,1.044
	l-0.752,1.042l-0.799,0.948l-0.848,0.9l-0.799,0.854l-0.846,0.806l-0.846,0.664l-0.847,0.616l-0.847,0.569l-0.846,0.426
	l-0.847,0.284l-0.847,0.237l-0.846,0.048l-0.846-0.048l-0.799-0.142l-0.847-0.332l-0.799-0.474l-0.753-0.617l-1.033-0.995
	l-0.8-0.948l-0.705-0.948l-0.564-0.947l-0.423-0.901l-0.282-0.9l-0.141-0.9l-0.095-0.854l0.047-0.854l0.142-0.806l0.235-0.806
	l0.281-0.759l0.377-0.711l0.423-0.711l0.518-0.664l0.563-0.663l0.564-0.616l0.61-0.569l0.658-0.569l0.658-0.474l0.658-0.474
	l0.706-0.427l0.657-0.379l0.658-0.332l0.658-0.284l0.611-0.285l0.564-0.189l0.564-0.142l0.47-0.095l0.423-0.048l0.376,0.048
	l0.282,0.047l-1.598-0.759l-1.552-0.711l-1.505-0.616l-1.504-0.521l-1.458-0.474l-1.457-0.427l-1.41-0.284l-1.363-0.285
	l-1.316-0.189l-1.316-0.142l-1.27-0.048h-1.27l-1.222,0.048l-1.176,0.095l-1.175,0.189l-1.129,0.189l-1.081,0.285l-1.034,0.284
	l-1.081,0.379l-0.987,0.379l-0.987,0.427l-0.94,0.475l-0.894,0.521l-0.894,0.568l-0.846,0.569l-0.847,0.615l-0.799,0.664
	l-0.752,0.664l-0.752,0.711l-0.705,0.711l-0.705,0.712l-0.658,0.758v-41.811l1.833-0.948l1.787-0.995l1.738-0.995l1.693-0.948
	l1.646-0.996l1.599-1.042l1.551-0.995l1.552-0.996l1.457-0.995l1.41-1.043l1.363-0.996l1.316-1.042l1.223-0.996l1.222-1.043
	l1.129-0.995l1.082-1.043l3.385-3.271l3.432-3.318l1.739-1.659l1.739-1.611l1.786-1.611l1.739-1.564l1.787-1.517l1.786-1.471
	l1.786-1.374l1.787-1.375l1.786-1.232l1.786-1.185l1.787-1.043l1.786-0.996l1.739-0.853l1.787-0.711l1.738-0.616l1.74-0.474
	l1.739-0.284l1.692-0.143h1.692l1.692,0.19l1.646,0.332l1.646,0.569l1.598,0.758l1.6,0.948l1.551,1.185l1.552,1.422l1.504,1.612
	l1.458,1.896l0.705,0.9l0.8,0.711l0.799,0.569l0.846,0.427l0.846,0.237l0.894,0.142h0.94l0.94-0.142l0.987-0.237l0.987-0.332
	l1.034-0.427l1.081-0.521l1.034-0.569l1.129-0.616l1.081-0.712l1.128-0.711l2.304-1.564l2.351-1.611l1.175-0.806l1.223-0.758
	l1.175-0.759l1.223-0.758l1.223-0.664l1.222-0.616l1.223-0.569l1.223-0.521l1.223-0.426l1.27-0.285l1.222-0.237l1.223-0.142
	l2.115-0.095l2.21-0.189l2.256-0.237l2.304-0.19l2.304-0.236l2.35-0.237l2.305-0.19l2.351-0.142l2.304-0.047h2.257l1.128,0.047
	l1.081,0.047l1.129,0.095l1.081,0.142l1.033,0.142l1.082,0.19l1.034,0.237l0.987,0.237l0.987,0.331l0.987,0.332l0.94,0.379
	L450.982,239.939z"/>
<path fill-rule="evenodd" clip-rule="evenodd" fill="#E3090F" d="M292.738,453.889l-18.146-18.677h-53.029l-18.146,17.35v12.704
	l17.253-17.729v0.38h53.923l18.146,18.677V453.889z M292.738,396.009l-18.146-18.677h-53.029l-18.146,17.35v12.704l17.253-17.729
	v0.38h53.923l18.146,18.677V396.009z M243.752,403.214h7.287v15.359h-7.287V403.214z M243.752,345.761h7.287v15.359h-7.287V345.761z
	 M292.738,338.556l-18.146-18.678h-53.029l-18.146,17.351v12.751l17.253-17.729v0.379h53.923l18.146,18.63V338.556z
	 M243.752,227.821h7.287v15.359h-7.287V227.821z M292.738,220.616l-18.146-18.677h-53.029l-18.146,17.35v12.704l17.253-17.729v0.379
	h53.923l18.146,18.677V220.616z M243.752,286.554h7.287v15.358h-7.287V286.554z M292.738,279.349l-18.146-18.63l-53.029-0.475
	l-18.146,17.824v12.704l17.253-17.729v0.379h53.923l18.146,18.677V279.349z"/>
<path d="M293.976,484.652v2.368c0,2.012-0.381,3.64-1.141,4.903c-0.761,1.262-1.92,2.199-3.488,2.791
	c1.901,0.603,3.26,1.549,4.087,2.861s1.235,3.177,1.235,5.604v1.964c0,4.37-0.77,7.468-2.3,9.293s-4.115,2.732-7.756,2.732
	c-3.764,0-6.378-0.799-7.832-2.388c-1.454-1.588-2.205-4.508-2.243-8.74v-0.553h8.107v1.47c0,2.142,0.143,3.522,0.428,4.153
	c0.295,0.622,0.808,0.938,1.55,0.938c0.731,0,1.254-0.354,1.549-1.056c0.294-0.7,0.446-2.042,0.446-4.035v-4.183
	c0-1.806-0.266-3.048-0.808-3.729c-0.532-0.671-1.53-1.006-2.994-1.006h-0.76v-6.561h0.703c1.312,0,2.205-0.286,2.671-0.868
	c0.465-0.582,0.693-1.736,0.693-3.473v-2.486c0-1.983-0.143-3.325-0.418-4.024c-0.275-0.701-0.751-1.056-1.426-1.056
	c-0.685,0-1.169,0.364-1.464,1.095c-0.285,0.729-0.427,2.062-0.427,3.985v0.435h-7.852v-0.435c0-3.848,0.703-6.501,2.12-7.941
	c1.406-1.45,3.954-2.171,7.622-2.171c3.66,0,6.188,0.73,7.595,2.181C293.272,478.18,293.976,480.824,293.976,484.652
	 M269.796,485.727v0.602c0,1.904-0.267,3.69-0.808,5.338c-0.542,1.647-1.445,3.413-2.729,5.298l-8.973,13.21h13.174v6.274h-21.3
	v-7.686l9.267-14.049c1.083-1.608,1.9-3.117,2.472-4.558c0.561-1.43,0.846-2.713,0.846-3.828v-1.677
	c0-2.063-0.143-3.424-0.428-4.085c-0.295-0.66-0.817-0.995-1.578-0.995c-0.703,0-1.197,0.345-1.492,1.035
	c-0.285,0.7-0.428,2.042-0.428,4.045v1.677h-8.05v-0.602c0-4.223,0.731-7.143,2.206-8.761c1.463-1.617,4.077-2.427,7.851-2.427
	c3.754,0,6.349,0.8,7.794,2.397C269.073,478.536,269.796,481.465,269.796,485.727z M236.605,484.711
	c0-2.111-0.133-3.492-0.399-4.124c-0.275-0.642-0.76-0.957-1.463-0.957c-0.703,0-1.198,0.355-1.474,1.056
	c-0.275,0.7-0.418,2.042-0.418,4.025v5.751c0,2.111,0.133,3.493,0.399,4.124c0.275,0.642,0.77,0.957,1.492,0.957
	c0.685,0,1.169-0.365,1.445-1.085c0.275-0.721,0.418-2.053,0.418-3.996V484.711z M244.599,487.799v16.1
	c0,5.032-0.731,8.505-2.186,10.408c-1.454,1.904-4.04,2.861-7.756,2.861c-3.726,0-6.301-0.72-7.727-2.17
	c-1.416-1.44-2.129-4.104-2.129-7.972v-0.986h8.05v0.986c0,2.111,0.133,3.482,0.399,4.095c0.275,0.621,0.77,0.927,1.492,0.927
	c0.685,0,1.169-0.354,1.445-1.065c0.275-0.72,0.418-2.032,0.418-3.956v-8.326c-0.685,0.938-1.473,1.637-2.366,2.091
	c-0.894,0.454-1.93,0.681-3.118,0.681c-2.224,0-3.849-0.729-4.857-2.18c-1.017-1.46-1.521-3.818-1.521-7.073v-4.42
	c0-5.021,0.732-8.495,2.186-10.398c1.455-1.904,4.03-2.861,7.727-2.861c3.717,0,6.302,0.957,7.756,2.861
	C243.867,479.304,244.599,482.778,244.599,487.799z M207.169,475.201h6.739v41.248h-7.69v-30.662
	c-0.665,0.71-1.388,1.321-2.167,1.845c-0.789,0.522-1.635,0.957-2.566,1.303v-7.399c1.378-0.81,2.538-1.746,3.498-2.802
	C205.934,477.667,206.666,476.493,207.169,475.201z"/>
<path d="M488.949,134.605l7.439-2.975l3.091,6.232l-7.441,2.975L488.949,134.605z M444.076,150.372l39.354-15.735l4.846,9.774
	l-39.354,15.735L444.076,150.372z M438.784,118.995l-0.245,0.137c-1.657,0.93-2.645,2.097-2.998,3.498
	c-0.345,1.397,0.001,2.84,1.031,4.32c1.231,1.77,2.494,2.909,3.79,3.437c1.292,0.521,2.584,0.419,3.895-0.317
	c1.86-1.043,1.991-3.778,0.386-8.198c-0.379-1.033-0.659-1.826-0.86-2.367c-1.718-5.054-2.298-8.793-1.734-11.21
	c0.572-2.422,2.311-4.452,5.235-6.094c3.204-1.798,6.68-2.007,10.443-0.635c3.756,1.376,7.076,4.138,9.955,8.276
	c3.054,4.389,4.467,8.209,4.224,11.46c-0.241,3.25-2.138,5.865-5.671,7.849l-0.617,0.347l-6.346-9.119l0.179-0.1
	c1.496-0.839,2.397-1.842,2.698-2.982c0.294-1.146-0.035-2.397-0.971-3.742c-0.919-1.321-2.005-2.19-3.258-2.605
	c-1.248-0.408-2.441-0.298-3.565,0.333c-1.826,1.024-1.713,4.297,0.345,9.805c0.557,1.46,0.979,2.607,1.264,3.439
	c1.213,3.5,1.474,6.426,0.782,8.778c-0.696,2.344-2.395,4.279-5.108,5.802c-3.729,2.093-7.493,2.41-11.276,0.944
	c-3.783-1.467-7.38-4.643-10.787-9.54c-3.097-4.449-4.396-8.429-3.903-11.946c0.491-3.517,2.752-6.401,6.785-8.664L438.784,118.995z
	 M395.074,91.859l31.505-26.384l21.669,20.868l-6.045,5.062l-13.74-13.233l-6.431,5.385l13.088,12.604l-6.001,5.025l-13.088-12.604
	l-6.729,5.636l14.142,13.619l-6.3,5.276L395.074,91.859z M368.765,73.684l9.065-11.206l2.955-28.771l11.268,7.352l-3.21,18.423
	l18.55-8.415l9.921,6.473l-29.879,11.724l-8.79,10.865L368.765,73.684z M364.704,21.419l3.698-6.518l6.769,3.097l-3.698,6.518
	L364.704,21.419z M340.881,59.031l19.557-34.47l10.615,4.857l-19.557,34.471L340.881,59.031z M309.598,6.754l16.301,5.328
	c7.889,2.579,13.186,6.025,15.887,10.328c2.701,4.304,2.814,9.495,0.35,15.578c-2.466,6.083-6.265,9.986-11.41,11.715
	c-5.149,1.738-11.671,1.311-19.56-1.267l-16.301-5.328L309.598,6.754z M318.063,17.305l-9.142,22.556l3.981,1.301
	c4.609,1.507,8.293,1.71,11.051,0.611c2.759-1.1,4.939-3.626,6.545-7.588c1.613-3.98,1.758-7.191,0.43-9.645
	c-1.329-2.455-4.293-4.434-8.884-5.934L318.063,17.305z M255.832,38.54l5.25-38.398l31.535,3.477l-1.007,7.367l-19.998-2.205
	l-1.071,7.837l19.048,2.1l-1,7.314l-19.048-2.1l-1.122,8.202l20.582,2.27l-1.05,7.678L255.832,38.54z M219.502,39.037l-1.504-38.663
	L229.905,0l1.213,31.192l19.12-0.6l0.29,7.472L219.502,39.037z M181.017,46.307L170.596,8.77l30.829-6.903l1.999,7.202l-19.55,4.377
	l2.127,7.662l18.622-4.169l1.985,7.15l-18.622,4.169l2.227,8.018l20.12-4.505l2.084,7.505L181.017,46.307z M140.916,59.316
	l-16.137-35.87l14.975-5.434c6.026-2.187,10.822-3.048,14.382-2.592c3.555,0.468,6.046,2.277,7.469,5.44
	c0.949,2.109,1.014,4.094,0.201,5.943c-0.813,1.85-2.511,3.596-5.098,5.23c3.529-0.663,6.405-0.557,8.641,0.302
	s3.894,2.489,4.98,4.904c1.475,3.279,1.283,6.197-0.569,8.772c-1.866,2.569-5.409,4.802-10.642,6.7L140.916,59.316z M142.017,34.11
	l4.28-1.553c2.385-0.865,3.973-1.828,4.778-2.883c0.805-1.055,0.9-2.277,0.272-3.672c-0.601-1.337-1.623-2.125-3.076-2.37
	c-1.455-0.245-3.323,0.047-5.597,0.872l-4.28,1.553L142.017,34.11z M148.68,48.92l4.279-1.553c2.69-0.976,4.474-2.029,5.357-3.151
	c0.882-1.122,0.97-2.457,0.271-4.009c-0.65-1.444-1.738-2.286-3.278-2.529c-1.539-0.242-3.618,0.106-6.234,1.056l-4.28,1.553
	L148.68,48.92z M92.315,88.955L65.793,58.469l25.038-17.567l5.088,5.849l-15.876,11.14l5.414,6.223l15.123-10.611l5.052,5.807
	L90.507,69.92l5.666,6.512l16.34-11.465l5.303,6.096L92.315,88.955z M66.989,112.387L35.484,86.002l8.125-7.825l25.417,21.287
	l13.048-12.566l6.088,5.099L66.989,112.387z M17.059,100.616l-6.671-4.195l4.357-5.588l6.672,4.195L17.059,100.616z M55.218,127.038
	l-35.288-22.19l6.833-8.764l35.288,22.189L55.218,127.038z M50.1,158.048l-3.593-1.574c1.058-1.07,1.996-2.124,2.801-3.156
	c0.809-1.02,1.428-1.935,1.864-2.74c0.376-0.692,0.499-1.266,0.374-1.729c-0.135-0.467-0.518-0.844-1.163-1.127
	c-0.583-0.255-1.126-0.214-1.63,0.123c-0.5,0.329-1.028,0.994-1.566,1.984c-0.179,0.329-0.319,0.587-0.415,0.784
	c-0.092,0.189-0.166,0.366-0.235,0.534l-5.604-2.425l1.473-2.712l2.204,0.965l0.232-0.426c0.957-1.763,2.13-2.922,3.52-3.479
	c1.381-0.561,2.884-0.49,4.497,0.216c1.747,0.766,2.816,1.882,3.198,3.344c0.391,1.466,0.066,3.147-0.965,5.046
	c-0.507,0.934-1.169,1.928-1.996,2.98C52.272,155.722,51.273,156.849,50.1,158.048z M26.729,146.446l0.26,0.114
	c1.757,0.77,3.38,0.903,4.891,0.43c1.502-0.478,2.681-1.505,3.533-3.074c1.019-1.875,1.425-3.44,1.237-4.708
	c-0.192-1.26-0.974-2.19-2.362-2.798c-1.972-0.863-4.623,0.485-7.946,4.05c-0.775,0.836-1.375,1.47-1.78,1.91
	c-3.862,3.986-7.086,6.41-9.667,7.261c-2.59,0.847-5.429,0.6-8.529-0.758c-3.396-1.487-5.435-4.024-6.134-7.617
	c-0.691-3.59,0.157-7.582,2.539-11.967c2.526-4.651,5.386-7.752,8.583-9.29c3.198-1.538,6.672-1.48,10.417,0.16l0.654,0.287
	l-5.249,9.665l-0.188-0.083c-1.586-0.695-3.01-0.85-4.246-0.475c-1.239,0.383-2.246,1.297-3.019,2.722
	c-0.761,1.4-1.005,2.687-0.734,3.862c0.276,1.167,1.012,2.017,2.204,2.539c1.936,0.848,4.965-0.973,9.076-5.458
	c1.084-1.199,1.943-2.127,2.578-2.786c2.663-2.778,5.288-4.527,7.875-5.247c2.583-0.711,5.31-0.443,8.187,0.816
	c3.951,1.731,6.246,4.429,6.866,8.088c0.619,3.658-0.473,8.081-3.292,13.271c-2.561,4.715-5.631,7.814-9.213,9.303
	c-3.581,1.489-7.502,1.295-11.777-0.577L26.729,146.446z"/>
</svg>
