<?xml version="1.0" encoding="utf-8"?>
<!-- Generator: Adobe Illustrator 16.0.0, SVG Export Plug-In . SVG Version: 6.00 Build 0)  -->
<!DOCTYPE svg PUBLIC "-//W3C//DTD SVG 1.1//EN" "http://www.w3.org/Graphics/SVG/1.1/DTD/svg11.dtd">
<svg version="1.1" id="Layer_1" xmlns="http://www.w3.org/2000/svg" xmlns:xlink="http://www.w3.org/1999/xlink" x="0px" y="0px"
	 width="241.277px" height="212.366px" viewBox="0 0 241.277 212.366" enable-background="new 0 0 241.277 212.366"
	 xml:space="preserve">
<g>
	<defs>
		<rect id="SVGID_1_" x="-185.058" y="-83.802" width="595.276" height="841.89"/>
	</defs>
	<clipPath id="SVGID_2_">
		<use xlink:href="#SVGID_1_"  overflow="visible"/>
	</clipPath>
	<path clip-path="url(#SVGID_2_)" fill="#00ACC8" d="M65.726,91.825c23.768-0.13-0.265,15.311,35.955,23.062
		c10.475,2.629,17.483,8.406,17.362,24.04h-16.04v-0.129C103.799,115.699,65.726,132.83,65.726,91.825"/>
	<polygon clip-path="url(#SVGID_2_)" fill="#00ACC8" points="96.404,50.982 86.869,50.982 86.869,22.512 96.404,18.7 	"/>
	<polygon clip-path="url(#SVGID_2_)" fill="#00ACC8" points="110.091,3.069 110.091,56.15 119.624,58.948 119.624,0.001 	"/>
	<path clip-path="url(#SVGID_2_)" fill="#00ACC8" d="M138.275,138.928h-16.04c-0.122-15.634,6.887-21.411,17.362-24.04
		c36.22-7.752,12.187-23.192,35.955-23.062c0,41.005-38.073,23.873-37.277,46.972V138.928z"/>
	<polygon clip-path="url(#SVGID_2_)" fill="#00ACC8" points="142.846,48.235 133.311,48.235 133.311,22.512 142.846,18.7 	"/>
	<path clip-path="url(#SVGID_2_)" fill="#00567D" d="M150.208,89.388c0,0-0.376,7.438-9.671,9.774
		c-2.581-0.09-15.673,0.09-15.673,0.09v-7.478c2.127-8.486,9.548-9.493,11.516-9.384c1.342-0.086,13.828-0.025,13.828-0.025V89.388z
		 M150.208,62.285c0,0-0.376,7.438-9.671,9.773c-2.581-0.089-6.823,0.091-6.823,0.091s-4.786-0.713-8.85,3.983
		c0-0.894,0.028-6.458,0-10.454c0.911-8.251,9.548-9.494,11.516-9.383c1.342-0.088,13.828-0.029,13.828-0.029V62.285z
		 M116.415,99.252c0,0-13.092-0.18-15.674-0.09c-9.294-2.336-9.67-9.774-9.67-9.774v-7.023c0,0,12.485-0.061,13.827,0.025
		c1.968-0.109,9.389,0.898,11.517,9.384V99.252z M116.415,76.132c-3.7-4.132-8.851-3.983-8.851-3.983s-4.241-0.18-6.823-0.091
		c-9.294-2.336-9.67-9.773-9.67-9.773v-6.019c0,0,12.485-0.059,13.827,0.029c1.968-0.111,10.411,1.326,11.517,9.383
		C116.48,70.52,116.415,75.31,116.415,76.132 M158.636,73.615c0,0-3.219,0.013-3.917,0.013c3.939-3.623,3.937-9.271,3.937-9.271
		V46.944c0,0-0.866,0.018-1.966,0.008h-2.258V22.511l-9.534-3.812v28.253h-10.769c-0.792,0-1.815,0.147-2.941,0.422V3.069L121.653,0
		v52.844c-0.363,0.421-0.723,0.844-1.014,1.311c-2.951-4.721-9.049-7.109-12.673-7.187V22.511l-9.534-3.812v28.253H84.482
		c-1.099,0.01-1.859,0.005-1.859,0.005v15.715c0,0-0.003,7.32,3.937,10.943h-3.937l-0.021,15.9c0,0,0.797,17.509,19.129,18.974
		c2.065,0.164,9.712,0.179,14.684,0.17v8.599h8.449v-8.599c4.972,0.009,12.618-0.006,14.684-0.17
		c18.331-1.465,19.107-19.068,19.107-19.068L158.636,73.615z"/>
	<polygon clip-path="url(#SVGID_2_)" fill="#00567D" points="62.219,203.191 70.908,203.191 70.908,198.789 62.219,198.789 
		62.219,194.628 72.545,194.628 72.545,190.194 56.923,190.194 56.923,211.999 72.604,211.999 72.604,207.534 62.219,207.534 	"/>
	<polygon clip-path="url(#SVGID_2_)" fill="#00567D" points="81.202,190.195 75.906,190.195 75.906,211.999 91.319,211.999 
		91.319,207.534 81.202,207.534 	"/>
	<polygon clip-path="url(#SVGID_2_)" fill="#00567D" points="99.114,203.191 107.803,203.191 107.803,198.789 99.114,198.789 
		99.114,194.628 109.44,194.628 109.44,190.194 93.818,190.194 93.818,211.999 109.499,211.999 109.499,207.534 99.114,207.534 	"/>
	<polygon clip-path="url(#SVGID_2_)" fill="#00567D" points="150.322,198.697 146.096,190.196 140.532,190.196 147.525,203.375 
		147.525,211.999 152.791,211.999 152.791,203.405 159.783,190.196 154.547,190.196 	"/>
	<polygon clip-path="url(#SVGID_2_)" fill="#00567D" points="166.864,203.191 175.554,203.191 175.554,198.789 166.864,198.789 
		166.864,194.628 177.19,194.628 177.19,190.194 161.568,190.194 161.568,211.999 177.249,211.999 177.249,207.534 166.864,207.534 
			"/>
	<path clip-path="url(#SVGID_2_)" fill="#00567D" d="M191.353,199.125c-0.535-0.152-2.618-0.704-3.124-0.856
		c-1.577-0.428-2.856-0.673-2.856-2.049c0-1.468,1.339-2.11,2.886-2.11c1.667,0,3.452,0.703,4.434,2.079l3.452-2.965
		c-1.696-2.325-4.256-3.395-7.975-3.395c-4.731,0-8.034,2.936-8.034,7.033c0,3.7,2.53,5.321,5.475,6.085
		c0.715,0.184,3.154,0.857,3.69,1.071c1.07,0.428,1.934,0.825,1.934,2.018c0,1.529-1.756,2.08-3.332,2.08
		c-2.232,0-4.314-1.193-5.386-2.783l-3.362,3.119c2.023,2.875,5.267,3.914,8.985,3.914c4.374,0,8.54-2.354,8.54-7.125
		C196.679,201.724,194.477,200.012,191.353,199.125"/>
	<rect x="199.386" y="196.362" clip-path="url(#SVGID_2_)" fill="#00567D" width="5.325" height="15.637"/>
	<rect x="199.385" y="189.829" clip-path="url(#SVGID_2_)" fill="#00567D" width="5.326" height="3.99"/>
	<rect x="133.339" y="196.362" clip-path="url(#SVGID_2_)" fill="#00567D" width="5.325" height="15.637"/>
	<rect x="133.412" y="189.829" clip-path="url(#SVGID_2_)" fill="#00567D" width="5.327" height="3.99"/>
	<path clip-path="url(#SVGID_2_)" fill="#00567D" d="M50.466,200.685v-0.062c2.232-0.886,3.184-2.844,3.184-4.892
		c0-3.333-2.173-5.535-6.337-5.535H36.512v21.803H47.61c3.898,0,6.486-2.63,6.486-6.238
		C54.096,203.466,52.846,201.357,50.466,200.685 M41.807,194.415h3.928c1.369,0,2.649,0.49,2.649,2.111
		c0,1.376-0.864,2.355-2.53,2.355h-4.047V194.415z M46.033,207.717h-4.226v-4.771h4.196c1.756,0,2.708,0.857,2.708,2.294
		C48.711,206.708,47.729,207.717,46.033,207.717"/>
	<path clip-path="url(#SVGID_2_)" fill="#00567D" d="M121.639,190.195h-8.837v21.803h8.896c4.464,0,8.628-2.568,8.628-7.981v-6.146
		C130.325,192.794,126.368,190.195,121.639,190.195 M124.971,204.078c0,2.233-1.666,3.487-3.6,3.487h-3.273V194.66h3.124
		c2.112,0,3.779,1.284,3.779,3.424L124.971,204.078z"/>
	<path clip-path="url(#SVGID_2_)" fill="#00567D" d="M33.836,153.441l-9.662,26.154h6.531l1.68-4.873h9.738l1.642,4.873h6.95
		l-9.546-26.154H33.836z M34.027,169.595l3.169-9.451h0.115l3.132,9.451H34.027z"/>
	<polygon clip-path="url(#SVGID_2_)" fill="#00567D" points="162.266,169.046 173.417,169.046 173.417,163.771 162.266,163.771 
		162.266,158.79 175.517,158.79 175.517,153.478 155.468,153.478 155.468,179.595 175.594,179.595 175.594,174.248 162.266,174.248 
			"/>
	<polygon clip-path="url(#SVGID_2_)" fill="#00567D" points="195.527,163.515 186.629,163.515 186.629,153.478 179.831,153.478 
		179.831,179.595 186.629,179.595 186.629,169.192 195.527,169.192 195.527,179.595 202.364,179.595 202.364,153.478 
		195.527,153.478 	"/>
	<path clip-path="url(#SVGID_2_)" fill="#00567D" d="M235.015,169.412c3.552-1.391,5.155-4.505,5.155-7.693
		c0-2.6-1.107-5.017-3.208-6.483c-1.718-1.208-3.818-1.758-6.53-1.758h-11.915v26.117h6.836v-9.231h3.094l5.385,9.231h7.446
		L235.015,169.412z M229.553,165.529h-4.238v-6.923h4.238c2.293,0,3.973,1.026,3.973,3.443
		C233.525,164.174,231.997,165.529,229.553,165.529"/>
	<path clip-path="url(#SVGID_2_)" fill="#00567D" d="M17.912,166.042v-0.074c2.864-1.062,4.085-3.406,4.085-5.861
		c0-3.992-2.787-6.629-8.134-6.629H0v26.116h14.245c5.003,0,8.326-3.15,8.326-7.472C22.571,169.375,20.966,166.849,17.912,166.042
		 M6.799,158.532h5.041c1.756,0,3.399,0.587,3.399,2.528c0,1.649-1.108,2.82-3.247,2.82H6.799V158.532z M12.221,174.467H6.799
		v-5.715h5.384c2.253,0,3.476,1.026,3.476,2.747C15.659,173.258,14.398,174.467,12.221,174.467"/>
	<path clip-path="url(#SVGID_2_)" fill="#00567D" d="M85.162,153.441L75.5,179.595h6.531l1.68-4.873h9.739l1.642,4.873h6.949
		l-9.547-26.154H85.162z M85.353,169.595l3.17-9.451h0.115l3.131,9.451H85.353z"/>
	<polygon clip-path="url(#SVGID_2_)" fill="#00567D" points="128.202,153.478 120.945,153.478 111.512,165.309 111.512,153.478 
		104.677,153.478 104.677,179.595 111.512,179.595 111.512,171.976 114.759,168.459 121.099,179.595 128.697,179.595 
		119.571,163.954 	"/>
	<rect x="207.022" y="161.212" clip-path="url(#SVGID_2_)" fill="#00567D" width="6.836" height="18.383"/>
	<path clip-path="url(#SVGID_2_)" fill="#00567D" d="M67.213,164.174c-0.687-0.184-3.36-0.843-4.01-1.026
		c-2.023-0.513-3.665-0.807-3.665-2.454c0-1.758,1.718-2.527,3.704-2.527c2.138,0,4.429,0.841,5.69,2.49l4.429-3.553
		c-2.176-2.784-5.461-4.066-10.233-4.066c-6.073,0-10.311,3.517-10.311,8.425c0,4.433,3.245,6.374,7.026,7.29
		c0.917,0.219,4.048,1.025,4.735,1.282c1.375,0.512,2.483,0.988,2.483,2.417c0,1.831-2.254,2.491-4.278,2.491
		c-2.863,0-5.537-1.429-6.912-3.333l-4.315,3.736c2.057,2.728,5.106,4.061,8.655,4.504v2.989h5.301v-2.993
		c4.636-0.704,8.537-3.466,8.537-8.346C74.049,167.288,71.223,165.236,67.213,164.174"/>
	<path clip-path="url(#SVGID_2_)" fill="#00567D" d="M145.156,164.174c-0.687-0.184-3.359-0.843-4.01-1.026
		c-2.023-0.513-3.665-0.807-3.665-2.454c0-1.758,1.718-2.527,3.704-2.527c2.138,0,4.43,0.841,5.69,2.49l4.43-3.553
		c-2.177-2.784-5.461-4.066-10.234-4.066c-6.072,0-10.311,3.517-10.311,8.425c0,4.433,3.245,6.374,7.026,7.29
		c0.915,0.219,4.048,1.025,4.735,1.282c1.374,0.512,2.482,0.988,2.482,2.417c0,1.831-2.254,2.491-4.278,2.491
		c-2.864,0-5.537-1.429-6.912-3.333l-4.315,3.736c2.007,2.661,4.955,3.999,8.392,4.474v3.019h5.301v-2.95
		c4.751-0.637,8.802-3.416,8.802-8.389C151.993,167.288,149.167,165.236,145.156,164.174"/>
	<rect x="207.021" y="153.478" clip-path="url(#SVGID_2_)" fill="#00567D" width="6.837" height="4.922"/>
</g>
<g>
	<defs>
		<rect id="SVGID_3_" x="-185.058" y="-83.802" width="595.276" height="841.89"/>
	</defs>
	<clipPath id="SVGID_4_">
		<use xlink:href="#SVGID_3_"  overflow="visible"/>
	</clipPath>
</g>
<g>
	<defs>
		<rect id="SVGID_5_" x="-185.058" y="-83.802" width="595.276" height="841.89"/>
	</defs>
	<clipPath id="SVGID_6_">
		<use xlink:href="#SVGID_5_"  overflow="visible"/>
	</clipPath>
</g>
<g>
	<defs>
		<rect id="SVGID_7_" x="-185.058" y="-83.802" width="595.276" height="841.89"/>
	</defs>
	<clipPath id="SVGID_8_">
		<use xlink:href="#SVGID_7_"  overflow="visible"/>
	</clipPath>
</g>
<g>
	<defs>
		<rect id="SVGID_9_" x="-185.058" y="-83.802" width="595.276" height="841.89"/>
	</defs>
	<clipPath id="SVGID_10_">
		<use xlink:href="#SVGID_9_"  overflow="visible"/>
	</clipPath>
</g>
<g>
	<defs>
		<rect id="SVGID_11_" x="-185.058" y="-83.802" width="595.276" height="841.89"/>
	</defs>
	<clipPath id="SVGID_12_">
		<use xlink:href="#SVGID_11_"  overflow="visible"/>
	</clipPath>
</g>
</svg>
