<?xml version="1.0" encoding="utf-8"?>
<!-- Generator: Adobe Illustrator 16.0.0, SVG Export Plug-In . SVG Version: 6.00 Build 0)  -->
<!DOCTYPE svg PUBLIC "-//W3C//DTD SVG 1.1//EN" "http://www.w3.org/Graphics/SVG/1.1/DTD/svg11.dtd">
<svg version="1.1" id="Layer_1" xmlns="http://www.w3.org/2000/svg" xmlns:xlink="http://www.w3.org/1999/xlink" x="0px" y="0px"
	 width="108.636px" height="108.636px" viewBox="0 0 108.636 108.636" enable-background="new 0 0 108.636 108.636"
	 xml:space="preserve">
<g>
	<ellipse fill="#FFFFFF" cx="54.352" cy="54.284" rx="53.653" ry="53.613"/>
	<path fill="#00539F" d="M11.263,59.467c-0.317,0.018-0.618-0.025-0.901-0.128c-0.283-0.103-0.53-0.249-0.741-0.437
		c-0.21-0.189-0.382-0.419-0.515-0.689c-0.133-0.27-0.208-0.564-0.226-0.881c-0.018-0.318,0.024-0.62,0.126-0.909
		c0.103-0.288,0.249-0.538,0.437-0.749c0.189-0.21,0.418-0.382,0.688-0.515c0.271-0.134,0.564-0.208,0.882-0.227
		c0.327-0.018,0.633,0.025,0.916,0.127c0.283,0.103,0.53,0.249,0.74,0.438c0.211,0.188,0.383,0.419,0.517,0.695
		c0.134,0.275,0.208,0.572,0.227,0.889c0.018,0.318-0.025,0.618-0.128,0.901s-0.249,0.53-0.437,0.741
		c-0.189,0.211-0.419,0.383-0.688,0.515C11.89,59.373,11.59,59.449,11.263,59.467"/>
	<path fill="#00539F" d="M16.127,40.685l-1.089,3.368l2.328,1.61l-0.701,2.167l-9.305-6.842l0.758-2.343l11.577-0.187l-0.738,2.284
		L16.127,40.685z M13.458,43.042l0.791-2.446l-4.391-0.078L13.458,43.042z"/>
	<path fill="#00539F" d="M19.108,26.002c1.283,0.87,1.753,1.984,1.415,3.342l4.896,0.458l-1.434,2.114l-4.478-0.584l-0.821,1.21
		l3.336,2.265l-1.279,1.885l-9.066-6.155l2.567-3.782c0.334-0.492,0.691-0.867,1.07-1.124c0.379-0.257,0.767-0.416,1.162-0.478
		c0.393-0.06,0.79-0.03,1.185,0.089c0.397,0.12,0.786,0.31,1.167,0.569L19.108,26.002z M17.183,31.522l1.013-1.49
		c0.299-0.441,0.415-0.84,0.347-1.196c-0.067-0.356-0.306-0.673-0.714-0.95l-0.204-0.138c-0.832-0.564-1.533-0.427-2.104,0.414
		l-1.037,1.528L17.183,31.522z"/>
	<polygon fill="#00539F" points="21.469,18.531 29.404,21.385 24.795,15.79 26.482,14.4 33.45,22.857 31.858,24.168 23.923,21.315 
		28.533,26.909 26.834,28.309 19.866,19.852 	"/>
	<path fill="#00539F" d="M40.21,16.688l-3.269,1.359l0.286,2.814l-2.103,0.875l-0.837-11.52l2.274-0.945l7.66,8.683l-2.217,0.921
		L40.21,16.688z M36.685,16.188l2.373-0.987l-2.792-3.39L36.685,16.188z"/>
	<polygon fill="#00539F" points="45.503,6.715 48.977,14.631 50.371,6.087 52.77,5.777 50.479,17.123 48.082,17.431 43.015,7.037 	
		"/>
	<path fill="#00539F" d="M60.313,17.689c-0.849-0.14-1.533-0.354-2.046-0.641c-0.517-0.288-0.899-0.655-1.152-1.103
		c-0.255-0.447-0.396-0.972-0.427-1.576c-0.031-0.603,0.018-1.29,0.143-2.059l1.047-6.363l2.31,0.379l-1.025,6.227
		c-0.092,0.557-0.138,1.027-0.139,1.412c0,0.384,0.057,0.703,0.171,0.956c0.113,0.253,0.289,0.449,0.526,0.585
		c0.237,0.138,0.553,0.239,0.948,0.305c0.396,0.065,0.726,0.069,0.989,0.014c0.263-0.055,0.487-0.185,0.671-0.389
		c0.185-0.204,0.335-0.488,0.452-0.854c0.118-0.365,0.223-0.827,0.314-1.384l1.023-6.226l2.309,0.379l-1.049,6.379
		c-0.124,0.749-0.296,1.402-0.517,1.958c-0.222,0.556-0.524,1.005-0.908,1.348s-0.872,0.571-1.463,0.688
		C61.9,17.842,61.175,17.83,60.313,17.689"/>
	<polygon fill="#00539F" points="79.169,12.646 78.11,14.255 75.43,12.974 71.53,21.141 69.418,20.132 73.319,11.966 70.401,10.574 
		71.462,8.964 	"/>
	<polygon fill="#00539F" points="80.969,21.597 77.819,25.2 76.14,23.732 83.351,15.481 85.032,16.949 82.074,20.333 87.871,19.431 
		89.83,21.143 83.036,22.155 82.803,29.556 80.67,27.692 	"/>
	<path fill="#00539F" d="M92.416,35.294c-0.618,0.404-1.226,0.717-1.819,0.941c-0.597,0.224-1.175,0.313-1.737,0.27
		c-0.562-0.044-1.105-0.24-1.633-0.587c-0.527-0.348-1.035-0.896-1.523-1.644c-0.498-0.765-0.803-1.46-0.913-2.087
		c-0.11-0.628-0.069-1.205,0.118-1.732c0.19-0.527,0.508-1.017,0.955-1.468c0.446-0.452,0.979-0.879,1.597-1.283l1.083-0.707
		c0.628-0.41,1.242-0.725,1.846-0.947c0.601-0.222,1.182-0.31,1.739-0.263c0.557,0.047,1.099,0.246,1.621,0.597
		c0.522,0.35,1.026,0.896,1.509,1.634c0.509,0.782,0.816,1.491,0.92,2.128s0.058,1.219-0.139,1.745
		c-0.194,0.526-0.518,1.008-0.965,1.448c-0.45,0.439-0.974,0.856-1.574,1.249L92.416,35.294z M88.74,29.718
		c-0.55,0.36-0.973,0.687-1.264,0.98c-0.291,0.294-0.482,0.579-0.573,0.853c-0.09,0.273-0.098,0.545-0.02,0.813
		c0.075,0.269,0.213,0.552,0.409,0.854c0.185,0.284,0.386,0.514,0.6,0.692c0.214,0.179,0.469,0.282,0.764,0.311
		c0.294,0.028,0.636-0.027,1.029-0.167s0.859-0.387,1.401-0.74l1.134-0.74c0.55-0.359,0.971-0.686,1.262-0.981
		c0.292-0.294,0.484-0.578,0.575-0.852c0.09-0.274,0.097-0.544,0.02-0.813c-0.076-0.268-0.213-0.553-0.409-0.853
		c-0.186-0.284-0.386-0.515-0.601-0.693c-0.215-0.179-0.469-0.282-0.763-0.311c-0.294-0.028-0.639,0.027-1.032,0.167
		c-0.391,0.14-0.856,0.387-1.399,0.741L88.74,29.718z M94.894,26.308c-0.218-0.335-0.297-0.63-0.236-0.884
		c0.059-0.254,0.229-0.471,0.504-0.65c0.274-0.18,0.54-0.247,0.797-0.2c0.256,0.047,0.496,0.238,0.714,0.573
		c0.224,0.343,0.305,0.643,0.245,0.896c-0.062,0.254-0.229,0.471-0.503,0.651c-0.275,0.178-0.542,0.246-0.798,0.199
		C95.358,26.846,95.117,26.65,94.894,26.308 M96.686,29.052c-0.218-0.335-0.299-0.629-0.237-0.884
		c0.063-0.254,0.229-0.471,0.504-0.65c0.275-0.18,0.542-0.247,0.798-0.2c0.256,0.046,0.496,0.238,0.714,0.572
		c0.224,0.344,0.308,0.642,0.245,0.897c-0.062,0.254-0.229,0.471-0.504,0.65c-0.274,0.18-0.541,0.246-0.797,0.199
		C97.152,29.591,96.909,29.396,96.686,29.052"/>
	<polygon fill="#00539F" points="96.28,41.556 101.427,42.321 102.152,44.626 94.778,43.191 90.623,44.5 89.92,42.27 94.075,40.96 
		99.308,35.6 100.081,38.05 	"/>
	<path fill="#00539F" d="M97.362,54.917c0.316,0.017,0.611,0.092,0.881,0.225c0.27,0.133,0.498,0.305,0.688,0.515
		c0.189,0.211,0.335,0.458,0.438,0.741s0.146,0.583,0.127,0.901c-0.017,0.317-0.092,0.613-0.225,0.889
		c-0.134,0.276-0.307,0.507-0.517,0.697c-0.21,0.188-0.458,0.335-0.741,0.437c-0.282,0.103-0.583,0.146-0.899,0.128
		c-0.329-0.018-0.628-0.093-0.897-0.226c-0.271-0.133-0.5-0.305-0.689-0.516c-0.188-0.21-0.334-0.46-0.437-0.749
		c-0.103-0.288-0.145-0.59-0.127-0.908c0.017-0.318,0.092-0.612,0.224-0.881c0.135-0.271,0.308-0.5,0.517-0.689
		c0.211-0.189,0.458-0.334,0.74-0.438C96.729,54.941,97.033,54.899,97.362,54.917"/>
	<path fill="#00539F" d="M10.334,73.578l9.751-4.999l1.756,3.424c0.256,0.502,0.41,0.958,0.458,1.365
		c0.047,0.408,0.02,0.771-0.082,1.088c-0.103,0.318-0.27,0.594-0.501,0.829c-0.232,0.233-0.503,0.43-0.813,0.589l-0.315,0.162
		c-0.512,0.262-0.999,0.357-1.46,0.289c-0.463-0.067-0.871-0.27-1.227-0.606c0.08,0.315,0.098,0.612,0.05,0.892
		c-0.048,0.277-0.144,0.537-0.285,0.776c-0.143,0.24-0.322,0.456-0.54,0.649c-0.22,0.192-0.466,0.359-0.74,0.5l-0.314,0.16
		c-0.366,0.188-0.728,0.302-1.088,0.342c-0.36,0.041-0.712-0.004-1.055-0.134c-0.342-0.13-0.669-0.349-0.976-0.658
		c-0.309-0.309-0.595-0.719-0.857-1.229L10.334,73.578z M11.503,74.069l1.348,2.629c0.341,0.668,0.735,1.098,1.18,1.29
		c0.445,0.192,0.978,0.13,1.598-0.188l0.342-0.176c1.27-0.65,1.556-1.656,0.857-3.017l-1.326-2.588L11.503,74.069z M16.241,71.64
		l1.328,2.59c0.299,0.582,0.666,0.961,1.099,1.131c0.433,0.17,0.896,0.128,1.39-0.125l0.301-0.154
		c1.142-0.585,1.377-1.531,0.708-2.836l-1.249-2.438L16.241,71.64z"/>
	<polygon fill="#00539F" points="30.045,82.569 29.324,83.04 25.599,79.106 22.706,81.849 26.187,85.522 25.444,86.017 
		22.069,82.45 18.872,85.478 22.704,89.522 21.983,89.993 17.58,85.345 25.537,77.81 	"/>
	<polygon fill="#00539F" points="33.659,85.175 28.38,93.745 32.94,96.554 32.341,97.233 27.086,93.995 32.833,84.665 	"/>
	<polygon fill="#00539F" points="47.025,90.901 46.633,91.667 41.446,90.104 40.296,93.921 45.144,95.38 44.744,96.177 
		40.042,94.761 38.774,98.976 44.107,100.583 43.716,101.349 37.586,99.501 40.748,89.011 	"/>
	<path fill="#00539F" d="M50.719,91.483l3.4-0.055c0.884-0.016,1.612,0.094,2.19,0.326c0.579,0.23,1.042,0.557,1.388,0.979
		c0.345,0.42,0.589,0.92,0.733,1.502c0.141,0.584,0.218,1.219,0.229,1.904l0.024,1.387c0.011,0.707-0.054,1.355-0.192,1.941
		c-0.139,0.588-0.376,1.098-0.715,1.529c-0.336,0.432-0.79,0.768-1.361,1.006c-0.571,0.24-1.285,0.369-2.147,0.383l-3.371,0.055
		L50.719,91.483z M51.868,101.562l2.339-0.037c0.573-0.01,1.081-0.082,1.521-0.217c0.438-0.137,0.806-0.359,1.104-0.672
		c0.297-0.313,0.52-0.727,0.665-1.242c0.146-0.518,0.211-1.158,0.199-1.928l-0.021-1.23c-0.012-0.75-0.095-1.377-0.245-1.883
		c-0.153-0.506-0.377-0.912-0.674-1.221c-0.296-0.309-0.668-0.527-1.112-0.66c-0.442-0.131-0.962-0.191-1.558-0.182l-2.368,0.039
		L51.868,101.562z"/>
	<path fill="#00539F" d="M62.087,88.591c0.458-0.105,0.74,0.068,0.849,0.529c0.104,0.449-0.073,0.729-0.531,0.834
		c-0.45,0.105-0.728-0.066-0.832-0.516C61.464,88.979,61.634,88.696,62.087,88.591 M63.135,90.921l2.378,10.105l-0.959,0.223
		l-2.378-10.104L63.135,90.921z"/>
	<polygon fill="#00539F" points="71.773,93.065 72.403,86.743 73.34,86.312 72.579,93.71 74.483,97.849 73.603,98.255 71.704,94.13 
		65.637,89.856 66.629,89.401 	"/>
	<polygon fill="#00539F" points="80.817,80.194 81.253,80.935 77.154,84.478 79.76,87.493 83.591,84.185 84.048,84.948 
		80.333,88.157 83.21,91.487 87.425,87.847 87.863,88.589 83.017,92.772 75.855,84.479 	"/>
	<path fill="#00539F" d="M89.462,76.896c0.351-0.384,0.689-0.671,1.016-0.861c0.329-0.189,0.652-0.299,0.973-0.328
		c0.319-0.029,0.635,0.008,0.946,0.114c0.31,0.106,0.617,0.259,0.917,0.455l0.153,0.101c0.379,0.249,0.68,0.541,0.906,0.879
		c0.225,0.34,0.362,0.719,0.412,1.138s0.002,0.876-0.145,1.368c-0.146,0.494-0.401,1.02-0.768,1.578
		c-0.304,0.463-0.645,0.896-1.019,1.301c-0.378,0.402-0.721,0.723-1.035,0.957l-0.58-0.602c0.309-0.262,0.632-0.572,0.969-0.928
		c0.336-0.355,0.657-0.764,0.962-1.229c0.579-0.883,0.835-1.613,0.768-2.192s-0.442-1.091-1.118-1.536
		c-0.214-0.141-0.432-0.249-0.652-0.325c-0.218-0.077-0.443-0.104-0.671-0.083c-0.23,0.021-0.466,0.108-0.708,0.263
		c-0.241,0.154-0.502,0.386-0.777,0.695l-0.929,1.048c-0.617,0.699-1.226,1.088-1.824,1.168c-0.6,0.08-1.236-0.104-1.916-0.549
		l-0.063-0.043c-0.403-0.264-0.71-0.572-0.919-0.925c-0.212-0.353-0.328-0.738-0.347-1.157c-0.021-0.418,0.049-0.863,0.206-1.337
		c0.158-0.475,0.4-0.96,0.727-1.456c0.287-0.438,0.596-0.828,0.924-1.17c0.329-0.343,0.646-0.623,0.948-0.842l0.538,0.611
		c-0.287,0.23-0.584,0.514-0.891,0.852c-0.308,0.338-0.588,0.699-0.842,1.086c-0.563,0.857-0.815,1.572-0.756,2.146
		c0.061,0.573,0.395,1.06,1.002,1.46c0.473,0.309,0.908,0.427,1.307,0.352c0.4-0.076,0.844-0.39,1.329-0.943L89.462,76.896z"/>
	<path fill="#00539F" d="M86.292,67.835c0.178-0.438,0.486-0.566,0.923-0.389c0.429,0.174,0.553,0.48,0.375,0.918
		c-0.176,0.428-0.475,0.553-0.903,0.379C86.25,68.566,86.118,68.263,86.292,67.835 M88.802,68.325l9.655,3.954l-0.373,0.912
		l-9.654-3.954L88.802,68.325z"/>
	<path fill="#00539F" d="M54.315,108.636c-7.331,0-14.444-1.436-21.142-4.27c-6.467-2.734-12.275-6.65-17.264-11.639
		c-4.988-4.988-8.905-10.797-11.641-17.266C1.437,68.766,0,61.653,0,54.322c0-7.334,1.437-14.449,4.269-21.146
		c2.736-6.469,6.653-12.278,11.641-17.267S26.706,7.004,33.174,4.269C39.872,1.436,46.985,0,54.315,0
		C61.65,0,68.764,1.436,75.46,4.269c6.469,2.736,12.277,6.652,17.265,11.641c4.99,4.989,8.907,10.797,11.643,17.267
		c2.832,6.698,4.269,13.812,4.269,21.146c0,7.332-1.437,14.444-4.269,21.14c-2.735,6.469-6.652,12.277-11.643,17.266
		c-4.987,4.988-10.796,8.904-17.265,11.639C68.764,107.2,61.65,108.636,54.315,108.636 M54.315,1.274
		c-7.16,0-14.105,1.402-20.645,4.167c-6.316,2.672-11.989,6.497-16.86,11.369c-4.872,4.872-8.697,10.544-11.368,16.861
		c-2.766,6.54-4.168,13.488-4.168,20.65c0,7.16,1.402,14.106,4.168,20.644c2.671,6.316,6.496,11.988,11.368,16.859
		c4.872,4.871,10.544,8.697,16.86,11.367c6.539,2.768,13.484,4.17,20.645,4.17c7.162,0,14.108-1.402,20.647-4.17
		c6.316-2.67,11.99-6.496,16.862-11.367c4.871-4.871,8.697-10.543,11.367-16.859c2.768-6.538,4.169-13.484,4.169-20.644
		c0-7.163-1.401-14.11-4.169-20.65c-2.67-6.316-6.496-11.989-11.367-16.861c-4.872-4.872-10.546-8.697-16.862-11.369
		C68.424,2.676,61.478,1.274,54.315,1.274"/>
	<path fill="#00539F" d="M24.332,69.535L24.332,69.535c0.882-0.442,1.258-1.503,0.848-2.399c-2.455-5.351-3.494-11.43-2.693-17.699
		c2.25-17.648,18.206-30.196,35.814-28.316c0.063-0.029,0.014-0.086,0.014-0.086c-18.331-2.337-35.085,10.628-37.422,28.959
		C20.002,56.972,21.333,63.722,24.332,69.535"/>
	<path fill="#00539F" d="M84.092,38.944L84.092,38.944c-0.881,0.443-1.258,1.503-0.846,2.399c2.454,5.351,3.492,11.43,2.691,17.7
		c-2.25,17.649-18.206,30.199-35.814,28.318c-0.062,0.027-0.014,0.086-0.014,0.086c18.331,2.338,35.084-10.629,37.421-28.959
		C88.421,51.507,87.091,44.758,84.092,38.944"/>
	<path fill="#00539F" d="M67.427,52.698c-3.848,0-7.092,2.669-8.277,5.503c1.188-1.296,3.569-2.409,5.913-2.409
		c4.408,0,8.313,3.186,8.313,8.384c0,4.984-3.315,8.363-8.355,8.363c-5.083,0-8.261-3.7-8.261-9.062V45.05
		c0-8.359-5.45-13.49-13.106-13.49c-7.846,0-13.113,5.74-13.113,12.852c0,6.04,3.803,11.479,10.749,11.479
		c3.848,0,7.092-2.669,8.276-5.503c-1.189,1.296-3.569,2.41-5.913,2.41c-4.408,0-8.313-3.186-8.313-8.385
		c0-4.983,3.317-8.363,8.355-8.363c5.083,0,8.252,3.701,8.252,9.062V63.54c0,8.358,5.459,13.489,13.115,13.489
		c7.845,0,13.112-5.74,13.112-12.852C78.175,58.137,74.372,52.698,67.427,52.698"/>
	<path fill="#2FB457" d="M60.777,44.912c1.54-4.82,3.952-8.981,6.219-12.82c0.571-0.969,0.808-2.19-0.485-2.934
		c-0.93-0.533-2.041-0.269-3.043,1.695C61.987,33.754,60.779,40.673,60.777,44.912"/>
	<path fill="#2FB457" d="M58.896,42.868c-0.165-1.941-0.967-5.557-2.438-8.393l-0.978-2.005c-0.289-0.533-0.275-1.887,0.88-2.157
		c0.557-0.131,1.351,0.045,1.831,1.586C59.281,35.396,59.186,40.52,58.896,42.868"/>
	<path fill="#2FB457" d="M58.953,54.641c1.345-3.124,3.468-6.229,6.34-9.203c1.437-1.487,3.06-2.941,4.866-4.349
		c1.808-1.408,3.796-2.769,5.967-4.068c1.632-0.977,2.879-3.2,1.271-4.927c-1.237-1.327-3.29-1.293-5.971,1.155
		c-3.808,3.476-6.776,7.563-8.867,11.412C60.467,48.509,59.251,52.12,58.953,54.641"/>
	<path fill="#2FB457" d="M64.938,50.751c1.326-0.277,2.766-0.423,4.227-0.422c1.46,0.001,2.939,0.15,4.346,0.459
		c0.953,0.21,1.806,0.414,2.36,0.441c0.717,0.036,1.607-0.22,1.649-1.304c0.014-0.359-0.042-0.688-0.302-0.946
		c-0.262-0.257-0.725-0.442-1.528-0.514c-1.805-0.16-3.817,0.053-5.717,0.484c-0.95,0.215-1.872,0.486-2.725,0.793
		C66.397,50.05,65.613,50.392,64.938,50.751"/>
	<path fill="#2FB457" d="M64.352,49.525c1.413-0.972,3.027-1.844,4.733-2.555c1.707-0.711,3.51-1.259,5.303-1.583
		c1.217-0.22,2.311-0.396,2.977-0.635c0.853-0.308,1.769-1.042,1.29-2.328c-0.161-0.427-0.387-0.785-0.816-0.959
		c-0.428-0.174-1.062-0.163-2.035,0.145c-2.188,0.694-4.437,1.924-6.446,3.354c-1.005,0.715-1.948,1.481-2.796,2.255
		S64.964,48.775,64.352,49.525"/>
	<path fill="#2FB457" d="M47.908,63.697c-1.54,4.82-3.953,8.98-6.219,12.82c-0.571,0.969-0.808,2.19,0.486,2.934
		c0.928,0.533,2.041,0.27,3.042-1.694C46.698,74.854,47.906,67.935,47.908,63.697"/>
	<path fill="#2FB457" d="M49.791,65.74c0.163,1.942,0.966,5.558,2.437,8.394l0.977,2.005c0.29,0.533,0.276,1.886-0.88,2.157
		c-0.558,0.131-1.35-0.047-1.829-1.586C49.402,73.212,49.5,68.087,49.791,65.74"/>
	<path fill="#2FB457" d="M49.732,53.967c-1.346,3.124-3.469,6.229-6.34,9.203c-1.436,1.487-3.06,2.941-4.866,4.348
		c-1.807,1.408-3.796,2.768-5.967,4.068c-1.631,0.977-2.879,3.199-1.27,4.928c1.235,1.326,3.29,1.293,5.97-1.156
		c3.806-3.475,6.775-7.563,8.868-11.411C48.219,60.099,49.434,56.489,49.732,53.967"/>
	<path fill="#2FB457" d="M43.746,57.857c-1.326,0.277-2.767,0.422-4.227,0.422c-1.46-0.001-2.94-0.15-4.345-0.459
		c-0.953-0.21-1.806-0.415-2.362-0.442c-0.716-0.035-1.606,0.22-1.648,1.304c-0.013,0.359,0.042,0.688,0.303,0.946
		c0.259,0.257,0.724,0.442,1.527,0.513c1.806,0.16,3.818-0.052,5.718-0.483c0.95-0.216,1.871-0.487,2.723-0.793
		C42.287,58.559,43.071,58.216,43.746,57.857"/>
	<path fill="#2FB457" d="M44.333,59.083c-1.415,0.971-3.027,1.844-4.734,2.555c-1.708,0.711-3.51,1.26-5.303,1.584
		c-1.216,0.22-2.311,0.396-2.975,0.636c-0.854,0.307-1.77,1.041-1.29,2.327c0.16,0.428,0.385,0.785,0.814,0.96
		c0.429,0.173,1.062,0.163,2.036-0.146c2.187-0.693,4.437-1.924,6.446-3.354c1.004-0.715,1.949-1.481,2.796-2.255
		C42.97,60.615,43.719,59.833,44.333,59.083"/>
</g>
</svg>
