<?xml version="1.0" encoding="utf-8"?>
<!-- Generator: Adobe Illustrator 16.0.0, SVG Export Plug-In . SVG Version: 6.00 Build 0)  -->
<!DOCTYPE svg PUBLIC "-//W3C//DTD SVG 1.1//EN" "http://www.w3.org/Graphics/SVG/1.1/DTD/svg11.dtd">
<svg version="1.1" id="Layer_1" xmlns="http://www.w3.org/2000/svg" xmlns:xlink="http://www.w3.org/1999/xlink" x="0px" y="0px"
	 width="534.552px" height="534.549px" viewBox="0 0 534.552 534.549" enable-background="new 0 0 534.552 534.549"
	 xml:space="preserve">
<path fill="#FFFFFF" d="M267.275,0c147.591,0,267.277,119.688,267.277,267.276c0,147.583-119.686,267.273-267.277,267.273
	C119.688,534.549,0,414.859,0,267.276C0,119.688,119.688,0,267.275,0"/>
<path d="M234.246,25.51C367.41,7.315,490.848,101.085,509.043,234.248c18.193,133.165-75.574,256.603-208.737,274.797
	C167.143,527.239,43.701,433.466,25.507,300.309C7.313,167.147,101.084,43.704,234.246,25.51"/>
<path fill="#FFFFFF" d="M235.251,32.86c129.109-17.638,248.806,73.278,266.446,202.395
	c17.636,129.112-73.283,248.799-202.394,266.433C170.191,519.33,50.495,428.417,32.857,299.306
	C15.217,170.189,106.136,50.5,235.251,32.86"/>
<path fill="#008C3C" d="M459.268,234.343l12.002-8.837l-14.7-2.862L459.268,234.343z M457.377,235.808l-3.146-13.672l-4.152-0.757
	c-1.384-0.248-2.479-0.271-3.297-0.082c-1.09,0.248-1.788,0.874-2.093,1.871c-0.196,0.58-0.126,1.895,0.179,3.949l-1.049,0.241
	l-2.969-12.876l1.054-0.241c0.531,1.34,1.372,2.355,2.525,3.023c1.143,0.681,3.343,1.34,6.595,1.966l34.088,6.716l0.122,0.544
	l-28.515,21.282c-2.709,2.029-4.347,3.559-4.923,4.591c-0.449,0.797-0.576,1.79-0.403,2.989l-1.049,0.248l-4.33-18.733l1.056-0.241
	l0.173,0.774c0.345,1.5,0.808,2.509,1.372,3.01c0.403,0.359,0.888,0.466,1.454,0.331c0.344-0.078,0.679-0.213,1.019-0.417
	c0.168-0.072,0.808-0.528,1.942-1.349L457.377,235.808z M434.387,198.783l0.789,1.758l-2.513-0.378
	c0.3,1.145,0.225,2.147-0.208,3.023c-0.438,0.859-1.17,1.528-2.214,1.996c-0.916,0.406-1.896,0.513-2.91,0.293
	c-1.009-0.202-1.856-0.678-2.543-1.392c-1.044-1.166-2.174-3.11-3.384-5.875l1.262-0.561c0.858,1.75,1.683,2.83,2.485,3.248
	c0.796,0.395,1.625,0.406,2.514,0.005c0.546-0.241,0.893-0.643,1.061-1.222c0.172-0.584,0.08-1.262-0.267-2.049L434.387,198.783z
	 M475.75,192.65l-11.962,5.684l-0.496-1.11c2.813-1.858,4.693-4.214,5.638-7.071c0.94-2.847,0.889-5.444-0.162-7.793
	c-0.806-1.825-1.937-3.054-3.378-3.678c-1.452-0.633-2.812-0.666-4.081-0.093c-0.79,0.346-1.43,0.859-1.879,1.51
	c-0.618,0.886-1.072,2.091-1.384,3.595c-0.22,1.104-0.393,3.508-0.548,7.204c-0.196,5.183-0.898,8.919-2.093,11.228
	c-1.198,2.291-2.998,3.966-5.384,5.035c-3.039,1.347-6.181,1.32-9.415-0.06c-3.233-1.398-5.667-3.912-7.28-7.55
	c-0.508-1.137-0.883-2.279-1.107-3.401c-0.213-1.121-0.347-2.591-0.381-4.411c-0.033-1.019-0.172-1.798-0.415-2.342
	c-0.208-0.464-0.6-0.886-1.187-1.24c-0.588-0.36-1.315-0.53-2.198-0.53l-0.431-0.985l13.696-6.105l0.444,0.99
	c-3.511,2.506-5.77,5.313-6.797,8.466c-1.025,3.137-0.975,6.005,0.18,8.591c0.893,2,2.149,3.34,3.764,4.049
	c1.613,0.704,3.146,0.732,4.589,0.09c0.864-0.386,1.592-0.981,2.19-1.796c0.595-0.816,1.056-1.836,1.36-3.092
	c0.312-1.252,0.52-3.307,0.635-6.18c0.149-4.022,0.478-7.007,0.98-8.968c0.494-1.955,1.278-3.631,2.341-5.035
	c1.061-1.402,2.444-2.486,4.139-3.24c2.887-1.289,5.827-1.319,8.809-0.107c2.98,1.227,5.184,3.453,6.618,6.675
	c0.524,1.18,0.899,2.384,1.107,3.613c0.154,0.939,0.218,2.138,0.166,3.598c-0.04,1.46,0.04,2.44,0.253,2.914
	c0.209,0.466,0.515,0.769,0.925,0.902c0.396,0.15,1.198,0.095,2.38-0.165L475.75,192.65z M426.609,159.208l7.143-13.076
	l-14.532,3.613L426.609,159.208z M425.52,161.332l-8.636-11.058l-4.081,1.07c-1.359,0.36-2.363,0.801-3.021,1.317
	c-0.883,0.688-1.25,1.55-1.107,2.585c0.07,0.6,0.693,1.763,1.833,3.493l-0.841,0.669L401.527,149l0.852-0.666
	c1.049,0.985,2.238,1.545,3.563,1.668c1.325,0.13,3.603-0.201,6.814-1.014l33.729-8.313l0.34,0.443L429.97,172.46
	c-1.59,2.982-2.426,5.06-2.513,6.243c-0.069,0.906,0.23,1.863,0.899,2.877l-0.854,0.661l-11.828-15.142l0.842-0.659l0.489,0.619
	c0.946,1.215,1.793,1.936,2.52,2.153c0.508,0.153,0.992,0.05,1.465-0.312c0.265-0.218,0.518-0.484,0.737-0.809
	c0.115-0.142,0.508-0.819,1.193-2.041L425.52,161.332z M412.422,113l-11.258,12.959c0.466,0.453,0.813,0.784,1.065,1.009
	c1.798,1.557,3.643,2.226,5.546,2.001c1.902-0.22,3.839-1.454,5.782-3.696c1.938-2.224,2.86-4.28,2.785-6.156
	c-0.075-1.876-1.079-3.649-3.011-5.333L412.422,113z M399.659,127.685l-7.229,8.309c-1.406,1.624-2.19,2.727-2.348,3.323
	c-0.173,0.591-0.109,1.24,0.181,1.926c0.288,0.697,1.105,1.635,2.467,2.815l-0.704,0.814l-15.242-13.246l0.703-0.816
	c1.395,1.21,2.443,1.895,3.172,2.061c0.714,0.17,1.348,0.142,1.907-0.095c0.56-0.248,1.54-1.176,2.952-2.799l16.913-19.457
	c1.402-1.617,2.198-2.728,2.369-3.317c0.163-0.603,0.099-1.235-0.183-1.917c-0.276-0.691-1.107-1.632-2.479-2.826l0.703-0.817
	l13.081,11.363c4.307,3.738,6.716,7.19,7.258,10.347c0.542,3.16-0.196,5.892-2.19,8.194c-1.694,1.95-3.743,3.082-6.157,3.413
	c-2.41,0.338-4.89-0.173-7.46-1.506C405.643,132.57,403.072,130.642,399.659,127.685 M369.059,81.615l6.278,30.85l7.753-15.218
	c1.072-2.12,1.51-3.708,1.28-4.771c-0.323-1.427-1.477-2.63-3.459-3.6l0.496-0.974l11.69,5.956l-0.494,0.974
	c-1.604-0.571-2.723-0.831-3.396-0.796c-0.663,0.04-1.32,0.338-1.955,0.879c-0.634,0.54-1.383,1.651-2.23,3.318l-15.018,29.475
	l-0.889-0.45l-8.912-41.671l-11.473,22.504c-1.037,2.038-1.278,3.638-0.696,4.832c0.553,1.19,1.447,2.093,2.634,2.704l0.843,0.423
	l-0.491,0.964l-12.557-6.395l0.491-0.962c1.96,0.974,3.517,1.257,4.687,0.868c1.171-0.388,2.227-1.515,3.182-3.401l12.734-24.981
	l-0.275-1.335c-0.277-1.313-0.623-2.266-1.049-2.867c-0.415-0.581-1.164-1.162-2.227-1.748l0.491-0.975L369.059,81.615z
	 M321.953,91.083l-2.681-14.657l-9.022,11.96L321.953,91.083z M322.443,93.427l-13.675-3.16l-2.495,3.396
	c-0.824,1.132-1.332,2.106-1.518,2.929c-0.253,1.085,0,1.988,0.762,2.697c0.426,0.43,1.647,0.942,3.632,1.572l-0.242,1.049
	l-12.878-2.975l0.253-1.052c1.43,0.107,2.709-0.205,3.815-0.942c1.107-0.733,2.676-2.428,4.658-5.078l20.979-27.687l0.548,0.125
	l6.617,34.97c0.646,3.314,1.303,5.462,1.972,6.436c0.52,0.745,1.36,1.297,2.514,1.67l-0.243,1.052l-18.723-4.322l0.241-1.057
	l0.772,0.178c1.498,0.35,2.605,0.378,3.304,0.102c0.496-0.208,0.807-0.598,0.94-1.17c0.08-0.343,0.104-0.703,0.068-1.092
	c0-0.188-0.115-0.962-0.358-2.344L322.443,93.427z M266.792,85.612l9.405-26.72l16.141-0.845l0.059,1.087l-1.28,0.072
	c-1.176,0.058-2.103,0.306-2.779,0.756c-0.478,0.305-0.841,0.784-1.105,1.433c-0.191,0.483-0.231,1.712-0.133,3.672l1.367,26.158
	c0.114,2.026,0.288,3.288,0.529,3.791c0.243,0.495,0.704,0.907,1.384,1.257c0.686,0.354,1.579,0.501,2.698,0.443l1.29-0.071
	l0.059,1.075l-20.728,1.092l-0.059-1.081l1.289-0.073c1.177-0.057,2.099-0.311,2.785-0.766c0.466-0.288,0.836-0.779,1.101-1.465
	c0.178-0.469,0.231-1.707,0.121-3.706l-1.54-29.393l-13.313,36.985l-0.709,0.035L246.041,64.23l1.464,27.94
	c0.102,1.948,0.213,3.15,0.338,3.594c0.3,0.958,0.902,1.73,1.786,2.298c0.882,0.564,2.223,0.813,4.039,0.717l0.06,1.076
	l-13.585,0.714l-0.057-1.08l0.411-0.019c0.879-0.033,1.69-0.225,2.434-0.564c0.743-0.338,1.299-0.781,1.665-1.293
	c0.366-0.531,0.626-1.264,0.796-2.186c0.03-0.221-0.005-1.215-0.1-2.992l-1.309-25.106c-0.106-2.008-0.286-3.248-0.522-3.732
	c-0.248-0.49-0.706-0.908-1.387-1.257c-0.686-0.34-1.586-0.484-2.692-0.424l-1.255,0.064l-0.062-1.087l16.206-0.848L266.792,85.612z
	 M221.846,64.334l4.186,12.564l-1.166,0.36c-1.499-3.018-3.611-5.165-6.327-6.454c-2.715-1.28-5.294-1.553-7.763-0.795
	c-1.901,0.582-3.26,1.551-4.056,2.914c-0.809,1.352-1.005,2.698-0.596,4.027c0.253,0.838,0.682,1.531,1.273,2.061
	c0.804,0.716,1.943,1.315,3.401,1.805c1.067,0.35,3.431,0.828,7.083,1.418c5.114,0.833,8.737,1.983,10.888,3.453
	c2.125,1.47,3.571,3.453,4.337,5.955c0.969,3.177,0.568,6.295-1.204,9.333c-1.776,3.047-4.575,5.148-8.383,6.313
	c-1.194,0.366-2.367,0.588-3.5,0.678c-1.142,0.076-2.624,0.021-4.434-0.153c-1.012-0.095-1.801-0.052-2.374,0.123
	c-0.491,0.148-0.949,0.484-1.375,1.021c-0.424,0.544-0.689,1.246-0.791,2.12l-1.041,0.313l-4.384-14.345l1.037-0.311
	c2.056,3.784,4.569,6.37,7.575,7.773c2.992,1.404,5.837,1.695,8.548,0.868c2.089-0.636,3.576-1.723,4.475-3.24
	c0.897-1.517,1.11-3.04,0.654-4.545c-0.276-0.897-0.786-1.695-1.515-2.399c-0.737-0.683-1.695-1.267-2.905-1.723
	c-1.212-0.458-3.218-0.919-6.057-1.38c-3.976-0.643-6.901-1.33-8.781-2.067c-1.888-0.726-3.453-1.712-4.715-2.94
	c-1.262-1.219-2.174-2.72-2.715-4.497c-0.922-3.023-0.591-5.952,0.969-8.759c1.582-2.805,4.061-4.725,7.437-5.756
	c1.232-0.372,2.473-0.597,3.718-0.654c0.951-0.038,2.149,0.045,3.586,0.276c1.443,0.219,2.436,0.248,2.925,0.092
	c0.49-0.147,0.828-0.418,1.012-0.796c0.198-0.389,0.242-1.182,0.124-2.389L221.846,64.334z M167.463,87.428
	c-3.184,1.758-4.693,4.73-4.563,8.897c0.13,3.4,1.583,7.602,4.34,12.597c3.293,5.927,6.757,9.729,10.412,11.413
	c2.55,1.179,5.136,1.037,7.751-0.41c1.76-0.98,2.994-2.219,3.701-3.724c0.892-1.926,1.097-4.32,0.601-7.189
	c-0.49-2.865-1.803-6.229-3.943-10.083c-2.55-4.606-4.888-7.807-7.002-9.6c-2.118-1.813-4.096-2.815-5.949-3.028
	C170.971,86.102,169.186,86.471,167.463,87.428 M166.241,85.97c5.417-3.281,10.815-4.154,16.176-2.644
	c5.361,1.517,9.475,4.851,12.33,10.011c2.446,4.41,3.313,8.999,2.587,13.772c-0.958,6.348-4.552,11.248-10.793,14.701
	c-6.243,3.464-12.252,4.019-18.021,1.675c-4.552-1.86-8.105-5.076-10.657-9.661c-2.862-5.166-3.488-10.444-1.881-15.823
	C157.582,92.604,161,88.592,166.241,85.97 M123.36,100.001c0.914-0.768,1.966-1.096,3.15-0.997c1.182,0.1,2.158,0.614,2.923,1.53
	c0.768,0.914,1.104,1.959,0.998,3.14c-0.1,1.187-0.615,2.167-1.522,2.928c-0.917,0.766-1.959,1.097-3.148,0.998
	c-1.179-0.099-2.157-0.615-2.928-1.528c-0.766-0.911-1.094-1.96-0.991-3.148C121.942,101.745,122.45,100.766,123.36,100.001
	 M163.687,131.882l0.694,0.824l-15.908,13.354l-0.692-0.833l1.012-0.846c0.879-0.738,1.455-1.499,1.729-2.259
	c0.215-0.536,0.215-1.144-0.006-1.836c-0.132-0.496-0.839-1.505-2.128-3.04l-16.792-20.01c-1.307-1.56-2.209-2.462-2.699-2.714
	c-0.489-0.253-1.104-0.316-1.853-0.182c-0.744,0.125-1.548,0.556-2.399,1.264l-1.014,0.849l-0.698-0.829l15.911-13.355l0.701,0.839
	l-1.015,0.851c-0.879,0.737-1.463,1.486-1.735,2.248c-0.208,0.547-0.22,1.15-0.012,1.854c0.142,0.496,0.844,1.51,2.125,3.035
	l16.797,20.019c1.302,1.55,2.208,2.447,2.704,2.7c0.501,0.243,1.125,0.298,1.865,0.173c0.754-0.123,1.553-0.544,2.406-1.257
	L163.687,131.882z M112.9,121.568l14.444,41.747l4.758-5.877c2.249-2.777,3.656-4.862,4.204-6.253
	c0.913-2.239,1.17-4.624,0.766-7.107c-0.411-2.499-1.64-4.985-3.701-7.48l0.721-0.886L144.241,146l-22.902,28.276l-14.471-41.807
	l-3.711,4.577c-1.438,1.781-2.329,2.987-2.677,3.634c-0.663,1.222-1.087,2.541-1.252,3.949c-0.178,1.414-0.02,2.805,0.448,4.217
	c0.478,1.398,1.312,2.874,2.516,4.428l-0.679,0.836l-8.359-8.158L112.9,121.568z M99.31,186.616l-14.899-0.421l9.823,11.305
	L99.31,186.616z M101.697,186.628l-5.93,12.715l2.805,3.153c0.934,1.044,1.783,1.735,2.551,2.096
	c1.009,0.471,1.943,0.406,2.799-0.196c0.508-0.33,1.262-1.41,2.282-3.217l0.981,0.455l-5.584,11.971l-0.979-0.455
	c0.399-1.38,0.359-2.699-0.13-3.938c-0.479-1.24-1.813-3.122-3.999-5.607l-22.719-26.282l0.233-0.508l35.582,0.794
	c3.381,0.063,5.612-0.133,6.709-0.591c0.834-0.35,1.548-1.052,2.158-2.107l0.979,0.453l-8.123,17.426l-0.98-0.461l0.333-0.719
	c0.647-1.394,0.912-2.474,0.784-3.218c-0.102-0.518-0.413-0.907-0.953-1.155c-0.316-0.146-0.666-0.248-1.054-0.296
	c-0.18-0.04-0.964-0.082-2.371-0.137L101.697,186.628z M57.551,208.238l13.74,2.674l-0.204,1.071
	c-4.016,0.556-7.244,1.919-9.694,4.112c-2.456,2.186-3.986,4.803-4.575,7.852c-0.568,2.919-0.213,5.504,1.043,7.752
	c1.271,2.257,3.277,4.072,6.056,5.446c2.781,1.38,5.716,2.366,8.797,2.962c3.742,0.728,7.103,0.92,10.095,0.589
	c2.985-0.323,5.334-1.344,7.041-3.062c1.706-1.707,2.822-3.914,3.35-6.613c0.182-0.946,0.271-1.925,0.255-2.945
	c0-1.027-0.102-2.096-0.287-3.211l-8.111-1.582c-1.528-0.298-2.547-0.378-3.032-0.255c-0.491,0.125-0.992,0.479-1.481,1.071
	c-0.491,0.587-0.834,1.354-1.018,2.299l-0.193,0.997l-1.059-0.198l3.68-18.944l1.062,0.2c-0.183,1.452-0.183,2.491,0,3.118
	c0.2,0.62,0.609,1.155,1.234,1.595c0.323,0.246,1.205,0.501,2.627,0.777l8.111,1.577c0.624,2.704,0.962,5.466,0.997,8.269
	c0.048,2.799-0.213,5.651-0.779,8.548c-0.714,3.704-1.824,6.678-3.294,8.927c-1.487,2.248-3.222,4.151-5.223,5.696
	c-2.01,1.548-4.139,2.657-6.393,3.311c-2.911,0.823-6.004,0.923-9.282,0.287c-5.863-1.142-10.42-4.164-13.666-9.075
	c-3.24-4.905-4.258-10.484-3.042-16.735c0.372-1.936,0.862-3.654,1.47-5.148c0.326-0.811,1.029-2.089,2.107-3.847
	c1.086-1.742,1.672-2.789,1.735-3.137c0.106-0.536,0-1.067-0.3-1.606c-0.305-0.536-0.969-1.104-1.983-1.7L57.551,208.238z"/>
<path fill="#008C3C" d="M401.572,375.339c0.783-0.894,1.77-1.391,2.951-1.47c1.189-0.082,2.227,0.265,3.125,1.049
	c0.899,0.784,1.396,1.765,1.487,2.951c0.069,1.183-0.276,2.227-1.061,3.125c-0.778,0.899-1.764,1.396-2.952,1.476
	c-1.176,0.081-2.23-0.27-3.123-1.042c-0.899-0.791-1.396-1.771-1.477-2.959C400.443,377.283,400.788,376.234,401.572,375.339
	 M446.389,400.514l0.813,0.716l-13.622,15.675l-0.819-0.71l0.871-0.997c0.756-0.87,1.205-1.706,1.355-2.502
	c0.133-0.571,0.034-1.164-0.3-1.805c-0.197-0.473-1.056-1.36-2.565-2.674l-19.723-17.14c-1.533-1.344-2.565-2.093-3.095-2.255
	c-0.52-0.178-1.136-0.138-1.863,0.115c-0.702,0.243-1.429,0.784-2.168,1.62l-0.858,0.992l-0.824-0.714l13.629-15.675l0.818,0.714
	l-0.865,1.002c-0.754,0.866-1.216,1.702-1.36,2.491c-0.127,0.57-0.035,1.177,0.276,1.833c0.22,0.468,1.072,1.361,2.572,2.67
	l19.715,17.139c1.545,1.332,2.572,2.081,3.098,2.249c0.535,0.161,1.158,0.115,1.872-0.121c0.727-0.242,1.454-0.784,2.18-1.62
	L446.389,400.514z M400.027,392.651l8.935,9.784l-0.909,0.789c-2.595-2.145-5.407-3.239-8.412-3.31
	c-3.004-0.08-5.471,0.732-7.407,2.423c-1.51,1.309-2.353,2.743-2.525,4.312c-0.185,1.573,0.178,2.877,1.096,3.931
	c0.571,0.652,1.245,1.107,2.001,1.355c1.025,0.323,2.311,0.421,3.832,0.271c1.124-0.115,3.472-0.646,7.058-1.58
	c5.003-1.332,8.791-1.753,11.345-1.28c2.549,0.473,4.67,1.701,6.388,3.678c2.18,2.502,3.079,5.513,2.697,9.012
	c-0.386,3.505-2.081,6.566-5.084,9.177c-0.939,0.824-1.925,1.505-2.929,2.046c-1.014,0.531-2.381,1.084-4.104,1.655
	c-0.969,0.329-1.671,0.692-2.12,1.079c-0.387,0.339-0.682,0.835-0.843,1.498c-0.173,0.669-0.127,1.419,0.138,2.259l-0.818,0.71
	l-9.847-11.321l0.819-0.709c3.425,2.617,6.768,3.954,10.089,4.017c3.297,0.063,6.019-0.824,8.163-2.68
	c1.648-1.442,2.565-3.032,2.761-4.778c0.208-1.753-0.214-3.235-1.251-4.422c-0.61-0.716-1.406-1.229-2.364-1.568
	c-0.945-0.335-2.058-0.473-3.354-0.398c-1.28,0.068-3.31,0.467-6.088,1.206c-3.896,1.025-6.848,1.59-8.861,1.683
	c-2.022,0.099-3.851-0.168-5.505-0.772c-1.648-0.6-3.084-1.604-4.306-3.01c-2.081-2.374-2.964-5.188-2.676-8.393
	c0.307-3.207,1.781-5.962,4.445-8.279c0.975-0.848,2.018-1.557,3.13-2.109c0.859-0.427,1.983-0.831,3.385-1.211
	c1.417-0.393,2.329-0.761,2.721-1.096c0.381-0.341,0.588-0.728,0.6-1.142c0.018-0.438-0.265-1.182-0.853-2.236L400.027,392.651z
	 M363.236,421.608l8.081,14.003l0.682-0.391c2.19-1.258,3.366-2.854,3.567-4.792c0.191-1.937-0.363-4.317-1.62-7.147l0.958-0.56
	l10.4,18.016l-0.958,0.553c-1.349-1.851-2.698-3.204-4.075-4.087c-1.379-0.871-2.612-1.269-3.731-1.21
	c-1.105,0.074-2.483,0.582-4.12,1.526l5.598,9.691c1.095,1.896,1.833,2.998,2.242,3.333c0.398,0.333,0.906,0.506,1.498,0.518
	c0.595,0.03,1.379-0.248,2.369-0.817l2.053-1.188c3.212-1.856,5.356-4.088,6.434-6.698c1.084-2.601,1.158-5.674,0.248-9.207
	l0.94-0.542l4.773,11.83l-29.736,17.167l-0.541-0.928l1.141-0.657c0.992-0.581,1.694-1.223,2.087-1.937
	c0.316-0.484,0.415-1.084,0.316-1.805c-0.039-0.508-0.559-1.62-1.562-3.361l-13.063-22.633c-0.9-1.551-1.488-2.479-1.781-2.785
	c-0.508-0.489-1.091-0.766-1.729-0.829c-0.93-0.098-1.938,0.167-3.051,0.813l-1.142,0.663l-0.548-0.946l28.796-16.62l5.87,10.169
	l-0.957,0.555c-1.927-2.196-3.638-3.586-5.16-4.15c-1.505-0.578-3.223-0.646-5.138-0.208c-1.128,0.231-2.984,1.106-5.59,2.617
	L363.236,421.608z M346.76,428.642l0.334,1.037c-1.187,0.56-2.034,1.233-2.519,2.013c-0.681,1.084-1.454,3.694-2.334,7.816
	l-3.743,16.338l2.971,9.144c0.639,1.947,1.128,3.13,1.486,3.534c0.357,0.409,0.895,0.686,1.613,0.859
	c0.732,0.173,1.592,0.098,2.596-0.231l2.109-0.691l0.334,1.025l-21.198,6.895l-0.328-1.025l1.978-0.646
	c1.112-0.367,1.932-0.852,2.449-1.451c0.393-0.416,0.635-0.98,0.704-1.713c0.068-0.502-0.208-1.712-0.83-3.615l-2.456-7.575
	l-14.153-13.294c-2.807-2.629-4.651-4.099-5.573-4.427c-0.911-0.34-1.96-0.312-3.17,0.063l-0.342-1.044l18.107-5.874l0.334,1.031
	l-0.806,0.266c-1.095,0.356-1.816,0.755-2.146,1.223c-0.335,0.454-0.438,0.853-0.321,1.21c0.218,0.67,1.498,2.109,3.862,4.313
	l10.895,10.295l3.096-13.604c0.778-3.333,1.021-5.454,0.728-6.371c-0.157-0.496-0.531-0.829-1.126-1.009
	c-0.772-0.265-2.039-0.162-3.746,0.295l-0.341-1.038L346.76,428.642z M295.498,429.408c1.17-0.189,2.247,0.07,3.205,0.772
	c0.969,0.697,1.533,1.639,1.718,2.813c0.191,1.171-0.063,2.249-0.761,3.205c-0.691,0.969-1.637,1.54-2.818,1.718
	c-1.178,0.197-2.243-0.063-3.205-0.761c-0.964-0.69-1.54-1.648-1.725-2.813c-0.184-1.181,0.069-2.247,0.772-3.205
	C293.382,430.168,294.322,429.592,295.498,429.408 M313.64,477.511l0.169,1.061l-20.514,3.246l-0.166-1.067l1.304-0.201
	c1.135-0.185,2.022-0.536,2.65-1.056c0.456-0.34,0.768-0.864,0.929-1.568c0.15-0.489,0.063-1.723-0.243-3.694l-4.092-25.815
	c-0.323-2.001-0.623-3.24-0.923-3.708c-0.288-0.473-0.779-0.841-1.488-1.105c-0.702-0.277-1.613-0.329-2.709-0.156l-1.303,0.213
	l-0.172-1.083l20.511-3.245l0.174,1.077l-1.304,0.208c-1.143,0.173-2.023,0.52-2.652,1.037c-0.461,0.352-0.777,0.871-0.957,1.573
	c-0.139,0.503-0.057,1.736,0.255,3.696l4.087,25.809c0.316,2.006,0.628,3.24,0.916,3.713c0.311,0.468,0.813,0.837,1.517,1.102
	c0.714,0.294,1.62,0.34,2.71,0.162L313.64,477.511z M261.062,445.463l0.541,30.999c0.03,1.636,0.125,2.634,0.287,3.008
	c0.163,0.363,0.43,0.646,0.801,0.836c0.529,0.283,1.3,0.409,2.303,0.398c3.251-0.057,5.725-1.211,7.409-3.47
	c2.286-3.056,3.374-7.732,3.265-14.062c-0.092-5.102-0.962-9.154-2.617-12.181c-1.309-2.353-2.969-3.944-4.968-4.769
	C266.656,445.637,264.318,445.389,261.062,445.463 M246.569,483.195l-0.023-1.077l1.322-0.023c1.15-0.023,2.036-0.22,2.639-0.595
	c0.62-0.379,1.057-0.875,1.34-1.51c0.17-0.409,0.236-1.644,0.201-3.689l-0.456-26.127c-0.033-2.029-0.167-3.298-0.395-3.804
	c-0.218-0.503-0.658-0.94-1.329-1.304c-0.649-0.375-1.542-0.553-2.657-0.531l-1.315,0.023l-0.025-1.089l17.781-0.307
	c4.753-0.079,8.579,0.496,11.496,1.736c3.556,1.516,6.283,3.856,8.162,7.028c1.88,3.181,2.86,6.784,2.929,10.826
	c0.047,2.795-0.357,5.373-1.21,7.742c-0.866,2.368-1.989,4.328-3.385,5.885c-1.4,1.563-3.021,2.825-4.871,3.782
	c-1.85,0.958-4.124,1.712-6.805,2.271c-1.186,0.255-3.059,0.404-5.624,0.449L246.569,483.195z M226.549,440.569l-3.08,15.883
	l0.778,0.144c2.471,0.484,4.405,0.059,5.829-1.278c1.408-1.332,2.562-3.495,3.464-6.458l1.092,0.214l-3.972,20.413l-1.092-0.208
	c0.205-2.271,0.07-4.186-0.39-5.752c-0.466-1.563-1.135-2.687-2.026-3.361c-0.879-0.674-2.247-1.198-4.107-1.563l-2.133,10.995
	c-0.418,2.145-0.583,3.465-0.489,3.982c0.083,0.52,0.348,0.98,0.786,1.373c0.436,0.415,1.21,0.72,2.333,0.939l2.326,0.444
	c3.641,0.714,6.723,0.438,9.244-0.831c2.525-1.245,4.598-3.511,6.233-6.779l1.058,0.208l-4.151,12.059l-33.713-6.555l0.208-1.065
	l1.29,0.254c1.137,0.22,2.084,0.196,2.854-0.08c0.549-0.162,1.021-0.548,1.41-1.154c0.308-0.409,0.654-1.602,1.032-3.563
	l4.989-25.647c0.336-1.77,0.496-2.86,0.485-3.281c-0.062-0.703-0.32-1.297-0.761-1.752c-0.632-0.692-1.571-1.146-2.84-1.39
	l-1.293-0.258l0.208-1.063l32.638,6.342l-2.243,11.53l-1.094-0.208c-0.01-2.929-0.388-5.096-1.16-6.526
	c-0.764-1.412-2.01-2.599-3.745-3.527c-1.004-0.56-2.986-1.112-5.938-1.695L226.549,440.569z M203.652,460.574l-6.817,12.256
	l-32.474-13.789l0.418-0.992l1.215,0.52c1.056,0.443,2.001,0.616,2.806,0.506c0.571-0.045,1.115-0.322,1.635-0.829
	c0.371-0.346,0.957-1.43,1.735-3.27l10.207-24.056c0.797-1.868,1.192-3.078,1.199-3.638c-0.006-0.548-0.231-1.126-0.692-1.729
	c-0.446-0.606-1.184-1.124-2.208-1.563l-1.222-0.513l0.426-1.009l19.502,8.291l-0.423,0.99l-1.588-0.668
	c-1.069-0.456-1.995-0.634-2.804-0.53c-0.575,0.063-1.122,0.327-1.658,0.83c-0.378,0.345-0.958,1.44-1.735,3.269l-9.89,23.302
	c-0.795,1.874-1.193,3.107-1.2,3.707c0.007,0.611,0.26,1.176,0.788,1.688c0.378,0.363,1.432,0.894,3.157,1.62l3.046,1.292
	c1.943,0.829,3.706,1.175,5.294,1.044c1.577-0.134,3.153-0.732,4.725-1.816c1.577-1.072,3.386-2.865,5.459-5.385L203.652,460.574z
	 M160.42,415.112l-8.813,13.559l0.666,0.426c2.113,1.374,4.067,1.707,5.887,1.004c1.813-0.709,3.689-2.282,5.632-4.693l0.934,0.611
	l-11.332,17.444l-0.931-0.611c1.038-2.034,1.633-3.851,1.792-5.464c0.15-1.638-0.052-2.917-0.613-3.886
	c-0.566-0.957-1.646-1.947-3.229-2.986l-6.095,9.385c-1.194,1.84-1.836,3.005-1.95,3.518c-0.111,0.513-0.043,1.032,0.22,1.568
	c0.24,0.541,0.848,1.117,1.81,1.74l1.982,1.292c3.114,2.022,6.072,2.916,8.887,2.696c2.807-0.218,5.578-1.545,8.316-3.965
	l0.911,0.594l-8.376,9.621l-28.799-18.701l0.584-0.905l1.11,0.721c0.969,0.622,1.86,0.952,2.669,0.985
	c0.58,0.054,1.157-0.12,1.748-0.541c0.438-0.26,1.204-1.24,2.291-2.917l14.231-21.913c0.979-1.505,1.535-2.461,1.676-2.858
	c0.213-0.669,0.185-1.32-0.045-1.915c-0.326-0.87-1.031-1.643-2.108-2.346l-1.112-0.721l0.589-0.91l27.888,18.106l-6.398,9.853
	l-0.934-0.599c1.085-2.723,1.546-4.878,1.365-6.491c-0.178-1.597-0.893-3.16-2.149-4.67c-0.721-0.899-2.344-2.156-4.872-3.795
	L160.42,415.112z M120.463,405.104l-9.01,9.004l-1.061,1.021c-0.744,0.744-1.122,1.493-1.122,2.261
	c0.007,0.749,0.378,1.503,1.122,2.254c1.104,1.105,2.361,1.878,3.791,2.317c1.427,0.45,2.855,0.45,4.282,0.012
	c1.43-0.428,2.71-1.224,3.858-2.37c1.313-1.309,2.191-2.796,2.625-4.444c0.426-1.649,0.326-3.211-0.332-4.693
	C123.979,408.99,122.588,407.19,120.463,405.104 M122.086,403.489c1.955,1.95,3.611,3.184,4.993,3.666
	c1.377,0.496,2.708,0.59,4.014,0.29c1.295-0.3,2.569-1.084,3.808-2.324c1.24-1.238,2.008-2.502,2.321-3.799
	c0.299-1.279,0.201-2.571-0.288-3.902c-0.498-1.332-1.762-2.992-3.791-4.998L122.086,403.489z M129.056,411.583
	c2.05,3.287,3.165,5.915,3.361,7.875c0.283,2.807-0.567,5.199-2.574,7.205c-2.108,2.111-4.705,3.016-7.78,2.699
	c-3.761-0.416-7.634-2.612-11.603-6.59l-14.28-14.274l0.761-0.761c1.3,1.297,2.298,2.058,3.014,2.271
	c0.703,0.22,1.34,0.236,1.911,0.035c0.58-0.201,1.62-1.061,3.142-2.577l18.222-18.229c1.521-1.521,2.387-2.57,2.592-3.153
	c0.213-0.581,0.195-1.222-0.042-1.925c-0.223-0.709-0.99-1.694-2.274-2.979l0.764-0.772l13.47,13.465
	c3.21,3.219,5.211,5.789,5.976,7.691c0.772,1.925,0.969,3.828,0.603,5.736c-0.366,1.919-1.2,3.522-2.482,4.791
	c-1.357,1.365-3.05,2.081-5.088,2.156C134.72,414.328,132.152,413.44,129.056,411.583"/>
<path d="M178.464,330.897c-0.1,4.394-0.077,8.734,0.083,13.007l9.616,70.4l17.621-7.816c3.047,2.996,3.453,3.539,6.211,5.637
	c2.254-0.806,4.81-1.959,7.532-3.378l5.401,1.672l7.047,1.833l7.049,1.488l7.039,1.158l7.018,0.824l6.991,0.496l6.946,0.186
	l6.907-0.15l6.848-0.451l6.779-0.772l6.712-1.061l6.629-1.384l6.538-1.671l6.422-1.972l6.324-2.254l6.209-2.542l6.069-2.831
	l5.938-3.107l5.782-3.379l5.64-3.643l5.476-3.914l5.292-4.169l5.113-4.434l4.923-4.68l4.722-4.93l4.516-5.171l4.288-5.412
	l4.069-5.645l3.822-5.88l3.586-6.101l3.32-6.301l3.506-7.246l3.113-7.28l2.697-7.271l2.306-7.269l1.903-7.253l1.51-7.23l1.136-7.193
	l0.761-7.161l0.393-7.113l0.023-7.06l-0.33-7.001l-0.674-6.936l-1.021-6.859l-1.349-6.771l-1.684-6.691l-1.994-6.586l-2.306-6.488
	l-2.617-6.376l-2.907-6.263l-3.205-6.132l-3.487-6.004l-3.758-5.868l-4.03-5.723l-4.289-5.577l-4.543-5.413l-4.785-5.254
	l-5.026-5.087l-5.258-4.907l-5.487-4.736l-5.702-4.53l-5.915-4.347l-3.016-2.042l0.122-2.302l0.143-3.902l0.012-0.338v-0.334
	l-0.012-0.326l-0.01-0.316l-0.012-0.32l-0.023-0.326l-0.023-0.316l-0.022-0.314l-0.012-0.142l0.189-0.213l0.33-0.359l0.334-0.378
	l0.352-0.401l0.363-0.411l0.369-0.433l0.368-0.458l0.374-0.484l9.483-13.333l-15.495,3.914l-0.109,0.03l-0.122,0.032l-0.126,0.023
	l-0.139,0.028l-0.145,0.028l-0.155,0.03l-0.161,0.037l-0.166,0.028l-0.181,0.03l-0.185,0.028l-0.185,0.032l-0.184,0.028l-0.196,0.03
	l-0.196,0.028l-0.196,0.032l-0.195,0.023l-0.138,0.017l-0.22-0.253l-0.288-0.303l-0.318-0.316l-0.351-0.332l-0.363-0.306
	l-0.98-0.786l-0.975-0.739l-0.985-0.709l-0.985-0.671l-1.004-0.631l-1.002-0.603l-1.021-0.567l-1.032-0.524l-1.026-0.484
	l-1.055-0.457l-1.055-0.411l-1.062-0.373l-1.077-0.336l-1.084-0.295l-1.089-0.253l-1.103-0.22l-1.101-0.175l-1.113-0.145
	l-1.112-0.098l-1.124-0.066l-1.13-0.022l-1.136,0.012l-1.129,0.04l-1.13,0.083l-1.154,0.113l-1.141,0.146l-1.153,0.178l-1.164,0.205
	l-1.153,0.243l-1.176,0.265l-1.177,0.303l-1.188,0.321l-3.846,1.142l-3.787,1.292l-3.678,1.423l-3.563,1.55l-3.452,1.673
	l-3.351,1.79l-0.714,0.423l-0.196-0.012l-1.521-0.045l-1.534-0.019l-1.545,0.007l-1.56,0.028l-1.557,0.047l-1.559,0.066
	l-1.553,0.086l-1.54,0.1l-1.517,0.113l-1.495,0.123l-1.461,0.137l-1.43,0.14l-1.38,0.156l-1.34,0.153l-1.289,0.158l-1.222,0.167
	l-1.162,0.158l-1.092,0.16l-1.016,0.151l-0.939,0.157l-0.851,0.146l-0.761,0.137l-0.671,0.128l-0.607,0.137l-9.582,2.389
	l-9.276,2.81l-8.936,3.215l-8.596,3.6l-8.246,3.966l-7.893,4.333l-7.534,4.675l-7.166,5.006l-6.79,5.318l-6.416,5.634l-6.027,5.914
	l-5.644,6.187l-5.243,6.448l-4.847,6.693l-4.432,6.926l-4.027,7.144l-3.606,7.34l-3.182,7.535l-2.759,7.697l-2.321,7.863
	l-1.883,8.004l-1.44,8.128l-0.992,8.246l-0.536,8.343l-0.078,8.431l0.386,8.498l0.848,8.556l1.323,8.596l1.801,8.617l2.283,8.631
	l2.766,8.631l3.859,9.869l8.183-0.012l-0.005-0.012h1.32l1.943-0.012l1.955-0.028l1.964-0.035l1.978-0.04l1.99-0.058l1.996-0.07
	l2.008-0.08l2.011-0.091l2.021-0.094l2.023-0.115l2.026-0.126l2.03-0.134l2.033-0.149l2.028-0.155l2.033-0.168l2.023-0.185
	l2.028-0.189L178.464,330.897z"/>
<path fill="#FFFFFF" d="M228.215,175.463c-27.619,40.856-46.578,97.023-49.433,147.587l-0.756,0.075l-1.971,0.203l-1.978,0.19
	l-1.983,0.173l-1.983,0.173l-1.983,0.155l-1.993,0.145l-1.983,0.127l-1.988,0.126l-1.978,0.104l-1.978,0.104l-1.971,0.087
	l-1.966,0.075l-1.955,0.068l-1.948,0.058l-1.938,0.04l-1.921,0.035l-1.915,0.023l-1.893,0.012l-1.883,0.005l-1.863-0.005
	l-0.49-0.007l-1.747-4.623l-2.648-8.243l-2.18-8.244l-1.713-8.222l-1.262-8.186l-0.809-8.128l-0.366-8.083l0.078-8.001l0.506-7.915
	l0.94-7.823l1.364-7.702l1.781-7.582l2.201-7.437l2.604-7.292l3.019-7.125l3.41-6.946l3.808-6.759l4.199-6.553l4.587-6.341
	l4.97-6.11l5.344-5.869l5.719-5.607l6.093-5.341l6.457-5.062l6.814-4.761l7.177-4.451l7.525-4.134l7.875-3.791l8.224-3.441
	l8.566-3.082l8.902-2.697l9.255-2.316l0.415-0.083l0.559-0.11l0.681-0.124l0.772-0.13l0.874-0.145l0.951-0.146l1.037-0.153
	l1.104-0.151l1.17-0.153l1.229-0.15l1.279-0.153l1.329-0.141l1.363-0.135l1.402-0.13l1.427-0.123l1.447-0.108l0.153-0.01
	l-2.592,2.106l-2.737,2.389l-2.647,2.467l-2.547,2.552l-2.467,2.625l-2.38,2.692l-2.296,2.752l-2.213,2.817l-2.145,2.869
	l-2.067,2.922l-1.995,2.963l-1.931,3.01l-1.86,3.04l-1.803,3.082l-1.745,3.11l-1.687,3.137l-1.643,3.158L228.215,175.463z"/>
<path fill="#FFFFFF" d="M228.78,403.386c3.082-1.96,6.187-4.095,9.155-6.283c11.871-12.36,29.917-29.823,32.783-39.433
	c1.162-4.462-0.366-5.206-3.932-1.154c-9.788,14.441-32.736,32.094-52.144,42.303l-6.346,3.125
	c-0.721,0.335-1.442,0.651-2.141,0.952c-6.443-19.204-9.979-44.373-10.009-72.229l5.189-1.661l4.487-1.585l4.452-1.73l4.42-1.873
	l4.387-2.022l4.346-2.151l4.309-2.289l4.269-2.415l4.226-2.531l4.174-2.662l4.134-2.773l4.079-2.889l4.032-2.997l3.973-3.107
	l3.914-3.205l3.859-3.304l3.796-3.401l3.735-3.492l3.673-3.581l3.603-3.678l3.528-3.748l3.459-3.827l3.391-3.903l3.303-3.976
	l3.229-4.044l3.159-4.107l3.061-4.167l2.981-4.227l2.882-4.286l2.808-4.332l2.71-4.382l2.634-4.462l1.453-2.675l1.396-2.603
	l1.354-2.608l1.327-2.617l1.297-2.621l1.269-2.632l1.222-2.646l1.199-2.66l1.158-2.688l1.124-2.704l1.084-2.735l1.051-2.755
	l1.014-2.792l0.969-2.822l0.934-2.857l0.888-2.9l0.841-2.937l0.808-2.984l0.768-3.032l0.709-3.082l0.68-3.131l0.629-3.187
	l0.581-3.247l0.531-3.307l0.496-3.363l0.438-3.437l0.392-3.503l0.33-3.441l4.836,3.55l5.466,4.349l5.258,4.528l5.026,4.702
	l4.808,4.863l4.572,5.018l4.328,5.171l4.094,5.313l3.84,5.447l3.574,5.586l3.308,5.702l3.039,5.829l2.762,5.932l2.479,6.038
	l2.188,6.14l1.887,6.232l1.585,6.318l1.28,6.4l0.957,6.476l0.64,6.546l0.305,6.606l-0.021,6.669l-0.37,6.717l-0.714,6.77
	l-1.072,6.813l-1.437,6.837l-1.803,6.878l-2.191,6.9l-2.565,6.918l-2.964,6.941l-3.373,6.964l-3.17,6.019l-3.401,5.794l-3.633,5.575
	l-3.855,5.35l-4.064,5.131l-4.278,4.899l-4.467,4.67l-4.665,4.427l-4.83,4.192l-5.021,3.947l-5.172,3.701l-5.339,3.455l-5.476,3.198
	l-5.616,2.935l-5.747,2.676l-5.875,2.409l-5.983,2.139l-6.089,1.861l-6.185,1.586l-6.278,1.303l-6.354,1.021l-6.421,0.727
	l-6.498,0.433l-6.545,0.132l-6.596-0.167l-6.629-0.473l-6.665-0.784l-6.686-1.107l-6.703-1.417L228.78,403.386z"/>
<path fill="#FFFFFF" d="M336.625,132.625l0.635,0.433c0.033-0.844,0.057-1.689,0.092-2.539c0.027-1.139-0.127-2.639-0.323-4.232
	c0.484-1.162,3.118-3.59,4.267-5.273c-1.666,0.433-4.625,0.834-6.688,0.946c-1.521-1.364-1.776-2.18-2.9-3.099
	c-9.125-7.497-17.976-8.825-29.498-5.542c-22.386,6.157-38.597,19.301-51.106,35.618l-26.765,48.111
	c-6.335,12.723-11.371,25.549-15.36,38.449c-8.234,29.971-12.29,60.743-12.781,89.036c45.892-14.175,88.556-53.567,115.074-99.548
	c14.608-26.571,24.236-51.827,25.942-90.812L336.625,132.625z"/>
<path d="M314.926,124.825c3.102,0,5.627,2.534,5.627,5.632c0,3.105-2.525,5.639-5.627,5.639c-3.107,0-5.638-2.534-5.638-5.639
	C309.288,127.358,311.818,124.825,314.926,124.825"/>
<path fill="#008C3C" d="M234.832,244.684c36.471,17.603,53.035,49.63,41.227,94.02c0.115-0.203,0.236-0.393,0.363-0.601
	c14.331-29.054,40.177-31.383,71.646-17.005c-1.494,3.942-3.217,12.135-5.102,14.366c-10.672,16.228-30.14,25.48-59.085,19.519
	c-10.061-0.813-13.233-5.01-9.616-12.947c-2.743,2.75-4.575,5.337-8.512,8.884c-6.303-3.961-13.614-7.079-18.206-11.422
	c-21.736-19.006-30.018-44.688-24.102-71.225C224.549,262.625,230.701,252.823,234.832,244.684"/>
</svg>
