<?xml version="1.0" encoding="utf-8"?>
<!-- Generator: Adobe Illustrator 16.0.0, SVG Export Plug-In . SVG Version: 6.00 Build 0)  -->
<!DOCTYPE svg PUBLIC "-//W3C//DTD SVG 1.1//EN" "http://www.w3.org/Graphics/SVG/1.1/DTD/svg11.dtd">
<svg version="1.1" id="Layer_1" xmlns="http://www.w3.org/2000/svg" xmlns:xlink="http://www.w3.org/1999/xlink" x="0px" y="0px"
	 width="529.32px" height="529.315px" viewBox="0 0 529.32 529.315" enable-background="new 0 0 529.32 529.315"
	 xml:space="preserve">
<path fill-rule="evenodd" clip-rule="evenodd" fill="#FFFFFF" d="M264.658,0C410.416,0,529.32,118.889,529.32,264.662
	c0,145.764-118.904,264.653-264.662,264.653C118.906,529.315,0,410.426,0,264.662C0,118.889,118.906,0,264.658,0"/>
<path fill-rule="evenodd" clip-rule="evenodd" fill="#FFD500" d="M102.9,240.856c0-87.12,70.661-157.739,157.816-157.739
	c87.155,0,157.814,70.62,157.814,157.739c0,1.769-0.023,3.536-0.087,5.288c-5.071,4.855-9.629,3.086-12.964,1.801
	c-4.622-2.991-8.696-2.716-13.316-0.547c-9.782,4.075-13.31,1.631-15.215-0.266c-4.613-5.979-13.309-3.801-19.835-1.904
	c-16.024,4.347-24.722-3.529-24.722-3.529s-182.465,14.177-227.732,22.802C103.498,256.785,102.9,248.893,102.9,240.856"/>
<path fill-rule="evenodd" clip-rule="evenodd" fill="#E63027" d="M131.688,263.512l-2.894,0.37l-0.213-1.431
	c-1.092-7.226-1.725-14.281-1.725-21.595c0-73.898,59.928-133.797,133.859-133.797c73.935,0,133.856,59.899,133.856,133.797
	c0,2.355-0.056,4.687-0.177,7.009l-0.071,1.469l-5.963-0.305l0.071-1.478c0.112-2.219,0.169-4.444,0.169-6.696
	c0-70.596-57.254-127.834-127.886-127.834S132.825,170.26,132.825,240.856c0,5.545,0.35,11.011,1.036,16.372
	c67.699-8.359,199.777-18.615,199.777-18.615l0.467,5.948C334.105,244.561,198.378,255.105,131.688,263.512"/>
<path fill-rule="evenodd" clip-rule="evenodd" fill="#E63027" d="M142.052,262.251l-2.861,0.337l-0.222-1.414
	c-1.04-6.792-1.655-13.429-1.655-20.318c0-68.12,55.25-123.34,123.402-123.34c68.155,0,123.401,55.221,123.401,123.34
	c0,2.933-0.104,5.835-0.305,8.712l-0.097,1.479l-5.964-0.417l0.104-1.471c0.192-2.741,0.289-5.513,0.289-8.303
	c0-64.826-52.577-117.377-117.43-117.377c-64.858,0-117.431,52.552-117.431,117.377c0,5.128,0.329,10.183,0.964,15.133
	c69.795-8.084,189.388-17.376,189.388-17.376l0.467,5.948C334.105,244.561,211.334,254.101,142.052,262.251"/>
<path fill-rule="evenodd" clip-rule="evenodd" fill="#E63027" d="M152.436,261.061l-2.837,0.322l-0.22-1.399
	c-1.005-6.397-1.604-12.642-1.604-19.128c0-62.349,50.563-112.894,112.942-112.894c62.378,0,112.945,50.56,112.945,112.917
	l-0.048,4.083l-5.972-0.072l0.048-4.051c0-59.055-47.892-106.907-106.974-106.907c-59.079,0-106.972,47.876-106.972,106.922
	c0,4.726,0.307,9.387,0.901,13.952c70.496-7.771,178.993-16.195,178.993-16.195l0.467,5.948
	C334.105,244.561,222.771,253.21,152.436,261.061"/>
<path fill-rule="evenodd" clip-rule="evenodd" fill="#E63027" d="M162.834,259.928l-2.812,0.298l-0.225-1.382
	c-0.977-6.012-1.559-11.88-1.559-17.988c0-56.57,45.878-102.437,102.478-102.437s102.481,45.891,102.481,102.47l-0.089,5.039
	l-5.972-0.112l0.089-4.975c0-53.285-43.206-96.45-96.51-96.45c-53.3,0-96.512,43.189-96.512,96.465
	c0,4.356,0.286,8.632,0.845,12.834c70.129-7.434,168.588-15.077,168.588-15.077l0.467,5.948
	C334.105,244.561,233.081,252.405,162.834,259.928"/>
<path fill-rule="evenodd" clip-rule="evenodd" fill="#E63027" d="M260.716,151.865c49.172,0,89.035,39.837,89.035,88.991
	c0,1.897-0.057,3.77-0.176,5.625c-11.196,0.636-17.184-4.782-17.184-4.782s-90.161,7.009-159.455,14.162
	c-0.829-4.879-1.258-9.895-1.258-15.005C171.679,191.702,211.542,151.865,260.716,151.865"/>
<polyline fill-rule="evenodd" clip-rule="evenodd" fill="#0077BE" points="39.127,189.243 70.287,199.362 66.771,210.179 
	35.612,200.053 32.236,210.437 22.825,207.382 33.265,175.26 42.68,178.314 "/>
<path fill-rule="evenodd" clip-rule="evenodd" fill="#0077BE" d="M49.616,142.702l5.518-9.94l24.874,13.784
	c4.838,2.684,7.531,5.777,8.058,9.274c0.474,3.294-0.857,7.763-3.979,13.396c-2.705,4.871-5.119,8.253-7.256,10.152
	c-2.151,1.839-4.433,2.635-6.847,2.386c-1.878-0.216-4.47-1.246-7.789-3.086l-24.878-13.784l5.518-9.94l24.676,13.671
	c1.922,1.069,3.489,1.172,4.699,0.329c0.787-0.563,1.861-2.065,3.219-4.525c1.27-2.29,1.84-3.897,1.708-4.838
	c-0.101-1.142-1.202-2.291-3.288-3.448"/>
<polyline fill-rule="evenodd" clip-rule="evenodd" fill="#0077BE" points="84.402,95.864 91.726,102.004 96.381,132.552 
	109.507,116.919 117.085,123.277 94.674,149.975 87.308,143.803 82.52,113.504 70.415,127.923 62.833,121.558 "/>
<polyline fill-rule="evenodd" clip-rule="evenodd" fill="#0077BE" points="101.603,80.817 122.663,105.901 136.305,94.465 
	142.662,102.043 120.312,120.794 92.889,88.124 "/>
<path fill-rule="evenodd" clip-rule="evenodd" fill="#0077BE" d="M156.397,74.822l-14.056-13.115l-0.101,0.064l5.087,18.501
	 M162.626,80.77l-13.117,7.876l1.974,7.369l-10.138,6.092l-11.007-43.142l14.828-8.901l33.088,29.876l-9.949,5.972L162.626,80.77z"
	/>
<path fill-rule="evenodd" clip-rule="evenodd" fill="#0077BE" d="M205.253,53.107l2.021,8.108l8.335-2.081
	c1.876-0.466,3.11-1.085,3.696-1.857c0.622-0.779,0.734-1.985,0.334-3.6c-0.414-1.656-1.029-2.636-1.846-2.941
	c-0.784-0.313-2.113-0.233-3.99,0.233 M201.465,37.93l1.871,7.501l7.948-1.977c1.946-0.486,3.175-1.049,3.681-1.684
	c0.503-0.667,0.544-1.829,0.13-3.483c-0.331-1.327-0.74-2.183-1.23-2.568c-0.615-0.434-1.655-0.466-3.131-0.101L201.465,37.93z
	 M198.491,73.014l-10.324-41.381l21.752-5.417c4.52-1.129,7.88-1.302,10.07-0.515c2.708,1.001,4.596,3.617,5.646,7.844
	c0.728,2.909,0.855,5.143,0.382,6.703c-0.53,1.933-2.038,3.424-4.509,4.468l0.109,0.438c2.877-0.518,5.079-0.072,6.611,1.342
	c1.184,1.149,2.14,3.194,2.876,6.145c1.181,4.742,0.82,8.213-1.098,10.408c-1.506,1.782-4.693,3.279-9.552,4.483L198.491,73.014z"/>
<polyline fill-rule="evenodd" clip-rule="evenodd" fill="#0077BE" points="249.557,30.359 249.826,38.143 268.017,37.507 
	268.292,45.404 250.099,46.043 250.392,54.337 270.171,53.646 270.501,62.968 239.349,64.054 237.859,21.434 268.612,20.361 
	268.942,29.68 "/>
<polyline fill-rule="evenodd" clip-rule="evenodd" fill="#0077BE" points="293.92,22.58 289.364,55.012 306.988,57.487 
	305.615,67.285 276.722,63.225 282.652,21 "/>
<polyline fill-rule="evenodd" clip-rule="evenodd" fill="#0077BE" points="330.56,40.111 328.149,47.522 345.46,53.14 
	343.018,60.662 325.706,55.037 323.142,62.929 341.965,69.045 339.08,77.917 309.439,68.282 322.627,27.731 351.89,37.235 
	349.005,46.107 "/>
<path fill-rule="evenodd" clip-rule="evenodd" fill="#0077BE" d="M370.495,56.796l-11.082,19.987l8.703,4.83
	c3.353,1.857,6.205,0.66,8.552-3.584L381,70.226c1.286-2.323,1.76-4.123,1.423-5.385c-0.322-1.14-1.399-2.21-3.223-3.214
	 M344.665,79.926l20.679-37.299l18.902,10.48c5.281,2.917,8.472,6.148,9.597,9.668c1.174,3.512,0.313,7.885-2.596,13.124
	l-4.332,7.812c-2.918,5.264-5.995,8.504-9.218,9.708c-3.447,1.293-7.708,0.539-12.787-2.275L344.665,79.926z"/>
<path fill-rule="evenodd" clip-rule="evenodd" fill="#0077BE" d="M418.941,67.43l-3.527,4.676l-4.95-3.72l3.527-4.685
	 M416.651,74.815l-25.677,34.06l-9.084-6.848l25.671-34.053L416.651,74.815z"/>
<polyline fill-rule="evenodd" clip-rule="evenodd" fill="#0077BE" points="452.72,109.855 421.962,117.892 411.203,128.276 
	403.302,120.094 414.062,109.71 423.474,79.597 432.524,88.96 425.99,105.854 426.271,106.142 443.55,100.372 "/>
<polyline fill-rule="evenodd" clip-rule="evenodd" fill="#0077BE" points="457.309,132.824 450.776,137.061 460.692,152.322 
	454.054,156.622 444.144,141.367 437.178,145.885 447.962,162.48 440.134,167.561 423.161,141.432 458.94,118.206 475.698,144.004 
	467.877,149.084 "/>
<path fill-rule="evenodd" clip-rule="evenodd" fill="#0077BE" d="M473.584,177.06l1.454,4.501c2.009,6.181,2.701,10.44,2.089,12.77
	c-0.626,2.5-3.149,4.646-7.578,6.438c-2.957,1.189-5.128,1.84-6.518,1.953c-2.411,0.192-4.598-0.619-6.56-2.436
	c-2.361-2.202-4.635-6.004-6.821-11.413c-2.459-6.084-3.521-10.375-3.184-12.882c0.523-3.77,3.721-6.839,9.588-9.211l4.092,10.119
	c-1.97,0.794-3.047,1.768-3.239,2.909c-0.169,1.004,0.298,2.861,1.391,5.569c1.062,2.636,1.952,4.284,2.668,4.936
	c0.835,0.763,2.049,0.819,3.632,0.184c1.656-0.667,2.524-1.35,2.612-2.033c0.104-0.66-0.281-2.323-1.157-4.992l-0.78-2.386
	c-1.421-4.332-2.249-7.226-2.466-8.688c-0.467-2.677-0.162-4.847,0.924-6.51c1.263-1.938,3.689-3.633,7.273-5.08
	c5.199-2.104,9.235-2,12.095,0.331c2.059,1.655,4.308,5.489,6.734,11.5c2.219,5.489,3.264,9.436,3.136,11.863
	c-0.266,3.785-2.846,6.662-7.731,8.64l-1.631,0.658l-4.101-10.126c1.873-0.747,2.861-1.679,2.982-2.788
	c0.096-0.78-0.337-2.364-1.302-4.75c-1.068-2.636-2.049-4.267-2.95-4.879c-0.714-0.45-1.688-0.426-2.916,0.074
	c-1.448,0.578-2.242,1.333-2.404,2.258C472.804,174.207,473.022,175.364,473.584,177.06"/>
<path fill-rule="evenodd" clip-rule="evenodd" fill="#0077BE" d="M508.198,205.535l-5.657,1.519l-1.607-5.989l5.658-1.519
	 M501.841,209.947l-41.212,11.035l-2.943-10.979L498.9,198.96L501.841,209.947z"/>
<path fill-rule="evenodd" clip-rule="evenodd" fill="#0077BE" d="M332.392,240.447c0,0,8.697,7.875,24.722,3.527
	c6.526-1.905,15.222-4.075,19.835,1.905c1.905,1.897,5.433,4.339,15.215,0.264c4.62-2.169,8.694-2.442,13.316,0.547
	c3.527,1.358,8.422,3.255,13.855-2.717c2.988-2.169,8.96-3.527,15.215,1.086c3.527,1.358,9.233,1.358,15.485-3.802
	c4.075-2.169,6.783-4.075,23.901,1.631c5.706,0.274,13.582,2.716,22.014-5.706l11.027-3.971c0.465,3.625,0.852,7.282,1.164,10.946
	c-8.446,4.397-21.73,10.28-31.216,9.589c-5.158-1.085-10.044-2.171-13.035-3.529c-1.903-1.358-8.694-3.255-13.589,0.547
	c-1.633,1.631-5.434,8.96-16.847,2.982c-4.347-1.624-9.233-4.34-14.94,0.545c-2.989,2.717-3.527,8.143-13.854,1.358
	c-5.434-1.631-7.603-2.442-13.583-0.272c-2.99,1.085-8.696,4.885-17.93-1.358c-2.717-1.085-4.621-3.802-13.044-0.811
	c-2.99,1.622-8.149,4.886-27.978-2.171C332.126,243.428,332.392,240.447,332.392,240.447 M206.881,461.22l7.064,1.622
	c0,0,7.88,7.065,13.856,11.951c5.433,2.17,17.661,4.895,32.87,1.631c7.064-0.545,23.371-2.988,46.188,10.047
	c9.782,2.169,26.081,4.074,48.085,0.813c6.992-1.133,12.802-2.267,17.465-3.287c-32.494,15.985-69.061,24.961-107.73,24.961
	c-32.719,0-63.934-6.421-92.452-18.09C200.661,465.703,206.881,461.22,206.881,461.22z M300.341,374.863l6.518,2.178
	c0,0,5.979,4.613,23.909-2.717c4.613-1.631,13.31-3.802,31.515,5.972c5.705,1.358,12.222,1.631,20.099-2.443
	c6.527-2.717,21.74-7.875,40.756,2.99c14.94,2.17,23.636,2.434,23.636,2.434s13.582,1.633,23.628-4.886
	c4.622-2.169,10.063-3.802,10.063-3.802l2.628-0.272c-6.084,12.088-13.142,23.596-21.065,34.43l-1.397-0.208
	c0,0-14.13-0.813-17.119-2.991c0.273,0.547-10.055,4.895-26.354,4.35c-6.244-0.548-13.31-1.905-16.026-3.264
	c-2.716-1.358-9.514-3.528-21.738,1.358c-4.349,2.716-12.498,6.791-33.956-2.444c-6.791-1.358-14.129-1.896-25.533,0.82
	c-4.348,0.538-13.855,5.971-38.849-6.525c-24.996-12.488-11.141-6.783-11.141-6.783L300.341,374.863z M318.272,333.32l5.433,2.443
	c0,0,2.169,6.511,20.921,2.17c8.413-1.086,19.288-0.82,30.418,2.443c10.327,0.539,14.676-1.358,17.938-2.716
	c3.255-1.358,10.865-2.717,22.816,3.8c5.708-0.545,14.13-2.989,16.308-5.158c2.17-2.171,12.488-3.528,23.901,1.358
	c7.064,1.896,12.225,1.357,15.213-1.086c2.989-2.443,8.423-1.905,14.402,1.624c6.519,1.631,8.963,1.093,8.963,1.093l2.917-0.306
	c-2.292,7.2-4.911,14.258-7.844,21.152l-2.14-0.481c0,0-7.338-4.348-14.666-0.812c-3.537,1.624-13.582,8.688-27.438-0.82
	c-4.348-0.272-5.706-1.357-10.864,1.086c-4.895,2.17-14.949,8.422-27.712,1.631c-3.536-1.896-8.158-4.886-30.429,1.086
	c-5.158,1.084-19.561,1.358-26.898-2.444c-4.348-0.811-8.149,1.086-9.508,1.631c-1.358,0.539-8.149,6.785-19.835-0.819
	c-5.16-1.35-10.866-2.98-10.866-2.98L318.272,333.32z M302.784,295.025l4.622,4.348c0,0,11.677,13.573,36.672,6.782
	c4.348-1.084,10.866-3.255,25.269,1.358c4.613,1.633,8.688,0.819,16.024-2.98c5.169-2.444,8.696-2.991,18.204,1.084
	c4.622,2.171,6.519,4.341,23.91-3.262c2.171-0.813,7.338-6.785,22.004,0.272c5.708,2.178,9.235,4.622,24.721-2.17
	c6.255-1.632,12.765-4.349,26.901,1.897l4.685,2.033c-0.876,5.32-1.912,10.584-3.119,15.784l-3.744-1.519
	c0,0-10.593-7.339-20.646-2.991c-3.538,2.717-10.866,9.78-26.627,1.905c-3.529-1.631-8.688-3.536-14.668,0.265
	c-4.886,2.716-9.234,10.055-24.995,2.716c-4.347-1.622-4.895-4.339-22.824,0.547c-9.78,2.17-21.185,5.708-39.927,0.539
	c-4.082,0-9.781,1.905-13.317,2.99c-3.536,1.084-13.854,2.442-13.854,2.442l-1.633-2.442c0,0-3.527-20.092-27.71-11.404
	c-3.802-1.632-3.802-5.433-3.802-5.433L302.784,295.025z M320.168,281.177c0,0,11.958,8.142,22.824,3.803
	c7.065-2.991,13.037-8.688,23.637-2.444c4.348,2.444,8.688,6.244,20.101,0.539c4.887-1.35,7.064-2.17,13.855,1.905
	c2.989,1.084,6.253,3.527,14.675-2.178c3.255-1.358,5.972-2.982,17.11-0.267c6.252,1.086,11.96,0.267,16.573-3.527
	c4.074-2.444,11.411-1.905,20.372,0.272c8.971,1.896,14.676,6.51,28.804-2.45c3.586-2.284,7.933-5.521,10.842-7.741
	c-0.064,3.634-0.208,7.25-0.426,10.852l-5.528,3.953c0,0-7.33,8.688-28.798,5.16c-10.053-2.171-17.93-4.349-23.362-1.094
	c-1.903,1.633-5.979,7.065-16.297,2.99c-3.538-1.357-10.328-3.802-18.477,0.273c-3.53,1.905-5.98,6.244-20.648,0.272
	c-3.262-0.812-7.884-2.178-14.94,0.813c-2.989,1.358-5.167,5.979-17.93-3.255c-1.905-0.547-6.792-1.905-14.675,3.528
	c-3.255,2.169-11.679,6.791-33.145-2.717c-5.98-3.255-8.688-4.886-8.688-4.886l7.063-7.604L320.168,281.177z M329.684,262.437
	l9.508,2.178c0,0,8.149,2.169,16.024-2.178c4.622-1.898,11.141-4.068,17.932,0.817c3.801,2.444,9.233,6.793,18.203,1.086
	c1.357-1.903,5.16-2.442,11.404,1.358c4.347,1.358,8.969,4.074,16.307-2.717c3.801-1.905,7.603-2.98,15.761,1.086
	c4.886,0.547,10.592,2.441,16.024-2.991c1.905-2.442,5.16-5.424,19.016-1.075c5.433,1.075,14.401,5.158,25.54,0
	c4.341-3.264,7.332-6.253,7.332-6.253l5.762-4.807c0.216,3.529,0.37,7.081,0.441,10.649c-6.1,4.379-17.833,11.926-25.757,11.541
	c-7.066-0.545-12.233-2.178-12.233-2.178s-7.603-3.527-17.93,1.094c-4.888,2.17-9.773,5.972-20.101,1.896
	c-2.443-1.356-8.969-1.356-13.044,1.094c-1.084,0.539-7.603,4.604-17.93,0c-3.529-0.819-6.519-1.905-13.856,1.077
	c-3.801,0.819-8.961,4.348-16.299-2.982c-1.904-0.272-7.064-2.716-16.845,1.358c-7.603,2.717-15.752,3.529-23.901,0.274
	l-5.979-1.094C325.063,271.67,329.137,266.245,329.684,262.437z M440.842,433.958c-10.955,11.404-23.011,21.74-35.998,30.837
	c-3.424-1.672-16.924-6.862-46.637-2.491c-6.791,0.274-15.215,4.074-38.305-6.244c-10.328-1.631-13.855-0.82-13.855-0.82
	s-33.417,5.98-50.805-1.624c-7.88-4.348-18.746-7.603-18.746-7.603l-4.347-2.45l-5.975-7.596l30.965-23.081l6.253,3.255
	c0,0,19.012,13.848,30.697,14.668c7.61,0,9.508,0.264,15.76-1.633c5.706-1.903,10.866-3.262,35.587,4.341
	c10.594,2.45,17.385,4.621,32.871,0.545c7.063-1.084,22.278-3.527,39.936,5.16C426.392,440.797,428.183,438.307,440.842,433.958z"/>
<path fill-rule="evenodd" clip-rule="evenodd" fill="#009E59" d="M25.276,225.546c0,0,17.207,29.504,63.752,26.788
	c3.263-0.354,15.942-0.177,41.117-10.498l23.208,18.823l104.988-56.765l1.982,23.767l-11.887,8.582l2.643,17.16
	c0,0,47.254-20.391,56.126-11.878c0.899,1.083,1.841,23.579-15.189,44.219c-14.305,16.651-33.019,33.657-33.019,33.657l25.103-3.954
	c0,0,15.382,3.602,11.219,24.416c-0.723,3.078-5.304,22.078-33.016,44.887c-46.943,39.677-101.14,83.727-114.459,94.528
	C71.885,437.863,20.357,357.318,20.357,264.751c0-13.455,1.089-26.65,3.187-39.51C24.098,225.306,24.678,225.401,25.276,225.546"/>
<path fill-rule="evenodd" clip-rule="evenodd" fill="#FFFFFF" d="M130.816,241.925l162.919-84.804l-1.276,41.766l-161.643,85.649
	 M190.1,258.537l39.241-20.028l-8.531,168.75l-38.389,18.749L190.1,258.537z M236.164,230.842c0,0,66.959-43.463,92.122-12.778
	c2.982,4.685,27.719,36.64-31.986,89.056c12.795-0.853,42.225-3.833,23.025,49.861c-6.67,11.949-8.093,17.891-82.311,80.962
	l-62.14,54.386c0,0-18.767-5.11-35.399-18.323l95.832-77.396c0,0,48.624-34.944,51.606-61.369
	c-0.426-8.094,0.425-13.631-21.322-8.945c-30.284,3.834-30.71,3.834-30.71,3.834l37.959-40.481c0,0,39.235-42.185,10.665-41.333
	c-8.527,2.555-31.139,13.637-46.919,23.435C236.164,233.398,236.164,230.842,236.164,230.842z"/>
<polyline fill-rule="evenodd" clip-rule="evenodd" fill="#0077BE" points="159.239,472.302 170.495,484.671 169.08,485.94 
	158.8,474.633 158.765,480.975 157.117,480.917 157.188,474.127 "/>
<path fill-rule="evenodd" clip-rule="evenodd" fill="#0077BE" d="M171.377,472.068c1.456-1.294,2.234-2.226,2.352-2.788
	c0.104-0.571-0.366-1.432-1.419-2.58c-1.128-1.246-2.06-1.832-2.796-1.752c-0.554,0.071-1.507,0.716-2.865,1.929
	c-1.467,1.303-2.246,2.218-2.335,2.741c-0.104,0.586,0.423,1.518,1.583,2.796c1.041,1.142,1.876,1.688,2.503,1.624
	C168.975,473.982,169.963,473.331,171.377,472.068 M169.654,479.673l-0.422-0.468l1.423-1.261l0.417,0.457
	c0.631,0.7,1.237,0.94,1.82,0.739c0.526-0.169,1.506-0.899,2.938-2.169c1.394-1.237,2.142-2.139,2.258-2.701
	c0.142-0.667-0.349-1.607-1.471-2.836l-1.876-2.065l-0.06-0.009c0.333,1.036-0.39,2.355-2.183,3.945
	c-1.82,1.624-3.214,2.484-4.178,2.564c-1.122,0.121-2.4-0.611-3.841-2.193c-1.5-1.647-2.166-3.006-1.989-4.083
	c0.157-0.973,1.169-2.29,3.033-3.962c1.835-1.631,3.262-2.483,4.279-2.557c1.125-0.064,2.435,0.716,3.926,2.355l4.303,4.741
	c1.45,1.592,2.127,2.869,2.021,3.843c-0.104,1.052-1.142,2.45-3.093,4.194c-1.745,1.551-3.023,2.459-3.831,2.725
	C171.945,481.336,170.788,480.909,169.654,479.673z"/>
<path fill-rule="evenodd" clip-rule="evenodd" fill="#0077BE" d="M182.622,461.838c1.45-1.302,2.238-2.228,2.35-2.79
	c0.106-0.568-0.37-1.43-1.418-2.586c-1.133-1.246-2.062-1.832-2.796-1.752c-0.554,0.08-1.512,0.715-2.865,1.929
	c-1.467,1.309-2.243,2.217-2.335,2.74c-0.109,0.586,0.421,1.527,1.578,2.806c1.042,1.14,1.878,1.678,2.503,1.615
	C180.213,463.75,181.21,463.091,182.622,461.838 M180.897,469.432l-0.421-0.456l1.418-1.27l0.417,0.465
	c0.632,0.691,1.239,0.933,1.825,0.739c0.526-0.177,1.506-0.899,2.941-2.178c1.391-1.237,2.137-2.139,2.25-2.701
	c0.142-0.657-0.344-1.606-1.466-2.836l-1.876-2.065h-0.065c0.337,1.028-0.39,2.347-2.174,3.945
	c-1.824,1.615-3.219,2.477-4.191,2.564c-1.113,0.12-2.396-0.611-3.834-2.203c-1.498-1.64-2.161-3.004-1.992-4.074
	c0.16-0.98,1.173-2.298,3.037-3.963c1.833-1.631,3.26-2.482,4.281-2.563c1.125-0.065,2.436,0.723,3.925,2.363l4.305,4.732
	c1.454,1.592,2.13,2.879,2.021,3.85c-0.109,1.045-1.142,2.444-3.098,4.188c-1.74,1.56-3.019,2.468-3.826,2.725
	C183.188,471.097,182.027,470.678,180.897,469.432z"/>
<path fill-rule="evenodd" clip-rule="evenodd" fill="#0077BE" d="M202.341,452.25l1.128,1.237l-9.002,8.021l-1.903-2.091
	c-1.352-1.485-1.894-2.796-1.636-3.921c0.193-0.787,1.06-2.033,2.613-3.729c1.024-1.118,1.619-1.802,1.791-2.051
	c0.366-0.547,0.482-1.06,0.349-1.535c-0.143-0.489-0.602-1.164-1.385-2.024c-1.106-1.214-2.001-1.809-2.669-1.77
	c-0.542,0.025-1.438,0.597-2.692,1.713c-1.501,1.335-2.309,2.29-2.422,2.845c-0.105,0.556,0.361,1.391,1.389,2.523l0.588,0.645
	l-1.415,1.261l-0.588-0.643c-0.924-1.012-1.495-1.808-1.716-2.388c-0.293-0.73-0.211-1.512,0.233-2.331
	c0.447-0.826,1.382-1.88,2.805-3.149c1.675-1.494,3.059-2.251,4.151-2.267c1.089-0.015,2.343,0.748,3.753,2.299
	c1.423,1.566,2.038,2.893,1.853,3.995c-0.145,0.906-1,2.178-2.567,3.817c-1.266,1.325-1.982,2.297-2.139,2.916
	c-0.172,0.676,0.142,1.446,0.941,2.331l0.956,1.053"/>
</svg>
