<?xml version="1.0" encoding="utf-8"?>
<!-- Generator: Adobe Illustrator 16.0.0, SVG Export Plug-In . SVG Version: 6.00 Build 0)  -->
<!DOCTYPE svg PUBLIC "-//W3C//DTD SVG 1.1//EN" "http://www.w3.org/Graphics/SVG/1.1/DTD/svg11.dtd">
<svg version="1.1" xmlns="http://www.w3.org/2000/svg" xmlns:xlink="http://www.w3.org/1999/xlink" x="0px" y="0px"
	 width="585.336px" height="571.19px" viewBox="0 0 585.336 571.19" enable-background="new 0 0 585.336 571.19"
	 xml:space="preserve">
<symbol  id="Bush_Left" viewBox="-43.3 -24.308 86.601 48.615">
	<g>
		<g>
			<path fill="#009640" d="M-33.888-3.511c8.299,8.895,13.237,21.557,13.237,21.557C-24.14,7.54-28.211,2.316-34.923-6.174
				L-33.888-3.511z"/>
			<path fill="#009640" d="M-30.487,3.161c0.297,2.265,2.376,11.441,2.376,11.441l-2.153-5.593
				c-0.479-2.881,0.761-5.555,0.447-7.952L-30.487,3.161z"/>
			<path fill="#009640" d="M-27.667,8.564c0.297,2.266,1.726,9.829,1.726,9.829l-0.53-3.791c0-2.44-0.211-5.744-0.526-8.142
				L-27.667,8.564z"/>
			<path fill="#009640" d="M-24.188,13.377c0.216,1.381,3.051,6.613,3.051,6.613l-2.181-2.933c0-1.487-0.154-3.501-0.382-4.963
				L-24.188,13.377z"/>
			<path fill="#009640" d="M-21.167,18.075c0.602,1.176,2.76,6.232,2.76,6.232l-1.281-3.51c-0.313-1.289-0.958-3.02-1.595-4.265
				L-21.167,18.075z"/>
			<path fill="#009640" d="M-26.043,10.332c0.297,2.266,1.726,9.828,1.726,9.828l-1.161-4.837c0-2.441,0.42-4.697,0.105-7.095
				L-26.043,10.332z"/>
			<path fill="#009640" d="M-24.522,3.487c1.421,0.866,6.495,3.396,6.495,3.396l-3.35-2.196c-1.774-1.164-5.323-0.626-6.827-1.543
				L-24.522,3.487z"/>
			<path fill="#009640" d="M-21.855,6.884c1.898,1.261,6.128,5.077,6.128,5.077l-3.163-2.14c-2.187-1.069-5.052-2.709-7.062-4.043
				L-21.855,6.884z"/>
			<path fill="#009640" d="M-21.837,13.088c1.036,0.934,3.865,6.169,3.865,6.169l-1.263-3.432c-1.244-0.811-2.842-2.037-3.939-3.025
				L-21.837,13.088z"/>
			<path fill="#009640" d="M-23.271,9.473c1.577,1.009,5.962,5.851,5.962,5.851l-2.632-3.877c-1.816-0.856-3.47-1.16-5.14-2.229
				L-23.271,9.473z"/>
			<path fill="#009640" d="M-32.966,0.366c0.297,2.265,1.6,12.736,1.6,12.736l-1.376-6.888c-0.479-2.881,0.762-5.555,0.447-7.953
				L-32.966,0.366z"/>
			<path fill="#009640" d="M-34.966-1.264c0.297,2.266,1.599,12.736,1.599,12.736l-1.376-6.887
				c-0.479-2.882,0.761-5.556,0.447-7.953L-34.966-1.264z"/>
			<path fill="#009640" d="M-29.402-0.557c1.549,0.605,10.179,4.284,10.179,4.284l-4.82-3.121c-1.949-0.838-5.362-0.453-7.002-1.095
				L-29.402-0.557z"/>
			<path fill="#009640" d="M-29.97-3.318c1.727,0.743,9.727,4.106,9.727,4.106l-5.13-2.746c-2.171-1.049-4.612-0.291-6.44-1.078
				L-29.97-3.318z"/>
		</g>
		<g>
			<path fill="#009640" d="M-41.108-9.821c17.332-2.827,35.766-10.603,35.766-10.603C-18.811-13.763-28.099-11.68-43.3-8.345
				L-41.108-9.821z"/>
			<path fill="#009640" d="M-29.852-13.562c2.399-1.676,13.091-8.003,13.091-8.003l-7.499,3.39
				c-3.164,2.079-4.231,4.895-6.771,6.668L-29.852-13.562z"/>
			<path fill="#009640" d="M-21.787-16.448c2.399-1.676,10.895-7.041,10.895-7.041l-4.051,2.787
				c-2.23,1.975-5.483,4.535-8.022,6.309L-21.787-16.448z"/>
			<path fill="#009640" d="M-13.531-18.509c1.501-1.004,9.426-3.744,9.426-3.744l-5.098,1.225c-1.36,1.204-3.371,2.751-4.96,3.813
				L-13.531-18.509z"/>
			<path fill="#009640" d="M-5.888-20.719c1.742-0.635,8.756-3.589,8.756-3.589l-4.628,2.165c-1.525,0.878-3.821,1.938-5.666,2.609
				L-5.888-20.719z"/>
			<path fill="#009640" d="M-18.371-17.022c2.399-1.676,10.895-7.041,10.895-7.041l-5.708,3.301
				c-2.23,1.975-3.826,4.021-6.366,5.795L-18.371-17.022z"/>
			<path fill="#009640" d="M-22.937-10.686c2.367,0.047,10.307,0.671,10.307,0.671l-5.722,0.014
				c-3.032,0.008-6.476-2.295-8.982-2.345L-22.937-10.686z"/>
			<path fill="#009640" d="M-16.876-12.029c3.258-0.021,11.436-0.882,11.436-0.882l-5.462,0.066
				c-3.403-0.285-8.078-0.468-11.526-0.445L-16.876-12.029z"/>
			<path fill="#009640" d="M-11.188-17.037c2.003-0.21,9.925-2.956,9.925-2.956L-5.8-17.882c-2.12,0.001-5.014,0.151-7.134,0.374
				L-11.188-17.037z"/>
			<path fill="#009640" d="M-16.082-14.868c2.671,0.014,11.958-1.595,11.958-1.595l-6.461,1.751
				c-2.797-0.263-4.908-0.889-7.736-0.902L-16.082-14.868z"/>
			<path fill="#009640" d="M-35.155-12.604c2.399-1.677,13.411-9.46,13.411-9.46l-7.819,4.846c-3.163,2.079-4.231,4.895-6.771,6.668
				L-35.155-12.604z"/>
			<path fill="#009640" d="M-38.862-12.34c2.399-1.676,13.412-9.459,13.412-9.459l-7.819,4.846
				c-3.164,2.079-4.231,4.894-6.771,6.668L-38.862-12.34z"/>
			<path fill="#009640" d="M-32.045-9.982c2.271,0.325,15.205,1.892,15.205,1.892l-8.198-0.013c-2.927-0.348-6.361-2.455-8.766-2.8
				L-32.045-9.982z"/>
			<path fill="#009640" d="M-35.199-8.048C-32.604-7.74-20.658-6.25-20.658-6.25l-8.2-0.479c-3.366-0.294-5.381-2.191-8.127-2.518
				L-35.199-8.048z"/>
		</g>
		<g>
			<path fill="#009640" d="M-20.024-4.793c13.512-1.991,27.731-7.055,27.731-7.055c-10.5,4.69-17.742,6.158-29.593,8.506
				L-20.024-4.793z"/>
			<path fill="#009640" d="M-11.401-7.015c1.871-1.181,10.206-5.637,10.206-5.637l-5.846,2.388C-9.508-8.8-10.341-6.817-12.32-5.568
				L-11.401-7.015z"/>
			<path fill="#009640" d="M-5.113-9.048c1.87-1.18,8.494-4.958,8.494-4.958l-3.158,1.963c-1.739,1.39-4.275,3.192-6.255,4.442
				L-5.113-9.048z"/>
			<path fill="#009640" d="M1.323-10.499c1.17-0.707,7.349-2.637,7.349-2.637l-3.975,0.862c-1.06,0.848-2.627,1.938-3.867,2.686
				L1.323-10.499z"/>
			<path fill="#009640" d="M7.281-12.056c1.358-0.447,6.827-2.527,6.827-2.527L10.5-13.059c-1.189,0.618-2.979,1.365-4.417,1.838
				L7.281-12.056z"/>
			<path fill="#009640" d="M-2.451-9.452c1.871-1.181,8.494-4.959,8.494-4.959l-4.45,2.325c-1.739,1.391-2.982,2.831-4.962,4.08
				L-2.451-9.452z"/>
			<path fill="#009640" d="M-6.011-4.99c1.846,0.033,8.036,0.473,8.036,0.473l-4.46,0.01c-2.364,0.006-5.049-1.616-7.002-1.651
				L-6.011-4.99z"/>
			<path fill="#009640" d="M-1.285-5.937c2.54-0.015,8.916-0.62,8.916-0.62L3.372-6.511c-2.653-0.2-6.298-0.329-8.986-0.313
				L-1.285-5.937z"/>
			<path fill="#009640" d="M3.15-9.463c1.562-0.148,7.737-2.082,7.737-2.082L7.35-10.058c-1.653,0.001-3.909,0.106-5.562,0.263
				L3.15-9.463z"/>
			<path fill="#009640" d="M-0.666-7.936c2.083,0.01,9.323-1.123,9.323-1.123L3.62-7.825C1.439-8.011-0.207-8.451-2.411-8.461
				L-0.666-7.936z"/>
			<path fill="#009640" d="M-15.536-6.342c1.871-1.18,10.456-6.661,10.456-6.661l-6.096,3.413c-2.466,1.463-3.299,3.445-5.278,4.695
				L-15.536-6.342z"/>
			<path fill="#009640" d="M-18.426-6.154c1.87-1.181,10.456-6.662,10.456-6.662l-6.096,3.413c-2.466,1.464-3.299,3.446-5.279,4.695
				L-18.426-6.154z"/>
			<path fill="#009640" d="M-13.112-4.495c1.771,0.229,11.854,1.332,11.854,1.332l-6.392-0.009
				c-2.282-0.245-4.959-1.729-6.834-1.972L-13.112-4.495z"/>
			<path fill="#009640" d="M-15.57-3.133c2.022,0.217,11.336,1.267,11.336,1.267l-6.393-0.338c-2.625-0.207-4.195-1.543-6.336-1.772
				L-15.57-3.133z"/>
		</g>
		<g>
			<path fill="#009640" d="M1.652-2.056c12.235-1.712,25.111-6.067,25.111-6.067C17.255-4.089,10.698-2.826-0.033-0.807L1.652-2.056
				z"/>
			<path fill="#009640" d="M9.46-3.967c1.694-1.015,9.241-4.848,9.241-4.848l-5.293,2.054c-2.233,1.259-2.987,2.964-4.78,4.039
				L9.46-3.967z"/>
			<path fill="#009640" d="M15.154-5.715c1.694-1.016,7.691-4.266,7.691-4.266l-2.859,1.688c-1.575,1.196-3.871,2.747-5.664,3.821
				L15.154-5.715z"/>
			<path fill="#009640" d="M20.982-6.964c1.06-0.607,6.654-2.268,6.654-2.268L24.038-8.49c-0.96,0.729-2.379,1.667-3.501,2.311
				L20.982-6.964z"/>
			<path fill="#009640" d="M26.378-8.303c1.23-0.385,6.182-2.174,6.182-2.174l-3.268,1.312c-1.076,0.532-2.697,1.174-4,1.581
				L26.378-8.303z"/>
			<path fill="#009640" d="M17.565-6.063c1.694-1.015,7.691-4.266,7.691-4.266l-4.029,2c-1.575,1.196-2.701,2.436-4.494,3.511
				L17.565-6.063z"/>
			<path fill="#009640" d="M14.342-2.225c1.671,0.028,7.276,0.406,7.276,0.406L17.579-1.81C15.438-1.805,13.007-3.2,11.238-3.23
				L14.342-2.225z"/>
			<path fill="#009640" d="M18.621-3.038c2.3-0.013,8.073-0.534,8.073-0.534l-3.856,0.04c-2.402-0.173-5.703-0.283-8.137-0.271
				L18.621-3.038z"/>
			<path fill="#009640" d="M22.637-6.072c1.414-0.127,7.006-1.791,7.006-1.791l-3.204,1.279c-1.496,0.001-3.539,0.092-5.036,0.227
				L22.637-6.072z"/>
			<path fill="#009640" d="M19.182-4.758c1.886,0.008,8.442-0.966,8.442-0.966l-4.562,1.06c-1.975-0.158-3.465-0.538-5.461-0.546
				L19.182-4.758z"/>
			<path fill="#009640" d="M5.717-3.387c1.694-1.016,9.468-5.73,9.468-5.73l-5.52,2.936c-2.233,1.259-2.987,2.964-4.78,4.039
				L5.717-3.387z"/>
			<path fill="#009640" d="M3.1-3.227c1.694-1.015,9.468-5.73,9.468-5.73l-5.52,2.936c-2.233,1.26-2.987,2.965-4.78,4.04L3.1-3.227z
				"/>
			<path fill="#009640" d="M7.912-1.799c1.604,0.197,10.733,1.146,10.733,1.146L12.858-0.66c-2.066-0.211-4.49-1.487-6.188-1.696
				L7.912-1.799z"/>
			<path fill="#009640" d="M5.686-0.627C7.518-0.44,15.951,0.462,15.951,0.462l-5.789-0.29C7.786-0.006,6.364-1.155,4.425-1.353
				L5.686-0.627z"/>
		</g>
		<g>
			<path fill="#009640" d="M14.001,2.836c11.079-1.473,22.738-5.22,22.738-5.22C28.13,1.087,22.192,2.173,12.475,3.91L14.001,2.836z
				"/>
			<path fill="#009640" d="M21.072,1.192c1.534-0.873,8.368-4.171,8.368-4.171l-4.793,1.767c-2.022,1.083-2.705,2.551-4.328,3.475
				L21.072,1.192z"/>
			<path fill="#009640" d="M26.228-0.312c1.534-0.874,6.964-3.67,6.964-3.67l-2.589,1.452c-1.426,1.029-3.505,2.363-5.128,3.288
				L26.228-0.312z"/>
			<path fill="#009640" d="M31.505-1.386c0.96-0.523,6.026-1.951,6.026-1.951l-3.259,0.638c-0.869,0.628-2.154,1.434-3.17,1.987
				L31.505-1.386z"/>
			<path fill="#009640" d="M36.391-2.538c1.114-0.331,5.598-1.87,5.598-1.87l-2.959,1.129c-0.975,0.457-2.442,1.009-3.622,1.359
				L36.391-2.538z"/>
			<path fill="#009640" d="M28.411-0.611c1.534-0.873,6.964-3.669,6.964-3.669l-3.649,1.72c-1.426,1.029-2.446,2.095-4.069,3.02
				L28.411-0.611z"/>
			<path fill="#009640" d="M25.492,2.69c1.513,0.024,6.589,0.35,6.589,0.35l-3.658,0.007c-1.938,0.005-4.14-1.195-5.742-1.222
				L25.492,2.69z"/>
			<path fill="#009640" d="M29.367,1.99c2.083-0.011,7.31-0.459,7.31-0.459l-3.492,0.034c-2.175-0.148-5.164-0.243-7.368-0.232
				L29.367,1.99z"/>
			<path fill="#009640" d="M33.003-0.619c1.28-0.109,6.344-1.54,6.344-1.54l-2.9,1.1c-1.355,0.001-3.205,0.079-4.56,0.195
				L33.003-0.619z"/>
			<path fill="#009640" d="M29.875,0.511c1.708,0.008,7.645-0.83,7.645-0.83l-4.13,0.912c-1.788-0.137-3.138-0.463-4.945-0.471
				L29.875,0.511z"/>
			<path fill="#009640" d="M17.682,1.69c1.534-0.873,8.573-4.93,8.573-4.93l-4.998,2.525c-2.022,1.084-2.705,2.551-4.328,3.475
				L17.682,1.69z"/>
			<path fill="#009640" d="M15.313,1.829c1.533-0.874,8.573-4.93,8.573-4.93l-4.999,2.525c-2.022,1.083-2.705,2.55-4.328,3.475
				L15.313,1.829z"/>
			<path fill="#009640" d="M19.669,3.057c1.452,0.17,9.72,0.986,9.72,0.986l-5.241-0.007c-1.871-0.181-4.066-1.279-5.604-1.459
				L19.669,3.057z"/>
			<path fill="#009640" d="M17.654,4.065c1.658,0.16,9.295,0.937,9.295,0.937l-5.242-0.249C19.556,4.6,18.268,3.61,16.512,3.44
				L17.654,4.065z"/>
		</g>
		<g>
			<path fill="#009640" d="M-16.823,0.146C-9.209,6.411-2.933,16.13-2.933,16.13C-7.012,7.951-10.858,4.172-17.184-1.957
				L-16.823,0.146z"/>
			<path fill="#009640" d="M-12.52,5.146c0.525,1.819,3.334,9.083,3.334,9.083l-2.402-4.317c-0.747-2.303-0.128-4.646-0.684-6.572
				L-12.52,5.146z"/>
			<path fill="#009640" d="M-9.624,9.226c0.525,1.82,2.619,7.842,2.619,7.842l-0.904-3.041c-0.317-2.001-0.91-4.681-1.466-6.607
				L-9.624,9.226z"/>
			<path fill="#009640" d="M-6.292,12.74c0.347,1.105,3.232,5.044,3.232,5.044l-2.078-2.135c-0.193-1.22-0.574-2.851-0.942-4.021
				L-6.292,12.74z"/>
			<path fill="#009640" d="M-3.331,16.218c0.621,0.89,2.957,4.768,2.957,4.768l-1.453-2.719c-0.411-1.018-1.138-2.355-1.795-3.298
				L-3.331,16.218z"/>
			<path fill="#009640" d="M-8.131,10.474c0.525,1.819,2.619,7.841,2.619,7.841l-1.532-3.82c-0.317-2-0.283-3.9-0.839-5.827
				L-8.131,10.474z"/>
			<path fill="#009640" d="M-7.835,4.678C-6.617,5.212-2.339,6.66-2.339,6.66l-2.892-1.387c-1.532-0.735-4.224,0.143-5.514-0.423
				L-7.835,4.678z"/>
			<path fill="#009640" d="M-5.318,7.132c1.641,0.8,5.428,3.405,5.428,3.405l-2.739-1.363C-4.47,8.566-6.913,7.576-8.65,6.73
				L-5.318,7.132z"/>
			<path fill="#009640" d="M-4.499,12.213c0.928,0.638,3.809,4.58,3.809,4.58l-1.429-2.657c-1.073-0.511-2.477-1.319-3.458-1.994
				L-4.499,12.213z"/>
			<path fill="#009640" d="M-6.085,9.428c1.358,0.633,5.4,4.06,5.4,4.06l-2.551-2.853c-1.524-0.479-2.852-0.522-4.29-1.192
				L-6.085,9.428z"/>
			<path fill="#009640" d="M-14.812,3.16c0.525,1.82,2.898,10.24,2.898,10.24l-1.965-5.475c-0.746-2.302-0.128-4.646-0.684-6.572
				L-14.812,3.16z"/>
			<path fill="#009640" d="M-16.581,2.071c0.525,1.82,2.898,10.24,2.898,10.24l-1.965-5.475c-0.747-2.302-0.128-4.646-0.685-6.572
				L-16.581,2.071z"/>
			<path fill="#009640" d="M-12.158,1.965c1.284,0.306,8.479,2.256,8.479,2.256l-4.157-1.964c-1.625-0.445-4.232,0.29-5.592-0.033
				L-12.158,1.965z"/>
			<path fill="#009640" d="M-12.959-0.229c1.441,0.396,8.104,2.166,8.104,2.166l-4.35-1.617c-1.826-0.593-3.627,0.33-5.152-0.09
				L-12.959-0.229z"/>
		</g>
		<g>
			<path fill="#009640" d="M-1.735,1.377c5.016,5.233,8.85,13.008,8.85,13.008C4.747,7.917,2.253,4.807-1.853-0.243L-1.735,1.377z"
				/>
			<path fill="#009640" d="M1.003,5.443c0.254,1.415,1.776,7.109,1.776,7.109l-1.427-3.43C0.972,7.327,1.569,5.584,1.3,4.086
				L1.003,5.443z"/>
			<path fill="#009640" d="M2.798,8.724c0.254,1.415,1.348,6.121,1.348,6.121l-0.443-2.367C3.61,10.938,3.365,8.864,3.096,7.366
				L2.798,8.724z"/>
			<path fill="#009640" d="M4.943,11.601c0.174,0.861,1.972,4.033,1.972,4.033l-1.341-1.751c-0.057-0.938-0.22-2.201-0.405-3.113
				L4.943,11.601z"/>
			<path fill="#009640" d="M6.825,14.427c0.384,0.715,1.793,3.807,1.793,3.807l-0.856-2.156c-0.226-0.799-0.655-1.86-1.062-2.617
				L6.825,14.427z"/>
			<path fill="#009640" d="M3.781,9.765c0.254,1.415,1.348,6.121,1.348,6.121L4.29,12.887c-0.093-1.539,0.057-2.981-0.212-4.479
				L3.781,9.765z"/>
			<path fill="#009640" d="M4.377,5.378c0.834,0.481,3.79,1.847,3.79,1.847L6.195,5.992C5.151,5.338,3.172,5.839,2.289,5.329
				L4.377,5.378z"/>
			<path fill="#009640" d="M6.01,7.399c1.118,0.709,3.647,2.924,3.647,2.924L7.793,9.117C6.52,8.542,4.843,7.639,3.659,6.888
				L6.01,7.399z"/>
			<path fill="#009640" d="M6.257,11.312c0.62,0.542,2.414,3.716,2.414,3.716L7.828,12.92c-0.731-0.455-1.679-1.155-2.335-1.729
				L6.257,11.312z"/>
			<path fill="#009640" d="M5.311,9.096c0.927,0.565,3.583,3.42,3.583,3.42l-1.631-2.326c-1.056-0.457-2-0.573-2.981-1.172
				L5.311,9.096z"/>
			<path fill="#009640" d="M-0.5,3.793c0.254,1.416,1.388,7.961,1.388,7.961l-1.039-4.281c-0.38-1.796,0.217-3.539-0.052-5.037
				L-0.5,3.793z"/>
			<path fill="#009640" d="M-1.69,2.856c0.254,1.415,1.388,7.961,1.388,7.961l-1.039-4.282c-0.38-1.795,0.217-3.538-0.052-5.036
				L-1.69,2.856z"/>
			<path fill="#009640" d="M1.472,3.049c0.896,0.312,5.9,2.239,5.9,2.239L4.537,3.539c-1.13-0.44-3.039-0.042-3.988-0.372
				L1.472,3.049z"/>
			<path fill="#009640" d="M1.047,1.333C2.048,1.724,6.685,3.48,6.685,3.48L3.689,1.981c-1.264-0.563-2.61,0.026-3.67-0.387
				L1.047,1.333z"/>
		</g>
		<g>
			<path fill="#009640" d="M10.392,4.123c5.327,4.498,9.139,10.947,9.139,10.947c-2.24-5.313-4.853-7.954-9.162-12.247L10.392,4.123
				z"/>
			<path fill="#009640" d="M13.217,7.543c0.191,1.146,1.526,5.786,1.526,5.786l-1.382-2.828c-0.307-1.457,0.489-2.81,0.287-4.021
				L13.217,7.543z"/>
			<path fill="#009640" d="M15.027,10.275c0.19,1.146,1.108,4.971,1.108,4.971l-0.34-1.917c0-1.234-0.136-2.904-0.338-4.117
				L15.027,10.275z"/>
			<path fill="#009640" d="M17.261,12.709c0.139,0.698,1.958,3.345,1.958,3.345l-1.399-1.483c0-0.752-0.099-1.771-0.246-2.51
				L17.261,12.709z"/>
			<path fill="#009640" d="M19.2,15.085c0.386,0.595,1.772,3.151,1.772,3.151l-0.822-1.774c-0.201-0.652-0.615-1.526-1.024-2.156
				L19.2,15.085z"/>
			<path fill="#009640" d="M16.07,11.17c0.19,1.145,1.108,4.97,1.108,4.97l-0.746-2.446c0-1.234,0.27-2.375,0.068-3.588L16.07,11.17
				z"/>
			<path fill="#009640" d="M17.046,7.708c0.912,0.438,4.169,1.718,4.169,1.718l-2.15-1.11c-1.139-0.589-3.417-0.316-4.382-0.78
				L17.046,7.708z"/>
			<path fill="#009640" d="M18.758,9.426c1.219,0.638,3.934,2.567,3.934,2.567l-2.03-1.082c-1.404-0.541-3.243-1.369-4.533-2.045
				L18.758,9.426z"/>
			<path fill="#009640" d="M18.77,12.563c0.666,0.473,2.481,3.12,2.481,3.12l-0.811-1.735c-0.798-0.41-1.825-1.03-2.529-1.53
				L18.77,12.563z"/>
			<path fill="#009640" d="M17.849,10.734c1.012,0.511,3.828,2.959,3.828,2.959l-1.689-1.961c-1.166-0.433-2.228-0.586-3.299-1.126
				L17.849,10.734z"/>
			<path fill="#009640" d="M11.626,6.13c0.19,1.146,1.026,6.44,1.026,6.44l-0.883-3.482c-0.307-1.457,0.489-2.81,0.287-4.021
				L11.626,6.13z"/>
			<path fill="#009640" d="M10.342,5.306c0.19,1.146,1.027,6.44,1.027,6.44l-0.884-3.482c-0.307-1.457,0.489-2.81,0.287-4.021
				L10.342,5.306z"/>
			<path fill="#009640" d="M13.914,5.663c0.995,0.307,6.534,2.167,6.534,2.167l-3.094-1.579c-1.251-0.423-3.442-0.229-4.495-0.553
				L13.914,5.663z"/>
			<path fill="#009640" d="M13.549,4.267c1.108,0.376,6.245,2.077,6.245,2.077L16.5,4.954c-1.394-0.53-2.96-0.146-4.134-0.545
				L13.549,4.267z"/>
		</g>
		<g>
			<path fill="#009640" d="M22.362,7.215c9.256,2.037,17.473,6.526,17.473,6.526C34.255,9.674,29.5,8.267,21.691,6.004L22.362,7.215
				z"/>
			<path fill="#009640" d="M27.781,9.267c0.817,0.997,4.87,4.805,4.87,4.805l-3.222-2.087c-1.125-1.242-0.74-2.838-1.605-3.893
				L27.781,9.267z"/>
			<path fill="#009640" d="M31.521,11.089c0.817,0.997,3.916,4.211,3.916,4.211l-1.395-1.66c-0.609-1.158-1.613-2.67-2.478-3.726
				L31.521,11.089z"/>
			<path fill="#009640" d="M35.671,12.457c0.528,0.599,4.237,2.336,4.237,2.336l-2.581-0.817c-0.372-0.707-1.004-1.622-1.563-2.256
				L35.671,12.457z"/>
			<path fill="#009640" d="M39.405,13.892c0.804,0.4,3.896,2.231,3.896,2.231l-1.962-1.328c-0.587-0.529-1.566-1.181-2.417-1.604
				L39.405,13.892z"/>
			<path fill="#009640" d="M33.338,11.5c0.817,0.997,3.916,4.211,3.916,4.211l-2.191-1.99c-0.609-1.159-0.816-2.34-1.681-3.396
				L33.338,11.5z"/>
			<path fill="#009640" d="M32.921,7.851c1.421,0.037,6.354-0.098,6.354-0.098l-3.388-0.16c-1.795-0.086-4.669,1.104-6.174,1.064
				L32.921,7.851z"/>
			<path fill="#009640" d="M36.029,8.761c1.925,0.099,6.463,0.797,6.463,0.797l-3.215-0.183c-2.121,0.067-4.959,0.044-6.997-0.061
				L36.029,8.761z"/>
			<path fill="#009640" d="M37.593,11.701c1.112,0.17,4.817,1.91,4.817,1.91l-1.928-1.297c-1.256-0.057-2.918-0.218-4.095-0.398
				L37.593,11.701z"/>
			<path fill="#009640" d="M35.475,10.362c1.589,0.064,6.515,1.207,6.515,1.207l-3.199-1.146c-1.753,0.071-3.232,0.362-4.914,0.295
				L35.475,10.362z"/>
			<path fill="#009640" d="M24.982,8.593c0.817,0.997,4.534,5.624,4.534,5.624l-2.885-2.907c-1.125-1.241-0.741-2.837-1.605-3.892
				L24.982,8.593z"/>
			<path fill="#009640" d="M22.879,8.346c0.817,0.997,4.534,5.624,4.534,5.624l-2.885-2.906c-1.125-1.242-0.741-2.838-1.605-3.893
				L22.879,8.346z"/>
			<path fill="#009640" d="M27.773,7.216c1.465-0.12,9.7-0.646,9.7-0.646l-4.866-0.213c-1.861,0.115-4.66,1.196-6.21,1.324
				L27.773,7.216z"/>
			<path fill="#009640" d="M26.603,6.055c1.649-0.102,9.272-0.611,9.272-0.611L30.84,5.49c-2.103,0.074-3.983,1.076-5.729,1.185
				L26.603,6.055z"/>
		</g>
	</g>
</symbol>
<g id="Background">
</g>
<g id="Guides">
</g>
<g id="Foreground">
	<g>
		<g>
			<path fill="#003671" d="M67.189,290.761c2.914,118.275,99.704,213.257,218.681,213.257c118.977,0,215.767-94.981,218.68-213.257
				h28.913c-0.896,134.525-111.402,243.303-247.593,243.303c-136.19,0-246.696-108.777-247.594-243.303H67.189z"/>
			<path fill="#003671" d="M542.161,290.761h29.58c-2.928,155.377-129.794,280.43-285.871,280.43
				C129.793,571.19,2.928,446.138,0,290.761h29.58c0.897,139.277,115.297,251.906,256.29,251.906
				C426.863,542.667,541.262,430.038,542.161,290.761z"/>
			<g>
				<polygon fill-rule="evenodd" clip-rule="evenodd" fill="#003671" points="1.269,266.592 65.71,275.648 68.07,258.86 
					51.012,256.463 46.092,252.182 69.947,245.502 72.637,226.368 33.792,239.5 7.915,219.297 5.404,237.168 28.385,253.099 
					28.358,253.279 3.629,249.804 				"/>
				<path fill-rule="evenodd" clip-rule="evenodd" fill="#003671" d="M34.068,183.948l23.863,14.654l3.552-8.787l-27.347-6.036
					L34.068,183.948z M25.759,168.992l66.277,9.672l-6.759,16.732l-11.213-2.663l-5.052,12.507l9.915,5.873l-6.657,16.478
					l-54.499-38.826L25.759,168.992z"/>
				<path fill-rule="evenodd" clip-rule="evenodd" fill="#003671" d="M70.985,143.899l-12.543-8.783l1.883-2.687
					c1.463-2.091,2.982-3.254,4.554-3.486c1.607-0.284,3.531,0.358,5.771,1.927c1.891,1.325,3.103,2.878,3.634,4.659
					c0.484,1.747,0.028,3.617-1.365,5.608L70.985,143.899z M38.713,141.998l53.309,37.325l9.723-13.887l-21.353-14.951l2.562-3.659
					c0.593-0.846,1.204-1.455,1.838-1.829c0.617-0.457,1.346-0.651,2.187-0.583c0.828-0.015,1.79,0.252,2.89,0.799
					c1.101,0.549,2.397,1.345,3.892,2.39l3.583,2.509c0.547,0.383,1.269,0.889,2.164,1.516c0.881,0.544,1.812,1.121,2.792,1.732
					c1.017,0.564,2.049,1.102,3.099,1.615c1.085,0.462,2.1,0.763,3.038,0.903l10.353-14.783l-0.747-0.523
					c-0.563,0.276-1.038,0.424-1.425,0.449c-0.438-0.009-0.877-0.021-1.315-0.03c-0.403-0.06-0.914-0.231-1.53-0.516
					c-0.617-0.283-1.268-0.627-1.95-1.03c-0.73-0.438-1.47-0.918-2.215-1.44c-0.749-0.523-1.469-1.028-2.167-1.517l-4.553-3.188
					c-3.583-2.509-6.832-3.857-9.744-4.042c-2.913-0.185-5.685,1.286-8.317,4.412l-0.15-0.105c1.732-3.533,2.009-6.79,0.83-9.767
					c-1.181-2.977-3.561-5.72-7.145-8.229c-2.041-1.429-4.124-2.48-6.25-3.152c-2.09-0.722-4.175-0.922-6.255-0.598
					c-2.097,0.239-4.154,1.059-6.177,2.462c-1.985,1.354-3.902,3.351-5.749,5.988L38.713,141.998z"/>
				<polygon fill-rule="evenodd" clip-rule="evenodd" fill="#003671" points="90.164,98.486 125.367,134.939 137.562,123.162 
					102.359,86.709 111.538,77.846 101.535,67.488 71.114,96.864 81.117,107.222 				"/>
				<path fill-rule="evenodd" clip-rule="evenodd" fill="#003671" d="M130.517,62.339l12.032,25.288l7.765-5.437l-19.647-19.956
					L130.517,62.339z M131.695,45.27l50.316,44.21l-14.783,10.351l-7.952-8.339l-11.051,7.737l5.117,10.325l-14.559,10.194
					l-24.56-62.246L131.695,45.27z"/>
				<polygon fill-rule="evenodd" clip-rule="evenodd" fill="#003671" points="156.311,30.917 182.779,90.367 217.333,74.981 
					211.699,62.326 192.632,70.815 171.797,24.022 				"/>
				<path fill-rule="evenodd" clip-rule="evenodd" fill="#003671" d="M253.56,55.26l-1.933-15.741l4.704-0.578
					c1.568-0.193,3.037,0.3,4.406,1.479c1.368,1.178,2.208,3.035,2.52,5.569c0.333,2.714-0.022,4.807-1.064,6.282
					c-1.051,1.415-2.36,2.219-3.928,2.412L253.56,55.26z M250.227,28.121l-1.622-13.207l4.071-0.501
					c1.75-0.214,3.157,0.285,4.226,1.501c1.067,1.217,1.712,2.729,1.935,4.538c0.214,1.749-0.049,3.342-0.79,4.781
					c-0.75,1.377-1.999,2.174-3.749,2.388L250.227,28.121z M230.291,4.857l7.931,64.59l25.42-3.122
					c3.499-0.429,6.428-1.247,8.789-2.457c2.354-1.268,4.182-2.839,5.482-4.712c1.361-1.88,2.257-4.042,2.694-6.483
					c0.435-2.441,0.481-5.048,0.141-7.823c-0.208-1.688-0.653-3.317-1.334-4.886c-0.629-1.636-1.512-3.091-2.646-4.358
					c-1.137-1.269-2.514-2.263-4.132-2.983c-1.627-0.78-3.505-1.131-5.64-1.052l-0.022-0.181c1.766-0.583,3.226-1.406,4.381-2.466
					c1.155-1.06,2.048-2.271,2.676-3.635c0.683-1.43,1.108-2.951,1.277-4.563c0.222-1.681,0.228-3.364,0.021-5.054
					c-0.6-4.885-2.525-8.597-5.774-11.136c-3.199-2.607-7.813-3.54-13.843-2.8L230.291,4.857z"/>
				<polygon fill-rule="evenodd" clip-rule="evenodd" fill="#003671" points="287.1,0 282.561,64.916 321.84,67.663 322.804,53.844 
					300.44,52.279 301.341,39.369 321.526,40.781 322.456,27.507 302.271,26.095 303.045,15.002 324.594,16.509 325.561,2.69 				
					"/>
				<polygon fill-rule="evenodd" clip-rule="evenodd" fill="#003671" points="341.255,5.247 324.413,68.105 360.95,77.895 
					364.536,64.514 344.375,59.112 357.631,9.635 				"/>
				<polygon fill-rule="evenodd" clip-rule="evenodd" fill="#003671" points="389.182,19.347 361.679,78.324 397.366,94.965 
					403.221,82.41 382.9,72.934 388.37,61.205 406.708,69.756 412.332,57.696 393.992,49.146 398.692,39.067 418.268,48.196 
					424.124,35.64 				"/>
				<path fill-rule="evenodd" clip-rule="evenodd" fill="#003671" d="M438.996,44.185l-39.163,51.97l19.652,14.811
					c3.932,2.963,7.518,4.563,10.761,4.801c3.283,0.189,6.353-0.502,9.211-2.074c2.946-1.586,5.71-3.839,8.292-6.762
					c2.619-2.971,5.209-6.156,7.769-9.553c2.56-3.396,4.89-6.739,6.985-10.029c2.136-3.336,3.54-6.614,4.217-9.833
					c0.76-3.23,0.578-6.373-0.544-9.425c-1.088-3.101-3.595-6.132-7.525-9.094L438.996,44.185z M420.721,96.605l24.463-32.464
					l2.695,2.03c1.308,0.987,2.207,1.967,2.689,2.941c0.521,0.925,0.536,2.115,0.048,3.573c-0.441,1.493-1.42,3.344-2.931,5.552
					c-1.464,2.245-3.511,5.114-6.145,8.608c-2.633,3.494-4.826,6.253-6.58,8.279c-1.707,2.063-3.216,3.511-4.529,4.348
					c-1.268,0.871-2.436,1.208-3.503,1.013c-1.033-0.246-2.204-0.862-3.514-1.85L420.721,96.605z"/>
				<path fill-rule="evenodd" clip-rule="evenodd" fill="#003671" d="M483.962,81.14l-46.812,45.205l11.777,12.195l46.81-45.205
					L483.962,81.14z M497.867,71.006l-9.179,8.863l8.486,8.785l9.178-8.863L497.867,71.006z"/>
				<polygon fill-rule="evenodd" clip-rule="evenodd" fill="#003671" points="478.12,133.529 457.4,148.583 467.366,162.299 
					488.083,147.245 529.762,137.468 518.833,122.426 496.723,130.603 496.617,130.456 511.225,111.956 500.458,97.136 				"/>
				<polygon fill-rule="evenodd" clip-rule="evenodd" fill="#003671" points="532.315,142.836 473.826,171.363 491.086,206.752 
					503.538,200.681 493.708,180.528 505.341,174.854 514.211,193.04 526.17,187.207 517.3,169.021 527.295,164.146 
					536.766,183.561 549.215,177.488 				"/>
				<path fill-rule="evenodd" clip-rule="evenodd" fill="#003671" d="M543.024,220.847l4.104,15.318
					c6.75-1.809,11.219-4.735,13.404-8.78c2.262-4.003,2.435-9.584,0.518-16.745c-1.857-6.927-4.914-11.644-9.172-14.151
					s-9.586-2.904-15.982-1.189c-3.697,0.99-6.527,2.409-8.484,4.253c-1.941,1.905-3.368,3.985-4.272,6.24
					c-0.889,2.315-1.478,4.706-1.759,7.171c-0.283,2.468-0.613,4.757-0.99,6.871c-0.303,2.158-0.905,4.017-1.807,5.58
					c-0.828,1.605-2.27,2.684-4.322,3.235c-1.703,0.456-3.266,0.371-4.693-0.253c-1.41-0.565-2.342-1.701-2.797-3.403
					c-0.424-1.583-0.242-3.016,0.545-4.297c0.848-1.296,2.621-2.307,5.322-3.03l1.496-0.401l-4.246-15.848l-2.2,0.59
					c-3.287,0.88-5.92,2.09-7.899,3.626c-1.977,1.537-3.436,3.374-4.372,5.513c-0.862,2.181-1.211,4.633-1.046,7.357
					c0.119,2.798,0.637,5.899,1.549,9.304c1.936,7.219,4.908,12.335,8.923,15.349c4.074,2.997,9.456,3.599,16.147,1.807
					c3.815-1.021,6.717-2.524,8.701-4.502c2.063-1.936,3.557-4.098,4.49-6.487c0.933-2.388,1.533-4.845,1.799-7.37
					c0.325-2.54,0.66-4.927,1.008-7.158c0.346-2.232,0.926-4.18,1.736-5.844c0.887-1.621,2.356-2.707,4.41-3.256
					c1.409-0.378,2.779-0.306,4.116,0.217c1.394,0.508,2.327,1.642,2.8,3.403c0.424,1.584,0.063,2.938-1.08,4.063
					c-1.088,1.108-2.572,1.915-4.449,2.417L543.024,220.847z"/>
				<path fill-rule="evenodd" clip-rule="evenodd" fill="#003671" d="M566.643,242.928l-64.589,7.931l2.066,16.827l64.589-7.931
					L566.643,242.928z M583.848,243.204l-12.664,1.554l1.488,12.124l12.664-1.555L583.848,243.204z"/>
			</g>
		</g>
		<g>
			<g>
				<g>
					<path fill-rule="evenodd" clip-rule="evenodd" d="M286.442,189.455c-18.549-39.398-57.233-57.185-71.484-62.585
						c3.095-2.685,40.092-33.346,105.309-24.446c68.184,9.305,84.665,33.016,84.665,33.016l-14.316-2.367
						c23.443,8.245,40.941,24.3,52.489,35.028l-14.609-2.189c19.089,8.168,27.747,30.425,34.632,40.501l-16.775-13.135
						c0,0,23.65,34.493,26.356,83.204c2.706,48.711-8.658,70.056-8.658,70.056c-20.647-61.414-37.556-89.848-79.975-124.876
						c48.411,44.333,63.331,91.879,72.299,145.799c-13.214,29.222-27.024,51.258-60.89,78.676
						c1.625-15.107,12.902-131.011-31.639-176.395c31.094,40.754,30.297,95.524,18.725,184.844
						c-23.075,14.949-54.332,25.565-85.031,28.221c41.439-55.875,56.052-112.797,43.832-170.762
						c5.466,58.179-13.076,115.013-55.98,171.127c-13.843,1.546-42.508-2.901-54.96-7.631c0,0,48.168-40.351,67.108-72.642
						c18.939-32.292,16.775-83.192,16.775-83.192c-1.836,57.545-33.382,107.924-96.121,152.178
						c-13.13-4.641-27.402-11.414-41.329-21.369c90.021-30.678,117.725-80.066,121.215-123.693
						c-13.05,57.115-56.39,96.139-130.013,117.066c-5.262-4.422-12.019-9.594-17.857-15.949
						c86.618-24.754,103.855-49.644,127.308-100.569c-16.505,30.989-65.851,87.967-133.756,94.21
						c-4.648-5.32-10.871-12.373-16.485-21.272c38.838,1.776,73.489-9.835,98.292-33.531
						c-27.377,18.88-63.833,28.699-101.752,28.794c-3.836-5.428-10.508-17.775-13.496-25.565c0,0,72.982,20.72,124.979-23.415
						c44.973-38.172,31.909-92.144,9.025-115.77c19.36,0.892,42.74-7.689,45.102-25.367
						C290.117,200.778,289.258,195.435,286.442,189.455z"/>
					<path fill="#FFFFFF" d="M281.355,163.403c-0.68-2.03-0.219-4.176,1.151-6.244l0.192,0.651
						c2.106,6.298,10.712,9.889,19.221,8.021c8.509-1.869,14.184-8.672,11.592-14.787c-2.108-4.973-9.979-4.774-9.979-4.774
						c15.958-2.981,22.395,2.302,23.966,7c2.083,6.229-6.558,13.546-19.3,16.344C295.458,172.413,283.438,169.632,281.355,163.403z"
						/>
				</g>
				<g>
					<path fill="#D5920D" d="M215.45,126.842c14.191,5.367,52.977,23.147,71.558,62.613c2.815,5.98,3.674,11.324,3.047,16.025
						c-47.822-23.431-148.164-16.762-150.553,10.582c-4.212,5.808,5.752,20.241,5.752,20.241
						c-46.287-31.449-16.723-109.247,69.953-109.247L215.45,126.842z"/>
					<path fill="#FFDD00" d="M141.863,214.117c0,0-1.405,0.382-2.361,1.961c1.412-28.488,102.579-35.277,150.488-10.626
						c-2.385,17.858-26.219,26.433-45.691,25.337C223.375,209.191,184.32,200.713,141.863,214.117z"/>
				</g>
			</g>
			<g>
				<path d="M180.093,299.122v7.708h17.552l-2.918-7.708H180.093z M155.956,299.122v7.708h21.428v-7.708H155.956z M153.248,299.122
					h-14.634l-2.919,7.708h17.553V299.122z M180.093,286.962v8.213h13.718l-3.947-8.213H180.093z M155.956,286.962v8.213h21.428
					v-8.213H155.956z M191.469,276.104v4.977h5.072v-4.977H191.469z M184.751,276.104v4.977h5.072v-4.977H184.751z M178.033,276.104
					v4.977h5.072v-4.977H178.033z M153.738,276.104v4.977h5.072v-4.977H153.738z M147.021,276.104v4.977h5.072v-4.977H147.021z
					 M140.303,276.104v4.977h5.072v-4.977H140.303z M153.248,286.962h-9.771l-3.663,8.213h13.435V286.962z M138.166,274.223h22.953
					l1.312,4.605l1.084-13.401h9.221l1.168,14.442l1.608-5.646h22.953v10.249h-1.824l16.219,20.082h14.675l9.634-9.436
					l-6.543,20.656h-122.77l-8.764-20.656l9.444,9.436h14.994l16.516-20.082h-1.88V274.223z"/>
				<g>
					<path fill="#003671" d="M229.723,318.063c-1.116,2.882-1.579,3.603-2.452,5.327h-115.8c-1.107-1.586-2.226-3.504-2.625-5.327
						H229.723z M225.939,325.71c-1.434,2.229-3.255,4.352-5.416,6.338H118.219c-2.161-1.986-3.982-4.108-5.416-6.338H225.939z"/>
					<path fill="#E30613" d="M225.43,278.307l2.476,7.944l-6.38,3.018c0.52,2.192,0.522,2.479,0.756,4.766l6.99,1.098v7.818h-16.548
						c0.2-1.683,0.304-3.395,0.304-5.131c0-24.154-19.955-43.734-44.572-43.734s-44.573,19.58-44.573,43.734
						c0,1.736,0.104,3.448,0.304,5.131h-16.548v-7.818l7.368-0.769c0.241-2.463,0.351-3.401,0.923-5.754l-6.64-2.638l2.475-7.944
						l7.188,1.522c0.95-2.254,1.439-3.34,2.686-5.425l-5.602-4.415l4.734-6.887l6.479,3.396c1.583-1.895,2.365-2.785,4.197-4.447
						l-3.717-6.152l6.58-5.229l5.026,5.297c2.602-1.71,3.977-2.372,6.871-3.624l-1.677-6.72l7.955-2.842l3.363,6.432
						c3.084-0.795,3.778-1.069,7.051-1.318l1.926-7.079h8.467l1.096,7.079c3.434,0.261,3.91,0.292,7.134,1.153l4.04-6.127
						l7.955,2.841l-1.598,6.91c2.858,1.266,3.392,1.663,5.959,3.377l5.718-4.683l6.579,5.229l-3.662,6.114
						c1.821,1.677,1.87,1.879,3.44,3.788l6.613-3.116l4.734,6.887l-5.22,4.866c1.24,2.101,1.24,2.177,2.183,4.447L225.43,278.307z"
						/>
				</g>
				<path fill="#003671" d="M217.765,334.368c-2.107,1.627-10.38,6.42-16.262,8.657c-9.302,3.374-20.32,5.327-32.132,5.327
					c-11.813,0-22.827-1.748-32.129-5.123c0,0-4.591-1.921-6.706-3.023c-3.563-1.727-6.772-3.687-9.559-5.838H217.765z"/>
			</g>
		</g>
	</g>
</g>
</svg>
