<?xml version="1.0" encoding="UTF-8" standalone="no"?>
<!-- Created with Inkscape (http://www.inkscape.org/) -->

<svg
   xmlns:dc="http://purl.org/dc/elements/1.1/"
   xmlns:cc="http://creativecommons.org/ns#"
   xmlns:rdf="http://www.w3.org/1999/02/22-rdf-syntax-ns#"
   xmlns:svg="http://www.w3.org/2000/svg"
   xmlns="http://www.w3.org/2000/svg"
   xmlns:sodipodi="http://sodipodi.sourceforge.net/DTD/sodipodi-0.dtd"
   xmlns:inkscape="http://www.inkscape.org/namespaces/inkscape"
   width="539.20886"
   height="547.37164"
   viewBox="0 0 142.66567 144.82542"
   version="1.1"
   id="svg8"
   inkscape:version="0.92.3 (2405546, 2018-03-11)"
   sodipodi:docname="belediye_maltepe.svg">
  <defs
     id="defs2" />
  <sodipodi:namedview
     id="base"
     pagecolor="#ffffff"
     bordercolor="#666666"
     borderopacity="1.0"
     inkscape:pageopacity="0.0"
     inkscape:pageshadow="2"
     inkscape:zoom="0.35"
     inkscape:cx="549.60448"
     inkscape:cy="247.97154"
     inkscape:document-units="px"
     inkscape:current-layer="layer1"
     showgrid="false"
     units="px"
     showborder="false"
     inkscape:window-width="1920"
     inkscape:window-height="1017"
     inkscape:window-x="-8"
     inkscape:window-y="-8"
     inkscape:window-maximized="1"
     fit-margin-top="0"
     fit-margin-left="0"
     fit-margin-right="0"
     fit-margin-bottom="0" />
  <metadata
     id="metadata5">
    <rdf:RDF>
      <cc:Work
         rdf:about="">
        <dc:format>image/svg+xml</dc:format>
        <dc:type
           rdf:resource="http://purl.org/dc/dcmitype/StillImage" />
        <dc:title></dc:title>
      </cc:Work>
    </rdf:RDF>
  </metadata>
  <g
     inkscape:label="Layer 1"
     inkscape:groupmode="layer"
     id="layer1"
     transform="translate(310.96976,-69.617048)">
    <g
       id="g912"
       transform="matrix(0.26458333,0,0,0.26458333,-317.02165,29.183833)">
      <path
         inkscape:connector-curvature="0"
         id="path812"
         style="fill:#1e70a2;fill-rule:evenodd"
         d="m 65.8681,389.6563 -2.1217,11.8809 -40.8731,-7.2998 2.8562,-15.9928 21.4087,-2.0134 c 0.2885,-0.0264 0.9504,-0.0646 1.9746,-0.1066 1.0338,-0.0403 2.4556,-0.1188 4.2622,-0.2166 -1.3187,-0.4991 -2.4798,-0.951 -3.4623,-1.3612 -0.9844,-0.4008 -1.7257,-0.7384 -2.2181,-0.9927 l -19.4389,-9.4549 2.8514,-15.9642 40.8728,7.2995 -2.1218,11.8809 -20.0942,-3.706 c -1.222,-0.218 -2.4157,-0.4315 -3.5702,-0.6472 -1.154,-0.216 -2.3443,-0.4482 -3.5822,-0.6888 2.0333,0.8226 4.2392,1.7739 6.6192,2.8443 l 0.345,0.1496 19.108,8.6233 -1.6361,9.1622 -20.4769,1.6123 c -0.9329,0.078 -1.9908,0.1432 -3.1794,0.1755 -1.1885,0.0317 -2.8003,0.0765 -4.8308,0.1148 1.7725,0.2576 3.2874,0.4793 4.5434,0.6743 1.2648,0.1968 2.2802,0.3683 3.0385,0.5037 z m 1.1548,-59.0337 3.4492,-7.6295 -14.8067,-2.1523 z m 5.8791,21.4798 -31.8147,-30.4163 5.5664,-12.3129 43.8514,3.7911 -5.4473,12.0498 -5.6412,-0.8391 -5.4474,12.0498 4.3368,3.7245 z m 18.8912,-41.0729 -34.9535,-22.4081 7.1992,-11.2298 25.6683,16.4554 9.786,-15.2648 9.2852,5.9524 z m 23.4235,-33.7887 -23.1338,-20.0381 -7.8262,9.0352 -8.2496,-7.1459 24.3858,-28.1531 8.2497,7.1458 -7.8262,9.0352 23.1339,20.0381 z m 22.093,-24.0897 -25.655,-32.6449 26.0992,-20.5109 6.137,7.8095 -15.611,12.2683 3.4254,4.3588 13.1975,-10.3714 5.8873,7.4914 -13.1972,10.3714 3.9605,5.04 16.2544,-12.774 6.2442,7.9455 z m 34.1849,-51.5729 3.8118,-1.9525 c 2.467,-1.2634 3.9801,-2.3843 4.5346,-3.371 0.5499,-0.974 0.4697,-2.1657 -0.2543,-3.579 -0.7282,-1.4219 -1.6356,-2.2006 -2.713,-2.3409 -1.0902,-0.1442 -2.9013,0.4369 -5.4369,1.7357 l -3.812,1.9522 z m -1.4482,26.4342 -18.9272,-36.9547 15.2051,-7.7877 c 3.3664,-1.724 6.1313,-2.8913 8.295,-3.5022 2.1719,-0.6148 4.1369,-0.8322 5.9034,-0.6341 2.2972,0.2835 4.3061,1.0602 6.0103,2.3395 1.7124,1.2744 3.1674,3.0812 4.3696,5.4286 2.1147,4.1287 2.5132,7.9257 1.1994,11.3777 -1.3136,3.452 -4.2815,6.3558 -8.8816,8.7117 l -7.0928,3.6329 5.7915,11.3074 z m 39.0294,-19.5582 -11.3417,-39.9405 31.9317,-9.0677 2.7131,9.5544 -19.0999,5.4239 1.5146,5.3328 16.1467,-4.5851 2.6028,9.1659 -16.1468,4.585 1.751,6.1662 19.8867,-5.6472 2.7607,9.7212 z m 72.2651,-23.671 6.1673,-0.1559 c 2.0494,-0.0516 3.4945,-0.387 4.3449,-1.0148 0.851,-0.6185 1.2589,-1.6203 1.2243,-2.9962 -0.0348,-1.3757 -0.502,-2.3366 -1.4023,-2.901 -0.8901,-0.5647 -2.3887,-0.8158 -4.4767,-0.7631 l -6.0517,0.1531 z m -0.3853,-15.2399 5.4938,-0.1389 c 1.8375,-0.0465 3.1298,-0.349 3.8662,-0.9162 0.7365,-0.5675 1.0888,-1.491 1.0559,-2.7898 -0.0348,-1.376 -0.4626,-2.2989 -1.2835,-2.7885 -0.8212,-0.4892 -2.6938,-0.6925 -5.6188,-0.6185 l -3.6947,0.0935 z m -12.3004,25.2652 -1.0493,-41.5063 17.0197,-0.4303 c 3.6562,-0.0924 6.3335,-0.0638 8.0122,0.0765 1.6789,0.1502 3.1201,0.4218 4.3339,0.8243 2.1271,0.7356 3.7649,1.9264 4.9328,3.5626 1.1582,1.6461 1.7674,3.6621 1.8278,6.048 0.0476,1.8763 -0.3249,3.5223 -1.1265,4.9482 -0.8016,1.4162 -2.0327,2.6025 -3.6842,3.5396 2.2229,0.7333 3.8789,1.8757 4.9774,3.4268 1.0885,1.5514 1.6693,3.5875 1.7331,6.1081 0.0623,2.463 -0.3935,4.612 -1.3771,6.4565 -0.974,1.8345 -2.4301,3.2672 -4.3583,4.2978 -1.3014,0.707 -2.7995,1.226 -4.4762,1.5478 -1.6866,0.322 -4.4827,0.5368 -8.3985,0.6361 z m 44.7631,-0.04 7.2997,-40.873 32.6773,5.8359 -1.7462,9.7776 -19.5457,-3.4906 -0.9748,5.4573 16.5237,2.9511 -1.6753,9.3796 -16.5234,-2.9512 -1.1271,6.3102 20.3511,3.6346 -1.7768,9.9482 z m 40.3526,8.2264 13.3081,-39.329 12.6357,4.2758 -9.773,28.8814 17.1757,5.8118 -3.5354,10.4477 z m 33.1942,11.8659 20.6961,-35.9938 28.7764,16.5461 -4.951,8.6102 -17.2125,-9.8968 -2.7632,4.8058 14.5511,8.3668 -4.7492,8.2601 -14.5514,-8.3667 -3.1949,5.5567 17.9218,10.3048 -5.0375,8.7608 z m 54.1117,22.6352 2.7063,2.3439 c 2.5098,2.1742 4.7338,3.1198 6.6787,2.844 1.9445,-0.2894 4.1711,-1.8751 6.6852,-4.7778 2.4452,-2.8227 3.6896,-5.2591 3.7137,-7.3006 0.0314,-2.0355 -1.1461,-4.0867 -3.532,-6.1534 l -2.8301,-2.4512 z m -16.9636,-0.7895 27.1839,-31.3835 12.1924,10.5611 c 3.0918,2.6779 5.2781,4.8138 6.5517,6.4006 1.2739,1.5877 2.1935,3.1864 2.7593,4.7971 1.0664,3.1643 1.1392,6.3725 0.2341,9.6375 -0.9125,3.2584 -2.8372,6.5829 -5.7611,9.9584 -3.0813,3.5572 -6.3411,5.9539 -9.8002,7.198 -3.4515,1.2503 -7.0084,1.3144 -10.6699,0.2055 -1.4278,-0.4093 -3.0056,-1.19 -4.7106,-2.323 -1.7125,-1.1395 -4.2668,-3.1739 -7.6641,-6.1163 z m 57.8602,7.3449 6.6348,-5.747 8.0529,9.2974 -6.6345,5.7466 z m -25.5345,22.1176 23.1775,-20.0761 8.0529,9.2973 -23.1772,20.0758 z m 17.1227,20.861 12.5181,-8.9017 12.45,-27.6309 8.5728,12.0551 -7.3746,14.0426 15.713,-2.3168 8.322,11.7023 -29.9526,3.0189 -12.5181,8.9016 z m 16.321,24.2354 37.8332,-17.1034 13.6737,30.2468 -9.0504,4.0915 -8.1788,-18.0921 -5.0516,2.2838 6.9145,15.2946 -8.6822,3.9252 -6.9143,-15.2949 -5.8411,2.6405 8.5162,18.8376 -9.2084,4.1627 z m 29.1056,33.2776 2.9217,12.6601 c -1.3828,0.6848 -2.2882,1.5556 -2.7136,2.6217 -0.4278,1.0565 -0.4306,2.4993 -0.0131,4.3092 0.3487,1.5101 0.8884,2.6499 1.603,3.3934 0.7268,0.7512 1.5389,1.0182 2.4579,0.8059 1.463,-0.3376 2.2247,-2.4296 2.3037,-6.2804 0.009,-0.7725 0.0205,-1.3678 0.0253,-1.7737 0.0808,-3.1598 0.2367,-5.6945 0.4561,-7.6121 0.2211,-1.9078 0.5249,-3.3313 0.8827,-4.2634 0.7568,-1.8141 1.8272,-3.2958 3.2043,-4.4336 1.3773,-1.1376 3.0702,-1.9332 5.0675,-2.3942 4.0138,-0.9263 7.5132,-0.144 10.508,2.3457 2.9849,2.4917 5.0876,6.3819 6.3082,11.6711 1.2013,5.2047 1.0477,9.5465 -0.4584,13.0351 -1.5063,3.4886 -4.2582,5.9017 -8.2581,7.2298 l -2.8437,-12.3225 c 1.1454,-0.4717 1.9128,-1.2121 2.2994,-2.1901 0.3938,-0.9898 0.4034,-2.2759 0.0397,-3.8514 -0.3203,-1.3881 -0.7835,-2.3678 -1.4009,-2.946 -0.6157,-0.5692 -1.3873,-0.7467 -2.325,-0.5304 -1.332,0.3076 -2.048,2.3397 -2.1186,6.0993 -0.0204,0.3404 -0.032,0.5902 -0.0326,0.7583 -0.003,0.5439 -0.0201,1.3677 -0.0311,2.4763 -0.1041,4.9828 -0.4729,8.3075 -1.1126,9.9862 -0.7776,2.0662 -1.825,3.6904 -3.1539,4.8665 -1.3289,1.1758 -3.0342,2.0041 -5.097,2.48 -4.4736,1.0327 -8.2672,0.2586 -11.3791,-2.3125 -3.1215,-2.5687 -5.3543,-6.7648 -6.7005,-12.598 -1.2402,-5.3736 -1.0222,-9.9079 0.6534,-13.6037 1.6662,-3.6933 4.6352,-6.2357 8.9073,-7.6266 z m 29.5679,39.4982 8.7075,-1.1064 1.5505,12.2021 -8.7075,1.1063 z m -33.512,4.2582 30.4185,-3.865 1.5506,12.202 -30.4186,3.865 z" />
      <path
         inkscape:connector-curvature="0"
         id="path814"
         style="fill:#ffffff;fill-rule:evenodd"
         d="M 510.5789,434.1123 C 508.7288,552.568 412.1906,648.0275 293.3518,648.0275 174.513,648.0275 77.9749,552.568 76.1247,434.1123 Z M 76.108,432.7836 c -0.0117,-0.7101 -0.027,-1.4194 -0.027,-2.1321 0,-0.7127 0.0202,-1.4208 0.027,-2.1321 z" />
      <path
         inkscape:connector-curvature="0"
         id="path816"
         style="fill:#e3060b;fill-rule:evenodd"
         d="m 51.7283,444.3092 c 6.7998,127.5502 112.3781,228.8809 241.6235,228.8809 129.2454,0 234.8238,-101.3307 241.6235,-228.8809 l -13.0201,-6e-4 c -6.7839,120.3667 -106.5393,215.8812 -228.6034,215.8812 -122.0641,0 -221.8195,-95.5145 -228.6034,-215.8812 z" />
      <path
         inkscape:connector-curvature="0"
         id="path818"
         style="fill:#e3060b;fill-rule:evenodd"
         d="m 510.6178,434.6776 h 0.0226 2.4149 35.003 c -0.0431,3.2255 -0.146,6.4366 -0.3075,9.6321 -6.8139,134.5998 -118.1061,241.6383 -254.399,241.6383 -136.2929,0 -247.585,-107.0385 -254.3989,-241.6383 -0.1616,-3.1955 -0.2645,-6.4066 -0.3076,-9.6321 H 76.108 l 0.3319,-16.0515 -51.7737,0.0791 v 15.9724 l 0.027,9.6327 c 6.8281,142.4684 124.4987,255.8798 268.6586,255.8798 144.1599,0 261.8306,-113.4114 268.6587,-255.8798 0.0164,-0.3458 0.0323,-0.6919 0.0476,-1.0383 l 0.0241,-8.5944 v -15.9724 l -51.7737,-0.0791 0.007,0.3184 -0.4609,-0.003 C 500.6971,303.9313 407.2793,213.5302 293.3518,213.5302 174.513,213.5302 77.9749,311.889 76.1247,433.942 H 510.5789 Z M 76.108,435.3117 c -0.0117,0.7314 -0.027,1.4621 -0.027,2.1966 0,0.7344 0.0202,1.4641 0.027,2.1968 z" />
      <path
         inkscape:connector-curvature="0"
         id="path820"
         style="fill:#ffffff;fill-rule:evenodd"
         d="m 547.7508,444.3097 c 0.1615,-3.1955 0.2644,-6.4066 0.3075,-9.6321 h -12.759 -13.0017 -11.6572 l -0.1105,2.9446 c -0.0363,1.2578 -0.0833,2.5127 -0.1412,3.7647 0,0.005 -3e-4,0.009 -5e-4,0.0139 -5.3178,115.2681 -100.4542,207.0885 -217.0364,207.0885 -115.6005,0 -210.1147,-90.2804 -216.8827,-204.1813 -0.1899,-3.1912 -0.3107,-6.4012 -0.3611,-9.6304 H 64.406 51.4043 38.6453 c 0.0431,3.2255 0.146,6.4366 0.3076,9.6321 6.8139,134.5998 118.106,241.6383 254.3989,241.6383 136.2929,0 247.5851,-107.0385 254.399,-241.6383 z m -25.7956,-0.001 13.0201,6e-4 C 528.1756,571.8594 422.5972,673.1901 293.3518,673.1901 164.1061,673.1901 58.5281,571.8594 51.7283,444.3092 l 13.0201,-6e-4 c 6.7839,120.3667 106.5393,215.8812 228.6034,215.8812 122.0641,0 221.8195,-95.5145 228.6034,-215.8812 z" />
      <path
         inkscape:connector-curvature="0"
         id="path822"
         style="fill:#ffffff;fill-rule:evenodd"
         d="m 547.7508,444.3097 c 0.1615,-3.1955 0.2644,-6.4066 0.3075,-9.6321 h -12.759 -13.0017 -11.6572 l -0.1105,2.9446 c -0.0363,1.2578 -0.0833,2.5127 -0.1412,3.7647 0,0.005 -3e-4,0.009 -5e-4,0.0139 -5.3178,115.2681 -100.4542,207.0885 -217.0364,207.0885 -115.6005,0 -210.1147,-90.2804 -216.8827,-204.1813 -0.1899,-3.1912 -0.3107,-6.4012 -0.3611,-9.6304 H 64.406 51.4043 38.6453 c 0.0431,3.2255 0.146,6.4366 0.3076,9.6321 6.8139,134.5998 118.106,241.6383 254.3989,241.6383 136.2929,0 247.5851,-107.0385 254.399,-241.6383 z m -25.7956,-0.001 13.0201,6e-4 C 528.1756,571.8594 422.5972,673.1901 293.3518,673.1901 164.1061,673.1901 58.5281,571.8594 51.7283,444.3092 l 13.0201,-6e-4 c 6.7839,120.3667 106.5393,215.8812 228.6034,215.8812 122.0641,0 221.8195,-95.5145 228.6034,-215.8812 z" />
      <path
         inkscape:connector-curvature="0"
         id="path824"
         style="fill:#1e70a2;fill-rule:evenodd"
         d="m 510.5789,434.1124 c -0.4804,30.7553 -7.3567,59.953 -19.3362,86.3399 H 95.4609 C 83.4814,494.0654 76.6052,464.8677 76.1247,434.1124 Z m -21.7148,91.4071 c -1.576,3.2457 -3.2292,6.4465 -4.9586,9.6001 H 102.7981 c -1.7294,-3.1536 -3.3825,-6.3544 -4.9586,-9.6001 z m -7.8227,14.6673 c -2.0158,3.4518 -4.127,6.8406 -6.3247,10.167 H 111.9869 c -2.1977,-3.3264 -4.3089,-6.7152 -6.3246,-10.167 z m -9.7813,15.2342 c -3.1317,4.4589 -6.4247,8.7959 -9.8719,13.0017 H 125.3154 c -3.4472,-4.2058 -6.7402,-8.5428 -9.8719,-13.0017 z m -14.1491,18.0689 c -4.6398,5.3255 -9.5363,10.4213 -14.6693,15.2694 H 144.2616 c -5.1329,-4.8481 -10.0289,-9.9439 -14.669,-15.2694 z m -20.2371,20.3366 c -38.2723,33.7317 -88.5042,54.201 -143.5221,54.201 -55.0179,0 -105.2498,-20.4693 -143.5221,-54.201 z M 76.108,432.7835 c -0.0117,-0.7101 -0.027,-1.4193 -0.027,-2.1319 0,-0.7127 0.0202,-1.421 0.027,-2.1323 z" />
      <path
         inkscape:connector-curvature="0"
         id="path826"
         style="fill:#ffffff;fill-rule:evenodd"
         d="m 255.7015,631.58 v -13.82 h -5.6985 v -4.9456 c 2.3624,-0.0451 4.106,-0.4459 5.2299,-1.2025 1.124,-0.7622 1.8332,-2.0211 2.1399,-3.7768 h 5.7229 V 631.58 Z m 29.1549,-15.8468 c 0,-0.9992 -0.3005,-1.7898 -0.9014,-2.3655 -0.5953,-0.5703 -1.4188,-0.858 -2.4648,-0.858 -1.0219,0 -1.8275,0.2877 -2.4225,0.858 -0.5952,0.5757 -0.8895,1.3493 -0.8895,2.3202 0,1.0105 0.2886,1.8068 0.8714,2.3712 0.5831,0.5703 1.3827,0.8523 2.4046,0.8523 1.0338,0 1.8576,-0.2877 2.4767,-0.858 0.6193,-0.5757 0.9255,-1.3493 0.9255,-2.3202 z m 0.2466,6.018 c -0.6551,0.5703 -1.4607,1.0049 -2.4103,1.2985 -0.9558,0.288 -2.02,0.4346 -3.2102,0.4346 -2.651,0 -4.773,-0.7056 -6.3539,-2.1226 -1.5871,-1.417 -2.3805,-3.3083 -2.3805,-5.6792 0,-2.6195 0.9255,-4.6916 2.7833,-6.2102 1.8575,-1.5185 4.4002,-2.2807 7.6402,-2.2807 3.769,0 6.6184,1.0443 8.5419,3.1331 1.9296,2.0889 2.8917,5.1883 2.8917,9.2982 0,3.9575 -1.01,7.0399 -3.03,9.2529 -2.0194,2.2073 -4.8209,3.314 -8.4036,3.314 -2.681,0 -4.8872,-0.576 -6.6362,-1.7331 -1.7436,-1.1574 -2.8496,-2.7777 -3.3185,-4.8609 l 6.9251,-0.2483 c 0.2103,0.6265 0.5711,1.1064 1.076,1.4338 0.5048,0.333 1.1361,0.4969 1.8876,0.4969 1.2441,0 2.1999,-0.4573 2.8613,-1.372 0.661,-0.9145 1.04,-2.3031 1.1361,-4.155 z m 23.4561,-6.018 c 0,-0.9992 -0.3007,-1.7898 -0.9017,-2.3655 -0.5953,-0.5703 -1.4184,-0.858 -2.4647,-0.858 -1.0216,0 -1.8272,0.2877 -2.4225,0.858 -0.5953,0.5757 -0.8895,1.3493 -0.8895,2.3202 0,1.0105 0.2886,1.8068 0.8714,2.3712 0.583,0.5703 1.3827,0.8523 2.4046,0.8523 1.0338,0 1.8575,-0.2877 2.4766,-0.858 0.6194,-0.5757 0.9258,-1.3493 0.9258,-2.3202 z m 0.2466,6.018 c -0.6553,0.5703 -1.4609,1.0049 -2.4106,1.2985 -0.9558,0.288 -2.0196,0.4346 -3.2102,0.4346 -2.6509,0 -4.773,-0.7056 -6.3538,-2.1226 -1.5872,-1.417 -2.3806,-3.3083 -2.3806,-5.6792 0,-2.6195 0.9258,-4.6916 2.7836,-6.2102 1.8573,-1.5185 4.4,-2.2807 7.6403,-2.2807 3.7689,0 6.6183,1.0443 8.5419,3.1331 1.9295,2.0889 2.8913,5.1883 2.8913,9.2982 0,3.9575 -1.01,7.0399 -3.0296,9.2529 -2.0197,2.2073 -4.8209,3.314 -8.4036,3.314 -2.6813,0 -4.8873,-0.576 -6.6365,-1.7331 -1.7433,-1.1574 -2.8497,-2.7777 -3.3182,-4.8609 l 6.9247,-0.2483 c 0.2106,0.6265 0.5712,1.1064 1.076,1.4338 0.5052,0.333 1.1362,0.4969 1.8879,0.4969 1.2441,0 2.2,-0.4573 2.8613,-1.372 0.661,-0.9145 1.0398,-2.3031 1.1361,-4.155 z m 9.6358,9.8288 c 0,-0.0677 -0.006,-0.1638 -0.0175,-0.288 -0.0122,-0.1298 -0.0182,-0.2256 -0.0182,-0.2934 0,-1.688 0.5528,-3.2802 1.6532,-4.7874 1.1058,-1.5075 2.8851,-3.071 5.3498,-4.6913 0.6432,-0.4405 1.5449,-1.0049 2.6929,-1.6881 2.7474,-1.6486 4.1179,-3.088 4.1179,-4.3132 0,-0.9371 -0.2704,-1.671 -0.8175,-2.2073 -0.5471,-0.5363 -1.2926,-0.8016 -2.2422,-0.8016 -1.1903,0 -2.0738,0.3554 -2.6629,1.0669 -0.5833,0.7112 -0.8779,1.7895 -0.8779,3.2349 v 0.4122 h -6.7084 c 0,-0.0904 -0.006,-0.2089 -0.0182,-0.3558 -0.0119,-0.1525 -0.0181,-0.2596 -0.0181,-0.3217 0,-2.9302 0.9499,-5.2279 2.8497,-6.8933 1.8935,-1.6653 4.5025,-2.4953 7.8264,-2.4953 3.0419,0 5.4766,0.7001 7.2978,2.1058 1.8216,1.4057 2.7292,3.2687 2.7292,5.5834 0,1.5186 -0.3546,2.7834 -1.0579,3.7993 -0.7033,1.0162 -2.1461,2.1399 -4.3163,3.3704 -0.2582,0.1582 -0.6792,0.3952 -1.2563,0.7115 -2.0798,1.146 -3.6729,2.1566 -4.773,3.026 h 11.3312 v 5.826 z" />
      <g
         id="Layer1000">
        <path
           inkscape:connector-curvature="0"
           id="path828"
           style="fill:#1e70a2;fill-rule:evenodd"
           d="m 293.3527,299.8358 c 30.0693,0 54.4527,22.7662 54.5249,50.8751 H 238.8277 c 0.0723,-28.1089 24.4556,-50.8751 54.525,-50.8751 z" />
        <path
           inkscape:connector-curvature="0"
           id="path830"
           style="fill:#ffffff;fill-rule:evenodd"
           d="m 293.3527,303.8357 c 27.7075,0 50.176,20.9753 50.2483,46.8752 H 243.1043 c 0.0723,-25.8999 22.5408,-46.8752 50.2484,-46.8752 z" />
      </g>
      <path
         inkscape:connector-curvature="0"
         id="path833"
         style="fill:#1e70a2;fill-rule:evenodd"
         d="M 224.0983,350.7109 H 362.605 c 3.0924,0 5.622,2.5296 5.622,5.6219 v 3e-4 c 0,3.0923 -2.5296,5.622 -5.622,5.622 h -1.9201 v 3.897 l 2e-4,0.0233 v 6.5523 c 0,2.4735 -1.2602,4.6666 -3.1702,5.97 h 0.1258 V 493.5844 H 229.1879 V 378.3977 h 9e-4 c -1.91,-1.3034 -3.1703,-3.4965 -3.1703,-5.97 v -3.0742 -3.4781 -3.9203 h -1.9202 c -3.0923,0 -5.622,-2.5297 -5.622,-5.622 v -3e-4 c 0,-3.0923 2.5297,-5.6219 5.622,-5.6219 z" />
      <path
         inkscape:connector-curvature="0"
         id="path835"
         style="fill:#ffffff;fill-rule:evenodd"
         d="m 224.5453,354.0135 h 137.6124 c 1.2759,0 2.3193,1.0434 2.3193,2.3193 v 3e-4 c 0,1.2759 -1.0434,2.3193 -2.3193,2.3193 H 224.5453 c -1.2756,0 -2.319,-1.0434 -2.319,-2.3193 v -3e-4 c 0,-1.2759 1.0434,-2.3193 2.319,-2.3193 z" />
      <path
         inkscape:connector-curvature="0"
         id="path837"
         style="fill:#ffffff;fill-rule:evenodd"
         d="m 234.4465,361.9551 h 117.8104 c 2.4134,0 4.3877,1.9743 4.3877,4.3877 v 5.6174 c 0,2.4134 -1.9743,4.3878 -4.3877,4.3878 H 234.4465 c -2.4135,0 -4.3878,-1.9744 -4.3878,-4.3878 v -5.6174 c 0,-2.4134 1.9743,-4.3877 4.3878,-4.3877 z" />
      <path
         inkscape:connector-curvature="0"
         id="path839"
         style="fill:#ffffff;fill-rule:evenodd"
         d="m 233.2414,380.8335 v 111.568 q 0,1.1829 1.1829,1.1829 h 3.0382 q 1.1829,0 1.1829,-1.1829 v -111.568 q 0,-1.1829 -1.1829,-1.1829 h -3.0382 q -1.1829,0 -1.1829,1.1829 z" />
      <path
         inkscape:connector-curvature="0"
         id="path841"
         style="fill:#ffffff;fill-rule:evenodd"
         d="m 241.8284,381.0835 v 111.068 q 0,1.4329 1.433,1.4329 h 1.6341 q 1.4329,0 1.4329,-1.4329 v -111.068 q 0,-1.4329 -1.4329,-1.4329 h -1.6341 q -1.433,0 -1.433,1.4329 z" />
      <path
         inkscape:connector-curvature="0"
         id="path843"
         style="fill:#ffffff;fill-rule:evenodd"
         d="m 247.8954,381.0835 v 111.068 q 0,1.4329 1.4329,1.4329 h 1.6342 q 1.4329,0 1.4329,-1.4329 v -111.068 q 0,-1.4329 -1.4329,-1.4329 h -1.6342 q -1.4329,0 -1.4329,1.4329 z" />
      <path
         inkscape:connector-curvature="0"
         id="path845"
         style="fill:#ffffff;fill-rule:evenodd"
         d="m 352.4046,379.6506 h -3.0382 c -0.6508,0 -1.1829,0.5321 -1.1829,1.1829 v 111.568 c 0,0.6508 0.5321,1.1829 1.1829,1.1829 h 3.0382 c 0.6508,0 1.1829,-0.5321 1.1829,-1.1829 v -111.568 c 0,-0.6508 -0.5321,-1.1829 -1.1829,-1.1829 z" />
      <path
         inkscape:connector-curvature="0"
         id="path847"
         style="fill:#ffffff;fill-rule:evenodd"
         d="m 343.5676,379.6506 h -1.6342 c -0.7883,0 -1.4329,0.6446 -1.4329,1.4329 v 111.068 c 0,0.7883 0.6446,1.4329 1.4329,1.4329 h 1.6342 c 0.7883,0 1.4329,-0.6446 1.4329,-1.4329 v -111.068 c 0,-0.7883 -0.6446,-1.4329 -1.4329,-1.4329 z" />
      <path
         inkscape:connector-curvature="0"
         id="path849"
         style="fill:#ffffff;fill-rule:evenodd"
         d="m 337.5006,379.6506 h -1.6342 c -0.7883,0 -1.4329,0.6446 -1.4329,1.4329 v 111.068 c 0,0.7883 0.6446,1.4329 1.4329,1.4329 h 1.6342 c 0.7883,0 1.4329,-0.6446 1.4329,-1.4329 v -111.068 c 0,-0.7883 -0.6446,-1.4329 -1.4329,-1.4329 z" />
      <path
         inkscape:connector-curvature="0"
         id="path851"
         style="fill:#ffffff;fill-rule:evenodd"
         d="m 260.392,379.6506 h 64.9975 c 1.376,0 2.5013,1.1254 2.5013,2.5013 v 108.4326 c 0,1.3759 -1.1253,2.5013 -2.5013,2.5013 H 260.392 c -1.376,0 -2.5013,-1.1254 -2.5013,-2.5013 V 382.1519 c 0,-1.3759 1.1253,-2.5013 2.5013,-2.5013 z" />
      <path
         inkscape:connector-curvature="0"
         id="path853"
         style="fill:#1e70a2;fill-rule:evenodd"
         d="m 281.9979,461.4633 h 22.2971 c 2.0213,0 3.6751,1.6537 3.6751,3.6751 v 24.8392 c 0,1.4904 -0.8995,2.7808 -2.1818,3.3559 h 57.8613 c 1.2376,0 2.2501,1.0505 2.2501,2.3349 v 5.1877 c 0,0.7744 -0.3685,1.4638 -0.9326,1.8893 h 7.2301 c 1.2376,0 2.2501,1.0505 2.2501,2.3346 v 5.1877 c 0,1.2844 -1.0125,2.3349 -2.2501,2.3349 H 214.602 c -1.2377,0 -2.2502,-1.0505 -2.2502,-2.3349 V 505.08 c 0,-1.2841 1.0125,-2.3346 2.2502,-2.3346 h 7.23 c -0.5641,-0.4255 -0.9326,-1.1149 -0.9326,-1.8893 v -5.1877 c 0,-1.2844 1.0125,-2.3349 2.2501,-2.3349 h 57.3551 c -1.2824,-0.5751 -2.1818,-1.8655 -2.1818,-3.3559 v -24.8392 c 0,-2.0214 1.6537,-3.6751 3.6751,-3.6751 z" />
      <path
         inkscape:connector-curvature="0"
         id="path855"
         style="fill:#ffffff;fill-rule:evenodd"
         d="m 283.8861,463.1301 h 18.4853 c 1.6758,0 3.0469,1.3714 3.0469,3.0469 v 22.0938 c 0,1.6759 -1.3711,3.047 -3.0469,3.047 h -18.4853 c -1.6759,0 -3.047,-1.3711 -3.047,-3.047 V 466.177 c 0,-1.6755 1.3711,-3.0469 3.047,-3.0469 z" />
      <path
         inkscape:connector-curvature="0"
         id="path857"
         style="fill:#1e70a2;fill-rule:evenodd"
         d="m 286.471,486.5301 h 11.9993 v -11.9999 c 0,-0.5502 0.4499,-1.0001 1.0001,-1.0001 h 1.2501 c 0.5502,0 1,0.4499 1,1.0001 v 13.0005 1.249 5e-4 l -2e-4,0.0252 v 6e-4 l -0.001,0.025 v 5e-4 l -10e-4,0.025 v 3e-4 l -0.002,0.0249 v 3e-4 l -0.003,0.0246 v 6e-4 l -0.004,0.0244 v 6e-4 l -0.004,0.0241 v 5e-4 l -0.005,0.0238 v 6e-4 l -0.005,0.0238 v 3e-4 l -0.006,0.0238 v 3e-4 l -0.006,0.0235 v 3e-4 l -0.007,0.0232 v 3e-4 l -0.008,0.023 v 6e-4 l -0.008,0.0226 v 3e-4 l -0.009,0.0224 v 6e-4 l -0.009,0.0221 v 3e-4 l -0.01,0.0218 v 6e-4 l -0.0102,0.0215 v 3e-4 c -0.0108,0.0218 -0.0218,0.0431 -0.034,0.0641 v 2e-4 l -0.0252,0.0409 v 2e-4 l -0.027,0.0397 v 3e-4 l -0.0289,0.0383 v 3e-4 l -0.0306,0.0368 v 3e-4 l -0.0323,0.0354 -0.034,0.034 -0.0355,0.0324 h -2e-4 l -0.0369,0.0306 h -3e-4 l -0.0382,0.0289 h -3e-4 l -0.0397,0.0269 h -3e-4 l -0.0408,0.0252 h -3e-4 c -0.021,0.0122 -0.0422,0.0236 -0.0641,0.0341 h -2e-4 l -0.0216,0.0102 h -6e-4 l -0.0218,0.01 h -3e-4 l -0.0221,0.009 h -5e-4 l -0.0224,0.009 h -3e-4 l -0.0227,0.008 h -6e-4 l -0.0229,0.008 h -3e-4 l -0.0233,0.007 h -2e-4 l -0.0236,0.006 h -2e-4 l -0.0239,0.006 h -2e-4 l -0.0239,0.005 h -5e-4 l -0.0238,0.005 h -6e-4 l -0.0241,0.004 h -6e-4 l -0.0243,0.004 h -6e-4 l -0.0247,0.003 h -2e-4 l -0.025,0.002 h -3e-4 l -0.0249,0.002 h -6e-4 l -0.0249,10e-4 h -6e-4 l -0.0252,3e-4 h -6e-4 -1.2495 -12.9994 c -0.5505,0 -1.0006,-0.4502 -1.0006,-1.0006 v -1.249 c 0,-0.5505 0.4501,-1.0006 1.0006,-1.0006 z" />
      <path
         inkscape:connector-curvature="0"
         id="path859"
         style="fill:#ffffff;fill-rule:evenodd"
         d="m 225.0714,495.5834 h 136.6563 c 1.1004,0 2.0004,0.9 2.0004,2.0004 v 0.9995 c 0,1.1004 -0.9,2.0004 -2.0004,2.0004 H 225.0714 c -1.1004,0 -2.0004,-0.9 -2.0004,-2.0004 v -0.9995 c 0,-1.1004 0.9,-2.0004 2.0004,-2.0004 z" />
      <path
         inkscape:connector-curvature="0"
         id="path861"
         style="fill:#ffffff;fill-rule:evenodd"
         d="m 216.7798,504.6542 h 153.2395 c 1.1004,0 2.0004,0.9 2.0004,2.0004 v 0.9995 c 0,1.1005 -0.9,2.0005 -2.0004,2.0005 H 216.7798 c -1.1004,0 -2.0004,-0.9 -2.0004,-2.0005 v -0.9995 c 0,-1.1004 0.9,-2.0004 2.0004,-2.0004 z" />
      <path
         inkscape:connector-curvature="0"
         id="path863"
         style="fill:#ffffff;fill-rule:evenodd"
         d="m 371.6957,432.146 c -5.4178,0.5131 -8.672,0.5108 -14.055,0.5108 v 1.2852 h 152.8501 c -0.4754,-1.3731 -4.0162,-2.5101 -5.3258,-2.6711 -1.8031,-0.2216 -4.8676,-1.4969 -4.907,-1.4998 -1.6271,-0.1145 -14.7926,-8.3962 -17.354,-9.9465 -2.8366,-1.7166 -2.9123,-1.4607 -5.6143,-2.575 -4.6573,-1.921 -11.6223,-0.6913 -15.6251,2.2822 -0.9213,0.6843 -1.918,1.0142 -2.6788,2.2105 -2.1577,3.3933 -3.27,5.3317 -5.739,8.6646 -2.0035,2.7046 -20.4185,2.3936 -21.8324,-1 0.1051,-0.3065 -1.7363,-1.1971 -2.2502,-1.3751 -1.6509,-0.5715 -7.6575,-4.0371 -8.4177,-5.4893 -1.9024,-3.6329 -9.2764,-5.3555 -13.2826,-4.4788 -6.4755,1.4177 -11.0526,1.298 -15.675,7.0932 0.1471,0.0519 -3.1148,2.2765 -3.4144,2.4891 -5.6259,3.996 -10.0182,3.8693 -16.6788,4.5 z" />
      <path
         inkscape:connector-curvature="0"
         id="path865"
         style="fill:#ffffff;fill-rule:evenodd"
         d="m 97.6394,411.3967 c -0.8175,0.2103 -21.1167,19.3821 -21.4691,20.2631 l -0.0408,1.971 -0.0048,0.3112 h 153.0632 v -8.2712 c -0.131,-0.0167 -0.2531,-0.0754 -0.3815,-0.1125 -0.0729,-0.0213 -0.3796,-0.1644 -0.4164,-0.1616 -1.1872,-0.411 -2.3984,-0.25 -3.7503,-0.25 -4.265,0 -9.8767,-2.4891 -12.5855,-5.6645 -1.6946,-1.9862 -18.5225,-8.3236 -22.0357,-9.65 -6.5248,-2.4627 -5.8927,-0.9983 -11.7145,-1.6639 -11.6832,-1.3363 -22.6868,2.6314 -26.1643,-8.5003 -1.7575,-5.6256 -21.5107,-1.5908 -25.7502,3.9787 -1.9817,-0.1564 -9.5752,8.8807 -15.2286,7.7284 -6.124,-1.2478 -7.3995,-1.5525 -13.5215,0.0216 z" />
      <path
         inkscape:connector-curvature="0"
         id="path867"
         style="fill:#ffffff;fill-rule:evenodd"
         d="m 326.0137,271.0791 c -5.9295,-4.0549 -12.4455,-6.154 -19.3751,-6.8751 6.92,4.5683 13.7742,9.2276 18,17.5003 6.9466,-7.704 15.4696,-11.1306 24.7502,-12.5003 -4.7291,-1.1129 -9.402,-2.3215 -16.5002,0.6251 -0.3716,-0.2478 -0.6307,-0.4451 -0.8218,-0.6018 -0.0703,-0.0658 -0.1434,-0.1282 -0.2197,-0.1871 -0.2919,-0.2571 -0.3704,-0.3543 -0.6426,-0.3818 -0.3826,-0.1684 -0.8067,-0.2622 -1.2534,-0.2622 -0.4848,0 -0.9428,0.1105 -1.3502,0.3069 l -0.3373,9e-4 c -1.2039,0 -1.1347,2.0452 -2.2499,2.3751 z" />
      <path
         inkscape:connector-curvature="0"
         id="path869"
         style="fill:#ffffff;fill-rule:evenodd"
         d="m 379.2707,302.0906 c -7.2039,-4.64 -15.0426,-6.9284 -23.3291,-7.5601 8.4016,5.2194 16.7279,10.5495 22.0392,20.2746 8.0295,-9.4149 18.0794,-13.7812 29.1005,-15.7199 -5.6756,-1.1714 -11.2873,-2.4588 -19.6542,1.2884 -0.4513,-0.2831 -0.7667,-0.5099 -0.9997,-0.6905 -0.086,-0.0761 -0.1753,-0.148 -0.2681,-0.2158 -0.3566,-0.297 -0.4535,-0.4103 -0.7788,-0.4342 -0.4619,-0.1881 -0.9706,-0.2861 -1.5033,-0.2714 -0.578,0.016 -1.1206,0.1629 -1.5998,0.4105 l -0.4022,0.0122 c -1.4355,0.0396 -1.2857,2.476 -2.6045,2.9062 z" />
      <path
         inkscape:connector-curvature="0"
         id="path871"
         style="fill:#ffffff;fill-rule:evenodd"
         d="m 434.1933,332.9432 c -9.1092,-5.8672 -19.0213,-8.7609 -29.4995,-9.5597 10.6239,6.5999 21.1524,13.3398 27.8685,25.6372 10.1532,-11.9051 22.8612,-17.4263 36.7973,-19.8778 -7.1766,-1.4812 -14.2727,-3.1091 -24.8526,1.6292 -0.5706,-0.358 -0.9695,-0.6447 -1.2641,-0.8731 -0.1087,-0.0963 -0.2216,-0.1872 -0.339,-0.273 -0.4509,-0.3755 -0.5734,-0.5188 -0.9848,-0.5489 -0.584,-0.238 -1.2273,-0.3618 -1.9009,-0.3432 -0.7308,0.0202 -1.4169,0.2059 -2.0229,0.5191 l -0.5086,0.0153 c -1.8152,0.0501 -1.6257,3.1309 -3.2934,3.6749 z" />
    </g>
  </g>
</svg>
