<?xml version="1.0" encoding="utf-8"?>
<!-- Generator: Adobe Illustrator 16.0.0, SVG Export Plug-In . SVG Version: 6.00 Build 0)  -->
<!DOCTYPE svg PUBLIC "-//W3C//DTD SVG 1.1//EN" "http://www.w3.org/Graphics/SVG/1.1/DTD/svg11.dtd">
<svg version="1.1" id="Layer_1" xmlns="http://www.w3.org/2000/svg" xmlns:xlink="http://www.w3.org/1999/xlink" x="0px" y="0px"
	 width="461.027px" height="559.944px" viewBox="4.583 4.341 461.027 559.944" enable-background="new 4.583 4.341 461.027 559.944"
	 xml:space="preserve">
<path fill="#009B9A" d="M216.856,5.632c17.055-2.501,32.146-1.299,45.602,3c-5.171,46.554-109.406,53.221-121.688,83.978
	c-2.094,5.244-8.418,15.148,24.776,29.333c18.233,7.792,58.031,9.334,94.464,29.745c20.741,11.619,24.32,30.903-26.284,53.837
	c-16.087,7.291-32.585,8.862-45.831,8.554C96.061,211.94,80.129,30.072,216.856,5.632z"/>
<polygon fill="#29275F" points="403.992,383.755 403.992,394.471 465.611,394.471 465.611,382.611 423.221,382.611 465.611,330.464 
	465.611,319.749 403.992,319.749 403.992,331.607 446.528,331.607 "/>
<path fill="#29275F" d="M320.492,357.324c0,22.43,17.043,39.146,40.643,39.146c23.89,0,40.787-16.717,40.787-39.146
	c0-22.717-16.897-39.575-40.787-39.575C337.535,317.749,320.492,334.607,320.492,357.324L320.492,357.324z M335.205,357.324
	c0-14.717,10.635-25.86,25.93-25.86c15.587,0,26.221,11.146,26.221,25.86c0,14.43-10.634,25.431-26.221,25.431
	C345.84,382.755,335.205,371.754,335.205,357.324z"/>
<path fill="#29275F" d="M302.866,319.749c-5.39,26.146-20.538,30.717-40.204,30.86v-57.577h-15.149v101.438h15.149v-30.574
	c6.847,0,13.257-0.715,19.083-2l21.704,32.574h16.606v-2.43l-24.91-35.289c11.799-6.57,19.665-18.43,22.87-37.003H302.866
	L302.866,319.749z"/>
<polygon fill="#29275F" points="159.737,319.749 195.426,393.186 193.387,398.042 183.945,419.355 198.568,419.37 241.312,319.749 
	225.871,319.749 202.126,378.184 176.489,319.749 "/>
<path fill="#29275F" d="M152.95,374.479c-5.827,4.285-14.714,8.285-25.201,8.285c-16.606,0-24.618-8.857-26.075-21.859h56.666
	c0.874-2.713,1.602-8.715,1.602-13.144c0-17.145-10.778-31.146-33.94-31.146c-24.473,0-39.913,17.572-39.913,39.574
	c0,21.717,12.527,39.146,41.224,39.146c12.819,0,23.744-3.857,31.61-10.145L152.95,374.479L152.95,374.479z M145.083,349.332
	h-43.118c1.165-10.857,9.468-20.287,23.744-20.287c13.692,0,19.665,7.715,19.665,16.287
	C145.375,346.618,145.229,348.189,145.083,349.332z"/>
<path fill="#29275F" d="M4.583,394.471H49.45c22.869,0,34.814-10.002,34.814-25.717c0-14.572-9.323-22.288-24.473-24.859
	c10.196-3.285,16.605-10.43,16.605-21.146c0-17.431-12.818-25.431-33.648-25.431H4.583V394.471L4.583,394.471z M19.733,381.611
	v-30.146h25.201c14.567,0,23.162,4.43,23.162,15.573c0,9.571-6.992,14.571-20.685,14.571H19.733V381.611z M19.733,338.322v-28.146
	H40.71c12.526,0,19.956,3.715,19.956,14.287c0,9.715-8.157,13.857-20.686,13.857H19.733V338.322z"/>
<path fill="#29275F" d="M111.583,512.559c3.68,0.271,5.754,2.117,6.223,5.526c0.044,0.347,0.066,0.677,0.066,0.992
	c0,3.041-1.979,5.796-5.945,8.273l-2.169,2.124c1.759,0.255,3.797,0.632,6.12,1.124c5.036,1.654,7.557,3.841,7.557,6.564
	c0,0.369-0.044,0.755-0.132,1.146c-0.784,3.265-2.748,5.682-5.878,7.259c-2.147,1.569-4.442,2.409-6.875,2.531
	c-1.832-0.953-2.749-2.094-2.749-3.433c0.22-1.077,0.733-1.624,1.546-1.624l2.236,0.547h0.856c2.36,0,4.999-1.924,7.902-5.771
	v-0.908c-0.469-1.047-1.958-1.955-4.464-2.701c-2.294-0.724-4.412-1.086-6.355-1.086l-4.814,0.362l1.891,12.268
	c0,1.294-0.975,2.132-2.917,2.524c-1.261,0-1.95-1.14-2.066-3.425c0-7.928-0.447-13.661-1.35-17.218
	c-0.902-3.556-1.422-6.172-1.569-7.856v-0.725c0-2.192,0.434-3.664,1.291-4.395C100.845,513.921,104.708,513.221,111.583,512.559
	L111.583,512.559z M103.337,519.778c0,4.811,0.63,7.211,1.891,7.211h0.857c5.38-2.255,8.069-4.656,8.069-7.211v-0.9
	c0-1.686-1.43-2.524-4.295-2.524h-0.856C105.228,516.354,103.337,517.492,103.337,519.778L103.337,519.778z M130.59,521.494
	c2.287,0,4.288,1.263,6.003,3.787c1.708,2.523,2.939,6.317,3.702,11.383c0.103,0.738,0.146,1.439,0.146,2.101
	c0,3.902-1.913,6.542-5.754,7.912c-0.813,0.3-1.576,0.454-2.294,0.454c-3.254,0-5.549-2.955-6.896-8.866
	c-0.47-2.086-0.704-4.032-0.704-5.842c0-4.387,1.415-7.911,4.251-10.574L130.59,521.494L130.59,521.494z M130.59,525.643
	c-1.563,2.271-2.346,4.941-2.346,8.027c0,1.316,0.146,2.709,0.432,4.172c0.748,3.849,2.06,5.771,3.951,5.771
	c0.514,0,1.078-0.153,1.679-0.454c2.089-0.992,3.13-3.039,3.13-6.134c0-1.055-0.117-2.231-0.358-3.54
	c-0.96-5.096-3.013-7.712-6.143-7.844L130.59,525.643L130.59,525.643z M154.551,564.24c-1.1-0.492-1.657-0.979-1.657-1.439
	c0-0.8,1.679-1.539,5.028-2.209c2.837-0.577,4.251-3.363,4.251-8.365c0-4.271-1.041-10.167-3.115-17.68
	c-5.036,7.797-9.302,12.046-12.798,12.738c-0.33,0.062-0.63,0.092-0.901,0.092c-1.833,0-2.749-1.361-2.749-4.079
	c0-1.399,0.242-3.155,0.733-5.256c1.546-6.858,4.024-11.422,7.425-13.685c1.378-0.938,2.697-1.4,3.951-1.4
	c1.833,0,3.533,0.978,5.094,2.932c0.044,0.116,0.066,0.239,0.066,0.362c0,0.385-0.25,0.815-0.733,1.285l-4.272-0.523l-2.448,0.946
	l-0.491,0.208c-1.95,0.993-3.797,4.518-5.542,10.575c-0.271,0.978-0.41,1.73-0.41,2.276c0,0.662,0.212,0.985,0.646,0.985
	c1.399,0,5.043-3.463,10.929-10.39c0.916-0.425,1.715-0.632,2.404-0.632c1.231,0,2.11,0.678,2.646,2.031
	c2.104,7.466,3.152,13.601,3.152,18.396c0,8.582-3.372,12.876-10.115,12.876C155.292,564.286,154.925,564.271,154.551,564.24
	L154.551,564.24z M153.972,516.8c-0.843,0-2.324-0.639-4.449-1.917c-0.439-0.601-0.66-1.107-0.66-1.531
	c0-0.314,0.118-0.593,0.359-0.839c0.235-0.191,0.478-0.292,0.733-0.292c0.418,0,0.873,0.254,1.378,0.746
	c0.784,0.555,1.678,0.839,2.683,0.839c1.283,0,2.749-0.445,4.376-1.331c0.733,0.284,1.101,0.686,1.101,1.192v0.177
	c-0.118,0.602-0.852,1.247-2.215,1.94c-1.349,0.691-2.439,1.038-3.283,1.038L153.972,516.8L153.972,516.8z M174.283,520.771
	c0.96,0.206,2.133,1.185,3.511,2.916c1.386,1.738,2.258,3.102,2.632,4.095l3.005,12.646c0.704,1.67,1.906,3.532,3.614,5.596
	c-0.265,1.055-0.777,1.831-1.547,2.348h-0.345c-1.136,0-2.161-0.854-3.086-2.563c-0.923-1.708-1.897-3.14-2.932-4.294
	c-0.213,0.725-0.997,2.056-2.36,3.994c-1.341,1.924-3.319,2.887-5.922,2.887c-0.028,0-0.059-0.008-0.088-0.022
	c-2.653-0.016-4.017-3.103-4.104-9.251c-0.016-0.208-0.022-0.416-0.022-0.631c0-5.889,1.275-11.229,3.826-16.024
	c1.355-1.146,2.5-1.716,3.416-1.716C174.02,520.748,174.158,520.756,174.283,520.771L174.283,520.771z M170.032,541.243
	c0.389,1.801,1.019,2.701,1.891,2.701c1.576,0,3.063-1.771,4.464-5.318l0.433-4.171l0.258-3.811
	c-1.319-2.933-2.493-4.395-3.52-4.395c-1.847,0-3.02,4.933-3.525,14.808V541.243L170.032,541.243z M196.94,522.125h-0.169
	l-10.137,2.34c-0.059-0.03-0.11-0.046-0.146-0.046c-0.417,0-0.622,1.14-0.622,3.409c0.241,1.17,0.688,1.755,1.348,1.755
	c0.433,0,0.946-0.246,1.547-0.738c1.517-1.238,3.218-1.854,5.087-1.854l0.521,0.186l-1.202,3.063
	c-4.01,6.796-6.019,11.43-6.019,13.893c0,2.717,0.551,4.094,1.636,4.125h0.044c1.144,0,4.69-0.814,10.628-2.455
	c6.024-1.655,9.045-3.202,9.045-4.647c0-1.687-0.521-2.525-1.547-2.525l-13.619,4.965h-1.371l-0.345-0.361v-0.547
	c0.015-1.124,0.873-3.285,2.572-6.487c3.666-6.682,5.498-10.528,5.498-11.544C199.688,523.203,198.772,522.364,196.94,522.125
	L196.94,522.125z M210.427,522.525h1.723c0.917,0,1.371,0.361,1.371,1.086c0.389,10.205,1.385,17.671,2.983,22.389v0.361
	c-1.657,1.323-2.8,1.984-3.43,1.984c-1.664,0-2.947-6.803-3.85-20.41C209.386,524.334,209.782,522.525,210.427,522.525
	L210.427,522.525z M227.652,522.441c1.73,0,3.351,1.191,4.846,3.594c1.495,2.394,2.543,4.986,3.145,7.766
	c0.945,4.604,1.415,8.012,1.415,10.236c0,2.094-0.411,3.132-1.246,3.132c-0.198,0.124-0.381,0.187-0.557,0.187
	c-0.976,0-1.701-1.764-2.191-5.28l-1.994-10.892c-1.004-2.586-2.022-3.879-3.07-3.879c-0.558,0-1.121,0.377-1.7,1.132
	c-1.327,1.739-1.994,5.142-1.994,10.189c0,1.186,0.037,2.471,0.11,3.856l0.169,1.624c-0.125,2.586-0.873,3.879-2.236,3.879v-0.023
	c-1.371,0-2.345-1.093-2.917-3.271c-0.117-2.463-0.168-5.003-0.168-7.619l-1.034-12.653c0-0.716,0.286-1.324,0.857-1.801
	c0.176-0.077,0.337-0.115,0.499-0.115c1.253,0,1.985,2.277,2.184,6.834l1.145-3.317
	C224.325,523.634,225.908,522.441,227.652,522.441L227.652,522.441z M254.392,510.581c1.173,0,2.089,1.315,2.749,3.963
	c-0.602,1.447-1.466,2.163-2.58,2.163c-1.604-0.385-2.404-1.47-2.404-3.24C252.412,511.543,253.16,510.581,254.392,510.581
	L254.392,510.581z M254.45,522.525l1.076,0.23c0.917,0,1.371,0.354,1.371,1.077c0.346,10.706,1.319,18.418,2.925,23.136v0.361
	c-1.188,0.678-2.097,1.016-2.727,1.016c-1.664,0-2.947-6.803-3.849-20.409C253.41,524.334,253.806,522.525,254.45,522.525
	L254.45,522.525z M270.73,522.441c1.729,0,3.351,1.191,4.846,3.594c1.494,2.394,2.543,4.986,3.145,7.766
	c0.945,4.604,1.415,8.012,1.415,10.236c0,2.094-0.411,3.132-1.247,3.132c-0.197,0.124-0.381,0.187-0.557,0.187
	c-0.976,0-1.7-1.764-2.191-5.28l-1.994-10.892c-1.004-2.586-2.021-3.879-3.07-3.879c-0.558,0-1.121,0.377-1.7,1.132
	c-1.326,1.739-1.994,5.142-1.994,10.189c0,1.186,0.037,2.471,0.109,3.856l0.17,1.624c-0.125,2.586-0.872,3.879-2.236,3.879v-0.023
	c-1.37,0-2.346-1.093-2.917-3.271c-0.117-2.463-0.168-5.003-0.168-7.619l-1.034-12.653c0-0.716,0.286-1.324,0.857-1.801
	c0.177-0.077,0.337-0.115,0.499-0.115c1.253,0,1.985,2.277,2.184,6.834l1.144-3.317C267.402,523.634,268.985,522.441,270.73,522.441
	L270.73,522.441z M284.693,546.854c-2.294-2.623-3.438-5.494-3.438-8.61c0-0.523,0.036-1.063,0.108-1.624
	c0.455-3.741,1.438-6.742,2.939-8.997c1.026-1.709,2.229-3.019,3.585-3.918c1.29-0.771,2.536-1.154,3.737-1.154
	c1.861,0,3.629,0.894,5.308,2.687c0.036,0.115,0.06,0.238,0.06,0.361c0,0.385-0.242,0.815-0.727,1.285l-2.881-0.361
	c-4.706,0.301-7.454,3.209-8.225,8.729c-0.045,0.746-0.065,1.462-0.065,2.14c0,4.642,1.15,6.965,3.46,6.965
	c0.168,0,0.359-0.015,0.557-0.046c3.021-0.431,5.871-2.394,8.547-5.88l0.322-0.116c0.433,0,0.931,0.394,1.503,1.17
	c0.044,0.124,0.065,0.247,0.065,0.362c0,1.433-2.191,3.896-6.574,7.396c-1.569,0.77-3.013,1.153-4.311,1.153
	C287.156,548.394,285.837,547.878,284.693,546.854L284.693,546.854z M303.143,510.581c1.173,0,2.089,1.315,2.749,3.963
	c-0.603,1.447-1.466,2.163-2.58,2.163c-1.605-0.385-2.404-1.47-2.404-3.24C301.163,511.543,301.91,510.581,303.143,510.581
	L303.143,510.581z M303.2,522.525l1.077,0.23c0.917,0,1.371,0.354,1.371,1.077c0.345,10.706,1.319,18.418,2.925,23.136v0.361
	c-1.188,0.678-2.097,1.016-2.727,1.016c-1.664,0-2.947-6.803-3.85-20.409C302.16,524.334,302.557,522.525,303.2,522.525
	L303.2,522.525z M320.684,521.24c1.575,0.708,2.359,1.339,2.359,1.894c0,0.602-0.901,1.116-2.704,1.539h-1.026
	c-2.521,0.631-3.782,1.531-3.782,2.701c0,1.416,2.404,2.925,7.213,4.533c4.698,1.578,7.044,4.718,7.044,9.429v0.338
	c-0.366,3.648-2.434,5.474-6.179,5.474h-0.499c-4.075-0.161-7.345-2.764-9.793-7.798c0-0.537,0.403-0.962,1.202-1.262
	c4.566,3.278,7.777,4.91,9.624,4.91c1.246,0,1.869-0.754,1.869-2.271v-0.314c0.153-0.331,0.233-0.654,0.233-0.97
	c0-1.793-2.478-3.525-7.432-5.188c-5.857-1.955-8.781-4.071-8.781-6.342c0-2.102,2.521-4.148,7.558-6.126L320.684,521.24
	L320.684,521.24z M333.144,510.581c1.174,0,2.09,1.315,2.75,3.963c-0.602,1.447-1.467,2.163-2.581,2.163
	c-1.605-0.385-2.404-1.47-2.404-3.24C331.164,511.543,331.912,510.581,333.144,510.581L333.144,510.581z M333.202,522.525
	l1.077,0.23c0.916,0,1.371,0.354,1.371,1.077c0.344,10.706,1.319,18.418,2.924,23.136v0.361c-1.187,0.678-2.096,1.016-2.727,1.016
	c-1.663,0-2.946-6.803-3.85-20.409C332.161,524.334,332.558,522.525,333.202,522.525L333.202,522.525z M347.636,541.828
	c1.722,0,2.58,1.201,2.58,3.609c-0.374,1.802-1.231,2.701-2.58,2.701c-2.002,0-3.028-1.14-3.071-3.425
	C345.039,542.79,346.06,541.828,347.636,541.828L347.636,541.828z M359.876,541.828c1.723,0,2.579,1.201,2.579,3.609
	c-0.374,1.802-1.23,2.701-2.579,2.701c-2.001,0-3.027-1.14-3.071-3.425C357.281,542.79,358.3,541.828,359.876,541.828
	L359.876,541.828z M372.116,541.828c1.723,0,2.58,1.201,2.58,3.609c-0.374,1.802-1.23,2.701-2.58,2.701
	c-2.002,0-3.026-1.14-3.07-3.425C369.522,542.79,370.54,541.828,372.116,541.828z"/>
<path d="M398.131,425.966c0,2.893,1.815,3.968,4.372,3.968c2.624,0,4.306-1.075,4.306-3.968s-1.682-3.901-4.306-3.901
	C399.947,422.063,398.131,423.073,398.131,425.966z"/>
<path fill="#009B9A" d="M389.252,437.938c-2.624-1.276-8.14-2.556-12.646-2.556c-9.35,0-15.135,4.643-15.135,11.166
	c0,5.314,3.026,8.005,8.745,9.417l6.794,1.614c3.296,0.808,5.516,1.683,5.516,3.902c0,2.823-2.624,4.507-7.265,4.507
	c-4.574,0-8.813-1.684-11.705-3.229l-1.412,6.054c2.69,1.347,7.399,3.027,13.386,3.027c8.879,0,13.991-4.372,13.991-10.83
	c0-5.045-2.824-7.87-8.744-9.35l-7.265-1.683c-3.363-0.808-5.045-1.479-5.045-3.969c0-3.026,3.296-4.709,7.601-4.709
	c3.834,0,8.341,1.278,11.301,2.759L389.252,437.938z"/>
<path fill="#009B9A" d="M351.18,462.289c-2.691,2.018-6.795,3.901-11.639,3.901c-7.669,0-11.367-4.171-12.041-10.291h26.168
	c0.402-1.278,0.739-4.104,0.739-6.189c0-8.071-4.979-14.664-15.674-14.664c-11.301,0-18.431,8.274-18.431,18.633
	c0,10.226,5.785,18.433,19.036,18.433c5.92,0,10.965-1.816,14.597-4.776L351.18,462.289L351.18,462.289z M347.547,450.45h-19.911
	c0.538-5.112,4.372-9.552,10.965-9.552c6.323,0,9.081,3.633,9.081,7.668C347.682,449.172,347.614,449.912,347.547,450.45z"/>
<path fill="#009B9A" d="M278.666,435.988l16.479,34.574l-0.94,2.287c-1.683,3.699-3.296,5.649-7.063,5.649
	c-2.893,0-5.18-1.076-6.929-2.152l-1.145,5.719c1.749,1.144,4.643,2.422,8.072,2.422c7.332,0,10.628-4.104,13.789-11.906
	l15.403-36.593h-7.13L298.24,463.5l-11.839-27.512H278.666z"/>
<path fill="#009B9A" d="M263.185,425.966c0,2.893,1.816,3.968,4.372,3.968c2.624,0,4.306-1.075,4.306-3.968
	s-1.682-3.901-4.306-3.901C265.001,422.063,263.185,423.073,263.185,425.966z"/>
<path fill="#009B9A" d="M244.302,439.554c-2.556-2.422-6.457-4.171-11.3-4.171c-10.023,0-16.816,7.534-16.816,18.162
	s6.793,18.296,16.816,18.296c5.075,0,8.86-1.84,11.3-4.466v4.466h7.131v-48.432h-7.131V439.554L244.302,439.554z M244.302,461.751
	c-1.816,1.951-5.448,3.969-9.35,3.969c-7.063,0-11.638-4.978-11.638-12.175c0-7.131,4.574-12.041,11.638-12.041
	c3.834,0,7.332,2.019,9.35,4.104V461.751z"/>
<path fill="#009B9A" d="M205.893,462.289c-2.69,2.018-6.794,3.901-11.637,3.901c-7.668,0-11.368-4.171-12.041-10.291h26.167
	c0.403-1.278,0.74-4.104,0.74-6.189c0-8.071-4.979-14.664-15.673-14.664c-11.302,0-18.432,8.274-18.432,18.633
	c0,10.226,5.785,18.433,19.037,18.433c5.919,0,10.964-1.816,14.597-4.776L205.893,462.289L205.893,462.289z M202.261,450.45H182.35
	c0.539-5.112,4.373-9.552,10.964-9.552c6.323,0,9.081,3.633,9.081,7.668C202.395,449.172,202.328,449.912,202.261,450.45z"/>
<path fill="#009B9A" d="M155.241,423.409v39.688c0,6.322,3.161,8.744,8.005,8.744c2.893,0,5.649-0.874,7.13-1.614l-0.472-5.583
	c-1.346,0.74-2.557,1.211-4.104,1.211c-2.22,0-3.565-1.412-3.565-4.371V423.41L155.241,423.409L155.241,423.409z"/>
<path fill="#009B9A" d="M142.797,462.289c-2.691,2.018-6.794,3.901-11.638,3.901c-7.668,0-11.368-4.171-12.04-10.291h26.167
	c0.402-1.278,0.739-4.104,0.739-6.189c0-8.071-4.978-14.664-15.673-14.664c-11.301,0-18.431,8.274-18.431,18.633
	c0,10.226,5.785,18.433,19.037,18.433c5.919,0,10.964-1.816,14.597-4.776L142.797,462.289L142.797,462.289z M139.165,450.45h-19.911
	c0.538-5.112,4.373-9.552,10.964-9.552c6.323,0,9.081,3.633,9.081,7.668C139.299,449.172,139.232,449.912,139.165,450.45z"/>
<path fill="#009B9A" d="M68.199,471.168h20.718c10.561,0,16.077-4.708,16.077-12.107c0-6.86-4.306-10.493-11.302-11.704
	c4.708-1.548,7.668-4.91,7.668-9.955c0-8.206-5.919-11.975-15.538-11.975H68.199V471.168L68.199,471.168z M75.194,444.732v-13.251
	h9.688c5.785,0,9.215,1.749,9.215,6.727c0,4.574-3.767,6.524-9.552,6.524H75.194L75.194,444.732z M75.194,465.114v-14.193h11.638
	c6.727,0,10.694,2.086,10.694,7.332c0,4.507-3.229,6.861-9.552,6.861H75.194z"/>
<rect x="263.992" y="435.988" fill="#009B9A" width="7.196" height="35.853"/>
<path fill="#009B9A" d="M398.131,425.966c0,2.893,1.815,3.968,4.372,3.968c2.624,0,4.306-1.075,4.306-3.968
	s-1.682-3.901-4.306-3.901C399.947,422.063,398.131,423.073,398.131,425.966z"/>
<rect x="398.938" y="435.988" fill="#009B9A" width="7.197" height="35.853"/>
<path fill="#29275F" d="M220.466,101.398c32.977-14.358,48.233-28.143,56.4-41.7C255.218,61.98,199.591,66.175,220.466,101.398z"/>
<path fill="#85BE53" d="M281.366,143.999c-16.469-9.527-32.684-19.472-48.45-30.15c16.355-7.083,30.544-16.768,42.899-28.65
	C275.607,105.547,277.176,125.25,281.366,143.999z"/>
<path fill="#009B9A" d="M341.009,85.955c-9.5-12.985-24.368-21.45-45.27-24.834c-5.388,28.051-6.314,56.35,2.7,85.2
	C312.63,115.287,326.819,100.07,341.009,85.955z"/>
<path fill="#F6C11D" d="M349.814,100.123c-19.926,17.833-33.424,38.691-39.75,62.924c7.522,4.621,13.227,9.904,16.351,16.125
	c10.688,1.989,18.313,4.159,24.301,6.45C362.371,152.064,358.968,124.877,349.814,100.123z"/>
<path fill="#009B9A" d="M332.114,216.3c-8.68-5.625-21.671-8.074-37.949-8.1c11.508-3.169,22.191-7.28,30.899-13.65
	c7.592,1.176,13.907,2.675,18.3,4.65C340.936,205.782,336.942,211.32,332.114,216.3z"/>
<path fill="#29275F" d="M193.364,247.051c59.437-21.131,101.765-27.569,127.201-19.5
	C289.057,254.899,241.093,269.15,193.364,247.051z"/>
</svg>
