<?xml version="1.0" encoding="utf-8"?>
<!-- Generator: Adobe Illustrator 16.0.0, SVG Export Plug-In . SVG Version: 6.00 Build 0)  -->
<!DOCTYPE svg PUBLIC "-//W3C//DTD SVG 1.1//EN" "http://www.w3.org/Graphics/SVG/1.1/DTD/svg11.dtd">
<svg version="1.1" id="Layer_1" xmlns="http://www.w3.org/2000/svg" xmlns:xlink="http://www.w3.org/1999/xlink" x="0px" y="0px"
	 width="299.767px" height="126.413px" viewBox="0 0 299.767 126.413" enable-background="new 0 0 299.767 126.413"
	 xml:space="preserve">
<g>
	<defs>
		<rect id="SVGID_1_" width="299.767" height="126.413"/>
	</defs>
	<clipPath id="SVGID_2_">
		<use xlink:href="#SVGID_1_"  overflow="visible"/>
	</clipPath>
	<path clip-path="url(#SVGID_2_)" fill="#5A4099" d="M130.647,49.559c0,0.001-0.001,0.002-0.001,0.004
		c-0.079,0.076-0.111,0.092-0.428,0.251c-0.214,0.102-0.464,0.156-0.733,0.156c-0.784,0-1.612-0.442-2.169-0.813l-0.012-0.009
		l-0.013-0.007c-0.098-0.057-0.209-0.127-0.331-0.206c-0.678-0.431-1.812-1.153-3.268-1.153c-0.97,0-1.945,0.319-2.907,0.95
		c0.003-0.009,0.005-0.018,0.008-0.027l4.759-14.965c0.038-0.128,0.072-0.237,0.103-0.329c0.026,0.086,0.054,0.187,0.084,0.304
		l0.003,0.012l0.004,0.013l4.651,14.693c0.121,0.363,0.176,0.657,0.22,0.894l0.023,0.122c0.001,0.026,0.003,0.052,0.005,0.077
		C130.646,49.537,130.647,49.547,130.647,49.559 M141.406,61.401l-10.198-32.128c-0.865-2.645-2.674-3.929-5.532-3.929
		c-2.977,0-4.926,1.32-5.794,3.923l-10.202,31.557c-0.801,2.493-0.324,4.235,1.309,4.779c0.281,0.093,1.41,0.13,1.579,0.13
		c2.142,0,2.742-1.446,3.224-2.609c0.074-0.177,0.147-0.354,0.226-0.525l0.006-0.013l0.005-0.013l1.585-4.069l0.206-0.566
		l0.399-0.798c0.858-1.331,2.966-2.294,5.026-2.294c1.037,0,1.726,0.357,2.599,0.809c0.417,0.216,0.891,0.462,1.448,0.688
		c0.794,0.35,1.656,0.531,2.55,0.531c1.202,0,2.157-0.322,2.746-0.592l0.091-0.047c0.075,0.088,0.2,0.297,0.428,0.85
		c0.017,0.043,0.031,0.09,0.06,0.181c0.131,0.417,0.482,1.527,2.153,6.04c0.697,1.743,1.573,2.48,2.935,2.48
		c2.186,0,3.44-0.926,3.44-2.541C141.695,62.587,141.602,61.984,141.406,61.401"/>
	<path clip-path="url(#SVGID_2_)" fill="#5A4099" d="M166.732,43.195v0.759v0.951v2.59c0,9.378-3.202,11.094-9.508,11.094h-5.604
		c-0.279,0-0.479-0.044-0.559-0.123c0.004,0-0.07-0.131-0.07-0.665V33.383c0-0.376,0.061-0.551,0.097-0.622
		c0.08-0.023,0.279-0.06,0.743-0.06h5.551c3.778,0,5.226,0.782,6.572,2.225c1.329,1.425,2.3,2.798,2.673,7.516
		c0.002,0.133,0.025,0.27,0.055,0.441C166.697,42.972,166.716,43.075,166.732,43.195 M169.887,31.268
		c-2.251-3.404-6.228-5.13-11.817-5.13h-10.147c-1.799,0-3.416,0.147-3.44,1.919l-0.047,0.279l-0.007,0.04v0.039v0.951v32.24v0.952
		v0.528c0,1.313,0.792,2.066,2.172,2.066h1.797h11.839c3.988,0,7.151-1.336,9.403-3.973c2.356-2.796,3.551-6.972,3.551-12.416
		C173.19,40.353,172.109,34.63,169.887,31.268"/>
	<path clip-path="url(#SVGID_2_)" fill="#5A4099" d="M196.175,49.559c0,0.001-0.001,0.002-0.001,0.004
		c-0.079,0.076-0.111,0.092-0.428,0.251c-0.214,0.102-0.464,0.156-0.733,0.156c-0.784,0-1.612-0.442-2.169-0.813l-0.012-0.009
		l-0.014-0.007c-0.098-0.057-0.209-0.127-0.33-0.206c-0.679-0.431-1.813-1.153-3.27-1.153c-0.969,0-1.944,0.319-2.906,0.95
		c0.003-0.009,0.006-0.018,0.008-0.027l4.76-14.965c0.038-0.128,0.071-0.237,0.102-0.329c0.027,0.086,0.055,0.187,0.085,0.304
		l0.004,0.012l0.003,0.013l4.651,14.693c0.121,0.363,0.176,0.657,0.22,0.894l0.023,0.122c0.001,0.026,0.003,0.052,0.005,0.077
		C196.174,49.537,196.175,49.547,196.175,49.559 M206.934,61.401l-10.198-32.128c-0.864-2.645-2.674-3.929-5.531-3.929
		c-2.978,0-4.928,1.32-5.794,3.923l-10.202,31.557c-0.801,2.493-0.324,4.235,1.31,4.779c0.279,0.093,1.409,0.13,1.578,0.13
		c2.143,0,2.742-1.446,3.224-2.609c0.074-0.177,0.147-0.354,0.227-0.525l0.005-0.013l0.006-0.013l1.585-4.069l0.206-0.566
		l0.399-0.798c0.857-1.331,2.966-2.294,5.025-2.294c1.038,0,1.727,0.357,2.6,0.809c0.418,0.216,0.891,0.462,1.447,0.688
		c0.795,0.35,1.656,0.531,2.551,0.531c1.202,0,2.156-0.322,2.747-0.592l0.09-0.047c0.076,0.088,0.2,0.297,0.428,0.85
		c0.016,0.043,0.031,0.09,0.06,0.181c0.132,0.417,0.482,1.527,2.153,6.04c0.697,1.743,1.573,2.48,2.936,2.48
		c2.186,0,3.439-0.926,3.439-2.541C207.223,62.587,207.128,61.984,206.934,61.401"/>
	<path clip-path="url(#SVGID_2_)" fill="#5A4099" d="M228.733,58.536H218.11c-0.188,0-0.577,0-0.577-0.946V28.891
		c0-2.657-1.91-3.599-3.545-3.599c-1.685,0-3.389,1.199-3.389,3.493v33.086c0,1.623,0.157,3.209,2.031,3.228l0.337,0.049
		l0.034,0.005h0.034h1.479h14.746c2.327,0,3.388-1.729,3.388-3.334C232.649,60.592,232.14,58.536,228.733,58.536"/>
	<path clip-path="url(#SVGID_2_)" fill="#5A4099" d="M255.538,49.559c-0.001,0.001-0.001,0.002-0.002,0.003
		c-0.079,0.077-0.111,0.093-0.429,0.251c-0.214,0.102-0.463,0.156-0.732,0.156c-0.784,0-1.612-0.442-2.169-0.813l-0.012-0.008
		l-0.014-0.008c-0.097-0.056-0.208-0.127-0.331-0.205c-0.678-0.432-1.812-1.154-3.268-1.154c-0.969,0-1.945,0.319-2.907,0.95
		c0.002-0.009,0.006-0.018,0.008-0.026l4.761-14.965c0.036-0.128,0.071-0.237,0.102-0.329c0.026,0.086,0.054,0.187,0.084,0.304
		l0.004,0.012l0.004,0.012l4.65,14.693c0.121,0.363,0.176,0.657,0.22,0.894l0.023,0.123c0.001,0.026,0.003,0.051,0.005,0.076
		C255.536,49.536,255.537,49.547,255.538,49.559 M266.297,61.402l-10.199-32.128c-0.865-2.645-2.673-3.929-5.532-3.929
		c-2.977,0-4.927,1.32-5.794,3.922L234.57,60.824c-0.802,2.493-0.324,4.235,1.309,4.779c0.28,0.094,1.411,0.131,1.58,0.131
		c2.141,0,2.741-1.446,3.224-2.608c0.073-0.178,0.146-0.355,0.226-0.526l0.005-0.013l0.006-0.012l1.585-4.07l0.206-0.566
		l0.399-0.798c0.857-1.331,2.966-2.294,5.025-2.294c1.038,0,1.727,0.357,2.6,0.81c0.418,0.216,0.892,0.461,1.447,0.688
		c0.794,0.35,1.656,0.531,2.551,0.531c1.202,0,2.156-0.322,2.746-0.593l0.092-0.046c0.074,0.087,0.199,0.297,0.427,0.85
		c0.016,0.042,0.031,0.089,0.06,0.178c0.131,0.417,0.48,1.524,2.153,6.042c0.698,1.742,1.573,2.481,2.935,2.481
		c2.187,0,3.44-0.926,3.44-2.542C266.585,62.589,266.491,61.986,266.297,61.402"/>
	<path clip-path="url(#SVGID_2_)" fill="#5A4099" d="M287.277,43.458L287.277,43.458c-0.129,0.015-0.355,0.015-0.561,0.015
		c-1.243,0-1.926-0.374-2.713-0.807c-0.893-0.489-1.902-1.043-3.788-1.043c-1.548,0-2.669,0.512-3.748,1.209v-9.379
		c0.032-0.41,0.185-0.647,0.841-0.647h5.92c3.37,0,5.095,0.354,5.955,1.223c0.789,0.8,0.934,2.184,0.911,4.158
		c-0.052,4.119-1.321,4.954-2.686,5.243L287.277,43.458z M297.077,61.012l-6.028-10.999l-0.453-0.908
		c0.012-0.005,0.023-0.012,0.036-0.017c5.154-2.297,5.868-6.747,5.868-11.212c0-1.042-0.07-1.878-0.223-2.631
		c-0.998-6.052-4.731-9.001-11.411-9.001h-11.15c-2.582,0-3.812,0.522-3.812,3.493v32.98c0,0.697,0.105,1.312,0.305,1.775
		c0.498,1.07,1.989,1.454,2.871,1.454c2.812,0,3.388-1.418,3.388-3.547V51.775v-0.634v-0.148c0.046-1.789,1.937-2.754,3.695-2.754
		c1.349,0,1.892,0.211,2.287,0.527c0.591,0.484,1.122,1.164,1.625,2.078l7.08,13.104c0.635,1.318,1.617,1.997,2.908,1.997
		s2.371-0.564,2.964-1.549C297.633,63.393,297.65,62.096,297.077,61.012"/>
	<path clip-path="url(#SVGID_2_)" fill="#5A4099" d="M294.392,72.082c0,1.454,1.217,2.671,2.705,2.671
		c1.453,0,2.67-1.217,2.67-2.671c0-1.487-1.217-2.704-2.67-2.704C295.608,69.378,294.392,70.595,294.392,72.082 M295.102,99.566
		c0.271,0.98,0.879,1.521,1.86,1.521c0.338,0,0.71-0.102,1.014-0.271l-0.034,0.033c0.643-0.372,1.015-1.115,1.015-2.299V78.573
		l-0.034-1.116c-0.169-0.98-0.946-1.622-1.927-1.622c-1.284,0-1.96,0.845-1.96,2.501v20.588L295.102,99.566z M271.337,94.833
		c0,0.913,0.642,2.029,2.196,3.449c1.488,1.352,3.617,2.23,5.815,2.501c0.642,0.067,1.251,0.102,1.825,0.102
		c4.732,0,7.978-2.367,8.79-5.883c0.169-0.676,0.235-1.284,0.235-1.825c0-3.245-2.062-5.646-5.476-6.457l-1.014-0.27l-0.609-0.136
		h0.034l-1.555-0.339c-0.372-0.066-0.744-0.202-1.082-0.27l-0.541-0.135l0.033,0.032l-0.676-0.169
		c-2.096-0.573-3.109-1.521-3.109-2.703c0-0.271,0.033-0.575,0.135-0.88c0.473-1.317,1.961-2.23,4.191-2.23h0.136
		c0.845,0,2.197,0,4.157,1.318l0.575,0.405l-0.034-0.034l0.813,0.677c0.507,0.271,0.979,0.405,1.487,0.305h-0.034
		c1.116-0.203,1.758-1.42,1.521-2.401c-0.135-0.676-0.607-1.217-1.824-2.129c-0.609-0.439-1.318-0.846-2.164-1.149l0.033,0.033
		c-0.913-0.371-1.724-0.608-2.637-0.71c-0.71-0.101-1.217-0.135-1.622-0.135h-0.236c-2.063,0-3.854,0.507-5.342,1.42h0.033
		c-1.419,0.912-2.399,2.129-2.873,3.617c-0.27,0.845-0.372,1.487-0.372,2.197c0,3.043,1.995,5.104,5.95,6.22l0.98,0.203l1.555,0.372
		c0.507,0.068,1.048,0.237,1.555,0.338l0.406,0.102c0.338,0.067,0.609,0.203,0.947,0.236h-0.034
		c0.541,0.136,0.979,0.305,1.352,0.575c0.846,0.473,1.251,1.251,1.251,2.333c0.034,1.994-1.961,3.786-4.732,3.684
		c-0.169,0-0.372,0-0.744-0.032c-0.102,0-0.304-0.034-0.473-0.034c-0.98-0.103-1.928-0.338-2.772-0.913
		c-0.372-0.169-1.149-0.71-1.454-1.149c-1.521-1.893-1.859-2.164-2.771-2.164c-0.677,0-1.218,0.271-1.556,0.947
		C271.438,94.124,271.337,94.462,271.337,94.833 M264.914,90.101c1.014-0.507,1.317-1.589,1.284-2.333
		c-0.17-1.927-1.894-1.689-2.197-1.589l-0.507,0.203h0.067l-0.439,0.169c-0.879,0.203-1.859-0.169-2.807-0.507l-0.743-0.271h0.033
		c-1.115-0.371-2.163-0.574-3.008-0.574c-0.643,0-1.285,0.135-1.792,0.372v-5.544h8.958c1.725,0,2.604-0.609,2.604-1.86
		c0-1.014-0.711-1.825-1.557-1.825h-1.115h-10.242c-2.333,0-2.638,0.304-2.638,2.366v20.52c0.271,1.251,0.608,1.454,2.638,1.454
		h11.054c1.352,0,2.096-0.777,2.096-1.927c0-1.42-0.575-1.792-2.468-1.792h-9.161c-0.101,0-0.135-0.135-0.169-0.236V89.83
		c0.372-0.372,0.98-0.575,1.792-0.575c0.405,0,0.98,0.034,1.622,0.17l-0.067-0.034c0.912,0.305,1.656,0.541,2.266,0.846
		c0.676,0.27,1.386,0.372,2.062,0.372c0.845,0,1.623-0.136,2.366-0.475L264.914,90.101z M232.696,76.984
		c-0.338-0.643-1.014-1.116-1.792-1.116c-0.27,0-0.573,0.067-0.879,0.203c-0.709,0.338-1.081,0.913-1.081,1.758
		c0,0.406,0.067,0.879,0.338,1.319l6.086,11.054v-0.034c0.202,0.338,0.27,0.575,0.27,0.845v7.911c0,0.98,0.304,2.197,1.961,2.197
		c0.304,0,0.575-0.067,0.845-0.169c0.778-0.372,1.149-1.015,1.149-2.028v-7.877c0-0.236,0.068-0.507,0.237-0.744l6.051-11.291
		c0.271-0.473,0.372-0.912,0.372-1.42c-0.034-0.979-1.015-1.757-1.894-1.757c-0.27,0-0.507,0.067-0.676,0.135
		c-0.575,0.271-0.979,0.71-1.251,1.217l-4.834,9.161L232.696,76.984z M219.682,72.082c0,1.454,1.217,2.671,2.704,2.671
		c1.454,0,2.671-1.217,2.671-2.671c0-1.487-1.217-2.704-2.671-2.704C220.898,69.378,219.682,70.595,219.682,72.082 M220.392,99.566
		c0.271,0.98,0.879,1.521,1.859,1.521c0.338,0,0.71-0.102,1.014-0.271l-0.033,0.033c0.643-0.372,1.015-1.115,1.015-2.299V78.573
		l-0.034-1.116c-0.169-0.98-0.947-1.622-1.927-1.622c-1.285,0-1.962,0.845-1.962,2.501v20.588L220.392,99.566z M200.582,96.828
		V80.027h0.135h4.091c2.129,0,3.617,0.438,4.395,1.25c0.743,0.845,1.284,2.771,1.521,5.342c0,0.066,0.033,0.236,0.067,0.338v2.67
		c0,5.308-1.759,7.336-5.409,7.336h-4.767C200.582,96.929,200.582,96.896,200.582,96.828 M196.593,78.066v21.026
		c0,1.048,0.574,1.589,1.656,1.589h8.282c2.569,0,4.53-0.879,5.949-2.536c1.488-1.757,2.266-4.36,2.266-7.74
		c0-5.105-0.677-8.723-2.063-10.818c-1.453-2.164-3.921-3.245-7.471-3.245h-6.152c-1.859,0-2.434,0.372-2.434,1.521L196.593,78.066z
		 M189.426,90.101c1.014-0.507,1.319-1.589,1.285-2.333c-0.169-1.927-1.894-1.689-2.198-1.589l-0.507,0.203h0.067l-0.439,0.169
		c-0.879,0.203-1.859-0.169-2.805-0.507l-0.744-0.271h0.034c-1.116-0.371-2.164-0.574-3.01-0.574c-0.642,0-1.285,0.135-1.792,0.372
		v-5.544h8.959c1.725,0,2.604-0.609,2.604-1.86c0-1.014-0.71-1.825-1.556-1.825h-1.115h-10.243c-2.333,0-2.637,0.304-2.637,2.366
		v20.52c0.271,1.251,0.608,1.454,2.637,1.454h11.054c1.354,0,2.096-0.777,2.096-1.927c0-1.42-0.573-1.792-2.467-1.792h-9.162
		c-0.101,0-0.135-0.135-0.169-0.236V89.83c0.372-0.372,0.981-0.575,1.792-0.575c0.406,0,0.98,0.034,1.623,0.17l-0.067-0.034
		c0.913,0.305,1.655,0.541,2.265,0.846c0.676,0.27,1.386,0.372,2.063,0.372c0.845,0,1.622-0.136,2.365-0.475L189.426,90.101z
		 M155.653,98.349c0,1.725,0.406,2.3,1.623,2.3l0.203,0.033h9.837c1.623,0,2.435-0.676,2.435-1.961c0-1.352-0.608-1.758-2.738-1.758
		h-7.437v-18.83l-0.068-0.879c-0.169-0.979-0.812-1.453-1.961-1.453c-1.25,0-1.894,0.845-1.894,2.501V98.349z M148.555,90.101
		c1.014-0.507,1.319-1.589,1.285-2.333c-0.169-1.927-1.893-1.689-2.198-1.589l-0.507,0.203h0.068l-0.439,0.169
		c-0.879,0.203-1.86-0.169-2.806-0.507l-0.744-0.271h0.034c-1.116-0.371-2.164-0.574-3.009-0.574c-0.642,0-1.285,0.135-1.792,0.372
		v-5.544h8.959c1.724,0,2.603-0.609,2.603-1.86c0-1.014-0.71-1.825-1.555-1.825h-1.116h-10.243c-2.333,0-2.637,0.304-2.637,2.366
		v20.52c0.271,1.251,0.609,1.454,2.637,1.454h11.055c1.352,0,2.096-0.777,2.096-1.927c0-1.42-0.575-1.792-2.468-1.792h-9.162
		c-0.101,0-0.135-0.135-0.169-0.236V89.83c0.372-0.372,0.981-0.575,1.792-0.575c0.406,0,0.98,0.034,1.623,0.17l-0.068-0.034
		c0.913,0.305,1.657,0.541,2.265,0.846c0.676,0.27,1.386,0.372,2.062,0.372c0.845,0,1.623-0.136,2.367-0.475L148.555,90.101z
		 M115.29,80.027h6.018c2.028,0,3.313,0.979,3.313,3.109c0,1.25-0.203,2.298-1.623,2.738c-0.237,0.101-0.473,0-0.811-0.135
		l-0.643-0.203h0.068c-0.642-0.271-1.555-0.473-2.671-0.473c-1.115,0-2.332,0.201-3.651,0.709V80.027z M115.29,90.134
		c0.947-0.709,2.096-1.014,4.023-1.014c0.778,0,2.333,0.474,3.077,0.913c1.521,0.777,2.636,1.995,2.636,3.55
		c-0.033,1.859-1.284,3.38-3.346,3.38h-6.424c0.034,0,0.034-0.034,0.034-0.067V90.134z M111.334,99.093
		c0,1.015,0.541,1.556,1.589,1.556l9.094,0.033c4.225,0,7.2-2.771,7.2-7.133c0-2.434-1.149-4.158-2.569-5.477
		c1.352-0.812,2.062-2.704,2.062-4.936c0-4.294-2.603-6.795-7.403-6.795h-7.438c-1.724,0-2.366,0.338-2.535,1.487V99.093z"/>
	<path clip-path="url(#SVGID_2_)" fill="#FFC20E" d="M47.257,56.118h-3.583c0.145-0.933,0.523-1.791,1.07-2.513L47.257,56.118z"/>
	<path clip-path="url(#SVGID_2_)" d="M31.435,62.634h12.233c-1.464-1.438-2.375-3.439-2.375-5.649c0-1.455,0.395-2.819,1.083-3.992
		C37.754,54.913,33.904,58.329,31.435,62.634 M43.674,56.119h3.583l-2.513-2.513C44.196,54.328,43.819,55.185,43.674,56.119
		 M44.744,60.367l2.513-2.513h-3.583C43.819,58.787,44.196,59.645,44.744,60.367 M48.484,54.892v-3.463
		c-0.918,0.119-1.768,0.462-2.491,0.972L48.484,54.892z M48.484,62.543V59.08l-2.491,2.492
		C46.716,62.081,47.566,62.423,48.484,62.543 M50.506,56.952c0-0.72-0.583-1.304-1.303-1.304c-0.72,0-1.304,0.584-1.304,1.304
		c0,0.72,0.584,1.304,1.304,1.304C49.923,58.255,50.506,57.671,50.506,56.952 M52.592,61.453l-2.373-2.373v3.42
		C51.098,62.339,51.906,61.973,52.592,61.453 M50.219,54.892l2.373-2.373c-0.686-0.519-1.494-0.886-2.373-1.046V54.892z
		 M54.748,57.854h-3.302l2.35,2.351C54.28,59.518,54.613,58.717,54.748,57.854 M51.446,56.119h3.302
		c-0.135-0.865-0.468-1.665-0.952-2.351L51.446,56.119z M55.767,62.634c3.022-2.32,6.192-4.417,9.488-6.278
		c-2.919-2.396-6.415-4.025-10.203-4.71c1.29,1.409,2.077,3.284,2.077,5.339c0,2.21-0.911,4.211-2.375,5.649H55.767z M88.144,58.612
		l0.015-4.636L81.7,49.416l-6.228,4.381l-0.003,6.689c0.74-0.436,1.612-0.688,2.544-0.688c0.968,0,1.878,0.27,2.644,0.743v-6.264
		h2.314v4.903c0.928-0.595,2.02-0.916,3.162-0.916C86.83,58.264,87.509,58.383,88.144,58.612 M84.494,48.557
		c4.253-1.113,8.614-1.883,13.046-2.293c-6.507-13.163-19.652-21.335-34.333-21.335c-10.89,0-20.733,4.571-27.71,11.896
		c0.228-0.017,0.458-0.027,0.69-0.027c1.148,0,2.267,0.213,3.244,0.61c1.178-1.256,3.168-2.026,5.382-2.026
		c1.317,0,2.581,0.274,3.657,0.792c1.131,0.545,1.975,1.321,2.439,2.244c0.288,0.57,0.058,1.266-0.512,1.553
		c-0.571,0.287-1.266,0.057-1.553-0.513c-0.442-0.876-1.968-1.763-4.031-1.763c-2.117,0-3.563,0.893-4.01,1.724
		c-0.15,0.278-0.407,0.483-0.711,0.567c-0.305,0.084-0.631,0.039-0.902-0.124c-0.808-0.484-1.874-0.751-3.003-0.751
		c-1.683,0-3.017,0.57-3.7,1.284c-3.335,4.479-5.715,9.709-6.835,15.387h8.246c2.171-2.061,4.664-3.695,7.418-4.86
		c3.063-1.295,6.314-1.952,9.666-1.952c4.73,0,9.332,1.336,13.306,3.863c1.106,0.703,2.149,1.49,3.123,2.35
		c2.054-1.08,4.153-2.071,6.291-2.969l7.334-5.16c0.4-0.281,0.934-0.281,1.333,0.002L84.494,48.557z M100.176,73.145H47.303
		c-0.04,0-0.08-0.002-0.12-0.006c-0.024,0.001-0.049,0.004-0.073,0.004c-0.286,0-0.573-0.106-0.796-0.318
		c-0.464-0.439-0.483-1.172-0.043-1.635c2.101-2.215,4.312-4.297,6.62-6.242H29.5c-0.627,0-1.135-0.518-1.135-1.157
		c0-0.21,0.056-0.407,0.152-0.576c0.873-1.901,1.928-3.563,3.217-5.119h-6.466c-0.224,1.672-0.339,3.378-0.339,5.111
		c0,21.106,17.171,38.278,38.278,38.278C80.878,101.484,95.789,89.448,100.176,73.145 M100.722,70.831
		c0.5-2.465,0.763-5.015,0.763-7.625c0-5.121-0.984-10.059-2.928-14.711c-3.92,0.322-7.783,0.935-11.565,1.825l2.992,2.113
		c0.309,0.218,0.491,0.572,0.49,0.949l-0.024,7.253c-0.001,0.458-0.273,0.872-0.693,1.055c-0.419,0.184-0.909,0.103-1.246-0.207
		c-0.636-0.585-1.48-0.906-2.378-0.906c-1.836,0-3.344,1.371-3.362,3.055c-0.006,0.582-0.442,1.066-1.019,1.137
		c-0.577,0.069-1.116-0.3-1.258-0.864c-0.27-1.056-1.289-1.795-2.481-1.795c-1.402,0-2.544,1.04-2.546,2.318
		c-0.001,0.638-0.519,1.154-1.157,1.154h-0.001c-0.638-0.001-1.156-0.519-1.155-1.156v-0.001v-0.001l0.004-9.457
		c-8.581,3.807-16.474,9.155-23.292,15.863H100.722z M102.724,53.89c0.713,3.036,1.075,6.171,1.075,9.317
		c0,5.479-1.074,10.795-3.191,15.8c-2.044,4.834-4.971,9.175-8.698,12.902c-3.728,3.728-8.069,6.654-12.903,8.698
		c-5.005,2.117-10.321,3.19-15.8,3.19s-10.796-1.073-15.8-3.19c-4.834-2.044-9.175-4.971-12.903-8.698
		c-3.727-3.728-6.654-8.068-8.699-12.902c-2.116-5.005-3.19-10.321-3.19-15.8s1.074-10.796,3.19-15.8
		c2.045-4.834,4.972-9.175,8.699-12.903c3.728-3.727,8.069-6.654,12.903-8.698c5.004-2.117,10.321-3.191,15.8-3.191
		c7.734,0,15.256,2.184,21.753,6.315c6.322,4.021,11.407,9.694,14.703,16.406C101,48.061,102.031,50.938,102.724,53.89"/>
	<path clip-path="url(#SVGID_2_)" fill="#67AE3E" d="M101.485,63.206c0,2.61-0.263,5.16-0.763,7.625H49.866
		c6.818-6.708,14.711-12.056,23.291-15.863l-0.004,9.457v0.001c0,0.64,0.517,1.157,1.156,1.157h0.001
		c0.638,0,1.156-0.517,1.157-1.155c0.001-1.277,1.144-2.316,2.546-2.316c1.191,0,2.211,0.738,2.48,1.795
		c0.143,0.563,0.682,0.932,1.259,0.863c0.576-0.069,1.012-0.556,1.019-1.137c0.018-1.685,1.526-3.056,3.362-3.056
		c0.898,0,1.742,0.322,2.378,0.906c0.337,0.31,0.826,0.392,1.246,0.208c0.42-0.184,0.691-0.598,0.693-1.056l0.024-7.253
		c0.001-0.376-0.182-0.73-0.49-0.948l-2.993-2.114c3.782-0.889,7.646-1.503,11.566-1.825
		C100.501,53.147,101.485,58.085,101.485,63.206"/>
	<path clip-path="url(#SVGID_2_)" fill="#009BDF" d="M47.303,73.145h52.873c-4.387,16.304-19.298,28.34-36.969,28.34
		c-21.107,0-38.278-17.172-38.278-38.278c0-1.733,0.115-3.439,0.339-5.111h6.466c-1.289,1.556-2.344,3.218-3.218,5.119
		c-0.095,0.169-0.152,0.366-0.152,0.576c0,0.64,0.509,1.157,1.136,1.157h23.391c-2.308,1.945-4.519,4.027-6.62,6.242
		c-0.44,0.463-0.421,1.195,0.043,1.635c0.223,0.212,0.51,0.318,0.796,0.318c0.024,0,0.048-0.003,0.073-0.004
		C47.223,73.143,47.263,73.145,47.303,73.145"/>
	<path clip-path="url(#SVGID_2_)" fill="#8ED8F8" d="M97.54,46.263c-4.432,0.41-8.793,1.18-13.046,2.293l-2.125-1.501
		c-0.399-0.283-0.933-0.283-1.333-0.001l-7.334,5.159c-2.138,0.898-4.237,1.89-6.291,2.969c-0.974-0.86-2.017-1.647-3.123-2.35
		c-3.974-2.527-8.576-3.863-13.306-3.863c-3.352,0-6.603,0.657-9.666,1.952c-2.754,1.165-5.247,2.799-7.418,4.86h-8.246
		c1.12-5.677,3.5-10.908,6.835-15.387c0.683-0.713,2.017-1.284,3.7-1.284c1.129,0,2.195,0.268,3.003,0.752
		c0.271,0.162,0.597,0.207,0.902,0.123c0.304-0.084,0.561-0.289,0.711-0.567c0.447-0.83,1.893-1.724,4.01-1.724
		c2.063,0,3.589,0.887,4.031,1.763c0.287,0.571,0.982,0.8,1.553,0.513c0.57-0.287,0.8-0.983,0.512-1.553
		c-0.464-0.922-1.308-1.698-2.439-2.244c-1.075-0.518-2.34-0.792-3.657-0.792c-2.214,0-4.204,0.77-5.382,2.026
		c-0.977-0.397-2.096-0.61-3.244-0.61c-0.232,0-0.462,0.01-0.69,0.027c6.977-7.325,16.82-11.896,27.71-11.896
		C77.888,24.928,91.033,33.102,97.54,46.263"/>
	<path clip-path="url(#SVGID_2_)" fill="#FFC20E" d="M88.158,53.977l-0.015,4.635c-0.635-0.228-1.314-0.348-2.01-0.348
		c-1.142,0-2.235,0.321-3.163,0.915v-4.902h-2.313v6.263c-0.767-0.472-1.677-0.742-2.644-0.742c-0.933,0-1.804,0.252-2.545,0.688
		l0.003-6.689l6.228-4.382L88.158,53.977z"/>
	<path clip-path="url(#SVGID_2_)" fill="#BFD730" d="M65.254,56.356c-3.295,1.861-6.466,3.958-9.487,6.278h-1.014
		c1.465-1.438,2.375-3.439,2.375-5.648c0-2.056-0.787-3.93-2.076-5.339C58.839,52.332,62.336,53.961,65.254,56.356"/>
	<path clip-path="url(#SVGID_2_)" fill="#FFC20E" d="M54.748,56.118h-3.303l2.351-2.351C54.28,54.455,54.613,55.253,54.748,56.118"
		/>
	<path clip-path="url(#SVGID_2_)" fill="#FFC20E" d="M51.445,57.854h3.303c-0.136,0.865-0.469,1.664-0.952,2.351L51.445,57.854z"/>
	<path clip-path="url(#SVGID_2_)" fill="#FFC20E" d="M52.591,52.519l-2.373,2.373v-3.419C51.098,51.633,51.905,51.999,52.591,52.519
		"/>
	<path clip-path="url(#SVGID_2_)" fill="#FFC20E" d="M50.219,59.08l2.373,2.373c-0.686,0.52-1.494,0.886-2.373,1.047V59.08z"/>
	<path clip-path="url(#SVGID_2_)" fill="#FFC20E" d="M48.484,59.08v3.464c-0.918-0.12-1.768-0.463-2.491-0.973L48.484,59.08z"/>
	<path clip-path="url(#SVGID_2_)" fill="#FFC20E" d="M48.484,51.429v3.463l-2.491-2.491C46.716,51.891,47.566,51.548,48.484,51.429"
		/>
	<path clip-path="url(#SVGID_2_)" fill="#FFC20E" d="M47.257,57.854l-2.513,2.513c-0.547-0.721-0.925-1.58-1.07-2.513H47.257z"/>
	<path clip-path="url(#SVGID_2_)" fill="#BFD730" d="M43.668,62.634H31.434c2.469-4.305,6.32-7.722,10.941-9.641
		c-0.687,1.173-1.082,2.538-1.082,3.993C41.293,59.195,42.203,61.196,43.668,62.634"/>
	<path clip-path="url(#SVGID_2_)" d="M81.813,50.829c-0.72,0-1.304,0.584-1.304,1.304c0,0.72,0.584,1.303,1.304,1.303
		c0.72,0,1.304-0.583,1.304-1.303C83.117,51.413,82.533,50.829,81.813,50.829"/>
</g>
<rect x="84.425" y="54.259" width="2.313" height="3.095"/>
<rect x="76.734" y="54.259" width="2.313" height="3.061"/>
<g>
	<defs>
		<rect id="SVGID_3_" width="299.767" height="126.413"/>
	</defs>
	<clipPath id="SVGID_4_">
		<use xlink:href="#SVGID_3_"  overflow="visible"/>
	</clipPath>
	<path clip-path="url(#SVGID_4_)" fill="#FFC20E" d="M17.985,64.306H1.157C0.518,64.306,0,63.787,0,63.148
		c0-0.638,0.518-1.156,1.157-1.156h16.828c0.639,0,1.157,0.518,1.157,1.156C19.142,63.787,18.624,64.306,17.985,64.306"/>
	<path clip-path="url(#SVGID_4_)" fill="#FFC20E" d="M64.421,1.156v16.828c0,0.639-0.518,1.157-1.157,1.157
		c-0.638,0-1.156-0.518-1.156-1.157V1.156C62.108,0.518,62.626,0,63.264,0C63.903,0,64.421,0.518,64.421,1.156"/>
	<path clip-path="url(#SVGID_4_)" fill="#FFC20E" d="M64.306,108.429v16.827c0,0.64-0.518,1.157-1.157,1.157
		c-0.638,0-1.156-0.518-1.156-1.157v-16.827c0-0.64,0.518-1.157,1.156-1.157C63.788,107.271,64.306,107.789,64.306,108.429"/>
	<path clip-path="url(#SVGID_4_)" fill="#FFC20E" d="M106.224,107.941L94.325,96.042c-0.452-0.452-0.452-1.184,0-1.636
		c0.451-0.452,1.184-0.452,1.635,0l11.9,11.899c0.451,0.451,0.451,1.184,0,1.636C107.408,108.394,106.676,108.394,106.224,107.941"
		/>
	<path clip-path="url(#SVGID_4_)" fill="#FFC20E" d="M30.453,32.007L18.554,20.108c-0.452-0.452-0.452-1.184,0-1.636
		c0.451-0.452,1.184-0.452,1.635,0l11.9,11.899c0.451,0.452,0.451,1.184,0,1.636C31.637,32.458,30.905,32.458,30.453,32.007"/>
	<path clip-path="url(#SVGID_4_)" fill="#FFC20E" d="M107.941,20.189L96.042,32.088c-0.452,0.452-1.184,0.452-1.636,0
		c-0.452-0.451-0.452-1.184,0-1.635l11.899-11.9c0.452-0.451,1.184-0.451,1.636,0C108.393,19.005,108.393,19.737,107.941,20.189"/>
	<path clip-path="url(#SVGID_4_)" fill="#FFC20E" d="M32.007,95.96l-11.899,11.899c-0.452,0.452-1.184,0.452-1.636,0
		c-0.452-0.451-0.452-1.185,0-1.636l11.899-11.899c0.452-0.451,1.184-0.451,1.636,0C32.459,94.776,32.459,95.508,32.007,95.96"/>
	<path clip-path="url(#SVGID_4_)" d="M70.86,87.172c1.202-0.668,2.2-1.482,2.939-2.389c-3.368,0.581-6.92,0.876-10.593,0.876
		c-3.672,0-7.223-0.295-10.592-0.876c0.739,0.906,1.737,1.722,2.939,2.389c2.154,1.194,4.872,1.854,7.653,1.854
		C65.987,89.025,68.705,88.366,70.86,87.172 M76.903,82.396c0.279,0.313,0.365,0.754,0.226,1.149
		c-1.61,4.588-7.335,7.792-13.923,7.792c-6.587,0-12.313-3.204-13.923-7.792c-0.138-0.396-0.052-0.836,0.227-1.149
		c0.278-0.314,0.705-0.453,1.115-0.362c3.927,0.87,8.159,1.312,12.581,1.312c4.422,0,8.655-0.441,12.581-1.312
		C76.197,81.943,76.625,82.081,76.903,82.396"/>
	<path clip-path="url(#SVGID_4_)" fill="#FFC20E" d="M73.799,84.783c-0.739,0.905-1.737,1.722-2.939,2.389
		c-2.154,1.195-4.872,1.853-7.653,1.853c-2.781,0-5.5-0.657-7.653-1.853c-1.203-0.667-2.201-1.483-2.94-2.389
		c3.369,0.582,6.92,0.876,10.593,0.876C66.879,85.659,70.431,85.365,73.799,84.783"/>
</g>
</svg>
