<?xml version="1.0" encoding="utf-8"?>
<!-- Generator: Adobe Illustrator 16.0.0, SVG Export Plug-In . SVG Version: 6.00 Build 0)  -->
<!DOCTYPE svg PUBLIC "-//W3C//DTD SVG 1.1//EN" "http://www.w3.org/Graphics/SVG/1.1/DTD/svg11.dtd">
<svg version="1.1" id="Layer_1" xmlns="http://www.w3.org/2000/svg" xmlns:xlink="http://www.w3.org/1999/xlink" x="0px" y="0px"
	 width="436.87px" height="778.362px" viewBox="0 0 436.87 778.362" enable-background="new 0 0 436.87 778.362"
	 xml:space="preserve">
<g>
	<defs>
		<rect id="SVGID_1_" x="-79.205" y="-31.764" width="595.28" height="841.89"/>
	</defs>
	<clipPath id="SVGID_2_">
		<use xlink:href="#SVGID_1_"  overflow="visible"/>
	</clipPath>
	<path clip-path="url(#SVGID_2_)" fill="#FFFFFF" d="M285.512,778.36c-23.018,0.112-45.766-4.977-73.755-16.506l-0.565-0.245
		c-6.022-2.72-26.891-12.18-42.685-19.781c-11.728-5.645-22.553-11.8-33.024-17.748c-26.988-15.335-50.303-30.454-79.162-30.313
		c-10.42,0.05-20.99,1.858-32.305,5.525l-0.316,0.109l-11.53,4.327l-0.296,0.119l-1.188,0.433l-8.303,3.372L1.489,524.156
		l0.106-5.171L0.168,225.741c-0.105-2.966-0.155-5.209-0.166-7.374C-0.581,98.544,96.43,0.585,216.25,0.002
		c57.317-0.279,111.501,21.578,152.575,61.548c36.485,35.509,59.432,82.798,64.61,133.162l0.354,4.557l0.656,16.284l1.504,277.653
		l0.92,189.928c-4.584,6.64-8.399,11.804-10.333,14.379l-2.517,3.35c-24.994,32.075-58.356,66.209-115.86,75.602
		C300.685,777.687,293.065,778.323,285.512,778.36"/>
	<path clip-path="url(#SVGID_2_)" fill="#004F8B" d="M427.185,213.205C424.486,99.462,331.165,8.33,216.89,8.886
		C101.26,9.448,7.993,103.65,8.555,219.261c0.011,2.367,0.075,4.717,0.165,7.064l2.022,415.835l0.023-0.011
		c34.379-19.353,64.052-31.116,96.184-31.272l0.87-0.031l0.868,0.038c27.561-0.134,60.199,12.465,94.525,27.054
		c0.326,0.139,21.154,9.084,34.959,14.951c3.404,1.372,6.26,2.516,8.039,3.214c18.455,7.073,32.479,11.303,45.4,13.694l2.183,0.39
		c10.694,1.989,18.421,3.422,28.852,3.64c5.123,0.107,9.684,0.161,13.948,0.141c18.064-0.088,34.137-2.233,47.546-4.904
		c17.371-4.651,32.193-11.632,45.198-23.614l-2.102-432.243H427.185z"/>
	<path clip-path="url(#SVGID_2_)" fill="#0098DA" d="M352.242,206.722c0.361,74.165-59.492,134.591-133.657,134.952
		c-74.186,0.361-134.614-59.48-134.976-133.645c-0.361-74.185,59.484-134.611,133.668-134.972
		C291.442,72.695,351.882,132.537,352.242,206.722"/>
	<path clip-path="url(#SVGID_2_)" fill="#FFFFFF" d="M218.516,342.79c-74.808,0.364-135.941-60.181-136.304-134.982
		C81.847,133.03,142.389,71.881,217.196,71.517c74.791-0.364,135.928,60.194,136.292,134.972
		C353.852,281.29,293.307,342.427,218.516,342.79 M217.21,74.389c-73.213,0.356-132.49,60.212-132.134,133.406
		c0.356,73.216,60.212,132.483,133.425,132.127c73.197-0.356,132.461-60.202,132.105-133.419
		C350.25,133.31,290.407,74.033,217.21,74.389"/>
	<path clip-path="url(#SVGID_2_)" fill="#FFFFFF" d="M130.775,198.214c2.093-0.011,3.837,11.956,3.909,26.74
		c0.006,1.158,0.011,2.318-0.003,3.45c0.49-9.914,1.825-16.9,3.419-16.908c2.09-0.01,3.827,11.953,3.899,26.738
		c0.072,14.775-1.549,26.767-3.638,26.777c-2.1,0.01-3.84-11.966-3.912-26.741c-0.006-1.144-0.011-2.288,0.019-3.403
		c-0.522,9.881-1.835,16.857-3.432,16.865c-2.077,0.01-3.834-11.953-3.906-26.741C127.059,210.206,128.7,198.224,130.775,198.214
		 M147.478,200.043c1.652-0.008,3.05,10.545,3.113,23.533c0.064,13.005-1.231,23.571-2.884,23.579s-3.044-10.545-3.108-23.55
		C144.536,210.617,145.825,200.051,147.478,200.043 M153.543,211.336c1.644-0.008,3.048,10.542,3.111,23.55
		c0.063,13.005-1.238,23.558-2.881,23.566c-1.65,0.008-3.048-10.532-3.111-23.537C150.6,221.907,151.895,211.344,153.543,211.336
		 M162.822,201.308c1.656-0.008,3.042,9.443,3.099,21.105c0.057,11.648-1.237,21.126-2.893,21.134
		c-1.65,0.008-3.056-9.456-3.112-21.105C159.859,210.78,161.173,201.316,162.822,201.308 M169.095,213.125
		c1.659-0.008,3.058,9.346,3.113,20.851c0.057,11.521-1.251,20.855-2.911,20.863c-1.656,0.008-3.047-9.313-3.104-20.834
		C166.138,222.5,167.438,213.133,169.095,213.125 M178.683,200.51c1.653-0.008,3.042,9.32,3.098,20.838
		c0.056,11.521-1.242,20.868-2.895,20.876c-1.666,0.008-3.057-9.326-3.113-20.847C175.716,209.859,177.018,200.519,178.683,200.51
		 M115.882,198.641c1.564-0.007,2.911,6.631,3.531,16.138c0.528-2.037,1.141-3.198,1.793-3.201c2.08-0.01,3.837,11.953,3.909,26.738
		c0.072,14.775-1.568,26.767-3.648,26.777c-1.516,0.008-2.884-6.47-3.517-15.759c-0.543,2.112-1.147,3.315-1.806,3.318
		c-2.067,0.01-3.824-12.083-3.897-26.995C112.175,210.758,113.815,198.651,115.882,198.641 M99.555,197.234
		c1.663-0.008,3.139,6.505,3.899,16.041c0.628-2.279,1.3-3.596,2.059-3.6c2.4-0.011,4.421,13.463,4.502,30.113
		c0.081,16.64-1.809,30.149-4.209,30.161c-1.679,0.008-3.151-6.531-3.928-16.067c-0.589,2.292-1.306,3.596-2.03,3.6
		c-2.426,0.011-4.444-13.466-4.525-30.103C95.242,210.743,97.128,197.246,99.555,197.234"/>
	<path clip-path="url(#SVGID_2_)" fill="#FFFFFF" d="M155.82,276.402c0.688-0.003,1.366,0.023,2.054,0.059
		c2.508-10.595,12.009-18.502,23.377-18.557c2.298-0.011,4.553,0.317,6.646,0.9c0.119-6.358,2.656-12.125,6.776-16.373l-2.869,0.014
		l2.301-61.799l0.572-15.75c-2.523-0.102-4.367-0.416-4.369-0.771c-0.002-0.395,1.862-0.726,4.446-0.856l0.471-12.538
		c-2.857-0.074-4.984-0.4-4.986-0.827c-0.002-0.398,2.155-0.744,5.03-0.846l1.124-30.198l1.415,30.186
		c2.88,0.074,5.059,0.399,5.061,0.797c0.002,0.427-2.151,0.773-4.964,0.875l0.566,12.533c2.589,0.104,4.465,0.418,4.467,0.812
		c0.002,0.356-1.845,0.688-4.378,0.814l0.732,15.743l2.218,47.035c5.667-19.86,23.853-34.466,45.456-34.571
		c21.628-0.105,39.945,14.336,45.793,34.225l1.766-47.152l0.589-15.75c-2.531-0.101-4.368-0.415-4.369-0.771
		c-0.002-0.394,1.858-0.726,4.437-0.856l0.461-12.537c-2.844-0.075-4.964-0.4-4.967-0.827c-0.001-0.398,2.171-0.744,5.023-0.846
		l1.121-30.199l1.422,30.186c2.889,0.074,5.042,0.4,5.044,0.797c0.002,0.428-2.138,0.787-4.978,0.876l0.599,12.532
		c2.573,0.104,4.446,0.419,4.448,0.813c0.002,0.356-1.826,0.688-4.397,0.827l0.754,15.73l2.899,61.774l-5.19,0.025l-2.716,0.013
		l-2.494,0.012l-62.966,0.306c4.236,4.319,6.903,10.256,6.935,16.806l0.004,0.649l-45.14,0.219
		c8.458,3.718,14.41,12.156,14.458,21.992l0.003,0.635l-32.376,0.158c5.653,4.833,9.294,12.014,9.333,20.057l0.004,0.708
		l-52.984,0.257c-0.024-0.241-0.025-0.469-0.026-0.707C129.382,288.389,141.186,276.474,155.82,276.402"/>
	<path clip-path="url(#SVGID_2_)" fill="#0098DA" d="M316.908,690.917c-12.429-0.171-21.685-2.273-33.313-4.705
		c-15.815-3.288-31.787-9.389-47.869-16.524c-8.753-3.994-43.382-20.397-43.382-20.397c-27.7-12.988-55.686-24.483-83.858-25.971
		c-32.231,1.359-61.466,10.549-95.406,33.823c71.537-31.227,121.756,2.668,175.462,30.921c17.31,9.553,43.022,20.772,43.022,20.772
		c27.982,11.523,57.747,18.528,91.902,13.182c43.295-6.768,81.472-30.191,107.875-64.716
		C401.456,687.715,351.032,691.391,316.908,690.917"/>
	<path clip-path="url(#SVGID_2_)" fill="#4D9F34" d="M300.123,738.295c-15.282-0.881-21.686-2.273-33.313-4.705
		c-15.815-3.288-31.787-9.389-47.869-16.524c-8.753-3.991-43.382-20.397-43.382-20.397c-27.7-12.987-54.892-26.203-83.065-27.689
		c-32.508-0.723-47.691,1.865-81.631,25.143c71.541-31.229,106.062,12.838,161.685,39.604c17.816,8.572,42.831,19.839,42.831,19.839
		c27.983,11.525,57.978,19.687,92.095,14.116c54.487-8.902,87.026-42.879,113.428-77.402
		C387.342,719.803,338.33,740.496,300.123,738.295"/>
	<path clip-path="url(#SVGID_2_)" fill="#FFFFFF" d="M121.428,461.245c-2.222,0.363-5.183,0.729-8.905,1.136
		c-3.711,0.406-9.034,0.627-15.939,0.661c-4.114,0.021-8.064-0.313-11.829-0.97c-3.779-0.669-7.108-1.978-9.999-3.922
		c-2.882-1.959-5.21-4.754-6.933-8.365c-1.745-3.626-2.629-8.333-2.657-14.166l-0.207-42.548c-0.029-5.79,0.809-10.508,2.52-14.109
		c1.687-3.582,3.989-6.367,6.851-8.357c2.873-1.977,6.217-3.326,10.035-4.02c3.801-0.693,7.761-1.061,11.859-1.081
		c3.416-0.017,6.432,0.031,9.038,0.148c2.612,0.118,4.885,0.25,6.865,0.41c1.966,0.173,3.653,0.331,5.072,0.494
		c1.396,0.163,2.662,0.336,3.771,0.49c1.706,0.25,2.568,1.103,2.575,2.554l0.058,11.906c0.003,0.701-0.252,1.298-0.754,1.806
		c-0.516,0.521-1.102,0.772-1.796,0.775l-26.003,0.127c-3.016,0.014-5.116,0.66-6.345,1.902c-1.236,1.251-1.851,3.54-1.835,6.849
		l0.057,11.682l33.204-0.162c0.679-0.003,1.289,0.242,1.797,0.758c0.511,0.506,0.772,1.101,0.775,1.789l0.059,12.177
		c0.004,0.675-0.251,1.285-0.757,1.793c-0.503,0.508-1.111,0.782-1.789,0.785l-33.205,0.161l0.066,13.565
		c0.016,3.339,0.653,5.635,1.901,6.86c1.242,1.23,3.348,1.853,6.364,1.837l26.003-0.126c0.694-0.004,1.282,0.241,1.803,0.744
		c0.508,0.516,0.768,1.115,0.771,1.789l0.058,11.932C123.985,460.092,123.132,460.979,121.428,461.245"/>
	<path clip-path="url(#SVGID_2_)" fill="#FFFFFF" d="M206.969,368.041c0.002,0.43-0.036,0.74-0.123,0.894l-19.127,44.439
		c-1.263,3.005-2.589,5.231-3.938,6.691c-1.362,1.462-2.808,2.519-4.35,3.227l0.173,35.621c0.004,0.688-0.251,1.289-0.767,1.797
		c-0.509,0.52-1.098,0.768-1.786,0.771l-16.786,0.082c-0.691,0.003-1.273-0.238-1.8-0.754c-0.511-0.503-0.782-1.102-0.785-1.79
		l-0.173-35.62c-1.533-0.693-3.005-1.735-4.43-3.183c-1.403-1.448-2.783-3.661-4.069-6.654l-19.568-44.25
		c-0.085-0.152-0.129-0.462-0.131-0.892c-0.003-0.509,0.171-0.963,0.502-1.352c0.344-0.38,0.861-0.578,1.533-0.582l18.449-0.089
		c0.688-0.004,1.233,0.202,1.679,0.63c0.422,0.439,0.728,0.946,0.904,1.541l14.028,36.068c0.337,0.869,0.639,1.389,0.891,1.607
		c0.269,0.22,0.598,0.307,1.032,0.304c0.43-0.002,0.772-0.091,1.012-0.314c0.257-0.22,0.561-0.742,0.905-1.614l13.657-36.203
		c0.174-0.597,0.478-1.107,0.886-1.55c0.438-0.432,0.988-0.643,1.67-0.647l18.462-0.09c0.678-0.003,1.187,0.19,1.525,0.567
		C206.798,367.08,206.967,367.532,206.969,368.041"/>
	<path clip-path="url(#SVGID_2_)" fill="#FFFFFF" d="M288.641,425.176c0.035,7.357-0.933,13.414-2.875,18.159
		c-1.934,4.747-4.563,8.529-7.885,11.322c-3.325,2.778-7.214,4.76-11.697,5.883c-4.475,1.141-9.298,1.722-14.412,1.746
		c-5.121,0.025-9.934-0.509-14.421-1.604c-4.491-1.081-8.407-3.024-11.763-5.77c-3.339-2.762-5.991-6.518-7.938-11.245
		c-1.936-4.728-2.924-10.773-2.96-18.132l-0.277-57.011c-0.004-0.687,0.241-1.275,0.754-1.744c0.52-0.456,1.102-0.706,1.803-0.71
		l16.777-0.081c0.681-0.004,1.292,0.241,1.806,0.692c0.512,0.463,0.769,1.049,0.771,1.737l0.278,57.01
		c0.015,3.257,0.267,6.063,0.744,8.407c0.487,2.349,1.292,4.266,2.447,5.753c1.174,1.487,2.712,2.595,4.64,3.313
		c1.924,0.721,4.341,1.071,7.248,1.057c2.896-0.014,5.322-0.388,7.239-1.128c1.917-0.735,3.456-1.858,4.598-3.356
		c1.14-1.499,1.975-3.423,2.472-5.776c0.501-2.35,0.741-5.158,0.726-8.415l-0.277-57.011c-0.003-0.687,0.258-1.276,0.764-1.744
		c0.504-0.456,1.092-0.706,1.793-0.71l16.669-0.081c0.669-0.003,1.289,0.242,1.852,0.692c0.558,0.463,0.844,1.049,0.848,1.737
		L288.641,425.176z"/>
	<path clip-path="url(#SVGID_2_)" fill="#FFFFFF" d="M350.647,395.147c-0.023-4.609-1.429-7.875-4.222-9.783
		c-2.783-1.906-6.859-2.845-12.246-2.819c-0.424,0.002-1.147,0.032-2.181,0.076c-1.017,0.041-2.065,0.098-3.126,0.142
		c-1.075,0.048-2.104,0.092-3.083,0.133c-0.988,0.06-1.643,0.086-1.981,0.087l0.127,26.131c0.339-0.002,0.993,0.021,1.982,0.07
		c0.979,0.032,2.041,0.078,3.189,0.112c1.17,0.034,2.239,0.041,3.221,0.037l1.982-0.01c5.722-0.028,9.898-1.114,12.474-3.256
		c2.601-2.154,3.889-5.405,3.868-9.75L350.647,395.147z M372.567,396.212c0.028,5.969-1.039,10.959-3.207,14.928
		c-2.155,3.985-5.035,7.178-8.622,9.611c-3.585,2.394-7.668,4.099-12.25,5.105c-4.579,1.011-9.269,1.529-14.058,1.553
		c-1.542,0.007-3.267-0.037-5.142-0.109c-1.892-0.066-3.639-0.147-5.267-0.248l0.151,31.157c0.003,0.688-0.252,1.289-0.771,1.797
		c-0.509,0.521-1.108,0.768-1.786,0.772l-16.525,0.08c-0.691,0.003-1.286-0.213-1.803-0.68c-0.528-0.464-0.775-1.05-0.778-1.736
		l-0.419-86.125c-0.011-2.21,0.461-3.719,1.38-4.486c0.936-0.774,2.394-1.339,4.373-1.697c3.235-0.521,7.243-0.945,11.992-1.268
		c4.745-0.316,9.423-0.496,14.065-0.518c4.874-0.024,9.626,0.419,14.254,1.345c4.627,0.923,8.75,2.563,12.354,4.935
		c3.608,2.385,6.505,5.54,8.702,9.513c2.204,3.948,3.32,8.927,3.35,14.9L372.567,396.212z"/>
	<path clip-path="url(#SVGID_2_)" fill="#FFFFFF" d="M260.216,380.387c0.003,0.688-0.268,1.286-0.816,1.794
		c-0.562,0.511-1.18,0.785-1.86,0.788l-12.043,0.059c-0.695,0.003-1.315-0.265-1.928-0.77c-0.6-0.503-0.911-1.098-0.914-1.786
		l-0.06-11.928c-0.003-0.675,0.304-1.277,0.898-1.798c0.606-0.508,1.226-0.756,1.92-0.759l12.043-0.059
		c0.681-0.003,1.302,0.239,1.868,0.741c0.554,0.516,0.831,1.114,0.834,1.789L260.216,380.387z"/>
	<path clip-path="url(#SVGID_2_)" fill="#FFFFFF" d="M260.319,401.686c0.003,0.676-0.268,1.289-0.815,1.801
		c-0.563,0.518-1.181,0.781-1.861,0.784l-12.043,0.06c-0.695,0.003-1.315-0.254-1.927-0.767c-0.601-0.506-0.912-1.117-0.915-1.793
		l-0.059-11.915c-0.004-0.688,0.303-1.27,0.897-1.798c0.606-0.518,1.226-0.769,1.92-0.772l12.043-0.059
		c0.681-0.003,1.302,0.242,1.868,0.754c0.554,0.522,0.831,1.101,0.834,1.789L260.319,401.686z"/>
	<path clip-path="url(#SVGID_2_)" fill="#FFFFFF" d="M373.27,540.364l-0.303-62.263c-0.004-0.485-0.188-0.893-0.552-1.224
		c-0.367-0.331-0.791-0.494-1.273-0.491l-10.709,0.052c-0.486,0.002-0.906,0.17-1.27,0.505c-0.36,0.334-0.541,0.742-0.539,1.228
		l0.188,38.393c0.003,0.544-0.146,0.814-0.449,0.816c-0.183,0.001-0.425-0.238-0.731-0.72l-21.691-37.29
		c-0.549-0.965-1.097-1.673-1.645-2.124c-0.546-0.454-1.274-0.675-2.181-0.671l-9.167,0.045c-0.969,0.005-1.782,0.341-2.444,1.01
		c-0.665,0.668-0.993,1.488-0.988,2.456l0.303,62.171c0.002,0.482,0.186,0.905,0.55,1.267c0.367,0.363,0.788,0.54,1.274,0.538
		l10.71-0.052c0.485-0.004,0.909-0.185,1.269-0.552c0.36-0.363,0.54-0.788,0.538-1.271l-0.179-36.758
		c-0.002-0.486,0.146-0.729,0.45-0.729c0.24-0.001,0.516,0.239,0.821,0.723l20.866,35.657c0.733,1.209,1.463,1.979,2.189,2.305
		c0.728,0.331,1.576,0.49,2.545,0.485l8.894-0.043c0.968-0.005,1.798-0.338,2.492-1.01
		C372.929,542.149,373.273,541.332,373.27,540.364 M292.459,515.252l-13.522,0.066l5.414-25.078
		c0.178-0.907,0.596-1.366,1.265-1.369c0.42-0.002,0.695,0.104,0.816,0.315c0.122,0.212,0.244,0.56,0.37,1.042L292.459,515.252z
		 M314.419,542.463c-0.029-0.059-0.047-0.149-0.047-0.271l-13.797-56.207c-0.555-2.176-1.349-3.926-2.386-5.251
		c-1.033-1.325-2.235-2.333-3.598-3.024c-1.366-0.688-2.819-1.149-4.365-1.384c-1.544-0.233-3.104-0.35-4.674-0.342
		c-1.575,0.007-3.149,0.139-4.72,0.388c-1.572,0.249-3.038,0.726-4.394,1.426c-1.36,0.705-2.548,1.725-3.572,3.06
		c-1.022,1.335-1.801,3.093-2.334,5.273l-13.25,56.34c0.001,0.12-0.012,0.212-0.044,0.271c-0.029,0.063-0.045,0.124-0.045,0.182
		c0.005,0.97,0.522,1.449,1.552,1.444l12.705-0.062c0.486-0.002,0.877-0.154,1.178-0.459c0.303-0.302,0.513-0.697,0.631-1.184
		l3.194-14.898l18.605-0.09l3.342,14.865c0.123,0.486,0.334,0.879,0.639,1.179c0.305,0.301,0.7,0.448,1.183,0.446l12.708-0.062
		c1.026-0.005,1.54-0.49,1.534-1.458C314.465,542.586,314.448,542.524,314.419,542.463 M262.014,487.988l-0.046-9.347
		c-0.003-0.485-0.203-0.893-0.597-1.224c-0.396-0.33-0.837-0.494-1.318-0.491l-45.017,0.219c-0.486,0.002-0.909,0.171-1.269,0.505
		c-0.361,0.334-0.541,0.743-0.539,1.228l0.046,9.348c0.002,0.485,0.187,0.893,0.55,1.223c0.364,0.331,0.788,0.495,1.274,0.493
		l14.792-0.072l0.257,52.824c0.002,0.483,0.187,0.906,0.551,1.266c0.367,0.363,0.788,0.54,1.274,0.538l11.89-0.058
		c0.485-0.002,0.908-0.185,1.268-0.55c0.36-0.364,0.541-0.789,0.539-1.271l-0.257-52.825l14.703-0.07
		c0.483-0.002,0.922-0.171,1.315-0.505C261.818,488.882,262.016,488.475,262.014,487.988 M219.435,542.289l-0.041-8.44
		c-0.002-0.482-0.188-0.905-0.55-1.266c-0.364-0.363-0.789-0.541-1.274-0.539l-15.61,0.076c-2.119,0.011-3.618-0.422-4.499-1.295
		c-0.881-0.873-1.329-2.491-1.341-4.848l-0.228-46.923c-0.002-0.486-0.184-0.909-0.55-1.27c-0.364-0.363-0.789-0.541-1.275-0.538
		l-11.889,0.059c-0.483,0.002-0.906,0.183-1.266,0.55c-0.363,0.364-0.54,0.789-0.538,1.273l0.228,46.925
		c0.02,4.113,0.639,7.452,1.861,10.019c1.226,2.566,2.853,4.541,4.887,5.92c2.031,1.382,4.396,2.31,7.092,2.779
		c2.695,0.472,5.496,0.7,8.398,0.686c1.213-0.006,2.51-0.045,3.905-0.109c1.389-0.069,2.767-0.164,4.126-0.291
		c1.362-0.132,2.646-0.257,3.855-0.385c1.212-0.126,2.18-0.28,2.903-0.467C218.836,543.958,219.439,543.319,219.435,542.289
		 M170.857,519.473l-0.197-40.388c-0.002-0.484-0.203-0.892-0.596-1.223c-0.396-0.33-0.833-0.494-1.319-0.492l-11.799,0.058
		c-0.485,0.003-0.905,0.171-1.269,0.505c-0.36,0.335-0.54,0.742-0.538,1.229l0.196,40.386c0.012,2.303-0.158,4.282-0.515,5.95
		c-0.354,1.664-0.937,3.03-1.747,4.09c-0.814,1.063-1.899,1.858-3.259,2.376c-1.357,0.522-3.067,0.788-5.124,0.799
		c-2.057,0.01-3.767-0.239-5.132-0.748c-1.362-0.505-2.455-1.289-3.278-2.345c-0.821-1.053-1.404-2.413-1.745-4.073
		c-0.341-1.664-0.516-3.643-0.528-5.944l-0.196-40.386c-0.002-0.486-0.187-0.894-0.55-1.225c-0.364-0.33-0.789-0.495-1.274-0.492
		l-11.89,0.059c-0.483,0.002-0.906,0.17-1.266,0.505c-0.363,0.334-0.541,0.742-0.538,1.228l0.196,40.388
		c0.025,5.206,0.724,9.479,2.103,12.835c1.38,3.351,3.251,6.002,5.621,7.957c2.37,1.957,5.144,3.319,8.323,4.09
		c3.183,0.77,6.588,1.147,10.217,1.13c3.632-0.017,7.033-0.428,10.205-1.229c3.175-0.803,5.936-2.191,8.287-4.172
		c2.347-1.978,4.209-4.646,5.588-8.012C170.205,528.959,170.882,524.679,170.857,519.473 M108.713,515.963
		c-1.739-3.017-4.974-5.785-9.707-8.302l-11.646-6.206c-1.216-0.66-2.217-1.245-3.005-1.756c-0.788-0.508-1.413-0.991-1.869-1.442
		c-0.455-0.453-0.774-0.919-0.958-1.403c-0.185-0.481-0.279-1.056-0.283-1.724c-0.008-1.633,0.518-2.845,1.574-3.636
		c1.052-0.791,2.882-1.194,5.484-1.207c1.513-0.007,3.251,0.03,5.22,0.108c1.966,0.082,3.887,0.18,5.762,0.292
		c1.879,0.11,3.558,0.207,5.042,0.291c1.481,0.085,2.554,0.158,3.222,0.213l0.183-0.001c0.603-0.003,1.01-0.155,1.22-0.459
		c0.211-0.304,0.316-0.667,0.314-1.09l-0.044-9.168c-0.003-0.486-0.141-0.848-0.413-1.087c-0.275-0.24-0.592-0.422-0.958-0.54
		c-0.849-0.237-2.03-0.477-3.544-0.709c-1.514-0.234-3.148-0.438-4.903-0.612s-3.588-0.315-5.492-0.427
		c-1.908-0.111-3.679-0.165-5.312-0.157c-4.418,0.021-8.106,0.493-11.065,1.417c-2.962,0.921-5.346,2.19-7.151,3.8
		c-1.808,1.613-3.086,3.497-3.832,5.646c-0.746,2.151-1.113,4.469-1.101,6.949c0.008,1.634,0.182,3.221,0.525,4.761
		c0.337,1.544,0.921,3.038,1.743,4.487c0.826,1.447,1.921,2.833,3.291,4.157c1.366,1.327,3.113,2.616,5.235,3.877l12.562,7.382
		c2.367,1.38,3.96,2.537,4.783,3.473c0.819,0.935,1.236,2.066,1.242,3.396c0.011,2.178-0.542,3.785-1.655,4.817
		c-1.117,1.036-3.246,1.561-6.392,1.576c-0.907,0.005-2.133-0.035-3.679-0.119c-1.542-0.083-3.163-0.167-4.855-0.25
		c-1.696-0.083-3.346-0.18-4.948-0.292c-1.604-0.113-2.86-0.228-3.767-0.345l-0.274,0.003c-0.485,0.002-0.876,0.125-1.178,0.366
		c-0.302,0.243-0.45,0.697-0.447,1.362l0.044,8.897c0.002,0.482,0.187,0.876,0.55,1.178c0.363,0.301,0.788,0.511,1.274,0.629
		c2.302,0.592,4.828,1.066,7.584,1.414c2.757,0.349,5.949,0.516,9.578,0.498c4.6-0.022,8.467-0.631,11.61-1.827
		c3.141-1.195,5.689-2.733,7.646-4.621c1.957-1.884,3.355-4.01,4.191-6.374c0.833-2.362,1.245-4.753,1.233-7.176
		C111.329,522.334,110.452,518.98,108.713,515.963"/>
</g>
<g>
	<path fill="#FFFFFF" d="M64.576,184.653c0.01,0.532,0.001,1.239-0.027,2.123c-0.027,0.883-0.15,2.136-0.369,3.759
		c-0.13,0.961-0.335,1.875-0.614,2.737c-0.279,0.864-0.694,1.602-1.247,2.215c-0.552,0.613-1.28,1.063-2.187,1.352
		c-0.905,0.288-2.039,0.34-3.402,0.156l-9.975-1.346c-1.362-0.184-2.438-0.534-3.225-1.05c-0.786-0.517-1.364-1.144-1.734-1.881
		c-0.37-0.738-0.574-1.564-0.613-2.481c-0.04-0.916,0.006-1.856,0.136-2.817c0.107-0.801,0.218-1.505,0.33-2.112
		c0.113-0.607,0.221-1.138,0.322-1.594c0.103-0.455,0.196-0.845,0.28-1.17c0.085-0.325,0.165-0.615,0.24-0.87
		c0.114-0.393,0.342-0.566,0.683-0.52l2.794,0.377c0.16,0.022,0.292,0.101,0.396,0.238c0.104,0.136,0.145,0.284,0.123,0.444
		l-0.823,6.1c-0.095,0.702-0.016,1.217,0.234,1.546c0.252,0.33,0.768,0.547,1.55,0.652l2.734,0.369l1.05-7.782
		c0.021-0.16,0.101-0.292,0.236-0.396c0.137-0.104,0.286-0.145,0.445-0.123l2.854,0.385c0.161,0.021,0.292,0.1,0.397,0.236
		c0.104,0.137,0.145,0.285,0.123,0.445l-1.051,7.782l3.185,0.43c0.782,0.105,1.338,0.033,1.667-0.218
		c0.33-0.251,0.542-0.727,0.637-1.429l0.822-6.1c0.022-0.16,0.102-0.292,0.237-0.396c0.137-0.104,0.285-0.146,0.445-0.124
		l2.795,0.377C64.387,184.016,64.569,184.244,64.576,184.653z"/>
</g>
<g>
	<path fill="#FFFFFF" d="M48.865,155.363c0.099,0.026,0.164,0.054,0.197,0.083l8.966,7.116c0.606,0.475,1.033,0.913,1.282,1.313
		c0.25,0.401,0.405,0.798,0.469,1.191l8.146,2.162c0.156,0.042,0.277,0.137,0.363,0.285c0.086,0.148,0.108,0.301,0.067,0.457
		l-1.019,3.839c-0.042,0.156-0.137,0.277-0.285,0.363c-0.148,0.086-0.3,0.109-0.457,0.067l-8.146-2.162
		c-0.25,0.311-0.583,0.583-1.002,0.817c-0.417,0.234-1.006,0.407-1.768,0.519l-11.314,1.734c-0.044,0.009-0.114,0.001-0.213-0.025
		c-0.117-0.031-0.21-0.098-0.276-0.199c-0.067-0.102-0.08-0.23-0.038-0.386l1.119-4.22c0.042-0.156,0.124-0.271,0.247-0.342
		c0.125-0.072,0.26-0.108,0.407-0.112l9.104-0.972c0.216-0.026,0.356-0.063,0.421-0.108c0.064-0.045,0.109-0.117,0.136-0.215
		c0.025-0.097,0.021-0.182-0.012-0.253s-0.137-0.172-0.312-0.303l-7.424-5.358c-0.127-0.076-0.226-0.175-0.298-0.299
		c-0.071-0.124-0.086-0.263-0.045-0.419l1.12-4.22c0.041-0.156,0.116-0.262,0.226-0.317
		C48.635,155.344,48.748,155.332,48.865,155.363z"/>
</g>
<g>
	<path fill="#FFFFFF" d="M52.202,138.848c0.148,0.064,0.252,0.181,0.312,0.35c0.059,0.168,0.057,0.327-0.008,0.476l-1.129,2.617
		c-0.064,0.149-0.18,0.263-0.348,0.345s-0.324,0.091-0.474,0.026l-2.589-1.117c-0.148-0.064-0.25-0.185-0.306-0.363
		c-0.056-0.178-0.051-0.341,0.014-0.489l1.13-2.617c0.063-0.148,0.178-0.259,0.341-0.331s0.319-0.077,0.468-0.013L52.202,138.848z
		 M54.81,132.808c0.148,0.064,0.25,0.185,0.306,0.362c0.055,0.179,0.051,0.342-0.014,0.49l-1.129,2.617
		c-0.064,0.148-0.178,0.258-0.342,0.331s-0.318,0.077-0.468,0.013l-2.589-1.118c-0.148-0.064-0.252-0.18-0.312-0.349
		s-0.057-0.327,0.007-0.476l1.13-2.617c0.064-0.148,0.18-0.263,0.348-0.346c0.167-0.081,0.325-0.09,0.474-0.026L54.81,132.808z
		 M71.243,136.202c1.596,0.689,2.816,1.47,3.662,2.341c0.846,0.872,1.415,1.799,1.705,2.783c0.291,0.984,0.347,2.016,0.167,3.094
		c-0.18,1.078-0.51,2.174-0.99,3.288s-1.052,2.105-1.713,2.976c-0.662,0.87-1.451,1.537-2.367,2
		c-0.914,0.463-1.979,0.681-3.188,0.655c-1.21-0.027-2.613-0.385-4.209-1.074l-12.388-5.348c-0.148-0.063-0.249-0.174-0.304-0.329
		c-0.054-0.155-0.049-0.307,0.016-0.456l1.574-3.646c0.063-0.148,0.171-0.257,0.321-0.323c0.15-0.067,0.299-0.069,0.447-0.006
		l12.389,5.348c0.705,0.305,1.334,0.516,1.889,0.634c0.555,0.119,1.048,0.123,1.48,0.012c0.434-0.111,0.819-0.341,1.156-0.69
		c0.339-0.35,0.644-0.839,0.916-1.471c0.272-0.631,0.42-1.189,0.442-1.675c0.022-0.485-0.074-0.924-0.292-1.314
		c-0.216-0.391-0.555-0.752-1.018-1.083c-0.462-0.332-1.046-0.65-1.751-0.954l-12.388-5.347c-0.148-0.064-0.25-0.174-0.304-0.329
		s-0.049-0.307,0.015-0.456l1.563-3.618c0.064-0.148,0.174-0.262,0.327-0.338c0.154-0.077,0.306-0.083,0.454-0.02L71.243,136.202z"
		/>
</g>
<g>
	<path fill="#FFFFFF" d="M78.67,110.894c1.186,0.772,2.031,1.631,2.537,2.578c0.506,0.946,0.764,1.93,0.773,2.952
		s-0.184,2.051-0.58,3.086c-0.397,1.036-0.906,2.029-1.525,2.979c-0.199,0.306-0.429,0.64-0.689,1.002
		c-0.26,0.363-0.504,0.7-0.73,1.011l6.174,4.021c0.136,0.088,0.222,0.216,0.256,0.384c0.036,0.168,0.01,0.319-0.078,0.455
		l-2.135,3.277c-0.088,0.136-0.213,0.224-0.372,0.265c-0.159,0.041-0.306,0.017-0.442-0.071l-17.072-11.12
		c-0.441-0.287-0.676-0.573-0.707-0.858c-0.031-0.286,0.047-0.646,0.232-1.081c0.318-0.711,0.756-1.557,1.309-2.537
		c0.555-0.98,1.13-1.929,1.727-2.845c0.63-0.967,1.337-1.849,2.12-2.643c0.783-0.795,1.644-1.395,2.581-1.798
		c0.939-0.404,1.943-0.566,3.012-0.486c1.07,0.08,2.197,0.506,3.383,1.278L78.67,110.894z M75.612,115.089
		c-0.914-0.596-1.741-0.742-2.481-0.439c-0.739,0.302-1.457,0.986-2.151,2.054c-0.056,0.084-0.145,0.231-0.269,0.44
		s-0.25,0.422-0.381,0.639c-0.129,0.218-0.252,0.426-0.371,0.626c-0.117,0.201-0.2,0.334-0.244,0.402l5.184,3.375
		c0.044-0.067,0.134-0.196,0.27-0.385c0.135-0.189,0.281-0.396,0.439-0.619c0.156-0.223,0.299-0.432,0.426-0.626
		c0.127-0.194,0.212-0.326,0.256-0.394c0.739-1.135,1.064-2.098,0.979-2.891c-0.087-0.792-0.563-1.47-1.426-2.033L75.612,115.089z"
		/>
</g>
<g>
	<path fill="#FFFFFF" d="M99.703,99.12c0.607,0.534,1.114,1.167,1.519,1.9c0.405,0.733,0.627,1.554,0.664,2.46
		c0.037,0.908-0.144,1.886-0.541,2.935c-0.397,1.05-1.104,2.152-2.117,3.306c-0.801,0.911-1.551,1.673-2.248,2.283
		c-0.698,0.612-1.377,1.139-2.035,1.582c-0.138,0.095-0.283,0.155-0.44,0.179c-0.155,0.024-0.294-0.017-0.416-0.124l-2.231-1.961
		c-0.168-0.146-0.248-0.284-0.242-0.414c0.006-0.129,0.063-0.254,0.17-0.376l0.06-0.068c0.23-0.202,0.538-0.49,0.921-0.866
		c0.385-0.375,0.774-0.766,1.171-1.171c0.396-0.405,0.776-0.792,1.139-1.159c0.363-0.367,0.646-0.665,0.845-0.893
		c0.693-0.79,1.035-1.438,1.023-1.946c-0.011-0.507-0.289-1.001-0.836-1.481c-0.334-0.293-0.709-0.441-1.125-0.443
		c-0.415-0.001-1.057,0.14-1.928,0.425l-4.629,1.502c-0.786,0.252-1.496,0.401-2.131,0.449c-0.634,0.048-1.223,0.015-1.768-0.1
		c-0.545-0.116-1.047-0.301-1.508-0.558c-0.461-0.256-0.896-0.565-1.306-0.926c-0.622-0.547-1.12-1.151-1.492-1.816
		c-0.372-0.663-0.56-1.399-0.562-2.208c-0.002-0.809,0.21-1.686,0.636-2.63c0.426-0.944,1.126-1.97,2.101-3.079
		c0.359-0.41,0.765-0.841,1.216-1.292c0.45-0.452,0.892-0.877,1.325-1.278c0.432-0.4,0.846-0.763,1.239-1.09
		c0.395-0.326,0.716-0.568,0.963-0.728c0.11-0.064,0.226-0.104,0.347-0.119c0.121-0.016,0.242,0.031,0.363,0.137l2.301,2.021
		c0.105,0.093,0.174,0.2,0.203,0.32c0.029,0.121-0.023,0.256-0.156,0.408l-0.04,0.046c-0.162,0.154-0.418,0.406-0.767,0.758
		c-0.351,0.353-0.747,0.751-1.191,1.194c-0.443,0.444-0.895,0.903-1.35,1.376c-0.457,0.473-0.852,0.9-1.186,1.28
		c-0.574,0.653-0.879,1.199-0.915,1.638c-0.036,0.439,0.151,0.839,0.562,1.199c0.166,0.147,0.332,0.25,0.492,0.312
		c0.162,0.062,0.349,0.085,0.563,0.071c0.214-0.014,0.472-0.062,0.774-0.147c0.303-0.083,0.67-0.204,1.105-0.361l4.133-1.535
		c1.678-0.624,3.087-0.818,4.227-0.584C97.744,97.782,98.777,98.306,99.703,99.12z"/>
</g>
<g>
	<path fill="#FFFFFF" d="M118.747,84.445c0.375,1.155,0.477,2.239,0.303,3.25c-0.172,1.012-0.576,1.962-1.213,2.852
		c-0.637,0.888-1.416,1.727-2.338,2.514c-0.923,0.788-1.873,1.426-2.85,1.916c-0.979,0.489-1.98,0.74-3.006,0.752
		c-1.026,0.013-2.077-0.26-3.15-0.818c-1.074-0.558-2.177-1.498-3.306-2.819L94.427,81.83c-0.105-0.123-0.148-0.266-0.128-0.43
		c0.021-0.163,0.091-0.297,0.215-0.402l3.021-2.58c0.123-0.104,0.267-0.154,0.431-0.149c0.165,0.006,0.3,0.07,0.405,0.193
		l8.761,10.261c0.499,0.584,0.97,1.052,1.416,1.402c0.446,0.351,0.888,0.572,1.324,0.663c0.438,0.092,0.885,0.056,1.343-0.109
		c0.457-0.165,0.947-0.47,1.469-0.917c0.523-0.446,0.901-0.882,1.137-1.308c0.233-0.426,0.34-0.862,0.317-1.309
		c-0.022-0.446-0.167-0.919-0.437-1.421c-0.269-0.502-0.652-1.044-1.151-1.628l-8.761-10.261c-0.105-0.123-0.148-0.266-0.129-0.43
		c0.021-0.163,0.092-0.297,0.216-0.402l2.997-2.559c0.123-0.105,0.271-0.158,0.442-0.159c0.172,0,0.312,0.061,0.416,0.184
		l8.761,10.261C117.62,82.052,118.372,83.29,118.747,84.445z"/>
</g>
<g>
	<path fill="#FFFFFF" d="M137.97,75.939c-0.168,0.185-0.41,0.406-0.725,0.663c-0.313,0.258-0.648,0.529-1.006,0.815
		c-0.355,0.285-0.722,0.565-1.098,0.839s-0.732,0.524-1.068,0.748c-0.809,0.538-1.631,0.988-2.47,1.352
		c-0.839,0.363-1.668,0.54-2.489,0.527c-0.822-0.011-1.639-0.263-2.451-0.755c-0.813-0.491-1.599-1.309-2.359-2.454l-8.682-13.052
		c-0.09-0.134-0.118-0.286-0.085-0.454c0.034-0.168,0.118-0.297,0.253-0.387l3.307-2.2c0.135-0.09,0.287-0.118,0.455-0.084
		s0.297,0.118,0.387,0.252l8.682,13.052c0.436,0.656,0.857,1.026,1.264,1.107c0.406,0.082,0.904-0.073,1.494-0.465l4.342-2.888
		c0.135-0.09,0.285-0.118,0.454-0.084c0.168,0.035,0.297,0.119,0.387,0.253l1.562,2.348
		C138.313,75.359,138.262,75.648,137.97,75.939z"/>
</g>
<g>
	<path fill="#FFFFFF" d="M146.315,50.951c-0.068,0.158-0.174,0.273-0.318,0.347l-4.388,2.207l7.929,15.764
		c0.073,0.146,0.082,0.298,0.028,0.461c-0.054,0.163-0.153,0.281-0.297,0.354l-3.548,1.785c-0.145,0.073-0.299,0.082-0.462,0.027
		c-0.163-0.053-0.28-0.152-0.353-0.297l-7.93-15.764l-4.415,2.221c-0.145,0.073-0.296,0.086-0.454,0.042
		c-0.158-0.044-0.273-0.139-0.347-0.283l-1.403-2.79c-0.072-0.145-0.08-0.294-0.021-0.447c0.059-0.154,0.16-0.268,0.305-0.34
		l13.434-6.757c0.145-0.073,0.301-0.088,0.469-0.049c0.167,0.041,0.287,0.133,0.359,0.277l1.403,2.79
		C146.38,50.642,146.382,50.793,146.315,50.951z"/>
</g>
<g>
	<path fill="#FFFFFF" d="M174.637,59.397c0.109,0.305,0.002,0.515-0.321,0.63l-3.997,1.43c-0.152,0.055-0.293,0.052-0.422-0.01
		c-0.13-0.061-0.24-0.161-0.333-0.3l-2.702-4.314l-5.853,2.094l0.647,5.049c0.016,0.167-0.007,0.314-0.067,0.443
		c-0.062,0.129-0.168,0.221-0.32,0.275l-3.997,1.43c-0.323,0.116-0.539,0.021-0.648-0.284c-0.007-0.019-0.009-0.04-0.006-0.062
		c0.002-0.022-0.003-0.053-0.017-0.091l-2.077-19.222c-0.074-0.746-0.024-1.386,0.149-1.921c0.175-0.534,0.437-0.988,0.786-1.359
		c0.35-0.372,0.759-0.685,1.227-0.938c0.467-0.253,0.948-0.468,1.443-0.645c0.494-0.177,0.998-0.314,1.511-0.412
		s1.022-0.113,1.528-0.047c0.508,0.065,0.996,0.25,1.471,0.553c0.473,0.303,0.918,0.766,1.334,1.39l10.585,16.179
		c0.014,0.038,0.028,0.065,0.044,0.081C174.619,59.361,174.631,59.378,174.637,59.397z M160.104,45.952
		c-0.093-0.139-0.17-0.235-0.232-0.288c-0.062-0.053-0.159-0.056-0.292-0.008c-0.21,0.075-0.292,0.265-0.247,0.571l1.077,8.502
		l4.254-1.521L160.104,45.952z"/>
</g>
<g>
	<path fill="#FFFFFF" d="M197.554,54.971c-0.191,0.259-0.447,0.415-0.766,0.469l-2.93,0.5c-0.318,0.055-0.606,0.047-0.864-0.022
		c-0.258-0.068-0.54-0.281-0.848-0.639l-8.823-10.612c-0.128-0.143-0.23-0.207-0.311-0.193c-0.1,0.017-0.136,0.105-0.108,0.265
		l2.065,12.104c0.027,0.16-0.009,0.309-0.107,0.449c-0.1,0.14-0.229,0.224-0.388,0.251l-3.527,0.602
		c-0.159,0.027-0.309-0.009-0.448-0.108c-0.141-0.099-0.224-0.228-0.251-0.388l-3.494-20.473c-0.055-0.318,0.009-0.606,0.19-0.863
		c0.183-0.256,0.433-0.412,0.752-0.466l3.018-0.515c0.299-0.051,0.551-0.017,0.756,0.102c0.205,0.118,0.424,0.322,0.658,0.61
		l9.185,11.104c0.127,0.143,0.221,0.208,0.28,0.198c0.1-0.017,0.134-0.115,0.104-0.294l-2.158-12.643
		c-0.027-0.159,0.01-0.305,0.11-0.435c0.101-0.129,0.231-0.208,0.391-0.235l3.526-0.602c0.16-0.027,0.309,0.004,0.447,0.092
		c0.138,0.09,0.221,0.214,0.248,0.374l3.499,20.502C197.814,54.425,197.745,54.713,197.554,54.971z"/>
</g>
<text transform="matrix(0.9977 -0.0681 0.0681 0.9977 203.0947 54.7451)" fill="#FFFFFF" font-family="'NeoSansPro-Bold'" font-size="30.3198"> </text>
<g>
	<path fill="#FFFFFF" d="M236.43,54.82c-0.113,0.054-0.23,0.077-0.352,0.07l-3.997-0.234c-0.141-0.008-0.255-0.075-0.337-0.202
		c-0.084-0.126-0.121-0.27-0.111-0.431l0.738-12.622c0.01-0.161-0.037-0.245-0.139-0.251c-0.08-0.005-0.165,0.061-0.254,0.197
		l-3.016,4.835c-0.221,0.331-0.535,0.485-0.938,0.462l-2.422-0.142c-0.403-0.023-0.696-0.213-0.876-0.568l-2.432-5.153
		c-0.074-0.146-0.15-0.221-0.232-0.226c-0.1-0.006-0.154,0.071-0.164,0.232L221.16,53.41c-0.01,0.162-0.063,0.301-0.161,0.416
		c-0.099,0.116-0.217,0.169-0.359,0.161l-3.995-0.234c-0.121-0.007-0.236-0.043-0.343-0.11c-0.107-0.067-0.156-0.182-0.146-0.343
		l1.231-21.036c0.019-0.322,0.134-0.569,0.347-0.739c0.212-0.17,0.48-0.246,0.802-0.227l2.847,0.166
		c0.604,0.036,1.03,0.334,1.284,0.896l4.126,8.897c0.105,0.27,0.208,0.407,0.308,0.413c0.082,0.005,0.201-0.12,0.357-0.374
		l5.135-8.355c0.314-0.528,0.775-0.775,1.38-0.739l2.847,0.166c0.321,0.019,0.58,0.131,0.77,0.334
		c0.191,0.204,0.275,0.467,0.256,0.789l-1.229,21.007C236.605,54.658,236.545,54.766,236.43,54.82z"/>
</g>
<g>
	<path fill="#FFFFFF" d="M261.057,55.713c-0.713,0.983-1.529,1.703-2.449,2.158c-0.918,0.456-1.926,0.688-3.018,0.697
		c-1.094,0.009-2.23-0.127-3.41-0.409c-1.18-0.281-2.254-0.674-3.225-1.176c-0.973-0.502-1.766-1.164-2.379-1.986
		s-1.012-1.832-1.193-3.028s-0.07-2.641,0.334-4.331l3.135-13.123c0.037-0.157,0.128-0.276,0.271-0.356
		c0.145-0.079,0.294-0.101,0.451-0.063l3.863,0.923c0.158,0.038,0.283,0.125,0.375,0.261c0.092,0.137,0.119,0.283,0.081,0.44
		l-3.136,13.123c-0.178,0.747-0.277,1.404-0.299,1.971c-0.02,0.566,0.061,1.054,0.244,1.461c0.183,0.407,0.477,0.747,0.879,1.021
		c0.401,0.272,0.938,0.488,1.605,0.648c0.668,0.159,1.244,0.209,1.727,0.147s0.896-0.232,1.244-0.513
		c0.348-0.281,0.646-0.678,0.893-1.19c0.246-0.513,0.459-1.142,0.639-1.889l3.135-13.123c0.037-0.157,0.128-0.276,0.272-0.356
		c0.144-0.08,0.293-0.102,0.45-0.063l3.834,0.916c0.158,0.037,0.287,0.126,0.39,0.265c0.102,0.139,0.134,0.286,0.096,0.443
		l-3.136,13.123C262.327,53.393,261.77,54.729,261.057,55.713z"/>
</g>
<g>
	<path fill="#FFFFFF" d="M284.051,68.216c-0.299,0.119-0.598,0.118-0.898-0.003l-2.754-1.11c-0.301-0.121-0.543-0.278-0.727-0.473
		c-0.184-0.193-0.311-0.522-0.386-0.988l-1.946-13.664c-0.033-0.188-0.088-0.297-0.164-0.327c-0.094-0.038-0.17,0.019-0.23,0.169
		l-4.589,11.39c-0.061,0.15-0.169,0.259-0.327,0.325c-0.158,0.067-0.313,0.07-0.463,0.011l-3.318-1.337
		c-0.15-0.061-0.258-0.17-0.324-0.328c-0.068-0.158-0.072-0.312-0.012-0.462l7.763-19.264c0.12-0.3,0.325-0.512,0.616-0.635
		c0.287-0.123,0.584-0.124,0.883-0.004l2.841,1.146c0.28,0.112,0.478,0.274,0.589,0.482c0.113,0.209,0.193,0.497,0.24,0.865
		l1.997,14.271c0.034,0.188,0.077,0.293,0.136,0.316c0.092,0.037,0.174-0.028,0.241-0.197l4.794-11.896
		c0.061-0.149,0.167-0.253,0.32-0.312c0.154-0.058,0.307-0.057,0.457,0.004l3.318,1.337c0.15,0.061,0.26,0.165,0.331,0.313
		s0.075,0.298,0.016,0.447l-7.774,19.293C284.56,67.887,284.35,68.097,284.051,68.216z"/>
</g>
<g>
	<path fill="#FFFFFF" d="M295.131,74.411c-0.156,0.052-0.305,0.039-0.446-0.039l-3.557-1.966c-0.142-0.078-0.228-0.194-0.256-0.35
		c-0.03-0.154-0.007-0.303,0.071-0.445l10.325-18.682c0.186-0.335,0.438-0.415,0.756-0.239l3.557,1.966
		c0.335,0.185,0.411,0.446,0.226,0.781l-10.325,18.682C295.402,74.262,295.286,74.358,295.131,74.411z"/>
</g>
<g>
	<path fill="#FFFFFF" d="M312.744,85.757c-0.143,0.008-0.322-0.028-0.538-0.109c-0.322-0.107-0.845-0.349-1.572-0.724
		c-0.726-0.374-1.524-0.876-2.392-1.503c-0.936-0.674-1.746-1.459-2.434-2.354c-0.688-0.896-1.146-1.893-1.373-2.993
		c-0.229-1.1-0.188-2.297,0.125-3.593c0.313-1.295,0.994-2.672,2.048-4.131l2.236-3.098c1.053-1.458,2.145-2.539,3.276-3.243
		c1.131-0.704,2.252-1.117,3.361-1.238s2.197,0.003,3.264,0.374s2.066,0.895,3.001,1.568c0.868,0.627,1.595,1.227,2.179,1.799
		s0.977,0.994,1.181,1.266c0.144,0.18,0.237,0.336,0.28,0.467c0.041,0.131-0.002,0.287-0.133,0.469l-1.732,2.4
		c-0.238,0.329-0.514,0.381-0.824,0.156l-0.074-0.053c-0.451-0.377-0.976-0.817-1.57-1.321c-0.596-0.505-1.237-1.005-1.926-1.502
		c-0.426-0.308-0.868-0.534-1.324-0.677c-0.459-0.145-0.941-0.156-1.451-0.039c-0.508,0.117-1.032,0.387-1.571,0.806
		c-0.54,0.419-1.104,1.038-1.694,1.855l-2.23,3.091c-0.591,0.817-1,1.547-1.229,2.191c-0.229,0.644-0.318,1.226-0.27,1.746
		c0.049,0.52,0.213,0.975,0.494,1.363c0.279,0.389,0.633,0.736,1.059,1.045c0.688,0.496,1.365,0.948,2.032,1.354
		c0.666,0.405,1.249,0.765,1.748,1.075l0.073,0.053c0.312,0.225,0.35,0.502,0.113,0.829l-1.722,2.385
		C313.025,85.653,312.888,85.747,312.744,85.757z"/>
</g>
<g>
	<path fill="#FFFFFF" d="M321.459,93.44c-0.164,0.018-0.307-0.027-0.428-0.134l-3.053-2.683c-0.121-0.106-0.18-0.238-0.175-0.396
		c0.004-0.158,0.06-0.297,0.166-0.419l14.089-16.034c0.254-0.289,0.518-0.313,0.79-0.072l3.053,2.682
		c0.288,0.253,0.306,0.524,0.052,0.813l-14.089,16.035C321.758,93.353,321.622,93.422,321.459,93.44z"/>
</g>
<g>
	<path fill="#FFFFFF" d="M349.43,100.714c-1.055,0.943-2.104,1.537-3.148,1.779s-2.063,0.236-3.051-0.021
		c-0.99-0.256-1.934-0.71-2.83-1.362s-1.724-1.402-2.48-2.247c-0.244-0.272-0.508-0.58-0.789-0.925
		c-0.283-0.346-0.545-0.67-0.787-0.97l-5.486,4.917c-0.121,0.108-0.268,0.157-0.438,0.148c-0.172-0.01-0.311-0.074-0.42-0.195
		l-2.609-2.912c-0.108-0.121-0.161-0.264-0.159-0.428c0.001-0.165,0.063-0.301,0.183-0.409l15.175-13.597
		c0.392-0.352,0.729-0.504,1.013-0.46c0.284,0.044,0.611,0.214,0.982,0.507c0.605,0.492,1.308,1.133,2.111,1.922
		c0.802,0.791,1.568,1.593,2.299,2.406c0.77,0.859,1.438,1.771,2.001,2.734c0.563,0.962,0.919,1.949,1.065,2.961
		c0.146,1.01,0.042,2.022-0.314,3.033c-0.355,1.013-1.061,1.99-2.113,2.935L349.43,100.714z M346.173,96.67
		c0.813-0.729,1.169-1.488,1.069-2.282c-0.1-0.792-0.574-1.662-1.424-2.611c-0.068-0.075-0.186-0.199-0.355-0.373
		s-0.343-0.352-0.518-0.533c-0.177-0.182-0.347-0.355-0.509-0.521c-0.163-0.166-0.271-0.279-0.325-0.34l-4.606,4.127
		c0.054,0.061,0.154,0.181,0.303,0.361c0.147,0.18,0.308,0.374,0.483,0.584c0.174,0.21,0.34,0.402,0.494,0.575
		c0.155,0.173,0.26,0.289,0.314,0.35c0.903,1.009,1.749,1.574,2.537,1.695c0.787,0.122,1.564-0.161,2.333-0.849L346.173,96.67z"/>
</g>
<g>
	<path fill="#FFFFFF" d="M351.237,128.626c-0.27,0.18-0.499,0.125-0.69-0.16l-2.351-3.535c-0.09-0.135-0.12-0.271-0.092-0.412
		c0.028-0.14,0.099-0.271,0.21-0.395l3.536-3.662l-3.442-5.176l-4.745,1.846c-0.157,0.056-0.306,0.069-0.445,0.041
		c-0.142-0.028-0.255-0.109-0.345-0.244l-2.352-3.533c-0.189-0.287-0.15-0.52,0.119-0.699c0.016-0.011,0.035-0.018,0.059-0.021
		c0.022-0.001,0.051-0.014,0.084-0.037l18.154-6.65c0.706-0.252,1.34-0.357,1.9-0.318c0.561,0.041,1.063,0.186,1.51,0.436
		c0.443,0.25,0.846,0.57,1.205,0.963c0.357,0.394,0.682,0.809,0.974,1.247c0.291,0.437,0.546,0.894,0.765,1.366
		c0.218,0.475,0.355,0.965,0.414,1.473s-0.003,1.027-0.183,1.559c-0.18,0.533-0.522,1.076-1.026,1.631l-13.149,14.174
		c-0.034,0.023-0.057,0.044-0.067,0.063C351.268,128.6,351.254,128.614,351.237,128.626z M360.781,111.278
		c0.112-0.123,0.188-0.221,0.224-0.295c0.036-0.071,0.015-0.168-0.063-0.285c-0.123-0.186-0.327-0.219-0.613-0.102l-7.992,3.096
		l2.502,3.762L360.781,111.278z"/>
</g>
<g>
	<path fill="#FFFFFF" d="M359.087,144.29c-0.164-0.189-0.354-0.456-0.571-0.799c-0.219-0.343-0.447-0.708-0.688-1.096
		c-0.24-0.389-0.475-0.786-0.701-1.192c-0.228-0.406-0.432-0.789-0.613-1.15c-0.437-0.867-0.783-1.739-1.044-2.615
		c-0.26-0.876-0.334-1.721-0.223-2.535c0.11-0.813,0.459-1.594,1.045-2.342c0.586-0.747,1.492-1.43,2.72-2.047l14.004-7.045
		c0.145-0.072,0.298-0.082,0.461-0.027c0.163,0.054,0.28,0.152,0.354,0.297l1.785,3.549c0.072,0.145,0.082,0.298,0.027,0.461
		c-0.054,0.162-0.152,0.28-0.297,0.354l-14.004,7.044c-0.704,0.354-1.121,0.728-1.251,1.122c-0.13,0.393-0.036,0.906,0.282,1.538
		l2.344,4.659c0.072,0.144,0.082,0.297,0.027,0.461c-0.054,0.162-0.153,0.279-0.298,0.353l-2.519,1.267
		C359.62,144.699,359.34,144.614,359.087,144.29z"/>
</g>
<g>
	<path fill="#FFFFFF" d="M363.481,154.882c-0.153-0.06-0.259-0.166-0.317-0.316l-1.463-3.791c-0.058-0.151-0.049-0.295,0.029-0.433
		c0.076-0.139,0.189-0.236,0.341-0.295l19.915-7.683c0.357-0.138,0.603-0.037,0.732,0.302l1.463,3.791
		c0.138,0.357,0.028,0.605-0.33,0.744l-19.914,7.683C363.786,154.942,363.635,154.941,363.481,154.882z"/>
</g>
<g>
	<path fill="#FFFFFF" d="M387.482,171.724c-0.14-0.101-0.229-0.229-0.268-0.386l-1.188-4.767l-17.123,4.267
		c-0.157,0.039-0.309,0.015-0.455-0.073c-0.148-0.089-0.241-0.212-0.28-0.368l-0.96-3.854c-0.039-0.157-0.015-0.309,0.074-0.456
		c0.088-0.146,0.21-0.239,0.367-0.278l17.123-4.268l-1.195-4.795c-0.039-0.157-0.02-0.308,0.059-0.453
		c0.078-0.144,0.196-0.235,0.354-0.274l3.029-0.755c0.157-0.039,0.305-0.014,0.441,0.076c0.138,0.092,0.226,0.215,0.265,0.372
		l3.637,14.593c0.039,0.156,0.021,0.313-0.056,0.467s-0.192,0.252-0.35,0.291l-3.029,0.755
		C387.771,171.855,387.621,171.824,387.482,171.724z"/>
</g>
<g>
	<path fill="#FFFFFF" d="M394.857,196.282c-0.102,0.012-0.172,0.01-0.215-0.005l-10.959-3.305c-0.739-0.217-1.298-0.467-1.677-0.746
		c-0.38-0.28-0.671-0.592-0.875-0.935l-8.37,0.998c-0.16,0.02-0.308-0.023-0.442-0.131c-0.135-0.105-0.212-0.238-0.231-0.398
		l-0.47-3.944c-0.02-0.161,0.024-0.309,0.13-0.442c0.106-0.136,0.24-0.212,0.4-0.231l8.369-0.998
		c0.118-0.381,0.327-0.756,0.629-1.129c0.302-0.372,0.785-0.749,1.453-1.135l9.874-5.788c0.038-0.025,0.106-0.043,0.208-0.056
		c0.119-0.015,0.23,0.014,0.33,0.083c0.1,0.07,0.159,0.185,0.179,0.346l0.517,4.335c0.02,0.16-0.016,0.296-0.104,0.408
		c-0.09,0.113-0.201,0.197-0.336,0.255l-8.103,4.264c-0.191,0.104-0.309,0.189-0.351,0.256c-0.044,0.065-0.059,0.148-0.047,0.249
		s0.046,0.179,0.104,0.232c0.057,0.055,0.191,0.109,0.401,0.166l8.878,2.239c0.145,0.022,0.273,0.079,0.387,0.167
		c0.111,0.089,0.178,0.213,0.197,0.374l0.517,4.335c0.019,0.16-0.012,0.287-0.093,0.378
		C395.078,196.215,394.977,196.269,394.857,196.282z"/>
</g>
<g>
	<path fill="#FFFFFF" d="M328.359,560.692c-0.001-0.216-0.08-0.404-0.244-0.565c-0.163-0.163-0.353-0.243-0.567-0.242l-5.278,0.024
		c-0.215,0.002-0.404,0.084-0.566,0.248s-0.239,0.354-0.238,0.568l0.019,3.774c0.001,0.217,0.08,0.404,0.244,0.566
		c0.163,0.163,0.354,0.243,0.568,0.242l5.277-0.025c0.216-0.001,0.404-0.084,0.566-0.248s0.24-0.353,0.239-0.567L328.359,560.692z
		 M328.479,568.444c-0.003-0.515-0.262-0.771-0.773-0.769l-5.438,0.025c-0.485,0.003-0.729,0.262-0.726,0.777l0.101,20.757
		c0.001,0.215,0.07,0.404,0.205,0.566c0.138,0.163,0.314,0.243,0.529,0.242l5.438-0.026c0.215-0.001,0.397-0.084,0.547-0.247
		c0.146-0.164,0.221-0.354,0.22-0.569L328.479,568.444z M315.477,577.05c-0.779-1.347-2.226-2.584-4.341-3.712l-5.207-2.775
		c-0.542-0.294-0.99-0.556-1.344-0.783c-0.354-0.229-0.632-0.442-0.834-0.644c-0.203-0.205-0.349-0.413-0.431-0.627
		c-0.08-0.22-0.123-0.474-0.125-0.773c-0.003-0.729,0.232-1.271,0.703-1.627c0.471-0.351,1.289-0.534,2.452-0.54
		c0.675-0.003,1.455,0.017,2.335,0.051c0.877,0.038,1.738,0.08,2.576,0.131c0.838,0.049,1.588,0.094,2.254,0.13
		c0.662,0.039,1.141,0.069,1.441,0.094h0.082c0.267-0.002,0.448-0.068,0.546-0.205c0.094-0.134,0.139-0.297,0.138-0.486
		l-0.021-4.098c-0.001-0.219-0.063-0.378-0.185-0.489c-0.121-0.106-0.265-0.187-0.428-0.239c-0.379-0.105-0.907-0.214-1.583-0.317
		c-0.679-0.104-1.409-0.195-2.192-0.273c-0.786-0.078-1.604-0.142-2.456-0.189c-0.854-0.053-1.643-0.074-2.373-0.07
		c-1.976,0.009-3.625,0.22-4.95,0.63c-1.32,0.414-2.388,0.98-3.195,1.701c-0.809,0.722-1.378,1.562-1.713,2.526
		c-0.334,0.96-0.498,1.997-0.493,3.105c0.003,0.73,0.082,1.44,0.234,2.127c0.15,0.691,0.411,1.358,0.779,2.005
		c0.369,0.65,0.861,1.271,1.47,1.861c0.613,0.594,1.396,1.17,2.344,1.733l5.616,3.301c1.057,0.618,1.77,1.136,2.137,1.551
		c0.367,0.419,0.553,0.924,0.555,1.52c0.005,0.976-0.242,1.69-0.739,2.156c-0.5,0.462-1.451,0.695-2.858,0.701
		c-0.404,0.002-0.952-0.015-1.644-0.054c-0.688-0.035-1.412-0.071-2.172-0.11c-0.757-0.035-1.494-0.08-2.211-0.129
		c-0.718-0.052-1.279-0.105-1.683-0.155l-0.124,0.001c-0.215,0.001-0.392,0.055-0.528,0.165c-0.133,0.109-0.2,0.312-0.199,0.608
		l0.021,3.977c0.001,0.219,0.083,0.392,0.247,0.527c0.163,0.133,0.353,0.226,0.567,0.281c1.029,0.265,2.161,0.475,3.392,0.632
		c1.232,0.157,2.661,0.231,4.285,0.224c2.054-0.01,3.782-0.283,5.188-0.817c1.403-0.535,2.544-1.223,3.417-2.064
		c0.876-0.845,1.501-1.794,1.874-2.852c0.373-1.056,0.561-2.125,0.555-3.207C316.647,579.899,316.253,578.398,315.477,577.05
		 M291.899,589.178l-0.019-3.775c-0.001-0.215-0.083-0.404-0.247-0.565c-0.164-0.162-0.354-0.243-0.568-0.242l-8.239,0.04
		c-0.944,0.005-1.617-0.188-2.011-0.577c-0.393-0.393-0.592-1.115-0.597-2.168l-0.021-4.303l10.508-0.052
		c0.219-0.002,0.406-0.084,0.565-0.244c0.163-0.163,0.243-0.354,0.242-0.571l-0.02-3.854c-0.001-0.215-0.083-0.403-0.246-0.565
		c-0.161-0.162-0.351-0.243-0.568-0.242l-10.508,0.052l-0.019-3.694c-0.005-1.053,0.188-1.777,0.576-2.174
		c0.39-0.393,1.061-0.592,2.006-0.597l8.238-0.04c0.215-0.001,0.404-0.083,0.566-0.247c0.162-0.161,0.242-0.35,0.241-0.569
		l-0.018-3.771c-0.003-0.459-0.274-0.732-0.816-0.809c-0.352-0.053-0.75-0.103-1.196-0.156c-0.447-0.054-0.982-0.104-1.605-0.155
		s-1.347-0.094-2.172-0.133c-0.825-0.035-1.78-0.05-2.859-0.045c-1.301,0.007-2.553,0.12-3.761,0.341
		c-1.209,0.225-2.266,0.646-3.176,1.273c-0.906,0.628-1.632,1.512-2.171,2.648c-0.536,1.141-0.804,2.629-0.794,4.468l0.065,13.475
		c0.01,1.838,0.29,3.33,0.837,4.479c0.551,1.148,1.284,2.031,2.197,2.646c0.916,0.617,1.971,1.033,3.168,1.242
		c1.195,0.214,2.444,0.314,3.741,0.309c2.191-0.011,3.876-0.081,5.053-0.207c1.176-0.13,2.114-0.249,2.818-0.36
		C291.633,589.948,291.901,589.663,291.899,589.178 M270.453,560.328c-0.107-0.124-0.271-0.182-0.486-0.18l-5.845,0.028
		c-0.216,0.001-0.392,0.069-0.524,0.205c-0.136,0.137-0.23,0.297-0.282,0.486l-4.329,11.464c-0.105,0.271-0.199,0.441-0.28,0.511
		c-0.081,0.068-0.188,0.102-0.322,0.103c-0.137,0-0.245-0.032-0.327-0.1c-0.082-0.068-0.177-0.237-0.286-0.507l-4.437-11.423
		c-0.057-0.188-0.152-0.348-0.286-0.483c-0.139-0.133-0.314-0.201-0.529-0.2l-5.846,0.029c-0.215,0.001-0.378,0.06-0.484,0.185
		c-0.107,0.121-0.162,0.266-0.161,0.428c0,0.134,0.015,0.229,0.043,0.283l6.194,14.008c0.413,0.947,0.84,1.646,1.289,2.104
		c0.449,0.46,0.916,0.794,1.406,1.01l0.055,11.28c0.001,0.215,0.084,0.404,0.244,0.565c0.164,0.162,0.354,0.243,0.572,0.242
		l5.313-0.025c0.215-0.001,0.407-0.083,0.566-0.247c0.162-0.164,0.242-0.354,0.241-0.569l-0.055-11.28
		c0.485-0.221,0.943-0.559,1.374-1.023c0.432-0.462,0.85-1.164,1.248-2.115l6.062-14.068c0.025-0.056,0.037-0.149,0.037-0.283
		C270.617,560.592,270.562,560.448,270.453,560.328 M241.892,561.112c-0.002-0.215-0.084-0.404-0.248-0.565
		c-0.164-0.162-0.353-0.243-0.568-0.242l-5.274,0.025c-0.219,0.001-0.407,0.083-0.566,0.247c-0.162,0.164-0.243,0.354-0.242,0.569
		l0.019,3.775c0.001,0.215,0.084,0.403,0.248,0.565c0.16,0.162,0.35,0.243,0.567,0.242l5.275-0.026
		c0.215-0.001,0.404-0.083,0.566-0.247s0.242-0.353,0.241-0.568L241.892,561.112z M242.011,568.864
		c-0.003-0.515-0.262-0.771-0.777-0.768l-5.438,0.025c-0.485,0.002-0.729,0.262-0.727,0.776l0.102,20.758
		c0.001,0.215,0.069,0.403,0.208,0.566c0.134,0.162,0.311,0.243,0.525,0.242l5.438-0.027c0.218-0.001,0.4-0.083,0.546-0.247
		c0.15-0.164,0.224-0.353,0.223-0.568L242.011,568.864z M222.858,578.07c0.007,1.379-0.128,2.515-0.407,3.409
		c-0.278,0.894-0.683,1.607-1.209,2.138c-0.521,0.527-1.149,0.896-1.879,1.104c-0.729,0.206-1.557,0.311-2.476,0.315
		c-0.512,0.002-1.047-0.002-1.601-0.012s-0.982-0.031-1.278-0.056l-0.092-18.951c0.296-0.028,0.723-0.049,1.277-0.065
		c0.554-0.016,1.089-0.024,1.601-0.026c0.919-0.005,1.749,0.092,2.479,0.291c0.731,0.197,1.362,0.56,1.891,1.086
		c0.529,0.525,0.94,1.233,1.229,2.123c0.288,0.892,0.434,2.028,0.441,3.408L222.858,578.07z M229.774,572.801
		c-0.011-2.136-0.319-4.009-0.921-5.616c-0.604-1.607-1.462-2.94-2.575-4.004c-1.113-1.064-2.471-1.856-4.07-2.376
		c-1.598-0.518-3.411-0.773-5.442-0.764c-0.838,0.005-1.682,0.028-2.536,0.071c-0.851,0.047-1.662,0.096-2.431,0.155
		c-0.773,0.06-1.477,0.122-2.112,0.193c-0.635,0.071-1.153,0.148-1.56,0.229c-0.378,0.057-0.668,0.195-0.869,0.411
		c-0.204,0.216-0.304,0.556-0.301,1.016l0.13,26.821c0.002,0.463,0.105,0.798,0.311,1.016c0.204,0.215,0.494,0.35,0.873,0.4
		c0.408,0.079,0.926,0.152,1.563,0.217c0.636,0.063,1.34,0.121,2.113,0.172c0.77,0.049,1.582,0.095,2.433,0.129
		c0.854,0.038,1.699,0.054,2.536,0.05c2.032-0.011,3.843-0.283,5.434-0.818c1.595-0.536,2.944-1.338,4.048-2.413
		s1.947-2.419,2.536-4.032c0.586-1.609,0.876-3.485,0.866-5.622L229.774,572.801z M201.613,589.617l-0.018-3.775
		c-0.001-0.215-0.084-0.404-0.248-0.566c-0.16-0.162-0.353-0.243-0.568-0.242l-8.238,0.041c-0.946,0.004-1.615-0.188-2.011-0.577
		c-0.394-0.393-0.593-1.115-0.598-2.169l-0.021-4.303l10.511-0.051c0.215-0.001,0.404-0.084,0.566-0.244
		c0.162-0.164,0.243-0.354,0.242-0.572l-0.019-3.854c-0.001-0.215-0.083-0.403-0.247-0.566c-0.164-0.162-0.354-0.242-0.569-0.241
		l-10.51,0.052l-0.018-3.694c-0.005-1.053,0.187-1.778,0.576-2.174c0.392-0.394,1.06-0.592,2.005-0.598l8.239-0.039
		c0.215-0.002,0.407-0.083,0.566-0.247c0.162-0.161,0.243-0.351,0.242-0.569l-0.019-3.772c-0.002-0.459-0.274-0.731-0.816-0.807
		c-0.352-0.054-0.75-0.104-1.197-0.158c-0.447-0.053-0.982-0.102-1.605-0.154s-1.347-0.095-2.172-0.134
		c-0.825-0.035-1.777-0.05-2.859-0.044c-1.298,0.006-2.552,0.12-3.761,0.341c-1.208,0.225-2.266,0.646-3.172,1.273
		c-0.91,0.628-1.633,1.511-2.172,2.649c-0.539,1.14-0.805,2.628-0.796,4.467l0.065,13.474c0.009,1.839,0.29,3.33,0.84,4.479
		c0.55,1.147,1.282,2.03,2.198,2.646c0.912,0.618,1.967,1.034,3.165,1.243c1.197,0.213,2.443,0.314,3.744,0.308
		c2.191-0.011,3.873-0.081,5.049-0.207c1.176-0.13,2.115-0.249,2.819-0.359C201.346,590.388,201.615,590.103,201.613,589.617
		 M179.659,589.724l-0.018-3.775c-0.001-0.215-0.084-0.403-0.244-0.565c-0.164-0.162-0.353-0.243-0.572-0.242l-6.977,0.034
		c-0.948,0.005-1.618-0.188-2.014-0.577c-0.393-0.393-0.592-1.115-0.597-2.168l-0.102-20.979c-0.001-0.219-0.084-0.406-0.248-0.569
		c-0.163-0.159-0.353-0.239-0.568-0.238l-5.314,0.026c-0.218,0.001-0.407,0.083-0.569,0.243c-0.163,0.164-0.24,0.354-0.239,0.571
		l0.102,20.98c0.009,1.838,0.284,3.33,0.834,4.478c0.543,1.148,1.271,2.032,2.181,2.647c0.909,0.617,1.967,1.032,3.171,1.242
		c1.204,0.213,2.457,0.314,3.758,0.309c0.538-0.003,1.121-0.022,1.744-0.051c0.622-0.029,1.235-0.072,1.844-0.131
		c0.61-0.058,1.183-0.112,1.724-0.171c0.541-0.055,0.974-0.126,1.297-0.209C179.392,590.469,179.662,590.184,179.659,589.724
		 M156.854,589.835l-0.019-3.775c-0.001-0.215-0.08-0.404-0.244-0.566s-0.353-0.243-0.568-0.241l-8.239,0.039
		c-0.948,0.006-1.618-0.187-2.011-0.576c-0.396-0.393-0.595-1.115-0.6-2.168l-0.021-4.305l10.51-0.051
		c0.215-0.001,0.404-0.083,0.566-0.244c0.163-0.164,0.243-0.353,0.242-0.57l-0.019-3.854c-0.001-0.215-0.083-0.404-0.247-0.566
		c-0.164-0.161-0.353-0.242-0.568-0.241l-10.511,0.051l-0.018-3.693c-0.005-1.053,0.187-1.777,0.58-2.175
		c0.389-0.393,1.056-0.592,2.005-0.596l8.238-0.04c0.216-0.001,0.404-0.084,0.566-0.247c0.163-0.161,0.24-0.351,0.239-0.569
		l-0.018-3.771c-0.003-0.46-0.275-0.732-0.813-0.809c-0.352-0.053-0.754-0.104-1.2-0.157c-0.447-0.053-0.982-0.103-1.602-0.154
		c-0.623-0.054-1.347-0.096-2.172-0.133c-0.825-0.035-1.78-0.051-2.863-0.046c-1.297,0.008-2.552,0.12-3.757,0.342
		c-1.208,0.225-2.266,0.646-3.176,1.273c-0.91,0.627-1.632,1.512-2.171,2.648c-0.539,1.141-0.803,2.629-0.794,4.467l0.066,13.475
		c0.009,1.839,0.287,3.33,0.837,4.479c0.55,1.147,1.281,2.032,2.197,2.646c0.916,0.618,1.971,1.033,3.165,1.243
		c1.198,0.212,2.447,0.314,3.744,0.309c2.191-0.012,3.877-0.081,5.05-0.208c1.176-0.129,2.118-0.248,2.821-0.359
		C156.587,590.605,156.856,590.32,156.854,589.835 M126.507,582.108c0.005,1.135-0.392,2.017-1.184,2.645
		c-0.796,0.626-2.235,0.942-4.318,0.952l-0.669,0.003c-0.313,0.003-0.635-0.003-0.975-0.014c-0.339-0.012-0.661-0.017-0.974-0.015
		l-0.711,0.003l-0.037-7.589l4.545-0.023c1.623-0.007,2.75,0.346,3.376,1.061c0.623,0.714,0.94,1.557,0.944,2.531L126.507,582.108z
		 M126.285,570.018c0.002,0.434-0.065,0.845-0.196,1.237c-0.135,0.395-0.355,0.731-0.667,1.02c-0.308,0.285-0.728,0.516-1.252,0.694
		c-0.527,0.179-1.198,0.27-2.01,0.273l-4.545,0.022l-0.034-7.02c0.137,0,0.346-0.008,0.629-0.021
		c0.284-0.019,0.584-0.026,0.894-0.028l0.893-0.004l0.668-0.003c2.083-0.01,3.539,0.247,4.366,0.771
		c0.827,0.523,1.245,1.34,1.251,2.448L126.285,570.018z M133.24,581.63c-0.007-1.405-0.345-2.623-1.012-3.647
		c-0.667-1.022-1.544-1.805-2.629-2.341c1.079-0.546,1.913-1.35,2.505-2.405c0.588-1.059,0.882-2.25,0.876-3.577l-0.004-0.73
		c-0.008-1.623-0.327-2.976-0.955-4.055c-0.625-1.075-1.503-1.938-2.628-2.582c-1.127-0.643-2.476-1.103-4.046-1.382
		c-1.569-0.275-3.314-0.407-5.234-0.398c-0.652,0.003-1.327,0.02-2.031,0.049c-0.704,0.033-1.386,0.069-2.047,0.111
		c-0.665,0.046-1.271,0.094-1.825,0.152c-0.557,0.059-1.01,0.112-1.359,0.169c-0.785,0.139-1.338,0.386-1.662,0.739
		c-0.321,0.354-0.481,0.99-0.477,1.909l0.12,24.67c0.005,0.922,0.177,1.557,0.518,1.904c0.338,0.351,0.916,0.593,1.728,0.722
		c0.405,0.08,0.891,0.146,1.462,0.198c0.567,0.05,1.181,0.096,1.846,0.132c0.662,0.039,1.347,0.068,2.048,0.091
		c0.704,0.022,1.395,0.035,2.07,0.032c1.761-0.008,3.416-0.153,4.97-0.433c1.554-0.277,2.904-0.764,4.052-1.46
		c1.144-0.693,2.052-1.631,2.725-2.811c0.669-1.18,1.001-2.665,0.992-4.448L133.24,581.63z"/>
</g>
</svg>
