<?xml version="1.0" encoding="utf-8"?>
<!-- Generator: Adobe Illustrator 16.0.0, SVG Export Plug-In . SVG Version: 6.00 Build 0)  -->
<!DOCTYPE svg PUBLIC "-//W3C//DTD SVG 1.1//EN" "http://www.w3.org/Graphics/SVG/1.1/DTD/svg11.dtd">
<svg version="1.1" id="Layer_1" xmlns="http://www.w3.org/2000/svg" xmlns:xlink="http://www.w3.org/1999/xlink" x="0px" y="0px"
	 width="770.75px" height="195.889px" viewBox="0 0 770.75 195.889" enable-background="new 0 0 770.75 195.889"
	 xml:space="preserve">
<path fill="#E17F3E" d="M243.781,16.563h22.25V2.014h-22.25V16.563z M291.414,65.704V2.109h-15.586v62.915
	c0,12.803-8.514,20.749-21.357,20.749s-21.213-7.946-21.213-20.749V2.109h-15.593v63.595c0,19.802,15.88,33.142,36.806,33.142
	C275.399,98.845,291.414,85.506,291.414,65.704z M366.677,70.683c0-8.214-2.743-15.085-8.373-19.667
	c-4.332-3.642-9.667-5.796-19.199-7.142l-11.685-1.616c-4.764-0.671-8.952-2.292-11.544-4.444c-2.744-2.287-3.905-5.392-3.905-8.889
	c0-8.496,6.641-14.96,18.771-14.96c8.657,0,16.015,1.75,22.367,7.407l9.961-9.157c-8.806-7.68-18.335-10.911-31.896-10.911
	c-21.36,0-34.355,11.452-34.355,28.151c0,7.819,2.457,13.882,7.507,18.328c4.471,3.905,11.112,6.605,19.481,7.677l12.123,1.616
	c6.063,0.809,8.662,1.752,11.258,4.039c2.746,2.299,4.046,5.796,4.046,9.972c0,9.302-7.796,14.686-21.219,14.686
	c-10.533,0-18.761-2.155-26.262-9.156l-10.396,9.557c9.814,9.302,20.927,12.671,36.369,12.671
	C351.235,98.845,366.677,88.335,366.677,70.683z M453.477,98.03l-36.795-58.328l33.337-37.593h-19.053l-42.001,48.229V2.109h-15.586
	V98.03h15.586V70.146l17.32-19.403l28.871,47.287H453.477z M526.295,65.704V2.109h-15.58v62.915c0,12.803-8.52,20.749-21.37,20.749
	c-12.837,0-21.218-7.946-21.218-20.749V2.109h-15.578v63.595c0,19.802,15.874,33.142,36.796,33.142
	C510.28,98.845,526.295,85.506,526.295,65.704z M610.359,49.397c0-13.87,0.717-27.889-10.391-38.261
	c-6.496-6.06-15.88-9.027-26.561-9.027H537.33V98.03h36.078c10.681,0,20.064-2.955,26.561-9.018
	C611.076,78.63,610.359,63.277,610.359,49.397z M594.768,49.397c0,13.202-0.141,23.575-5.483,29.104
	c-4.325,4.442-10.096,6.464-17.464,6.464h-18.904V15.181h18.904c7.368,0,13.139,2.018,17.464,6.464
	C594.627,27.168,594.768,36.195,594.768,49.397z M694.832,98.03L657.165,2.109h-12.556L606.937,98.03h16.598l7.079-19.262h40.549
	l7.08,19.262H694.832z M666.84,66.37h-31.607l16.021-42.57L666.84,66.37z M770.118,98.03l-23.672-42.432
	c11.544-2.967,20.501-11.724,20.501-25.464c0-16.305-12.416-28.024-31.903-28.024h-39.833V98.03h15.594V57.618h19.487L751.93,98.03
	H770.118z M751.354,30.271c0,9.431-7.065,14.949-17.462,14.949h-23.087V15.181h23.087C744.288,15.181,751.354,20.84,751.354,30.271z
	 M477.183,16.658h22.263V2.109h-22.263V16.658z"/>
<path fill="#E17F3E" d="M770.75,116.35h-12.599v11.741h12.599V116.35z M276.449,172.38c0-9.786-6.01-15.55-12.369-17.941
	c5.543-2.066,11.093-8.041,11.093-16.422c0-13.041-9.596-21.196-24.851-21.196h-32.019v77.408h33.289
	C266.162,194.229,276.449,186.623,276.449,172.38z M263.964,171.832c0,6.854-4.858,11.853-13.527,11.853h-19.652v-23.593h19.652
	C259.106,160.091,263.964,164.985,263.964,171.832z M341.503,194.229v-10.545h-40.111v-23.269h34.216v-10.434h-34.216v-22.615
	h40.111v-10.546h-52.599v77.408H341.503z M404.703,194.229v-10.545h-39.654v-66.863h-12.488v77.408H404.703z M465.484,194.229
	v-10.545h-40.105v-23.269h34.214v-10.434h-34.214v-22.615h40.105v-10.546h-52.593v77.408H465.484z M535.039,154.981
	c0-11.191,0.59-22.504-8.323-30.877c-5.203-4.885-12.711-7.283-21.265-7.283h-28.902v77.408h28.902
	c8.554,0,16.062-2.39,21.265-7.281C535.629,178.573,535.039,166.18,535.039,154.981z M522.562,154.981
	c0,10.65-0.121,19.031-4.395,23.486c-3.472,3.586-8.091,5.217-13.989,5.217h-15.143v-56.317h15.143
	c5.898,0,10.518,1.639,13.989,5.223C522.44,137.046,522.562,144.33,522.562,154.981z M547.488,194.229h12.494v-58.193h-12.494
	V194.229z M627.014,116.821h-13.646l-17.224,34.033l-17.224-34.033h-13.639l24.62,45.556v31.853h12.492v-31.853L627.014,116.821z
	 M684.92,194.229v-10.545h-40.114v-23.269h34.223v-10.434h-34.223v-22.615h40.114v-10.546h-52.592v77.408H684.92z M747.432,172.155
	c0-6.622-2.207-12.169-6.714-15.873c-3.467-2.925-7.74-4.669-15.376-5.758l-9.363-1.302c-3.81-0.547-7.164-1.849-9.244-3.591
	c-2.2-1.842-3.114-4.352-3.114-7.171c0-6.855,5.309-12.07,15.017-12.07c6.945,0,12.837,1.419,17.92,5.975l7.978-7.389
	c-7.057-6.192-14.679-8.808-25.546-8.808c-17.112,0-27.516,9.251-27.516,22.72c0,6.313,1.968,11.207,6.011,14.791
	c3.584,3.151,8.906,5.329,15.606,6.201l9.709,1.302c4.863,0.652,6.944,1.412,9.026,3.254c2.192,1.855,3.226,4.682,3.226,8.057
	c0,7.494-6.235,11.846-16.99,11.846c-8.438,0-15.03-1.743-21.034-7.389l-8.323,7.712c7.859,7.501,16.759,10.222,29.132,10.222
	C735.051,194.883,747.432,186.405,747.432,172.155z M758.151,194.229h12.486v-57.772h-12.486V194.229z M262.691,138.46
	c0,7.171-5.435,11.086-13.413,11.086h-18.494v-22.18h18.494C257.257,127.367,262.691,131.283,262.691,138.46z M560.095,115.922
	h-12.606v11.738h12.606V115.922z"/>
<rect fill="#003D7E" width="195.893" height="195.889"/>
<path fill="#FFFFFF" d="M96.708,153.653l-1.75-0.014l-3.806,9.265l2.37,0.028l0.467-1.335l2.981,0.04l0.287,1.547l2.454,0.015
	L96.708,153.653 M95.651,157.504l0.741,2.284l-1.634-0.021L95.651,157.504z M79.625,160.422l2.046,0.556l0.791-3.031l1.051-0.415
	l1.318,4.164l2.397,0.547l-1.951-6.158l4.141-2.771l-2.542-0.793l-3.543,2.404l0.734-3.01l-2.182-0.471L79.625,160.422z
	 M78.094,151.1c-0.359-1.273-1.829-2.136-2.211-2.326c-1.747-0.901-3.6-0.142-4.296,0.941c-0.707,1.089-0.563,2.138,0.187,2.938
	c0.748,0.803,2.095,1.49,2.316,2.208c0.172,0.549-0.447,1.125-1.477,0.871c-1.336-0.309-1.575-0.941-1.951-1.546l-1.842,0.634
	c0.426,1.405,1.874,2.234,1.874,2.234l-0.604,1.132l1.891,0.822l0.505-1.266c2.844,0.76,4.13-1.896,3.786-3.29
	c-0.454-1.876-2.714-2.206-2.945-3.274c-0.13-0.605,0.893-1.076,1.605-0.703c1.003,0.533,1.102,0.843,1.417,1.321L78.094,151.1z
	 M113.662,151.571l3.311,8.619l5.747-2.201l-0.685-1.777l-3.655,1.392l-2.629-6.848L113.662,151.571z M104.369,162.904l-1.417-9.117
	l1.842-0.311l3.839,4.105l-0.707-4.688l2.129-0.289l1.526,9.168l-1.863,0.395l-3.93-4.297l0.71,4.711L104.369,162.904z
	 M146.531,148.281c-12.583,12.162-29.716,19.629-48.584,19.629c-18.873,0-36.002-7.467-48.592-19.615l-5.146-0.014
	c13.434,14.327,32.538,23.284,53.738,23.284c21.196,0,40.299-8.957,53.733-23.298L146.531,148.281z M129.493,148.281
	c0.158,0.239,0.331,0.479,0.517,0.717c0.721,1.013,1.93,2.04,2.98,2.293c0.556,0.119,1.766,0.315,2.789-0.634
	c1.004-0.928,1.49-1.531,1.642-2.383l-2.362,0.007c-0.31,0.696-1.559,1.111-2.177,0.374c-0.098-0.121-0.207-0.246-0.309-0.36
	L129.493,148.281z M122.59,148.281l4.498,7.621l1.74-1.068l-3.863-6.553H122.59z M59.073,148.281l-0.878,0.578l1.86,1.504
	l1.314-0.999l2.112,1.736l-0.217,1.398l1.821,1.449l1.518-5.667h-2.07l-0.32,1.006l-1.335-0.97l0.049-0.036H59.073z"/>
<path fill="#FFFFFF" d="M65.302,129.595h65.208l-0.59,0.737H65.854L65.302,129.595 M129.563,131.283
	c-8.241,7.846-19.335,12.612-31.616,12.612c-12.244,0-23.396-4.81-31.632-12.619L129.563,131.283z M54.395,139.879l1.086,1.118
	c0.124,0.127,0.577,0.76,0.054,1.315c-0.528,0.556-1.22,0.267-1.477,0l-1.03-1.139L54.395,139.879z M50.019,140.957l2.829,2.783
	c0.366,0.386,1.293,1.11,2.316,1.047c1.044-0.069,2.074-0.724,2.426-1.624c0.239-0.604,0.067-0.765-0.008-1.377
	c0.665,0.126,1.526,0.294,2.451-0.815c1.402-1.688-0.158-3.516-0.433-3.81l-2.794-2.771L50.019,140.957z M57.13,137.398l0.878,0.915
	c0.123,0.125,0.577,0.73,0.049,1.286c-0.524,0.556-1.107,0.19-1.367-0.077l-0.819-0.928L57.13,137.398z M137.057,136.704
	l-1.422,1.461l6.507,6.615l1.426-1.47L137.057,136.704z M127.809,143.416l-0.823-1.082l3.348-2.544l0.843,1.047L127.809,143.416z
	 M88.568,134.39v6.419h1.001v-7.319h-0.967l-1.923,1.237v0.872L88.568,134.39z M109.271,137.118L109.264,139l-2.865-0.007
	l3.448-5.271h-1.103l-4,6.037h4.52v0.999h1.003v-0.999h1.244V139h-1.244v-1.883H109.271z M98.71,138.875
	c0,1.378,1.398,2.228,3.061,2.228c1.655,0,3.05-0.85,3.05-2.228c0-0.803-0.53-1.52-1.54-1.786c0.799-0.353,1.282-0.941,1.282-1.673
	c0-1.217-1.246-2.074-2.792-2.074c-1.554,0-2.802,0.857-2.802,2.074c0,0.731,0.482,1.32,1.285,1.673
	C99.243,137.356,98.71,138.073,98.71,138.875z M101.771,137.469c0.977,0,1.884,0.612,1.884,1.406c0,0.745-0.928,1.392-1.884,1.392
	c-0.957,0-1.895-0.646-1.895-1.392C99.875,138.082,100.783,137.469,101.771,137.469z M101.771,134.137
	c0.878,0,1.655,0.563,1.655,1.279c0,0.59-0.843,1.258-1.655,1.258c-0.823,0-1.662-0.668-1.662-1.258
	C100.108,134.7,100.885,134.137,101.771,134.137z M95.342,137.266c-0.928,0-1.902-0.661-1.902-1.547
	c0-0.845,0.899-1.555,1.975-1.555c0.977,0,1.835,0.773,1.835,1.555C97.25,136.527,96.487,137.266,95.342,137.266z M94.283,141.053
	l3.059-3.388c0.527-0.576,0.98-1.223,0.98-1.955c0-1.307-1.441-2.368-2.987-2.368c-1.635,0-2.967,1.075-2.967,2.432
	c0,1.183,1.118,2.285,2.609,2.285c0.309,0,0.611-0.042,0.868-0.147l-2.366,2.685L94.283,141.053z M137.42,148.281
	c0.027-0.154,0.041-0.303,0.049-0.471c0.083-1.786-2.131-3.859-2.131-3.859l-2.767,2.151l1.111,1.448l0.941-0.682
	c0.116,0.211,0.625,0.441,0.503,1.181c-0.014,0.077-0.036,0.162-0.063,0.231H137.42z M132.572,148.281
	c-1.016-1.152-2.063-2.25-1.635-3.494c0.267-0.556,1.083-0.983,1.901-0.23l1.706-1.45c-0.127-0.154-2.049-2.003-4.109-0.49
	c-0.618,0.464-0.95,0.688-1.183,1.013c-1.021,1.434-0.783,3.05,0.247,4.652H132.572z M124.973,148.281l-0.851-1.441l-1.742,1.076
	l0.217,0.365H124.973z M62.926,148.281l2.06-1.412l-0.446,1.412h2.07l1.09-4.05l-1.189-0.912l-7.43,4.962H62.926z M44.216,148.281
	c-6.271-6.705-11.302-14.566-14.735-23.227l3.943-0.015c3.709,8.815,9.164,16.711,15.938,23.255L44.216,148.281z M162.479,125.04
	c-3.708,8.815-9.164,16.711-15.941,23.255l5.151-0.014c6.26-6.705,11.294-14.566,14.727-23.227L162.479,125.04z M62.905,125.04
	v2.608c-0.713-0.851-1.399-1.708-2.053-2.608h-2.281c8.623,12.514,23.041,20.711,39.376,20.711c16.341,0,30.763-8.197,39.385-20.696
	l-2.26-0.015c-0.763,1.026-1.579,2.039-2.425,3.022l-0.665-3.022h-6.134l-0.566,2.657c0,0,0.022,0.128-0.188,0.422
	c-0.209,0.295-0.525,0.239-0.525,0.239h-2.319v-3.318H97.53v3.452H85.098v-3.452h-6.889v3.452H65.721v-3.452H62.905z"/>
<path fill="#FFFFFF" d="M67.668,120.062h2.004v4.528h-2.004V120.062z M70.779,120.062h1.999v4.528h-1.999V120.062z M73.883,120.062
	h2v4.528h-2V120.062z M87.049,120.062h2v4.528h-2V120.062z M90.157,120.062h2.003v4.528h-2.003V120.062z M93.26,120.062h2v4.528h-2
	V120.062z M131.982,125.04l-1.762-8.113l-0.438-0.195l-0.04-0.381h0.945v-1.307h-1.392v-0.563c0,0,0.578-0.064,0.671-0.365
	c0.095-0.303-0.583-0.493-0.583-0.493v-0.21c0,0,0.28,0.118,0.398-0.119c0.119-0.233-0.542-0.556-0.542-0.556h-0.302
	c0,0-0.411,0.231-0.481,0.421c-0.082,0.197,0.273,0.282,0.273,0.282v0.182c0,0-0.665,0.162-0.605,0.556
	c0.051,0.401,0.67,0.316,0.67,0.316v0.514h-1.197v1.371h0.605l-0.027,0.28l-0.605,0.296l-1.723,8.084H131.982z M78.209,125.04
	l-0.007-5.034h6.896v5.034H78.209z M58.571,125.04c-4.637-6.699-7.596-14.664-8.271-23.266h1.855
	c0.728,8.658,3.853,16.636,8.696,23.266H58.571z M29.481,125.04c-2.872-7.248-4.63-15.072-5.048-23.249l3.652-0.017
	c0.446,8.207,2.302,16.053,5.339,23.28L29.481,125.04z M167.811,101.774c-0.44,8.207-2.302,16.047-5.333,23.28l3.936-0.015
	c2.88-7.248,4.63-15.072,5.055-23.249L167.811,101.774z M143.74,101.774c-0.707,8.658-3.818,16.615-8.668,23.245l2.26,0.021
	c4.629-6.706,7.589-14.664,8.271-23.266H143.74z M70.832,101.774v10.386l-0.637,0.479c0,0-0.13-0.128-0.415-0.345
	c-0.295-0.211-0.664,0.161-0.664,0.161l-6.816,5.659l0.605,0.239v6.686h2.813v-6.777h12.485l3.476-2.889l3.42,2.889H97.53v6.777
	h24.719v-8.66l-4.784-4.007h-3.399l-4.06-3.319H83.837v-7.279h-2.792v9.233h27.698l-8.369,7.051l-7.216-5.686H72.624v-10.599H70.832
	z"/>
<path fill="#FFFFFF" d="M70.929,93.576h12.64v1.526h-12.64V93.576z M71.292,88.466h2.101c0.194,0,0.359,0.165,0.359,0.358v3.708
	c0,0.193-0.165,0.358-0.359,0.358h-2.101c-0.197,0-0.363-0.165-0.363-0.358v-3.708C70.929,88.631,71.095,88.466,71.292,88.466z
	 M81.109,88.466h2.102c0.201,0,0.362,0.165,0.362,0.358v3.708c0,0.193-0.162,0.358-0.362,0.358h-2.102
	c-0.193,0-0.351-0.165-0.351-0.358v-3.708C80.758,88.631,80.916,88.466,81.109,88.466z M75.324,88.466h3.862
	c0.197,0,0.355,0.165,0.355,0.358v3.708c0,0.193-0.158,0.358-0.355,0.358h-3.862c-0.204,0-0.362-0.165-0.362-0.358v-3.708
	C74.961,88.631,75.12,88.466,75.324,88.466z M45.101,88.364c0.661-2.665-1.339-4.089-2.369-4.349l-5.93-1.475l-0.521,2.175
	l5.242,1.3c0.584,0.145,2.039,0.384,1.716,1.688c-0.376,1.504-1.694,0.999-2.19,0.894l-5.406-1.354l-0.556,2.323l5.933,1.484
	C42.05,91.309,44.387,91.214,45.101,88.364z M159.641,83.672l-9.135,2.08l1.39,6.24l1.922-0.552l-0.928-3.832l1.862-0.445
	l0.729,3.36l1.735-0.395l-0.72-3.363l1.772-0.43l0.84,3.951l1.901-0.474L159.641,83.672z M33.786,83.144l1.466,0.316l-0.31,1.607
	l-1.476-0.318L33.786,83.144z M33.123,86.068l1.476,0.316l-0.317,1.608l-1.476-0.321L33.123,86.068z M72.624,101.777V98.79h8.422
	v2.987h2.792v-5.02c0.369-0.316,0.182-0.682,0.182-0.682H70.641c-0.077,0.365,0.19,0.739,0.19,0.739v4.962H72.624z M50.292,101.777
	c-0.102-1.268-0.151-2.54-0.151-3.83c0-6.925,1.474-13.506,4.124-19.445l2.039,0.013C53.537,84.42,51.998,91,51.998,97.947
	c0,1.29,0.056,2.569,0.158,3.837L50.292,101.777z M24.425,101.777c-0.063-1.261-0.098-2.54-0.098-3.83
	c0-6.733,0.907-13.253,2.597-19.445l3.793,0.013c-1.786,6.166-2.735,12.686-2.735,19.432c0,1.277,0.028,2.554,0.102,3.82
	L24.425,101.777z M165.177,78.515c1.786,6.166,2.736,12.686,2.736,19.432c0,1.277-0.036,2.554-0.102,3.82l3.659,0.01
	c0.063-1.261,0.092-2.54,0.092-3.83c0-6.733-0.9-13.253-2.591-19.445L165.177,78.515z M147.987,78.515l0.699,1.579l3.497-1.483
	l6.033,0.165l-0.105-0.26H147.987z M139.606,78.515c2.753,5.912,4.292,12.492,4.292,19.432c0,1.277-0.06,2.554-0.158,3.813
	l1.862,0.017c0.102-1.268,0.151-2.54,0.151-3.83c0-6.925-1.477-13.506-4.123-19.452L139.606,78.515z M73.594,78.515v0.644
	c0,0.366,0.158,0.445,0.158,0.445s-0.461,0.187-0.438,0.539c0.027,0.362,0.459,0.294,0.814,0.396
	c-0.102,2.981-3.736,2.845-3.528,7.132H83.91c0.215-4.288-3.392-4.151-3.5-7.132c0.355-0.102,0.794-0.034,0.816-0.396
	c0.028-0.352-0.433-0.539-0.433-0.539s0.158-0.08,0.158-0.445v-0.644H73.594z M46.384,78.515c-0.396,0.637-0.85,0.932-1.227,1.161
	l0.735,1.764c1.385-0.503,2.267-1.978,2.45-2.349c0.105-0.207,0.187-0.393,0.25-0.576H46.384z M40.265,78.515
	c0.123,0.088,0.25,0.184,0.387,0.26c1.097,0.625,2.252,0.632,3.248-0.253L40.265,78.515z"/>
<path fill="#FFFFFF" d="M51.537,72.304l1.181-1.849l-2.348-1.708L50.24,67.59l4.342,0.415l1.303-2.08L49.53,65.32l-1.27-4.626
	l-1.497,2.102l1.111,4.159l-2.636-1.754l-1.326,1.958L51.537,72.304 M137.448,62.873l2.556,2.94c0.625,0.727,1.786,1.194,2.797,1.05
	c0.974-0.138,2.163-1.096,3.459-2.306c0.612-0.559,0.998-1.023,1.142-1.368c0.658-1.504,0.211-2.646-0.336-3.274l-2.68-3.079
	L137.448,62.873z M152.925,68.086l-1.125-1.937l-7.997,4.931l1.132,1.938L152.925,68.086z M154.113,64.753l-1.368,0.928l1.072,1.829
	l1.375-0.921L154.113,64.753z M144.264,59.858l0.829,0.969c0.296,0.334,0.447,0.736,0.303,1.276
	c-0.095,0.359-0.467,0.763-0.852,1.095c-0.365,0.323-1.366,1.201-1.675,1.283c-0.625,0.186-1.147,0.034-1.513-0.397l-0.836-0.97
	L144.264,59.858z M158.11,78.515l-0.736-1.711l-3.637-0.269l2.376-2.576l-0.872-2.094l-4.053,4.699l-3.375,1.543l0.18,0.408H158.11z
	 M54.265,78.515c4.499-10.119,12.412-18.37,22.26-23.314l4.493,0.014c-0.967,0.391-1.909,0.805-2.844,1.244
	c0,0-0.081,0.173-0.197,0.362c-0.123,0.18,0.158,0.552,0.158,0.552s-0.078,0.313-0.056,0.576c0.028,0.269,0.633,0.513,0.633,1.132
	c0,0.552-0.763,1.03-0.763,1.03l0.239,15.563c0.007,0.217,0.682,0.445,0.949,0.787c0.26,0.345-0.214,0.791-0.214,0.791l0.552,0.634
	h1.476v0.632h-7.357v-0.632h1.477l0.556-0.634c0,0-0.479-0.445-0.218-0.791c0.268-0.341,0.949-0.569,0.949-0.787l0.239-15.563
	c0,0-0.805-0.478-0.762-1.03c0.049-0.639,0.604-0.863,0.632-1.132c0.021-0.263-0.056-0.576-0.056-0.576
	c-8.784,4.675-15.874,12.109-20.106,21.15L54.265,78.515z M43.906,78.515c0.035-0.029,0.081-0.063,0.123-0.105
	c0.777-0.763,1.368-2.342,2.26-1.971c0.583,0.234,0.604,0.961,0.397,1.471c-0.095,0.226-0.197,0.427-0.303,0.592l2.208,0.013
	c0.24-0.661,0.247-1.148,0.225-1.792c-0.053-1.892-2.081-3.188-3.765-2.556c-1.392,0.528-1.688,2.464-2.527,2.875
	c-0.331,0.158-1.395-0.238-0.974-1.427c0.288-0.941,0.815-1.29,1.255-1.511l-0.858-1.73c-1.258,0.433-1.985,2.032-2.158,2.43
	c-0.7,1.566-0.369,2.941,0.475,3.691L43.906,78.515z M26.925,78.515c2.31-8.478,6.096-16.34,11.065-23.294l4.548-0.006
	c-5.297,6.869-9.35,14.742-11.821,23.288L26.925,78.515z M153.357,55.214c5.303,6.869,9.356,14.742,11.82,23.288l3.793,0.013
	c-2.31-8.478-6.097-16.34-11.064-23.301H153.357z M134.611,55.214l1.725,1.497l1.318-1.448l-0.056-0.049H134.611z M130.229,55.214
	l-0.667,0.805l4.982,4.063l1.268-1.549l-3.159-2.585l0.632-0.734H130.229z M114.85,55.214c10.928,4.319,19.804,12.714,24.756,23.314
	l2.025-0.014c-4.5-10.119-12.405-18.37-22.261-23.314L114.85,55.214z M65.741,55.214l0.77,1.138l1.691-1.138H65.741z M56.95,55.214
	l1.979,2.131c0.412,0.438,1.427,1.504,0.446,2.425c-1.135,1.05-2.007-0.201-2.369-0.552L53.33,55.25l-1.564,1.536l4.168,4.467
	c0.721,0.777,2.658,1.888,4.809-0.114c2.004-1.873,1.072-3.918,0.348-4.695l-1.146-1.23H56.95z"/>
<path fill="#FFFFFF" d="M90.445,42.703c0.886-0.347,1.209-1.254,1.29-1.975c0.07-0.717-0.302-1.776-0.907-2.447
	c-0.654-0.728-1.979-0.872-2.78-0.763l-3.842,0.654l1.74,9.368l2.154-0.384l-0.577-3.389l0.763-0.145l2.21,3.08l2.555-0.415
	L90.445,42.703 M76.149,40.672l-1.456,0.612v10.028l2.219-0.892l-0.029-1.397l2.605-1.021l1.051,1.057l2.239-0.928L76.149,40.672z
	 M76.754,44.443l1.655,1.944l-1.712,0.583L76.754,44.443z M103.852,42.817l0.833,0.021c0.19,0.017,1.477-0.105,1.398,0.974
	c-0.08,1.079-1.188,0.77-1.563,0.734l-0.887-0.073L103.852,42.817z M125.552,43.012l-4.196,8.23l5.314,2.913l1.052-1.735
	l-3.392-1.792l3.31-6.616L125.552,43.012z M114.765,38.975l-2.862,8.78l5.914,1.915l0.59-1.855l-3.853-1.161l0.503-1.75l3.27,1.037
	l0.632-1.784l-3.167-1.079l0.486-1.635l3.841,1.29l0.598-1.828L114.765,38.975z M101.276,46.265L105,46.654
	c0.527,0.058,1.873,0.049,2.609-0.653c0.756-0.727,0.963-1.801,0.667-2.707c-0.207-0.622-0.323-0.693-0.77-1.118
	c0.583-0.33,1.412-0.668,1.395-2.116c-0.007-2.197-2.549-2.612-2.957-2.671l-3.686-0.387L101.276,46.265z M51.847,55.158
	l1.181-1.132l-1.079-1.319l-1.262,1.188L51.847,55.158z M52.817,51.786l1.241-1.237l1.209,1.298l-1.237,1.149L52.817,51.786z
	 M64.328,49.108l1.058-0.688c0.384-0.26,0.809-0.362,1.34-0.151c0.354,0.136,0.713,0.566,1.002,0.998
	c0.288,0.411,1.051,1.543,1.101,1.867c0.108,0.653-0.117,1.166-0.599,1.491l-1.064,0.688L64.328,49.108z M86.912,39.965l1.375-0.221
	c0.576-0.102,1.051,0.253,1.132,0.698c0.192,0.777-0.472,1.171-0.773,1.23l-1.417,0.138L86.912,39.965z M104.297,39.133l0.834,0.021
	c0.189,0.014,1.385-0.056,1.317,1.023c-0.049,0.872-1.106,0.721-1.483,0.682l-0.885-0.077L104.297,39.133z M133.286,55.214
	l0.569-0.654l0.749,0.654h2.988l-2.534-2.238l1.092-1.368l2.952,2.635l1.39-1.687l-4.865-3.944l-5.408,6.602H133.286z
	 M76.525,55.214c6.44-3.254,13.72-5.076,21.422-5.076c7.705,0,14.979,1.822,21.423,5.063l-4.52,0.014
	c-5.234-2.082-10.935-3.217-16.903-3.217c-5.983,0-11.698,1.144-16.929,3.224L76.525,55.214z M68.195,55.214l1.526-1.03
	c1.079-0.734,1.275-1.829,1.254-2.85c-0.017-0.97-0.823-2.269-1.853-3.691c-0.488-0.673-0.893-1.118-1.216-1.305
	c-1.41-0.829-2.597-0.527-3.291-0.059l-3.36,2.27l4.485,6.665H68.195z M59.938,55.214l-3.016-3.241l-1.613,1.47l1.641,1.771H59.938z
	 M37.99,55.214c13.347-18.696,35.231-30.891,59.957-30.891c24.727,0,46.604,12.194,59.952,30.891h-4.542
	c-12.791-16.563-32.855-27.235-55.41-27.235c-22.554,0-42.617,10.672-55.408,27.242L37.99,55.214z"/>
</svg>
