<?xml version="1.0" encoding="UTF-8" standalone="no"?>
<!-- Created with Inkscape (http://www.inkscape.org/) -->

<svg
   xmlns:dc="http://purl.org/dc/elements/1.1/"
   xmlns:cc="http://creativecommons.org/ns#"
   xmlns:rdf="http://www.w3.org/1999/02/22-rdf-syntax-ns#"
   xmlns:svg="http://www.w3.org/2000/svg"
   xmlns="http://www.w3.org/2000/svg"
   xmlns:sodipodi="http://sodipodi.sourceforge.net/DTD/sodipodi-0.dtd"
   xmlns:inkscape="http://www.inkscape.org/namespaces/inkscape"
   width="306.34241"
   height="306.34241"
   viewBox="0 0 81.053093 81.053098"
   version="1.1"
   id="svg8"
   inkscape:version="0.92.3 (2405546, 2018-03-11)"
   sodipodi:docname="belediye_fatih.svg">
  <defs
     id="defs2" />
  <sodipodi:namedview
     id="base"
     pagecolor="#ffffff"
     bordercolor="#666666"
     borderopacity="1.0"
     inkscape:pageopacity="0.0"
     inkscape:pageshadow="2"
     inkscape:zoom="0.7"
     inkscape:cx="-456.77174"
     inkscape:cy="342.2759"
     inkscape:document-units="px"
     inkscape:current-layer="layer1"
     showgrid="false"
     units="px"
     showborder="false"
     inkscape:window-width="1920"
     inkscape:window-height="1017"
     inkscape:window-x="-8"
     inkscape:window-y="-8"
     inkscape:window-maximized="1"
     fit-margin-top="0"
     fit-margin-left="0"
     fit-margin-right="0"
     fit-margin-bottom="0" />
  <metadata
     id="metadata5">
    <rdf:RDF>
      <cc:Work
         rdf:about="">
        <dc:format>image/svg+xml</dc:format>
        <dc:type
           rdf:resource="http://purl.org/dc/dcmitype/StillImage" />
        <dc:title></dc:title>
      </cc:Work>
    </rdf:RDF>
  </metadata>
  <g
     inkscape:label="Layer 1"
     inkscape:groupmode="layer"
     id="layer1"
     transform="translate(-216.49726,-145.34845)">
    <g
       id="Layer1000"
       transform="matrix(0.26458333,0,0,0.26458333,172.64879,129.625)">
      <path
         inkscape:connector-curvature="0"
         id="path812"
         style="fill:#ad1f2d;fill-rule:evenodd"
         d="M 318.8976,59.4272 A 153.1712,153.1712 0 0 1 472.0689,212.5984 153.1712,153.1712 0 1 1 318.8976,59.4272 Z" />
      <path
         inkscape:connector-curvature="0"
         id="path814"
         style="fill:#ad1f2d;fill-rule:evenodd"
         d="m 207.0573,264.3055 c -5.592,0 -10.1251,5.6245 -10.1251,12.5626 v 23.6293 h 20.2501 v -23.6293 c 0,-6.9381 -4.5331,-12.5626 -10.125,-12.5626 z" />
      <path
         inkscape:connector-curvature="0"
         id="path816"
         style="fill:#ffffff;fill-rule:evenodd"
         d="M 318.8981,72.3319 A 140.2669,140.2669 0 0 1 459.165,212.5989 140.2669,140.2669 0 1 1 318.8981,72.3319 Z" />
      <path
         inkscape:connector-curvature="0"
         id="path818"
         style="fill:none"
         d="m 178.6314,212.599 c 27.6375,-0.2469 55.2753,-0.4941 82.9128,-0.741 0,0 1.1418,-3.0784 5.7042,-3.8908 0,-1.3334 0,-2.6666 0,-4 0.349,-0.3674 0.6976,-0.7344 1.0466,-1.1018 0,0 2.0624,-5.8125 7.6875,-3.8438 0,0 1.9999,0.8751 3.2188,3.0937 0.2812,-0.2083 0.5626,-0.4167 0.8438,-0.625 0,-2.219 0,-4.4376 0,-6.6566 1.3128,0 2.6252,0 3.9379,0 0,0 6.7513,-24.8125 31.0014,-26.5626 0,-1.0366 0,-2.073 0,-3.1096 0.5791,-0.3345 1.1582,-0.6687 1.7374,-1.0032 0,-0.2803 0,-0.5604 0,-0.8408 0,0 -2.1938,-2.0559 0,-4.2497 0,-0.6355 0,-1.2707 0,-1.9063 0,0 -3.6134,-1.9992 -1.4882,-4.4682 0,0 -0.2189,3.1558 2.1563,3.3123 0,0 2.8755,0.4688 2.219,-3.2499 0,0 2.5622,2.2186 -1.3128,4.3749 0,0.6041 0,1.2085 0,1.8125 0,0 2.5155,1.9222 0,4.4377 0,0.2395 0,0.4793 0,0.7188 0.7186,0.415 1.4372,0.8297 2.1558,1.2447 0,0.8663 0,1.7328 0,2.5991 0,0 17.5306,1.0006 27.4683,18.1259 0,-0.5052 0,-1.0106 0,-1.5157 -0.2787,-0.2787 -0.5573,-0.5573 -0.836,-0.836 0,-1.5026 0,-3.005 0,-4.5076 0.4397,0 0.8793,0 1.319,0 0,-3.8543 0,-7.7083 0,-11.5625 -0.8467,-0.4887 -1.6932,-0.9777 -2.5399,-1.4664 0,-1.6362 0,-3.2726 0,-4.9088 0.6381,0 1.2759,0 1.914,0 0,-3.5625 0,-7.1248 0,-10.6874 0.9099,-3.3962 1.8201,-6.7921 2.73,-10.1883 0,-3.1456 0,-6.2915 0,-9.4371 0.347,0.347 0.6942,0.6942 1.0412,1.0412 0,2.6739 0,5.3475 0,8.0214 0.9678,3.6114 1.9352,7.223 2.903,10.8343 0,3.5351 0,7.0702 0,10.6053 0.7123,0 1.4247,0 2.137,0 0,1.7084 0,3.4166 0,5.125 -0.665,0.3838 -1.3297,0.7679 -1.9947,1.1518 0,3.8035 0,7.6073 0,11.4108 0.6233,0 1.2464,0 1.8697,0 0,1.5835 0,3.1666 0,4.75 -0.4062,0.4062 -0.8127,0.8127 -1.2189,1.2189 0,1.2603 0,2.5209 0,3.7812 0,2.063 0,4.1261 0,6.1891 0.843,0.226 1.686,0.4519 2.5291,0.6778 0,0.4408 0,0.8816 0,1.3224 1.7413,-0.4666 3.4826,-0.9332 5.2239,-1.3998 0,-4.5961 0,-9.1919 0,-13.788 -0.4294,-0.248 -0.8589,-0.4958 -1.2883,-0.7438 0,-1.7728 0,-3.5459 0,-5.3186 0.3345,0 0.6693,0 1.0037,0 0,-3.896 0,-7.7916 0,-11.6876 -0.4141,-0.2389 -0.8282,-0.4782 -1.2424,-0.7171 0,-1.5942 0,-3.1887 0,-4.7829 0.6432,0 1.2867,0 1.9298,0 0,-3.9583 0,-7.9169 0,-11.8752 0.6877,-3.3749 1.3751,-6.7502 2.0628,-10.1251 0,-2.7082 0,-5.4167 0,-8.1249 0.3365,1.2563 0.6732,2.5123 1.0097,3.7686 0,1.3479 0,2.6961 0,4.0439 1.1427,3.4583 2.285,6.9169 3.4277,10.3751 0,4 0,8 0,11.9999 0.4583,0 0.9167,0 1.3751,0 0,1.5835 0,3.1666 0,4.75 -0.5001,0.3751 -1.0001,0.7501 -1.5001,1.1251 0,4.0417 0,8.0836 0,12.1252 0.5833,0 1.1667,0 1.7501,0 0,1.3125 0,2.6249 0,3.9373 -0.4584,0.4584 -0.9168,0.9168 -1.3751,1.3751 0,4.8957 0,9.7917 0,14.6875 0,0 6.7504,3.8128 9.688,7.6878 0.604,0 1.2084,0 1.8124,0 0,-1.2708 0,-2.5418 0,-3.8126 0,0 8.5621,-0.9377 8.4374,3.875 1.6041,0 3.2085,0 4.8126,0 0,-1.8542 0,-3.7083 0,-5.5625 -0.4374,0 -0.875,0 -1.3124,0 0,-0.4374 0,-0.875 0,-1.3124 3.4166,-1.2291 6.8335,-2.4585 10.25,-3.6876 3.0416,1.2501 6.0835,2.4999 9.1251,3.75 -0.021,0.5833 -0.0417,1.1667 -0.0627,1.7501 -0.2917,0.0207 -0.5834,0.0416 -0.875,0.0623 0,1.0625 0,2.1252 0,3.1876 4.1666,0 8.3335,0 12.5002,0 0,-0.4584 0,-0.9167 0,-1.3751 -1.7708,-1.7708 -3.5416,-3.5419 -5.3124,-5.3127 0,-1.5208 0,-3.0416 0,-4.5624 1.8958,-1.8958 3.7916,-3.7916 5.6874,-5.6874 1.1041,0 2.2082,0 3.3123,0 0,0 1.8127,2.0625 4.5626,3.0626 0,0 0.125,3.5625 0.5001,8.5626 -1.4375,0.9584 -2.8752,1.9165 -4.3127,2.8749 0,0.7084 0,1.4167 0,2.1251 2.1668,0 4.3334,0 6.5002,0 0,-0.4584 0,-0.9167 0,-1.3751 4.1876,0 8.3749,0 12.5625,0 0,2.0835 0,4.1667 0,6.2501 3.6791,0 7.3582,0 11.0373,0" />
      <path
         inkscape:connector-curvature="0"
         id="path820"
         style="fill:#ad1f2d;fill-rule:evenodd"
         d="m 261.2009,211.6854 -83.4094,0.7454 c 0,25.2713 6.6474,48.9882 18.2851,69.5035 v -4.8497 c 0,-6.9796 4.5603,-12.6378 10.1857,-12.6378 5.6254,0 10.1857,5.6582 10.1857,12.6378 v 23.7708 h -7.5077 c 25.8644,32.1217 65.507,52.6818 109.9579,52.6818 77.9309,0 141.1064,-63.1755 141.1064,-141.1064 0,-1.8139 -0.0342,-3.6201 -0.1021,-5.4175 h -11.1033 v -6.2875 h -12.6378 v 1.3833 h -6.539 v -2.1378 l 4.3384,-2.8921 c -0.3772,-5.03 -0.503,-8.6139 -0.503,-8.6139 -2.7663,-1.0061 -4.5899,-3.0809 -4.5899,-3.0809 h -3.3322 l -5.7214,5.7215 v 4.5897 l 5.3442,5.3444 v 1.3834 h -12.5751 v -3.2067 l 0.8803,-0.0627 0.063,-1.7606 -9.1796,-3.7724 -10.3114,3.7097 v 1.3203 h 1.3203 v 5.5957 h -4.8415 c 0.1255,-4.8415 -8.4878,-3.8982 -8.4878,-3.8982 v 3.8355 h -1.8233 c -2.9552,-3.8982 -9.746,-7.7339 -9.746,-7.7339 v -14.7754 l 1.3833,-1.3833 v -3.9609 h -1.7606 v -12.1977 l 1.5091,-1.1319 v -4.7784 h -1.3833 v -12.0717 l -3.4482,-10.4372 v -4.0681 l -1.0157,-3.7913 v 8.1736 l -2.0752,10.1857 v 11.9463 h -1.9413 v 4.8115 l 1.2498,0.7214 v 11.7575 h -1.0097 v 5.3505 l 1.296,0.7483 v 13.8705 l -5.2552,1.4081 v -1.3302 l -2.5442,-0.6819 v -6.2262 -3.8037 l 1.2262,-1.2262 v -4.7785 h -1.881 v -11.4792 l 2.0067,-1.1586 v -5.1557 h -2.1498 V 150.3187 L 351.744,139.4195 V 131.35 l -1.0474,-1.0474 v 9.4936 l -2.7464,10.2493 v 10.7514 h -1.9254 v 4.9382 l 2.555,1.4751 v 11.6317 h -1.3268 v 4.5347 l 0.8409,0.8409 v 1.5248 c -9.9972,-17.2278 -27.6327,-18.2344 -27.6327,-18.2344 v -2.6146 l -2.1687,-1.2522 v -0.7231 c 2.5306,-2.5306 0,-4.4642 0,-4.4642 v -1.8234 c 3.8982,-2.1692 1.3206,-4.4011 1.3206,-4.4011 0.6605,3.741 -2.2322,3.2693 -2.2322,3.2693 -2.3894,-0.1574 -2.1692,-3.3321 -2.1692,-3.3321 -2.1379,2.4838 1.497,4.495 1.497,4.495 v 1.9177 c -2.2068,2.2069 0,4.2752 0,4.2752 v 0.8458 l -1.7477,1.0091 v 3.1283 c -24.3953,1.7606 -31.187,26.7216 -31.187,26.7216 h -3.9614 v 6.6964 l -0.849,0.6288 c -1.2261,-2.2319 -3.238,-3.1122 -3.238,-3.1122 -5.6587,-1.9805 -7.7335,3.8667 -7.7335,3.8667 l -1.0529,1.1085 v 4.0239 c -4.5896,0.8173 -5.7383,3.9141 -5.7383,3.9141 z m -54.9386,11.3902 c 5.6254,0 10.1857,5.6582 10.1857,12.6378 v 23.7708 h -20.3714 v -23.7708 c 0,-6.9796 4.5603,-12.6378 10.1857,-12.6378 z m 40.8682,0 c 5.6254,0 10.1857,5.6582 10.1857,12.6378 v 23.7708 h -20.3714 v -23.7708 c 0,-6.9796 4.5603,-12.6378 10.1857,-12.6378 z m 0,41.3712 c 5.6254,0 10.1857,5.6582 10.1857,12.6378 v 23.7708 h -20.3714 v -23.7708 c 0,-6.9796 4.5603,-12.6378 10.1857,-12.6378 z m 40.8682,0 c 5.6254,0 10.1857,5.6582 10.1857,12.6378 v 23.7708 H 277.813 v -23.7708 c 0,-6.9796 4.5603,-12.6378 10.1857,-12.6378 z" />
      <path
         inkscape:connector-curvature="0"
         id="path822"
         style="fill:#ffffff;fill-rule:evenodd"
         d="m 300.522,242.621 c -2.3612,0.8283 -1.9624,-2.9687 -3.5929,-2.9375 -2.5497,0.0487 -4.1068,1.9031 -6.4017,-2.6465 -0.3595,-0.7126 -2.7117,-2.2476 -3.3483,-2.3697 -1.8457,-0.3544 -0.9371,-1.4111 -5.209,-1.5409 -2.1268,-0.0647 -1.25,-1.2427 -4.9019,-1.1929 -1.6373,0.0224 -1.6013,-0.9989 -4.4839,-0.875 -1.6262,0.0697 -1.0216,-0.6446 -3.509,-0.2767 -0.8954,0.1324 -5.9505,-0.3696 -6.6892,-0.7806 -1.1942,-0.6645 -0.4232,-1.1855 -2.6144,0.1357 -0.3061,0.1846 -0.7035,1.5469 -1.123,1.8596 0.1394,0.3084 1.1443,2.2189 1.1466,2.2286 0.0164,0.003 1.5196,0.6562 1.8533,0.7716 1.9238,1.2863 1.4278,-0.5236 3.327,-1.1041 1.4318,-0.438 0.0703,-0.6242 1.9213,0.6658 2.6969,1.101 6.8199,-0.7622 7.9537,0.807 0.3975,0.5503 6.473,1.37 7.75,2.1768 1.8017,1.1387 0.352,-0.3013 1.7285,1.4539 0.563,0.7177 1.2201,0.8005 1.3748,2.0052 0.008,0.0618 0.8232,0.6831 0.8697,0.6928 0.561,2.4446 0.2415,2.7558 -1.4321,2.5571 -0.8617,-0.1023 -6.0338,-2.2524 -7.4429,-2.6464 -2.0072,-0.5613 -16.2394,-0.447 -16.2394,-0.1089 0,2.8123 0.5239,3.0246 2.0789,5.1251 0.4627,0.625 1.929,-1.5086 3.7284,-1.4375 0.7603,0.0301 0.9309,-0.4376 2.1929,-0.4376 1.1917,1.0876 2.9795,3.3607 4.2194,1.6089 0.5749,-0.8121 1.9001,-0.8589 2.8432,-0.8589 2.5321,0.8459 1.6508,1.1016 4.8016,1.1928 0.1989,0.006 6.7475,2.0186 7.0591,2.1983 3.6204,2.0877 4.9014,5.5899 8.3894,8.0464 0.3719,0.2619 4.8883,4.714 5.1463,5.1251 0.4955,0.79 2.4392,2.0829 3.0821,3.2555 0.3078,0.5613 2.9401,0.0199 4.1927,2.723 0.2072,0.447 6.0078,5.0624 6.6575,5.1466 0.8393,0.1088 0.8804,1.1645 3.7766,1.1251 1.1973,0.0859 3.2799,2.4828 5.0306,2.8071 1.0452,0.1936 2.6286,3.1303 0.1196,3.1303 -4.119,0 -2.0196,-0.3305 -3.7394,2.0787 -0.6117,0.8566 2.8131,1.5463 3.5626,1.5463 1.6775,0 6.298,0.801 7.3323,-0.3751 0.0624,-0.0708 0.4853,-2.2215 0.6517,-2.5625 1.1228,0.7124 1.6985,-0.3452 2.8123,0.7966 0.6344,0.6502 8.3324,2.7504 9.4841,2.5679 2.0339,-0.3226 1.5846,-0.4269 3.9019,-0.4269 2.7587,0 3.8217,0.115 6.1033,2.1413 0.3132,0.2777 3.5785,4.1388 3.5734,4.3123 -0.0338,1.1239 3.384,5.6716 5.0054,5.6716 5.6738,0 3.5552,-0.3215 8.7038,1.5998 1.4071,0.5253 2.1492,0.1384 3.0035,0.5715 0.7966,0.4039 7.2128,1.9851 7.35,2.5787 1.8694,0.7186 3.5631,0.5077 5.307,1.891 0.6197,0.4915 7.5141,1.5327 10.6305,3.7176 3.6958,2.5914 6.1175,4.2613 9.5304,7.2037 0.7631,0.6582 3.4058,2.1659 3.3446,2.9375 0.2843,0.1423 3.34,-0.0258 4.3588,0.1661 3.4328,0.6469 1.9655,-0.3021 1.4428,-2.3374 -0.3591,-1.3986 -1.3056,-1.6455 -1.9944,-3.5053 -1.1174,-3.0169 -3.769,-0.197 -3.8699,-0.1985 -4.3055,0 -0.0348,-1.6469 -3.1785,-3.141 -0.9966,-0.4737 -0.9365,0.9646 -3.1178,-1.0055 -0.2064,-0.1862 -2.7796,-0.9947 -3.9535,-1.9159 -0.0689,-0.0539 -0.2919,-0.1588 -0.375,-0.1874 -1.1738,-0.428 -7.7012,-5.1613 -8.0841,-6.2963 -0.3521,-1.0437 -0.1471,-1.6149 -0.2393,-1.8805 -1.0057,-0.3492 -1.6741,-0.11 -2.9267,-0.75 -1.103,-0.5639 -0.8952,0.9496 -4.218,-1.6249 -1.9193,-1.4873 -5.603,-1.4099 -5.4071,-3.8287 0.1182,-1.4616 -1.0034,-2.9809 0.6928,-3.9107 0.0352,-0.0193 1.6274,-2.6787 1.6197,-3.1056 -0.0371,-2.0673 1.1447,-4.3013 3.6196,-3.0357 3.0319,1.5506 2.0208,2.7284 6.302,2.6198 0.2593,-0.007 8.8064,2.1288 9.225,2.4321 2.4565,1.7796 3.5969,2.215 6.3698,3.2145 4.0118,1.446 1.7251,1.2909 6.4675,1.2909 1.5786,0 7.5966,0.4079 8.4342,-0.3072 0.4558,-0.3892 1.7822,-0.6846 1.957,-1.1929 -0.2432,-0.5845 -1.3855,-1.6174 -2.4321,-1.2036 -1.161,0.4595 -3.0132,-1.6557 -5.5678,-1.4785 -2.23,0.1545 -4.0119,-3.0507 -6.0463,-3.1876 -1.0624,-0.0717 -4.2072,-2.0046 -4.6199,-2.0052 -0.8337,-1.1129 0.051,-1.0596 -1.8283,-1.7447 -0.5497,-0.2004 -2.4373,-3.0736 -4.7271,-3.1249 -2.1328,-0.0479 -2.3363,-2.0421 -3.9713,-0.959 -0.0289,0.0193 -3.754,-0.1029 -6.05,1.3802 -1.2674,0.8186 -3.4084,0.5485 -4.2106,1.1197 -0.3433,0.2446 -1.0638,0.0768 -1.4216,-0.1089 -1.3413,-1.9125 -0.5428,-0.7639 -1.4695,-2.7819 -0.1992,-0.4337 -1.8717,-2.3947 -2.2697,-3.1306 -0.0207,0.002 -4.0507,-2.3833 -4.3537,-2.8105 -1.2512,-1.7652 -2.5554,-0.6704 -4.4841,-2.3806 -0.3209,-0.2846 -3.6213,-1.9003 -3.7409,-1.9071 -0.57,-0.032 -5.36,-3.581 -6.266,-4.2608 -0.1431,0.0757 -0.9847,-2.0576 -2.4162,-2.5248 -0.5766,-0.1882 -0.7243,-1.3017 0.343,-2.0786 2.3003,-1.6747 0.8756,-5.1693 2.141,-5.8913 1.5562,-0.8878 2.2167,-1.3376 3.7196,-2.4052 0.3883,-0.2761 3.5339,0.7132 4.7392,0.7285 2.8738,0.0369 3.915,1.2966 6.3125,-0.625 0.0142,-0.0116 3.7128,-1.2226 4.3126,-1.5001 1.6872,-0.7801 3.8047,-1.4111 5.3859,-2.416 1.0077,-0.6406 8.6969,0.3342 10.1143,-0.3123 0.5558,-0.2537 5.6162,-0.2937 7.7088,-0.7878 1.6228,-0.383 3.7074,0.1956 5.7858,-0.6035 1.957,-0.2429 0.0235,-4.172 4.375,-4 2.1186,0.0837 4.3801,-3.0614 3.7661,-5.4785 -0.7589,-2.986 -0.7538,-0.9524 -1.7447,-2.1464 -0.4788,-0.5771 -6.522,1.6169 -8.1465,1.6821 -6.1518,0.2469 -4.6027,-1.2586 -5.9998,-1.4947 -2.4126,-0.4076 -3.6675,1.62 -5.3913,0.5162 -0.4223,-0.2707 -0.7347,0.121 -1.9051,-1.3859 -1.467,-1.8884 -2.323,-0.2197 -4.0164,-0.0731 -1.2416,0.1074 -1.5245,0.7554 -4.4232,0.7554 -1.4003,0 -2.2309,0.1497 -3.5983,-0.3019 -0.5789,-0.1913 -3.2508,-0.2219 -4.1658,0.1769 -2.2555,0.9831 -7.0234,4.4666 -9.0057,3.1711 -0.083,-0.0544 -0.8081,-1.3631 0.4431,-1.7963 0.4323,-0.1496 0.8515,-0.6982 1,-1.1248 0.0451,-1.3972 -2.6251,-0.2029 -2.6251,-1.0627 0,-3.9109 -0.2115,-1.0329 2.7501,-3.3125 1.6334,-1.2572 0.9151,-1.0018 1.9375,-1.9214 0.8955,-0.8056 0.6424,-3.2082 0.2962,-4.3767 -0.0892,-0.3021 -2.8695,-1.3646 -3.5767,-2.55 -0.0145,-0.0244 -2.5744,-2.0135 -2.9534,-1.4644 -0.961,1.3915 -4.7305,0.3918 -6.1574,1.8071 -0.7149,0.7095 -3.1595,3.0623 -1.2963,3.8588 0.5848,0.25 0.2256,2.0248 -0.6143,2.2198 -0.0428,0.1848 -1.1251,0.8439 -0.1358,1.7394 0.2903,1.5684 -1.9335,2.7586 -0.9212,3.1141 1.182,0.4156 1.883,-0.4966 1.7393,1.4485 -0.053,0.7186 -2.2192,0.1072 -2.9537,1.2552 -0.4323,0.676 -5.472,2.8236 -6.6501,3.6252 -1.1086,0.7543 -1.1336,0.419 -1.8394,0.307 -0.2642,-1.5384 -0.0774,-3.9467 -0.6086,-5.4482 -0.5335,-1.5075 0.7019,-1.2583 -1.4539,-1.9893 -0.4949,-0.1679 0.398,-1.7198 -0.5839,-2.7856 -0.4895,-0.5318 -1.186,-2.3775 -2.109,-3.4019 -0.3217,-0.3575 0.1877,-2.2992 0.1877,-2.3125 -1.3624,-0.1395 -3.8648,-1.4366 -1.1466,-1.8179 0.0124,-0.0207 -2.1331,-3.0571 -3.0926,-3.0571 -1.2666,0 -1.4429,0.6003 -1.4429,-1.9375 0,-1.5778 -2.461,-0.1205 -2.916,0.6928 -0.7322,1.3084 -2.3839,0.7446 -4.1465,0.7446 -2.6121,0 -2.0752,0.4116 -3.7307,0.5055 -2.844,0.1612 -3.5597,2.2444 -6.957,2.2444 0.0771,0.4507 -1.7765,1.3241 -2.9376,0.9539 -1.2297,-0.3923 -2.001,0.7395 -3.7661,-0.375 -0.2704,-0.171 -3.3857,0.8614 -3.4106,0.8642 -0.1795,1.217 -0.4476,1.2357 -0.3856,2.8072 6e-4,0.0133 -2.508,1.8584 0.709,1.6302 0.6296,-0.0448 0.3421,-0.5678 2.291,-0.5678 1.5757,0.9034 1.2948,1.9636 -0.5412,2.4783 -1.3751,0.3858 -2.5254,3.2945 0.6662,2.1629 1.1786,-0.4181 1.6047,1.6126 3.8911,0 0.5527,-0.3901 2.0007,0.2701 1.9213,1.2339 -0.0176,0.2126 1.3184,1.1129 0.6928,2.5679 -1.0131,2.3562 -5.5341,4.231 -7.2091,6.9625 -0.5502,0.8974 -1.7164,2.0945 -2.8587,2.0945 -2.6567,0 -2.6464,-0.004 -4.9428,1.4839 -0.008,0.005 -1.2983,1.3264 -1.7393,1.6572 -0.1798,0.1346 -1.1498,0.8586 -1.1929,1.0465 z m 18.7495,-18.3127 c -0.0827,0.4125 -0.5845,0.2645 -0.5026,2.0829 0.0222,0.4933 0.9559,0.7019 1.4454,1.4483 0.4391,0.6695 3.6323,0.1876 4.5939,0.1876 0.9663,0 2.035,0.4961 1.8096,-1.0341 -0.0269,-0.1839 -1.669,-1.6497 -2.0392,-1.7892 -2.115,-0.7968 -2.4673,-1.1398 -4.8643,-0.773 -0.197,0.0301 -0.4,0.0649 -0.5992,0.0649" />
      <path
         inkscape:connector-curvature="0"
         id="path824"
         style="fill:#ad1f2d;fill-rule:evenodd"
         d="m 428.245,156.2902 c 1.1894,2.1943 3.9356,2.9239 6.0959,1.7529 2.1943,-1.1891 2.8893,-3.9172 1.7186,-6.0775 -1.1523,-2.1257 -3.8829,-2.9077 -6.0086,-1.7555 -2.1946,1.1895 -2.9767,3.9201 -1.8059,6.0801 z m -18.0497,14.0862 18.1038,-9.8124 -3.6425,-6.7204 -18.1038,9.8127 z m -11.7901,-21.1785 c 0.3694,1.9939 1.139,3.9597 2.2467,5.6585 3.0252,4.6386 8.7716,5.4541 13.345,2.4718 1.8623,-1.2143 2.8919,-2.4914 3.4914,-3.9997 0.6208,-1.4754 0.811,-3.1827 0.8751,-5.2265 0.0598,-0.551 0.0666,-1.254 0.2245,-1.8689 0.1576,-0.6151 0.4235,-1.2072 0.9459,-1.5483 0.9473,-0.6176 2.1206,-0.0326 2.632,0.7515 1.0012,1.5353 0.6403,4.0521 -0.0899,5.6458 l 7.4809,-4.8784 c -0.1647,-1.8947 -0.8036,-3.9456 -1.8476,-5.5463 -3.7066,-5.684 -10.1265,-4.1052 -13.0011,-2.2306 -1.7969,1.1716 -2.8281,2.5892 -3.4387,4.1513 -0.6222,1.6164 -0.824,3.3775 -0.9845,5.3448 -0.0173,0.6165 -0.0555,1.2002 -0.2231,1.7282 -0.1465,0.5613 -0.4433,1.0341 -1.0315,1.4177 -1.0777,0.7029 -2.3151,0.0195 -2.9115,-0.8949 -1.1077,-1.6988 -0.7795,-4.1945 -0.004,-6.0035 z m -11.9979,-11.935 10.3005,10.6007 4.9788,-4.8379 -4.7563,-4.8946 3.2165,-3.1257 4.267,4.3911 4.9788,-4.8376 -4.267,-4.3911 2.9367,-2.8539 4.7562,4.8948 4.9788,-4.8379 -10.3005,-10.6007 z m -2.9877,-2.6626 7.6861,-9.8325 15.8321,-9.1077 -6.4834,-5.0681 -7.778,5.4539 -0.0615,-0.0482 3.4455,-8.8404 -6.5138,-5.0919 -4.7091,17.8024 -7.6859,9.8325 z m -3.3735,-29.8239 c 2.1699,1.2337 4.8863,0.4009 6.101,-1.7351 1.2336,-2.1696 0.3812,-4.8526 -1.7547,-6.0669 -2.1019,-1.1954 -4.8331,-0.4156 -6.0281,1.6866 -1.234,2.1699 -0.4542,4.9011 1.6818,6.1154 z m -7.8727,21.4997 10.1781,-17.9008 -6.645,-3.778 -10.1781,17.9005 z M 362.698,96.8227 c 3.392,1.2841 2.4015,5.6628 1.2694,8.6539 -0.9802,2.5897 -3.1652,6.5996 -6.5713,5.3521 z m -15.2555,17.8277 6.4925,2.4576 c 4.5227,1.7121 12.9526,3.5685 17.7573,-9.1244 3.1479,-8.3158 0.6044,-15.3672 -7.8573,-18.5704 l -5.982,-2.2643 z m -14.5769,-3.4427 14.4185,3.2544 1.5284,-6.7716 -6.6574,-1.5027 0.9875,-4.375 5.9726,1.3482 1.5285,-6.7717 -5.9726,-1.3482 0.9017,-3.9946 6.6574,1.503 1.5285,-6.7717 -14.4182,-3.2545 z m -1.2421,-0.0995 0.5244,-6.9222 -5.9499,-0.4507 1.6968,-22.3997 -7.9333,-0.6009 -2.2212,29.3218 z m -30.246,0.1584 14.7388,-1.1165 -0.5241,-6.9222 -6.8055,0.5156 -0.3387,-4.4722 6.1053,-0.4626 -0.5244,-6.9222 -6.1053,0.4626 -0.3093,-4.0833 6.8054,-0.5157 -0.5244,-6.9222 -14.7387,1.1166 z m -16.6362,-14.3101 -1.427,-4.8651 0.7487,-0.2197 c 1.5715,-0.4609 2.9403,-0.0898 3.4341,1.5942 0.538,1.8335 -0.735,2.8979 -2.3065,3.3588 z m 3.2712,11.1521 -1.5917,-5.4264 0.5987,-0.1757 c 1.7592,-0.516 3.4489,-0.1579 4.0088,1.7506 0.5598,1.9086 -0.6954,3.1709 -2.3795,3.6649 z m -5.8451,8.3395 10.2541,-3.0079 c 6.8111,-1.9978 7.5673,-7.1781 6.5466,-10.6585 -1.1089,-3.7797 -3.7726,-5.5182 -7.6028,-4.72 l -0.0221,-0.0745 c 3.2184,-0.9442 4.5521,-4.0179 3.6193,-7.1989 -1.7896,-6.0999 -7.5994,-6.5092 -12.0901,-5.1919 l -8.9816,2.6342 z m -7.2363,3.1201 -14.3124,-25.6879 -6.9499,3.8725 5.125,9.1987 -3.3044,1.8411 -5.1253,-9.1987 -6.95,3.8724 14.3124,25.6878 6.95,-3.8724 -5.8082,-10.4247 3.3044,-1.8414 5.8085,10.425 z m -36.3427,-3.2599 c 1.8961,-1.6231 2.0336,-4.4611 0.436,-6.3277 -1.6231,-1.8964 -4.4362,-2.0041 -6.3028,-0.4065 -1.8369,1.5724 -2.0291,4.4061 -0.457,6.2433 1.6231,1.8964 4.4572,2.0885 6.3238,0.4909 z m 17.5573,14.6951 -13.3901,-15.6438 -5.807,4.9705 13.39,15.6439 z m -9.0043,7.9331 -16.1818,-15.2422 3.1286,-3.3214 -5.2237,-4.9203 -11.5787,12.2924 5.2237,4.9204 2.9951,-3.1796 16.1815,15.2419 z m -22.7208,12.1272 -5.2078,-4.5446 c -1.3884,-1.2361 -2.8724,-2.3941 -4.3027,-3.5642 l 0.0414,-0.0664 c 1.6577,0.8068 3.3276,1.6668 5.0057,2.4404 l 6.2419,2.8908 z m 15.446,-5.7966 -28.2413,-10.3 -5.1486,8.2338 21.1904,21.5756 4.3421,-6.9437 -2.8562,-2.5682 2.833,-4.5301 3.5178,1.5098 z m -14.1622,24.1977 -10.2285,-4.7339 2.3913,-5.1673 -6.3,-2.9157 -2.3913,5.1673 -3.858,-1.7856 2.5552,-5.5213 -6.3,-2.9157 -5.8969,12.7414 26.6864,12.3509 z" />
    </g>
  </g>
</svg>
