<?xml version="1.0" encoding="utf-8"?>
<!-- Generator: Adobe Illustrator 16.0.0, SVG Export Plug-In . SVG Version: 6.00 Build 0)  -->
<!DOCTYPE svg PUBLIC "-//W3C//DTD SVG 1.1//EN" "http://www.w3.org/Graphics/SVG/1.1/DTD/svg11.dtd">
<svg version="1.1" id="Layer_1" xmlns="http://www.w3.org/2000/svg" xmlns:xlink="http://www.w3.org/1999/xlink" x="0px" y="0px"
	 width="244.277px" height="96.205px" viewBox="0.844 0.781 244.277 96.205" enable-background="new 0.844 0.781 244.277 96.205"
	 xml:space="preserve">
<polyline fill="#AFCA0B" points="201.521,24.344 201.521,29.446 180.868,49.697 180.868,44.461 "/>
<polyline fill="#AFCA0B" points="228.465,26.482 228.465,31.154 209.553,49.695 209.553,44.902 "/>
<path d="M239.4,78.074l1.557-3.024h3.666l-1.559,3.024 M229.88,96.234l8.578-16.649h3.937l-8.576,16.649H229.88z M213.826,90.84
	l3.996-0.324c-0.334,1.098-0.286,1.898,0.148,2.414c0.438,0.516,1.25,0.771,2.44,0.771c1.258,0,2.325-0.229,3.2-0.688
	c0.873-0.457,1.47-0.99,1.785-1.604c0.203-0.396,0.238-0.729,0.115-1.008c-0.125-0.275-0.472-0.517-1.037-0.719
	c-0.386-0.139-1.303-0.379-2.752-0.728c-1.863-0.45-3.051-1-3.56-1.655c-0.718-0.919-0.733-2.039-0.052-3.359
	c0.437-0.85,1.129-1.647,2.066-2.389c0.942-0.738,2.037-1.302,3.291-1.688c1.254-0.388,2.621-0.581,4.114-0.581
	c2.431,0,4.026,0.461,4.774,1.387c0.754,0.928,0.762,2.159,0.027,3.706l-3.996,0.116c0.275-0.861,0.235-1.479-0.119-1.854
	c-0.354-0.377-1.078-0.565-2.174-0.565c-1.133,0-2.123,0.202-2.969,0.604c-0.546,0.261-0.932,0.605-1.154,1.039
	c-0.203,0.396-0.184,0.732,0.063,1.011c0.307,0.361,1.314,0.733,3.02,1.121c1.709,0.385,2.908,0.786,3.605,1.197
	c0.701,0.415,1.126,0.979,1.271,1.694c0.146,0.716-0.051,1.601-0.592,2.649c-0.49,0.953-1.261,1.851-2.311,2.684
	c-1.049,0.833-2.241,1.453-3.58,1.854c-1.342,0.407-2.855,0.609-4.545,0.609c-2.457,0-4.094-0.485-4.91-1.458
	C213.182,94.111,213.127,92.697,213.826,90.84z M194.141,96.234l8.578-16.649h14.391l-1.449,2.813h-10.453l-1.904,3.696h9.721
	l-1.449,2.814h-9.723l-2.322,4.512h10.834l-1.45,2.813H194.141L194.141,96.234z M181.307,96.234l3.61-7.008l-2.159-9.643h4.604
	l1.199,6.593l7.873-6.593h4.518l-12.108,9.666l-3.598,6.984H181.307L181.307,96.234z M178.216,78.074l1.558-3.024h3.666
	l-1.559,3.024H178.216z M168.695,96.234l8.578-16.649h3.938l-8.578,16.649H168.695z M160.462,82.398l-5.679,11.022h2.919
	c1.09,0,1.905-0.055,2.444-0.159c0.707-0.136,1.352-0.367,1.937-0.693c0.588-0.325,1.203-0.859,1.849-1.604
	c0.65-0.744,1.309-1.763,1.971-3.05s1.039-2.271,1.127-2.961c0.094-0.689-0.002-1.227-0.277-1.612
	c-0.277-0.384-0.744-0.647-1.406-0.782c-0.488-0.104-1.533-0.158-3.128-0.158h-1.756V82.398z M157.975,79.585h7.158
	c1.616,0,2.793,0.104,3.529,0.317c0.988,0.287,1.701,0.799,2.133,1.535c0.438,0.731,0.589,1.631,0.467,2.696
	c-0.128,1.063-0.592,2.376-1.394,3.935c-0.707,1.373-1.513,2.551-2.423,3.543c-1.109,1.214-2.309,2.193-3.594,2.94
	c-0.973,0.57-2.117,1.013-3.437,1.33c-0.985,0.236-2.2,0.353-3.647,0.353h-7.371L157.975,79.585z M131.458,96.234l8.579-16.649
	h14.39l-1.45,2.813h-10.451l-1.905,3.696h9.72l-1.449,2.814h-9.721l-2.324,4.512h10.834l-1.449,2.813H131.458L131.458,96.234z
	 M115.154,96.234l8.507-16.51h3.937l-7.057,13.696h9.748l-1.45,2.813H115.154L115.154,96.234z M97.108,96.234l8.578-16.649h14.391
	l-1.45,2.813h-10.453l-1.905,3.696h9.72l-1.45,2.814h-9.72l-2.324,4.512h10.833l-1.449,2.813H97.108L97.108,96.234z M85.36,88.957
	l-2.301,4.465h3.639c1.412,0,2.33-0.035,2.744-0.102c0.632-0.094,1.221-0.313,1.769-0.666c0.55-0.356,0.977-0.825,1.283-1.418
	c0.26-0.504,0.337-0.928,0.232-1.275c-0.101-0.35-0.381-0.604-0.833-0.764c-0.453-0.159-1.573-0.24-3.361-0.24H85.36z
	 M88.762,82.352l-1.977,3.84h2.571c1.525,0,2.485-0.021,2.876-0.061c0.704-0.064,1.335-0.263,1.89-0.593
	c0.554-0.329,0.965-0.759,1.241-1.294c0.266-0.518,0.312-0.93,0.147-1.252c-0.164-0.322-0.558-0.518-1.175-0.581
	c-0.37-0.039-1.477-0.06-3.319-0.06H88.762L88.762,82.352z M86.251,79.585h7.774c1.543,0,2.66,0.054,3.36,0.163
	c0.703,0.111,1.259,0.341,1.679,0.686c0.418,0.351,0.678,0.812,0.778,1.39c0.101,0.577-0.035,1.228-0.405,1.944
	c-0.399,0.774-1.013,1.492-1.835,2.141c-0.824,0.65-1.739,1.135-2.744,1.461c1.027,0.298,1.673,0.802,1.943,1.515
	c0.267,0.714,0.152,1.55-0.345,2.517c-0.392,0.76-0.974,1.496-1.756,2.213c-0.781,0.718-1.638,1.291-2.574,1.721
	c-0.93,0.427-1.944,0.689-3.041,0.791c-0.682,0.059-2.281,0.098-4.792,0.111h-6.62L86.251,79.585z"/>
<path d="M225.87,74.797l7.129-13.837h-5.757l1.449-2.813h15.422l-1.448,2.813h-5.729l-7.129,13.837 M210.947,65.193h2.904
	c1.885,0,3.092-0.07,3.633-0.207c0.535-0.135,1.029-0.371,1.463-0.704c0.438-0.333,0.785-0.752,1.044-1.252
	c0.288-0.563,0.344-1.013,0.176-1.36c-0.171-0.345-0.552-0.563-1.14-0.65c-0.303-0.039-1.246-0.06-2.834-0.06h-3.064L210.947,65.193
	z M202.063,74.797l8.578-16.648h8.269c2.077,0,3.511,0.149,4.298,0.447c0.792,0.299,1.27,0.83,1.441,1.594
	c0.172,0.768,0.006,1.641-0.5,2.625c-0.646,1.252-1.603,2.281-2.877,3.097c-1.273,0.813-2.813,1.325-4.625,1.538
	c0.629,0.423,1.086,0.888,1.371,1.396c0.291,0.509,0.567,1.41,0.832,2.705l0.698,3.248h-4.692l-0.941-3.635
	c-0.344-1.291-0.617-2.104-0.818-2.442c-0.199-0.334-0.474-0.564-0.826-0.688c-0.355-0.124-0.984-0.188-1.891-0.188h-0.797
	L206,74.797H202.063z M191.206,58.146h3.937l-4.646,9.021c-0.74,1.436-1.167,2.361-1.289,2.783
	c-0.184,0.682-0.074,1.232,0.339,1.643c0.415,0.415,1.165,0.621,2.251,0.621c1.1,0,2.031-0.193,2.794-0.586
	c0.763-0.391,1.345-0.868,1.75-1.438c0.407-0.569,0.951-1.512,1.63-2.83l4.748-9.215h3.938l-4.511,8.754
	c-1.029,2-1.863,3.414-2.502,4.24c-0.639,0.825-1.387,1.522-2.25,2.094c-0.858,0.568-1.852,1.019-2.976,1.354
	c-1.129,0.338-2.456,0.509-3.989,0.509c-1.852,0-3.16-0.183-3.927-0.551c-0.765-0.367-1.274-0.845-1.528-1.434
	c-0.252-0.59-0.3-1.202-0.143-1.85c0.234-0.953,0.834-2.363,1.795-4.229L191.206,58.146z M169.795,74.797l3.609-7.007l-2.159-9.644
	h4.603l1.201,6.593l7.872-6.593h4.517l-12.106,9.666l-3.599,6.983L169.795,74.797L169.795,74.797z M145.255,74.797l8.578-16.648
	h3.81l2.252,11.156l5.75-11.156h3.639l-8.578,16.648h-3.934l-2.238-10.945l-5.641,10.945H145.255z M127.316,74.797l8.578-16.648
	h14.391l-1.449,2.813h-10.454l-1.905,3.698h9.723l-1.45,2.813h-9.72l-2.325,4.512h10.834l-1.449,2.813H127.316z M111.127,69.402
	l3.996-0.326c-0.334,1.097-0.286,1.898,0.15,2.415c0.436,0.516,1.25,0.771,2.44,0.771c1.258,0,2.326-0.229,3.2-0.686
	s1.47-0.992,1.786-1.604c0.203-0.396,0.238-0.729,0.116-1.009c-0.125-0.274-0.473-0.515-1.039-0.717
	c-0.385-0.14-1.302-0.38-2.751-0.729c-1.864-0.447-3.051-1-3.56-1.653c-0.717-0.918-0.733-2.038-0.052-3.36
	c0.437-0.849,1.129-1.646,2.068-2.388c0.942-0.74,2.037-1.302,3.291-1.689c1.254-0.387,2.621-0.581,4.115-0.581
	c2.432,0,4.025,0.461,4.774,1.389c0.754,0.926,0.761,2.158,0.028,3.703l-3.998,0.117c0.275-0.859,0.236-1.477-0.117-1.853
	s-1.08-0.566-2.175-0.566c-1.132,0-2.123,0.201-2.968,0.604c-0.546,0.26-0.931,0.604-1.155,1.039
	c-0.204,0.395-0.183,0.731,0.063,1.012c0.307,0.359,1.315,0.732,3.021,1.12c1.708,0.383,2.908,0.787,3.604,1.198
	c0.701,0.414,1.126,0.976,1.272,1.691c0.146,0.717-0.051,1.602-0.592,2.651c-0.49,0.954-1.262,1.849-2.311,2.682
	s-2.242,1.454-3.581,1.857c-1.341,0.407-2.856,0.606-4.544,0.606c-2.458,0-4.095-0.482-4.911-1.457
	C110.483,72.673,110.428,71.258,111.127,69.402z M91.441,74.797l8.579-16.648h14.39l-1.45,2.813h-10.453l-1.905,3.698h9.72
	l-1.449,2.813h-9.72l-2.325,4.512h10.834l-1.45,2.813H91.441z"/>
<path fill="#009FE3" d="M227.842,11.368c-0.744-0.745-1.775-1.207-2.912-1.207c-1.14,0-2.17,0.462-2.916,1.207h0.002
	c-0.746,0.746-1.207,1.776-1.207,2.914c0,1.138,0.461,2.169,1.205,2.914c0.746,0.745,1.776,1.206,2.916,1.206
	c1.137,0,2.168-0.461,2.912-1.206h0.001c0.745-0.745,1.206-1.776,1.206-2.914C229.049,13.144,228.588,12.114,227.842,11.368
	 M224.93,9.387c1.353,0,2.575,0.549,3.461,1.434c0.885,0.885,1.435,2.109,1.435,3.461c0,1.351-0.55,2.574-1.435,3.459v0.002
	c-0.886,0.886-2.108,1.434-3.461,1.434c-1.352,0-2.574-0.548-3.461-1.434l-0.002-0.002c-0.885-0.885-1.433-2.108-1.433-3.459
	c0-1.352,0.548-2.576,1.433-3.461h0.002C222.355,9.936,223.578,9.387,224.93,9.387z"/>
<path fill="#009FE3" d="M225.077,22.033L212.477,9.94l-0.123,6.469l7.852,7.609l0.117,0.114v8.038l17.953-17.952V9.486
	l-12.658,12.542l-0.27,0.266 M212.376,8.773l12.964,12.442l13.051-12.929l0.659-0.654v6.907l-0.112,0.113L220.21,33.379
	l-0.662,0.661v-9.582l-7.853-7.611l-0.119-0.115l0.004-0.168l0.143-7.519l0.019-0.883L212.376,8.773z"/>
<path fill="#009FE3" d="M212.799,11.201l-20.51,20.212l-0.65,0.641l-0.006-0.915l-0.06-9.152l-8.331-8.372l-0.113-0.113V4.408
	l14.91,14.238l14.219-13.938l0.658-0.644v7.022 M192.398,30.222l19.742-19.457V5.904l-13.828,13.554l-0.268,0.262l-0.27-0.258
	L183.902,6.215v6.97l8.328,8.368l0.11,0.111l0.001,0.16L192.398,30.222z"/>
<path fill="#009FE3" d="M152.543,10.531V0.883l15.98,15.643l16.102-15.745v7.246l-0.115,0.114l-22.128,21.985l-0.659,0.655v-10.75
	l-9.066-9.229l-0.112-0.114 M153.316,2.722v7.652l9.067,9.23l0.112,0.113v9.206L183.85,7.708V2.619l-15.059,14.724l-0.27,0.264
	l-0.271-0.265L153.316,2.722z"/>
<path fill="#009FE3" d="M171.398,4.602c-0.883-0.882-2.104-1.429-3.449-1.429c-1.348,0-2.567,0.547-3.45,1.428l0.001,0.001
	c-0.883,0.883-1.43,2.103-1.43,3.45c0,1.348,0.547,2.568,1.429,3.451c0.883,0.881,2.103,1.428,3.45,1.428
	c1.347,0,2.566-0.547,3.449-1.429l0.002,0.001c0.882-0.883,1.428-2.103,1.428-3.451C172.828,6.705,172.282,5.485,171.398,4.602
	 M167.949,2.399c1.561,0,2.975,0.633,3.998,1.656c1.021,1.022,1.654,2.436,1.654,3.997c0,1.56-0.633,2.973-1.654,3.996v0.002
	c-1.023,1.022-2.438,1.655-3.998,1.655c-1.561,0-2.975-0.633-3.996-1.655l-0.001-0.002c-1.022-1.023-1.656-2.436-1.656-3.996
	c0-1.561,0.634-2.975,1.656-3.997h0.001C164.977,3.032,166.389,2.399,167.949,2.399z"/>
<path fill="#009FE3" d="M200.732,7.723c-0.817-0.817-1.947-1.323-3.196-1.323c-1.248,0-2.378,0.507-3.196,1.325h-0.002
	c-0.816,0.816-1.322,1.946-1.322,3.196c0,1.247,0.508,2.378,1.324,3.196c0.818,0.817,1.948,1.323,3.196,1.323
	c1.249,0,2.379-0.505,3.196-1.322v-0.001c0.816-0.818,1.322-1.949,1.322-3.196c0-1.25-0.506-2.38-1.32-3.196 M197.536,5.626
	c1.46,0,2.784,0.593,3.741,1.551l0.002,0.001c0.957,0.958,1.551,2.282,1.551,3.743s-0.594,2.785-1.551,3.743v-0.001
	c-0.959,0.958-2.283,1.552-3.743,1.552c-1.462,0-2.786-0.593-3.744-1.551c-0.957-0.958-1.55-2.282-1.55-3.743
	s0.593-2.785,1.551-3.743l-0.001-0.001C194.75,6.219,196.074,5.626,197.536,5.626z"/>
<path fill="#009FE3" d="M224.954,36.188l3.401-3.278l0.481-0.465l0.16,0.651l0.672,2.726l9.106,9.39l0.108,0.114v5.221l-0.659-0.652
	L224.95,36.74l-0.281-0.278 M228.408,33.931l-2.635,2.539l12.338,12.223v-3.056l-9.068-9.352l-0.074-0.076l-0.023-0.101
	L228.408,33.931z"/>
<path fill="#009FE3" d="M197.803,34.817l3.524-3.482l0.413-0.41l0.216,0.543l1.323,3.327c0.738,0.755,9.31,9.5,9.383,9.5
	c0.585,0,0.386,5.591,0.386,5.605l-0.038,0.89l-15.212-15.427l-0.271-0.274 M201.455,32.294l-2.836,2.802l13.75,13.944
	c0.152-1.375,0.423-3.971,0.293-3.971c-0.334,0-9.962-9.761-9.989-9.789l-0.053-0.053l-0.029-0.074L201.455,32.294z"/>
<path fill="#009FE3" d="M172.309,30.857l-3.271,3.27l14.721,14.915v-4.635l-10.579-10.5l-0.076-0.074l-0.025-0.1 M168.218,33.851
	l4.017-4.016l0.475-0.474l0.174,0.649l0.916,3.423l10.62,10.54l0.115,0.114v6.839l-0.662-0.672l-15.925-16.132L168.218,33.851z"/>
<rect x="1.545" y="52.277" fill="#009FE3" width="243.576" height="2.623"/>
<path fill="#009FE3" d="M64.917,16.898c2.06-2.238,4.323-4.022,6.734-5.263c2.41-0.445,4.887-0.707,7.418-0.767
	c-4.592,0.196-8.89,2.426-12.578,6.167C65.964,16.992,65.439,16.946,64.917,16.898 M56.502,31.591
	c1.163-3.316,2.583-6.357,4.216-9.05c0.99-1.631,2.057-3.135,3.194-4.497c0.499,0.049,1.001,0.096,1.505,0.141
	c-1.306,1.478-2.526,3.151-3.644,4.995c-1.541,2.542-2.889,5.405-4.003,8.525C57.346,31.668,56.924,31.63,56.502,31.591z
	 M56.092,73.883c-1.993-6.123-3.124-13.117-3.124-20.539c0-7.428,1.133-14.425,3.127-20.551c0.42,0.039,0.84,0.079,1.261,0.116
	c-2.007,6.064-3.149,13.027-3.149,20.435c0,7.403,1.14,14.362,3.145,20.424C56.931,73.805,56.511,73.844,56.092,73.883z
	 M63.903,88.633c-1.133-1.357-2.198-2.859-3.185-4.486c-1.635-2.694-3.057-5.74-4.22-9.061c0.422-0.039,0.844-0.077,1.268-0.113
	c1.115,3.123,2.464,5.99,4.007,8.534c1.115,1.841,2.332,3.511,3.635,4.985C64.904,88.537,64.402,88.583,63.903,88.633z
	 M71.651,95.053c-2.415-1.244-4.681-3.029-6.744-5.272c0.522-0.048,1.046-0.095,1.573-0.138c2.352,2.39,4.953,4.162,7.72,5.186
	v0.624C73.343,95.341,72.493,95.208,71.651,95.053z M103.364,32.778c1.998,6.129,3.132,13.132,3.132,20.566h-1.239
	c0-7.415-1.143-14.382-3.154-20.45C102.524,32.856,102.945,32.817,103.364,32.778z M95.539,18.029
	c1.141,1.365,2.214,2.875,3.208,4.512c1.63,2.689,3.049,5.725,4.21,9.034c-0.421,0.04-0.844,0.078-1.268,0.115
	c-1.113-3.113-2.458-5.972-3.997-8.51c-1.122-1.85-2.347-3.528-3.658-5.009C94.538,18.126,95.04,18.079,95.539,18.029z
	 M87.313,11.386c2.594,1.245,5.023,3.112,7.222,5.498c-0.522,0.049-1.047,0.095-1.573,0.138c-3.805-3.854-8.26-6.099-13.014-6.165
	l0.477,0.003l0.056,0.001l0.14,0.001l0.056,0.001h0.028c0.346,0.004,0.691,0.009,1.036,0.015
	C83.63,10.938,85.49,11.11,87.313,11.386z M79.732,9.615l0.143,0.001H79.82h-0.109h-0.102h0.019L79.732,9.615z"/>
<path fill="#009FE3" d="M64.493,94.441c3.144,0.566,6.387,0.97,9.707,1.19 M41.559,76.969c1.787,2.646,3.865,5.092,6.191,7.307
	c1.926,1.832,4.021,3.5,6.262,4.983c0.279,0.187,0.561,0.367,0.845,0.548c9.76,4.223,17.536,6.066,18.799,5.989
	c1.281-0.078-0.021-0.417,0.306-0.466c-0.403-0.236-16.067-5.15-18.407-6.546c-2.543-1.519-4.836-3.392-6.953-5.405
	c-2.12-2.018-4.028-4.236-5.689-6.624C42.46,76.825,42.009,76.896,41.559,76.969z M40.827,30.84
	c-4.155,6.574-6.545,14.274-6.545,22.504c0,8.227,2.388,15.922,6.538,22.493c0.443-0.071,0.887-0.144,1.333-0.213
	c-4.204-6.478-6.631-14.11-6.631-22.28c0-8.175,2.429-15.811,6.637-22.291C41.714,30.984,41.269,30.912,40.827,30.84z
	 M54.872,16.873c-2.567,1.619-4.952,3.477-7.122,5.54c-2.323,2.21-4.398,4.656-6.184,7.296c0.45,0.072,0.901,0.143,1.354,0.213
	c1.66-2.384,3.565-4.6,5.682-6.614c2.455-2.334,5.194-4.398,8.164-6.141C56.13,17.073,55.498,16.975,54.872,16.873z M79.678,10.856
	c-5.244,0.031-10.331,0.513-15.185,1.391c-2.795,0.97-5.463,2.19-7.974,3.633c0.672,0.102,1.35,0.199,2.033,0.292
	c6.312-3.331,13.563-5.253,21.281-5.316H79.678z M119.511,30.665c4.223,6.613,6.655,14.376,6.655,22.679h-1.238
	c0-8.246-2.472-15.943-6.748-22.458C118.626,30.814,119.069,30.74,119.511,30.665z M105.338,16.723
	c2.657,1.654,5.123,3.563,7.36,5.69c2.273,2.163,4.308,4.551,6.068,7.125c-0.45,0.075-0.9,0.148-1.352,0.22
	c-1.633-2.322-3.499-4.482-5.568-6.45c-2.52-2.396-5.339-4.507-8.4-6.279C104.081,16.93,104.712,16.829,105.338,16.723z
	 M95.955,12.247c2.704,0.938,5.289,2.111,7.729,3.493c-0.671,0.107-1.347,0.208-2.029,0.306c-5.962-3.101-12.749-4.948-19.969-5.169
	c0.972,0.018,1.94,0.045,2.902,0.082C88.488,11.147,92.288,11.584,95.955,12.247z"/>
<path fill="#009FE3" d="M70.21,11.138l0.21-0.013l0.592-0.036l0.074-0.004l0.023-0.001l0.171-0.01l0.174-0.01l0.094-0.005
	l0.252-0.013l0.285-0.015l0.061-0.003h0.003l0.344-0.017l0.347-0.016l0.052-0.002l0.27-0.012l0.026-0.001l0.203-0.009l0.041-0.001
	l0.103-0.004l0.167-0.007l0.05-0.002l0.132-0.005l0.088-0.003l0.261-0.01h0.01l0.046-0.001l0.497-0.017h0.002l0.541-0.015
	l0.272-0.007l0.196-0.005l0.076-0.002l0.03-0.001l0.08-0.002l0.163-0.003l0.272-0.006h0.026l0.521-0.009l0.073-0.001l0.2-0.003
	l0.244-0.003h0.03l0.015-0.001l0.216-0.002l0.042-0.001l0.274-0.002h0.011h0.026l0.238-0.001l0.116-0.001l0.159-0.001h0.005
	l0.19-0.001h0.08h0.274l0.592,0.002c-9.672,0.05-18.813,1.632-26.941,4.41c-0.808-0.146-1.607-0.298-2.397-0.456 M50.412,14.81
	c2.241-0.836,4.563-1.582,6.957-2.229c1.55-0.252,3.121-0.478,4.71-0.677l0.774-0.094l0.112-0.014l0.147-0.017l0.187-0.022
	l0.071-0.008l0.26-0.03h0.003l0.256-0.029l0.521-0.056l0.228-0.025l0.032-0.003c0.348-0.037,0.696-0.071,1.045-0.106l0.262-0.025
	l0.009-0.001l0.515-0.048h0.001l0.161-0.015l0.102-0.009l0.237-0.021l0.026-0.002l0.314-0.027l0.214-0.018l0.126-0.011l0.138-0.011
	l0.264-0.021l0.265-0.021l0.015-0.001l0.25-0.02l0.091-0.006l0.685-0.05 M29.513,27.391c1.901-1.789,3.994-3.473,6.259-5.039
	c3.741-2.586,7.952-4.848,12.533-6.719c0.73,0.158,1.467,0.31,2.212,0.457c-5.177,1.961-9.903,4.418-14.043,7.279
	c-1.968,1.361-3.804,2.813-5.492,4.347C30.49,27.609,30,27.501,29.513,27.391z M28.443,78.26
	c-7.067-7.064-11.207-15.65-11.207-24.916c0-9.269,4.144-17.858,11.216-24.926c0.476,0.109,0.954,0.217,1.435,0.324
	c-7.184,6.945-11.412,15.438-11.412,24.602c0,9.159,4.224,17.648,11.402,24.592C29.397,78.043,28.919,78.15,28.443,78.26z
	 M48.287,91.047c-4.575-1.87-8.778-4.129-12.515-6.712c-2.268-1.567-4.364-3.255-6.269-5.048c0.487-0.11,0.977-0.219,1.469-0.324
	c1.691,1.536,3.529,2.992,5.502,4.355c4.134,2.856,8.853,5.313,14.024,7.271C49.753,90.736,49.016,90.889,48.287,91.047z
	 M57.265,94.078c-2.364-0.643-4.659-1.38-6.874-2.208c0.79-0.158,1.588-0.312,2.396-0.456c6.561,2.245,13.784,3.709,21.413,4.218
	v0.104l-0.448-0.018h-0.003l-0.53-0.021h-0.002l-0.263-0.013l-0.264-0.012l-0.252-0.012l-0.013-0.001l-0.264-0.013h-0.012
	l-0.251-0.015l-0.264-0.013l-0.017-0.001l-0.51-0.029l-0.021-0.001l-0.241-0.014l-0.263-0.018l-0.786-0.05l-0.261-0.018
	c-2.526-0.175-5.013-0.416-7.456-0.722C60.454,94.568,58.849,94.337,57.265,94.078z M131.775,28.199
	c7.207,7.11,11.438,15.78,11.438,25.145h-1.238c0-9.256-4.313-17.829-11.633-24.813C130.822,28.421,131.3,28.311,131.775,28.199z
	 M111.743,15.471c4.737,1.902,9.083,4.22,12.935,6.881c2.174,1.504,4.19,3.117,6.031,4.826c-0.486,0.113-0.977,0.224-1.469,0.333
	c-1.625-1.458-3.385-2.842-5.268-4.142c-4.245-2.934-9.105-5.443-14.438-7.428C110.278,15.79,111.015,15.633,111.743,15.471z
	 M106.734,13.662c0.979,0.315,1.945,0.648,2.896,0.997c-0.789,0.163-1.587,0.32-2.394,0.47c-6.938-2.328-14.603-3.788-22.699-4.172
	c5.825,0.222,11.473,0.802,16.871,1.698l0.337,0.057l0.022,0.003l0.068,0.012l0.219,0.037l0.028,0.005l0.029,0.006l0.163,0.027
	l0.135,0.024l0.008,0.002l0.076,0.013l0.067,0.011l0.067,0.012l0.201,0.036l0.134,0.024
	C104.234,13.152,105.491,13.399,106.734,13.662z M83.682,9.687l-0.15-0.005L83.456,9.68 M80.224,9.615
	c1.448,0,2.884,0.034,4.307,0.101l-0.248-0.008l-0.075-0.003l-0.024-0.001l-0.126-0.005l-0.075-0.002l-0.076-0.002V9.694h-0.001
	l-0.074-0.002L83.757,9.69l-0.075-0.003l-0.331-0.01l-0.045-0.001l-0.075-0.003l-0.054-0.001L83.124,9.67l-0.266-0.007l-0.053-0.001
	L82.751,9.66l-0.053-0.001l-0.107-0.003l-0.053-0.001l-0.16-0.003L82.324,9.65l-0.053-0.001l-0.053-0.001l-0.054-0.001l-0.053-0.001
	l-0.053-0.001l-0.107-0.002l-0.036-0.001h-0.018L81.844,9.64L81.79,9.639h-0.053l-0.053-0.001L81.63,9.636h-0.053l-0.054-0.001
	L81.47,9.634l-0.054-0.001l-0.107-0.002L81.256,9.63h-0.053l-0.054-0.001l-0.107-0.001l-0.054-0.001l-0.107-0.002h-0.053h-0.013
	l-0.041-0.001l-0.053-0.001l-0.108-0.001H80.56h-0.054L80.399,9.62h-0.054h-0.054l-0.027-0.001h-0.026h-0.054L80.13,9.618h-0.161
	l-0.053-0.001h-0.054L79.81,9.616L80.224,9.615z"/>
<path fill="#009FE3" d="M76.404,10.881h0.014 M76.321,10.882l-0.014,0.001L76.321,10.882z M76.39,10.881h-0.013h-0.001
	 M76.418,10.881h-0.013H76.39l-0.027,0.001 M76.432,10.88l-0.014,0.001L76.432,10.88z M76.443,10.88h-0.011H76.443z M76.446,10.88
	h-0.003H76.446z M76.502,10.879h-0.014h-0.014h-0.001L76.46,10.88h-0.014h0.014l0.014-0.001h0.013H76.502z M76.515,10.879h-0.013
	H76.515z M76.529,10.878l-0.014,0.001L76.529,10.878z M76.585,10.878h-0.014h-0.014h-0.028h0.014h0.014h0.014H76.585z
	 M76.599,10.877l-0.014,0.001L76.599,10.877z M76.613,10.877h-0.014H76.613z M76.627,10.877h-0.014H76.627z M76.64,10.877h-0.013
	H76.64z M76.668,10.876h-0.014l-0.014,0.001l0.014-0.001H76.668z M76.78,10.874h-0.014H76.78L76.78,10.874z M76.891,10.872h-0.014
	 M79.875,10.856h0.015 M79.487,10.854l0.015,0.001L79.487,10.854 M78.61,10.855h-0.015 M83.485,10.92l-0.432-0.013l0.313,0.009
	L83.485,10.92z M83.606,10.924l-0.086-0.003 M98.749,12.242l-0.123-0.018l0.097,0.014L98.749,12.242z M99.401,12.338l-0.258-0.039
	l0.032,0.005l-0.407-0.06l-0.019-0.002l0.135,0.019 M45.161,13.931c2.715-0.73,5.517-1.375,8.395-1.93
	c-2.727,0.526-5.386,1.133-7.967,1.816L45.161,13.931z M18.804,25.448c1.615-1.088,3.322-2.132,5.116-3.127
	c5.662-3.141,12.187-5.802,19.358-7.866l0.003,0.001c-9.145,2.631-17.239,6.238-23.837,10.572L18.804,25.448z M18.32,80.909
	C7.39,73.396,0.844,63.807,0.844,53.344c0-10.468,6.551-20.059,17.488-27.574l1.281,0.369l0.267,0.076
	C8.771,33.584,2.083,43.045,2.083,53.344c0,10.295,6.683,19.754,17.785,27.121l-0.255,0.073L18.32,80.909z M43.256,92.227
	c-7.163-2.063-13.68-4.722-19.336-7.859c-1.971-1.094-3.837-2.245-5.591-3.45l1.115,0.731c6.598,4.334,14.692,7.94,23.837,10.571
	L43.256,92.227z M74.2,96.986c-10.798-0.377-21.004-1.973-30.177-4.543l1.566,0.416c5.163,1.365,10.635,2.428,16.34,3.142
	c2.252,0.282,4.541,0.51,6.862,0.681l0.096,0.008l0.172,0.013l0.268,0.019l0.091,0.006l0.178,0.015l0.269,0.017l0.086,0.006
	c0.33,0.021,0.661,0.043,0.992,0.063l0.076,0.005l0.194,0.011l0.27,0.016l0.071,0.004l0.2,0.011l0.271,0.014l0.066,0.005
	l0.477,0.022l0.061,0.003l0.482,0.021l0.057,0.002l0.216,0.01l0.272,0.011l0.052,0.002l0.073,0.003L74.2,96.98V96.986z
	 M140.275,25.97c10.762,7.485,17.197,16.999,17.197,27.374h-1.238c0-10.21-6.57-19.596-17.508-26.937l0.27-0.075L140.275,25.97z
	 M115.51,14.591c6.987,2.043,13.352,4.657,18.889,7.73c1.808,1.003,3.525,2.055,5.15,3.152l-0.378-0.252
	c-6.538-4.345-14.573-7.971-23.663-10.63H115.51z M106.446,12.338l-0.162-0.033l0.039,0.008 M107.34,12.527l-0.175-0.038
	l0.107,0.023L107.34,12.527z M107.91,12.651l0.305,0.067L107.91,12.651z M106.935,12.44l0.021,0.005l0.033,0.007L106.935,12.44z
	 M106.639,12.378l0.296,0.062l-0.122-0.025L106.639,12.378z M105.955,12.237l0.05,0.01l0.102,0.021L105.955,12.237z M105.924,12.231
	l0.031,0.006l-0.025-0.005l-0.177-0.035L105.924,12.231z M105.368,12.12l0.094,0.018 M105.048,12.057l0.32,0.063l0.03,0.006"/>
<path fill="#009FE3" d="M70.744,11.105c-0.268,0.016-0.534,0.032-0.801,0.05C70.21,11.137,70.476,11.121,70.744,11.105
	 M107.961,12.661c1.779,0.393,3.525,0.82,5.236,1.28l2.365,0.637l-0.054,0.013c-1.084-0.317-2.181-0.62-3.294-0.909
	C110.818,13.319,109.4,12.979,107.961,12.661z M69.951,9.913c0.33-0.021,0.66-0.042,0.992-0.061
	C70.612,9.871,70.281,9.892,69.951,9.913z M43.281,14.455l-0.055-0.012l2.363-0.626c5.163-1.367,10.635-2.429,16.34-3.143
	c2.252-0.281,4.541-0.509,6.862-0.68c-7.927,0.585-15.482,1.831-22.478,3.635C45.29,13.892,44.28,14.168,43.281,14.455z
	 M113.029,15.176c-4.964,1.165-10.335,2.079-16.007,2.699c-5.547,0.605-11.371,0.928-17.372,0.928c-6.107,0-12.03-0.334-17.662-0.96
	c-5.753-0.64-11.202-1.586-16.235-2.792c0.287-0.076,0.575-0.152,0.865-0.227c7.153-1.843,14.908-3.099,23.058-3.651
	c-2.574,0.175-5.108,0.42-7.597,0.731c-4.748,0.594-9.329,1.43-13.696,2.483c4.311,0.938,8.914,1.69,13.741,2.227
	c5.574,0.619,11.45,0.95,17.526,0.95c5.973,0,11.754-0.32,17.241-0.919c4.729-0.516,9.252-1.24,13.503-2.147
	c-2.691-0.66-5.46-1.237-8.297-1.726c3.374,0.58,6.649,1.285,9.807,2.105C112.281,14.975,112.656,15.075,113.029,15.176z"/>
<path fill="#009FE3" d="M110.597,30.734c9.589-1.22,18.581-2.993,26.745-5.226c-7.013-4.451-15.666-8.092-25.438-10.63
	c-9.937-2.582-21.034-4.024-32.746-4.024c-11.633,0-22.658,1.423-32.54,3.971c-9.72,2.506-18.339,6.099-25.346,10.496
	c8.235,2.291,17.323,4.111,27.028,5.363c9.876,1.273,20.409,1.96,31.35,1.96C90.444,32.644,100.839,31.975,110.597,30.734
	 M138.996,26.332c-8.561,2.42-18.064,4.332-28.244,5.627c-9.831,1.25-20.279,1.924-31.102,1.924
	c-10.971,0-21.557-0.692-31.505-1.975c-10.306-1.329-19.908-3.29-28.532-5.769l-1.294-0.373l1.125-0.738
	c7.318-4.807,16.478-8.72,26.869-11.399c9.99-2.576,21.12-4.014,32.845-4.014c11.809,0,23.012,1.458,33.056,4.067
	c10.447,2.714,19.64,6.676,26.957,11.539l1.12,0.745L138.996,26.332z"/>
<path fill="#009FE3" d="M68.792,96.682c-2.322-0.172-4.611-0.397-6.863-0.681c-5.704-0.714-11.177-1.776-16.34-3.142l-2.362-0.627
	l0.054-0.014c0.999,0.288,2.009,0.563,3.032,0.827C53.31,94.85,60.864,96.096,68.792,96.682 M70.943,96.823
	c-0.331-0.021-0.662-0.04-0.992-0.063 M69.943,95.521c0.267,0.018,0.534,0.033,0.801,0.049
	C70.477,95.555,70.209,95.539,69.943,95.521z M79.241,89.037c-4.15,0.137-13.227,0.593-17.117,1.023
	c-4.827,0.537-9.43,1.289-13.741,2.229c4.367,1.053,8.948,1.889,13.696,2.482c2.489,0.312,5.023,0.557,7.598,0.73
	c-8.15-0.552-15.904-1.807-23.059-3.652c-0.289-0.072-0.577-0.148-0.864-0.226c5.032-1.207,10.482-2.151,16.234-2.792
	c3.941-0.438,13.064-0.896,17.253-1.035V89.037z"/>
<path fill="#009FE3" d="M84.895,74.089c-0.86,0.019-12.414,0.041-13.269,0.067c-8.077,0.25-15.888,0.878-23.326,1.837
	c-9.705,1.251-18.793,3.071-27.028,5.362c7.007,4.396,15.626,7.988,25.346,10.494c8.467,2.185,17.773,3.541,27.582,3.885v1.24
	c-9.906-0.347-19.315-1.719-27.887-3.929c-10.391-2.679-19.551-6.592-26.869-11.397l-1.125-0.739l1.294-0.371
	c8.624-2.479,18.226-4.44,28.532-5.771c7.513-0.97,15.39-1.603,23.522-1.854c0.841-0.025,12.313-0.133,13.16-0.15"/>
<polyline fill="#AFCA0B" points="112.617,22.61 112.617,28.061 90.55,49.697 90.55,44.103 "/>
<polyline fill="#AFCA0B" points="144.334,22.61 144.334,28.061 122.268,49.697 122.268,44.103 "/>
<polyline fill="#AFCA0B" points="172.282,22.61 172.282,28.061 150.216,49.697 150.216,44.103 "/>
</svg>
