<?xml version="1.0" encoding="utf-8"?>
<!-- Generator: Adobe Illustrator 16.0.0, SVG Export Plug-In . SVG Version: 6.00 Build 0)  -->
<!DOCTYPE svg PUBLIC "-//W3C//DTD SVG 1.1//EN" "http://www.w3.org/Graphics/SVG/1.1/DTD/svg11.dtd">
<svg version="1.1" id="Layer_1" xmlns="http://www.w3.org/2000/svg" xmlns:xlink="http://www.w3.org/1999/xlink" x="0px" y="0px"
	 width="217.748px" height="255.234px" viewBox="-339 -113 217.748 255.234" enable-background="new -339 -113 217.748 255.234"
	 xml:space="preserve">
<g>
	<defs>
		<rect id="SVGID_1_" x="-339" y="-113" width="217.748" height="255.234"/>
	</defs>
	<clipPath id="SVGID_2_">
		<use xlink:href="#SVGID_1_"  overflow="visible"/>
	</clipPath>
	<path clip-path="url(#SVGID_2_)" fill="#FFFFFF" d="M-185.026-97.047c11.723,1.561,27.157,1.835,40.106-1.145
		c21.55-4.959,23.667,8.343,23.667,15.616v210.58c0,7.858-6.371,14.229-14.229,14.229H-324.77c-7.859,0-14.23-6.371-14.23-14.229
		V-82.544c0-9.028,3.53-12.768,10.569-16.186c42.114-20.446,77.305-14.914,105.691-7.926
		C-210.287-103.59-198.021-98.776-185.026-97.047"/>
</g>
<g>
	<defs>
		<rect id="SVGID_3_" x="-339" y="-113" width="217.748" height="255.234"/>
	</defs>
	<clipPath id="SVGID_4_">
		<use xlink:href="#SVGID_3_"  overflow="visible"/>
	</clipPath>
	<path clip-path="url(#SVGID_4_)" fill="#0093C9" d="M-202.619-48.813c0-2.122-1.729-3.844-3.864-3.844
		c-2.136,0-3.865,1.722-3.865,3.844s1.729,3.843,3.865,3.843C-204.349-44.97-202.619-46.691-202.619-48.813"/>
</g>
<g>
	<defs>
		<rect id="SVGID_5_" x="-339" y="-113" width="217.748" height="255.234"/>
	</defs>
	<clipPath id="SVGID_6_">
		<use xlink:href="#SVGID_5_"  overflow="visible"/>
	</clipPath>
	<path clip-path="url(#SVGID_6_)" fill="#0093C9" d="M-134.866-8.878V-82.27l-0.009-0.002c0.001-0.034,0.01-0.067,0.01-0.102
		c0-1.473-1.192-2.666-2.665-2.666c-0.205,0-0.404,0.028-0.597,0.072l-0.003-0.006c-67.932,16.607-109.431-35.446-182.803-2.973
		v0.006c-2.689,1.075-4.593,3.684-4.62,6.75l-0.006,0.001v0.059l-0.001,0.005l0.001,0.006v70.722v0.001v0.002v0.037l0.004,0.001
		c0.022,1.454,1.203,2.626,2.662,2.626c0.126,0,0.247-0.02,0.369-0.037l0.002,0.006c8.459-1.005,17.011-3.235,26.063-7.445
		c37.227-17.313,60.183-49.942,82.12-49.942c21.938,0,30.199,26.841,30.199,26.841c-11.188-5.357-22.877,9.001-12.58,23.039
		c9.642,13.145,33.523,19.275,55.804,13.618c0.168-0.031,0.328-0.074,0.491-0.115c0.104-0.027,0.208-0.045,0.311-0.072l-0.001-0.024
		c3.021-0.905,5.232-3.667,5.247-6.977l0.002-0.001v-0.023l0.001-0.008L-134.866-8.878z"/>
</g>
<g>
	<defs>
		<rect id="SVGID_7_" x="-339" y="-113" width="217.748" height="255.234"/>
	</defs>
	<clipPath id="SVGID_8_">
		<use xlink:href="#SVGID_7_"  overflow="visible"/>
	</clipPath>
	<path clip-path="url(#SVGID_8_)" fill="#0093C9" d="M-324.836,15.14c0.127,0,0.241-0.042,0.345-0.101l0.011,0.019
		c78.42-41.732,121.627,26.799,189.057-7.294c0.324-0.12,0.557-0.427,0.557-0.792c0-0.472-0.381-0.854-0.851-0.854
		c-0.101,0-0.19,0.026-0.279,0.057l-0.007-0.018c-72.905,26.715-106.246-42.981-189.228,7.654l0.007,0.011
		c-0.197,0.129-0.335,0.34-0.335,0.594C-325.559,14.817-325.235,15.14-324.836,15.14"/>
</g>
<g>
	<defs>
		<rect id="SVGID_9_" x="-339" y="-113" width="217.748" height="255.234"/>
	</defs>
	<clipPath id="SVGID_10_">
		<use xlink:href="#SVGID_9_"  overflow="visible"/>
	</clipPath>
	<path clip-path="url(#SVGID_10_)" fill="#0093C9" d="M-135.958,16.064c-0.117,0-0.227,0.032-0.332,0.064l-0.011-0.027
		c-72.412,27.414-113.576-34.024-188.698,5.854c-0.327,0.129-0.561,0.443-0.561,0.816c0,0.484,0.394,0.88,0.881,0.88
		c0.133,0,0.256-0.034,0.369-0.087l0.009,0.018c73.995-30.708,122.065,28.897,188.741-5.415c0.404-0.16,0.693-0.55,0.693-1.012
		C-134.865,16.552-135.354,16.064-135.958,16.064"/>
</g>
<g>
	<defs>
		<rect id="SVGID_11_" x="-339" y="-113" width="217.748" height="255.234"/>
	</defs>
	<clipPath id="SVGID_12_">
		<use xlink:href="#SVGID_11_"  overflow="visible"/>
	</clipPath>
	<path clip-path="url(#SVGID_12_)" fill="#0093C9" d="M-324.97,92.008c-0.413,0-0.59-0.187-0.59-0.623V50.299
		c0-0.436,0.177-0.623,0.59-0.623h16.085c9.52,0,14.901,5.604,14.901,14.069c0,4.17-1.301,7.595-3.903,10.209
		c-2.602,2.615-6.268,3.922-10.998,3.922h-5.914c-0.235,0-0.354,0.124-0.354,0.373v13.136c0,0.438-0.178,0.623-0.592,0.623H-324.97z
		 M-309.477,68.602c3.252,0,5.085-1.868,5.085-4.856s-1.833-4.793-5.085-4.793h-5.322c-0.235,0-0.354,0.125-0.354,0.373v8.902
		c0,0.249,0.119,0.374,0.354,0.374H-309.477z"/>
</g>
<g>
	<defs>
		<rect id="SVGID_13_" x="-339" y="-113" width="217.748" height="255.234"/>
	</defs>
	<clipPath id="SVGID_14_">
		<use xlink:href="#SVGID_13_"  overflow="visible"/>
	</clipPath>
	<path clip-path="url(#SVGID_14_)" fill="#0093C9" d="M-290.551,50.299c0-0.437,0.177-0.623,0.59-0.623h26.314
		c0.413,0,0.592,0.188,0.592,0.623v8.03c0,0.437-0.179,0.623-0.592,0.623h-16.144c-0.235,0-0.354,0.125-0.354,0.372v6.412
		c0,0.25,0.119,0.375,0.354,0.375h13.246c0.413,0,0.59,0.187,0.59,0.622v7.844c0,0.438-0.177,0.621-0.59,0.621h-13.246
		c-0.235,0-0.354,0.125-0.354,0.373v6.787c0,0.249,0.119,0.374,0.354,0.374h16.143c0.413,0,0.592,0.187,0.592,0.622v8.029
		c0,0.437-0.179,0.623-0.592,0.623h-26.313c-0.413,0-0.59-0.188-0.59-0.623V50.299z"/>
</g>
<g>
	<defs>
		<rect id="SVGID_15_" x="-339" y="-113" width="217.748" height="255.234"/>
	</defs>
	<clipPath id="SVGID_16_">
		<use xlink:href="#SVGID_15_"  overflow="visible"/>
	</clipPath>
	<path clip-path="url(#SVGID_16_)" fill="#0093C9" d="M-258.795,50.299c0-0.437,0.177-0.623,0.59-0.623h8.693
		c0.532,0,0.827,0.188,1.006,0.623l12.122,23.968h0.235V50.299c0-0.437,0.179-0.623,0.592-0.623h8.279
		c0.414,0,0.592,0.188,0.592,0.623v41.086c0,0.437-0.178,0.623-0.592,0.623h-8.692c-0.533,0-0.829-0.188-1.006-0.623l-12.004-23.903
		h-0.355v23.903c0,0.437-0.177,0.623-0.59,0.623h-8.28c-0.413,0-0.59-0.188-0.59-0.623V50.299z"/>
</g>
<g>
	<defs>
		<rect id="SVGID_17_" x="-339" y="-113" width="217.748" height="255.234"/>
	</defs>
	<clipPath id="SVGID_18_">
		<use xlink:href="#SVGID_17_"  overflow="visible"/>
	</clipPath>
	<path clip-path="url(#SVGID_18_)" fill="#0093C9" d="M-221.362,50.299c0-0.437,0.176-0.623,0.59-0.623h15.553
		c7.568,0,12.357,3.237,14.308,9.648c0.771,2.616,1.185,6.476,1.185,11.518c0,5.043-0.414,8.902-1.185,11.518
		c-1.95,6.412-6.737,9.648-14.308,9.648h-15.553c-0.414,0-0.59-0.188-0.59-0.623V50.299z M-210.957,81.923
		c0,0.249,0.119,0.374,0.354,0.374h3.133c3.727,0,5.678-1.121,6.623-4.047c0.414-1.369,0.593-3.858,0.593-7.408
		c0-3.549-0.179-6.037-0.593-7.407c-0.945-2.926-2.896-4.046-6.623-4.046h-3.133c-0.235,0-0.354,0.125-0.354,0.372V81.923z"/>
</g>
<g>
	<defs>
		<rect id="SVGID_19_" x="-339" y="-113" width="217.748" height="255.234"/>
	</defs>
	<clipPath id="SVGID_20_">
		<use xlink:href="#SVGID_19_"  overflow="visible"/>
	</clipPath>
	<path clip-path="url(#SVGID_20_)" fill="#0093C9" d="M-185.231,61.883c0-0.437,0.178-0.623,0.59-0.623h9.226
		c0.414,0,0.595,0.188,0.595,0.623v29.502c0,0.437-0.181,0.623-0.595,0.623h-9.226c-0.412,0-0.59-0.188-0.59-0.623V61.883z"/>
</g>
<g>
	<defs>
		<rect id="SVGID_21_" x="-339" y="-113" width="217.748" height="255.234"/>
	</defs>
	<clipPath id="SVGID_22_">
		<use xlink:href="#SVGID_21_"  overflow="visible"/>
	</clipPath>
	<path clip-path="url(#SVGID_22_)" fill="#0093C9" d="M-169.502,50.299c0-0.437,0.177-0.623,0.59-0.623h9.226
		c0.414,0,0.594,0.188,0.594,0.623v16.56l11.527-16.621c0.297-0.374,0.651-0.562,1.008-0.562h10.404
		c0.475,0,0.594,0.374,0.355,0.811l-12.004,16.372l12.715,24.464c0.176,0.313,0.059,0.687-0.355,0.687h-10.584
		c-0.475,0-0.77-0.188-0.945-0.562l-7.807-15.937l-4.314,6.038v9.836c0,0.437-0.18,0.623-0.594,0.623h-9.226
		c-0.413,0-0.59-0.188-0.59-0.623V50.299L-169.502,50.299z"/>
</g>
<g>
	<defs>
		<rect id="SVGID_23_" x="-339" y="-113" width="217.748" height="255.234"/>
	</defs>
	<clipPath id="SVGID_24_">
		<use xlink:href="#SVGID_23_"  overflow="visible"/>
	</clipPath>
	<path clip-path="url(#SVGID_24_)" fill="#0093C9" d="M-185.231,50.299c0-0.437,0.178-0.623,0.59-0.623h9.226
		c0.414,0,0.595,0.188,0.595,0.623v6.66c0,0.437-0.181,0.622-0.595,0.622h-9.226c-0.412,0-0.59-0.187-0.59-0.622V50.299z"/>
</g>
<g>
	<defs>
		<rect id="SVGID_25_" x="-339" y="-113" width="217.748" height="255.234"/>
	</defs>
	<clipPath id="SVGID_26_">
		<use xlink:href="#SVGID_25_"  overflow="visible"/>
	</clipPath>
	<path clip-path="url(#SVGID_26_)" fill="#0093C9" d="M-325.56,101.225c0-0.283,0.118-0.402,0.389-0.402h9.351
		c5.238,0,7.955,2.694,7.955,7.197c0,3.016-1.163,4.986-3.531,5.951v0.08c2.056,0.604,3.997,2.936,3.997,6.313
		c0,5.106-3.065,7.801-8.614,7.801h-9.157c-0.271,0-0.389-0.121-0.389-0.401L-325.56,101.225L-325.56,101.225z M-315.896,112.645
		c2.832,0,4.619-1.689,4.619-4.264c0-2.612-1.708-4.303-4.619-4.303h-5.976c-0.156,0-0.233,0.08-0.233,0.24v8.082
		c0,0.162,0.077,0.243,0.233,0.243L-315.896,112.645L-315.896,112.645z M-322.105,124.668c0,0.16,0.077,0.24,0.233,0.24h6.17
		c3.104,0,4.85-1.729,4.85-4.505c0-2.732-1.746-4.503-4.85-4.503h-6.17c-0.156,0-0.233,0.081-0.233,0.242V124.668z"/>
</g>
<g>
	<defs>
		<rect id="SVGID_27_" x="-339" y="-113" width="217.748" height="255.234"/>
	</defs>
	<clipPath id="SVGID_28_">
		<use xlink:href="#SVGID_27_"  overflow="visible"/>
	</clipPath>
	<path clip-path="url(#SVGID_28_)" fill="#0093C9" d="M-302.114,101.225c0-0.282,0.118-0.402,0.389-0.402h15.872
		c0.271,0,0.387,0.12,0.387,0.402v2.532c0,0.281-0.116,0.401-0.387,0.401h-12.574c-0.156,0-0.233,0.081-0.233,0.242v8.042
		c0,0.16,0.077,0.241,0.233,0.241h10.672c0.271,0,0.387,0.12,0.387,0.4v2.534c0,0.281-0.116,0.402-0.387,0.402h-10.672
		c-0.156,0-0.233,0.08-0.233,0.239v8.323c0,0.161,0.077,0.242,0.233,0.242h12.574c0.271,0,0.387,0.121,0.387,0.402v2.532
		c0,0.28-0.116,0.401-0.387,0.401h-15.872c-0.271,0-0.389-0.121-0.389-0.401V101.225z"/>
</g>
<g>
	<defs>
		<rect id="SVGID_29_" x="-339" y="-113" width="217.748" height="255.234"/>
	</defs>
	<clipPath id="SVGID_30_">
		<use xlink:href="#SVGID_29_"  overflow="visible"/>
	</clipPath>
	<path clip-path="url(#SVGID_30_)" fill="#0093C9" d="M-280.261,101.225c0-0.282,0.117-0.402,0.389-0.402h2.676
		c0.273,0,0.389,0.12,0.389,0.402v23.36c0,0.161,0.077,0.242,0.233,0.242H-264c0.271,0,0.386,0.121,0.386,0.402v2.533
		c0,0.279-0.115,0.4-0.386,0.4h-15.872c-0.272,0-0.389-0.121-0.389-0.4V101.225z"/>
</g>
<g>
	<defs>
		<rect id="SVGID_31_" x="-339" y="-113" width="217.748" height="255.234"/>
	</defs>
	<clipPath id="SVGID_32_">
		<use xlink:href="#SVGID_31_"  overflow="visible"/>
	</clipPath>
	<path clip-path="url(#SVGID_32_)" fill="#0093C9" d="M-259.376,101.225c0-0.282,0.117-0.402,0.389-0.402h15.872
		c0.271,0,0.386,0.12,0.386,0.402v2.532c0,0.281-0.115,0.401-0.386,0.401h-12.574c-0.156,0-0.233,0.081-0.233,0.242v8.042
		c0,0.16,0.077,0.241,0.233,0.241h10.671c0.272,0,0.388,0.12,0.388,0.4v2.534c0,0.281-0.116,0.402-0.388,0.402h-10.671
		c-0.156,0-0.233,0.08-0.233,0.239v8.323c0,0.161,0.077,0.242,0.233,0.242h12.574c0.271,0,0.386,0.121,0.386,0.402v2.532
		c0,0.28-0.115,0.401-0.386,0.401h-15.872c-0.272,0-0.389-0.121-0.389-0.401V101.225z"/>
</g>
<g>
	<defs>
		<rect id="SVGID_33_" x="-339" y="-113" width="217.748" height="255.234"/>
	</defs>
	<clipPath id="SVGID_34_">
		<use xlink:href="#SVGID_33_"  overflow="visible"/>
	</clipPath>
	<path clip-path="url(#SVGID_34_)" fill="#0093C9" d="M-237.523,101.225c0-0.283,0.118-0.403,0.389-0.403h8.885
		c4.542,0,7.412,1.932,8.616,5.831c0.465,1.488,0.698,4.102,0.698,7.842c0,3.738-0.233,6.354-0.698,7.841
		c-1.204,3.899-4.074,5.831-8.616,5.831h-8.885c-0.271,0-0.389-0.121-0.389-0.401V101.225z M-234.069,124.587
		c0,0.161,0.077,0.241,0.233,0.241h4.851c3.221,0,5.199-1.246,6.016-3.739c0.35-1.046,0.544-3.258,0.544-6.595
		c0-3.339-0.194-5.55-0.544-6.595c-0.815-2.494-2.795-3.74-6.016-3.74h-4.851c-0.156,0-0.233,0.08-0.233,0.241V124.587z"/>
</g>
<g>
	<defs>
		<rect id="SVGID_35_" x="-339" y="-113" width="217.748" height="255.234"/>
	</defs>
	<clipPath id="SVGID_36_">
		<use xlink:href="#SVGID_35_"  overflow="visible"/>
	</clipPath>
	<path clip-path="url(#SVGID_36_)" fill="#0093C9" d="M-197.584,128.167c-0.271,0-0.388-0.121-0.388-0.401v-10.777l-7.801-15.722
		c-0.115-0.282,0-0.442,0.313-0.442h2.755c0.233,0,0.427,0.119,0.581,0.402l5.898,11.7h0.078l5.859-11.7
		c0.116-0.283,0.271-0.402,0.543-0.402h2.678c0.312,0,0.426,0.16,0.312,0.442l-7.8,15.722v10.777c0,0.28-0.117,0.401-0.389,0.401
		H-197.584z"/>
</g>
<g>
	<defs>
		<rect id="SVGID_37_" x="-339" y="-113" width="217.748" height="255.234"/>
	</defs>
	<clipPath id="SVGID_38_">
		<use xlink:href="#SVGID_37_"  overflow="visible"/>
	</clipPath>
	<path clip-path="url(#SVGID_38_)" fill="#0093C9" d="M-182.946,101.225c0-0.282,0.117-0.402,0.389-0.402h15.873
		c0.271,0,0.386,0.12,0.386,0.402v2.532c0,0.281-0.114,0.401-0.386,0.401h-12.575c-0.155,0-0.232,0.081-0.232,0.242v8.042
		c0,0.16,0.077,0.241,0.232,0.241h10.671c0.271,0,0.389,0.12,0.389,0.4v2.534c0,0.281-0.115,0.402-0.389,0.402h-10.671
		c-0.155,0-0.232,0.08-0.232,0.239v8.323c0,0.161,0.077,0.242,0.232,0.242h12.573c0.271,0,0.387,0.121,0.387,0.402v2.532
		c0,0.28-0.114,0.401-0.387,0.401h-15.871c-0.271,0-0.389-0.121-0.389-0.401V101.225L-182.946,101.225z"/>
</g>
<g>
	<defs>
		<rect id="SVGID_39_" x="-339" y="-113" width="217.748" height="255.234"/>
	</defs>
	<clipPath id="SVGID_40_">
		<use xlink:href="#SVGID_39_"  overflow="visible"/>
	</clipPath>
	<path clip-path="url(#SVGID_40_)" fill="#0093C9" d="M-162.142,125.191c-0.193-0.201-0.193-0.402-0.039-0.604l1.709-2.09
		c0.154-0.202,0.349-0.202,0.543-0.04c2.289,1.892,4.734,2.814,7.373,2.814c3.609,0,5.82-1.892,5.82-4.664
		c0-2.453-1.476-3.941-5.511-4.464l-1.319-0.201c-5.16-0.725-7.763-3.257-7.763-7.562c0-2.452,0.776-4.382,2.33-5.829
		c1.591-1.447,3.687-2.173,6.286-2.173c3.145,0,5.82,0.847,8.031,2.534c0.195,0.161,0.234,0.362,0.08,0.563l-1.321,2.212
		c-0.153,0.2-0.349,0.2-0.543,0.08c-2.136-1.367-4.269-2.052-6.364-2.052c-3.143,0-5.006,1.729-5.006,4.424
		c0,2.412,1.63,3.859,5.55,4.383l1.281,0.201c5.161,0.724,7.76,3.258,7.76,7.641c0,4.945-3.452,8.243-9.624,8.243
		C-156.437,128.609-160.123,127.121-162.142,125.191"/>
</g>
<g>
	<defs>
		<rect id="SVGID_41_" x="-339" y="-113" width="217.748" height="255.234"/>
	</defs>
	<clipPath id="SVGID_42_">
		<use xlink:href="#SVGID_41_"  overflow="visible"/>
	</clipPath>
	<path clip-path="url(#SVGID_42_)" fill="#0093C9" d="M-213.34,108.032c0-0.282,0.116-0.402,0.389-0.402h2.677
		c0.272,0,0.39,0.12,0.39,0.402v19.731c0,0.281-0.116,0.402-0.39,0.402h-2.677c-0.271,0-0.389-0.121-0.389-0.402V108.032z"/>
</g>
<g>
	<defs>
		<rect id="SVGID_43_" x="-339" y="-113" width="217.748" height="255.234"/>
	</defs>
	<clipPath id="SVGID_44_">
		<use xlink:href="#SVGID_43_"  overflow="visible"/>
	</clipPath>
	<path clip-path="url(#SVGID_44_)" fill="#0093C9" d="M-213.34,101.135c0-0.28,0.116-0.401,0.389-0.401h2.677
		c0.272,0,0.39,0.121,0.39,0.401v3.345c0,0.281-0.116,0.401-0.39,0.401h-2.677c-0.271,0-0.389-0.12-0.389-0.401V101.135z"/>
</g>
<g>
	<defs>
		<rect id="SVGID_45_" x="-339" y="-113" width="217.748" height="255.234"/>
	</defs>
	<clipPath id="SVGID_46_">
		<use xlink:href="#SVGID_45_"  overflow="visible"/>
	</clipPath>
	<path clip-path="url(#SVGID_46_)" fill="#0093C9" d="M-138.147,108.032c0-0.282,0.117-0.402,0.391-0.402h2.676
		c0.271,0,0.389,0.12,0.389,0.402v19.731c0,0.281-0.115,0.402-0.389,0.402h-2.676c-0.271,0-0.391-0.121-0.391-0.402V108.032z"/>
</g>
<g>
	<defs>
		<rect id="SVGID_47_" x="-339" y="-113" width="217.748" height="255.234"/>
	</defs>
	<clipPath id="SVGID_48_">
		<use xlink:href="#SVGID_47_"  overflow="visible"/>
	</clipPath>
	<path clip-path="url(#SVGID_48_)" fill="#0093C9" d="M-138.147,101.135c0-0.28,0.117-0.401,0.391-0.401h2.676
		c0.271,0,0.389,0.121,0.389,0.401v3.345c0,0.281-0.115,0.401-0.389,0.401h-2.676c-0.271,0-0.391-0.12-0.391-0.401V101.135z"/>
</g>
</svg>
