<?xml version="1.0" encoding="utf-8"?>
<!-- Generator: Adobe Illustrator 16.0.0, SVG Export Plug-In . SVG Version: 6.00 Build 0)  -->
<!DOCTYPE svg PUBLIC "-//W3C//DTD SVG 1.1//EN" "http://www.w3.org/Graphics/SVG/1.1/DTD/svg11.dtd">
<svg version="1.1" id="Layer_1" xmlns="http://www.w3.org/2000/svg" xmlns:xlink="http://www.w3.org/1999/xlink" x="0px" y="0px"
	 width="965.955px" height="378.297px" viewBox="0 0 965.955 378.297" enable-background="new 0 0 965.955 378.297"
	 xml:space="preserve">
<g>
	<defs>
		<rect id="SVGID_1_" x="-225.684" y="-519.514" width="1417.323" height="1417.323"/>
	</defs>
	<clipPath id="SVGID_2_">
		<use xlink:href="#SVGID_1_"  overflow="visible"/>
	</clipPath>
	<path clip-path="url(#SVGID_2_)" fill-rule="evenodd" clip-rule="evenodd" fill="#FFFFFF" d="M137.977,377.418
		c78.142,0,135.293-60.476,135.293-135.195V0.874h-36.237v19.581h-24.29V0.874h-36.832v19.581h-20.689V0.874h-36.85v19.581H97.838
		V0.874H60.612v19.581H37.806V0.874H0.855v241.349C0.855,316.942,60.179,377.418,137.977,377.418"/>
	<path clip-path="url(#SVGID_2_)" fill="#FDC600" d="M137.977,378.297C60.612,378.297,0,318.533,0,242.223V0h38.621v19.645h21.147V0
		h38.881v19.645h18.879V0h38.505v19.645h19.017V0h38.536v19.645h22.629V0h37.896v242.223c0,36.718-13.724,70.915-38.595,96.23
		C210.276,364.154,175.585,378.297,137.977,378.297 M1.665,1.711v240.512c0,75.341,59.883,134.353,136.312,134.353
		c75.409,0,134.477-59.012,134.477-134.353V1.711h-34.579v19.623h-25.914V1.711h-35.247v19.623h-22.348V1.711h-35.234v19.623H96.993
		V1.711H61.456v19.623H37.003V1.711H1.665z"/>
	<path clip-path="url(#SVGID_2_)" fill-rule="evenodd" clip-rule="evenodd" fill="#0D93D2" d="M266.544,8.024v232.369
		c0,71.141-56.504,128.93-126.027,128.93h-5.831c-69.558,0-125.896-57.789-125.896-128.93V8.024h21.834v19.412H68.5V8.024h22.126
		v19.412h35.431V8.024h22.149v19.412h35.457V8.024h22.132v19.412h38.799V8.024H266.544z"/>
	<path clip-path="url(#SVGID_2_)" fill="#0D93D2" d="M92.521,269.271c0-25.541,20.21-46.182,45.164-46.182
		c24.899,0,45.134,20.641,45.134,46.182c0,25.504-20.235,46.188-45.134,46.188C112.731,315.459,92.521,294.775,92.521,269.271"/>
	<path clip-path="url(#SVGID_2_)" fill="#FFCC00" d="M109.627,269.271c0-15.816,12.555-28.646,28.059-28.646
		c15.435,0,27.974,12.829,27.974,28.646c0,15.825-12.539,28.67-27.974,28.67C122.182,297.941,109.627,285.097,109.627,269.271"/>
	<path clip-path="url(#SVGID_2_)" fill-rule="evenodd" clip-rule="evenodd" d="M154.207,297.969
		c0.201-5.213,2.995-6.463,6.399-6.463c3.43,0,6.252,1.25,6.429,6.463h5.876c-0.353-13.505-16.058-22.264-35.281-22.264
		c-19.257,0-34.813,8.759-35.223,22.264h5.933c0.209-5.213,2.995-6.463,6.423-6.463c3.383,0,6.227,1.25,6.491,6.463
		c0,0,5.698,0.211,5.698,0c0-8.082,4.78-16.6,10.678-16.6c5.876,0,10.679,8.044,10.679,16.15v0.449H154.207z"/>
	<path clip-path="url(#SVGID_2_)" fill="#FFFFFF" d="M137.686,315.928c-25.149,0-45.605-20.939-45.605-46.656
		c0-25.719,20.456-46.625,45.605-46.625c25.127,0,45.6,20.906,45.6,46.625C183.286,294.988,162.813,315.928,137.686,315.928
		 M137.686,223.531c-24.692,0-44.697,20.5-44.697,45.74c0,25.225,20.005,45.72,44.697,45.72c24.631,0,44.698-20.495,44.698-45.72
		C182.384,244.031,162.317,223.531,137.686,223.531"/>
	<polygon clip-path="url(#SVGID_2_)" fill-rule="evenodd" clip-rule="evenodd" fill="#FDC600" points="80.679,55.981 85.652,55.981 
		85.652,96.719 80.679,101.124 	"/>
	<path clip-path="url(#SVGID_2_)" fill="#0D93D2" d="M80.508,101.471V55.803h5.293v40.974l-0.057,0.057L80.508,101.471z
		 M80.828,56.122v44.631l4.654-4.124V56.122H80.828z"/>
	<polygon clip-path="url(#SVGID_2_)" fill-rule="evenodd" clip-rule="evenodd" fill="#FDC600" points="76.373,55.981 71.261,55.981 
		71.261,75.066 76.373,83.436 	"/>
	<path clip-path="url(#SVGID_2_)" fill="#0D93D2" d="M76.521,84.022l-5.458-8.892V55.803h5.458V84.022z M71.409,75.044l4.765,7.796
		V56.122h-4.765V75.044z"/>
	<polygon clip-path="url(#SVGID_2_)" fill-rule="evenodd" clip-rule="evenodd" fill="#FFCC00" points="61.343,55.981 66.485,55.981 
		66.485,75.066 61.343,83.436 	"/>
	<path clip-path="url(#SVGID_2_)" fill="#FFCC00" d="M61.193,84.021V55.803h5.442v19.327l-0.059,0.04L61.193,84.021z M61.513,56.122
		V82.84l4.769-7.797V56.122H61.513z"/>
	<polygon clip-path="url(#SVGID_2_)" fill-rule="evenodd" clip-rule="evenodd" fill="#FFCC00" points="57.566,55.981 52.592,55.981 
		52.592,96.719 57.566,101.124 	"/>
	<path clip-path="url(#SVGID_2_)" fill="#FFCC00" d="M57.703,101.471l-5.288-4.695V55.803h5.288V101.471z M52.722,96.629
		l4.661,4.123v-44.63h-4.661V96.629z"/>
	<path clip-path="url(#SVGID_2_)" fill-rule="evenodd" clip-rule="evenodd" fill="#FFCC00" d="M69.099,113.445
		c4.804-2.709,6.457-17.938,6.457-17.938c0-9.945-6.457-17.541-6.457-17.541s-6.273,7.596-6.273,17.541
		C62.826,95.507,64.307,110.736,69.099,113.445"/>
	<path clip-path="url(#SVGID_2_)" fill-rule="evenodd" clip-rule="evenodd" fill="#FFCC00" d="M85.164,105.313v8.969
		c0,0,0.489,5.551-5.129,11.135c-5.631,5.562-9.555,8.631-9.555,8.631v-10.318c0,0,0-4.398,3.424-8.451
		c3.466-4.063,10.073-9.966,10.073-9.966H85.164z"/>
	<path clip-path="url(#SVGID_2_)" fill-rule="evenodd" clip-rule="evenodd" fill="#FFCC00" d="M52.593,105.313v8.969
		c0,0-0.504,5.551,5.111,11.135c5.583,5.562,9.57,8.631,9.57,8.631v-10.318c0,0-0.135-4.398-3.64-8.451
		c-3.455-4.063-9.878-9.966-9.878-9.966H52.593z"/>
	<path clip-path="url(#SVGID_2_)" fill-rule="evenodd" clip-rule="evenodd" fill="#FFCC00" d="M85.164,128.857v8.785
		c0,0,0.489,5.748-5.129,11.174c-5.631,5.578-9.555,8.768-9.555,8.768v-10.308c0,0,0-4.397,3.424-8.428
		c3.466-4.24,10.073-9.991,10.073-9.991H85.164z"/>
	<path clip-path="url(#SVGID_2_)" fill-rule="evenodd" clip-rule="evenodd" fill="#FFCC00" d="M52.593,128.857v8.785
		c0,0-0.504,5.748,5.111,11.174c5.583,5.578,9.57,8.768,9.57,8.768v-10.308c0,0-0.135-4.397-3.64-8.428
		c-3.455-4.24-9.878-9.991-9.878-9.991H52.593z"/>
	<rect x="67.138" y="162.74" clip-path="url(#SVGID_2_)" fill="#FFCC00" width="4.031" height="22.681"/>
	<rect x="30.539" y="203.629" clip-path="url(#SVGID_2_)" fill="#FFCC00" width="4.107" height="71.125"/>
	<polygon clip-path="url(#SVGID_2_)" fill-rule="evenodd" clip-rule="evenodd" fill="#FFCC00" points="44.035,55.981 49.101,55.981 
		49.101,113.102 44.035,117.489 	"/>
	<path clip-path="url(#SVGID_2_)" fill="#FFCC00" d="M43.814,117.85V55.803h5.458v57.357l-0.091,0.07L43.814,117.85z M44.184,56.122
		v60.996l4.734-4.105V56.122H44.184z"/>
	<polygon clip-path="url(#SVGID_2_)" fill-rule="evenodd" clip-rule="evenodd" fill="#FFCC00" points="39.876,55.981 34.76,55.981 
		34.76,91.449 39.876,99.847 	"/>
	<path clip-path="url(#SVGID_2_)" fill="#FFCC00" d="M40.025,100.394l-5.435-8.863V55.803h5.435V100.394z M34.909,91.432
		l4.769,7.798V56.122h-4.769V91.432z"/>
	<polygon clip-path="url(#SVGID_2_)" fill-rule="evenodd" clip-rule="evenodd" fill="#FFCC00" points="24.845,55.981 29.936,55.981 
		29.936,91.449 24.845,99.847 	"/>
	<path clip-path="url(#SVGID_2_)" fill="#FFCC00" d="M24.676,100.42V55.803h5.429V91.53l-0.023,0.048L24.676,100.42z M24.955,56.122
		v43.108l4.804-7.798v-35.31H24.955z"/>
	<polygon clip-path="url(#SVGID_2_)" fill-rule="evenodd" clip-rule="evenodd" fill="#FFCC00" points="21,55.981 15.889,55.981 
		15.889,113.102 21,117.489 	"/>
	<path clip-path="url(#SVGID_2_)" fill="#FFCC00" d="M21.173,117.849l-5.464-4.69V55.803h5.464V117.849z M16.067,113.012
		l4.816,4.106V56.121h-4.816V113.012z"/>
	<path clip-path="url(#SVGID_2_)" fill-rule="evenodd" clip-rule="evenodd" fill="#FFCC00" d="M32.435,129.496
		c4.778-2.719,6.575-18.083,6.575-18.083c0-9.811-6.44-17.379-6.44-17.379s-6.411,7.568-6.411,17.379
		C26.159,111.413,27.63,126.777,32.435,129.496"/>
	<path clip-path="url(#SVGID_2_)" fill-rule="evenodd" clip-rule="evenodd" fill="#FFCC00" d="M48.462,121.18v8.989
		c0,0,0.456,5.569-5.156,11.135c-5.608,5.588-9.538,8.613-9.538,8.613v-10.289c0,0,0.126-4.393,3.616-8.464
		c3.48-4.042,10.085-9.984,10.085-9.984H48.462z"/>
	<path clip-path="url(#SVGID_2_)" fill-rule="evenodd" clip-rule="evenodd" fill="#FFCC00" d="M16.067,121.18v8.989
		c0,0-0.642,5.569,4.934,11.135c5.615,5.588,9.75,8.613,9.75,8.613v-10.289c0,0-0.126-4.393-3.611-8.464
		c-3.492-4.042-10.057-9.984-10.057-9.984H16.067z"/>
	<path clip-path="url(#SVGID_2_)" fill-rule="evenodd" clip-rule="evenodd" fill="#FFCC00" d="M48.462,144.579v8.965
		c0,0,0.456,5.547-5.156,11.155c-5.608,5.395-9.538,8.424-9.538,8.424v-10.109c0,0,0.126-4.413,3.616-8.471
		c3.48-4.072,10.085-9.964,10.085-9.964H48.462z"/>
	<path clip-path="url(#SVGID_2_)" fill-rule="evenodd" clip-rule="evenodd" fill="#FFCC00" d="M16.067,144.579v8.965
		c0,0-0.642,5.547,4.934,11.155c5.615,5.395,9.75,8.424,9.75,8.424v-10.109c0,0-0.126-4.413-3.611-8.471
		c-3.492-4.072-10.057-9.964-10.057-9.964H16.067z"/>
	<path clip-path="url(#SVGID_2_)" fill-rule="evenodd" clip-rule="evenodd" fill="#FFCC00" d="M48.462,168.336v8.791
		c0,0,0.456,5.549-5.156,11.127c-5.608,5.579-9.538,8.815-9.538,8.815v-10.467c0,0,0.126-4.251,3.616-8.484
		c3.48-4.037,10.085-9.782,10.085-9.782H48.462z"/>
	<path clip-path="url(#SVGID_2_)" fill-rule="evenodd" clip-rule="evenodd" fill="#FFCC00" d="M16.067,168.336v8.791
		c0,0-0.642,5.549,4.934,11.127c5.615,5.579,9.75,8.815,9.75,8.815v-10.467c0,0-0.126-4.251-3.611-8.484
		c-3.492-4.037-10.057-9.782-10.057-9.782H16.067z"/>
	<polygon clip-path="url(#SVGID_2_)" fill-rule="evenodd" clip-rule="evenodd" fill="#0D93D2" points="179.853,139.678 
		170.287,139.678 170.287,99.309 	"/>
	<polygon clip-path="url(#SVGID_2_)" fill-rule="evenodd" clip-rule="evenodd" fill="#0D93D2" points="158.216,139.678 
		167.966,139.678 167.966,99.309 	"/>
	<path clip-path="url(#SVGID_2_)" fill-rule="evenodd" clip-rule="evenodd" fill="#FFCC00" d="M138.177,184.03
		c0.236,1.481-3.89,7.706-10.38,15.777c-6.394,8.793-2.295,18.834,8.783,18.834c14.157,0,14.684-10.041,10.769-17.916
		C144.259,194.112,140.015,188.643,138.177,184.03"/>
	<path clip-path="url(#SVGID_2_)" fill-rule="evenodd" clip-rule="evenodd" fill="#FFCC00" d="M170.229,191
		c-0.326,1.5-6.429,5.321-15.589,10.068c-9.48,5.321-9.806,16.143,0.398,20.865c12.886,5.868,17.343-3.093,16.989-12.253
		C171.832,202.715,170.052,195.949,170.229,191"/>
	<path clip-path="url(#SVGID_2_)" fill-rule="evenodd" clip-rule="evenodd" fill="#FFCC00" d="M196.56,207.302
		c-0.919,1.298-7.899,3.115-18.127,4.773c-10.51,2.215-14.285,12.446-5.875,20.154c10.38,9.655,17.526,2.544,19.889-6.24
		C194.392,219.041,194.775,212.075,196.56,207.302"/>
	<path clip-path="url(#SVGID_2_)" fill-rule="evenodd" clip-rule="evenodd" fill="#FFCC00" d="M215.16,236.25
		c-1.275,0.726-8.407-0.389-18.265-3.104c-10.733-2.576-18.081,5.305-13.558,15.716c5.712,13.175,15.009,9.685,20.747,2.581
		C208.494,245.938,211.762,239.868,215.16,236.25"/>
	<path clip-path="url(#SVGID_2_)" fill-rule="evenodd" clip-rule="evenodd" fill="#FFCC00" d="M221.059,265.88
		c-1.414,0.551-8.048-2.779-16.838-7.881c-9.652-5.103-18.792,0.549-17.147,11.725c2.293,14.294,12.185,13.358,19.315,7.857
		C212.252,273.572,216.758,268.484,221.059,265.88"/>
	<path clip-path="url(#SVGID_2_)" fill-rule="evenodd" clip-rule="evenodd" fill="#FFCC00" d="M214.956,301.209
		c-1.392-0.336-5.521-6.584-10.553-15.755c-5.528-9.526-16.267-9.526-20.421,1.118c-5.35,13.356,3.604,17.774,12.579,16.987
		C203.529,303.034,209.954,301.209,214.956,301.209"/>
	<path clip-path="url(#SVGID_2_)" fill-rule="evenodd" clip-rule="evenodd" fill="#FFCC00" d="M200.672,326.674
		c-1.266-0.718-4.112-7.724-7.004-17.576c-3.584-10.45-14.106-12.833-20.21-3.313c-8.061,11.929-0.171,18.105,8.748,19.234
		C189.23,326.103,196.028,325.556,200.672,326.674"/>
	<path clip-path="url(#SVGID_2_)" fill-rule="evenodd" clip-rule="evenodd" fill="#FFCC00" d="M171.685,346.802
		c-0.902-1.298-0.204-8.617,1.774-18.873c1.591-10.963-6.424-17.91-16.286-12.616c-12.511,6.768-8.384,15.943-1.108,21.225
		C161.644,340.764,167.923,343.5,171.685,346.802"/>
	<path clip-path="url(#SVGID_2_)" fill-rule="evenodd" clip-rule="evenodd" fill="#FFCC00" d="M136.057,354.504
		c-0.173-1.659,3.752-7.702,10.209-15.955c6.606-8.796,2.522-19.029-8.58-19.029c-14.134,0-14.688,10.233-10.762,18.294
		C129.952,344.254,134.286,349.735,136.057,354.504"/>
	<path clip-path="url(#SVGID_2_)" fill-rule="evenodd" clip-rule="evenodd" fill="#FFCC00" d="M104.704,191
		c0.582,1.5,6.685,5.321,15.766,10.068c9.482,5.321,9.829,16.143-0.354,20.865c-12.89,5.868-17.51-3.093-17.009-12.253
		C103.335,202.715,104.933,195.949,104.704,191"/>
	<path clip-path="url(#SVGID_2_)" fill-rule="evenodd" clip-rule="evenodd" fill="#FFCC00" d="M78.785,207.302
		c0.879,1.298,7.889,3.115,18.065,4.773c10.376,2.215,13.998,12.446,5.756,20.154c-10.404,9.655-17.422,2.544-19.685-6.24
		C80.941,219.041,80.564,212.075,78.785,207.302"/>
	<path clip-path="url(#SVGID_2_)" fill-rule="evenodd" clip-rule="evenodd" fill="#FFCC00" d="M60.179,236.25
		c1.254,0.726,8.431-0.389,18.236-3.104c10.586-2.576,18.089,5.305,13.466,15.716c-5.753,13.175-15.07,9.685-20.603,2.581
		C66.805,245.938,63.583,239.868,60.179,236.25"/>
	<path clip-path="url(#SVGID_2_)" fill-rule="evenodd" clip-rule="evenodd" fill="#FFCC00" d="M54.273,265.88
		c1.431,0.551,8.062-2.779,16.844-7.881c9.647-5.103,18.753,0.549,16.955,11.725c-2.094,14.294-11.957,13.358-19.115,7.857
		C63.063,273.572,58.411,268.484,54.273,265.88"/>
	<path clip-path="url(#SVGID_2_)" fill-rule="evenodd" clip-rule="evenodd" fill="#FFCC00" d="M60.379,301.209
		c1.432-0.336,5.526-6.584,10.352-15.755c5.705-9.526,16.474-9.526,20.568,1.118c5.374,13.356-3.553,17.774-12.514,16.987
		C71.814,303.034,65.203,301.209,60.379,301.209"/>
	<path clip-path="url(#SVGID_2_)" fill-rule="evenodd" clip-rule="evenodd" fill="#FFCC00" d="M74.518,326.674
		c1.419-0.718,4.063-7.724,7.153-17.576c3.513-10.45,13.924-12.833,20.033-3.313c7.851,11.929,0,18.105-8.607,19.234
		C86.128,326.103,79.344,325.556,74.518,326.674"/>
	<path clip-path="url(#SVGID_2_)" fill-rule="evenodd" clip-rule="evenodd" fill="#FFCC00" d="M103.52,346.802
		c0.83-1.298,0-8.617-2.014-18.873c-1.42-10.963,6.634-17.91,16.463-12.616c12.531,6.768,8.401,15.943,1.106,21.225
		C113.341,340.764,107.226,343.5,103.52,346.802"/>
	<path clip-path="url(#SVGID_2_)" fill-rule="evenodd" clip-rule="evenodd" fill="#FFFFFF" d="M105.459,69.91v7.752h19.485v83.15
		l-5.574,7.417l17.154-6.727v-47.519h2.44v47.519l17.336,6.566l-5.563-7.256V78.685c0,0,1.924,0.171,1.924,2.032v30.778h7.42V79.692
		c0,0,0.685-9.782-11.521-9.782H105.459z"/>
	<path clip-path="url(#SVGID_2_)" fill-rule="evenodd" clip-rule="evenodd" fill="#FFFFFF" d="M171.032,69.91h-13.568
		c0,0,4.293,3.616,4.293,7.752h9.275V69.91z"/>
	<path clip-path="url(#SVGID_2_)" fill="#FFFFFF" d="M119.508,141.976H94.037l0.051-0.351l12.391-60.421h0.483L119.508,141.976z
		 M94.642,141.436h24.22l-12.128-58.892L94.642,141.436z"/>
	<rect x="91.117" y="140.039" clip-path="url(#SVGID_2_)" fill="#FFFFFF" width="31.248" height="7.425"/>
	<rect x="106.479" y="85.173" clip-path="url(#SVGID_2_)" fill="#FFFFFF" width="0.483" height="56.623"/>
	<path clip-path="url(#SVGID_2_)" fill="#FFFFFF" d="M182.67,141.976h-25.469l0.051-0.351l12.402-60.421h0.523L182.67,141.976z
		 M157.835,141.436h24.202l-12.099-58.892L157.835,141.436z"/>
	<rect x="154.293" y="140.039" clip-path="url(#SVGID_2_)" fill="#FFFFFF" width="31.258" height="7.425"/>
	<rect x="169.654" y="85.173" clip-path="url(#SVGID_2_)" fill="#FFFFFF" width="0.523" height="56.623"/>
	<path clip-path="url(#SVGID_2_)" fill-rule="evenodd" clip-rule="evenodd" fill="#FFFFFF" d="M128.958,58.936
		c0-4.694,3.789-8.556,8.375-8.556s8.407,3.862,8.407,8.556c0,4.734-3.821,8.624-8.407,8.624S128.958,63.669,128.958,58.936"/>
	<path clip-path="url(#SVGID_2_)" fill-rule="evenodd" clip-rule="evenodd" fill="#FFFFFF" d="M95.944,77.805
		c0-4.279,3.296-7.713,7.392-7.713v7.713H95.944z"/>
	<path clip-path="url(#SVGID_2_)" fill-rule="evenodd" clip-rule="evenodd" fill="#FFFFFF" d="M160.046,113.684
		c0,4.222-3.25,7.689-7.414,7.689v-7.689H160.046z"/>
	<polygon clip-path="url(#SVGID_2_)" fill-rule="evenodd" clip-rule="evenodd" fill="#FFFFFF" points="137.858,270.686 
		132.278,263.358 117.299,259.404 94.379,263.358 118.083,252.087 137.858,257.567 157.217,252.087 180.902,263.358 158.044,259.36 
		143.004,263.358 	"/>
	<polygon clip-path="url(#SVGID_2_)" fill-rule="evenodd" clip-rule="evenodd" fill="#FFFFFF" points="137.779,246.192 
		134.493,241.858 125.644,239.543 112.126,241.858 126.108,235.193 137.779,238.452 149.233,235.193 163.218,241.858 
		149.701,239.543 140.848,241.858 	"/>
	<polygon clip-path="url(#SVGID_2_)" fill-rule="evenodd" clip-rule="evenodd" fill="#FFCC00" points="194.888,55.981 
		189.766,55.981 189.766,96.719 194.888,101.124 	"/>
	<path clip-path="url(#SVGID_2_)" fill="#FFCC00" d="M195.07,101.471l-5.475-4.695V55.803h5.475V101.471z M189.949,96.629
		l4.802,4.145V56.122h-4.802V96.629z"/>
	<polygon clip-path="url(#SVGID_2_)" fill-rule="evenodd" clip-rule="evenodd" fill="#FFCC00" points="199.167,55.981 
		204.135,55.981 204.135,75.066 199.167,83.436 	"/>
	<path clip-path="url(#SVGID_2_)" fill="#FFCC00" d="M199.024,84.032V55.803h5.287v19.327l-0.035,0.04L199.024,84.032z
		 M199.373,56.122V82.84l4.591-7.797V56.122H199.373z"/>
	<polygon clip-path="url(#SVGID_2_)" fill-rule="evenodd" clip-rule="evenodd" fill="#FFCC00" points="214.032,55.981 
		209.116,55.981 209.116,75.066 214.032,83.436 	"/>
	<path clip-path="url(#SVGID_2_)" fill="#FFCC00" d="M214.228,84.033l-5.289-8.903V55.803h5.289V84.033z M209.263,75.044
		l4.622,7.796V56.122h-4.622V75.044z"/>
	<polygon clip-path="url(#SVGID_2_)" fill-rule="evenodd" clip-rule="evenodd" fill="#FFCC00" points="217.831,55.981 
		222.981,55.981 222.981,96.719 217.831,101.124 	"/>
	<path clip-path="url(#SVGID_2_)" fill="#FFCC00" d="M217.718,101.471V55.803h5.447v40.974l-0.064,0.057L217.718,101.471z
		 M218.041,56.122v44.653l4.764-4.146V56.122H218.041z"/>
	<path clip-path="url(#SVGID_2_)" fill-rule="evenodd" clip-rule="evenodd" fill="#FFCC00" d="M206.463,113.445
		c-4.799-2.709-6.417-17.938-6.417-17.938c0-9.945,6.246-17.541,6.246-17.541s6.451,7.596,6.451,17.541
		C212.743,95.507,211.232,110.736,206.463,113.445"/>
	<path clip-path="url(#SVGID_2_)" fill-rule="evenodd" clip-rule="evenodd" fill="#FFCC00" d="M190.439,105.313v8.969
		c0,0-0.49,5.551,5.122,11.135c5.602,5.562,9.566,8.631,9.566,8.631v-10.318c0,0-0.142-4.398-3.633-8.451
		c-3.462-4.063-9.926-9.966-9.926-9.966H190.439z"/>
	<path clip-path="url(#SVGID_2_)" fill-rule="evenodd" clip-rule="evenodd" fill="#FFCC00" d="M222.981,105.313v8.969
		c0,0,0.469,5.551-5.15,11.135c-5.613,5.562-9.56,8.631-9.56,8.631v-10.318c0,0,0-4.398,3.49-8.451
		c3.458-4.063,10.057-9.966,10.057-9.966H222.981z"/>
	<path clip-path="url(#SVGID_2_)" fill-rule="evenodd" clip-rule="evenodd" fill="#FFCC00" d="M190.439,128.857v8.785
		c0,0-0.49,5.748,5.122,11.174c5.602,5.578,9.566,8.768,9.566,8.768v-10.308c0,0-0.142-4.397-3.633-8.428
		c-3.462-4.24-9.926-9.991-9.926-9.991H190.439z"/>
	<path clip-path="url(#SVGID_2_)" fill-rule="evenodd" clip-rule="evenodd" fill="#FFCC00" d="M222.981,128.857v8.785
		c0,0,0.469,5.748-5.15,11.174c-5.613,5.578-9.56,8.768-9.56,8.768v-10.308c0,0,0-4.397,3.49-8.428
		c3.458-4.24,10.057-9.991,10.057-9.991H222.981z"/>
	<polygon clip-path="url(#SVGID_2_)" fill-rule="evenodd" clip-rule="evenodd" fill="#FFCC00" points="231.561,55.981 
		226.446,55.981 226.446,113.102 231.561,117.489 	"/>
	<path clip-path="url(#SVGID_2_)" fill="#FFCC00" d="M231.737,117.849l-5.441-4.69V55.803h5.441V117.849z M226.623,113.012
		l4.801,4.106V56.121h-4.801V113.012z"/>
	<polygon clip-path="url(#SVGID_2_)" fill-rule="evenodd" clip-rule="evenodd" fill="#FFCC00" points="235.719,55.981 
		240.808,55.981 240.808,91.449 235.719,99.847 	"/>
	<path clip-path="url(#SVGID_2_)" fill="#FFCC00" d="M235.57,100.42V55.803h5.41V91.53v0.048L235.57,100.42z M235.844,56.122v43.108
		l4.816-7.798v-35.31H235.844z"/>
	<polygon clip-path="url(#SVGID_2_)" fill-rule="evenodd" clip-rule="evenodd" fill="#FFCC00" points="250.723,55.981 
		245.633,55.981 245.633,91.449 250.723,99.847 	"/>
	<path clip-path="url(#SVGID_2_)" fill="#FFCC00" d="M250.91,100.394l-5.448-8.863V55.803h5.448V100.394z M245.781,91.432
		l4.803,7.798V56.122h-4.803V91.432z"/>
	<polygon clip-path="url(#SVGID_2_)" fill-rule="evenodd" clip-rule="evenodd" fill="#FFCC00" points="254.538,55.981 
		259.659,55.981 259.659,113.102 254.538,117.489 	"/>
	<path clip-path="url(#SVGID_2_)" fill="#FFCC00" d="M254.394,117.85V55.803h5.442v57.357l-0.092,0.07L254.394,117.85z
		 M254.716,56.122v60.996l4.768-4.105V56.122H254.716z"/>
	<path clip-path="url(#SVGID_2_)" fill-rule="evenodd" clip-rule="evenodd" fill="#FFCC00" d="M243.136,129.496
		c-4.942-2.719-6.602-18.083-6.602-18.083c0-9.811,6.429-17.379,6.429-17.379s6.311,7.568,6.311,17.379
		C249.274,111.413,247.937,126.777,243.136,129.496"/>
	<path clip-path="url(#SVGID_2_)" fill-rule="evenodd" clip-rule="evenodd" fill="#FFCC00" d="M227.118,121.18v8.989
		c0,0-0.672,5.569,4.939,11.135c5.618,5.588,9.801,8.613,9.801,8.613v-10.289c0,0-0.194-4.393-3.663-8.464
		c-3.491-4.042-10.09-9.984-10.09-9.984H227.118z"/>
	<path clip-path="url(#SVGID_2_)" fill-rule="evenodd" clip-rule="evenodd" fill="#FFCC00" d="M259.449,121.18v8.989
		c0,0,0.559,5.569-5.055,11.135c-5.612,5.588-9.598,8.613-9.598,8.613v-10.289c0,0,0.147-4.393,3.637-8.464
		c3.486-4.042,10.057-9.984,10.057-9.984H259.449z"/>
	<path clip-path="url(#SVGID_2_)" fill-rule="evenodd" clip-rule="evenodd" fill="#FFCC00" d="M227.118,144.579v8.965
		c0,0-0.672,5.547,4.939,11.155c5.618,5.395,9.801,8.424,9.801,8.424v-10.109c0,0-0.194-4.413-3.663-8.471
		c-3.491-4.072-10.09-9.964-10.09-9.964H227.118z"/>
	<path clip-path="url(#SVGID_2_)" fill-rule="evenodd" clip-rule="evenodd" fill="#FFCC00" d="M259.449,144.579v8.965
		c0,0,0.559,5.547-5.055,11.155c-5.612,5.395-9.598,8.424-9.598,8.424v-10.109c0,0,0.147-4.413,3.637-8.471
		c3.486-4.072,10.057-9.964,10.057-9.964H259.449z"/>
	<path clip-path="url(#SVGID_2_)" fill-rule="evenodd" clip-rule="evenodd" fill="#FFCC00" d="M227.118,168.336v8.791
		c0,0-0.672,5.549,4.939,11.127c5.618,5.579,9.801,8.815,9.801,8.815v-10.467c0,0-0.194-4.251-3.663-8.484
		c-3.491-4.037-10.09-9.782-10.09-9.782H227.118z"/>
	<path clip-path="url(#SVGID_2_)" fill-rule="evenodd" clip-rule="evenodd" fill="#FFCC00" d="M259.449,168.336v8.791
		c0,0,0.559,5.549-5.055,11.127c-5.612,5.579-9.598,8.815-9.598,8.815v-10.467c0,0,0.147-4.251,3.637-8.484
		c3.486-4.037,10.057-9.782,10.057-9.782H259.449z"/>
	<rect x="241.39" y="203.629" clip-path="url(#SVGID_2_)" fill="#FFCC00" width="4.073" height="71.125"/>
	
		<rect x="204.756" y="162.74" clip-path="url(#SVGID_2_)" fill-rule="evenodd" clip-rule="evenodd" fill="#FFCC00" width="4.073" height="22.681"/>
	
		<rect x="943.909" y="197.056" clip-path="url(#SVGID_2_)" fill-rule="evenodd" clip-rule="evenodd" fill="#0D93D2" width="20.772" height="13.532"/>
	<polygon clip-path="url(#SVGID_2_)" fill-rule="evenodd" clip-rule="evenodd" fill="#0D93D2" points="447.117,257.311 
		447.117,270.822 386.38,270.822 386.38,197.057 446.275,197.057 446.275,210.771 407.152,210.771 407.152,225.732 444.46,225.732 
		444.46,239.532 407.152,239.532 407.152,257.311 	"/>
	<polygon clip-path="url(#SVGID_2_)" fill-rule="evenodd" clip-rule="evenodd" fill="#0D93D2" points="520.331,257.082 
		520.331,270.822 457.487,270.822 457.487,197.057 478.273,197.057 478.273,257.082 	"/>
	<polygon clip-path="url(#SVGID_2_)" fill-rule="evenodd" clip-rule="evenodd" fill="#0D93D2" points="587.43,257.311 
		587.43,270.822 526.669,270.822 526.669,197.057 586.563,197.057 586.563,210.771 547.454,210.771 547.454,225.732 
		584.754,225.732 584.754,239.532 547.454,239.532 547.454,257.311 	"/>
	
		<rect x="689.928" y="214.619" clip-path="url(#SVGID_2_)" fill-rule="evenodd" clip-rule="evenodd" fill="#0D93D2" width="20.782" height="56.203"/>
	<polygon clip-path="url(#SVGID_2_)" fill-rule="evenodd" clip-rule="evenodd" fill="#0D93D2" points="800.582,197.057 
		768.156,236.3 768.156,270.822 747.498,270.822 747.498,236.3 715.033,197.057 739.834,197.057 757.894,220.194 775.975,197.057 	
		"/>
	<polygon clip-path="url(#SVGID_2_)" fill-rule="evenodd" clip-rule="evenodd" fill="#0D93D2" points="865.326,257.311 
		865.326,270.822 804.613,270.822 804.613,197.057 864.505,197.057 864.505,210.771 825.392,210.771 825.392,225.732 
		862.691,225.732 862.691,239.532 825.392,239.532 825.392,257.311 	"/>
	<path clip-path="url(#SVGID_2_)" fill-rule="evenodd" clip-rule="evenodd" fill="#0D93D2" d="M931.027,201.808v15.146l-1.484-0.646
		c-9.594-4.295-18.026-6.503-25.108-6.503c-3.673,0-6.683,0.525-8.853,1.654c-2.287,1.072-3.44,2.505-3.44,4.299
		c0,2.913,4.483,5.797,13.424,8.752l6.489,2.184c7.98,2.664,13.703,5.819,17.26,9.487c3.635,3.634,5.465,8.203,5.465,13.782
		c0,6.507-2.994,11.843-8.908,15.863c-5.922,3.994-13.658,5.995-23.323,5.995c-6.784,0-14.058-1.362-21.757-3.998
		c-3.326-1.176-5.769-2.197-7.377-3.159v-15.934c5.48,3.057,9.903,5.162,13.269,6.417c5.261,1.871,10.324,2.816,15.243,2.816
		c8.271,0,12.418-2.265,12.418-6.74c0-1.792-0.771-3.286-2.37-4.551c-1.619-1.193-4.552-2.489-8.739-3.778l-4.448-1.391
		c-4.608-1.432-9.174-3.273-13.61-5.419c-3.184-1.51-5.728-3.291-7.752-5.277c-3.631-3.715-5.446-8.26-5.446-13.786
		c0-6.332,2.823-11.432,8.471-15.215c5.723-3.833,13.308-5.76,22.661-5.76C912.013,196.048,921.271,197.975,931.027,201.808"/>
	
		<rect x="943.909" y="214.619" clip-path="url(#SVGID_2_)" fill-rule="evenodd" clip-rule="evenodd" fill="#0D93D2" width="20.772" height="56.203"/>
	
		<rect x="689.928" y="197.056" clip-path="url(#SVGID_2_)" fill-rule="evenodd" clip-rule="evenodd" fill="#0D93D2" width="20.782" height="13.532"/>
	<path clip-path="url(#SVGID_2_)" fill-rule="evenodd" clip-rule="evenodd" fill="#0D93D2" d="M328.059,210.229v16.143h7.78
		c4.911,0,8.551-0.582,10.611-1.859c2.161-1.181,3.239-3.315,3.239-6.235c0-5.338-4.476-8.048-13.54-8.048H328.059z
		 M328.059,239.672v17.753h10.142c6.459,0,10.988-0.64,13.381-1.944c2.643-1.308,3.879-3.618,3.879-6.926
		c0-3.424-1.287-5.688-3.992-6.944c-2.555-1.294-7.274-1.938-14.272-1.938H328.059z M307.17,197.057h31.413
		c7.084,0,12.458,0.452,16.056,1.393c4.69,1.204,8.482,3.416,11.34,6.588c2.864,3.108,4.324,6.56,4.324,10.403
		c0,6.641-3.66,11.575-11.101,14.822c11.616,3.249,17.423,9.624,17.423,19.124c0,4.706-1.439,8.796-4.218,12.239
		c-2.833,3.498-6.822,5.98-11.96,7.588c-3.787,1.164-8.979,1.731-15.481,1.731l-37.796-0.123V197.057z"/>
	<path clip-path="url(#SVGID_2_)" fill-rule="evenodd" clip-rule="evenodd" fill="#0D93D2" d="M601.687,82.528v19.799l-1.595-0.861
		c-10.645-5.644-19.856-8.488-27.692-8.488c-4.074,0-7.378,0.707-9.854,2.133c-2.485,1.439-3.719,3.293-3.719,5.648
		c0,3.771,4.906,7.569,14.753,11.447l7.205,2.825c8.789,3.492,15.144,7.655,19.023,12.446c4.026,4.712,6.018,10.7,6.018,17.947
		c0,8.587-3.28,15.507-9.897,20.773c-6.447,5.179-15.014,7.756-25.682,7.756c-7.427,0-15.435-1.704-23.957-5.202
		c-3.639-1.504-6.335-2.869-8.11-4.094v-20.781c6.045,3.954,10.894,6.715,14.637,8.345c5.76,2.454,11.396,3.651,16.776,3.651
		c9.146,0,13.716-2.908,13.716-8.774c0-2.333-0.883-4.312-2.675-5.937c-1.742-1.584-4.945-3.223-9.578-4.901l-4.898-1.859
		c-5.06-1.882-10.111-4.233-15.063-7.067c-3.455-2.007-6.314-4.285-8.545-6.961c-3.983-4.778-5.979-10.738-5.979-17.938
		c0-8.271,3.12-14.92,9.319-19.907c6.314-4.987,14.65-7.473,25.041-7.473C580.706,75.055,590.971,77.541,601.687,82.528"/>
	<polygon clip-path="url(#SVGID_2_)" fill-rule="evenodd" clip-rule="evenodd" fill="#0D93D2" points="722.972,154.743 
		722.972,172.694 653.734,172.694 653.734,76.32 676.632,76.32 676.632,154.743 	"/>
	
		<rect x="730.456" y="99.927" clip-path="url(#SVGID_2_)" fill-rule="evenodd" clip-rule="evenodd" fill="#0D93D2" width="22.886" height="72.768"/>
	<polygon clip-path="url(#SVGID_2_)" fill-rule="evenodd" clip-rule="evenodd" fill="#0D93D2" points="853.865,76.32 
		811.924,173.953 802.089,173.953 758.126,76.32 782.754,76.32 806.744,131.277 829.515,76.32 	"/>
	
		<rect x="943.062" y="99.927" clip-path="url(#SVGID_2_)" fill-rule="evenodd" clip-rule="evenodd" fill="#0D93D2" width="22.894" height="72.768"/>
	
		<rect x="615.929" y="76.32" clip-path="url(#SVGID_2_)" fill-rule="evenodd" clip-rule="evenodd" fill="#0D93D2" width="22.9" height="18.563"/>
	
		<rect x="730.456" y="76.32" clip-path="url(#SVGID_2_)" fill-rule="evenodd" clip-rule="evenodd" fill="#0D93D2" width="22.886" height="18.563"/>
	
		<rect x="943.062" y="76.32" clip-path="url(#SVGID_2_)" fill-rule="evenodd" clip-rule="evenodd" fill="#0D93D2" width="22.894" height="18.563"/>
	<rect x="615.929" y="99.927" clip-path="url(#SVGID_2_)" fill="#0D93D2" width="22.9" height="72.768"/>
	<path clip-path="url(#SVGID_2_)" fill-rule="evenodd" clip-rule="evenodd" fill="#0D93D2" d="M881,93.843v22.049h9.459l1.713-0.132
		l2.839-0.165c2.998-0.202,5.454-1.215,7.295-3.104c1.871-1.955,2.813-4.512,2.813-7.625c0-7.341-4.222-11.023-12.617-11.023H881z
		 M858.109,76.32h34.892c6.657,0,11.559,0.321,14.639,0.971c3.183,0.593,6.264,1.85,9.195,3.844
		c3.534,2.436,6.425,5.729,8.541,9.864c2.196,4.18,3.337,8.505,3.337,13.035c0,7.528-2.586,13.701-7.725,18.492
		c-1.885,1.698-4.529,3.411-7.861,5.081c4.415,2.357,8.785,8.404,13.04,18.101l11.844,26.986h-24.884l-0.543-0.975l-1.762-3.954
		l-1.698-4.387l-6.14-14.419c-3.609-8.67-7.678-13.644-12.126-14.98c-1.215-0.369-3.414-0.579-6.489-0.579H881v39.294h-22.891V76.32
		z"/>
	<path clip-path="url(#SVGID_2_)" fill-rule="evenodd" clip-rule="evenodd" fill="#0D93D2" d="M618.467,211.104v45.681h8.311
		c8.242,0,14.235-0.725,18.071-2.192c9.248-3.432,13.769-10.447,13.769-20.897c0-10.364-4.564-17.233-13.851-20.631
		c-3.557-1.29-8.859-1.96-15.936-1.96H618.467z M597.717,197.057h33.51c3.817,0,6.926,0.053,9.324,0.343
		c6.145,0.553,11.797,1.9,16.862,4.107c8.984,3.815,15.368,9.598,19.201,17.369c2.208,4.374,3.337,9.325,3.337,14.962
		c0,8.864-2.794,16.405-8.361,22.742c-5.584,6.239-13.236,10.466-22.955,12.634c-5.259,1.164-11.646,1.731-18.952,1.731
		l-31.966-0.123V197.057z"/>
	<polygon clip-path="url(#SVGID_2_)" fill="#0D93D2" points="302.504,97.686 327.215,97.686 327.215,170.705 350.842,170.705 
		350.842,97.686 375.592,97.686 375.592,75.451 302.504,75.451 	"/>
	<rect x="378.483" y="146.245" clip-path="url(#SVGID_2_)" fill="#0D93D2" width="23.375" height="24.46"/>
	<path clip-path="url(#SVGID_2_)" fill="#0D93D2" d="M479.712,143.894l-4.508,3.104c-0.205,0.083-0.411,0.204-0.65,0.224
		l-0.456,0.152c-1.756,0.775-3.891,1.46-6.433,2.036c-2.973,0.679-6.469,0.986-10.463,0.804c-0.719-0.051-1.436-0.114-2.2-0.147
		c-5.524-0.697-10.714-3.109-15.345-7.172c-4.416-3.895-6.607-10.461-6.607-19.571c0-9,2.545-15.634,7.736-20.353
		c5.277-4.78,11.717-7.082,19.76-7.082c2.817,0,5.509,0.25,8.133,0.716c2.533,0.492,5.146,1.246,7.637,2.318l4.112,1.768
		l1.039-22.257l-2.199-0.822c-0.813-0.252-1.617-0.503-2.421-0.788c-0.804-0.136-1.436-0.365-2.093-0.593l-0.326-0.093
		c-2.246-0.529-4.666-0.933-7.118-1.254c-2.459-0.314-5.159-0.466-7.968-0.466c-15.539,0-28.015,4.438-37.113,13.334
		c-9.133,8.877-13.77,20.913-13.77,35.868c0,15.773,4.799,27.919,14.336,36.064c9.338,7.888,20.568,11.946,33.324,11.946
		c0.925,0,1.894-0.057,2.904-0.092c0.996-0.047,1.967-0.09,2.982-0.178c3.012-0.286,5.955-0.708,8.778-1.237
		c2.922-0.635,5.779-1.36,8.485-2.368l2.324-0.791l-1.329-17.594L479.712,143.894z"/>
	<rect x="487.352" y="146.245" clip-path="url(#SVGID_2_)" fill="#0D93D2" width="23.391" height="24.46"/>
</g>
</svg>
