<?xml version="1.0" encoding="UTF-8" standalone="no"?>
<!-- Created with Inkscape (http://www.inkscape.org/) -->

<svg
   xmlns:dc="http://purl.org/dc/elements/1.1/"
   xmlns:cc="http://creativecommons.org/ns#"
   xmlns:rdf="http://www.w3.org/1999/02/22-rdf-syntax-ns#"
   xmlns:svg="http://www.w3.org/2000/svg"
   xmlns="http://www.w3.org/2000/svg"
   xmlns:sodipodi="http://sodipodi.sourceforge.net/DTD/sodipodi-0.dtd"
   xmlns:inkscape="http://www.inkscape.org/namespaces/inkscape"
   width="403.18179"
   height="403.18179"
   viewBox="0 0 106.67518 106.67519"
   version="1.1"
   id="svg8"
   inkscape:version="0.92.3 (2405546, 2018-03-11)"
   sodipodi:docname="belediye_sisli.svg">
  <defs
     id="defs2" />
  <sodipodi:namedview
     id="base"
     pagecolor="#ffffff"
     bordercolor="#666666"
     borderopacity="1.0"
     inkscape:pageopacity="0.0"
     inkscape:pageshadow="2"
     inkscape:zoom="1.4"
     inkscape:cx="294.5566"
     inkscape:cy="225.5173"
     inkscape:document-units="px"
     inkscape:current-layer="layer1"
     showgrid="false"
     units="px"
     showborder="false"
     inkscape:window-width="1920"
     inkscape:window-height="1017"
     inkscape:window-x="-8"
     inkscape:window-y="-8"
     inkscape:window-maximized="1"
     fit-margin-top="0"
     fit-margin-left="0"
     fit-margin-right="0"
     fit-margin-bottom="0" />
  <metadata
     id="metadata5">
    <rdf:RDF>
      <cc:Work
         rdf:about="">
        <dc:format>image/svg+xml</dc:format>
        <dc:type
           rdf:resource="http://purl.org/dc/dcmitype/StillImage" />
        <dc:title></dc:title>
      </cc:Work>
    </rdf:RDF>
  </metadata>
  <g
     inkscape:label="Layer 1"
     inkscape:groupmode="layer"
     id="layer1"
     transform="translate(182.34362,13.070038)">
    <path
       d="m -129.00603,-13.069985 c 27.05677,0 49.405487,20.1472266 52.868935,46.257289 l -8.147552,0.02257 c -8.442378,0.101547 -16.877713,0.07215 -25.296313,0.211719 -0.59512,0.0098 -8.01518,0.178964 -8.39761,0.115808 -0.009,-0.497628 -0.0415,-0.983985 -0.0616,-1.478703 -0.0682,-1.677908 0.36406,-1.379167 -2.65388,-1.162262 -0.7965,0.05728 -1.60753,0.112792 -2.39586,0.166106 -3.4281,0.231986 -6.56092,0.370363 -9.96405,0.553217 -0.81142,0.04358 -4.56562,0.06742 -5.02502,0.237516 -0.37409,0.138616 -0.279,0.563325 -0.29249,1.021133 -0.005,0.186452 0.0103,1.186709 -0.085,1.240579 l -10.47422,0.01439 c -0.80767,7.94e-4 -2.033,-0.209788 -1.98929,0.63029 0.023,0.442357 0.54353,0.34298 0.9699,0.349647 1.16026,0.01831 2.82075,-0.0013 3.873,0.07162 -0.29916,0.11221 -1.68383,0.202962 -2.13675,0.250137 -4.1253,0.430133 -8.41364,0.966073 -12.50428,1.551914 -0.64202,0.09186 -1.66823,0.04035 -1.51284,0.847195 0.36563,0.326179 1.51913,0.01672 2.08754,-0.0598 l 4.32324,-0.579517 c 0.69638,-0.08729 1.4832,-0.226431 2.1708,-0.257334 -0.009,0.01262 -0.0209,0.02897 -0.0287,0.03752 l -0.17055,0.162295 c -0.046,0.05077 -0.10409,0.144463 -0.13126,0.221695 -0.0816,0.232515 0.0113,0.401928 0.0872,0.524642 1.03581,0.252439 4.39486,-0.239474 5.62567,-0.381979 1.83751,-0.212699 3.72713,-0.326708 5.60737,-0.460745 8.17592,-0.582878 14.81664,-1.01227 23.08831,-1.057328 1.42126,-0.0077 11.37309,-0.02162 11.87902,0.208571 -0.39367,0.112712 -3.02707,0.08377 -3.67268,0.100277 -8.49982,0.217037 -16.92875,0.38391 -25.4349,0.828357 -4.70273,0.245719 -9.37477,0.508053 -14.04043,0.979144 -0.9348,0.09435 -7.58589,0.84283 -8.14988,1.233514 -0.22561,0.156289 -0.41468,0.878337 0.78571,0.635476 4.62425,-0.935699 12.19655,-1.511247 16.96881,-1.768263 9.80903,-0.528241 19.17681,-0.843757 29.00423,-1.051349 l 11.01225,-0.244951 c 1.02989,-0.03323 0.79717,-0.716042 0.45181,-0.818039 -0.36092,-0.106574 -1.35166,0.06443 -1.80962,-0.0094 0.32565,-0.798989 -0.31126,-0.673047 -1.37258,-0.729906 -0.522,-0.02791 -1.04519,-0.07051 -1.55475,-0.09676 -7.52025,-0.387138 -15.28762,-0.34462 -22.78303,-0.08766 -4.17766,0.143246 -8.37917,0.449316 -12.53739,0.763191 -2.06467,0.155919 -4.15485,0.290407 -6.22215,0.468445 -1.9917,0.171688 -4.10969,0.606901 -6.13177,0.523134 0.0298,-0.01884 -0.015,-0.04516 0.2463,-0.08152 l 0.68879,-0.08012 c 0.32348,-0.03908 0.63968,-0.07538 0.96541,-0.1134 l 5.79586,-0.622194 c 10.1714,-1.052857 22.08374,-1.683915 32.33338,-1.713892 2.21567,-0.0065 27.069756,-0.241062 37.11797,-0.250587 0.236775,2.039488 0.362532,4.112842 0.362532,6.215856 0,29.457518 -23.880074,53.337592 -53.337592,53.337592 -29.45752,0 -53.33759,-23.880074 -53.33759,-53.337592 0,-29.457464 23.88007,-53.337591 53.33759,-53.337591 z m -4.24521,40.065298 -0.30745,1.792102 c -0.67289,0.412803 -2.35072,0.963904 -2.40308,2.075339 2.52323,-0.08041 5.04077,-0.234818 7.57246,-0.340281 1.26225,-0.05257 2.51798,-0.08909 3.77182,-0.121338 1.26947,-0.03262 2.66806,0.0028 3.91657,-0.08506 -0.0919,-0.615368 -0.94109,-1.027272 -1.72476,-1.011899 -1.10009,0.02162 -7.87792,0.181504 -8.01968,0.247491 l 7.60629,-0.753745 -0.35049,-2.464197 c -0.99028,-0.03532 -3.99066,0.160205 -5.15062,0.22606 -1.65171,0.09374 -3.26858,0.234156 -4.91106,0.435531 z m 1.55024,-8.451374 -0.62341,2.118281 c -0.4386,0.06789 -0.77234,0.190367 -1.05547,0.388726 -0.25755,0.180393 -0.62408,0.43344 -0.60854,0.872701 0.49828,0.523664 1.05637,0.36412 1.87822,0.345969 1.88608,-0.04162 4.97504,-0.170762 6.62728,-0.102076 l -7.48003,0.676725 0.11594,1.093655 9.41467,-0.69006 c 0.15975,-1.121172 0.78443,-0.797639 1.12672,-1.334479 0.0141,-0.413543 -0.40018,-0.701092 -0.63793,-0.85852 -0.46501,-0.307895 -0.54915,-0.253947 -0.91284,-0.355203 l -0.14872,-0.06675 -0.71557,-2.239883 z m 1.45185,-10.5779355 -0.0124,0.3866885 c -0.54076,0.3627967 -0.44281,0.312076 -0.58814,0.9975056 l -0.46292,0.051541 c -0.1257,0.2893484 -0.10604,0.6348674 -0.09,0.9542194 l 6.40117,-0.5671604 c 0.0565,-0.225081 -0.0519,-0.4734719 -0.11213,-0.6864085 l -0.29978,-0.0081 c -0.17835,-0.4896644 -0.22754,-0.6120606 -0.70019,-0.7577931 l -0.0173,-0.8034073 c -0.29948,-0.031274 -3.88011,0.3423179 -4.11832,0.4329113 z m -2.76114,17.1236215 -0.14888,1.071139 c 3.26208,-0.167243 6.53034,-0.645425 9.81668,-0.688869 l -0.14759,-1.402794 c -0.49059,-0.03487 -1.75754,0.185472 -2.32777,0.256566 l -4.70985,0.608568 c -0.81061,0.103426 -1.66598,0.05842 -2.48259,0.15539 z m 3.10531,-27.2444895 3.43011,-0.3872971 -0.0598,-2.0534312 c -0.52911,-0.038867 -2.04726,0.2122487 -2.63226,0.2799027 -0.80618,0.093292 -0.6672,-0.085143 -0.69225,0.7382933 -0.0145,0.4737629 -0.0446,0.9465733 -0.0458,1.4225323 z m -1.0329,19.0542595 c -0.1704,0.19005 0.0442,0.08371 -0.24001,0.235347 -0.35623,0.19005 -0.72141,0.391583 -0.71033,0.839338 l 7.31124,-0.354383 c -0.0888,-0.183436 -0.2775,-0.348748 -0.49694,-0.450824 -0.40119,-0.186663 -0.2425,-0.145732 -0.46104,-0.511334 -0.3801,-0.05588 -4.66627,0.198359 -5.40292,0.241856 z m 1.2129,-24.039962 -0.086,2.0569502 3.23392,-0.5131594 -0.0764,-2.0010701 -2.29479,0.3045618 c -0.22783,0.031221 -0.6105,0.045826 -0.77676,0.1527175 z m -1.18658,19.166549 0.55155,-0.02326 4.85431,-0.367427 c 0.0125,-0.19521 -0.10329,-0.303583 -0.18007,-0.428016 0.15906,-0.699744 0.56353,-0.02971 0.67056,-0.670666 l -5.8665,0.446114 c 0.21473,0.373565 0.18457,0.162216 -0.0299,1.043252 z m 0.75308,-6.6677383 -0.0355,1.103921 3.98431,-0.4733925 -0.009,-1.0832835 c -0.36195,-0.03466 -3.50589,0.341921 -3.94013,0.452755 z m 0.0865,-1.6929629 c -0.0869,0.1970881 -0.0849,0.6928379 -0.0338,0.9431337 l 3.83918,-0.6040702 -0.0192,-0.951521 c -0.43717,-0.012515 -1.44375,0.2027238 -1.92283,0.2787915 l -1.75583,0.2806435 c -0.13462,0.041249 -0.0635,0.024897 -0.10755,0.053022 z m -0.1047,3.2104541 c -0.082,0.194019 -0.051,0.5736696 -0.0522,0.8237802 l 4.04662,-0.4606395 0.009,-0.8419571 c -0.32462,-0.023019 -3.01254,0.3124464 -3.75774,0.4083844 z m 0.24496,-8.378719 -0.0255,0.90527184 3.53626,-0.41439044 -0.0284,-0.9305925 c -0.46591,0.022569 -3.2145,0.3297767 -3.48231,0.4397111 z m -0.10825,3.2430772 -0.027,0.8394965 c 0.37981,-0.00759 3.52041,-0.536575 3.73433,-0.6510073 l -0.0124,-0.7956021 z m 0.0911,-1.87732454 -0.0578,0.87391874 3.60968,-0.59459811 -0.0145,-0.85291083 z m 0.3378,-9.28033966 c -0.0851,0.1640946 -0.0693,0.5701506 -0.0624,0.796581 l 2.90267,-0.3429 c 0.0376,-0.074851 0.0356,0.016272 0.0523,-0.1677723 l -0.0283,-0.6249193 z m -0.10052,1.9142339 c 0.33256,-0.021246 2.84393,-0.4325408 2.98765,-0.5147998 0.0377,-0.060008 0.0297,0.013335 0.0438,-0.1005152 l -0.0162,-0.4688152 c -0.24482,-0.070511 -1.45635,0.1512623 -1.79867,0.1968765 -0.30292,0.040428 -0.61761,0.082656 -0.91755,0.1197769 -0.22132,0.027437 -0.26939,-0.00945 -0.29016,0.2034645 -0.0152,0.155628 -0.01,0.4021402 -0.009,0.5640123 z m -30.74294,66.8632502 c 0.61082,0.796264 1.34371,1.393402 2.20784,1.7916 0.85958,0.398092 1.84584,0.597138 2.94976,0.597138 1.06312,0 1.90921,-0.199046 2.54707,-0.597138 0.63788,-0.398198 0.95461,-0.932048 0.95461,-1.60155 0,-1.063201 -1.35271,-1.791599 -4.05818,-2.189718 l -1.41607,-0.221694 c -2.03137,-0.339302 -3.51983,-0.932021 -4.46085,-1.782525 -0.94102,-0.85508 -1.4115,-2.031365 -1.4115,-3.533404 0,-1.909207 0.70125,-3.451939 2.09918,-4.623673 1.4025,-1.176285 3.23932,-1.764454 5.51047,-1.764454 1.74631,0 3.32979,0.298662 4.74128,0.900298 1.41608,0.601742 2.61951,1.497542 3.60577,2.6874 l -3.36592,2.542592 c -0.73298,-0.809863 -1.50204,-1.411578 -2.3028,-1.800621 -0.80079,-0.389097 -1.66042,-0.583645 -2.57882,-0.583645 -0.87315,0 -1.58345,0.185473 -2.12182,0.556498 -0.53843,0.370973 -0.80984,0.864077 -0.80984,1.483889 0,0.556499 0.23527,0.977239 0.70125,1.266825 0.47054,0.284983 1.50651,0.547423 3.11714,0.787189 1.48397,0.212619 2.51545,0.380021 3.09451,0.502126 0.57915,0.126683 1.00891,0.248867 1.2804,0.371025 1.16724,0.506704 2.00872,1.131015 2.51992,1.877563 0.5112,0.746469 0.76912,1.701059 0.76912,2.868295 0,2.02229 -0.76005,3.628337 -2.28021,4.818221 -1.18726,0.929323 -2.71118,1.494367 -4.57179,1.697249 v 2.106983 h -5.34823 v -2.501847 c -0.502,-0.145071 -0.97748,-0.322818 -1.42658,-0.533268 -1.44315,-0.674079 -2.58781,-1.673992 -3.44739,-2.999528 z m 36.71543,5.911109 v 2.24536 h -5.34826 v -2.275046 c -0.85611,-0.169069 -1.64422,-0.422646 -2.36429,-0.760069 -1.44314,-0.674079 -2.58781,-1.673992 -3.44738,-2.999528 l 3.50168,-2.121826 c 0.61079,0.796264 1.34371,1.393402 2.20784,1.7916 0.85958,0.398092 1.84584,0.597138 2.94976,0.597138 1.06312,0 1.90921,-0.199046 2.54706,-0.597138 0.63789,-0.398198 0.95462,-0.932048 0.95462,-1.60155 0,-1.063201 -1.35271,-1.791599 -4.05818,-2.189718 l -1.41608,-0.221694 c -2.03136,-0.339302 -3.51983,-0.932021 -4.46084,-1.782525 -0.94102,-0.85508 -1.4115,-2.031365 -1.4115,-3.533404 0,-1.909207 0.70125,-3.451939 2.09917,-4.623673 1.40251,-1.176285 3.23932,-1.764454 5.51048,-1.764454 1.7463,0 3.32978,0.298662 4.74128,0.900298 1.41605,0.601742 2.61951,1.497542 3.60577,2.6874 l -3.36592,2.542592 c -0.73298,-0.809863 -1.50204,-1.411578 -2.30281,-1.800621 -0.80078,-0.389097 -1.66041,-0.583645 -2.57881,-0.583645 -0.87315,0 -1.58348,0.185473 -2.12183,0.556498 -0.53842,0.370973 -0.80983,0.864077 -0.80983,1.483889 0,0.556499 0.23527,0.977239 0.70125,1.266825 0.47053,0.284983 1.50651,0.547423 3.11714,0.787189 1.48396,0.212619 2.51544,0.380021 3.09451,0.502126 0.57915,0.126683 1.00888,0.248867 1.2804,0.371025 1.16721,0.506704 2.00871,1.131015 2.51992,1.877563 0.5112,0.746469 0.76911,1.701059 0.76911,2.868295 0,2.02229 -0.76004,3.628337 -2.2802,4.818221 -0.98132,0.768138 -2.19271,1.287304 -3.63406,1.558872 z m -14.84407,-14.484456 v 14.246622 h -4.15319 V 50.786566 Z m -4.15319,-1.633193 v -3.257391 h 4.15319 v 3.257391 z m 29.38287,15.879815 V 45.895982 h 4.53324 V 61.12434 h 7.32465 v 3.908848 z M -93.685372,50.786566 V 65.033188 H -97.83859 V 50.786566 Z m -4.153218,-1.633193 v -3.257391 h 4.153218 v 3.257391 z m -63.55228,21.569098 v 1.363503 h 0.86781 c 0.48802,0 0.81901,-0.05032 0.99435,-0.149463 0.17394,-0.09917 0.26086,-0.276093 0.26086,-0.53078 0,-0.254715 -0.0869,-0.431642 -0.26086,-0.532289 -0.17534,-0.100648 -0.50633,-0.150971 -0.99435,-0.150971 z m -0.0366,2.534787 v 1.592236 h 0.95933 c 0.54144,0 0.90744,-0.05789 1.09807,-0.173831 0.19066,-0.117475 0.28522,-0.324829 0.28522,-0.6223 0,-0.292788 -0.0931,-0.49866 -0.27905,-0.617617 -0.18609,-0.119009 -0.55367,-0.178488 -1.10424,-0.178488 z m -1.52818,2.754445 v -6.451362 h 2.76352 c 0.83122,0 1.44285,0.128111 1.83629,0.385816 0.39195,0.256275 0.58875,0.655875 0.58875,1.200282 0,0.459078 -0.12967,0.822087 -0.38894,1.085929 -0.13726,0.137266 -0.29739,0.242491 -0.48046,0.317262 -0.18301,0.07318 -0.39346,0.111284 -0.63134,0.111284 0.60391,0.05342 1.04166,0.204391 1.3131,0.451511 0.27149,0.247042 0.40724,0.619205 0.40724,1.116383 0,0.352266 -0.0823,0.660374 -0.24863,0.927285 -0.1647,0.266939 -0.39653,0.466646 -0.69389,0.600896 -0.19979,0.08387 -0.4332,0.14642 -0.70313,0.190658 -0.26993,0.04268 -0.66953,0.06406 -1.19872,0.06406 z m 8.31157,0 v -6.451362 h 4.68524 v 1.253623 h -3.15703 v 1.189672 h 2.83522 v 1.207876 h -2.83522 v 1.546489 h 3.43918 v 1.253702 z m 7.85556,0 v -6.451362 h 1.5282 v 5.133605 h 2.46923 v 1.317757 z m 6.79254,0 v -6.451362 h 4.68524 v 1.253623 h -3.15703 v 1.189672 h 2.83522 v 1.207876 h -2.83522 v 1.546489 h 3.43918 v 1.253702 z m 9.38376,-1.317757 h 0.75796 c 0.59026,0 1.03102,-0.158618 1.3254,-0.474292 0.29438,-0.317262 0.44228,-0.794623 0.44228,-1.433619 0,-0.639074 -0.1464,-1.116462 -0.43921,-1.433644 -0.29287,-0.315728 -0.73515,-0.474372 -1.32847,-0.474372 h -0.75796 z m -1.5282,1.317757 v -6.451362 h 2.1123 c 1.20647,0 2.09251,0.260774 2.65837,0.780839 0.56581,0.520117 0.84797,1.33604 0.84797,2.444855 0,1.079765 -0.28065,1.886612 -0.84188,2.42189 -0.56124,0.535358 -1.40925,0.803778 -2.54392,0.803778 z m 10.14023,0 h -1.51905 v -6.451362 h 1.51905 z m -1.31775,-6.991271 v -1.153054 h 1.1073 v 1.153054 z m 8.09048,0.539909 h 1.85002 l -2.45243,3.452945 v 2.998417 h -1.5282 v -2.998417 l -2.45248,-3.452945 h 1.84087 l 1.36199,2.216044 z m 4.0137,6.451362 v -6.451362 h 4.68524 v 1.253623 h -3.15703 v 1.189672 h 2.83522 v 1.207876 h -2.83522 v 1.546489 h 3.43918 v 1.253702 z m 8.55104,-1.912567 c 0.20587,0.268499 0.45294,0.469794 0.74422,0.603964 0.2898,0.13425 0.62228,0.201375 0.99444,0.201375 0.35843,0 0.64365,-0.06713 0.85868,-0.201375 0.215024,-0.13417 0.32181,-0.314166 0.32181,-0.539855 0,-0.358432 -0.45606,-0.603965 -1.36805,-0.738214 l -0.47739,-0.07469 c -0.68482,-0.11438 -1.18658,-0.314193 -1.50381,-0.600922 -0.31727,-0.28829 -0.4758,-0.684821 -0.4758,-1.191128 0,-0.643652 0.23637,-1.163717 0.7076,-1.558739 0.47281,-0.396531 1.09201,-0.594837 1.85769,-0.594837 0.58867,0 1.122442,0.100674 1.598321,0.30353 0.477361,0.202883 0.883047,0.504825 1.215522,0.905934 l -1.134665,0.85717 c -0.247147,-0.272997 -0.506413,-0.475879 -0.776338,-0.607033 -0.26993,-0.131181 -0.55973,-0.196744 -0.86932,-0.196744 -0.29437,0 -0.53377,0.06255 -0.71527,0.187589 -0.18151,0.125095 -0.273,0.29128 -0.273,0.500248 0,0.187563 0.0793,0.329459 0.23641,0.427037 0.15861,0.09607 0.50781,0.184574 1.05082,0.265351 0.50024,0.0717 0.847932,0.128191 1.043168,0.16936 0.195209,0.04268 0.340122,0.08385 0.431615,0.125015 0.393461,0.170868 0.677174,0.381318 0.849524,0.632937 0.172349,0.251698 0.259291,0.573431 0.259291,0.966972 0,0.681752 -0.256275,1.223169 -0.768694,1.624277 -0.512471,0.401082 -1.211024,0.600896 -2.095554,0.600896 -0.66804,0 -1.24457,-0.11438 -1.7295,-0.34163 -0.48654,-0.227251 -0.87241,-0.564304 -1.16221,-1.011159 z m 9.081746,1.912567 H -95.1 v -6.451362 h 1.519026 z m -1.317731,-6.991271 v -1.153054 h 1.107281 v 1.153054 z"
       style="fill:#194a93;fill-opacity:1;fill-rule:evenodd;stroke-width:0.26458332"
       id="path1974"
       inkscape:connector-curvature="0" />
    <path
       d="m -122.83137,9.3428422 -7.24657,0.3501231 -2.34907,-0.029236 0.47741,6.7962197 c 4.17825,0.395552 8.24151,0.01651 10.56587,-0.678604 11.05339,-3.305889 5.83531,-0.534802 13.04663,-0.0088 6.34381,0.462756 13.285128,-6.2754404 22.681303,-4.02381 -10.974758,-9.761352 -17.968943,5.57694 -25.465383,-1.079421 -4.62539,-4.742735 -7.14689,-1.1460421 -11.71019,-1.3265144 z"
       style="fill:#e30016;fill-rule:evenodd;stroke-width:0.26458332"
       id="path1976"
       inkscape:connector-curvature="0" />
    <path
       d="m -121.19407,11.121345 0.61692,0.626163 0.82593,-0.255667 -0.32264,0.805709 0.49007,0.670295 -0.89644,-0.111601 -0.52263,0.665956 -0.1124,-0.877146 -0.8465,-0.181213 0.78377,-0.440029 z m -1.14369,-0.271436 c -0.94226,-0.454052 -1.62849,-0.669396 -2.62835,-0.01627 -2.00784,1.311434 -0.57025,5.221102 2.74048,3.47898 -0.88083,1.680977 -4.3507,1.504156 -4.84828,-1.085453 -0.23908,-1.244283 0.32271,-2.199878 1.01489,-2.747513 0.99327,-0.7859449 3.05475,-0.8159486 3.72126,0.370258 z"
       style="fill:#ffffff;fill-rule:evenodd;stroke-width:0.26458332"
       id="path1978"
       inkscape:connector-curvature="0" />
  </g>
</svg>
