<?xml version="1.0" encoding="utf-8"?>
<!-- Generator: Adobe Illustrator 16.0.0, SVG Export Plug-In . SVG Version: 6.00 Build 0)  -->
<!DOCTYPE svg PUBLIC "-//W3C//DTD SVG 1.1//EN" "http://www.w3.org/Graphics/SVG/1.1/DTD/svg11.dtd">
<svg version="1.1" id="Layer_1" xmlns="http://www.w3.org/2000/svg" xmlns:xlink="http://www.w3.org/1999/xlink" x="0px" y="0px"
	 width="340.452px" height="369.979px" viewBox="0 0 340.452 369.979" enable-background="new 0 0 340.452 369.979"
	 xml:space="preserve">
<g>
	<defs>
		<path id="SVGID_1_" d="M114.155,84.434l-74.753,44.18l71.814,13.842l-5.639,122.511l49.354-87.742l-0.064-133.7L117.206,4.004
			L114.155,84.434z M190.977,38.133l-36.038,62.59l56.519,61.053l68.721,13.244l-77.906-81.751L254.866,0L190.977,38.133z"/>
	</defs>
	<clipPath id="SVGID_2_">
		<use xlink:href="#SVGID_1_"  overflow="visible"/>
	</clipPath>
	
		<radialGradient id="SVGID_3_" cx="-279.8921" cy="872.7568" r="1" gradientTransform="matrix(95.3886 0 0 -104.9727 26855.875 91716.3125)" gradientUnits="userSpaceOnUse">
		<stop  offset="0" style="stop-color:#009FE3"/>
		<stop  offset="0.281" style="stop-color:#009FE3"/>
		<stop  offset="1" style="stop-color:#01428D"/>
	</radialGradient>
	<rect x="39.402" clip-path="url(#SVGID_2_)" fill="url(#SVGID_3_)" width="240.776" height="264.967"/>
</g>
<g>
	<defs>
		<rect id="SVGID_4_" x="-259.223" y="-355.471" width="858.898" height="1207.559"/>
	</defs>
	<clipPath id="SVGID_5_">
		<use xlink:href="#SVGID_4_"  overflow="visible"/>
	</clipPath>
	<path clip-path="url(#SVGID_5_)" fill="#73797C" d="M66.471,363.799h3.069c2.859,0,4.751-1.178,4.751-3.868
		c0-3.322-2.943-3.869-5.886-3.869h-1.934V363.799z M66.471,355.432l2.691-3.952c0.63,0,1.261,0,1.934-0.169
		c1.85-0.462,2.691-1.765,2.691-3.152c0-2.733-2.439-3.111-4.457-3.111h-2.859V355.432z M59.029,339.54h12.613
		c4.205,0,9.292,1.975,9.292,7.777c0,3.027-1.64,5.046-4.499,6.349c0.715,0.294,1.682,0.631,2.565,1.261
		c1.808,1.22,2.985,3.322,2.985,5.803s-1.135,4.835-3.279,6.475c-2.481,1.935-5.256,2.019-7.4,2.019H59.029V339.54z"/>
</g>
<polygon fill="#73797C" points="103.436,369.223 85.314,369.223 85.314,339.539 104.571,339.539 104.571,345.384 93.051,345.384 
	93.051,351.06 104.571,351.06 104.571,356.861 93.051,356.861 93.051,363.337 106.8,363.337 "/>
<polygon fill="#73797C" points="126.879,369.223 108.884,369.223 108.884,339.539 116.662,339.539 116.662,363.295 130.326,363.295 
	"/>
<polygon fill="#73797C" points="150.188,369.223 132.067,369.223 132.067,339.539 151.323,339.539 151.323,345.384 139.803,345.384 
	139.803,351.06 151.323,351.06 151.323,356.861 139.803,356.861 139.803,363.337 153.552,363.337 "/>
<g>
	<defs>
		<rect id="SVGID_6_" x="-259.223" y="-355.471" width="858.898" height="1207.559"/>
	</defs>
	<clipPath id="SVGID_7_">
		<use xlink:href="#SVGID_6_"  overflow="visible"/>
	</clipPath>
	<path clip-path="url(#SVGID_7_)" fill="#73797C" d="M163.331,363.505h2.186c1.64,0,3.322-0.043,5.129-0.842
		c3.827-1.682,4.794-5.423,4.794-8.324c0-5.592-3.574-8.914-8.956-9.04h-3.153V363.505z M155.637,339.54h13.286
		c8.241,0,14.715,5.297,14.715,14.589c0,4.246-1.472,8.156-4.162,10.847c-4.079,4.078-8.83,4.247-12.151,4.247h-11.688V339.54z"/>
</g>
<rect x="186.792" y="339.54" fill="#73797C" width="7.778" height="29.683"/>
<polygon fill="#73797C" points="215.221,369.223 207.401,369.223 207.401,358.333 196.427,339.539 205.173,339.539 211.563,351.186 
	217.996,339.539 226.195,339.539 215.221,358.333 "/>
<polygon fill="#73797C" points="246.119,369.223 227.998,369.223 227.998,339.539 247.253,339.539 247.253,345.384 235.734,345.384 
	235.734,351.06 247.253,351.06 247.253,356.861 235.734,356.861 235.734,363.337 249.483,363.337 "/>
<g>
	<defs>
		<rect id="SVGID_8_" x="-259.223" y="-355.471" width="858.898" height="1207.559"/>
	</defs>
	<clipPath id="SVGID_9_">
		<use xlink:href="#SVGID_8_"  overflow="visible"/>
	</clipPath>
	<path clip-path="url(#SVGID_9_)" fill="#73797C" d="M251.486,361.528c0.631,0.462,1.303,1.051,2.775,1.724
		c1.639,0.715,3.404,1.22,4.961,1.22c1.471,0,2.564-0.42,3.236-0.968c0.673-0.63,1.136-1.555,1.136-2.564
		c0-2.144-1.85-3.027-3.405-3.699l-1.683-0.673c-2.186-0.883-6.937-3.027-6.937-8.535c0-4.289,3.195-9.25,10.763-9.25
		c2.817,0,5.045,0.547,7.568,1.725v6.348c-1.977-1.681-4.078-2.649-6.727-2.649c-3.195,0-3.952,2.02-3.952,3.196
		c0,2.018,1.808,2.902,3.615,3.7l2.145,0.883c2.144,1.01,6.391,2.943,6.391,8.535c0,5.045-4.037,9.46-11.142,9.46
		c-1.093,0-4.709-0.126-8.745-1.809V361.528z"/>
	<path clip-path="url(#SVGID_9_)" fill="#73797C" d="M186.77,333.787c0-2.16,1.751-3.911,3.911-3.911
		c2.161,0,3.912,1.751,3.912,3.911s-1.751,3.911-3.912,3.911C188.521,337.698,186.77,335.947,186.77,333.787"/>
</g>
<rect x="273.622" y="339.54" fill="#73797C" width="7.778" height="29.683"/>
<g>
	<defs>
		<rect id="SVGID_10_" x="-259.223" y="-355.471" width="858.898" height="1207.559"/>
	</defs>
	<clipPath id="SVGID_11_">
		<use xlink:href="#SVGID_10_"  overflow="visible"/>
	</clipPath>
	<path clip-path="url(#SVGID_11_)" fill="#73797C" d="M273.6,333.787c0-2.16,1.751-3.911,3.911-3.911
		c2.161,0,3.912,1.751,3.912,3.911s-1.751,3.911-3.912,3.911C275.351,337.698,273.6,335.947,273.6,333.787"/>
</g>
<polygon fill="#73797C" points="28.212,324.05 19.13,324.05 7.736,308.745 7.736,324.05 0,324.05 0,294.366 7.736,294.366 
	7.736,307.947 17.617,294.366 26.32,294.366 16.103,307.862 "/>
<g>
	<defs>
		<rect id="SVGID_12_" x="-259.223" y="-355.471" width="858.898" height="1207.559"/>
	</defs>
	<clipPath id="SVGID_13_">
		<use xlink:href="#SVGID_12_"  overflow="visible"/>
	</clipPath>
	<path clip-path="url(#SVGID_13_)" fill="#73797C" d="M102.143,288.626c0-1.943,1.576-3.52,3.52-3.52s3.52,1.576,3.52,3.52
		c0,1.944-1.576,3.521-3.52,3.521S102.143,290.57,102.143,288.626"/>
	<path clip-path="url(#SVGID_13_)" fill="#73797C" d="M93.709,288.626c0-1.943,1.576-3.52,3.52-3.52c1.944,0,3.52,1.576,3.52,3.52
		c0,1.944-1.576,3.521-3.52,3.521C95.285,292.146,93.709,290.57,93.709,288.626"/>
	<path clip-path="url(#SVGID_13_)" fill="#73797C" d="M114.984,294.367v17.909c0,1.852-0.084,4.627-1.387,7.022
		c-2.397,4.288-7.358,5.507-12.193,5.507c-5.045,0-8.115-1.513-9.755-2.815c-3.699-2.817-3.741-7.106-3.741-9.124v-18.499h7.736
		v16.942c0,4.205,0.715,7.863,5.886,7.863c4.709,0,5.76-3.238,5.76-7.274v-17.531H114.984z"/>
</g>
<polygon fill="#73797C" points="147.111,324.05 138.029,324.05 126.636,308.745 126.636,324.05 118.899,324.05 118.899,294.366 
	126.636,294.366 126.636,307.947 136.516,294.366 145.219,294.366 135.001,307.862 "/>
<g>
	<defs>
		<rect id="SVGID_14_" x="-259.223" y="-355.471" width="858.898" height="1207.559"/>
	</defs>
	<clipPath id="SVGID_15_">
		<use xlink:href="#SVGID_14_"  overflow="visible"/>
	</clipPath>
	<path clip-path="url(#SVGID_15_)" fill="#73797C" d="M74.721,329.87h-6.047l2.099-5.594c-7.62-1.739-11.979-7.578-11.979-14.731
		c0-8.409,5.844-15.936,17.448-15.936c3.406,0,5.97,0.589,7.946,1.221v6.6c-1.009-0.672-3.49-2.228-7.021-2.228
		c-6.559,0-10.301,4.582-10.301,10.007c0,5.718,4.036,10.174,10.932,10.174c2.69,0,5.255-0.631,7.736-1.597l-3.616,6.222
		c-0.808,0.209-1.936,0.525-3.718,0.689L74.721,329.87z"/>
</g>
<polygon fill="#73797C" points="191.994,324.05 173.874,324.05 173.874,294.366 193.129,294.366 193.129,300.211 181.609,300.211 
	181.609,305.887 193.129,305.887 193.129,311.688 181.609,311.688 181.609,318.163 195.358,318.163 "/>
<polygon fill="#73797C" points="226.009,324.05 216.927,324.05 205.535,308.745 205.535,324.05 197.797,324.05 197.797,294.366 
	205.535,294.366 205.535,307.947 215.415,294.366 224.118,294.366 213.901,307.862 "/>
<polygon fill="#73797C" points="264.866,324.05 257.255,324.05 255.658,304.752 246.409,324.05 245.316,324.05 236.192,304.667 
	234.51,324.05 227.069,324.05 230.432,294.366 238.209,294.366 245.904,310.848 253.682,294.366 261.375,294.366 "/>
<polygon fill="#73797C" points="286.425,324.05 268.304,324.05 268.304,294.366 287.56,294.366 287.56,300.211 276.041,300.211 
	276.041,305.887 287.56,305.887 287.56,311.688 276.041,311.688 276.041,318.163 289.789,318.163 "/>
<g>
	<defs>
		<rect id="SVGID_16_" x="-259.223" y="-355.471" width="858.898" height="1207.559"/>
	</defs>
	<clipPath id="SVGID_17_">
		<use xlink:href="#SVGID_16_"  overflow="visible"/>
	</clipPath>
	<path clip-path="url(#SVGID_17_)" fill="#73797C" d="M313.204,324.008c-1.136,0.294-2.901,0.799-6.224,0.799
		c-10.637,0-16.9-6.686-16.9-15.262c0-8.409,5.928-15.935,17.447-15.935c3.363,0,5.929,0.589,7.946,1.219v6.601
		c-1.009-0.673-3.49-2.228-7.021-2.228c-6.56,0-10.302,4.583-10.302,10.006c0,5.719,4.036,10.175,10.933,10.175
		c2.69,0,5.255-0.589,7.735-1.597L313.204,324.008z"/>
</g>
<polygon fill="#73797C" points="337.088,324.05 318.967,324.05 318.967,294.366 338.223,294.366 338.223,300.211 326.703,300.211 
	326.703,305.887 338.223,305.887 338.223,311.688 326.703,311.688 326.703,318.163 340.452,318.163 "/>
<g>
	<defs>
		<rect id="SVGID_18_" x="-259.223" y="-355.471" width="858.898" height="1207.559"/>
	</defs>
	<clipPath id="SVGID_19_">
		<use xlink:href="#SVGID_18_"  overflow="visible"/>
	</clipPath>
	<path clip-path="url(#SVGID_19_)" fill="#73797C" d="M43.983,288.626c0-1.943,1.576-3.52,3.52-3.52c1.944,0,3.52,1.576,3.52,3.52
		c0,1.944-1.576,3.521-3.52,3.521C45.559,292.146,43.983,290.57,43.983,288.626"/>
	<path clip-path="url(#SVGID_19_)" fill="#73797C" d="M35.549,288.626c0-1.943,1.576-3.52,3.52-3.52s3.52,1.576,3.52,3.52
		c0,1.944-1.576,3.521-3.52,3.521S35.549,290.57,35.549,288.626"/>
	<path clip-path="url(#SVGID_19_)" fill="#73797C" d="M56.824,294.367v17.909c0,1.852-0.084,4.627-1.387,7.022
		c-2.397,4.288-7.358,5.507-12.193,5.507c-5.045,0-8.115-1.513-9.755-2.815c-3.699-2.817-3.742-7.106-3.742-9.124v-18.499h7.737
		v16.942c0,4.205,0.715,7.863,5.886,7.863c4.709,0,5.76-3.238,5.76-7.274v-17.531H56.824z"/>
	<path clip-path="url(#SVGID_19_)" fill="#73797C" d="M160.585,329.87h-6.047l2.099-5.594c-7.62-1.739-11.979-7.578-11.979-14.731
		c0-8.409,5.844-15.936,17.448-15.936c3.406,0,5.97,0.589,7.946,1.221v6.6c-1.009-0.672-3.49-2.228-7.021-2.228
		c-6.559,0-10.301,4.582-10.301,10.007c0,5.718,4.036,10.174,10.932,10.174c2.69,0,5.255-0.631,7.736-1.597l-3.616,6.222
		c-0.808,0.209-1.936,0.525-3.718,0.689L160.585,329.87z"/>
</g>
</svg>
