<?xml version="1.0" encoding="UTF-8" standalone="no"?>
<!-- Created with Inkscape (http://www.inkscape.org/) -->

<svg
   xmlns:dc="http://purl.org/dc/elements/1.1/"
   xmlns:cc="http://creativecommons.org/ns#"
   xmlns:rdf="http://www.w3.org/1999/02/22-rdf-syntax-ns#"
   xmlns:svg="http://www.w3.org/2000/svg"
   xmlns="http://www.w3.org/2000/svg"
   xmlns:sodipodi="http://sodipodi.sourceforge.net/DTD/sodipodi-0.dtd"
   xmlns:inkscape="http://www.inkscape.org/namespaces/inkscape"
   width="438.13031"
   height="438.13031"
   viewBox="0 0 115.92198 115.92198"
   version="1.1"
   id="svg8"
   inkscape:version="0.92.3 (2405546, 2018-03-11)"
   sodipodi:docname="belediye_catalca.svg">
  <defs
     id="defs2" />
  <sodipodi:namedview
     id="base"
     pagecolor="#ffffff"
     bordercolor="#666666"
     borderopacity="1.0"
     inkscape:pageopacity="0.0"
     inkscape:pageshadow="2"
     inkscape:zoom="0.98994949"
     inkscape:cx="-27.04457"
     inkscape:cy="148.35078"
     inkscape:document-units="px"
     inkscape:current-layer="layer1"
     showgrid="false"
     units="px"
     showborder="false"
     inkscape:window-width="1920"
     inkscape:window-height="1017"
     inkscape:window-x="-8"
     inkscape:window-y="-8"
     inkscape:window-maximized="1"
     fit-margin-top="0"
     fit-margin-left="0"
     fit-margin-right="0"
     fit-margin-bottom="0" />
  <metadata
     id="metadata5">
    <rdf:RDF>
      <cc:Work
         rdf:about="">
        <dc:format>image/svg+xml</dc:format>
        <dc:type
           rdf:resource="http://purl.org/dc/dcmitype/StillImage" />
        <dc:title></dc:title>
      </cc:Work>
    </rdf:RDF>
  </metadata>
  <g
     inkscape:label="Layer 1"
     inkscape:groupmode="layer"
     id="layer1"
     transform="translate(433.63976,-169.48398)">
    <path
       d="m -375.78487,170.98069 56.57038,56.57049 -56.35808,56.35807 -56.57048,-56.57037 z"
       style="fill:#ab417f;fill-rule:evenodd;stroke:#ab417f;stroke-width:2.11666656;stroke-miterlimit:4;stroke-dasharray:none;stroke-opacity:1"
       id="path812"
       inkscape:connector-curvature="0" />
    <path
       d="m -375.78172,172.65379 54.89414,54.89424 -54.68813,54.68813 -54.89425,-54.89414 z"
       style="fill:#ffffff;fill-rule:evenodd;stroke-width:0.26458332"
       id="path814"
       inkscape:connector-curvature="0" />
    <path
       d="m -377.57197,227.54803 h 0.0451 40.2369 c 0,0 -6.07692,-7.78878 -20.96971,-8.55909 0,0 3.12005,-4.64227 1.89291,-12.25063 0,0 -6.43027,-2.94515 -12.22243,1.47259 0,0 -0.24516,-11.19534 -8.93773,-22.66058 -0.007,-0.01 -0.0102,-0.0145 -0.0225,-0.03 -2.6e-4,-5.3e-4 -0.0147,0.0196 -0.0225,0.03 -8.69256,11.46524 -8.9377,22.66058 -8.9377,22.66058 -5.79218,-4.41774 -12.22245,-1.47259 -12.22245,-1.47259 -1.22714,7.60836 1.89293,12.25063 1.89293,12.25063 -14.89281,0.77031 -20.96974,8.55909 -20.96974,8.55909 z"
       style="fill:#ececec;fill-rule:evenodd;stroke-width:0.26458332"
       id="path818"
       inkscape:connector-curvature="0" />
    <path
       d="m -375.14217,227.54803 h 0.0451 40.23693 c 0,0 -6.07695,-7.78878 -20.96974,-8.55909 0,0 3.12008,-4.64227 1.89291,-12.25063 0,0 -6.43027,-2.94515 -12.22243,1.47259 0,0 -0.24513,-11.19534 -8.93773,-22.66058 -0.007,-0.01 -0.0102,-0.0145 -0.0225,-0.03 -2.6e-4,-5.3e-4 -0.0147,0.0196 -0.0225,0.03 -8.69259,11.46524 -8.93773,22.66058 -8.93773,22.66058 -5.79218,-4.41774 -12.22243,-1.47259 -12.22243,-1.47259 -1.22716,7.60836 1.89291,12.25063 1.89291,12.25063 -14.89279,0.77031 -20.96974,8.55909 -20.96974,8.55909 z"
       style="fill:#ab417f;fill-rule:evenodd;stroke-width:0.26458332"
       id="path820"
       inkscape:connector-curvature="0" />
    <path
       d="m -375.14346,196.31628 h 2e-5 c 0.14849,0 0.26996,0.12147 0.26996,0.26995 v 30.69135 c 0,0.14848 -0.12147,0.26995 -0.26996,0.26995 h -2e-5 c -0.14849,0 -0.26996,-0.12147 -0.26996,-0.26995 v -30.69135 c 0,-0.14848 0.12147,-0.26995 0.26996,-0.26995 z"
       style="fill:#ffffff;fill-rule:evenodd;stroke-width:0.26458332"
       id="path826"
       inkscape:connector-curvature="0" />
    <path
       d="m -375.2905,227.5373 c 3.48511,-2.87153 4.49138,-4.27051 5.44859,-8.1974 0.95718,-3.9269 1.129,-5.79218 1.22719,-8.34467 0,0 -0.0369,-0.63812 0.22085,-0.63812 0.2577,0 0.2577,0.35589 0.2577,0.35589 0,0 -0.29446,6.58984 -1.49707,9.73137 0,0 3.01885,-2.4789 7.2648,-7.60838 0,0 0.17791,-0.1411 0.33742,0.0184 0.15955,0.15952 0,0.34973 0,0.34973 l -6.91488,7.37521 c 0,0 7.24022,-0.90808 9.08095,-0.68721 0,0 0.23934,3e-5 0.1841,0.20863 -0.0552,0.20862 -0.16563,0.24543 -0.33132,0.24543 -0.16568,0 -7.21558,0.16565 -9.69443,0.82833 0,0 -0.25768,0.11043 -0.30676,0.36814 -0.0491,0.25773 -1.14126,3.60791 -4.4055,5.91492 0,0 9.25272,-0.66265 19.36448,-2.67515 0,0 0.56449,-0.15343 0.59518,0.1411 0.0307,0.29453 -0.38039,0.36817 -0.38039,0.36817 0,0 -11.47982,2.32542 -20.33989,2.7672 0,0 -0.7547,-0.0614 -0.11102,-0.5216 z"
       style="fill:#ffffff;fill-rule:evenodd;stroke-width:0.26458332"
       id="path828"
       inkscape:connector-curvature="0" />
    <path
       d="m -374.94875,227.5373 c -3.48509,-2.87153 -4.49138,-4.27051 -5.44856,-8.1974 -0.95719,-3.9269 -1.12903,-5.79218 -1.22719,-8.34467 0,0 0.0369,-0.63812 -0.22085,-0.63812 -0.25773,0 -0.25773,0.35589 -0.25773,0.35589 0,0 0.29448,6.58984 1.49709,9.73137 0,0 -3.01884,-2.4789 -7.2648,-7.60838 0,0 -0.1779,-0.1411 -0.33745,0.0184 -0.15954,0.15952 0,0.34973 0,0.34973 l 6.91492,7.37521 c 0,0 -7.24022,-0.90808 -9.08095,-0.68721 0,0 -0.23935,3e-5 -0.18413,0.20863 0.0553,0.20862 0.16566,0.24543 0.33134,0.24543 0.16568,0 7.21558,0.16565 9.69441,0.82833 0,0 0.25771,0.11043 0.30679,0.36814 0.0491,0.25773 1.14125,3.60791 4.4055,5.91492 0,0 -9.25272,-0.66265 -19.36449,-2.67515 0,0 -0.56451,-0.15343 -0.5952,0.1411 -0.0307,0.29453 0.38041,0.36817 0.38041,0.36817 0,0 11.47982,2.32542 20.3399,2.7672 0,0 0.7547,-0.0614 0.11099,-0.5216 z"
       style="fill:#ffffff;fill-rule:evenodd;stroke-width:0.26458332"
       id="path830"
       inkscape:connector-curvature="0" />
    <path
       d="m -320.88758,227.54803 -54.68813,54.6881 -54.68821,-54.6881 z"
       style="fill:#e6e6e6;fill-rule:evenodd;stroke-width:0.26458332"
       id="path816"
       inkscape:connector-curvature="0" />
    <path
       d="m -386.80556,240.38868 c -0.53924,-0.12853 -0.99703,-0.41227 -1.37324,-0.8528 -0.53303,-0.6208 -0.79949,-1.43439 -0.79949,-2.4393 0,-1.04873 0.26175,-1.89376 0.78383,-2.53336 0.522,-0.64117 1.20396,-0.96097 2.04576,-0.96097 0.15525,0 0.30414,0.0125 0.44529,0.0392 0.14108,0.0251 0.2712,0.0659 0.39029,0.12068 v 1.25259 c -0.12224,-0.0486 -0.24765,-0.0878 -0.37621,-0.11446 -0.0643,-0.0125 -0.12232,-0.0219 -0.17399,-0.0282 -0.0533,-0.006 -0.11287,-0.009 -0.18029,-0.009 -0.44371,0 -0.80582,0.19746 -1.0849,0.59415 -0.28056,0.39658 -0.42005,0.92017 -0.42005,1.56921 0,0.62077 0.14264,1.12718 0.42952,1.51906 0.2853,0.39195 0.65368,0.58793 1.10361,0.58793 0.10975,0 0.22733,-0.0142 0.35274,-0.0439 0.12539,-0.0282 0.24299,-0.0674 0.34957,-0.11602 v 1.34038 c -0.12224,0.0486 -0.24921,0.0863 -0.38251,0.11446 -0.13327,0.0266 -0.26646,0.0407 -0.39658,0.0407 h -0.2712 v 0.2916 h 0.0548 c 0.30104,0 0.52829,0.0737 0.68196,0.22103 0.15518,0.14581 0.23199,0.36533 0.23199,0.65685 0,0.30263 -0.0878,0.53144 -0.2649,0.6867 -0.17558,0.15518 -0.43582,0.23196 -0.77761,0.23196 -0.14108,0 -0.30096,-0.0172 -0.48128,-0.0502 -0.17872,-0.0345 -0.36523,-0.083 -0.55806,-0.1473 v -0.59266 c 0.058,0.0188 0.13642,0.0408 0.23204,0.069 0.0972,0.0282 0.20064,0.0533 0.31036,0.0784 0.0737,0.0141 0.14893,0.0267 0.22418,0.0361 0.0753,0.009 0.14264,0.0141 0.20542,0.0141 0.12854,0 0.22567,-0.0298 0.29308,-0.0878 0.0674,-0.0581 0.10195,-0.14113 0.10195,-0.2477 0,-0.11446 -0.0408,-0.19598 -0.12227,-0.24773 -0.0815,-0.0501 -0.20698,-0.0752 -0.37626,-0.0752 h -0.11917 c -0.0344,0 -0.0596,0 -0.0784,0 z m 3.54608,-2.21512 h 0.89199 c -0.0956,-0.47813 -0.17865,-0.97033 -0.2508,-1.4783 -0.0721,-0.50792 -0.13636,-1.04717 -0.19127,-1.61626 -0.0298,0.25079 -0.0627,0.50323 -0.0988,0.75718 -0.0345,0.25397 -0.0737,0.51107 -0.11602,0.77131 z m -1.78559,2.21986 1.56144,-6.7065 h 1.39993 l 1.4877,6.7065 h -1.33567 l -0.22574,-1.17578 h -1.34506 l -0.20693,1.17578 z m 5.31294,0 v -5.46495 h -1.02526 v -1.24155 h 3.39555 v 1.24155 h -1.02526 v 5.46495 z m 4.00071,-2.21986 h 0.89196 c -0.0956,-0.47813 -0.17865,-0.97033 -0.2508,-1.4783 -0.0721,-0.50792 -0.13634,-1.04717 -0.19124,-1.61626 -0.0298,0.25079 -0.0627,0.50323 -0.0988,0.75718 -0.0345,0.25397 -0.0737,0.51107 -0.11602,0.77131 z m -1.7856,2.21986 1.56142,-6.7065 h 1.39996 l 1.4877,6.7065 h -1.33567 l -0.22577,-1.17578 h -1.34504 l -0.20693,1.17578 z m 4.93507,0 v -6.7065 h 1.3263 v 5.39903 h 1.5222 v 1.30747 z m 6.82569,-0.0721 c -0.12226,0.0486 -0.2508,0.0878 -0.3841,0.11601 -0.13327,0.0267 -0.2649,0.0408 -0.39658,0.0408 -0.85442,0 -1.5489,-0.31041 -2.08343,-0.93276 -0.5346,-0.62076 -0.80264,-1.43602 -0.80264,-2.44245 0,-1.05037 0.26175,-1.8969 0.78382,-2.53807 0.522,-0.64119 1.20396,-0.96255 2.04735,-0.96255 0.15526,0 0.30411,0.0125 0.44527,0.0392 0.14107,0.0251 0.27119,0.0659 0.39031,0.12068 v 1.25259 c -0.12226,-0.0486 -0.24765,-0.0878 -0.37621,-0.11446 -0.0643,-0.0125 -0.12232,-0.0219 -0.17399,-0.0282 -0.0533,-0.006 -0.1129,-0.009 -0.18031,-0.009 -0.44371,0 -0.80579,0.19746 -1.08646,0.59415 -0.28057,0.39658 -0.42006,0.92017 -0.42006,1.56921 0,0.62077 0.14264,1.12718 0.42953,1.51906 0.28686,0.39195 0.65527,0.58793 1.10519,0.58793 0.10972,0 0.22733,-0.0142 0.35272,-0.0439 0.12697,-0.0282 0.24302,-0.0674 0.34959,-0.11602 z m 2.05206,-2.14771 h 0.89199 c -0.0956,-0.47813 -0.17865,-0.97033 -0.2508,-1.4783 -0.0721,-0.50792 -0.13637,-1.04717 -0.19127,-1.61626 -0.0298,0.25079 -0.0627,0.50323 -0.0988,0.75718 -0.0345,0.25397 -0.0736,0.51107 -0.11602,0.77131 z m -1.7856,2.21986 1.56144,-6.7065 h 1.39994 l 1.4877,6.7065 h -1.33567 l -0.22575,-1.17578 h -1.34506 l -0.20693,1.17578 z m -26.15512,7.3524 h 0.14264 c 0.33864,0 0.58952,-0.0673 0.75255,-0.2022 0.1614,-0.13486 0.24294,-0.34179 0.24294,-0.62394 0,-0.29001 -0.083,-0.50797 -0.24765,-0.65061 -0.16462,-0.14422 -0.41701,-0.21629 -0.75721,-0.21629 h -0.13327 z m 0,2.72775 0.0926,0.009 h 0.0956 c 0.34013,0 0.58785,-0.069 0.74459,-0.20693 0.15526,-0.13798 0.23363,-0.35586 0.23363,-0.65683 0,-0.32139 -0.0784,-0.55028 -0.23363,-0.68821 -0.15674,-0.138 -0.41383,-0.20701 -0.77128,-0.20701 h -0.16148 z m -1.29802,1.19459 v -6.7065 h 1.30432 c 0.87008,0 1.4877,0.13637 1.85296,0.41071 0.36531,0.27435 0.54869,0.73372 0.54869,1.37639 0,0.3606 -0.0689,0.66 -0.20693,0.89837 -0.13793,0.23669 -0.35116,0.42637 -0.64275,0.56745 0.32138,0.11287 0.56123,0.29475 0.71805,0.54554 0.15676,0.25236 0.23513,0.58161 0.23513,0.98767 0,0.30414 -0.0502,0.57848 -0.15211,0.82298 -0.10027,0.24458 -0.24765,0.45149 -0.44047,0.62244 -0.19283,0.16925 -0.42643,0.29151 -0.69922,0.36523 -0.27278,0.0737 -0.69757,0.10972 -1.27762,0.10972 z m 4.58857,0 v -6.7065 h 2.8218 v 1.24156 h -1.52379 v 1.35451 h 1.38113 v 1.23216 h -1.38113 v 1.5708 h 1.52379 v 1.30747 z m 3.7248,0 v -6.7065 h 1.3263 v 5.39903 h 1.5222 v 1.30747 z m 3.37524,0 v -6.7065 h 2.82178 v 1.24156 h -1.52376 v 1.35451 h 1.38112 v 1.23216 h -1.38112 v 1.5708 h 1.52376 v 1.30747 z m 5.05108,-1.24161 h 0.10501 c 0.47498,0 0.83873,-0.17873 1.08953,-0.53769 0.25088,-0.35745 0.37626,-0.87479 0.37626,-1.55196 0,-0.72427 -0.12075,-1.26519 -0.36216,-1.61949 -0.24302,-0.35579 -0.61606,-0.53295 -1.12088,-0.53295 h -0.0878 z m -1.32631,1.24161 v -6.7065 h 1.14917 c 1.03619,0 1.8075,0.27752 2.31539,0.83087 0.25554,0.27591 0.44686,0.62391 0.57534,1.04249 0.12853,0.42015 0.1928,0.91553 0.1928,1.48463 0,0.68347 -0.0925,1.25256 -0.27741,1.71029 -0.18659,0.45781 -0.47969,0.83714 -0.88101,1.13813 -0.23522,0.18029 -0.50483,0.30885 -0.80897,0.38566 -0.30255,0.0768 -0.72271,0.11443 -1.25886,0.11443 z m 5.11853,0 v -6.7065 h 1.36387 v 6.7065 z m 0.0941,-8.15504 c 0,-0.15359 0.0611,-0.2916 0.18179,-0.41542 0.12076,-0.12383 0.2571,-0.18653 0.41079,-0.18653 0.15359,0 0.2916,0.0611 0.41543,0.18179 0.12382,0.12076 0.18653,0.26027 0.18653,0.42016 0,0.15989 -0.0596,0.29789 -0.17717,0.41542 -0.11753,0.11761 -0.2586,0.17717 -0.42479,0.17717 -0.0799,0 -0.15369,-0.0141 -0.22103,-0.0407 -0.0674,-0.0283 -0.13327,-0.0722 -0.19756,-0.13327 -0.11602,-0.12383 -0.17399,-0.26183 -0.17399,-0.41857 z m 3.02873,8.15504 v -3.15103 l -1.55199,-3.55547 h 1.40933 l 0.44056,1.21335 c 0.0768,0.20228 0.15203,0.41857 0.22574,0.6522 l 0.19283,0.65686 c 0.0548,-0.24144 0.11446,-0.47348 0.17873,-0.69451 0.0329,-0.10657 0.0643,-0.20376 0.094,-0.29316 0.0298,-0.0893 0.0627,-0.18338 0.10343,-0.2853 l 0.48599,-1.24944 h 1.30897 l -1.56136,3.55547 v 3.15103 z m 3.03975,0 v -6.7065 h 2.82181 v 1.24156 h -1.52379 v 1.35451 h 1.38112 v 1.23216 h -1.38112 v 1.5708 h 1.52379 v 1.30747 z m 3.51943,-0.23355 v -1.39372 c 0.16622,0.14738 0.33076,0.2571 0.49538,0.33084 0.16307,0.0736 0.32769,0.11128 0.49382,0.11128 0.22109,0 0.39823,-0.0595 0.533,-0.17872 0.0675,-0.0611 0.11761,-0.13169 0.14897,-0.2085 0.0329,-0.0784 0.0486,-0.17084 0.0486,-0.27908 0,-0.25395 -0.17558,-0.52829 -0.52829,-0.82611 l -0.22104,-0.19283 c -0.41076,-0.36681 -0.69291,-0.69765 -0.84502,-0.99075 -0.15359,-0.29475 -0.2304,-0.62551 -0.2304,-0.9924 0,-0.57849 0.16298,-1.04558 0.48908,-1.40304 0.3261,-0.35586 0.75247,-0.53459 1.27918,-0.53459 0.18502,0 0.36841,0.0266 0.55187,0.0784 0.18343,0.0518 0.37777,0.13642 0.58004,0.25239 v 1.18364 c -0.23362,-0.11128 -0.41701,-0.18968 -0.55342,-0.23363 -0.13478,-0.0454 -0.24924,-0.0674 -0.34486,-0.0674 -0.19283,0 -0.34957,0.0612 -0.47347,0.18343 -0.12224,0.12227 -0.18339,0.28067 -0.18339,0.4735 0,0.16925 0.0455,0.32758 0.13793,0.4781 0.0925,0.15047 0.30729,0.37156 0.64434,0.66159 0.44992,0.38714 0.73993,0.70702 0.86849,0.96412 0.12857,0.25553 0.19283,0.5643 0.19283,0.9249 0,0.60984 -0.17243,1.09268 -0.51736,1.44539 -0.34483,0.35431 -0.8136,0.53147 -1.40775,0.53147 -0.11287,0 -0.22103,-0.006 -0.32451,-0.0188 -0.10194,-0.0125 -0.20378,-0.0314 -0.3057,-0.0596 -0.18968,-0.0517 -0.36525,-0.13169 -0.52832,-0.23985 z m 3.87218,0.23355 v -6.7065 h 1.36388 v 6.7065 z m 0.0941,-8.15504 c 0,-0.15359 0.0611,-0.2916 0.1818,-0.41542 0.12075,-0.12383 0.25709,-0.18653 0.41076,-0.18653 0.15362,0 0.29162,0.0611 0.41545,0.18179 0.12382,0.12076 0.1865,0.26027 0.1865,0.42016 0,0.15989 -0.0595,0.29789 -0.17713,0.41542 -0.11753,0.11761 -0.25861,0.17717 -0.42482,0.17717 -0.0799,0 -0.15367,-0.0141 -0.22101,-0.0407 -0.0674,-0.0283 -0.13327,-0.0722 -0.19756,-0.13327 -0.11602,-0.12383 -0.17399,-0.26183 -0.17399,-0.41857 z"
       style="fill:#ab417f;fill-rule:evenodd;stroke-width:0.26458332"
       id="path822"
       inkscape:connector-curvature="0" />
    <path
       d="m -380.92892,262.48218 v -5.89761 h -0.83714 v -0.80889 h 1.66483 v 6.7065 z m 4.60732,-4.64661 c 0,-0.46561 -0.0564,-0.80574 -0.16769,-1.02211 -0.11131,-0.21471 -0.28845,-0.32295 -0.52989,-0.32295 -0.23047,0 -0.39666,0.10824 -0.50008,0.32295 -0.1051,0.21637 -0.15677,0.55965 -0.15677,1.03156 0,0.49223 0.0517,0.83873 0.15362,1.03777 0.1035,0.19913 0.2759,0.2979 0.52207,0.2979 0.23511,0 0.40754,-0.10666 0.5157,-0.31981 0.10822,-0.21164 0.16304,-0.5534 0.16304,-1.02531 z m -0.15203,1.75739 c -0.10972,0.11131 -0.2273,0.19442 -0.35272,0.25239 -0.12697,0.058 -0.26183,0.0878 -0.4092,0.0878 -0.44048,0 -0.76184,-0.15989 -0.96097,-0.47813 -0.19904,-0.31829 -0.29781,-0.84185 -0.29781,-1.56929 0,-0.75563 0.12223,-1.31213 0.36523,-1.66958 0.24299,-0.35578 0.62235,-0.53451 1.13654,-0.53451 0.49697,0 0.86852,0.18968 1.11773,0.56745 0.24773,0.37785 0.37156,0.94845 0.37156,1.71037 0,0.60826 -0.10184,1.23532 -0.3057,1.87807 -0.20378,0.64275 -0.60352,1.52379 -1.20084,2.64464 h -0.97978 c 0.19913,-0.34956 0.38407,-0.68196 0.55658,-0.99703 0.14885,-0.27437 0.28371,-0.52517 0.40439,-0.74776 0.20386,-0.39196 0.39037,-0.77288 0.55499,-1.14443 z m 1.43912,2.88922 1.78866,-3.55544 c 0.15674,-0.31041 0.27279,-0.59886 0.35116,-0.86543 0.0784,-0.26805 0.11761,-0.5063 0.11761,-0.71953 0,-0.29469 -0.0502,-0.51422 -0.14896,-0.66 -0.10028,-0.14582 -0.25395,-0.21945 -0.46244,-0.21945 -0.23048,0 -0.39505,0.0956 -0.49223,0.28686 -0.0988,0.18968 -0.14738,0.51578 -0.14738,0.97359 v 0.23511 h -0.84653 l -0.009,-0.12854 v -0.21008 c 0,-0.63338 0.13012,-1.11307 0.38881,-1.43909 0.25865,-0.3261 0.64275,-0.48916 1.15064,-0.48916 0.45937,0 0.82304,0.14737 1.08953,0.44055 0.26654,0.29467 0.39981,0.70073 0.39981,1.21807 0,0.3057 -0.0518,0.6192 -0.15525,0.94059 -0.0548,0.1724 -0.12224,0.3465 -0.2022,0.52671 -0.0784,0.17872 -0.18502,0.38724 -0.31514,0.62709 l -1.19296,2.1822 h 1.7307 v 0.85595 z m 3.66673,-1.7495 h 0.79007 l -0.009,0.0831 v 0.0784 c 0,0.28372 0.0596,0.50009 0.17872,0.6459 0.12068,0.14579 0.29626,0.21786 0.52989,0.21786 0.24143,0 0.42015,-0.0925 0.53768,-0.27749 0.11602,-0.18653 0.17407,-0.47969 0.17407,-0.88104 0,-0.51104 -0.0769,-0.84966 -0.23048,-1.01272 -0.15211,-0.16454 -0.44836,-0.24606 -0.88733,-0.24606 h -0.13319 v -0.73059 l 0.11438,0.006 h 0.17557 c 0.34492,0 0.58005,-0.0784 0.70237,-0.23363 0.12226,-0.15676 0.18338,-0.48286 0.18338,-0.9798 0,-0.33076 -0.047,-0.5769 -0.14266,-0.73681 -0.094,-0.16148 -0.2367,-0.24141 -0.42953,-0.24141 -0.21944,0 -0.38407,0.0878 -0.49072,0.2618 -0.0548,0.0925 -0.0971,0.21008 -0.12539,0.35275 -0.0298,0.14422 -0.0439,0.32136 -0.0439,0.533 h -0.77129 l -0.009,-0.10507 v -0.17399 c 0,-0.52988 0.11443,-0.92964 0.34483,-1.19768 0.23048,-0.26962 0.58004,-0.40447 1.04881,-0.40447 0.50167,0 0.87471,0.15052 1.11929,0.44992 0.24299,0.2994 0.36526,0.75877 0.36526,1.37798 0,0.42486 -0.0659,0.75562 -0.1959,0.9939 -0.13012,0.23678 -0.33084,0.38722 -0.60359,0.45149 0.31199,0.0549 0.53773,0.20227 0.68037,0.44214 0.14266,0.23826 0.21318,0.60193 0.21318,1.09268 0,0.71954 -0.13163,1.24468 -0.39661,1.57387 -0.26491,0.32925 -0.68821,0.49388 -1.26982,0.49388 -0.47183,0 -0.82613,-0.13801 -1.06283,-0.41543 -0.23678,-0.27752 -0.35589,-0.69765 -0.35589,-1.2573 z"
       style="fill:#ab417f;fill-rule:evenodd;stroke-width:0.26458332"
       id="path824"
       inkscape:connector-curvature="0" />
  </g>
</svg>
