<?xml version="1.0" encoding="utf-8"?>
<!-- Generator: Adobe Illustrator 16.0.0, SVG Export Plug-In . SVG Version: 6.00 Build 0)  -->
<!DOCTYPE svg PUBLIC "-//W3C//DTD SVG 1.1//EN" "http://www.w3.org/Graphics/SVG/1.1/DTD/svg11.dtd">
<svg version="1.1" id="Layer_1" xmlns="http://www.w3.org/2000/svg" xmlns:xlink="http://www.w3.org/1999/xlink" x="0px" y="0px"
	 width="315.942px" height="468.083px" viewBox="5.078 6.61 315.942 468.083" enable-background="new 5.078 6.61 315.942 468.083"
	 xml:space="preserve">
<g>
	<g>
		<g>
			<path fill="#204598" d="M6.089,421.517v-44.049h12.073c4.984,0,8.466,0.158,10.444,0.482c1.98,0.319,3.684,0.87,5.11,1.653
				c1.629,0.903,2.868,2.112,3.724,3.631c0.854,1.519,1.281,3.271,1.281,5.257c0,2.51-0.64,4.504-1.918,5.979
				c-1.28,1.478-3.319,2.596-6.119,3.356c3.131,0.242,5.581,1.34,7.347,3.293c1.767,1.953,2.65,4.564,2.65,7.83
				c0,2.346-0.496,4.41-1.49,6.193s-2.414,3.166-4.26,4.146c-1.506,0.805-3.362,1.375-5.569,1.715
				c-2.208,0.34-5.82,0.51-10.837,0.51H6.089V421.517z M17.229,395.099h2.41c2.975,0,5.012-0.326,6.117-0.98
				c1.106-0.654,1.659-1.787,1.659-3.395c0-1.668-0.519-2.84-1.553-3.516c-1.035-0.672-3.049-1.01-6.042-1.01h-2.592V395.099z
				 M17.229,412.507h4.219c2.845,0,4.858-0.357,6.041-1.066c1.182-0.709,1.773-1.895,1.773-3.555c0-1.84-0.541-3.125-1.623-3.857
				c-1.083-0.729-3.086-1.094-6.011-1.094h-4.399V412.507z"/>
			<path fill="#204598" d="M42.693,421.517l15.222-44.049h15.051l15.231,44.049H76.249l-2.228-7.891h-17.07l-2.287,7.891H42.693z
				 M59.541,405.062h11.951l-4.486-14.535c-0.14-0.441-0.332-1.152-0.57-2.135c-0.242-0.982-0.553-2.246-0.935-3.791
				c-0.259,1.084-0.516,2.115-0.768,3.098c-0.25,0.982-0.505,1.926-0.768,2.828L59.541,405.062z"/>
			<path fill="#204598" d="M111.006,405.285v-9.236h23.616c0.022,0.305,0.037,0.637,0.047,0.996c0.011,0.36,0.016,0.895,0.016,1.596
				c0,7.59-2,13.479-6.005,17.662c-4,4.186-9.631,6.279-16.896,6.279c-3.569,0-6.744-0.537-9.521-1.611
				c-2.779-1.074-5.261-2.715-7.447-4.92c-2.086-2.109-3.707-4.602-4.86-7.484c-1.152-2.879-1.729-5.893-1.729-9.047
				c0-3.291,0.562-6.314,1.685-9.074s2.797-5.246,5.024-7.453c2.207-2.145,4.738-3.773,7.599-4.877
				c2.86-1.102,5.944-1.654,9.254-1.654c4.311,0,8.128,0.854,11.448,2.562c3.32,1.711,6.114,4.254,8.379,7.631l-10.409,4.978
				c-1.244-1.699-2.645-2.963-4.197-3.793c-1.556-0.83-3.295-1.244-5.222-1.244c-3.591,0-6.419,1.199-8.482,3.596
				c-2.069,2.396-3.1,5.67-3.1,9.82c0,4.191,1.03,7.49,3.1,9.896c2.063,2.406,4.894,3.607,8.484,3.607
				c3.049,0,5.593-0.746,7.628-2.242c2.037-1.498,3.228-3.49,3.566-5.983h-11.978V405.285z M101.883,362.634h3.92
				c0.119,1.449,0.627,2.514,1.521,3.186c0.896,0.674,2.241,1.012,4.034,1.012c1.789,0,3.138-0.342,4.044-1.024
				c0.907-0.687,1.398-1.742,1.481-3.173h3.917c-0.24,3.189-1.117,5.525-2.635,7.011c-1.518,1.483-3.784,2.226-6.794,2.226
				c-3.014,0-5.297-0.756-6.854-2.271C102.961,368.083,102.083,365.763,101.883,362.634z"/>
			<path fill="#204598" d="M173.246,379.167V392.3c-1.646-1.832-3.288-3.178-4.927-4.035c-1.636-0.854-3.384-1.283-5.253-1.283
				c-3.451,0-6.249,1.18-8.388,3.543c-2.139,2.359-3.206,5.441-3.206,9.236c0,3.537,1.088,6.471,3.266,8.803
				c2.178,2.33,4.955,3.496,8.328,3.496c1.869,0,3.617-0.428,5.253-1.279c1.639-0.85,3.281-2.197,4.927-4.039v13.131
				c-1.907,0.92-3.804,1.613-5.688,2.072c-1.889,0.461-3.793,0.693-5.721,0.693c-2.408,0-4.634-0.285-6.67-0.857
				c-2.037-0.574-3.909-1.441-5.612-2.604c-3.293-2.209-5.802-4.988-7.527-8.338c-1.728-3.353-2.589-7.123-2.589-11.32
				c0-3.369,0.547-6.436,1.641-9.193c1.094-2.76,2.744-5.262,4.951-7.512c2.089-2.146,4.442-3.752,7.061-4.814
				c2.618-1.063,5.535-1.596,8.747-1.596c1.928,0,3.832,0.23,5.721,0.691C169.442,377.556,171.338,378.246,173.246,379.167z"/>
			<path fill="#204598" d="M183.417,421.517v-44.049h12.145v44.049H183.417z"/>
			<path fill="#204598" d="M205.26,421.517v-44.049h12.034v33.75h14.888v10.299H205.26z"/>
			<path fill="#204598" d="M236.314,421.517l15.225-44.049h15.052l15.231,44.049h-11.95l-2.227-7.891h-17.069l-2.288,7.891H236.314z
				 M253.162,405.062h11.951l-4.483-14.535c-0.142-0.441-0.333-1.152-0.569-2.135c-0.244-0.982-0.553-2.246-0.938-3.791
				c-0.262,1.084-0.518,2.115-0.769,3.098c-0.249,0.982-0.502,1.926-0.768,2.828L253.162,405.062z"/>
			<path fill="#204598" d="M286.037,421.517v-44.049h12.553c4.921,0,8.352,0.223,10.291,0.676c1.938,0.451,3.609,1.207,5.017,2.271
				c1.587,1.205,2.809,2.739,3.66,4.604c0.852,1.867,1.281,3.924,1.281,6.17c0,3.41-0.838,6.184-2.519,8.32
				c-1.675,2.135-4.121,3.557-7.334,4.258l12.034,17.75h-13.604l-10.129-17.238v17.238H286.037z M297.289,398.291h2.238
				c2.603,0,4.503-0.441,5.699-1.326c1.202-0.881,1.802-2.269,1.802-4.154c0-2.205-0.56-3.775-1.681-4.709
				c-1.119-0.932-2.997-1.398-5.638-1.398h-2.422L297.289,398.291L297.289,398.291z"/>
		</g>
		<g>
			<path fill="#1D8BCB" d="M5.535,473.742v-35.543h9.738c4.016,0,6.823,0.131,8.418,0.387c1.595,0.262,2.968,0.707,4.118,1.338
				c1.312,0.729,2.312,1.705,3,2.93c0.688,1.221,1.033,2.635,1.033,4.238c0,2.023-0.516,3.631-1.545,4.82s-2.671,2.094-4.925,2.709
				c2.525,0.195,4.501,1.082,5.926,2.658c1.426,1.574,2.139,3.686,2.139,6.32c0,1.895-0.401,3.559-1.202,4.998
				c-0.802,1.439-1.946,2.557-3.437,3.35c-1.214,0.645-2.712,1.105-4.492,1.383c-1.781,0.277-4.695,0.412-8.742,0.412H5.535
				L5.535,473.742z M14.519,452.416h1.946c2.402,0,4.05-0.262,4.942-0.787c0.892-0.527,1.338-1.439,1.338-2.734
				c0-1.342-0.419-2.285-1.253-2.828c-0.836-0.543-2.463-0.814-4.881-0.814h-2.094L14.519,452.416L14.519,452.416z M14.519,466.492
				h3.409c2.294,0,3.919-0.285,4.871-0.861c0.953-0.574,1.432-1.533,1.432-2.879c0-1.49-0.438-2.531-1.312-3.123
				c-0.872-0.592-2.486-0.887-4.847-0.887h-3.554V466.492z"/>
			<path fill="#1D8BCB" d="M42.54,473.742v-35.543h21.773v7.779H51.972v6.188h11.637v7.611H51.972v5.988h12.341v7.977H42.54z"/>
			<path fill="#1D8BCB" d="M76.247,473.742v-35.543h9.685v27.229h12.033v8.314H76.247z"/>
			<path fill="#1D8BCB" d="M107.782,473.742v-35.543h21.773v7.779h-12.341v6.188h11.637v7.611h-11.637v5.988h12.341v7.977H107.782z"
				/>
			<path fill="#1D8BCB" d="M142.087,473.742v-35.543h7.414c5.516,0,9.418,0.26,11.704,0.775c2.291,0.521,4.301,1.385,6.03,2.6
				c2.25,1.57,3.955,3.582,5.12,6.029c1.165,2.453,1.746,5.25,1.746,8.393c0,3.141-0.581,5.936-1.746,8.389
				c-1.165,2.451-2.87,4.461-5.118,6.033c-1.715,1.195-3.673,2.051-5.872,2.561s-5.613,0.764-10.239,0.764h-1.625H142.087
				L142.087,473.742z M151.689,465.767h1.625c3.798,0,6.57-0.781,8.319-2.34c1.744-1.563,2.618-4.037,2.618-7.436
				c0-3.395-0.874-5.883-2.618-7.467c-1.748-1.584-4.521-2.379-8.319-2.379h-1.625V465.767z"/>
			<path fill="#1D8BCB" d="M184.511,473.742v-35.543h9.793v35.543H184.511z M185.88,429.968c0-0.951,0.359-1.799,1.084-2.531
				c0.721-0.738,1.553-1.105,2.493-1.105c1.005,0,1.862,0.357,2.576,1.068c0.712,0.711,1.069,1.568,1.069,2.568
				c0,1.037-0.347,1.896-1.035,2.584c-0.689,0.688-1.56,1.029-2.61,1.029c-0.976,0-1.813-0.355-2.518-1.066
				C186.236,431.802,185.88,430.955,185.88,429.968z"/>
			<path fill="#1D8BCB" d="M214.546,473.742v-16.217l-12.429-19.326h11.116l4.782,9.152c0.031,0.051,0.081,0.139,0.146,0.268
				c0.501,0.955,0.853,1.869,1.044,2.744c0.162-0.793,0.51-1.678,1.044-2.646c0.1-0.178,0.162-0.301,0.192-0.363l4.732-9.154h11.145
				l-12.429,19.326v16.217H214.546L214.546,473.742z"/>
			<path fill="#1D8BCB" d="M243.482,473.742v-35.543h21.772v7.779h-12.342v6.188h11.638v7.611h-11.638v5.988h12.342v7.977H243.482z"
				/>
			<path fill="#1D8BCB" d="M279.127,462.267c1.438,1.633,2.857,2.852,4.256,3.66c1.399,0.807,2.795,1.211,4.185,1.211
				c1.296,0,2.357-0.35,3.19-1.041c0.832-0.697,1.246-1.578,1.246-2.643c0-1.182-0.356-2.09-1.075-2.73
				c-0.719-0.639-2.347-1.297-4.88-1.975c-3.482-0.941-5.943-2.162-7.385-3.668c-1.442-1.504-2.162-3.568-2.162-6.191
				c0-3.398,1.136-6.17,3.409-8.314c2.272-2.145,5.223-3.217,8.849-3.217c1.953,0,3.812,0.264,5.569,0.787
				c1.754,0.527,3.417,1.322,4.986,2.393l-3.036,6.979c-1.098-0.941-2.226-1.652-3.384-2.135c-1.153-0.479-2.295-0.719-3.43-0.719
				c-1.161,0-2.106,0.277-2.837,0.836c-0.725,0.561-1.09,1.277-1.09,2.154c0,0.891,0.318,1.605,0.957,2.141
				c0.639,0.533,1.869,1.043,3.691,1.531l0.436,0.121c3.952,1.066,6.547,2.242,7.795,3.518c0.84,0.873,1.479,1.92,1.916,3.145
				c0.438,1.221,0.654,2.574,0.654,4.063c0,3.771-1.235,6.797-3.715,9.088c-2.473,2.289-5.773,3.434-9.896,3.434
				c-2.479,0-4.729-0.424-6.76-1.264c-2.032-0.844-3.982-2.162-5.863-3.961L279.127,462.267z"/>
			<path fill="#1D8BCB" d="M310.359,473.742v-35.543h9.796v35.543H310.359z M311.735,429.968c0-0.951,0.359-1.799,1.077-2.531
				c0.725-0.738,1.552-1.105,2.494-1.105c1.004,0,1.864,0.357,2.575,1.068c0.715,0.711,1.071,1.568,1.071,2.568
				c0,1.037-0.346,1.896-1.034,2.584s-1.56,1.029-2.612,1.029c-0.972,0-1.812-0.355-2.519-1.066
				C312.083,431.802,311.735,430.955,311.735,429.968z"/>
		</g>
	</g>
	<g>
		<g>
			<polygon fill="#204598" points="154.851,43.083 182.162,27.782 182.162,186.958 154.851,200.469 			"/>
			<path fill="#1D8BCB" d="M193.152,22.059L220.246,6.61v131.2c0,0,19.254-14.106,47.241-8.51c0,0,34.254,5.374,47.688,34.257
				c0,0,11.194,20.599,0.895,50.601c0,0-6.269,14.552-19.029,24.625c0,0,15.674-30.897,4.701-53.062
				c0,0-15.448-37.613-59.333-27.985c0,0-8.507-2.688-49.029,25.298L193.152,22.059z"/>
			<path fill="#1D8BCB" d="M193.152,196.469l27.314-15.449v33.138c0,0,0.673,21.269,27.314,19.702c0,0-14.103,14.552-29.104,14.776
				c0,0-21.271-2.463-25.3-29.554L193.152,196.469z"/>
			<path fill="#204598" d="M154.644,216.173l27.092-15.227v25.973c0,0,0.445,17.687,25.747,24.627c0,0,22.613,5.147,40.749-10.076
				c0,0,13.208-11.643,14.103-28.882c0,0,2.912-21.044-15.223-32.016c0,0-5.821-4.256-11.417-6.271c0,0,16.117-6.269,33.581,0.224
				c0,0,16.568,5.823,21.939,20.15c0,0,10.974,19.256-1.787,47.915c0,0-10.749,21.939-40.302,34.254c0,0-17.463,7.837-42.986,3.359
				c0,0-12.093-3.359-24.404-14.33l-26.868,12.986L154.644,216.173z"/>
		</g>
		<g>
			<polygon fill="#1D8BCB" points="85.237,279.309 98.447,245.726 108.299,258.937 97.104,292.074 			"/>
			<polygon fill="#1D8BCB" points="113.447,264.309 102.477,295.207 122.629,307.521 125.762,276.399 			"/>
			<polygon fill="#1D8BCB" points="131.359,280.43 128.447,309.759 146.136,317.819 145.688,290.728 			"/>
			<polygon fill="#1D8BCB" points="149.494,292.744 162.927,298.117 173.225,325.207 152.405,319.61 			"/>
			<polygon fill="#1D8BCB" points="167.408,299.011 182.629,302.147 200.542,324.983 179.945,325.655 			"/>
			<polygon fill="#1D8BCB" points="190.466,303.714 202.555,305.955 221.364,321.177 206.14,324.312 			"/>
			<polygon fill="#1D8BCB" points="209.497,306.625 226.959,305.955 241.069,315.356 225.841,319.833 			"/>
			<path fill="#1D8BCB" d="M234.127,305.058c0,0,15.67-3.807,26.867,2.238l-14.554,5.373L234.127,305.058z"/>
			<path fill="#1D8BCB" d="M252.709,299.683c0,0,28.66-6.939,48.587-18.805c0,0-7.168,10.074-33.81,24.85
				c0,0,0.222-4.254-10.524-5.371L252.709,299.683z"/>
			<path fill="#204598" d="M254.5,327.446c0,0,27.539-19.256,47.24-46.122c0,0-15.448,14.555-34.032,24.631
				c0,0,1.567,3.133-9.85,17.237L254.5,327.446z"/>
			<path fill="#204598" d="M247.112,315.804l14.328-6.27c0,0-13.435,20.821-28.435,26.42L247.112,315.804z"/>
			<polygon fill="#204598" points="226.738,323.64 241.963,317.595 227.857,337.521 205.692,345.804 			"/>
			<polygon fill="#204598" points="205.692,328.341 221.588,324.761 197.856,346.925 173.673,349.837 			"/>
			<polygon fill="#204598" points="143.898,347.149 165.391,348.94 198.974,329.462 177.257,329.462 			"/>
			<polygon fill="#204598" points="137.403,345.583 169.196,328.791 149.27,323.416 111.88,339.312 			"/>
			<polygon fill="#204598" points="83.446,323.192 125.09,315.132 143.001,322.074 105.835,335.507 			"/>
			<polygon fill="#204598" points="59.938,303.265 97.775,300.132 117.703,311.774 78.521,318.267 			"/>
			<polygon fill="#204598" points="37.324,280.207 77.849,281.548 91.955,295.207 55.236,298.341 			"/>
			<path fill="#204598" d="M31.951,272.146l43.211,4.029l-9.627-17.016l-43.883-9.627c0,0-8.507-15.002-12.762-38.063
				c0,0,0.446-2.239-2.463-2.239c0,0-2.017-0.224-1.119,4.253c0,0,2.686,19.927,12.984,38.063L31.951,272.146z"/>
			<path fill="#204598" d="M12.472,172.064c0,0-2.464,28.882,10.748,58.661l5.597,12.315c0,0,0.447,2.016-1.12,2.461
				c0,0-1.12,0.896-2.688-1.119c0,0-12.09-23.285-15.673-47.241c0,0-2.015-14.328-0.446-31.793c0,0,1.791-3.581,4.029-0.224
				L12.472,172.064z"/>
			<path fill="#204598" d="M25.234,139.825c0,0-7.166,27.537-3.134,49.257c0,0,3.806,29.106,15.673,50.599l1.342,3.133
				c0,0,0.224,2.463-3.358,1.793c0,0-13.434-27.54-15.895-45.003c0,0-5.375-24.628-0.673-50.375c0,0,2.24-10.97,3.134-13.209
				c0,0,1.792-3.808,3.807,0.446L25.234,139.825z"/>
			<path fill="#204598" d="M42.473,114.076c0,0-11.417,27.988-11.643,54.855c0,0-1.566,26.868,10.746,56.197l1.12,2.685
				c0,0-0.224,2.912-3.358,1.569c0,0-9.851-20.375-11.418-39.855c0,0-3.582-23.283,2.688-50.375c0,0,3.583-15.896,9.627-30
				c0,0,2.912-2.463,3.357,1.567L42.473,114.076z"/>
			<path fill="#204598" d="M58.818,98.18c0,0-14.329,22.389-16.792,48.362c0,0-4.702,30.449,4.03,62.018l0.447,2.239
				c0,0-0.896,2.463-3.807,0.896c0,0-7.388-27.091-5.821-52.616c0,0-1.12-31.345,18.36-62.465l1.791-3.358
				c0,0,3.358-1.344,3.358,2.239L58.818,98.18z"/>
			<path fill="#1D8BCB" d="M82.55,76.015c0,0-18.583,21.719-25.971,53.286c0,0-6.045,22.614-4.926,46.124
				c0,0,1.567,19.926,3.358,27.537c0,0,0.447,4.032-3.583,2.463c0,0-6.492-32.463-2.239-58.882c0,0,4.03-34.48,21.718-60.451
				c0,0,5.149-8.062,9.851-14.33c0,0,3.583-2.463,3.358,2.239L82.55,76.015z"/>
			<path fill="#1D8BCB" d="M103.148,64.819c0,0-19.926,14.106-33.583,47.018c0,0-10.523,24.183-8.507,60.452
				c0,0,1.343,22.613,5.597,40.973c0,0-0.673,3.582-3.583,0.897c0,0-10.299-38.51-4.254-74.781c0,0,3.359-34.256,24.628-59.555
				c0,0,9.403-12.764,18.36-19.032c0,0,2.91-2.239,2.91,2.463L103.148,64.819z"/>
			<path fill="#1D8BCB" d="M127.329,55.194c0,0-23.508,13.879-39.404,38.956c0,0-18.584,25.077-19.479,60.451
				c0,0-2.464,23.956,7.165,59.333l3.134,9.402c0,0-0.224,3.584-3.807,1.345c0,0-9.403-27.316-10.747-53.735
				c0,0-1.79-34.256,9.628-58.885c0,0,10.522-27.537,34.032-46.793c0,0,13.655-12.089,18.808-14.776c0,0,3.581-1.569,2.686,2.912
				L127.329,55.194z"/>
			<path fill="#1D8BCB" d="M145.241,52.506c0,0-20.375,10.074-39.405,31.794c0,0-22.837,22.389-28.21,59.33
				c0,0-6.269,29.554,7.836,73.213c0,0,5.599,19.032,9.181,22.614L80.76,275.503l-9.851-18.137l14.552-27.986
				c0,0-11.865-31.569-13.209-57.318c0,0-2.687-33.806,10.522-60.452c0,0,14.105-31.345,42.764-50.823
				c0,0,11.195-8.507,19.703-12.761c0,0,3.358-0.672,2.015,3.133L145.241,52.506z"/>
			<polygon fill="#1D8BCB" points="50.31,210.798 65.759,252.218 72.028,238.114 			"/>
			<polygon fill="#204598" points="50.086,247.294 65.982,251.994 50.31,210.798 			"/>
		</g>
		<g>
			<path fill="#204598" d="M147.491,266.033h-15.965v3.162l-1.429-0.753v-3.961h17.394V266.033z"/>
			<path fill="#204598" d="M139.9,252.087c0.296,0.449,0.513,0.897,0.649,1.35c0.144,0.453,0.213,0.928,0.213,1.424
				c0,1.51-0.497,2.744-1.495,3.699c-0.995,0.955-2.293,1.434-3.893,1.434c-1.663,0-3.018-0.533-4.062-1.604
				c-1.045-1.074-1.566-2.462-1.566-4.162c0-1.632,0.492-2.938,1.471-3.914c0.98-0.979,2.285-1.472,3.919-1.472
				c0.997,0,2.034,0.236,3.104,0.713c1.074,0.479,2.525,1.395,4.355,2.751l5.709,4.198l-0.788,1.31L139.9,252.087z M135.235,250.492
				c-1.238,0-2.231,0.358-2.98,1.072c-0.746,0.719-1.119,1.667-1.119,2.852s0.392,2.133,1.175,2.844
				c0.783,0.713,1.822,1.07,3.118,1.07c1.175,0,2.138-0.361,2.882-1.074c0.749-0.717,1.123-1.646,1.123-2.791
				c0-1.168-0.393-2.121-1.176-2.862C137.474,250.862,136.467,250.492,135.235,250.492z"/>
			<path fill="#204598" d="M139.9,238.134c0.296,0.446,0.513,0.896,0.649,1.347c0.144,0.453,0.213,0.927,0.213,1.425
				c0,1.51-0.497,2.744-1.495,3.699c-0.995,0.955-2.293,1.434-3.893,1.434c-1.663,0-3.018-0.535-4.062-1.605
				c-1.045-1.071-1.566-2.458-1.566-4.163c0-1.63,0.492-2.936,1.471-3.914c0.98-0.98,2.285-1.471,3.919-1.471
				c0.997,0,2.034,0.239,3.104,0.714c1.074,0.476,2.525,1.392,4.355,2.749l5.709,4.202l-0.788,1.309L139.9,238.134z
				 M135.235,236.537c-1.238,0-2.231,0.357-2.98,1.075c-0.746,0.714-1.119,1.665-1.119,2.851c0,1.185,0.392,2.131,1.175,2.842
				c0.783,0.712,1.822,1.068,3.118,1.068c1.175,0,2.138-0.356,2.882-1.074c0.749-0.713,1.123-1.646,1.123-2.791
				c0-1.166-0.393-2.121-1.176-2.861C137.474,236.907,136.467,236.537,135.235,236.537z"/>
			<path fill="#204598" d="M146.107,221.101h1.384v11.271l-4.152-3.773c-0.296-0.264-0.714-0.647-1.261-1.152
				c-3.396-3.131-5.842-4.695-7.34-4.695c-1.055,0-1.912,0.36-2.572,1.074c-0.659,0.717-0.99,1.653-0.99,2.803
				c0,1.177,0.37,2.108,1.111,2.792c0.741,0.686,1.757,1.027,3.047,1.027v1.566h-0.17c-1.672,0-2.992-0.498-3.963-1.493
				c-0.969-0.995-1.453-2.35-1.453-4.059c0-1.647,0.448-2.965,1.34-3.951c0.893-0.988,2.073-1.482,3.558-1.482
				c1.869,0,4.275,1.379,7.22,4.135l0.12,0.109l4.123,3.864L146.107,221.101L146.107,221.101z"/>
		</g>
	</g>
</g>
</svg>
