<?xml version="1.0" encoding="utf-8"?>
<!-- Generator: Adobe Illustrator 16.0.0, SVG Export Plug-In . SVG Version: 6.00 Build 0)  -->
<!DOCTYPE svg PUBLIC "-//W3C//DTD SVG 1.1//EN" "http://www.w3.org/Graphics/SVG/1.1/DTD/svg11.dtd">
<svg version="1.1" id="Layer_1" xmlns="http://www.w3.org/2000/svg" xmlns:xlink="http://www.w3.org/1999/xlink" x="0px" y="0px"
	 width="241.457px" height="324.33px" viewBox="0 0 241.457 324.33" enable-background="new 0 0 241.457 324.33"
	 xml:space="preserve">
<rect x="237.999" y="274.837" fill="#004899" width="3.458" height="20.412"/>
<path fill="#004899" d="M211.411,287.09c0.081,1.435,0.423,2.604,1.013,3.49c1.142,1.677,3.143,2.521,6.016,2.521
	c1.283,0,2.457-0.185,3.512-0.553c2.045-0.709,3.067-1.984,3.067-3.818c0-1.387-0.432-2.365-1.293-2.944
	c-0.871-0.579-2.239-1.076-4.095-1.504l-3.431-0.768c-2.241-0.51-3.819-1.071-4.756-1.678c-1.606-1.05-2.413-2.636-2.413-4.74
	c0-2.267,0.784-4.139,2.364-5.589c1.569-1.461,3.798-2.19,6.682-2.19c2.651,0,4.896,0.643,6.752,1.931
	c1.856,1.272,2.787,3.317,2.787,6.13h-3.22c-0.173-1.352-0.535-2.396-1.109-3.116c-1.039-1.319-2.813-1.98-5.313-1.98
	c-2.019,0-3.479,0.428-4.361,1.271c-0.882,0.85-1.326,1.841-1.326,2.971c0,1.233,0.516,2.143,1.555,2.711
	c0.676,0.374,2.213,0.828,4.598,1.385l3.544,0.806c1.71,0.391,3.035,0.92,3.966,1.603c1.607,1.185,2.408,2.899,2.414,5.149
	c0,2.792-1.029,4.801-3.067,6.007c-2.035,1.207-4.399,1.807-7.095,1.807c-3.153,0-5.615-0.8-7.391-2.407
	c-1.779-1.597-2.656-3.761-2.618-6.493H211.411z"/>
<polygon fill="#004899" points="181.442,269.955 199.887,269.955 199.887,273.056 184.781,273.056 184.781,280.733 198.756,280.733 
	198.756,283.665 184.781,283.665 184.781,292.241 200.146,292.241 200.146,295.254 181.442,295.254 "/>
<polygon fill="#004899" points="151.101,269.955 155.094,269.955 162.365,282.112 169.632,269.955 173.641,269.955 164.079,285.057 
	164.079,295.254 160.655,295.254 160.655,285.057 "/>
<rect x="139.51" y="274.837" fill="#004899" width="3.458" height="20.412"/>
<rect x="237.999" y="269.955" fill="#004899" width="3.458" height="2.503"/>
<rect x="139.51" y="269.956" fill="#004899" width="3.458" height="2.503"/>
<path fill="#004899" d="M108.887,269.955h10.253c3.474,0,6.174,1.233,8.089,3.706c1.716,2.224,2.57,5.076,2.57,8.56
	c0,2.685-0.508,5.107-1.521,7.282c-1.774,3.837-4.837,5.752-9.176,5.752h-10.216V269.955z M118.448,292.328
	c1.158,0,2.11-0.125,2.862-0.363c1.331-0.449,2.419-1.309,3.269-2.58c0.677-1.028,1.162-2.332,1.461-3.929
	c0.173-0.957,0.265-1.839,0.265-2.656c0-3.133-0.627-5.562-1.877-7.305c-1.239-1.731-3.247-2.597-6.012-2.597h-6.075v19.43H118.448z
	"/>
<polygon fill="#004899" points="81.012,269.955 99.451,269.955 99.451,273.056 84.35,273.056 84.35,280.733 98.315,280.733 
	98.315,283.665 84.35,283.665 84.35,292.241 99.711,292.241 99.711,295.254 81.012,295.255 "/>
<polygon fill="#004899" points="56.535,269.955 59.966,269.955 59.966,292.241 72.777,292.241 72.777,295.255 56.535,295.255 "/>
<polygon fill="#004899" points="28.811,269.955 47.25,269.955 47.25,273.056 32.149,273.056 32.149,280.733 46.114,280.733 
	46.114,283.665 32.149,283.665 32.149,292.241 47.51,292.241 47.51,295.255 28.811,295.255 "/>
<path fill="#004899" d="M0.34,269.956h10.864c2.966,0,5.076,0.887,6.326,2.65c0.736,1.049,1.098,2.251,1.098,3.619
	c0,1.591-0.449,2.906-1.358,3.923c-0.471,0.541-1.147,1.033-2.034,1.482c1.298,0.499,2.272,1.05,2.91,1.667
	c1.137,1.104,1.704,2.629,1.704,4.565c0,1.629-0.508,3.106-1.53,4.427c-1.532,1.975-3.955,2.966-7.288,2.966H0.34V269.956z
	 M11.086,292.328c2.104,0,3.597-0.611,4.496-1.828c0.568-0.77,0.844-1.7,0.844-2.792c0-1.835-0.823-3.084-2.462-3.755
	c-0.877-0.353-2.029-0.53-3.463-0.53H3.695v8.905H11.086z M9.934,280.651c1.445,0,2.57-0.206,3.376-0.605
	c1.261-0.627,1.894-1.77,1.894-3.409c0-1.655-0.671-2.764-2.013-3.338c-0.762-0.324-1.882-0.487-3.376-0.487H3.695v7.84H9.934z"/>
<path fill="#004899" d="M219.911,237.016h5.627v16.302c0,1.823,0.223,3.155,0.649,3.999c0.666,1.482,2.132,2.223,4.394,2.223
	c2.24,0,3.701-0.74,4.372-2.223c0.433-0.844,0.644-2.176,0.644-3.999v-16.302h5.633v16.302c0,2.819-0.439,5.016-1.315,6.579
	c-1.628,2.884-4.739,4.324-9.333,4.324s-7.716-1.44-9.359-4.324c-0.877-1.563-1.311-3.76-1.311-6.579V237.016z"/>
<polygon fill="#004899" points="195.147,237.016 200.963,237.016 211.525,255.53 211.525,237.016 216.692,237.016 216.692,263.532 
	211.146,263.532 200.314,244.698 200.314,263.532 195.147,263.532 "/>
<path fill="#004899" d="M188.306,237.703c1.001,0.417,1.856,1.033,2.56,1.85c0.574,0.676,1.028,1.412,1.369,2.23
	c0.33,0.815,0.498,1.747,0.498,2.791c0,1.255-0.32,2.5-0.958,3.723c-0.634,1.212-1.678,2.072-3.144,2.575
	c1.223,0.487,2.088,1.196,2.586,2.104c0.52,0.898,0.779,2.272,0.779,4.14v1.779c0,1.206,0.049,2.029,0.146,2.463
	c0.141,0.681,0.48,1.189,1.001,1.51v0.665h-6.099c-0.167-0.584-0.281-1.061-0.361-1.418c-0.142-0.746-0.223-1.509-0.233-2.288
	l-0.032-2.462c-0.028-1.694-0.341-2.819-0.936-3.388c-0.59-0.557-1.694-0.839-3.328-0.839h-5.725v10.395h-5.416v-26.518h13.013
	C185.882,237.054,187.311,237.281,188.306,237.703 M176.43,241.62v7.126h6.281c1.245,0,2.182-0.147,2.803-0.428
	c1.104-0.509,1.656-1.505,1.656-2.991c0-1.604-0.536-2.686-1.596-3.236c-0.606-0.313-1.504-0.471-2.7-0.471H176.43z"/>
<path fill="#004899" d="M146.851,237.016h5.632v16.302c0,1.823,0.217,3.155,0.65,3.999c0.671,1.482,2.132,2.223,4.393,2.223
	c2.24,0,3.701-0.74,4.377-2.223c0.427-0.844,0.645-2.176,0.645-3.999v-16.302h5.633v16.302c0,2.819-0.439,5.016-1.321,6.579
	c-1.623,2.884-4.739,4.324-9.333,4.324c-4.593,0-7.716-1.44-9.354-4.324c-0.883-1.563-1.32-3.76-1.32-6.579V237.016z"/>
<path fill="#004899" d="M143.09,239.84c0.813,1.126,1.218,2.479,1.223,4.052c0,1.618-0.41,2.917-1.223,3.896
	c-0.46,0.552-1.131,1.061-2.018,1.515c1.357,0.492,2.375,1.272,3.063,2.338c0.692,1.065,1.033,2.364,1.033,3.891
	c0,1.567-0.39,2.976-1.185,4.225c-0.498,0.822-1.125,1.526-1.884,2.083c-0.854,0.65-1.86,1.099-3.029,1.337
	c-1.147,0.243-2.408,0.357-3.755,0.357h-12.022v-26.566h12.888C139.427,237.016,141.732,238.011,143.09,239.84 M128.579,251.857
	v7.071h6.52c1.163,0,2.067-0.158,2.717-0.466c1.174-0.579,1.764-1.682,1.764-3.311c0-1.38-0.574-2.326-1.71-2.842
	c-0.639-0.292-1.526-0.438-2.685-0.453H128.579z M128.579,241.62v5.849h6.52c1.163,0,2.105-0.217,2.824-0.644
	c0.731-0.449,1.099-1.229,1.099-2.343c0-1.233-0.481-2.051-1.439-2.445c-0.833-0.276-1.888-0.417-3.165-0.417H128.579z"/>
<polygon fill="#004899" points="98.97,236.967 104.786,236.967 115.347,255.53 115.347,236.967 120.515,236.967 120.515,263.532 
	114.969,263.532 104.132,244.698 104.132,263.532 98.97,263.532 "/>
<rect x="91.179" y="236.974" fill="#004899" width="5.508" height="4.738"/>
<rect x="91.179" y="244.273" fill="#004899" width="5.508" height="19.26"/>
<polygon fill="#004899" points="88.841,236.974 88.841,241.713 80.904,241.713 80.904,263.533 75.325,263.533 75.325,241.713 
	67.356,241.713 67.356,236.969 "/>
<polygon fill="#004899" points="60.208,236.968 66.49,236.968 57.616,253.572 57.616,263.533 52.071,263.533 52.071,253.572 
	42.896,236.968 49.425,236.968 54.934,248.567 "/>
<polygon fill="#004899" points="42.051,241.712 28.016,241.712 28.016,247.339 40.898,247.339 40.898,251.949 28.016,251.949 
	28.016,258.767 42.7,258.767 42.7,263.533 22.594,263.533 22.594,236.968 42.051,236.968 "/>
<polygon fill="#004899" points="0,258.858 13.694,241.712 0.341,241.712 0.341,236.968 20.604,236.968 20.604,241.458 6.73,258.858 
	20.641,258.858 20.641,263.533 0,263.533 "/>
<rect y="84.292" fill="#F7A600" width="241.2" height="128.376"/>
<path fill="#C63214" d="M228.413,0h12.69v120.611c-8.864-11.958-20.353-9.594-29.185-11.438l-9.216,37.428
	c-6.113-0.783-151.849-42.029-151.849-42.029L0.112,87.07V0h12.675v14.366h12.685V0h12.675v14.366h12.696V0h12.686v40.186v14.36
	h12.68v-14.36H88.9v14.36h12.669v-14.36h12.697v14.36h12.674v-14.36h12.685v14.36h12.697v-14.36h12.675v14.36h12.685V33.229V14.366
	V0h12.675v14.366h12.696V0h12.674v14.366h12.687V0z"/>
<path fill="#004899" d="M241.207,193.63v28.863H0.001v-31.15c8.976,7.225,17.064,12.473,32.431,13.223
	c24.162,0,20.134-13.249,47.803-14.805c27.5,0.937,21.666,12.38,49.746,13.742c17.809-0.701,22.69-13.583,42.682-14.464
	c20.457-0.701,27.883,13.649,44.805,14.289C223.996,203.58,232.812,201.385,241.207,193.63"/>
<path fill="#009A93" d="M204.974,109.042c-1.051-3.043-6.326-3.973-11.799-2.085c-5.314,1.816-8.833,5.62-8.083,8.63
	c-0.799,0.263-3.087,1.117-5.878,2.917c-1.581,1.029-5.653,4.055-7.782,6.769l-2.588,3.487c0,0,5.778-5.763,10.556-8.893
	c1.692-1.117,4.417-2.715,6.256-3.389c1.412,2.666,6.124,3.246,11.313,1.473C202.435,116.058,206.019,112.079,204.974,109.042"/>
<path fill="#F7A600" d="M136.31,120.313c1.751-1.33,3.661-2.462,5.702-3.371c4.045-18.503,20.522-32.371,40.251-32.371
	c9.517,0,18.316,3.245,25.284,8.681V81.731l-3.132-3.896v-6.267h3.132V45.53l5.406-25.036l5.417,25.036v26.038h3.061v6.519
	l-3.061,3.645v24.211c3.229,5.878,5.068,12.632,5.068,19.806c0,6.315-1.428,12.297-3.973,17.644l-36.722,5.998
	c-2.632,13.507-14.519,23.708-28.808,23.708c-10.923,0-20.467-5.971-25.513-14.842L0.002,179.216V84.868
	c4.854-2.539,10.562-3.377,13.501-3.377c13.758,0,26.056,6.354,32.212,17.654H59.96v-9.883l25.585-18.317l27.056,18.317
	l-0.082,1.734l-6.326,6.71v4.761h16.292l13.824,10.042V120.313z"/>
<path fill="#009A93" d="M183.297,173.27c-2.84-4.257-10.563-9.539-20.539-12.599c-8.838-2.691-15.985-2.758-18.996-1.235
	c4.302,0.612,9.452,1.597,16.452,3.978c4.766,1.62,10.058,3.749,15.432,6.49c0.066,0.121,0.056,0.214-0.026,0.307
	c-0.444,0.038-6.737-3.092-15.686-6.009c-4.902-1.598-10.731-3.277-16.526-4.055c-0.176,0.12-4.197-0.58-10.995,0.104
	c-0.257,0.22,0.153,0.421,0.181,0.771c5.703-0.477,10.529-0.054,10.595,0.104c0.844,2.218,7.837,6.71,16.215,9.261
	C169.401,173.444,178.722,174.692,183.297,173.27"/>
<path fill="#009A93" d="M168.915,113.52c3.256,0.814,4.717,6.232,3.256,12.11c-1.423,5.702-5.068,9.73-8.274,9.217
	c-0.196,0.858-0.887,3.316-2.495,6.386c-0.946,1.763-3.716,6.271-6.37,8.746l-1.489-0.39c0,0,3.606-2.866,6.442-8.132
	c1.007-1.865,2.412-5.028,2.933-7.005c-2.9-1.221-3.951-6.201-2.572-11.766C161.816,116.814,165.659,112.704,168.915,113.52"/>
<path fill="#009A93" d="M190.95,154.375c0.481-3.415-4.109-6.874-10.267-7.738c-5.97-0.848-11.202,1.078-11.936,4.306
	c-0.908-0.125-3.496-0.421-7.055-0.064c-2.019,0.208-7.377,1.116-10.748,2.682l0.285,0.798c0,0,4.449-1.908,10.54-2.571
	c2.161-0.251,4.8-0.269,6.885,0c0.044,3.229,4.482,6.392,10.288,7.208C185.084,159.857,190.458,157.79,190.95,154.375"/>
<path fill="#009A93" d="M105.425,135.612c-1.035,5.02-6.206,12.801-14.338,19.362c-7.169,5.813-13.769,8.537-17.119,8.259
	c3.744-2.163,8.144-5.014,13.753-9.835c3.825-3.289,7.93-7.239,11.875-11.805c0.017-0.126-0.032-0.218-0.142-0.262
	c-0.421,0.126-5.073,5.39-12.297,11.438c-3.935,3.322-8.712,7.065-13.791,9.944c-0.153-0.028-1.953,1.065-5.358,2.385
	c-1.362,0.515-3.929,1.155-6.627,1.221c-0.295-0.093-3.759-0.301-3.852-0.629c3.398,0.158,8.668-1.248,10.042-1.795
	c3.075-1.226,5.297-2.545,5.297-2.666c-0.044-2.353,4.668-8.488,11.482-13.993C92.471,140.659,100.647,136.002,105.425,135.612"/>
<path fill="#009A93" d="M226.262,133.701c-4.23-2.884-13.37-4.888-23.773-3.974c-9.205,0.793-15.843,3.409-18.064,5.959
	c4.219-1.05,9.357-2.063,16.752-2.488c5.029-0.28,10.731-0.296,16.729,0.251c0.1,0.077,0.131,0.175,0.082,0.296
	c-0.388,0.19-7.398-0.356-16.801,0.301c-5.116,0.344-11.169,0.974-16.822,2.413c-0.126,0.186-6.327,0.826-12.379,4.028
	c-0.153,0.278-4.871,2.162-3.07,2.66c6.287-3.35,12.757-4.718,15.685-5.386c2.649,2.097,9.697,2.972,18.426,2.223
	C213.444,139.075,222.546,136.738,226.262,133.701"/>
<path fill="#009A93" d="M122.358,136.724c2.758,2.069,1.959,7.771-1.773,12.74c-3.634,4.805-8.346,7.192-11.168,5.44
	c-0.532,0.728-2.441,2.955-5.2,5.198c-1.587,1.281-5.423,4.208-8.898,5.495l-1.018-0.782c0,0,4.476-1.801,9.254-5.626
	c1.691-1.362,3.579-3.213,4.86-4.87c-2.255-2.315-1.347-7.689,2.194-12.38C114.335,136.992,119.6,134.639,122.358,136.724"/>
<path fill="#009A93" d="M153.206,122.021c0.203,5.105-2.928,13.917-9.21,22.268c-5.566,7.382-11.301,11.607-14.634,12.139
	c3.119-3.004,6.692-6.83,10.962-12.871c2.916-4.11,5.959-8.938,8.684-14.327c-0.032-0.104-0.093-0.203-0.219-0.214
	c-0.377,0.234-3.623,6.468-9.149,14.081c-3.021,4.175-6.759,8.947-10.983,12.991c-0.22,0-3.055,2.923-8.964,6.375
	c-0.329-0.031-0.126-0.437-0.296-0.737c4.887-2.961,8.543-6.142,8.488-6.316c-0.602-2.265,2.414-10.025,7.685-17.014
	C141.861,130.049,148.664,123.559,153.206,122.021"/>
<path fill="#009A93" d="M191.627,91.018c1.5,3.854,1.423,11.405-1.188,19.444c-2.304,7.098-5.583,11.843-7.979,13.123
	c1.582-3.113,3.328-6.988,4.997-12.718c1.148-3.918,2.184-8.4,2.851-13.223c-0.044-0.093-0.126-0.142-0.219-0.126
	c-0.213,0.285-1.067,5.89-3.289,13.173c-1.204,3.979-5.352,14.591-7.224,18.181c-1.188,2.085-2.84,6.37-4.629,7.611
	c-0.258,0.061-4.575,4.827-2.842,2.036c2.364-1.379,8.948-16.385,8.899-16.467c-1.078-1.581-0.739-7.146,1.455-13.884
	C185.064,100.135,188.551,93.382,191.627,91.018"/>
<path fill="#009A93" d="M143.795,179.679c1.505-3.103-1.784-7.819-7.361-10.545c-5.423-2.633-10.721-2.786-12.428,0.065
	c-0.811-0.411-3.897-1.631-7.394-2.37c-1.992-0.438-6.922-0.738-10.606-0.279l0.033,0.844c0,0,4.805-0.443,10.809,0.799
	c2.134,0.454,4.635,1.241,6.534,2.145c-0.958,3.087,2.288,7.448,7.563,10.026C136.538,183.077,142.278,182.777,143.795,179.679"/>
<path fill="#009A93" d="M0.157,155.251c13.364,2.929,52.247,10.715,67.007,10.715c67.433,0,118.602-21.004,134.445-71.077
	c-9.105,47.786-63.422,75.922-134.774,75.922c-14.037,0-53.878-7.1-66.678-9.758V155.251z"/>
<path fill="#009A93" d="M126.329,189.096c-2.853-4.492-10.655-10.382-20.758-14.189c-8.948-3.388-16.171-3.985-19.225-2.66
	c4.34,0.935,9.555,2.315,16.653,5.231c4.81,1.971,10.168,4.493,15.608,7.673c0.044,0.109,0.027,0.219-0.049,0.301
	c-0.438,0-6.803-3.617-15.854-7.23c-4.953-1.952-10.792-4.416-16.67-5.62c-0.191,0.11-7.284-1.893-13.632-2.943
	c-0.252,0.203-2.211,0.701-2.178,1.051c5.762,0.564,15.465,3.037,15.515,3.196c0.842,2.288,7.907,7.311,16.401,10.523
	C112.248,188.237,121.672,190.196,126.329,189.096"/>
<rect x="165.453" y="304.464" fill="#C63214" width="1.285" height="19.188"/>
<path fill="#004899" d="M157.141,320.521h2.619v-12.253h-2.619V320.521z M155.045,312.095h-2.619v5.015
	c0,0.224-0.034,0.413-0.104,0.568c-0.155,0.413-0.585,0.914-1.311,0.914c-0.931,0-1.326-0.742-1.326-1.967v-4.53h-2.62v4.945
	c0,2.603,1.241,3.671,2.965,3.671c1.516,0,2.309-0.861,2.637-1.379h0.052l0.12,1.189h2.275c-0.034-0.707-0.069-1.604-0.069-2.706
	V312.095z M139.421,315.696c0-0.173,0.017-0.328,0.052-0.483c0.172-0.758,0.827-1.292,1.533-1.292c1.224,0,1.81,1.034,1.81,2.344
	c0,1.517-0.688,2.378-1.81,2.378c-0.757,0-1.361-0.552-1.533-1.24c-0.035-0.139-0.052-0.293-0.052-0.466V315.696z M136.802,318.004
	c0,0.949-0.034,1.966-0.069,2.518h2.224l0.104-1.173h0.034c0.586,1,1.551,1.362,2.533,1.362c1.931,0,3.843-1.517,3.843-4.55
	c0.018-2.586-1.447-4.257-3.463-4.257c-1.172,0-2.051,0.465-2.552,1.189h-0.034v-4.825h-2.619V318.004z M126.709,320.521h2.621
	v-4.86c0-0.242,0.017-0.482,0.086-0.654c0.188-0.482,0.62-0.982,1.344-0.982c0.947,0,1.327,0.741,1.327,1.827v4.67h2.619v-4.98
	c0-2.481-1.292-3.637-3.017-3.637c-1.412,0-2.257,0.811-2.602,1.361h-0.051l-0.121-1.171h-2.275
	c0.035,0.758,0.068,1.637,0.068,2.688V320.521z M122.098,317.454c0,0.155-0.017,0.31-0.052,0.447
	c-0.172,0.535-0.723,0.966-1.36,0.966c-0.587,0-1.035-0.327-1.035-1c0-0.999,1.069-1.327,2.447-1.327V317.454z M124.631,315.541
	c0-1.982-0.878-3.637-3.688-3.637c-1.533,0-2.688,0.431-3.274,0.758l0.482,1.672c0.552-0.327,1.465-0.621,2.328-0.621
	c1.292,0,1.533,0.639,1.533,1.087v0.104c-2.981,0-4.946,1.034-4.946,3.222c0,1.346,1.017,2.586,2.723,2.586
	c1,0,1.861-0.362,2.413-1.034h0.052l0.155,0.845h2.359c-0.102-0.466-0.138-1.241-0.138-2.034V315.541z M111.662,310.509v1.586h-1.12
	v1.93h1.12v3.447c0,1.188,0.241,1.999,0.724,2.498c0.43,0.432,1.137,0.724,1.982,0.724c0.723,0,1.361-0.104,1.688-0.224
	l-0.017-1.982c-0.241,0.053-0.414,0.069-0.776,0.069c-0.775,0-1.034-0.466-1.034-1.482v-3.05h1.879v-1.93h-1.879v-2.292
	L111.662,310.509z M103.345,320.091c0.637,0.345,1.62,0.603,2.723,0.603c2.413,0,3.636-1.154,3.636-2.739
	c-0.016-1.224-0.672-2.035-2.275-2.586c-1.034-0.345-1.361-0.568-1.361-0.965c0-0.413,0.362-0.672,0.999-0.672
	c0.707,0,1.449,0.275,1.827,0.465l0.449-1.792c-0.518-0.258-1.38-0.5-2.362-0.5c-2.085,0-3.429,1.189-3.429,2.774
	c-0.017,0.982,0.655,1.931,2.413,2.517c0.965,0.309,1.223,0.534,1.223,0.965c0,0.432-0.327,0.689-1.12,0.689
	c-0.776,0-1.776-0.327-2.257-0.62L103.345,320.091z M100.422,311.061c0.862,0,1.396-0.586,1.396-1.311
	c-0.017-0.74-0.534-1.31-1.378-1.31c-0.845,0-1.396,0.569-1.396,1.31c0,0.725,0.534,1.311,1.361,1.311H100.422z M101.732,312.095
	h-2.619v8.427h2.619V312.095z M95.983,320.711c0.931,0,1.551-0.673,1.551-1.586c-0.017-0.965-0.638-1.603-1.534-1.603
	c-0.913,0-1.551,0.655-1.551,1.603c0,0.913,0.638,1.586,1.517,1.586H95.983z M92.664,312.095h-2.62v5.015
	c0,0.224-0.034,0.413-0.103,0.568c-0.155,0.413-0.587,0.914-1.31,0.914c-0.93,0-1.327-0.742-1.327-1.967v-4.53h-2.619v4.945
	c0,2.603,1.24,3.671,2.964,3.671c1.517,0,2.309-0.861,2.637-1.379h0.051l0.121,1.189h2.274c-0.034-0.707-0.068-1.604-0.068-2.706
	V312.095z M74.627,320.521h2.62v-4.86c0-0.242,0.017-0.482,0.086-0.654c0.189-0.482,0.621-0.982,1.344-0.982
	c0.948,0,1.327,0.741,1.327,1.827v4.67h2.62v-4.98c0-2.481-1.292-3.637-3.016-3.637c-1.414,0-2.258,0.811-2.602,1.361h-0.052
	l-0.121-1.171h-2.274c0.034,0.758,0.068,1.637,0.068,2.688V320.521z M68.085,320.521h2.62v-4.257c0-0.224,0.018-0.413,0.052-0.586
	c0.172-0.827,0.827-1.327,1.792-1.327c0.293,0,0.5,0.035,0.707,0.067v-2.463c-0.19-0.035-0.311-0.052-0.552-0.052
	c-0.827,0-1.844,0.517-2.274,1.758h-0.07l-0.103-1.567h-2.24c0.051,0.724,0.068,1.533,0.068,2.774V320.521z M65.991,312.095h-2.62
	v5.015c0,0.224-0.035,0.413-0.103,0.568c-0.156,0.413-0.586,0.914-1.31,0.914c-0.932,0-1.328-0.742-1.328-1.967v-4.53h-2.619v4.945
	c0,2.603,1.241,3.671,2.964,3.671c1.517,0,2.31-0.861,2.637-1.379h0.052l0.12,1.189h2.275c-0.034-0.707-0.068-1.604-0.068-2.706
	V312.095z M50.366,315.696c0-0.173,0.017-0.328,0.052-0.483c0.173-0.758,0.828-1.292,1.534-1.292c1.223,0,1.809,1.034,1.809,2.344
	c0,1.517-0.689,2.379-1.809,2.379c-0.759,0-1.361-0.553-1.534-1.241c-0.035-0.139-0.052-0.293-0.052-0.466V315.696z M47.747,318.004
	c0,0.949-0.034,1.966-0.069,2.518h2.224l0.102-1.172h0.035c0.586,0.999,1.551,1.361,2.533,1.361c1.931,0,3.844-1.517,3.844-4.55
	c0.017-2.586-1.448-4.257-3.464-4.257c-1.172,0-2.051,0.465-2.551,1.189h-0.035v-4.825h-2.619V318.004z M37.655,320.521h2.619v-4.86
	c0-0.242,0.018-0.482,0.087-0.654c0.189-0.482,0.62-0.982,1.344-0.982c0.947,0,1.326,0.741,1.326,1.827v4.67h2.62v-4.98
	c0-2.481-1.292-3.637-3.016-3.637c-1.412,0-2.257,0.811-2.601,1.361h-0.053l-0.12-1.171h-2.275c0.035,0.758,0.069,1.637,0.069,2.688
	V320.521z M34.25,311.061c0.862,0,1.396-0.586,1.396-1.311c-0.018-0.74-0.534-1.31-1.379-1.31c-0.844,0-1.395,0.569-1.395,1.31
	c0,0.725,0.534,1.311,1.36,1.311H34.25z M35.56,312.095h-2.62v8.427h2.62V312.095z M26.984,310.509v1.586h-1.12v1.93h1.12v3.447
	c0,1.188,0.242,1.999,0.724,2.498c0.431,0.432,1.137,0.724,1.982,0.724c0.724,0,1.361-0.104,1.689-0.224l-0.018-1.982
	c-0.24,0.053-0.413,0.069-0.775,0.069c-0.775,0-1.033-0.466-1.033-1.482v-3.05h1.878v-1.93h-1.878v-2.292L26.984,310.509z
	 M16.668,312.095l3.103,7.72c0.085,0.207,0.103,0.328,0.103,0.431c0,0.104-0.052,0.242-0.138,0.38
	c-0.241,0.414-0.689,0.844-1.086,1.052c-0.396,0.223-0.809,0.378-1.137,0.447l0.552,2.206c0.671-0.069,1.637-0.362,2.533-1.154
	c0.948-0.845,1.757-2.173,2.964-5.532l1.965-5.549h-2.809l-1.035,4.136c-0.12,0.5-0.258,1.12-0.379,1.585h-0.051
	c-0.104-0.447-0.276-1.085-0.414-1.568l-1.258-4.152H16.668z M10.626,315.351c0.069-0.688,0.518-1.705,1.638-1.705
	c1.189,0,1.465,1.067,1.465,1.705H10.626z M16.072,317.144c0.034-0.189,0.086-0.586,0.086-1.033c0-2.086-1.034-4.206-3.757-4.206
	c-2.912,0-4.256,2.361-4.256,4.499c0,2.636,1.637,4.29,4.498,4.29c1.137,0,2.188-0.172,3.05-0.534l-0.344-1.774
	c-0.707,0.24-1.431,0.361-2.328,0.361c-1.223,0-2.291-0.517-2.377-1.603H16.072z M0,320.521h7.324v-2.085h-4.05v-0.035
	c0.483-0.464,0.914-0.999,1.379-1.533l2.533-3.188v-1.585H0.293v2.084h3.706v0.034c-0.483,0.5-0.863,0.933-1.345,1.483L0,319.004
	V320.521z"/>
<path fill="#004899" d="M234.829,315.886l0.018-0.034l1.482-2.448c0.378-0.706,0.688-1.361,1.051-2.085h0.053
	c-0.035,0.724-0.07,1.413-0.07,2.085v2.482H234.829z M239.846,320.521v-2.672h1.326v-1.964h-1.326v-6.566h-3.225l-4.222,6.825v1.705
	h4.963v2.672H239.846z M227.214,310.905c0.947,0,1.343,0.689,1.343,1.396c0,0.688-0.534,1.24-1.137,1.412
	c-0.896-0.274-1.569-0.758-1.569-1.516c0-0.688,0.449-1.292,1.345-1.292H227.214z M227.23,318.901c-0.965,0-1.586-0.759-1.569-1.568
	c0-0.81,0.5-1.431,1.361-1.672c1.017,0.276,1.759,0.862,1.759,1.843c0,0.794-0.62,1.397-1.535,1.397H227.23z M227.3,309.129
	c-2.224,0-3.931,1.26-3.931,3.154c0,0.982,0.534,1.896,1.62,2.465v0.034c-1.224,0.534-1.999,1.465-1.999,2.809
	c0,1.518,1.311,3.12,4.153,3.12c2.603,0,4.308-1.379,4.308-3.412c0-1.431-0.965-2.361-2.066-2.774v-0.053
	c1.119-0.551,1.636-1.499,1.636-2.464c0-1.361-1.085-2.879-3.705-2.879H227.3z M217.545,311.042c1.188,0,1.654,1.173,1.638,2.361
	c0,0.327-0.035,0.499-0.122,0.673c-0.257,0.396-0.74,0.724-1.481,0.724c-1.052,0-1.586-0.827-1.586-1.792
	c0-1.173,0.655-1.966,1.533-1.966H217.545z M214.408,320.676c0.292,0.018,0.758,0.035,1.189,0c1.758-0.068,3.24-0.585,4.308-1.567
	c1.207-1.12,1.947-2.81,1.947-5.153c0-2.62-1.361-4.826-4.238-4.826c-2.465,0-4.223,1.846-4.223,4.033
	c0,2.188,1.585,3.498,3.48,3.498c1.034,0,1.759-0.292,2.275-0.809l0.035,0.017c-0.19,0.844-0.672,1.585-1.414,2.068
	c-0.604,0.413-1.412,0.655-2.223,0.688c-0.518,0.035-0.793,0.052-1.138,0V320.676z M207.378,320.521h2.533v-11.202h-2.155
	l-2.98,1.379l0.431,1.964l2.137-1.016h0.035V320.521z M193.092,315.886l0.017-0.034l1.482-2.448
	c0.379-0.706,0.688-1.361,1.051-2.085h0.051c-0.033,0.724-0.068,1.413-0.068,2.085v2.482H193.092z M198.106,320.521v-2.672h1.326
	v-1.964h-1.326v-6.566h-3.224l-4.222,6.825v1.705h4.963v2.672H198.106z M183.526,315.886l0.018-0.034l1.481-2.448
	c0.38-0.706,0.69-1.361,1.051-2.085h0.053c-0.034,0.724-0.069,1.413-0.069,2.085v2.482H183.526z M188.541,320.521v-2.672h1.327
	v-1.964h-1.327l-0.001-6.566h-3.222l-4.222,6.825v1.705h4.963v2.672H188.541z M173.962,315.886l0.018-0.034l1.482-2.448
	c0.379-0.706,0.689-1.361,1.051-2.085h0.052c-0.035,0.724-0.069,1.413-0.069,2.085v2.482H173.962z M178.977,320.521v-2.672h1.327
	v-1.964h-1.327v-6.566h-3.222l-4.223,6.825v1.705h4.963v2.672H178.977z"/>
<rect x="-266.217" y="-194.502" fill="none" width="841.89" height="1019.554"/>
</svg>
