<?xml version="1.0" encoding="UTF-8" standalone="no"?>
<!-- Created with Inkscape (http://www.inkscape.org/) -->

<svg
   xmlns:dc="http://purl.org/dc/elements/1.1/"
   xmlns:cc="http://creativecommons.org/ns#"
   xmlns:rdf="http://www.w3.org/1999/02/22-rdf-syntax-ns#"
   xmlns:svg="http://www.w3.org/2000/svg"
   xmlns="http://www.w3.org/2000/svg"
   xmlns:sodipodi="http://sodipodi.sourceforge.net/DTD/sodipodi-0.dtd"
   xmlns:inkscape="http://www.inkscape.org/namespaces/inkscape"
   width="522.59418"
   height="271.68045"
   viewBox="0 0 138.26971 71.882121"
   version="1.1"
   id="svg8"
   inkscape:version="0.92.3 (2405546, 2018-03-11)"
   sodipodi:docname="belediye_esenler.svg">
  <defs
     id="defs2">
    <path
       d="m 261.953,102.915 v 42.64 h 21.66 v -8.489 c -0.784,0.368 -1.775,0.553 -2.971,0.553 h -7.13 V 128 h 7.07 c 1.153,0 2.164,0.276 3.031,0.839 V 119 c -0.667,0.48 -1.489,0.721 -2.472,0.721 h -7.629 v -8.88 h 7.301 c 1.111,0 2.049,0.269 2.8,0.808 v -8.735 h -21.66 z"
       id="SVGID_1_"
       inkscape:connector-curvature="0" />
    <rect
       height="43.200001"
       width="22.08"
       y="102.603"
       x="261.772"
       id="SVGID_3_" />
    <path
       d="m 104.326,106.738 -71.981,18.624 c -0.038,0 -23.773,-2.521 -31.955,-4.32 -0.048,5.684 -0.534,7.189 0.963,18.56 h 4.605 c 0,-0.454 -0.029,-1.021 -0.029,-1.483 1.834,-11.98 9.276,-11.58 10.938,0 0,0.463 -0.034,0.993 -0.099,1.483 h 28.865 c 0,-0.396 0.07,-0.801 0.07,-1.1 1.174,-12.009 8.238,-11.686 9.102,0 v 1.1 l 7.979,-0.026 c 0,-0.528 -0.063,-1.073 -0.063,-1.58 0.547,-16.123 11.253,-16.624 12.171,0 0,0.507 -0.026,1.021 -0.062,1.548 h 8.906 c -0.024,-0.713 -0.094,-1.425 -0.094,-2.073 0,-20.456 13.966,-20.498 13.966,0 0,0.648 0,1.331 -0.065,2.047 h 12.854 c 0.192,0.026 0.163,-0.128 0.163,-0.21 -0.04,-1.123 -0.072,-2.303 -0.072,-3.324 0,-30.587 23.731,-30.587 23.731,0 0,1.021 -0.032,2.201 -0.065,3.324 0,0.082 -0.04,0.236 0.162,0.21 h 12.839 c -0.059,-0.716 -0.059,-1.398 -0.059,-2.047 0,-20.498 13.964,-20.456 13.964,0 0,0.648 -0.06,1.36 -0.098,2.073 h 8.921 c -0.037,-0.527 -0.067,-1.041 -0.067,-1.548 0.921,-16.624 11.623,-16.123 12.174,0 0,0.507 -0.063,1.052 -0.063,1.58 l 7.974,0.026 v -1.1 c 0.867,-11.686 7.93,-12.009 9.102,0 0,0.299 0.063,0.704 0.063,1.1 h 28.87 c -0.061,-0.49 -0.09,-1.021 -0.09,-1.483 1.656,-11.58 9.099,-11.98 10.93,0 0,0.463 -0.029,1.029 -0.029,1.483 h 4.607 c 1.496,-11.371 1.002,-12.875 0.965,-18.56 -8.184,1.799 -31.927,4.32 -31.955,4.32 l -71.983,-18.624 c -3.516,-2.705 -10.773,-4.058 -18.029,-4.058 -7.256,0 -14.511,1.353 -18.026,4.058"
       id="SVGID_5_"
       inkscape:connector-curvature="0" />
    <rect
       height="36.928001"
       width="244.15199"
       y="102.674"
       x="0.27700001"
       id="SVGID_7_" />
    <path
       d="m 1.353,139.602 h 4.605 c 0,-0.454 -0.029,-1.021 -0.029,-1.483 1.834,-11.98 9.276,-11.58 10.938,0 0,0.463 -0.034,0.993 -0.099,1.483 H 31.667 V 125.29 c -3.932,-0.423 -23.91,-2.628 -31.277,-4.248 -0.048,5.685 -0.534,7.189 0.963,18.56"
       id="SVGID_9_"
       inkscape:connector-curvature="0" />
    <rect
       height="31.391001"
       width="31.391001"
       y="108.211"
       x="0.27700001"
       id="SVGID_11_" />
    <path
       d="m 32.345,125.362 c -0.003,0 -0.242,-0.025 -0.676,-0.072 v 14.312 h 13.964 c 0,-0.396 0.07,-0.801 0.07,-1.1 1.174,-12.009 8.238,-11.686 9.102,0 v 1.1 l 7.979,-0.026 c 0,-0.528 -0.063,-1.073 -0.063,-1.58 0.046,-1.342 0.162,-2.578 0.337,-3.703 v -16.876 z"
       id="SVGID_13_"
       inkscape:connector-curvature="0" />
    <rect
       height="31.391001"
       width="31.391001"
       y="108.211"
       x="31.669001"
       id="SVGID_15_" />
    <path
       d="m 63.058,117.417 v 16.876 c 1.925,-12.386 10.992,-11.537 11.834,3.703 0,0.507 -0.026,1.021 -0.062,1.548 h 8.906 c -0.024,-0.713 -0.094,-1.425 -0.094,-2.073 0,-14.154 6.687,-18.534 10.807,-13.099 v -15.077 z"
       id="SVGID_17_"
       inkscape:connector-curvature="0" />
    <rect
       height="31.391001"
       width="31.391001"
       y="108.211"
       x="63.057999"
       id="SVGID_19_" />
    <path
       d="m 104.326,106.738 -5.705,1.476 h 6.817 v -2.217 c -0.403,0.234 -0.774,0.482 -1.112,0.741"
       id="SVGID_21_"
       inkscape:connector-curvature="0" />
    <rect
       height="31.391001"
       width="31.391001"
       y="76.823997"
       x="74.046997"
       id="SVGID_23_" />
    <path
       d="m 98.621,108.214 -4.171,1.08 v 15.078 c 1.833,2.42 3.158,6.785 3.158,13.098 0,0.648 0,1.331 -0.065,2.047 h 12.854 c 0.192,0.026 0.163,-0.128 0.163,-0.21 -0.04,-1.123 -0.072,-2.303 -0.072,-3.324 0,-18.328 8.521,-25.673 15.35,-22.039 v -5.73 H 98.621 Z"
       id="SVGID_25_"
       inkscape:connector-curvature="0" />
    <rect
       height="31.391001"
       width="31.391001"
       y="108.211"
       x="94.448997"
       id="SVGID_27_" />
    <path
       d="m 105.438,105.998 v 2.217 h 31.384 v -3.359 c -3.844,-1.45 -9.157,-2.175 -14.47,-2.175 -6.56,-10e-4 -13.12,1.105 -16.914,3.317"
       id="SVGID_29_"
       inkscape:connector-curvature="0" />
    <rect
       height="31.391001"
       width="31.391001"
       y="76.823997"
       x="105.438"
       id="SVGID_31_" />
    <path
       d="m 125.838,108.214 v 5.73 c 4.568,2.433 8.381,9.778 8.381,22.039 0,1.021 -0.032,2.201 -0.065,3.324 0,0.082 -0.04,0.236 0.162,0.21 h 12.839 c -0.059,-0.716 -0.059,-1.398 -0.059,-2.047 0,-13.435 5.999,-18.046 10.133,-13.87 v -12.503 l -11.143,-2.883 h -20.248 z"
       id="SVGID_33_"
       inkscape:connector-curvature="0" />
    <rect
       height="31.391001"
       width="31.391001"
       y="108.211"
       x="125.838"
       id="SVGID_35_" />
    <path
       d="m 136.822,108.214 h 9.264 l -5.705,-1.476 c -0.941,-0.724 -2.152,-1.352 -3.559,-1.883 z"
       id="SVGID_37_"
       inkscape:connector-curvature="0" />
    <rect
       height="31.391001"
       width="31.391001"
       y="76.823997"
       x="136.823"
       id="SVGID_39_" />
    <path
       d="m 157.23,123.602 c 2.174,2.197 3.83,6.822 3.83,13.869 0,0.648 -0.06,1.36 -0.098,2.073 h 8.921 c -0.037,-0.527 -0.067,-1.041 -0.067,-1.548 0.921,-16.624 11.623,-16.123 12.174,0 0,0.507 -0.063,1.052 -0.063,1.58 l 6.694,0.021 v -20.378 l -31.391,-8.121 z"
       id="SVGID_41_"
       inkscape:connector-curvature="0" />
    <rect
       height="31.391001"
       width="31.391001"
       y="108.211"
       x="157.23"
       id="SVGID_43_" />
    <path
       d="m 188.623,139.597 1.278,0.005 v -1.1 c 0.867,-11.686 7.93,-12.009 9.102,0 0,0.299 0.063,0.704 0.063,1.1 h 20.947 v -15.096 c -4.446,0.517 -7.639,0.856 -7.649,0.856 l -23.741,-6.143 z"
       id="SVGID_45_"
       inkscape:connector-curvature="0" />
    <rect
       height="31.391001"
       width="31.391001"
       y="108.211"
       x="188.623"
       id="SVGID_47_" />
    <path
       d="m 220.013,124.506 v 15.096 h 7.923 c -0.061,-0.49 -0.09,-1.021 -0.09,-1.483 1.656,-11.58 9.099,-11.98 10.93,0 0,0.463 -0.029,1.029 -0.029,1.483 h 4.607 c 1.496,-11.371 1.002,-12.875 0.965,-18.56 -5.185,1.141 -16.618,2.569 -24.306,3.464"
       id="SVGID_49_"
       inkscape:connector-curvature="0" />
    <rect
       height="31.391001"
       width="31.391001"
       y="108.211"
       x="220.013"
       id="SVGID_51_" />
  </defs>
  <sodipodi:namedview
     id="base"
     pagecolor="#ffffff"
     bordercolor="#666666"
     borderopacity="1.0"
     inkscape:pageopacity="0.0"
     inkscape:pageshadow="2"
     inkscape:zoom="0.98994949"
     inkscape:cx="378.14782"
     inkscape:cy="41.006466"
     inkscape:document-units="px"
     inkscape:current-layer="layer1"
     showgrid="false"
     units="px"
     showborder="false"
     inkscape:window-width="1920"
     inkscape:window-height="1017"
     inkscape:window-x="-8"
     inkscape:window-y="-8"
     inkscape:window-maximized="1"
     fit-margin-top="0"
     fit-margin-left="0"
     fit-margin-right="0"
     fit-margin-bottom="0" />
  <metadata
     id="metadata5">
    <rdf:RDF>
      <cc:Work
         rdf:about="">
        <dc:format>image/svg+xml</dc:format>
        <dc:type
           rdf:resource="http://purl.org/dc/dcmitype/StillImage" />
        <dc:title></dc:title>
      </cc:Work>
    </rdf:RDF>
  </metadata>
  <g
     inkscape:label="Layer 1"
     inkscape:groupmode="layer"
     id="layer1"
     transform="translate(520.41945,-91.183932)">
    <path
       d="m -491.6248,156.43595 c 0.48573,-7.06451 -0.13194,-15.44029 -0.11781,-22.66897 0.0243,-12.33694 -8.8342,-14.64493 -15.4268,-18.38598 -5.24002,-2.97333 -8.38896,-6.47176 -10.44019,-12.11892 -0.92668,-2.55093 -2.14461,-8.479788 -2.64287,-9.121111 -0.36743,5.777679 -0.33457,26.582791 2.29068,31.767701 4.0912,8.07982 13.42318,11.59571 18.362,15.51794 3.89459,3.09288 6.20594,8.88312 7.50419,13.74982 z"
       style="fill:#0f7bbf;fill-rule:evenodd;stroke-width:0.26458332"
       id="path1789"
       inkscape:connector-curvature="0" />
    <path
       d="m -497.31133,150.96775 c -4.16266,-9.60067 -9.84871,-7.99264 -19.18771,-17.38386 l -3.41109,-3.78727 c -0.77615,1.57821 1.40655,10.00685 2.10029,12.13543 1.17234,3.59672 2.69973,7.02797 4.6641,10.07067 3.70136,5.73292 11.44564,12.12813 18.36153,10.9134 0.28742,-3.53877 -1.29477,-9.10605 -2.52712,-11.94837 z"
       style="fill:#0f7bbf;fill-rule:evenodd;stroke-width:0.26458332"
       id="path1791"
       inkscape:connector-curvature="0" />
    <path
       d="m -500.86518,91.416316 c -4.02021,0.680085 -10.05846,3.997642 -7.15375,8.936144 1.94913,3.31343 7.79637,4.97689 12.83885,4.0718 3.80759,-0.68357 9.85729,-3.87127 7.19709,-8.738442 -1.85878,-3.400954 -7.5688,-5.168106 -12.88219,-4.269502 z"
       style="fill:#f69824;fill-rule:evenodd;stroke-width:0.26458332"
       id="path1793"
       inkscape:connector-curvature="0" />
    <path
       d="m -489.63534,130.15819 0.60388,-1.03134 c 0.18259,-0.44794 0.26057,-0.86572 0.38124,-1.24013 2.55254,-7.91435 7.15804,-8.33784 11.00675,-11.26892 2.63019,-2.00311 3.39952,-4.31588 3.68517,-8.93678 0.20055,-3.2431 0.60833,-9.455229 0.12991,-12.503969 -0.24233,3.100043 -1.72731,7.043709 -3.29346,9.054759 -1.90449,2.44599 -4.38208,3.26421 -7.53229,5.0933 -2.55061,1.48104 -4.77636,3.79521 -4.8451,7.76063 -0.0751,4.33747 0.0245,8.74149 -0.1361,13.07245 z"
       style="fill:#f69824;fill-rule:evenodd;stroke-width:0.26458332"
       id="path1795"
       inkscape:connector-curvature="0" />
    <path
       d="m -472.38125,134.22209 h -5.37676 v -3.94674 h 5.65605 v -2.90272 h -10.22977 v 17.16196 h 10.64879 v -2.90279 h -6.07507 v -4.63418 h 5.37676 z m 2.61855,9.77776 c 0.76814,0.33104 2.61861,0.68751 4.5039,0.68751 4.60875,0 7.78589,-2.0625 7.78589,-5.19443 0,-1.80787 -1.15215,-3.53933 -4.25955,-4.91429 -2.54873,-1.12043 -3.24697,-1.6551 -3.24697,-2.67361 0,-0.91673 0.94269,-1.78245 2.89785,-1.78245 1.32667,0 2.33926,0.28014 3.0027,0.58568 l 0.73311,-2.87729 c -0.69831,-0.30556 -2.16463,-0.61111 -3.70086,-0.61111 -4.92286,0 -7.43669,2.29161 -7.43669,5.04164 0,1.55318 1.22197,3.36105 4.43407,4.78703 1.99011,0.94207 3.03749,1.55318 3.03749,2.80088 0,1.12035 -1.04738,1.93516 -3.21201,1.93516 -1.32675,0 -2.93288,-0.28006 -3.87549,-0.66204 z m 24.89377,-9.77776 h -5.37683 v -3.94674 h 5.65613 v -2.90272 h -10.22985 v 17.16196 h 10.64879 v -2.90279 h -6.07507 v -4.63418 h 5.37683 z m 7.82069,10.3125 v -3.87037 c 0,-3.4375 -0.17452,-6.08558 -0.27929,-7.81712 h 0.0698 c 0.5238,1.55327 1.60613,3.71761 2.37429,5.16901 l 3.59609,6.51848 h 4.18965 v -17.16196 h -4.01514 v 3.79394 c 0,3.15736 0.31428,6.13659 0.45392,7.94438 h -0.0698 c -0.66339,-1.47682 -1.81546,-3.6921 -2.51386,-5.01615 l -3.63098,-6.72217 h -4.18973 v 17.16196 z m 14.00064,0 h 10.61392 v -2.82638 h -6.0402 v -14.33558 h -4.57372 z m 23.21782,-10.3125 h -5.37676 v -3.94674 h 5.65613 v -2.90272 h -10.22985 v 17.16196 h 10.6488 v -2.90279 h -6.07508 v -4.63418 h 5.37676 z m 3.80564,10.3125 h 4.57374 v -6.84953 h 0.66344 c 1.53615,0 2.26944,0.61111 2.68838,2.75003 0.34912,1.88423 0.87284,3.61566 1.15221,4.0995 h 4.78322 c -0.41894,-0.63661 -1.04746,-2.75002 -1.50135,-4.65968 -0.4539,-1.83338 -1.25693,-2.92822 -2.8629,-3.38661 v -0.0509 c 2.409,-0.81482 3.63098,-2.46992 3.63098,-4.30321 0,-1.47683 -0.41897,-2.62269 -1.8505,-3.56481 -1.53614,-1.01852 -3.7706,-1.27313 -6.28438,-1.27313 -1.74577,0 -3.56132,0.12735 -4.99284,0.33105 z m 4.57374,-14.53927 c 0.2445,-0.0764 0.6984,-0.10187 1.08239,-0.10187 2.05996,0.0509 2.86297,1.09485 2.86297,2.54627 0,1.50231 -1.15215,2.67359 -3.14227,2.67359 h -0.80309 z"
       style="fill:#6e6f70;fill-rule:evenodd;stroke-width:0.26458332"
       id="path1797"
       inkscape:connector-curvature="0" />
    <path
       d="m -482.37102,162.82093 c 0.8151,0.0783 1.95614,0.13695 3.31446,0.13695 3.06991,0 4.91731,-0.46951 6.00398,-1.33036 0.86931,-0.64558 1.3584,-1.4868 1.3584,-2.58238 0,-1.44772 -1.14105,-2.71936 -3.26001,-3.14979 v -0.0782 c 1.82017,-0.56737 2.66234,-1.70206 2.66234,-2.87589 0,-0.91948 -0.40756,-1.7999 -1.38549,-2.38678 -1.27685,-0.78255 -2.93415,-0.93908 -4.64571,-0.93908 -1.54845,0 -2.9613,0.0782 -4.04797,0.25432 z m 3.55896,-11.21003 c 0.21744,-0.0587 0.54338,-0.0783 0.92372,-0.0783 1.46706,0 2.09187,0.74348 2.09187,1.70204 0,1.07603 -0.97798,1.85859 -2.25486,1.85859 h -0.76073 z m 0,5.38007 h 0.76073 c 1.41269,0.0196 2.66235,0.70424 2.66235,2.01501 0,1.34993 -1.19529,1.97596 -2.63512,1.97596 -0.3261,0 -0.57052,0 -0.78796,-0.0391 z m 17.30566,-2.05426 h -4.18373 v -3.03241 h 4.40108 v -2.23025 h -7.96012 v 13.18604 h 8.28614 v -2.23028 h -4.7271 v -3.56063 h 4.18373 z m 2.96121,7.92338 h 8.25895 v -2.17155 h -4.69996 v -11.01449 h -3.55899 z m 18.06631,-7.92338 h -4.1838 v -3.03241 h 4.40116 v -2.23025 h -7.96013 v 13.18604 h 8.28614 v -2.23028 h -4.72717 v -3.56063 h 4.1838 z m 2.96114,7.88422 c 0.70636,0.0587 1.82025,0.13695 2.93415,0.13695 2.55368,0 4.37393,-0.41085 5.59652,-1.27162 1.6029,-1.01729 2.55373,-2.91502 2.55373,-5.57572 0,-2.56283 -0.81502,-4.30403 -2.3907,-5.32133 -1.16826,-0.78256 -2.77108,-1.17382 -5.08034,-1.17382 -1.41277,0 -2.7168,0.0978 -3.61336,0.25432 z m 3.55907,-11.09263 c 0.21735,-0.0587 0.46177,-0.0587 0.70628,-0.0587 2.14619,0 3.12425,1.64341 3.12425,4.34319 0,3.63884 -1.49421,4.85182 -3.2058,4.85182 -0.19018,0 -0.46178,0 -0.62473,-0.0392 z m 13.20337,11.13179 v -9.5667 h -3.55899 v 9.5667 z m -1.82018,-13.49902 c -0.97808,0 -1.8474,0.52821 -1.82025,1.38898 -0.0272,0.82172 0.78779,1.38909 1.76588,1.38909 1.08667,0 1.90161,-0.56737 1.87455,-1.38909 0,-0.86077 -0.78788,-1.38898 -1.82018,-1.38898 z m 10.24207,13.49902 v -5.1453 l 4.10229,-8.04074 h -3.6948 l -1.0867,3.09112 c -0.32602,0.93906 -0.62481,1.89765 -0.84217,2.85629 h -0.0544 c -0.27165,-0.97814 -0.62481,-1.95639 -0.95078,-2.79765 l -1.24978,-3.14976 h -3.80342 l 4.02077,8.13853 v 5.04751 z m 13.06756,-7.92338 h -4.1838 v -3.03241 h 4.40113 v -2.23025 h -7.96012 v 13.18604 h 8.28609 v -2.23028 h -4.7271 v -3.56063 h 4.1838 z m 2.03745,7.51253 c 0.59767,0.25432 2.03759,0.52821 3.5046,0.52821 3.58618,0 6.05835,-1.58466 6.05835,-3.99097 0,-1.38906 -0.89649,-2.71941 -3.31441,-3.77587 -1.98321,-0.86077 -2.52659,-1.27161 -2.52659,-2.05417 0,-0.70432 0.73356,-1.36951 2.25494,-1.36951 1.0323,0 1.82025,0.21526 2.3364,0.45 l 0.57052,-2.2107 c -0.54337,-0.23474 -1.68441,-0.46958 -2.87985,-0.46958 -3.83046,0 -5.78663,1.76078 -5.78663,3.87369 0,1.1934 0.95086,2.58241 3.45025,3.678 1.54858,0.72382 2.3636,1.1934 2.3636,2.15198 0,0.86085 -0.81502,1.48686 -2.49936,1.48686 -1.03238,0 -2.28203,-0.21516 -3.01561,-0.50864 z m 15.078,0.41085 v -9.5667 h -3.55899 v 9.5667 z m -1.82025,-13.49902 c -0.97809,0 -1.8474,0.52821 -1.82018,1.38898 -0.0272,0.82172 0.7878,1.38909 1.7658,1.38909 1.08675,0 1.9017,-0.56737 1.87463,-1.38909 0,-0.86077 -0.78788,-1.38898 -1.82025,-1.38898 z"
       style="fill:#6e6f70;fill-rule:evenodd;stroke-width:0.26458332"
       id="path1799"
       inkscape:connector-curvature="0" />
  </g>
</svg>
