<?xml version="1.0" encoding="utf-8"?>
<!-- Generator: Adobe Illustrator 16.0.0, SVG Export Plug-In . SVG Version: 6.00 Build 0)  -->
<!DOCTYPE svg PUBLIC "-//W3C//DTD SVG 1.1//EN" "http://www.w3.org/Graphics/SVG/1.1/DTD/svg11.dtd">
<svg version="1.1" id="Layer_1" xmlns="http://www.w3.org/2000/svg" xmlns:xlink="http://www.w3.org/1999/xlink" x="0px" y="0px"
	 width="171.968px" height="183.033px" viewBox="0 0 171.968 183.033" enable-background="new 0 0 171.968 183.033"
	 xml:space="preserve">
<path fill-rule="evenodd" clip-rule="evenodd" fill="#1D1D1B" d="M4.664,47.637l-1.663,3l-3-1.663l1.663-3L4.664,47.637z
	 M2.954,43.646l1.663-3l3,1.663l-1.663,3L2.954,43.646z M14.543,61.228L3.007,54.833l2.007-3.621l10.423,5.778
	c3.397,1.883,5.789,1.574,7.175-0.927c1.386-2.5,0.38-4.691-3.017-6.574L9.172,43.711l2.007-3.621l11.536,6.395
	c4.553,2.523,5.466,6.242,2.742,11.156S19.096,63.751,14.543,61.228z"/>
<polygon fill-rule="evenodd" clip-rule="evenodd" fill="#1D1D1B" points="33.957,43.715 20.966,27.674 26.115,23.505 39.775,32.573 
	39.821,32.536 33.791,17.289 38.938,13.12 51.93,29.161 48.85,31.655 38.13,18.418 38.084,18.455 44.482,35.191 41.403,37.686 
	26.363,27.946 26.354,28.029 37.037,41.222 "/>
<path fill-rule="evenodd" clip-rule="evenodd" fill="#1D1D1B" d="M59.108,26.378L52.729,6.747l4.246-1.381
	c3.02-0.98,5.158-1.447,6.417-1.4c2.263,0.073,3.784,1.31,4.564,3.71c0.384,1.182,0.347,2.313-0.11,3.395
	c-0.457,1.081-1.277,1.907-2.459,2.478l0.018,0.057c0.887-0.205,1.8,0.244,2.739,1.349l5.645,6.654l-4.387,1.426l-4.354-5.363
	c-0.55-0.672-1.036-1.084-1.46-1.236c-0.497-0.191-1.139-0.158-1.927,0.098l-1.266,0.411l2.65,8.156L59.108,26.378z M57.672,8.561
	l1.719,5.288l1.293-0.421c2.775-0.901,3.867-2.262,3.276-4.08c-0.341-1.051-1.025-1.626-2.054-1.727
	c-0.686-0.068-1.665,0.105-2.94,0.52L57.672,8.561z"/>
<path fill-rule="evenodd" clip-rule="evenodd" fill="#1D1D1B" d="M77.689,20.86l7.682-20.779L90.043,0l8.463,20.497l-4.583,0.08
	l-1.857-4.7l-8.367,0.146l-1.722,4.762L77.689,20.86z M90.855,12.645l-3.135-8.464l-0.06,0.001l-2.837,8.568L90.855,12.645z"/>
<polygon fill-rule="evenodd" clip-rule="evenodd" fill="#1D1D1B" points="103.507,21.92 110.228,2.402 115.036,4.059 
	117.449,21.216 117.505,21.235 122.53,6.64 126.277,7.93 119.558,27.446 114.775,25.8 112.335,8.634 112.279,8.614 107.254,23.21 
	"/>
<path fill-rule="evenodd" clip-rule="evenodd" fill="#1D1D1B" d="M134.288,16.973l2.062-3.175l3.323,2.158l-2.062,3.175
	L134.288,16.973z M125.128,31.104l8.171-12.592l3.324,2.158l-8.171,12.593L125.128,31.104z"/>
<polygon fill-rule="evenodd" clip-rule="evenodd" fill="#1D1D1B" points="137.816,41.041 143.688,35.372 147.427,21.277 
	150.796,24.767 147.952,34.296 157.637,31.851 160.677,34.999 146.563,38.35 140.692,44.02 "/>
<polygon fill-rule="evenodd" clip-rule="evenodd" fill="#1D1D1B" points="148.021,52.625 166.248,42.935 171.968,53.692 
	169.096,55.22 165.319,48.117 160.827,50.506 164.284,57.007 161.412,58.534 157.956,52.032 152.838,54.754 156.642,61.908 
	153.77,63.436 "/>
<path fill-rule="evenodd" clip-rule="evenodd" fill="#1D1D1B" d="M23.264,124.09l-5.637,2.997l0.768,1.443
	c0.823,1.549,1.557,2.566,2.201,3.053c0.909,0.693,1.979,0.712,3.212,0.057c1.803-0.959,2.11-2.559,0.919-4.798L23.264,124.09z
	 M15.485,128.227l-6.156,3.272l1.043,1.962c1.583,2.977,3.358,3.941,5.328,2.895c2.134-1.135,2.362-3.281,0.684-6.438
	L15.485,128.227z M5.796,130.022l18.219-9.687l2.626,4.938c2.27,4.269,1.871,7.219-1.196,8.85c-2.254,1.198-4.365,0.711-6.332-1.464
	l-0.045,0.023c0.566,1.318,0.667,2.577,0.3,3.774s-1.18,2.132-2.443,2.803c-3.232,1.719-6.078,0.263-8.54-4.367L5.796,130.022z"/>
<polygon fill-rule="evenodd" clip-rule="evenodd" fill="#1D1D1B" points="19.344,151.643 34.187,137.309 42.223,145.631 
	40.349,147.44 34.371,141.25 30.035,145.437 35.481,151.076 33.607,152.886 28.161,147.246 23.275,151.965 29.253,158.155 
	27.38,159.965 "/>
<polygon fill-rule="evenodd" clip-rule="evenodd" fill="#1D1D1B" points="36.071,166.825 47.006,149.326 49.519,150.896 
	39.964,166.187 47.284,170.761 45.904,172.97 "/>
<polygon fill-rule="evenodd" clip-rule="evenodd" fill="#1D1D1B" points="54.79,176.965 61.167,157.341 72.169,160.915 
	71.364,163.393 63.179,160.733 61.316,166.465 68.773,168.888 67.969,171.365 60.512,168.942 58.412,175.403 66.598,178.063 
	65.793,180.54 "/>
<path fill-rule="evenodd" clip-rule="evenodd" fill="#1D1D1B" d="M81.048,164.948l-0.269,15.423l3.115,0.055
	c5.26,0.092,7.935-2.45,8.025-7.625c0.04-2.314-0.617-4.182-1.972-5.602c-1.337-1.42-3.155-2.15-5.453-2.19L81.048,164.948z
	 M77.771,182.924l0.36-20.632l6.103,0.107c3.166,0.055,5.747,0.985,7.741,2.791c2.096,1.91,3.116,4.423,3.062,7.537
	c-0.06,3.422-1.084,6.026-3.073,7.813c-1.955,1.72-4.651,2.55-8.09,2.489L77.771,182.924z"/>
<path fill-rule="evenodd" clip-rule="evenodd" fill="#1D1D1B" d="M100.875,161.122l2.698-0.573l0.567,2.673l-2.697,0.574
	L100.875,161.122z M105.165,181.339l-3.139-14.763l2.698-0.573l3.139,14.763L105.165,181.339z"/>
<polygon fill-rule="evenodd" clip-rule="evenodd" fill="#1D1D1B" points="124.003,175.396 120.355,167.573 107.968,160.105 
	111.093,158.648 120.578,164.427 122.109,153.512 125.258,152.043 123.04,166.321 126.688,174.145 "/>
<polygon fill-rule="evenodd" clip-rule="evenodd" fill="#1D1D1B" points="142.705,164.424 128.897,149.09 137.495,141.349 
	139.238,143.284 132.843,149.043 136.875,153.522 142.702,148.275 144.445,150.212 138.618,155.458 143.164,160.506 149.56,154.748 
	151.303,156.684 "/>
<path fill-rule="evenodd" clip-rule="evenodd" fill="#1D1D1B" d="M147.434,129.093l1.983,1.888c-1.3,0.877-2.272,1.775-2.917,2.696
	c-1.377,1.966-1.319,3.472,0.173,4.517c0.865,0.605,2.071,0.516,3.62-0.271c2.729-1.373,4.185-2.089,4.37-2.146
	c1.852-0.596,3.579-0.331,5.183,0.792c1.729,1.21,2.599,2.744,2.608,4.601c0.001,1.602-0.634,3.308-1.902,5.121
	c-0.606,0.864-1.648,1.849-3.128,2.953l-2.078-1.797c1.481-0.958,2.574-1.939,3.277-2.943c0.625-0.893,0.927-1.813,0.906-2.764
	c-0.028-1.059-0.475-1.891-1.339-2.496c-1.046-0.732-2.35-0.71-3.912,0.066c-0.951,0.498-2.381,1.232-4.287,2.205
	c-1.781,0.644-3.411,0.448-4.89-0.587c-1.506-1.055-2.29-2.414-2.351-4.078c-0.046-1.508,0.473-3.035,1.557-4.583
	C145.187,131.011,146.229,129.953,147.434,129.093z"/>
<path fill-rule="evenodd" clip-rule="evenodd" fill="#1D1D1B" d="M149.864,123.297l1.165-2.5l2.478,1.155l-1.166,2.5
	L149.864,123.297z M168.59,132.036l-13.679-6.379l1.166-2.5l13.679,6.379L168.59,132.036z"/>
<path fill="#E20D40" d="M71.79,137.115c0,7.701,5.59,14.096,12.935,15.349V47.232c0-7.701-5.59-14.096-12.935-15.349V137.115z"/>
<path fill="#E20D40" d="M103.762,137.115c0,7.701-5.59,14.096-12.934,15.349V47.232c0-7.701,5.59-14.096,12.934-15.349V137.115z"/>
<path fill="#E20D40" d="M52.753,63.035c7.344,1.253,12.934,7.647,12.934,15.349v51.831c-7.844-6.222-12.842-15.67-12.842-26.25
	C52.845,103.432,52.753,63.035,52.753,63.035z"/>
<path fill="#E20D40" d="M122.8,63.572c-7.344,1.252-12.934,7.647-12.934,15.349v51.83c7.844-6.222,12.841-15.67,12.841-26.249
	C122.707,103.969,122.8,63.572,122.8,63.572z"/>
</svg>
