<?xml version="1.0" encoding="utf-8"?>
<!-- Generator: Adobe Illustrator 16.0.0, SVG Export Plug-In . SVG Version: 6.00 Build 0)  -->
<!DOCTYPE svg PUBLIC "-//W3C//DTD SVG 1.1//EN" "http://www.w3.org/Graphics/SVG/1.1/DTD/svg11.dtd">
<svg version="1.1" id="Layer_1" xmlns="http://www.w3.org/2000/svg" xmlns:xlink="http://www.w3.org/1999/xlink" x="0px" y="0px"
	 width="263.88px" height="232.325px" viewBox="0.003 0 263.88 232.325" enable-background="new 0.003 0 263.88 232.325"
	 xml:space="preserve">
<g>
	<path fill="#FFFFFF" d="M233.042,99.932c0,55.194-46.295,99.933-103.398,99.933c-57.109,0-103.398-44.738-103.398-99.933
		S72.534,0,129.643,0C186.749,0,233.042,44.738,233.042,99.932z"/>
	<g>
		<g>
			<polygon fill="#52AE32" points="31.353,98.478 86.792,98.478 86.792,94.012 32.516,85.623 			"/>
			<polygon fill="#52AE32" points="36.928,68.564 43.167,55.709 91.965,81.089 88.725,86.475 			"/>
			<polygon fill="#52AE32" points="53.671,40.152 64.837,28.508 101.245,68.564 96.096,74.153 			"/>
			<polygon fill="#52AE32" points="80.466,17.794 95.538,10.859 114.666,60.737 108.171,63.982 			"/>
			<polygon fill="#52AE32" points="130.151,58.276 123.001,58.606 112.966,5.811 130.04,4.475 			"/>
			<polygon fill="#52AE32" points="149.467,6.5 138.97,59.468 146.495,61.628 166.67,11.41 			"/>
			<polygon fill="#52AE32" points="153.663,64.912 183.792,19.674 197.586,30.01 159.484,69.639 			"/>
			<polygon fill="#52AE32" points="165.075,75.433 208.547,42.07 217.529,55.777 168.847,80.488 			"/>
			<polygon fill="#52AE32" points="171.443,86.737 223.622,68.254 226.456,78.803 172.62,90.641 			"/>
			<polygon fill="#52AE32" points="173.52,95.523 228.281,89.1 229.138,100.395 173.739,100.502 			"/>
			<path fill="#213A8F" d="M32.118,108.949h2.375c0,0,5.701,3.564,11.629,2.741c5.933-0.842,13.402-3.217,14.71-4.873
				c0,0,10.321,6.181,17.916,5.23c7.59-0.958,14.472-4.281,15.537-5.114c0,0,9.848,6.422,18.866,5.337
				c9.02-1.065,14.772-3.226,16.551-4.66c0,0,9.919,5.182,18.884,5.182c8.972,0,16.465-4.601,17.535-5.474
				c1.064-0.88,7.879,5.261,18.69,5.261s15.479-4,16.254-5.173c0,0,6.04,5.066,14.114,5.066c8.08,0,13.229-3.701,13.621-4.862
				c0,0-0.389,18.144-16.059,18.144c-6.103,0-9.449-3.846-11.031-5.492c-0.823-1.036-1.938,0-1.938,0s-9.323,6.654-18.177,6.654
				c-8.85,0-14.23-6.539-14.23-6.539s-0.709-0.861-1.811,0.011c-2.471,1.657-10.07,6.141-19.6,6.141
				c-6.248,0-12.854-4.106-15.33-5.812c-1.226-0.969-1.816,0.01-1.816,0.01c-0.882,0.775-8.146,6.189-15.838,6.189
				c-7.692,0-11.842-2.896-17.209-6.692c-0.585-0.533-1.355-0.708-2.248,0.019c-2.417,1.608-10.975,6.957-17.383,6.957
				c-4.5,0-9.063-2.984-13.716-7.033c-0.373-0.319-1.419-0.494-1.996,0.146c0,0-6.641,6.22-11.794,6.22
				c-5.148,0-15.668-9.281-16.056-11.218C32.182,113.376,32.118,108.949,32.118,108.949z"/>
			<path fill="#213A8F" d="M35.281,126.057c-0.455,0.204,5.818,17.534,8.074,19.237c3.552,2.693,12.322-1.918,16.401-5.328
				c0.557-0.465,1.399-0.717,2.169-0.067c0,0,5.12,6.269,12.651,6.269c6.495,0,14.633-3.865,17.723-5.783
				c1.132-0.91,2.092-1.047,3.017,0.107c0,0,5.318,6.082,15.369,6.082c10.045,0,17.326-5.453,18.246-6.121
				c0,0,1.144-0.728,2.233,0.135c2.722,1.928,9.706,6.258,18.29,6.258c8.5,0,16.729-6.693,16.729-6.693s1.069-1.125,2.437,0.504
				c1.36,1.616,6.983,6.131,13.867,6.131c6.883,0,14.626-4.059,17.067-5.812c1.893-1.347,2.728,2.228,7.842,4.067
				c5.115,1.822,9.396,4.041,13.658-6.471c4.297-10.588,3.623-11.111,3.623-11.111s-1.996,6.035-11.722,4.979
				c-9.721-1.056-11.289-3.604-11.691-3.808c-0.402-0.202-1.157-0.407-2.883,0.504c-1.725,0.92-5.157,3.604-15.291,3.604
				c-10.127,0-13.022-4.021-15.268-4.127c-2.168-0.105-7.152,4.156-20.304,3.963c0,0-8.966-0.746-13.761-3.236
				c-2.586-1.355-3.279-0.309-7.179,0.611c-3.898,0.938-6.766,2.567-15.083,2.567c-8.316,0-13.382-4.118-16.841-4.321
				c-3.4-0.203-3.899,2.307-8.209,3.207c-4.32,0.901-17.02,2.287-20.923-0.406c-3.895-2.692-3.173-3.109-4.825-2.692
				c-1.656,0.416-4.582,3.923-10.252,3.903C41.384,132.169,35.731,125.863,35.281,126.057z"/>
			<path fill="#213A8F" d="M47.947,153.441l7.216,9.271c0,0,3.395-3.778,5.43-4.176c2.039-0.406,5.502,5.262,8.694,5.871
				c3.192,0.602,9.939,1.773,14.865-0.822c4.931-2.596,8.123-5.396,9.188-5.436c1.066-0.039,3.226,1.705,5.038,2.984
				c1.815,1.277,6.742,4.804,14.302,3.98c7.556-0.814,10.254-2.199,13.266-4.049c3.019-1.852,4.293-2.596,5.963-1.531
				c1.671,1.065,6.523,5.291,10.712,5.58c4.188,0.281,7.849,0.61,10.58-0.214c2.731-0.813,8.057-3.021,10.643-5.019
				c2.587-1.985,3.687-1.239,5.172-0.067c1.498,1.173,6.429,5.019,9.552,5.192c3.124,0.175,9.05,0.57,11.106-0.213
				c2.055-0.774,8.021-4.088,9.261-5.23c1.239-1.133,2.131-0.428,2.698,0.251c0.563,0.679,2.301,2.567,3.26,2.597
				c0.964,0.039,5.672-5.938,6.602-7.363c0.922-1.403,1.627-2.547-0.145-3.195c-1.773-0.639-9.717-3.557-10.613-3.758
				c-0.887-0.223-2.973,1.308-3.898,1.771c-0.92,0.465-6.534,2.518-11.707,2.024c-5.178-0.494-8.407-0.668-12.807-1.347
				c-4.396-0.678-4.369-1.918-6.533-1.744c-2.16,0.174-7.547,2.451-9.362,2.664c-1.812,0.213-9.904,0.213-13.593-0.213
				c-3.689-0.426-11.208-2.52-12.127-2.451c-0.925,0.068-2.849,0.281-5.396,1.037c-2.558,0.746-9.12,2.479-15.156,2.054
				c-6.03-0.427-12.055-2.345-13.653-3.158c-1.603-0.813-3.764-0.368-4.862,0.067c-1.105,0.427-11.494,3.943-16.498,3.273
				c-5.008-0.678-10.326-1.994-11.465-2.914c-1.138-0.931-4.04-0.359-5.391,0.105c-1.347,0.465-4.901,2.664-6.46,2.809
				c-1.556,0.137-3.866,1.493-3.866,1.493L47.947,153.441z"/>
			<path fill="#213A8F" d="M60.061,167.865l20.58,15.567c0,0,0.368,0.707,4.417-1.772c4.049-2.47,7.222-4.688,8.728-4.154
				c1.511,0.521,7.696,6.73,13.431,6.73c5.725,0,12.181-0.02,15.712-2.131c3.535-2.111,5.651-4.146,6.975-4.243
				c1.226-0.086,6.368,4.603,8.39,4.863c2.022,0.271,11.285,2.925,16.504,0.804c5.211-2.141,9.879-5.58,11.037-5.58
				c1.147,0,6.084,3.982,8.211,4.688c2.131,0.708,5.481,2.044,11.83-2.47c6.351-4.506,14.832-12.739,14.832-12.739
				s-7.847,4.06-13.324,3.972c-5.482-0.087-12.293-0.999-17.664-3.266c-2.428-1.018-4.896,0.175-6.49,0.572
				c-1.589,0.396-8.916,3.41-15.582,2.877c-6.665-0.535-11.609-1.715-15.055-3.808c-2.653-1.618-4.937,0.261-6.394,0.804
				c-1.463,0.522-7.41,3.137-14.526,2.867c-7.115-0.262-12.283-4.175-17.314-4.175c-4.699,0-11.286,4.911-22.373,3.245
				C64.521,169.396,60.061,167.865,60.061,167.865z"/>
			<path fill="#213A8F" d="M88.278,187.404c0,0,2.383,0.504,3.391-0.203c1.012-0.707,1.981-1.58,5.579,0.098
				c3.594,1.685,11.02,4.717,18.009,3.303c6.989-1.414,10.143-2.287,11.958-3.303c1.812-1.008,2.926-1.812,5.61-0.709
				c2.691,1.115,11.991,5.223,19.784,3.914c7.806-1.316,11.763-3.711,13.067-4.213c1.275-0.485,4.984,1.211,5.757,1.308
				c0.022,0.01,0.048,0.01,0.067,0.01c0.6,0-19.157,8.612-41.264,8.612c-27.376,0-41.96-8.719-41.96-8.719L88.278,187.404
				L88.278,187.404z"/>
			<path fill="#213A8F" d="M92.27,99.814c1.986-19.18,18.173-34.146,37.852-34.146c20.13,0,36.612,14.327,37.974,34.146h-37.974
				H92.27L92.27,99.814z"/>
		</g>
		<path fill="#FFFFFF" d="M164.028,82.407l-0.271,1.482c-6.635,4.166-15.702,1.172-22.893,1.172c-2.184,0-4.242,1.298-6.498,1.046
			c-0.818,0.397-1.58,0.998-2.287,1.56l0.503,2.489c0.653,0.65,4.621,4.175,4.438,4.902c-1.327,1.114-12.337,3.235-14.966,3.196
			l0.27-10.035c-0.323,0.009-0.773,0.338-1.012,0.465c-0.639,0.329-12.351,1.598-14.651,2.131c-5.58,1.317-11.643,4.61-16.987,6.857
			l0.233-4.514c4.262-3.274,15.814-14.346,20.29-14.366l11.198-0.039c-0.252-3.565-0.315-4.349,1.516-7.091
			c1.037-1.56,3.337-1.772,3.574,0.591c0.136,1.356,0.209,3.032,1.046,4.194l1.4,0.358l4.006-1.599
			c4.587-1.917,8.987-2.538,13.171,0.775C150.141,79.19,158.625,83.269,164.028,82.407z"/>
	</g>
	<g>
		<path fill="#213A8F" d="M5.9,120.99l1.478,4.293c-1.415,0.619-2.369,1.413-2.872,2.383c-0.5,0.978-0.586,2.16-0.257,3.525
			c0.348,1.463,0.916,2.48,1.71,3.07c0.789,0.592,1.598,0.796,2.421,0.592c0.528-0.116,0.944-0.389,1.24-0.785
			s0.495-1.018,0.582-1.852c0.058-0.571,0.096-1.859,0.121-3.854c0.02-2.567,0.353-4.446,0.998-5.628
			c0.906-1.666,2.243-2.712,4.016-3.129c1.138-0.271,2.281-0.204,3.429,0.203c1.148,0.406,2.126,1.162,2.935,2.257
			c0.804,1.095,1.415,2.499,1.827,4.213c0.668,2.81,0.557,5.077-0.339,6.792c-0.891,1.713-2.359,2.848-4.398,3.41l-1.274-4.477
			c1.099-0.463,1.831-1.074,2.185-1.84c0.348-0.754,0.377-1.763,0.072-3.031c-0.31-1.317-0.828-2.276-1.541-2.896
			c-0.465-0.396-0.982-0.523-1.564-0.387c-0.528,0.125-0.93,0.455-1.201,0.998c-0.339,0.678-0.509,2.179-0.503,4.504
			c0.005,2.324-0.146,4.078-0.451,5.27c-0.305,1.182-0.867,2.188-1.686,3.012c-0.824,0.824-1.938,1.406-3.356,1.744
			c-1.284,0.301-2.567,0.232-3.86-0.211c-1.288-0.447-2.358-1.26-3.216-2.434c-0.852-1.171-1.511-2.73-1.971-4.679
			c-0.678-2.828-0.538-5.153,0.407-6.984C1.779,123.237,3.469,121.88,5.9,120.99z"/>
		<path fill="#213A8F" d="M13.877,166.18l-2.122-4.582l3.899-4.021l-3.86-8.351l-5.541,0.465l-2.068-4.466l24.654-1.521l2.059,4.457
			L13.877,166.18z M18.551,154.593l6.418-6.461l-9.053,0.766L18.551,154.593z"/>
		<path fill="#213A8F" d="M16.832,170.712l18.517-13.668l5.807,7.867c1.463,1.985,2.354,3.545,2.688,4.688
			c0.325,1.144,0.267,2.296-0.189,3.458c-0.45,1.172-1.226,2.16-2.319,2.964c-1.39,1.026-2.839,1.462-4.345,1.317
			c-1.506-0.155-2.979-0.949-4.412-2.403c0.121,1.153,0.096,2.209-0.083,3.147c-0.175,0.94-0.65,2.394-1.434,4.351l-1.942,4.931
			l-3.299-4.476l2.034-5.677c0.727-2.024,1.152-3.353,1.269-3.98c0.111-0.63,0.092-1.191-0.063-1.686
			c-0.155-0.504-0.547-1.182-1.181-2.045l-0.557-0.756l-7.73,5.707L16.832,170.712z M30.277,166.568l2.044,2.76
			c1.323,1.793,2.223,2.858,2.703,3.197c0.484,0.33,1.002,0.494,1.559,0.475c0.557-0.028,1.114-0.242,1.671-0.648
			c0.62-0.465,1.002-0.998,1.138-1.618c0.141-0.61,0.034-1.259-0.309-1.937c-0.185-0.34-0.838-1.26-1.953-2.78l-2.156-2.917
			L30.277,166.568z"/>
		<path fill="#213A8F" d="M32.404,190.251l16.473-16.08l3.245,3.334l-16.473,16.07L32.404,190.251z"/>
		<path fill="#213A8F" d="M44.77,201.791l6.011-7.596l1.671-15.673l4.267,3.381l-1.405,10.491l9.813-3.836l4.195,3.322
			l-14.928,5.222l-5.997,7.565L44.77,201.791z"/>
		<path fill="#213A8F" d="M59.227,212.416l10.854-20.293l15.049,8.06l-1.836,3.43l-10.951-5.86l-2.407,4.494l10.191,5.455
			l-1.831,3.418l-10.191-5.453l-2.95,5.521l11.333,6.073l-1.831,3.42L59.227,212.416z"/>
		<path fill="#213A8F" d="M80.742,223.255l6.947-21.94l9.323,2.944c2.344,0.746,3.986,1.482,4.925,2.218
			c0.94,0.717,1.564,1.694,1.884,2.905c0.32,1.211,0.276,2.461-0.135,3.76c-0.518,1.646-1.435,2.848-2.741,3.613
			c-1.309,0.775-2.97,0.988-4.984,0.658c0.785,0.862,1.381,1.724,1.792,2.586c0.406,0.871,0.875,2.324,1.395,4.359l1.322,5.133
			l-5.299-1.676l-1.691-5.793c-0.6-2.063-1.036-3.379-1.312-3.963c-0.28-0.57-0.629-1.025-1.045-1.335
			c-0.417-0.312-1.133-0.629-2.15-0.948l-0.896-0.281l-2.901,9.153L80.742,223.255z M89.185,211.99l3.274,1.037
			c2.125,0.668,3.482,1.006,4.067,0.987c0.582-0.011,1.095-0.185,1.537-0.534c0.44-0.338,0.76-0.842,0.968-1.5
			c0.232-0.736,0.228-1.395-0.024-1.977s-0.718-1.037-1.396-1.385c-0.344-0.164-1.415-0.533-3.211-1.104l-3.458-1.095L89.185,211.99
			z"/>
		<path fill="#213A8F" d="M116.56,208.871l9.188,0.407c1.82,0.087,3.173,0.214,4.059,0.407c0.886,0.193,1.675,0.552,2.358,1.057
			c0.684,0.522,1.244,1.19,1.677,2.004c0.436,0.823,0.629,1.725,0.585,2.725c-0.048,1.074-0.382,2.053-1.003,2.923
			c-0.625,0.873-1.438,1.513-2.456,1.918c1.387,0.476,2.433,1.211,3.14,2.229c0.707,1.018,1.031,2.188,0.975,3.518
			c-0.049,1.045-0.334,2.053-0.867,3.021c-0.528,0.959-1.23,1.725-2.098,2.268c-0.866,0.561-1.922,0.881-3.163,0.949
			c-0.773,0.057-2.645,0.027-5.603-0.088l-7.828-0.351L116.56,208.871z M120.619,222.044l-0.281,6.143l4.302,0.193
			c1.67,0.078,2.736,0.078,3.188,0c0.696-0.088,1.272-0.369,1.729-0.834c0.455-0.465,0.703-1.113,0.735-1.928
			c0.034-0.688-0.105-1.277-0.421-1.781c-0.31-0.494-0.779-0.863-1.404-1.113c-0.62-0.244-1.991-0.418-4.098-0.516L120.619,222.044z
			 M121.025,212.9l-0.236,5.318l3.041,0.135c1.812,0.088,2.936,0.107,3.376,0.068c0.799-0.06,1.434-0.299,1.913-0.736
			c0.475-0.436,0.731-1.018,0.761-1.764c0.034-0.707-0.14-1.297-0.509-1.762c-0.373-0.465-0.943-0.756-1.715-0.883
			c-0.455-0.076-1.776-0.164-3.962-0.26L121.025,212.9z"/>
		<path fill="#213A8F" d="M141.155,232.304l-3.047-22.813l16.916-2.258l0.518,3.864l-12.313,1.638l0.678,5.057l11.451-1.521
			l0.514,3.835l-11.449,1.531l0.828,6.209l12.742-1.705l0.514,3.846L141.155,232.304z"/>
		<path fill="#213A8F" d="M164.803,228.447l-6.764-21.794l4.438-1.376l5.613,18.096l11.037-3.43l1.147,3.709L164.803,228.447z"/>
		<path fill="#213A8F" d="M185.581,221.455l-10.434-20.508l15.21-7.74l1.765,3.469l-11.063,5.629l2.31,4.552l10.299-5.239
			l1.758,3.457l-10.299,5.24l2.838,5.58l11.468-5.831l1.752,3.459L185.581,221.455z"/>
		<path fill="#213A8F" d="M192.715,191.792l6.728-5.192c1.521-1.163,2.767-1.937,3.739-2.315c1.313-0.514,2.658-0.658,4.045-0.445
			c1.374,0.213,2.717,0.756,4.016,1.617c1.293,0.854,2.6,2.142,3.913,3.848c1.157,1.501,1.966,2.936,2.433,4.311
			c0.565,1.676,0.74,3.256,0.527,4.729c-0.16,1.113-0.646,2.257-1.464,3.447c-0.614,0.881-1.604,1.84-2.965,2.896l-6.925,5.338
			L192.715,191.792z M198.775,192.035l9.3,12.08l2.75-2.121c1.026-0.795,1.725-1.414,2.09-1.89c0.487-0.61,0.789-1.239,0.903-1.899
			c0.117-0.668-0.014-1.492-0.391-2.508c-0.386-1.008-1.115-2.218-2.201-3.623c-1.088-1.414-2.049-2.393-2.872-2.964
			c-0.833-0.562-1.632-0.881-2.407-0.959c-0.769-0.077-1.559,0.078-2.366,0.455c-0.603,0.281-1.652,0.999-3.154,2.149
			L198.775,192.035z"/>
		<path fill="#213A8F" d="M208.795,176.846l-2.975-2.935l3.045-3.082l2.971,2.936L208.795,176.846z M225.986,194.069l-16.376-16.178
			l3.271-3.304l16.369,16.168L225.986,194.069z"/>
		<path fill="#213A8F" d="M237.314,181.457l-7.715-5.851l-15.709-1.356l3.294-4.33l10.525,1.19l-4.041-9.735l3.242-4.262
			l5.517,14.821l7.69,5.842L237.314,181.457z"/>
		<path fill="#213A8F" d="M247.693,166.684l-20.594-10.276l7.618-15.268l3.486,1.732l-5.545,11.111l4.563,2.275l5.157-10.336
			l3.474,1.734l-5.164,10.336l5.604,2.799l5.744-11.508l3.474,1.735L247.693,166.684z"/>
		<path fill="#213A8F" d="M250.32,143.871l0.793-4.465c1.535,0.135,2.757-0.098,3.667-0.707c0.906-0.611,1.557-1.59,1.934-2.945
			c0.396-1.453,0.396-2.625-0.006-3.518c-0.405-0.91-1.021-1.472-1.836-1.695c-0.527-0.146-1.013-0.117-1.468,0.088
			c-0.454,0.203-0.924,0.648-1.409,1.336c-0.328,0.476-0.982,1.59-1.965,3.324c-1.267,2.229-2.462,3.701-3.601,4.437
			c-1.604,1.017-3.277,1.289-5.032,0.794c-1.134-0.311-2.098-0.93-2.9-1.84c-0.805-0.911-1.297-2.043-1.478-3.391
			c-0.174-1.355-0.022-2.877,0.451-4.582c0.772-2.781,1.971-4.709,3.577-5.783c1.613-1.057,3.449-1.346,5.502-0.844l-1.049,4.535
			c-1.196-0.127-2.127,0.049-2.801,0.541c-0.678,0.495-1.188,1.366-1.541,2.625c-0.363,1.309-0.377,2.393-0.048,3.275
			c0.208,0.57,0.601,0.939,1.177,1.104c0.522,0.146,1.032,0.049,1.531-0.289c0.629-0.437,1.506-1.666,2.629-3.701
			c1.119-2.035,2.102-3.498,2.94-4.389c0.837-0.892,1.819-1.502,2.935-1.822c1.119-0.319,2.379-0.291,3.779,0.098
			c1.271,0.357,2.363,1.045,3.273,2.053c0.91,1.018,1.457,2.247,1.643,3.682c0.174,1.443,0,3.129-0.543,5.057
			c-0.779,2.8-2.025,4.775-3.738,5.908C255.021,143.9,252.886,144.278,250.32,143.871z"/>
		<path fill="#213A8F" d="M239.168,118.712l-4.137-0.571l0.588-4.291l4.141,0.572L239.168,118.712z M263.258,122.181l-22.807-3.119
			l0.631-4.602l22.801,3.12L263.258,122.181z"/>
	</g>
</g>
</svg>
