<?xml version="1.0" encoding="UTF-8" standalone="no"?>
<!-- Created with Inkscape (http://www.inkscape.org/) -->

<svg
   xmlns:dc="http://purl.org/dc/elements/1.1/"
   xmlns:cc="http://creativecommons.org/ns#"
   xmlns:rdf="http://www.w3.org/1999/02/22-rdf-syntax-ns#"
   xmlns:svg="http://www.w3.org/2000/svg"
   xmlns="http://www.w3.org/2000/svg"
   xmlns:sodipodi="http://sodipodi.sourceforge.net/DTD/sodipodi-0.dtd"
   xmlns:inkscape="http://www.inkscape.org/namespaces/inkscape"
   width="384.67358"
   height="408.13937"
   viewBox="0 0 101.77822 107.98688"
   version="1.1"
   id="svg8"
   inkscape:version="0.92.3 (2405546, 2018-03-11)"
   sodipodi:docname="belediye_cekmekoy.svg">
  <defs
     id="defs2" />
  <sodipodi:namedview
     id="base"
     pagecolor="#ffffff"
     bordercolor="#666666"
     borderopacity="1.0"
     inkscape:pageopacity="0.0"
     inkscape:pageshadow="2"
     inkscape:zoom="0.98994949"
     inkscape:cx="429.47195"
     inkscape:cy="57.916728"
     inkscape:document-units="px"
     inkscape:current-layer="layer1"
     showgrid="false"
     units="px"
     showborder="false"
     inkscape:window-width="1920"
     inkscape:window-height="1017"
     inkscape:window-x="-8"
     inkscape:window-y="-8"
     inkscape:window-maximized="1"
     fit-margin-top="0"
     fit-margin-left="0"
     fit-margin-right="0"
     fit-margin-bottom="0" />
  <metadata
     id="metadata5">
    <rdf:RDF>
      <cc:Work
         rdf:about="">
        <dc:format>image/svg+xml</dc:format>
        <dc:type
           rdf:resource="http://purl.org/dc/dcmitype/StillImage" />
        <dc:title></dc:title>
      </cc:Work>
    </rdf:RDF>
  </metadata>
  <g
     inkscape:label="Layer 1"
     inkscape:groupmode="layer"
     id="layer1"
     transform="translate(239.12125,-84.256551)">
    <g
       id="g1967"
       transform="matrix(0.26458333,0,0,0.26458333,-297.63933,69.467454)">
      <path
         inkscape:connector-curvature="0"
         id="path1866"
         style="fill:#017688;fill-rule:evenodd"
         d="M 221.1707,55.8958 V 464.0352 H 605.8443 V 55.8958 Z" />
      <path
         inkscape:connector-curvature="0"
         id="path1868"
         style="fill:#017688;fill-rule:evenodd"
         d="M 264.937,343.5007 H 226.4913 V 61.3672 h 374.1265 v 147.388 c 0,0 -35.9638,-41.1556 -122.9638,-36.6556 -87.0001,4.5 -128.2502,73.5001 -128.2502,73.5001 0,0 11.2499,-84.0005 103.5,-126.7504 0,0 -123.7501,35.2503 -145.5001,167.2504 0,0 -9.75,-160.5005 164.2502,-216.7504 0,0 -213.0001,30.7503 -206.7169,274.1514 z" />
      <path
         inkscape:connector-curvature="0"
         id="path1870"
         style="fill:#f37a31;fill-rule:evenodd"
         d="m 350.7208,343.5007 c -1.7918,-44.4104 17.6964,-90.6084 50.0397,-121.0695 26.3735,-24.8397 65.353,-45.9779 122.0647,-42.6101 14.0417,0.8337 35.0328,5.1409 49.3049,12.1096 4.4416,2.1685 10.3023,4.8623 15.0222,7.9668 l 13.4655,8.8577 v 134.7455 z" />
      <path
         inkscape:connector-curvature="0"
         id="path1872"
         style="fill:#ffffff;fill-rule:evenodd"
         d="m 600.6178,343.5007 h -249.897 c -1.7918,-44.4104 17.6964,-90.6084 50.0397,-121.0695 26.3735,-24.8397 65.353,-45.9779 122.0647,-42.6101 14.0417,0.8337 35.0328,5.1409 49.3049,12.1096 4.4416,2.1685 10.3023,4.8623 15.0222,7.9668 l 13.4655,8.8577 c 0,0 -35.9638,-41.1556 -122.9638,-36.6556 -87.0001,4.5 -128.2502,73.5001 -128.2502,73.5001 0,0 11.2499,-84.0005 103.5,-126.7504 0,0 -123.7501,35.2503 -145.5001,167.2504 0,0 -9.75,-160.5005 164.2502,-216.7504 0,0 -213.0001,30.7503 -206.7169,274.1514 H 226.4913 V 458.316 h 374.1265 z" />
      <path
         inkscape:connector-curvature="0"
         id="path1874"
         style="fill:#017688;fill-rule:evenodd"
         d="m 567.494,414.2392 h -9.3783 v -18.6099 l -16.8303,-27.8979 h 10.9286 l 10.9063,19.3579 11.1501,-19.3579 h 9.8325 l -16.6089,27.8979 z" />
      <path
         inkscape:connector-curvature="0"
         id="path1876"
         style="fill:#017688;fill-rule:evenodd"
         d="m 511.3203,363.3105 v -7.7476 h 7.5293 v 7.7476 z" />
      <path
         inkscape:connector-curvature="0"
         id="path1878"
         style="fill:#017688;fill-rule:evenodd"
         d="m 532.3692,355.5629 v 7.7476 h -7.5183 v -7.7476 z" />
      <path
         inkscape:connector-curvature="0"
         id="path1880"
         style="fill:#017688;fill-rule:evenodd"
         d="m 499.3509,390.7509 c 0,-3.4831 0.5095,-6.7319 1.528,-9.746 1.0077,-3.003 2.4803,-5.5481 4.3847,-7.6135 1.9157,-2.0764 4.0749,-3.6283 6.4775,-4.6776 3.0449,-1.3284 6.4775,-1.9985 10.2864,-1.9985 4.4067,0 8.2822,0.9044 11.6039,2.7129 3.3329,1.8085 5.957,4.6552 7.8504,8.5179 1.9044,3.8738 2.8568,8.1719 2.8568,12.9054 0,4.7331 -0.919,8.9976 -2.7681,12.7934 -1.8491,3.7955 -4.5288,6.6647 -8.0275,8.6184 -3.51,1.9537 -7.4409,2.9247 -11.8146,2.9247 -4.2737,0 -8.1713,-0.971 -11.6926,-2.9247 -3.5098,-1.9537 -6.1671,-4.7893 -7.9832,-8.4957 -1.8047,-3.7063 -2.7017,-8.0377 -2.7017,-13.0167 z m 22.5438,17.1474 c 3.3771,0 6.1562,-1.3284 8.3374,-3.9632 2.746,-3.2485 4.1192,-7.5802 4.1192,-12.9834 0,-3.6839 -0.6202,-6.8769 -1.8604,-9.5672 -1.2511,-2.6904 -2.7901,-4.6105 -4.6391,-5.7492 -1.8494,-1.1498 -3.8645,-1.7194 -6.0237,-1.7194 -3.4324,0 -6.2448,1.3173 -8.4373,3.9522 -2.7015,3.2484 -4.0523,7.6581 -4.0523,13.2177 0,3.5722 0.5646,6.6311 1.694,9.1876 1.1184,2.5454 2.6354,4.4544 4.5508,5.727 1.9154,1.2615 4.0192,1.8979 6.3114,1.8979 z" />
      <path
         inkscape:connector-curvature="0"
         id="path1882"
         style="fill:#017688;fill-rule:evenodd"
         d="m 463.2475,414.2392 v -46.5078 h 9.3783 v 19.8491 l 16.7083,-19.8491 h 11.4491 l -19.0778,21.557 19.8198,24.9508 h -12.1245 l -16.7749,-21.7134 v 21.7134 z" />
      <path
         inkscape:connector-curvature="0"
         id="path1884"
         style="fill:#017688;fill-rule:evenodd"
         d="m 426.8366,414.2392 v -46.2846 h 27.2827 v 7.7587 H 436.215 v 11.0186 h 16.3761 v 7.5913 H 436.215 v 12.1684 h 18.0704 v 7.7476 z" />
      <path
         inkscape:connector-curvature="0"
         id="path1886"
         style="fill:#017688;fill-rule:evenodd"
         d="m 364.3621,414.2392 v -46.5078 h 14.9145 l 11.0614,35.3554 11.3938,-35.3554 h 14.5934 v 46.5078 h -8.8248 V 375.479 l -13.0655,38.7602 h -8.7031 L 372.9541,375.479 v 38.7602 z" />
      <path
         inkscape:connector-curvature="0"
         id="path1888"
         style="fill:#017688;fill-rule:evenodd"
         d="m 321.0823,414.2392 v -46.5078 h 9.3784 v 19.8491 l 16.7082,-19.8491 h 11.4492 l -19.0779,21.557 19.8198,24.9508 h -12.1244 l -16.7749,-21.7134 v 21.7134 z" />
      <path
         inkscape:connector-curvature="0"
         id="path1890"
         style="fill:#017688;fill-rule:evenodd"
         d="m 287.5483,414.2392 v -46.2846 h 27.2827 v 7.7587 h -17.9043 v 11.0186 h 16.3761 v 7.5913 h -16.3761 v 12.1684 h 18.0704 v 7.7476 z" />
      <path
         inkscape:connector-curvature="0"
         id="path1892"
         style="fill:#017688;fill-rule:evenodd"
         d="m 280.2711,369.2718 -0.7421,7.9711 c -1.4283,-0.692 -3.1339,-1.2391 -5.1155,-1.6413 -1.9711,-0.4127 -3.7754,-0.614 -5.3919,-0.614 -2.7466,0 -5.2487,0.6588 -7.497,1.9871 -2.2477,1.3176 -3.9635,3.2043 -5.1369,5.6492 -1.1846,2.4556 -1.7717,5.169 -1.7717,8.1269 0,4.8226 1.4389,8.7078 4.3069,11.6436 2.8787,2.9472 6.6435,4.4209 11.2945,4.4209 3.399,0 6.654,-0.6585 9.7655,-1.9647 l 0.3876,8.3058 c -1.1846,0.3793 -2.8458,0.7254 -4.9603,1.0491 -1.4786,0.2254 -2.8981,0.3748 -4.2658,0.4451 l -2.8019,5.8337 h -8.1197 l 2.9571,-6.3406 c -1.9108,-0.3586 -3.7289,-0.8918 -5.4527,-1.6013 -4.2188,-1.7529 -7.4738,-4.4433 -9.7656,-8.0827 -2.2927,-3.6391 -3.4329,-8.0714 -3.4329,-13.2732 0,-7.1561 2.1816,-12.928 6.5662,-17.3038 4.3731,-4.3875 10.186,-6.5756 17.4393,-6.5756 4.1299,0 8.0382,0.6475 11.7369,1.9647 z" />
      <path
         inkscape:connector-curvature="0"
         id="path1894"
         style="fill:#f37a31;fill-rule:evenodd"
         d="m 460.7989,422.2752 h -4.1865 v 3.8874 h 4.1865 z" />
      <path
         inkscape:connector-curvature="0"
         id="path1896"
         style="fill:#f37a31;fill-rule:evenodd"
         d="m 456.6124,428.0468 v 15.9089 h 4.1865 v -15.9089 z" />
      <path
         inkscape:connector-curvature="0"
         id="path1898"
         style="fill:#f37a31;fill-rule:evenodd"
         d="m 435.0702,437.347 c 0,2.6614 1.3459,7.1767 9.1806,7.1767 1.8839,0 8.4628,-0.568 8.4628,-7.0273 0,-3.8577 -2.6912,-5.0539 -5.6219,-5.7714 l -5.2331,-1.286 c -0.8972,-0.2092 -2.2728,-0.5681 -2.2728,-2.2428 0,-1.9437 2.0336,-2.5716 3.738,-2.5716 3.9175,0 4.2764,2.2725 4.396,3.2295 h 4.3061 c -0.03,-2.6317 -1.7943,-6.9378 -8.3732,-6.9378 -6.9676,0 -8.2534,4.2166 -8.2534,6.609 0,4.7248 3.3491,5.5023 6.8182,6.3096 l 2.3026,0.5383 c 2.2725,0.5383 3.8874,0.9868 3.8874,2.6615 0,2.2728 -2.3624,2.781 -4.4855,2.781 -3.9175,0 -4.5156,-2.2728 -4.5454,-3.4687 z" />
      <path
         inkscape:connector-curvature="0"
         id="path1900"
         style="fill:#f37a31;fill-rule:evenodd"
         d="m 431.6046,422.4847 h -15.7893 v 21.471 h 16.2975 v -3.7979 H 420.211 v -5.5621 h 10.4666 v -3.7979 H 420.211 v -4.5156 h 11.3936 z" />
      <path
         inkscape:connector-curvature="0"
         id="path1902"
         style="fill:#f37a31;fill-rule:evenodd"
         d="m 405.5312,435.9115 7.1771,-13.4268 h -5.0837 l -4.2463,9.3299 -4.4558,-9.3299 h -5.2931 l 7.4163,13.367 v 8.104 h 4.4855 z" />
      <path
         inkscape:connector-curvature="0"
         id="path1904"
         style="fill:#f37a31;fill-rule:evenodd"
         d="m 390.1348,422.2752 h -4.1865 v 3.8874 h 4.1865 z" />
      <path
         inkscape:connector-curvature="0"
         id="path1906"
         style="fill:#f37a31;fill-rule:evenodd"
         d="m 385.9483,428.0468 v 15.9089 h 4.1865 v -15.9089 z" />
      <path
         inkscape:connector-curvature="0"
         id="path1908"
         style="fill:#f37a31;fill-rule:evenodd"
         d="m 363.5847,443.9557 h 9.3002 c 7.0872,0 8.9113,-6.6388 8.9113,-11.2439 0,-4.0669 -1.4953,-10.2271 -8.7319,-10.2271 h -9.4796 z m 4.3957,-17.763 h 4.3064 c 1.9136,0 4.934,0.5082 4.934,6.8479 0,3.5288 -1.226,7.2071 -4.8742,7.2071 h -4.3662 z" />
      <path
         inkscape:connector-curvature="0"
         id="path1910"
         style="fill:#f37a31;fill-rule:evenodd"
         d="m 358.4455,422.4847 h -15.7893 v 21.471 h 16.2975 v -3.7979 h -11.9018 v -5.5621 h 10.4667 v -3.7979 h -10.4667 v -4.5156 h 11.3936 z" />
      <path
         inkscape:connector-curvature="0"
         id="path1912"
         style="fill:#f37a31;fill-rule:evenodd"
         d="m 328.4549,422.4847 h -4.4855 v 21.471 h 15.1614 v -3.8874 h -10.6759 z" />
      <path
         inkscape:connector-curvature="0"
         id="path1914"
         style="fill:#f37a31;fill-rule:evenodd"
         d="m 319.3971,422.4847 h -15.7893 v 21.471 h 16.2976 v -3.7979 h -11.9019 v -5.5621 h 10.4667 v -3.7979 h -10.4667 v -4.5156 h 11.3936 z" />
      <path
         inkscape:connector-curvature="0"
         id="path1916"
         style="fill:#f37a31;fill-rule:evenodd"
         d="m 281.6016,443.9557 h 9.0907 c 4.396,0 5.5622,-0.7475 6.7882,-1.9437 1.1364,-1.1064 1.8541,-2.7213 1.8541,-4.4258 0,-2.1234 -0.6877,-4.2165 -3.3194,-5.2035 0.8972,-0.4485 2.6317,-1.3156 2.6317,-4.3957 0,-2.213 -1.3459,-5.5023 -6.6089,-5.5023 h -10.4364 z m 4.3061,-17.763 h 5.1435 c 2.0336,0 3.2893,0.5383 3.2893,2.3025 0,1.7045 -1.4054,2.3925 -3.1697,2.3925 h -5.2631 z m 0,8.3134 h 5.7116 c 1.6149,0 3.2298,0.7175 3.2298,2.6016 0,2.183 -1.2561,3.14 -3.439,3.14 h -5.5024 z" />
      <path
         inkscape:connector-curvature="0"
         id="path1918"
         style="fill:#f37a31;fill-rule:evenodd"
         d="m 535.3336,439.0515 c 0.3589,3.3791 2.9605,5.4722 6.5789,5.4722 3.8277,0 7.7151,-2.6614 7.7151,-10.885 0,-2.9903 -0.1196,-10.9148 -7.4758,-10.9148 -4.1567,0 -7.2369,2.4222 -7.2369,7.6255 0,3.5586 2.3624,6.6387 6.4293,6.6387 1.4355,0 3.0801,-0.3588 4.0371,-1.7943 l 0.0598,0.0598 c -0.0298,4.4558 -1.7643,5.921 -3.4988,5.921 -1.2858,0 -2.2127,-0.6279 -2.452,-2.0934 v -0.0297 z m 3.7678,-9.3002 c 0,-3.0504 1.9437,-3.5887 3.0203,-3.5887 2.1532,0 3.1998,1.4953 3.1998,3.9175 0,2.5121 -1.6149,3.5586 -3.0801,3.5586 -1.5849,0 -3.14,-0.6877 -3.14,-3.8874 z" />
      <path
         inkscape:connector-curvature="0"
         id="path1920"
         style="fill:#f37a31;fill-rule:evenodd"
         d="m 518.0647,433.6089 c 0,7.4461 2.3624,10.9148 7.3564,10.9148 4.9938,0 7.3562,-3.4687 7.3562,-10.9148 0,-7.4463 -2.3624,-10.885 -7.3562,-10.885 -4.994,0 -7.3564,3.4387 -7.3564,10.885 z m 4.3061,0 c 0,-5.4725 0.6579,-7.5359 3.0503,-7.5359 2.3922,0 3.0501,2.0634 3.0501,7.5359 0,5.4723 -0.6579,7.5657 -3.0501,7.5657 -2.3924,0 -3.0503,-2.0934 -3.0503,-7.5657 z" />
      <path
         inkscape:connector-curvature="0"
         id="path1922"
         style="fill:#f37a31;fill-rule:evenodd"
         d="m 500.5877,433.6089 c 0,7.4461 2.3623,10.9148 7.3564,10.9148 4.9938,0 7.3562,-3.4687 7.3562,-10.9148 0,-7.4463 -2.3624,-10.885 -7.3562,-10.885 -4.9941,0 -7.3564,3.4387 -7.3564,10.885 z m 4.3061,0 c 0,-5.4725 0.6579,-7.5359 3.0503,-7.5359 2.3922,0 3.0501,2.0634 3.0501,7.5359 0,5.4723 -0.6579,7.5657 -3.0501,7.5657 -2.3924,0 -3.0503,-2.0934 -3.0503,-7.5657 z" />
      <path
         inkscape:connector-curvature="0"
         id="path1924"
         style="fill:#f37a31;fill-rule:evenodd"
         d="m 488.0877,430.2298 c 0.0301,-1.5551 0.1196,-3.9773 3.0504,-3.9773 2.0333,0 2.9304,1.6149 2.9304,3.0203 0,2.3924 -1.525,3.4687 -5.3526,6.2498 -4.6055,3.3494 -4.7849,5.9511 -4.9343,8.4331 h 14.5035 v -3.708 h -9.2106 c 0.4784,-0.987 1.944,-1.944 4.7548,-3.9175 2.0633,-1.4054 4.4257,-3.2596 4.4257,-6.908 0,-4.3061 -3.2295,-6.6983 -7.2964,-6.6983 -1.8841,0 -6.9377,0.5978 -6.9377,7.5059 z" />
      <path
         inkscape:connector-curvature="0"
         id="path1926"
         style="fill:#f37a31;fill-rule:evenodd"
         d="m 476.4342,433.6387 h -8.3432 v 3.8877 h 8.3432 z" />
    </g>
  </g>
</svg>
