<?xml version="1.0" encoding="utf-8"?>
<!-- Generator: Adobe Illustrator 16.0.0, SVG Export Plug-In . SVG Version: 6.00 Build 0)  -->
<!DOCTYPE svg PUBLIC "-//W3C//DTD SVG 1.1//EN" "http://www.w3.org/Graphics/SVG/1.1/DTD/svg11.dtd">
<svg version="1.1" id="Layer_1" xmlns="http://www.w3.org/2000/svg" xmlns:xlink="http://www.w3.org/1999/xlink" x="0px" y="0px"
	 width="198.678px" height="214.822px" viewBox="0 0 198.678 214.822" enable-background="new 0 0 198.678 214.822"
	 xml:space="preserve">
<g>
	<path fill-rule="evenodd" clip-rule="evenodd" fill="#E30613" d="M20.734,161.256h-9.526l3.733-12.129
		c0.637-2.012,0.98-4.32,0.98-4.32c0.1,0,0.441,2.309,1.082,4.32L20.734,161.256 M31.931,174.66l-11.883-35.547h-8.152L0.017,174.66
		h7.216l2.602-8.299h12.274l2.603,8.299H31.931z M51.256,144.904v-5.791H29.357v5.791h7.511v29.756h6.921v-29.756H51.256z
		 M69.895,161.256h-9.526l3.731-12.129c0.637-2.012,0.98-4.32,0.98-4.32c0.098,0,0.442,2.309,1.081,4.32L69.895,161.256z
		 M81.088,174.66l-11.884-35.547h-8.148L49.175,174.66h7.216l2.603-8.299h12.275l2.6,8.299H81.088z M127.297,174.66v-5.795h-12.125
		v-9.379h10.947v-5.693h-10.947v-8.889h12.125v-5.791h-18.903v35.547H127.297z M156.051,174.66v-35.547h-6.926v14.68h-10.898v-14.68
		h-6.922v35.547h6.922v-15.174h10.898v15.174H156.051z M167.568,174.66h-6.922v-26.918h6.922V174.66z M167.568,144.564h-6.922
		v-5.451h6.922V144.564z M189.938,149.619c0,3.928-2.408,5.693-6.773,5.693h-3.684v-10.947c0.932-0.344,2.506-0.59,3.975-0.59
		C187.926,143.775,189.938,145.938,189.938,149.619 M198.678,174.66l-4.762-11.293c-0.982-2.311-2.26-4.174-4.123-5.205
		c3.68-1.129,6.922-3.83,6.922-8.938c0-6.627-4.52-10.703-13.406-10.703c-3.928,0-7.855,0.688-10.654,1.914v34.225h6.826v-14.438
		h2.602c2.453,0,3.928,1.375,4.813,3.537l4.467,10.9H198.678z M15.49,205.645c0,3.156-2.104,4.672-6.272,4.672
		c-1.263,0-2.735-0.209-3.575-0.504v-8.881h3.831c2.061,0,3.112,0.334,4.124,0.967C14.817,202.656,15.49,203.961,15.49,205.645
		 M14.903,192.217c0,1.516-0.59,2.779-1.474,3.494s-1.979,1.01-4.043,1.01H5.643v-8.375c0.797-0.297,2.188-0.508,3.535-0.508
		C13.093,187.838,14.903,189.48,14.903,192.217 M21.344,206.025c0-4.34-3.114-6.736-5.558-7.537
		c2.443-0.758,4.757-3.326,4.757-6.818c0-4.84-3.621-8.336-11.365-8.336c-3.495,0-6.903,0.674-9.178,1.641v28.205
		c2.105,0.926,5.81,1.643,9.261,1.643C17.219,214.822,21.344,211.496,21.344,206.025 M42.131,214.316v-4.965H31.733v-8.041h9.388
		v-4.885h-9.388v-7.621h10.397v-4.965H25.925v30.477H42.131z M62.244,214.316v-4.965h-9.47V183.84h-5.937v30.477H62.244z
		 M82.568,214.316v-4.965H72.173v-8.041h9.388v-4.885h-9.388v-7.621h10.396v-4.965H66.362v30.477H82.568z M103.19,199.078
		c0,7.576-2.992,10.734-7.199,10.734c-1.18,0-2.231-0.168-2.78-0.422v-20.627c0.634-0.252,1.643-0.422,2.78-0.422
		C100.198,188.342,103.19,191.5,103.19,199.078 M109.123,199.078c0-10.23-4.968-15.744-13.469-15.744
		c-3.327,0-6.483,0.715-8.377,1.641v28.205c1.853,0.926,4.966,1.643,8.377,1.643C104.155,214.822,109.123,209.307,109.123,199.078
		 M119.809,214.316h-5.936v-24.084h5.936V214.316z M119.809,187.936h-5.936v-4.096h5.936V187.936z M146.951,183.84h-6.396
		l-5.6,12.543l-5.641-12.543h-6.398l9.051,18.521v11.955h5.936v-11.955L146.951,183.84z M166.268,214.316v-4.965h-10.396v-8.041
		h9.387v-4.885h-9.387v-7.621h10.396v-4.965h-16.207v30.477H166.268z M187.939,205.475c0-5.387-4.336-7.492-7.662-9.133
		c-2.23-1.094-4.293-2.232-4.293-4.334c0-2.148,1.639-3.582,4.209-3.582c1.938,0,3.912,0.717,5.012,1.35l1.85-4.801
		c-1.559-0.926-4.125-1.641-7.115-1.641c-6.104,0-9.893,3.58-9.893,9.008c0,5.344,4.254,7.619,7.662,9.176
		c2.23,1.014,4.168,2.105,4.168,4.252c0,2.234-1.809,3.707-4.629,3.707c-2.064,0-4.254-0.633-5.6-1.432l-1.936,5.135
		c1.727,0.926,4.84,1.643,7.826,1.643C184.105,214.822,187.939,211.033,187.939,205.475 M198.496,214.316h-5.936v-24.084h5.936
		V214.316z M198.496,187.936h-5.936v-4.096h5.936V187.936z M104.979,164.348c0-6.285-5.059-8.74-8.939-10.654
		c-2.6-1.277-5.008-2.6-5.008-5.057c0-2.502,1.917-4.174,4.911-4.174c2.259,0,4.566,0.836,5.842,1.572l2.16-5.6
		c-1.816-1.08-4.811-1.914-8.298-1.914c-7.12,0-11.539,4.176-11.539,10.51c0,6.232,4.96,8.885,8.938,10.699
		c2.601,1.18,4.859,2.459,4.859,4.961c0,2.604-2.11,4.32-5.399,4.32c-2.406,0-4.959-0.736-6.533-1.668l-2.255,5.99
		c2.012,1.078,5.643,1.912,9.132,1.912C100.51,175.246,104.979,170.832,104.979,164.348 M96.209,176.123v3.223h-6.034v-3.119
		c0.937,0.113,1.898,0.176,2.852,0.176C94.158,176.402,95.221,176.307,96.209,176.123"/>
	<g>
		<path fill-rule="evenodd" clip-rule="evenodd" fill="#D35090" d="M44.498,75.091c3.649,9.592,16.979,4.985,21.948,2.108
			c1.254-0.727,3.641-2.052,3.224-3.605l-0.097-0.311c-5.063,2.288-15.256,3.817-17.753-2.534c-2.467-6.285,4.754-14.682,9.11-18.27
			c0,0-0.041-0.139-0.098-0.221c-0.738-1.086-2.981,0.262-4.184,0.99C51.476,56.39,41.017,65.946,44.498,75.091 M58.11,66.573
			c1.18,5.254,13.179-4.545,12.637-5.355C70.175,60.362,57.425,63.519,58.11,66.573"/>
		<path fill-rule="evenodd" clip-rule="evenodd" fill="#E30613" d="M68.07,105.004c-8.375-5.816-2.858-19.806,0.657-25.302
			c0.814-1.273,2.314-3.56,3.635-3.136c0.43,0.135,0.018,0.62-0.143,1.125c-2.297,7.26-4.887,15.487,0.929,19.401
			c4.456,3,8.22,1.981,12.435-1.59c0.367-0.311,0.491-0.5,0.8-0.356c0.13,0.059,0.212,0.175,0.159,0.562
			c-0.131,0.938-0.344,1.944-0.506,2.878c-0.063,0.37-0.162,0.73-0.389,1.143c-0.135,0.234-0.224,0.364-0.4,0.57
			C80.618,105.682,75.219,109.973,68.07,105.004 M76.206,91.281c3.543,3.858,8.796-10.458,7.824-11.013
			C83.135,79.755,74.087,88.977,76.206,91.281"/>
		<path fill-rule="evenodd" clip-rule="evenodd" fill="#8B4A97" d="M54.868,25.585c-6.98,8.684,0.063,18.588,3.664,21.696
			c0.912,0.785,2.604,2.315,3.807,1.12l0.238-0.253c-3.16-3.524-6.949-12.227-2.238-18.063c4.76-5.895,13.914-3.747,18.209-1.575
			c0,0,0.114-0.122,0.175-0.224c0.794-1.341-0.978-2.754-1.935-3.503C72.696,21.575,61.739,17.04,54.868,25.585 M66.364,35.146
			c-3.406,3.499,15.446,14.124,15.906,13.267C82.759,47.504,70.684,30.714,66.364,35.146"/>
		<path fill-rule="evenodd" clip-rule="evenodd" fill="#008DD1" d="M95.521,0.332c10.859-2.569,14.241,10.431,14.44,15.928
			c0.049,1.386,0.196,3.995-1.463,4.549l-0.339,0.097c-0.794-5.233-5.201-14.049-12.438-12.411
			c-7.153,1.618-10.711,11.976-11.51,17.39c0,0-0.152,0.048-0.26,0.052c-1.41,0.033-1.459-2.471-1.477-3.816
			C82.397,16.32,85.173,2.778,95.521,0.332 M97.374,16.545c-5.215,0.665-0.171,20.257,0.781,20.062
			C99.165,36.394,103.515,15.759,97.374,16.545"/>
		<path fill-rule="evenodd" clip-rule="evenodd" fill="#0BBBEF" d="M139.344,9.429c9.119,6.096,0.984,20.37-3.168,25.338
			c-1.039,1.246-2.951,3.615-4.426,2.83c-0.115-0.061-0.291-0.174-0.291-0.174c3.52-5.152,7.557-16.332,1.617-20.436
			c-5.846-4.034-15.967,2.494-20.492,6.646c0,0-0.129-0.074-0.2-0.151c-0.912-1.033,0.905-3.266,1.896-4.469
			C118.566,13.806,130.715,3.657,139.344,9.429 M128.086,25.366c-4.373-2.918-13.977,15.576-13.129,16.049
			C115.857,41.921,133.236,28.8,128.086,25.366"/>
		<path fill-rule="evenodd" clip-rule="evenodd" fill="#FFDD00" d="M154.174,59.593c-4.074,12.086-20.541,11.522-26.443,10.09
			c-1.465-0.357-4.225-0.971-3.842-2.745l0.09-0.357c5.881,0.715,18.037-1.152,20.727-9.063c2.695-7.922-6.609-14.224-11.969-16.316
			c0,0,0.043-0.168,0.104-0.279c0.805-1.472,3.529-0.957,5.004-0.668C144.301,41.522,158.133,47.856,154.174,59.593 M137.174,53.241
			c-0.113-4.147-15.768-1.445-15.66-0.623C121.629,53.491,137.32,58.524,137.174,53.241"/>
		<path fill-rule="evenodd" clip-rule="evenodd" fill="#F39325" d="M128.143,100.351c-6.262,5.65-11.559,3.533-17.196-0.311
			c-0.204-0.139-0.337-0.226-0.481-0.431c-0.157-0.225-0.216-0.448-0.255-0.653c-0.226-1.212-0.307-1.814-0.47-2.959
			c-0.044-0.298-0.1-0.565,0.145-0.714c0.221-0.139,0.35,0,0.657,0.119c4.171,1.638,8.528,1.57,12.325-1.884
			c6.322-5.757,1.717-16.852-1.293-21.733c0,0,0.123-0.133,0.232-0.205c1.416-0.936,3.244,1.043,4.23,2.121
			C130.342,78.427,137.564,91.852,128.143,100.351 M119.688,88.731c-2.783,3.154-8.731-9.693-7.761-10.249
			C112.822,77.972,122.301,85.771,119.688,88.731"/>
		<path fill-rule="evenodd" clip-rule="evenodd" fill="#76B82A" d="M90.251,58.81c0.023-2.73,1.123-5.246,2.889-7.109
			c1.764-1.864,4.197-3.078,6.883-3.201c2.69-0.121,5.13,0.877,6.895,2.596c1.773,1.723,2.866,4.17,2.857,6.925
			c-0.009,2.761-1.117,5.306-2.907,7.183c-1.788,1.876-4.248,3.085-6.956,3.183c-2.699,0.098-5.127-0.934-6.873-2.672
			C91.296,63.982,90.231,61.544,90.251,58.81 M122.545,64.284c2.605-1.076-17.292-1.799-22.451,13.701
			c-5.503,16.533,13.99,38.878,14.66,38.148C115.695,115.108,89.909,77.75,122.545,64.284 M69.089,58.374
			c-2.357-0.97,26.723,0.332,28.374,23.075c1.573,21.66-17.874,48.264-20.3,47.699C75.882,128.852,114.375,77.006,69.089,58.374
			 M112.659,123.641c0-1.916,1.56-3.47,3.485-3.47h8.268c1.924,0,3.484,1.554,3.484,3.47c0,1.914-1.561,3.469-3.484,3.469h-8.268
			C114.219,127.109,112.659,125.555,112.659,123.641 M116.871,125.949h-2.779l1.52-2.188c0.266-0.379,0.396-0.709,0.396-0.992
			c0-0.477-0.268-0.713-0.805-0.713c-0.297,0-0.563,0.059-0.793,0.178l-0.191-0.496c0.324-0.166,0.717-0.254,1.182-0.254
			s0.826,0.123,1.082,0.363c0.232,0.221,0.35,0.5,0.35,0.842c0,0.328-0.189,0.744-0.568,1.248l-1.035,1.365h1.643V125.949
			 M119.582,123.742c0-1.18-0.223-1.77-0.672-1.77c-0.447,0-0.672,0.59-0.672,1.77c0,1.168,0.225,1.752,0.672,1.752
			C119.359,125.494,119.582,124.91,119.582,123.742 M120.33,123.75c0,0.609-0.094,1.111-0.281,1.502
			c-0.248,0.508-0.627,0.762-1.139,0.762c-0.51,0-0.891-0.254-1.137-0.762c-0.188-0.391-0.283-0.893-0.283-1.502
			s0.096-1.109,0.283-1.5c0.246-0.506,0.627-0.766,1.137-0.766c0.512,0,0.891,0.26,1.139,0.766
			C120.236,122.641,120.33,123.141,120.33,123.75 M122.879,123.742c0-1.18-0.221-1.77-0.668-1.77c-0.449,0-0.672,0.59-0.672,1.77
			c0,1.168,0.223,1.752,0.672,1.752C122.658,125.494,122.879,124.91,122.879,123.742 M123.629,123.75
			c0,0.609-0.094,1.111-0.279,1.502c-0.248,0.508-0.627,0.762-1.139,0.762s-0.891-0.254-1.139-0.762
			c-0.186-0.391-0.279-0.893-0.279-1.502s0.094-1.109,0.279-1.5c0.248-0.506,0.627-0.766,1.139-0.766s0.891,0.26,1.139,0.766
			C123.535,122.641,123.629,123.141,123.629,123.75 M126.18,123.148c0-0.766-0.238-1.148-0.715-1.148
			c-0.221,0-0.391,0.092-0.506,0.281c-0.096,0.162-0.146,0.369-0.146,0.625c0,0.602,0.281,0.9,0.844,0.9
			c0.158,0,0.314-0.033,0.475-0.096C126.164,123.555,126.18,123.367,126.18,123.148 M126.91,123.193
			c0,0.854-0.293,1.551-0.877,2.096c-0.416,0.389-0.865,0.629-1.342,0.725l-0.197-0.52c0.754-0.221,1.264-0.672,1.533-1.346
			c-0.18,0.057-0.352,0.086-0.516,0.086c-0.406,0-0.736-0.102-0.994-0.305c-0.289-0.238-0.434-0.584-0.434-1.035
			c0-0.398,0.125-0.725,0.377-0.986c0.252-0.264,0.596-0.396,1.035-0.396c0.475,0,0.834,0.162,1.08,0.488
			C126.799,122.291,126.91,122.691,126.91,123.193"/>
	</g>
</g>
</svg>
